# Blender 5.1.2
# www.blender.org
mtllib akm 2.mtl
o akm_2
v -0.521918 -0.720044 0.074099
v -0.526488 -0.713197 -0.051445
v -0.521918 -0.720044 -0.036562
v -0.508199 -0.740608 -0.033508
v -0.508199 -0.740608 0.075198
v -0.526488 -0.713197 0.088983
v -0.577120 -0.637309 -0.051445
v -0.577120 -0.637309 0.088983
v -0.644134 -0.536861 -0.051445
v -0.644134 -0.536861 0.088983
v -0.649418 -0.528948 -0.051445
v -0.649418 -0.528948 0.088983
v -0.664392 -0.506508 -0.027040
v -0.664392 -0.506508 0.064577
v -0.693258 -0.463245 -0.027040
v -0.693258 -0.463245 0.064577
v 0.036073 0.381732 0.052254
v 0.025067 0.381732 0.072024
v 0.040918 0.381732 0.074099
v 0.051628 0.381732 0.061534
v 0.032656 0.381732 0.088983
v -0.059001 0.381732 0.088983
v -0.063326 0.381732 0.072024
v 0.065755 0.381732 0.075197
v 0.051628 0.381732 -0.019603
v 0.065755 0.381732 -0.033509
v 0.040918 0.381732 -0.036562
v 0.033339 0.381732 -0.019603
v 0.025067 0.381732 -0.034486
v 0.032656 0.381732 -0.051445
v 0.076995 0.301232 -0.018626
v 0.076995 0.301232 0.056163
v 0.108360 0.278832 -0.018626
v 0.108360 0.278832 0.056163
v 0.070569 0.358162 0.056163
v 0.070569 0.358162 -0.018626
v -0.059001 0.381732 -0.051445
v -0.063326 0.381732 -0.034486
v -0.180320 0.351702 -0.051445
v -0.059001 0.381732 -0.051445
v -0.180320 0.351702 -0.034486
v -0.185155 0.351702 -0.034486
v -0.189877 0.351702 -0.051445
v -0.216979 0.351702 -0.027040
v -0.212256 0.351702 -0.010081
v -0.255106 0.351702 -0.010081
v -0.269233 0.351702 -0.027040
v -0.269233 0.351702 0.064577
v -0.255106 0.351702 0.047619
v -0.216979 0.351702 0.064577
v -0.212256 0.351702 0.047619
v -0.185155 0.351702 0.072024
v -0.189877 0.351702 0.088983
v -0.180320 0.351702 0.088983
v -0.180320 0.351702 0.072024
v -0.063326 0.381732 0.072024
v -0.180320 0.351702 0.088983
v -0.059001 0.381732 0.088983
v 0.062185 0.358162 -0.018626
v 0.062185 0.358162 0.056163
v 0.070569 0.358162 -0.018626
v 0.070569 0.358162 0.056163
v -0.272681 -0.482815 0.088983
v -0.521918 -0.720044 0.074099
v -0.267132 -0.488921 0.074099
v -0.526488 -0.713197 0.088983
v -0.267132 -0.488921 -0.036562
v -0.521918 -0.720044 -0.036562
v -0.272681 -0.482815 -0.051445
v -0.526488 -0.713197 -0.051445
v 0.108360 0.278832 0.056163
v 0.108360 0.255826 -0.018626
v 0.108360 0.278832 -0.018626
v 0.108360 0.255826 0.056163
v -0.096211 -0.264433 -0.036562
v -0.272681 -0.482815 -0.051445
v -0.103647 -0.260710 -0.051445
v -0.267132 -0.488921 -0.036562
v -0.103647 -0.260710 0.088983
v -0.272681 -0.482815 0.088983
v -0.096211 -0.264433 0.074099
v -0.267132 -0.488921 0.074099
v 0.074813 0.241558 0.056163
v 0.070947 0.224078 -0.018626
v 0.074813 0.241558 -0.018626
v 0.070947 0.224078 0.056163
v 0.040918 0.381732 -0.036562
v 0.032656 0.116738 -0.051445
v 0.032656 0.381732 -0.051445
v 0.040918 0.115639 -0.036562
v -0.001126 -0.035666 -0.051445
v 0.006728 -0.038429 -0.036562
v 0.032656 0.381732 0.088983
v 0.032656 0.116738 0.088983
v 0.040918 0.381732 0.074099
v 0.040918 0.115639 0.074099
v -0.001126 -0.035666 0.088983
v 0.006728 -0.038429 0.074099
v -0.001126 -0.035666 0.088983
v -0.103647 -0.260710 0.088983
v 0.006728 -0.038429 0.074099
v -0.096211 -0.264433 0.074099
v 0.006728 -0.038429 -0.036562
v -0.103647 -0.260710 -0.051445
v -0.001126 -0.035666 -0.051445
v -0.096211 -0.264433 -0.036562
v 0.025067 0.195759 -0.034486
v 0.025067 0.195759 0.072024
v 0.033339 0.195759 -0.019603
v 0.036073 0.195759 0.052254
v 0.051628 0.195759 -0.019603
v 0.051628 0.195759 0.061534
v -0.063326 0.195759 0.072024
v -0.063326 0.195759 -0.034486
v -0.180320 0.195759 0.072024
v -0.180320 0.195759 -0.034486
v -0.185155 0.195759 0.072024
v -0.185155 0.195759 -0.034486
v -0.212256 0.195759 0.047619
v -0.212256 0.195759 -0.010081
v -0.255106 0.195759 0.047619
v -0.255106 0.195759 -0.010081
v 0.065755 0.381732 0.075197
v 0.065755 0.112338 -0.033509
v 0.065755 0.381732 -0.033509
v 0.065755 0.112338 0.075197
v 0.030320 -0.046725 -0.033509
v 0.030320 -0.046725 0.075197
v -0.073893 -0.275617 -0.033508
v -0.073893 -0.275617 0.075198
v -0.250445 -0.507258 -0.033508
v -0.250445 -0.507258 0.075198
v -0.508199 -0.740608 -0.033508
v -0.508199 -0.740608 0.075198
v -0.269233 0.351702 -0.027040
v -0.269233 0.156862 -0.027040
v -0.269233 0.156862 0.064577
v -0.269233 0.351702 0.064577
v -0.287889 0.065172 0.064577
v -0.287889 0.065172 -0.027040
v -0.374916 -0.124779 0.064577
v -0.374916 -0.124779 -0.027040
v -0.475477 -0.259934 0.064577
v -0.475477 -0.259934 -0.027040
v -0.693258 -0.463245 0.064577
v -0.693258 -0.463245 -0.027040
v 0.051628 0.381732 0.061534
v 0.051628 0.195759 0.061534
v 0.036073 0.195759 0.052254
v 0.036073 0.381732 0.052254
v -0.216979 0.149917 -0.027040
v -0.189877 0.351702 -0.051445
v -0.189877 0.146315 -0.051445
v -0.216979 0.351702 -0.027040
v -0.238246 0.047718 -0.027040
v -0.212501 0.038664 -0.051445
v -0.303607 -0.160511 -0.051445
v -0.327965 -0.148307 -0.027040
v -0.269233 0.156862 -0.027040
v -0.269233 0.351702 -0.027040
v -0.216979 0.149917 -0.027040
v -0.287889 0.065172 -0.027040
v -0.238246 0.047718 -0.027040
v -0.327965 -0.148307 -0.027040
v -0.374916 -0.124779 -0.027040
v -0.475477 -0.259934 -0.027040
v -0.440379 -0.298512 -0.027040
v -0.693258 -0.463245 -0.027040
v -0.664392 -0.506508 -0.027040
v -0.422172 -0.318521 -0.051445
v -0.295019 -0.164813 -0.051445
v -0.415756 -0.325577 -0.051445
v -0.303607 -0.160511 -0.051445
v -0.212501 0.038664 -0.051445
v -0.649418 -0.528948 -0.051445
v -0.422172 -0.318521 -0.051445
v -0.644134 -0.536861 -0.051445
v -0.334258 -0.415147 -0.051445
v -0.577120 -0.637309 -0.051445
v -0.272681 -0.482815 -0.051445
v -0.526488 -0.713197 -0.051445
v -0.103647 -0.260710 -0.051445
v -0.186001 -0.219440 -0.051445
v -0.088183 -0.005051 -0.051445
v -0.001126 -0.035666 -0.051445
v 0.032656 0.116738 -0.051445
v -0.203433 0.035472 -0.051445
v -0.059001 0.128920 -0.051445
v 0.032656 0.381732 -0.051445
v -0.059001 0.381732 -0.051445
v -0.180320 0.351702 -0.051445
v -0.180320 0.145045 -0.051445
v -0.189877 0.146315 -0.051445
v -0.096211 -0.264433 -0.036562
v 0.006728 -0.038429 -0.036562
v -0.073893 -0.275617 -0.033508
v -0.267132 -0.488921 -0.036562
v 0.030320 -0.046725 -0.033509
v -0.250445 -0.507258 -0.033508
v -0.521918 -0.720044 -0.036562
v -0.508199 -0.740608 -0.033508
v 0.065755 0.112338 -0.033509
v 0.040918 0.115639 -0.036562
v 0.065755 0.381732 -0.033509
v 0.040918 0.381732 -0.036562
v -0.303607 -0.160511 0.088983
v -0.238246 0.047718 0.064577
v -0.327965 -0.148307 0.064577
v -0.212501 0.038664 0.088983
v -0.189877 0.146315 0.088983
v -0.216979 0.149917 0.064577
v -0.189877 0.351702 0.088983
v -0.216979 0.351702 0.064577
v -0.269233 0.351702 0.064577
v -0.269233 0.156862 0.064577
v -0.216979 0.149917 0.064577
v -0.287889 0.065172 0.064577
v -0.238246 0.047718 0.064577
v -0.327965 -0.148307 0.064577
v -0.374916 -0.124779 0.064577
v -0.475477 -0.259934 0.064577
v -0.440379 -0.298512 0.064577
v -0.693258 -0.463245 0.064577
v -0.664392 -0.506508 0.064577
v -0.189877 0.146315 0.088983
v -0.180320 0.351702 0.088983
v -0.180320 0.145045 0.088983
v -0.212501 0.038664 0.088983
v -0.059001 0.128920 0.088983
v -0.059001 0.381732 0.088983
v 0.032656 0.381732 0.088983
v 0.032656 0.116738 0.088983
v -0.203433 0.035472 0.088983
v -0.088183 -0.005051 0.088983
v -0.001126 -0.035666 0.088983
v -0.103647 -0.260710 0.088983
v -0.186001 -0.219440 0.088983
v -0.295019 -0.164813 0.088983
v -0.303607 -0.160511 0.088983
v -0.422172 -0.318521 0.088983
v -0.415756 -0.325577 0.088983
v -0.334258 -0.415147 0.088983
v -0.272681 -0.482815 0.088983
v -0.577120 -0.637309 0.088983
v -0.526488 -0.713197 0.088983
v -0.644134 -0.536861 0.088983
v -0.649418 -0.528948 0.088983
v -0.422172 -0.318521 0.088983
v -0.422172 -0.318521 0.088983
v -0.303607 -0.160511 0.088983
v -0.440379 -0.298512 0.064577
v -0.327965 -0.148307 0.064577
v -0.440379 -0.298512 -0.027040
v -0.303607 -0.160511 -0.051445
v -0.422172 -0.318521 -0.051445
v -0.327965 -0.148307 -0.027040
v 0.065755 0.381732 0.075197
v 0.040918 0.115639 0.074099
v 0.065755 0.112338 0.075197
v 0.040918 0.381732 0.074099
v 0.006728 -0.038429 0.074099
v 0.030320 -0.046725 0.075197
v -0.073893 -0.275617 0.075198
v -0.096211 -0.264433 0.074099
v -0.267132 -0.488921 0.074099
v -0.250445 -0.507258 0.075198
v -0.521918 -0.720044 0.074099
v -0.508199 -0.740608 0.075198
v 0.070947 0.224078 -0.018626
v 0.062185 0.241558 -0.018626
v 0.074813 0.241558 -0.018626
v 0.062185 0.224078 -0.018626
v 0.062185 0.247997 -0.018626
v 0.108360 0.255826 -0.018626
v 0.108360 0.278832 -0.018626
v 0.062185 0.286662 -0.018626
v 0.076995 0.301232 -0.018626
v 0.062185 0.301232 -0.018626
v 0.070569 0.358162 -0.018626
v 0.062185 0.358162 -0.018626
v 0.070947 0.224078 0.056163
v 0.074813 0.241558 0.056163
v 0.062185 0.241558 0.056163
v 0.062185 0.224078 0.056163
v 0.062185 0.247997 0.056163
v 0.108360 0.255826 0.056163
v 0.108360 0.278832 0.056163
v 0.062185 0.286662 0.056163
v 0.076995 0.301232 0.056163
v 0.062185 0.301232 0.056163
v 0.070569 0.358162 0.056163
v 0.062185 0.358162 0.056163
v -0.664392 -0.506508 -0.027040
v -0.422172 -0.318521 -0.051445
v -0.649418 -0.528948 -0.051445
v -0.440379 -0.298512 -0.027040
v -0.664392 -0.506508 0.064577
v -0.422172 -0.318521 0.088983
v -0.440379 -0.298512 0.064577
v -0.649418 -0.528948 0.088983
v 0.051628 0.195759 -0.019603
v 0.051628 0.381732 -0.019603
v 0.033339 0.381732 -0.019603
v 0.033339 0.195759 -0.019603
v -0.185155 0.351702 0.072024
v -0.185155 0.195759 0.072024
v -0.212256 0.195759 0.047619
v -0.212256 0.351702 0.047619
v -0.255106 0.351702 0.047619
v -0.255106 0.195759 0.047619
v -0.180320 0.351702 0.072024
v -0.180320 0.195759 0.072024
v -0.063326 0.195759 0.072024
v -0.063326 0.381732 0.072024
v 0.025067 0.381732 0.072024
v 0.025067 0.195759 0.072024
v -0.185155 0.195759 -0.034486
v -0.185155 0.351702 -0.034486
v -0.212256 0.351702 -0.010081
v -0.180320 0.195759 -0.034486
v -0.212256 0.195759 -0.010081
v -0.255106 0.351702 -0.010081
v -0.255106 0.195759 -0.010081
v -0.180320 0.351702 -0.034486
v -0.063326 0.195759 -0.034486
v -0.063326 0.381732 -0.034486
v 0.025067 0.381732 -0.034486
v 0.025067 0.195759 -0.034486
v -0.255106 0.351702 0.047619
v -0.255106 0.195759 -0.010081
v -0.255106 0.351702 -0.010081
v -0.255106 0.195759 0.047619
v 0.108360 0.255826 0.056163
v 0.074813 0.241558 -0.018626
v 0.108360 0.255826 -0.018626
v 0.074813 0.241558 0.056163
v 0.036073 0.381732 0.052254
v 0.036073 0.195759 0.052254
v 0.025067 0.195759 0.072024
v 0.025067 0.381732 0.072024
v 0.025067 0.381732 -0.034486
v 0.025067 0.195759 -0.034486
v 0.033339 0.195759 -0.019603
v 0.033339 0.381732 -0.019603
v 0.070947 0.224078 0.056163
v 0.062185 0.224078 -0.018626
v 0.070947 0.224078 -0.018626
v 0.062185 0.224078 0.056163
v 0.051628 0.381732 -0.019603
v 0.051628 0.195759 -0.019603
v 0.051628 0.195759 0.061534
v 0.051628 0.381732 0.061534
v 0.062185 0.241558 0.056163
v 0.062185 0.241558 -0.018626
v 0.062185 0.224078 0.056163
v 0.062185 0.224078 -0.018626
v 0.062185 0.247997 -0.018626
v 0.062185 0.247997 0.056163
v 0.062185 0.286662 -0.018626
v 0.062185 0.286662 0.056163
v 0.062185 0.301232 -0.018626
v 0.062185 0.301232 0.056163
v 0.062185 0.358162 -0.018626
v 0.062185 0.358162 0.056163
vn -0.8293 -0.5587 -0.0000
vn -0.8294 -0.5587 -0.0000
vn -0.8294 -0.5586 -0.0000
vn -0.8295 -0.5586 -0.0000
vn -0.0000 1.0000 -0.0000
vn -0.1234 0.9923 0.0129
vn 0.8600 0.5102 -0.0000
vn 0.8600 0.5103 -0.0000
vn 0.5808 0.8141 -0.0000
vn 0.5812 0.8138 -0.0000
vn 0.9937 0.1122 -0.0000
vn 0.9937 0.1125 -0.0000
vn -0.1234 0.9923 -0.0129
vn -0.1236 0.9923 -0.0129
vn -0.1236 0.9922 -0.0130
vn -0.1235 0.9922 0.0193
vn -0.1236 0.9922 0.0130
vn -0.1236 0.9921 0.0193
vn 0.6469 -0.5931 0.4793
vn 0.5891 -0.6509 0.4788
vn 0.5890 -0.6510 0.4788
vn 0.6469 -0.5931 -0.4793
vn 0.5891 -0.6509 -0.4788
vn 1.0000 -0.0000 -0.0000
vn 0.7499 -0.4455 -0.4891
vn 0.6470 -0.5930 -0.4793
vn 0.7499 -0.4455 0.4891
vn 0.6470 -0.5930 0.4793
vn 0.9762 -0.2167 -0.0000
vn 0.9762 -0.2168 -0.0000
vn 0.9762 -0.2169 -0.0000
vn 0.8754 -0.0000 -0.4833
vn 0.8668 -0.0927 -0.4900
vn 0.8260 -0.2780 -0.4903
vn 0.8754 -0.0000 0.4833
vn 0.8667 -0.0926 0.4901
vn 0.8754 -0.0000 0.4834
vn 0.8668 -0.0926 0.4900
vn 0.8260 -0.2780 0.4903
vn 0.8260 -0.2781 0.4903
vn 0.8260 -0.2781 -0.4903
vn 0.9936 -0.1125 -0.0000
vn 0.9936 -0.1127 -0.0000
vn 0.9476 -0.3194 -0.0000
vn 0.8580 -0.5137 -0.0000
vn 0.7351 -0.6780 -0.0000
vn 0.7351 -0.6779 -0.0000
vn 0.6716 -0.7409 -0.0000
vn 0.6715 -0.7410 -0.0000
vn -1.0000 -0.0000 -0.0000
vn -0.9953 0.0967 -0.0000
vn -0.9500 0.3123 -0.0000
vn -0.8600 0.5102 -0.0000
vn -0.7460 0.6659 -0.0000
vn -0.7461 0.6659 -0.0000
vn -0.6841 0.7294 -0.0000
vn 0.5130 -0.0000 -0.8584
vn 0.5132 -0.0000 -0.8583
vn -0.3676 0.0375 -0.9292
vn -0.3705 -0.0000 -0.9289
vn -0.3675 0.0375 -0.9293
vn -0.3495 0.1126 -0.9302
vn -0.3213 0.1872 -0.9283
vn -0.3703 -0.0000 -0.9289
vn -0.0000 -0.0000 -1.0000
vn -0.3674 0.0375 -0.9293
vn -0.3494 0.1125 -0.9302
vn -0.3211 0.1872 -0.9284
vn -0.2770 0.2543 -0.9266
vn -0.2586 0.2732 -0.9266
vn -0.2771 0.2542 -0.9266
vn -0.3211 0.1871 -0.9284
vn -0.3493 0.1125 -0.9302
vn 0.1036 -0.0672 -0.9924
vn 0.1132 -0.0385 -0.9928
vn 0.0941 -0.0864 -0.9918
vn 0.0848 -0.0866 -0.9926
vn 0.0848 -0.0865 -0.9926
vn 0.1224 -0.0097 -0.9924
vn 0.1220 -0.0000 -0.9925
vn -0.3213 0.1872 0.9283
vn -0.3495 0.1125 0.9302
vn -0.3495 0.1126 0.9302
vn -0.3675 0.0375 0.9293
vn -0.3676 0.0375 0.9292
vn -0.3705 -0.0000 0.9288
vn -0.0000 -0.0000 1.0000
vn -0.3703 -0.0000 0.9289
vn -0.3674 0.0375 0.9293
vn -0.3494 0.1125 0.9302
vn -0.3211 0.1871 0.9284
vn -0.2770 0.2543 0.9266
vn -0.2586 0.2732 0.9266
vn -0.3493 0.1126 0.9302
vn -0.3211 0.1872 0.9284
vn -0.2585 0.2732 0.9266
vn -0.2772 0.2544 0.9265
vn -0.3212 0.1872 0.9283
vn -0.3213 0.1873 0.9283
vn -0.2772 0.2544 -0.9265
vn -0.3212 0.1873 -0.9283
vn -0.2771 0.2544 -0.9265
vn -0.0470 -0.0000 0.9989
vn -0.0470 0.0096 0.9988
vn -0.0377 0.0096 0.9992
vn -0.0377 0.0097 0.9992
vn -0.0377 0.0193 0.9991
vn -0.0377 0.0192 0.9991
vn -0.0376 0.0288 0.9989
vn -0.0282 0.0288 0.9992
vn -0.2587 0.2733 -0.9265
vn -0.2771 0.2545 -0.9265
vn -0.2586 0.2732 -0.9265
vn -0.2586 0.2732 0.9265
vn -0.2771 0.2544 0.9265
vn -0.2772 0.2545 0.9265
vn 0.3704 -0.0000 -0.9289
vn 0.3705 -0.0000 -0.9288
vn 0.3703 -0.0000 -0.9289
vn 0.3705 -0.0000 0.9288
vn 0.3707 -0.0000 0.9288
vn 0.3706 -0.0000 0.9288
vn 0.3703 -0.0000 0.9289
vn 0.3959 -0.9183 -0.0000
vn -0.8754 -0.0000 -0.4833
vn -0.8754 -0.0000 0.4834
vn -0.8754 -0.0000 0.4833
vn -0.0000 -1.0000 -0.0000
vt 0.759578 0.683564
vt 0.741812 0.684746
vt 0.743920 0.683564
vt 0.744352 0.680013
vt 0.759732 0.680013
vt 0.761686 0.684746
vt 0.741812 0.697850
vt 0.761686 0.697850
vt 0.741812 0.715196
vt 0.761686 0.715196
vt 0.741812 0.716562
vt 0.761686 0.716562
vt 0.745268 0.720437
vt 0.758230 0.720437
vt 0.745268 0.727908
vt 0.758230 0.727908
vt 0.713877 0.685039
vt 0.711073 0.686901
vt 0.710789 0.684217
vt 0.712556 0.682405
vt 0.708681 0.685617
vt 0.708681 0.701134
vt 0.711073 0.701865
vt 0.710634 0.680013
vt 0.724054 0.682405
vt 0.726014 0.680013
vt 0.726446 0.684217
vt 0.724054 0.685501
vt 0.726162 0.686901
vt 0.728555 0.685617
vt 0.890775 0.136657
vt 0.880200 0.136657
vt 0.890775 0.132789
vt 0.880200 0.132789
vt 0.880200 0.146487
vt 0.890775 0.146487
vt 0.728555 0.701134
vt 0.726162 0.701865
vt 0.728555 0.721673
vt 0.726162 0.721673
vt 0.726162 0.722490
vt 0.728555 0.723291
vt 0.725099 0.727879
vt 0.722706 0.727079
vt 0.722706 0.734333
vt 0.725099 0.736725
vt 0.712137 0.736725
vt 0.714529 0.734333
vt 0.712137 0.727879
vt 0.714529 0.727079
vt 0.711073 0.722490
vt 0.708681 0.723291
vt 0.708681 0.721673
vt 0.711073 0.721673
vt 0.728613 0.023036
vt 0.718038 0.023036
vt 0.728613 0.021616
vt 0.718038 0.021616
vt 0.936588 0.981182
vt 0.938696 0.938988
vt 0.938696 0.982122
vt 0.936588 0.938214
vt 0.937334 0.578152
vt 0.937334 0.535018
vt 0.939442 0.577212
vt 0.939442 0.534244
vt 0.890775 0.128816
vt 0.880200 0.128816
vt 0.884637 0.870542
vt 0.886746 0.832832
vt 0.886746 0.871185
vt 0.884637 0.831778
vt 0.880200 0.199153
vt 0.880200 0.160799
vt 0.882308 0.198510
vt 0.882308 0.159745
vt 0.880200 0.126352
vt 0.890775 0.123334
vt 0.890775 0.126352
vt 0.880200 0.123334
vt 0.884637 0.982122
vt 0.886746 0.936363
vt 0.886746 0.982122
vt 0.884637 0.936173
vt 0.886746 0.910046
vt 0.884637 0.909569
vt 0.880200 0.310090
vt 0.880200 0.264330
vt 0.882308 0.310090
vt 0.882308 0.264140
vt 0.880200 0.238013
vt 0.882308 0.237536
vt 0.021718 0.387653
vt 0.006629 0.387653
vt 0.019610 0.386253
vt 0.009433 0.385791
vt 0.019610 0.383158
vt 0.008112 0.383158
vt 0.006629 0.402618
vt 0.021718 0.402618
vt 0.006629 0.422425
vt 0.021718 0.422425
vt 0.006629 0.423243
vt 0.021718 0.423243
vt 0.010085 0.427831
vt 0.018262 0.427831
vt 0.010085 0.435085
vt 0.018262 0.435085
vt 0.522686 0.737233
vt 0.538067 0.690714
vt 0.538067 0.737233
vt 0.522686 0.690714
vt 0.538067 0.663247
vt 0.522686 0.663247
vt 0.538067 0.623722
vt 0.522686 0.623722
vt 0.538067 0.583722
vt 0.522686 0.583722
vt 0.538067 0.543427
vt 0.522686 0.543427
vt 0.697055 0.982047
vt 0.697055 0.948401
vt 0.710017 0.948401
vt 0.710017 0.982047
vt 0.710017 0.932568
vt 0.697055 0.932568
vt 0.710017 0.899767
vt 0.697055 0.899767
vt 0.710017 0.876429
vt 0.697055 0.876429
vt 0.710017 0.841321
vt 0.697055 0.841321
vt 0.006629 0.480457
vt 0.006629 0.448343
vt 0.009262 0.448343
vt 0.009262 0.480457
vt 0.048889 0.953341
vt 0.044301 0.988186
vt 0.044301 0.952719
vt 0.048889 0.988186
vt 0.052490 0.935693
vt 0.048131 0.934130
vt 0.063554 0.899736
vt 0.067677 0.901844
vt 0.057735 0.954540
vt 0.057735 0.988186
vt 0.060892 0.938707
vt 0.075625 0.905906
vt 0.092650 0.882568
vt 0.086708 0.875906
vt 0.129517 0.847460
vt 0.124630 0.839989
vt 0.083626 0.872451
vt 0.062100 0.898993
vt 0.082539 0.871233
vt 0.122096 0.836114
vt 0.121202 0.834748
vt 0.068742 0.855766
vt 0.109857 0.817403
vt 0.058319 0.844081
vt 0.101285 0.804298
vt 0.029702 0.882434
vt 0.043645 0.889560
vt 0.027085 0.926581
vt 0.012347 0.921294
vt 0.006629 0.947612
vt 0.046595 0.933579
vt 0.022145 0.949715
vt 0.006629 0.993371
vt 0.022145 0.993371
vt 0.042683 0.988186
vt 0.042683 0.952500
vt 0.306340 0.881791
vt 0.288913 0.920817
vt 0.302562 0.879860
vt 0.335274 0.843026
vt 0.284919 0.919385
vt 0.332450 0.839860
vt 0.378408 0.803116
vt 0.376085 0.799565
vt 0.278920 0.946852
vt 0.283124 0.947422
vt 0.278920 0.993371
vt 0.283124 0.993371
vt 0.208737 0.899736
vt 0.219801 0.935693
vt 0.204614 0.901844
vt 0.224160 0.934130
vt 0.227990 0.952719
vt 0.223402 0.953341
vt 0.227990 0.988186
vt 0.223402 0.988186
vt 0.214556 0.988186
vt 0.214556 0.954540
vt 0.211399 0.938707
vt 0.196666 0.905906
vt 0.179641 0.882568
vt 0.185583 0.875906
vt 0.142774 0.847460
vt 0.147661 0.839989
vt 0.229608 0.988186
vt 0.229608 0.952500
vt 0.250146 0.949715
vt 0.250146 0.993371
vt 0.265662 0.993371
vt 0.265662 0.947612
vt 0.225697 0.933579
vt 0.245206 0.926581
vt 0.259944 0.921294
vt 0.242589 0.882434
vt 0.228646 0.889560
vt 0.210191 0.898993
vt 0.188665 0.872451
vt 0.189752 0.871233
vt 0.203549 0.855766
vt 0.213972 0.844081
vt 0.162435 0.817403
vt 0.171006 0.804298
vt 0.151089 0.834748
vt 0.150195 0.836114
vt 0.106116 0.791041
vt 0.101912 0.745091
vt 0.106116 0.744521
vt 0.101912 0.791041
vt 0.096124 0.718487
vt 0.100118 0.717054
vt 0.082474 0.677529
vt 0.078696 0.679460
vt 0.049762 0.640696
vt 0.052587 0.637529
vt 0.006629 0.600786
vt 0.008951 0.597235
vt 0.906336 0.922557
vt 0.907820 0.925576
vt 0.905681 0.925576
vt 0.907820 0.922557
vt 0.907820 0.926688
vt 0.900003 0.928040
vt 0.900003 0.932013
vt 0.907820 0.933365
vt 0.905311 0.935881
vt 0.907820 0.935881
vt 0.906400 0.945711
vt 0.907820 0.945711
vt 0.901487 0.958969
vt 0.902141 0.961987
vt 0.900003 0.961987
vt 0.900003 0.958969
vt 0.900003 0.963099
vt 0.907820 0.964451
vt 0.907820 0.968424
vt 0.900003 0.969776
vt 0.902511 0.972292
vt 0.900003 0.972292
vt 0.901422 0.982122
vt 0.900003 0.982122
vt 0.533730 0.755742
vt 0.533730 0.787856
vt 0.530634 0.787856
vt 0.530634 0.755742
vt 0.046713 0.475272
vt 0.046713 0.448343
vt 0.051301 0.448343
vt 0.051301 0.475272
vt 0.058555 0.475272
vt 0.058555 0.448343
vt 0.045895 0.475272
vt 0.045895 0.448343
vt 0.026088 0.448343
vt 0.026088 0.480457
vt 0.011124 0.480457
vt 0.011124 0.448343
vt 0.493645 0.755742
vt 0.493645 0.782671
vt 0.489057 0.782671
vt 0.494463 0.755742
vt 0.489057 0.755742
vt 0.481803 0.782671
vt 0.481803 0.755742
vt 0.494463 0.782671
vt 0.514270 0.755742
vt 0.514270 0.787856
vt 0.529234 0.787856
vt 0.529234 0.755742
vt 0.893458 0.587283
vt 0.901636 0.560354
vt 0.901636 0.587283
vt 0.893458 0.560354
vt 0.653456 0.023036
vt 0.664031 0.021552
vt 0.664031 0.023036
vt 0.653456 0.021552
vt 0.857653 0.449403
vt 0.857653 0.417289
vt 0.869151 0.417289
vt 0.869151 0.449403
vt 0.575486 0.102742
vt 0.564911 0.102742
vt 0.575486 0.099724
vt 0.564911 0.099724
vt 0.564911 0.103854
vt 0.575486 0.103854
vt 0.564911 0.110531
vt 0.575486 0.110531
vt 0.564911 0.113047
vt 0.575486 0.113047
vt 0.564911 0.122877
vt 0.575486 0.122877
s 1
usemtl Handle1Mtl
f 1/1/1 2/2/2 3/3/2
f 4/4/2 1/1/1 3/3/2
f 1/1/1 4/4/2 5/5/2
f 6/6/1 2/2/2 1/1/1
f 2/2/2 6/6/1 7/7/3
f 6/6/1 8/8/3 7/7/3
f 7/7/3 8/8/3 9/9/2
f 8/8/3 10/10/3 9/9/2
f 9/9/2 10/10/3 11/11/2
f 12/12/4 11/11/2 10/10/3
f 11/11/2 12/12/4 13/13/1
f 13/13/1 12/12/4 14/14/3
f 13/13/1 14/14/3 15/15/2
f 16/16/2 15/15/2 14/14/3
f 17/17/5 18/18/5 19/19/5
f 19/19/5 20/20/5 17/17/5
f 18/18/5 21/21/5 19/19/5
f 18/18/5 22/22/6 21/21/5
f 22/22/6 18/18/5 23/23/6
f 20/20/5 19/19/5 24/24/5
f 24/24/5 25/25/5 20/20/5
f 25/25/5 24/24/5 26/26/5
f 26/26/5 27/27/5 25/25/5
f 28/28/5 25/25/5 27/27/5
f 27/27/5 29/29/5 28/28/5
f 29/29/5 27/27/5 30/30/5
f 31/31/7 32/32/8 33/33/9
f 34/34/10 33/33/9 32/32/8
f 31/31/7 35/35/11 32/32/8
f 35/35/11 31/31/7 36/36/12
f 37/37/13 29/29/5 30/30/5
f 29/29/5 37/37/13 38/38/13
f 39/39/14 38/38/15 40/37/15
f 38/38/15 39/39/14 41/40/14
f 39/39/14 42/41/5 41/40/14
f 42/41/5 39/39/14 43/42/5
f 44/43/5 42/41/5 43/42/5
f 42/41/5 44/43/5 45/44/5
f 44/43/5 46/45/5 45/44/5
f 46/45/5 44/43/5 47/46/5
f 47/46/5 48/47/5 46/45/5
f 46/45/5 48/47/5 49/48/5
f 50/49/5 49/48/5 48/47/5
f 51/50/5 49/48/5 50/49/5
f 50/49/5 52/51/5 51/50/5
f 52/51/5 50/49/5 53/52/5
f 54/53/16 52/51/5 53/52/5
f 54/53/16 55/54/16 52/51/5
f 56/23/17 55/54/18 57/53/18
f 57/53/18 58/22/17 56/23/17
f 59/55/5 60/56/5 61/57/5
f 62/58/5 61/57/5 60/56/5
f 63/59/19 64/60/20 65/61/19
f 64/60/20 63/59/19 66/62/21
f 67/63/22 68/64/23 69/65/22
f 69/65/22 68/64/23 70/66/23
f 71/34/24 72/67/24 73/33/24
f 72/67/24 71/34/24 74/68/24
f 75/69/25 76/70/26 77/71/25
f 76/70/26 75/69/25 78/72/26
f 79/73/27 80/74/28 81/75/27
f 81/75/27 80/74/28 82/76/28
f 83/77/29 84/78/29 85/79/30
f 84/78/29 83/77/29 86/80/31
f 87/81/32 88/82/33 89/83/32
f 88/82/33 87/81/32 90/84/33
f 90/84/33 91/85/34 88/82/33
f 91/85/34 90/84/33 92/86/34
f 93/87/35 94/88/36 95/89/37
f 95/89/37 94/88/36 96/90/38
f 94/88/36 97/91/39 96/90/38
f 96/90/38 97/91/39 98/92/39
f 99/91/40 100/73/27 101/92/40
f 101/92/40 100/73/27 102/75/27
f 103/86/34 104/71/25 105/85/41
f 104/71/25 103/86/34 106/69/25
f 107/93/5 108/94/5 109/95/5
f 109/95/5 108/94/5 110/96/5
f 110/96/5 111/97/5 109/95/5
f 112/98/5 111/97/5 110/96/5
f 108/94/5 107/93/5 113/99/5
f 107/93/5 114/100/5 113/99/5
f 113/99/5 114/100/5 115/101/5
f 114/100/5 116/102/5 115/101/5
f 115/101/5 116/102/5 117/103/5
f 118/104/5 117/103/5 116/102/5
f 117/103/5 118/104/5 119/105/5
f 119/105/5 118/104/5 120/106/5
f 119/105/5 120/106/5 121/107/5
f 120/106/5 122/108/5 121/107/5
f 123/109/24 124/110/42 125/111/24
f 124/110/42 123/109/24 126/112/43
f 126/112/43 127/113/44 124/110/42
f 127/113/44 126/112/43 128/114/44
f 128/114/44 129/115/45 127/113/44
f 129/115/45 128/114/44 130/116/45
f 130/116/45 131/117/46 129/115/45
f 131/117/46 130/116/45 132/118/47
f 132/118/47 133/119/48 131/117/46
f 133/119/48 132/118/47 134/120/49
f 135/121/50 136/122/51 137/123/51
f 137/123/51 138/124/50 135/121/50
f 139/125/52 137/123/51 136/122/51
f 140/126/52 139/125/52 136/122/51
f 141/127/53 139/125/52 140/126/52
f 140/126/52 142/128/53 141/127/53
f 143/129/54 141/127/53 142/128/53
f 142/128/53 144/130/55 143/129/54
f 144/130/55 145/131/56 143/129/54
f 145/131/56 144/130/55 146/132/56
f 147/133/57 148/134/58 149/135/58
f 147/133/57 149/135/58 150/136/57
f 151/137/59 152/138/60 153/139/61
f 152/138/60 151/137/59 154/140/60
f 153/139/61 155/141/62 151/137/59
f 155/141/62 153/139/61 156/142/62
f 157/143/63 155/141/62 156/142/62
f 158/144/63 155/141/62 157/143/63
f 154/140/64 159/145/65 160/146/65
f 159/145/65 154/140/64 161/137/66
f 161/137/66 162/147/65 159/145/65
f 162/147/65 161/137/66 163/141/67
f 164/144/68 162/147/65 163/141/67
f 165/148/65 162/147/65 164/144/68
f 164/144/68 166/149/65 165/148/65
f 166/149/65 164/144/68 167/150/69
f 167/150/69 168/151/65 166/149/65
f 168/151/65 167/150/69 169/152/70
f 170/153/71 171/154/65 172/155/65
f 171/154/65 170/153/71 173/143/72
f 173/143/72 174/142/73 171/154/65
f 172/155/65 175/156/70 176/153/69
f 175/156/70 172/155/65 177/157/65
f 178/158/65 177/157/65 172/155/65
f 177/157/65 178/158/65 179/159/65
f 180/160/65 179/159/65 178/158/65
f 179/159/65 180/160/65 181/161/65
f 178/158/65 182/162/65 180/160/65
f 172/155/65 183/163/65 178/158/65
f 182/162/65 178/158/65 183/163/65
f 183/163/65 172/155/65 171/154/65
f 183/163/65 184/164/65 182/162/65
f 182/162/65 184/164/65 185/165/65
f 184/164/65 186/166/65 185/165/65
f 171/154/65 187/167/65 183/163/65
f 183/163/65 187/167/65 184/164/65
f 171/154/65 174/142/73 187/167/65
f 186/166/65 184/164/65 188/168/65
f 187/167/65 188/168/65 184/164/65
f 188/168/65 189/169/65 186/166/65
f 189/169/65 188/168/65 190/170/65
f 190/170/65 188/168/65 191/171/65
f 188/168/65 187/167/65 192/172/65
f 174/142/73 192/172/65 187/167/65
f 192/172/65 191/171/65 188/168/65
f 192/172/65 174/142/73 193/139/66
f 193/139/66 191/171/65 192/172/65
f 191/171/65 193/139/66 152/138/64
f 194/173/74 195/174/75 196/175/74
f 196/175/74 197/176/76 194/173/74
f 196/175/74 195/174/75 198/177/75
f 197/176/76 196/175/74 199/178/76
f 199/178/76 200/179/77 197/176/76
f 200/179/77 199/178/76 201/180/78
f 195/174/75 202/181/79 198/177/75
f 202/181/79 195/174/75 203/182/79
f 203/182/79 204/183/80 202/181/79
f 204/183/80 203/182/79 205/184/80
f 206/185/81 207/186/82 208/187/81
f 207/186/82 206/185/81 209/188/83
f 209/188/83 210/189/84 207/186/82
f 211/190/85 207/186/82 210/189/84
f 210/189/84 212/191/86 211/190/85
f 213/192/86 211/190/85 212/191/86
f 214/193/87 215/194/87 213/192/88
f 216/190/89 213/192/88 215/194/87
f 216/190/89 215/194/87 217/195/87
f 218/186/90 216/190/89 217/195/87
f 217/195/87 219/187/91 218/186/90
f 219/187/91 217/195/87 220/196/87
f 221/197/87 219/187/91 220/196/87
f 222/198/92 219/187/91 221/197/87
f 223/199/87 222/198/92 221/197/87
f 224/200/93 222/198/92 223/199/87
f 212/191/88 225/189/89 226/201/87
f 227/202/87 226/201/87 225/189/89
f 225/189/89 228/188/94 227/202/87
f 229/203/87 226/201/87 227/202/87
f 226/201/87 229/203/87 230/204/87
f 230/204/87 229/203/87 231/205/87
f 232/206/87 231/205/87 229/203/87
f 229/203/87 227/202/87 233/207/87
f 233/207/87 227/202/87 228/188/94
f 232/206/87 229/203/87 234/208/87
f 234/208/87 229/203/87 233/207/87
f 235/209/87 232/206/87 234/208/87
f 234/208/87 236/210/87 235/209/87
f 233/207/87 237/211/87 234/208/87
f 236/210/87 234/208/87 237/211/87
f 228/188/94 238/212/87 233/207/87
f 237/211/87 233/207/87 238/212/87
f 238/212/87 228/188/94 239/185/95
f 240/213/92 238/212/87 239/185/95
f 241/214/87 238/212/87 240/213/92
f 241/214/87 237/211/87 238/212/87
f 242/215/87 236/210/87 237/211/87
f 237/211/87 241/214/87 242/215/87
f 243/216/87 236/210/87 242/215/87
f 244/217/87 243/216/87 242/215/87
f 243/216/87 244/217/87 245/218/87
f 242/215/87 246/219/87 244/217/87
f 246/219/87 242/215/87 241/214/87
f 246/219/87 241/214/87 247/220/96
f 247/220/96 241/214/87 248/213/92
f 249/213/97 250/185/98 251/198/97
f 251/198/97 250/185/98 252/187/99
f 253/150/100 254/143/101 255/153/102
f 254/143/101 253/150/100 256/144/101
f 257/221/103 258/222/103 259/223/104
f 258/222/103 257/221/103 260/224/103
f 261/225/105 259/223/104 258/222/103
f 259/223/104 261/225/105 262/226/106
f 261/225/105 263/227/107 262/226/106
f 263/227/107 261/225/105 264/228/108
f 265/229/109 263/227/107 264/228/108
f 266/230/110 263/227/107 265/229/109
f 265/229/109 267/231/110 266/230/110
f 268/232/110 266/230/110 267/231/110
f 269/233/65 270/234/65 271/235/65
f 270/234/65 269/233/65 272/236/65
f 273/237/65 271/235/65 270/234/65
f 271/235/65 273/237/65 274/238/65
f 273/237/65 275/239/65 274/238/65
f 273/237/65 276/240/65 275/239/65
f 277/241/65 275/239/65 276/240/65
f 277/241/65 276/240/65 278/242/65
f 279/243/65 277/241/65 278/242/65
f 279/243/65 278/242/65 280/244/65
f 281/245/87 282/246/87 283/247/87
f 281/245/87 283/247/87 284/248/87
f 282/246/87 285/249/87 283/247/87
f 286/250/87 285/249/87 282/246/87
f 287/251/87 285/249/87 286/250/87
f 285/249/87 287/251/87 288/252/87
f 289/253/87 288/252/87 287/251/87
f 288/252/87 289/253/87 290/254/87
f 291/255/87 290/254/87 289/253/87
f 290/254/87 291/255/87 292/256/87
f 293/152/111 294/153/112 295/156/113
f 294/153/112 293/152/111 296/150/102
f 297/200/114 298/213/115 299/198/116
f 300/220/114 298/213/115 297/200/114
f 301/257/87 302/258/87 303/259/87
f 301/257/87 303/259/87 304/260/87
f 305/261/117 306/262/117 307/263/118
f 305/261/117 307/263/118 308/264/119
f 307/263/118 309/265/65 308/264/119
f 309/265/65 307/263/118 310/266/65
f 311/267/65 306/262/117 305/261/117
f 311/267/65 312/268/65 306/262/117
f 313/269/65 312/268/65 311/267/65
f 314/270/65 313/269/65 311/267/65
f 315/271/65 313/269/65 314/270/65
f 315/271/65 316/272/65 313/269/65
f 317/273/120 318/274/121 319/275/122
f 320/276/87 318/274/121 317/273/120
f 317/273/120 319/275/122 321/277/123
f 322/278/87 321/277/123 319/275/122
f 321/277/123 322/278/87 323/279/87
f 318/274/121 320/276/87 324/280/87
f 325/281/87 324/280/87 320/276/87
f 324/280/87 325/281/87 326/282/87
f 325/281/87 327/283/87 326/282/87
f 327/283/87 325/281/87 328/284/87
f 329/285/24 330/286/24 331/287/24
f 330/286/24 329/285/24 332/288/24
f 333/68/124 334/79/124 335/67/124
f 334/79/124 333/68/124 336/77/124
f 337/136/125 338/135/125 339/272/125
f 339/272/125 340/271/125 337/136/125
f 341/283/126 342/284/127 343/260/127
f 343/260/127 344/259/126 341/283/126
f 345/289/128 346/290/128 347/291/128
f 346/290/128 345/289/128 348/292/128
f 349/293/50 350/294/50 351/295/50
f 351/295/50 352/296/50 349/293/50
f 353/297/50 354/298/50 355/299/50
f 356/300/50 355/299/50 354/298/50
f 354/298/50 353/297/50 357/301/50
f 358/302/50 357/301/50 353/297/50
f 357/301/50 358/302/50 359/303/50
f 358/302/50 360/304/50 359/303/50
f 359/303/50 360/304/50 361/305/50
f 362/306/50 361/305/50 360/304/50
f 361/305/50 362/306/50 363/307/50
f 362/306/50 364/308/50 363/307/50
