# Blender 5.1.2
# www.blender.org
mtllib Bat Horn1 1.mtl
o RenderMesh_70494501482896
v -0.754676 0.121909 -0.000000
v -0.654622 0.189898 -0.118560
v -0.696649 0.161340 -0.169372
v -0.695241 0.162296 -0.000000
v -0.556560 0.256534 -0.167670
v -0.654622 0.189898 0.118560
v -0.556560 0.256534 -0.239528
v -0.696649 0.161340 0.169372
v -0.416471 0.351728 -0.169372
v -0.556560 0.256534 0.167670
v -0.458498 0.323170 -0.118560
v -0.556560 0.256534 0.239528
v -0.358445 0.391159 -0.000000
v -0.416471 0.351728 0.169372
v -0.417879 0.350771 -0.000000
v -0.458498 0.323170 0.118560
v -0.316813 0.202041 -0.000000
v -0.458498 0.323170 0.118560
v -0.417879 0.350771 -0.000000
v -0.458498 0.323170 -0.118560
v -0.357431 0.174439 0.118560
v -0.556560 0.256534 0.167670
v -0.455493 0.107803 0.167670
v -0.654622 0.189898 0.118560
v -0.553556 0.041167 0.118560
v -0.695241 0.162296 -0.000000
v -0.594174 0.013566 -0.000000
v -0.357431 0.174439 -0.118560
v -0.556560 0.256534 -0.167670
v -0.553556 0.041167 -0.118560
v -0.654622 0.189898 -0.118560
v -0.455493 0.107803 -0.167670
v 0.336045 -0.307109 0.121410
v 0.070761 -0.198503 0.194552
v 0.051603 -0.334731 0.137569
v 0.043668 -0.391159 0.000000
v 0.309397 -0.188660 0.171700
v 0.565900 -0.180668 0.089164
v 0.347083 -0.356172 0.000000
v 0.579830 -0.214874 0.000000
v 0.565900 -0.180668 -0.089164
v 0.733402 0.028156 -0.000000
v 0.532269 -0.098090 0.126097
v 0.712086 0.036053 0.054879
v 0.754676 0.132518 -0.000000
v 0.737711 0.137715 0.042963
v 0.712086 0.036053 -0.054879
v 0.737711 0.137715 -0.042963
v 0.660626 0.055118 0.077610
v 0.696753 0.150263 0.060759
v 0.655795 0.162811 0.042963
v 0.609165 0.074183 0.054879
v 0.660626 0.055118 -0.077610
v 0.696753 0.150263 -0.060759
v 0.655795 0.162811 -0.042963
v 0.532269 -0.098090 -0.126097
v 0.609165 0.074183 -0.054879
v 0.587849 0.082081 -0.000000
v 0.638830 0.168009 -0.000000
v 0.498638 -0.015512 0.089164
v 0.498638 -0.015512 -0.089164
v 0.484708 0.018693 -0.000000
v 0.282749 -0.070210 0.121410
v 0.282749 -0.070210 -0.121410
v 0.271711 -0.021147 0.000000
v 0.097853 -0.005846 0.000000
v 0.089918 -0.062274 0.137569
v 0.309397 -0.188660 -0.171700
v 0.070761 -0.198503 -0.194552
v 0.336045 -0.307109 -0.121410
v 0.089918 -0.062274 -0.137569
v -0.037074 0.040320 -0.000000
v -0.065517 -0.012281 -0.144366
v 0.051603 -0.334731 -0.137569
v -0.134184 -0.139270 -0.204164
v -0.065517 -0.012281 0.144366
v -0.164259 0.126104 -0.000000
v -0.212985 0.081491 -0.159494
v -0.202851 -0.266260 -0.144366
v -0.330621 -0.026213 -0.225559
v -0.510546 0.188819 -0.270670
v -0.448256 -0.133918 -0.159494
v -0.231294 -0.318861 0.000000
v -0.202851 -0.266260 0.144366
v -0.496982 -0.178531 0.000000
v -0.134184 -0.139270 0.204164
v -0.448256 -0.133918 0.159494
v -0.330621 -0.026213 0.225559
v -0.212985 0.081491 0.159494
v -0.510546 0.188819 0.270670
v -0.668848 0.081248 0.191393
v -0.734419 0.036690 -0.000000
v -0.754676 0.121909 -0.000000
v -0.668848 0.081248 -0.191393
v -0.696649 0.161340 0.169372
v -0.696649 0.161340 -0.169372
v -0.556560 0.256534 0.239528
v -0.416471 0.351728 0.169372
v -0.556560 0.256534 -0.239528
v -0.416471 0.351728 -0.169372
v -0.352244 0.296390 0.191393
v -0.358445 0.391159 -0.000000
v -0.286673 0.340947 -0.000000
v -0.352244 0.296390 -0.191393
v 0.817477 0.416692 -0.015808
v 0.853972 0.459691 -0.023091
v 0.817477 0.416692 -0.008101
v 0.853972 0.459691 -0.000817
v 0.840901 0.483982 -0.023091
v 0.840901 0.483982 -0.000817
v 0.691374 0.545610 -0.011957
v 0.725669 0.508576 -0.020566
v 0.739163 0.480750 -0.011957
v 0.706778 0.530945 -0.020566
v 0.706778 0.530945 -0.003348
v 0.691374 0.545610 -0.011957
v 0.725669 0.508576 -0.003348
v 0.739163 0.480750 -0.011957
v 0.834736 0.456589 -0.011957
v 0.859833 0.474659 -0.003348
v 0.907602 0.490947 -0.011957
v 0.887080 0.485364 -0.003348
v 0.907602 0.490947 -0.011957
v 0.859833 0.474659 -0.020566
v 0.887080 0.485364 -0.020566
v 0.834736 0.456589 -0.011957
v 0.706778 0.530945 -0.020566
v 0.766944 0.590056 -0.011957
v 0.691374 0.545610 -0.011957
v 0.793991 0.582665 -0.020566
v 0.758471 0.618310 -0.020566
v 0.734812 0.614076 -0.011957
v 0.857466 0.747606 -0.011957
v 0.758471 0.618310 -0.020566
v 0.851672 0.724689 -0.020566
v 0.859833 0.474659 -0.020566
v 0.887080 0.485364 -0.020566
v 0.834736 0.456589 -0.011957
v 0.805827 0.543343 -0.020566
v 0.798956 0.516163 -0.011957
v 0.862239 0.565965 -0.011957
v 0.907602 0.490947 -0.011957
v 0.834924 0.572317 -0.020566
v 0.883121 0.586798 -0.020566
v 0.901920 0.571830 -0.011957
v 0.883121 0.586798 -0.020566
v 0.857466 0.747606 -0.011957
v 0.851672 0.724689 -0.020566
v 0.834924 0.572317 -0.020566
v 0.805827 0.543343 -0.020566
v 0.793991 0.582665 -0.020566
v 0.725669 0.508576 -0.020566
v 0.706778 0.530945 -0.020566
v 0.859833 0.474659 -0.020566
v 0.887080 0.485364 -0.020566
v 0.851672 0.724689 -0.020566
v 0.883121 0.586798 -0.020566
v 0.758471 0.618310 -0.020566
v 0.776433 0.427068 -0.027998
v 0.817477 0.416692 -0.015808
v 0.780885 0.444679 -0.026007
v 0.853972 0.459691 -0.023091
v 0.780885 0.444679 -0.026007
v 0.840901 0.483982 -0.023091
v 0.785065 0.461215 -0.026007
v 0.776433 0.427068 -0.027998
v 0.735388 0.437444 -0.015808
v 0.780885 0.444679 -0.026007
v 0.723707 0.492623 -0.023091
v 0.746752 0.507783 -0.023091
v 0.780885 0.444679 -0.026007
v 0.785065 0.461215 -0.026007
v 0.739163 0.480750 -0.011957
v 0.805827 0.543343 -0.020566
v 0.798956 0.516163 -0.011957
v 0.725669 0.508576 -0.020566
v 0.735388 0.437444 -0.008101
v 0.723707 0.492623 -0.000817
v 0.735388 0.437444 -0.015808
v 0.723707 0.492623 -0.023091
v 0.746752 0.507783 -0.000817
v 0.746752 0.507783 -0.023091
v 0.746752 0.507783 -0.000817
v 0.746752 0.507783 -0.023091
v 0.785065 0.461215 -0.026007
v 0.785065 0.461215 0.002098
v 0.785065 0.461215 0.002098
v 0.840901 0.483982 -0.000817
v 0.840901 0.483982 -0.023091
v 0.785065 0.461215 -0.026007
v 0.857466 0.747606 -0.011957
v 0.734812 0.614076 -0.011957
v 0.758471 0.618310 -0.003348
v 0.851672 0.724689 -0.003348
v 0.766944 0.590056 -0.011957
v 0.758471 0.618310 -0.003348
v 0.793991 0.582665 -0.003348
v 0.706778 0.530945 -0.003348
v 0.691374 0.545610 -0.011957
v 0.805827 0.543343 -0.003348
v 0.834736 0.456589 -0.011957
v 0.859833 0.474659 -0.003348
v 0.798956 0.516163 -0.011957
v 0.887080 0.485364 -0.003348
v 0.907602 0.490947 -0.011957
v 0.862239 0.565965 -0.011957
v 0.834924 0.572317 -0.003348
v 0.883121 0.586798 -0.003348
v 0.901920 0.571830 -0.011957
v 0.857466 0.747606 -0.011957
v 0.883121 0.586798 -0.003348
v 0.851672 0.724689 -0.003348
v 0.851672 0.724689 -0.003348
v 0.834924 0.572317 -0.003348
v 0.883121 0.586798 -0.003348
v 0.887080 0.485364 -0.003348
v 0.859833 0.474659 -0.003348
v 0.805827 0.543343 -0.003348
v 0.793991 0.582665 -0.003348
v 0.758471 0.618310 -0.003348
v 0.725669 0.508576 -0.003348
v 0.706778 0.530945 -0.003348
v 0.776433 0.427068 0.004090
v 0.817477 0.416692 -0.008101
v 0.780885 0.444679 0.002098
v 0.853972 0.459691 -0.000817
v 0.840901 0.483982 -0.000817
v 0.780885 0.444679 0.002098
v 0.785065 0.461215 0.002098
v 0.776433 0.427068 0.004090
v 0.735388 0.437444 -0.008101
v 0.780885 0.444679 0.002098
v 0.723707 0.492623 -0.000817
v 0.780885 0.444679 0.002098
v 0.746752 0.507783 -0.000817
v 0.785065 0.461215 0.002098
v 0.805827 0.543343 -0.003348
v 0.739163 0.480750 -0.011957
v 0.798956 0.516163 -0.011957
v 0.725669 0.508576 -0.003348
v -0.363737 -0.297700 0.875047
v -0.363737 -0.589673 0.832213
v -0.320810 -0.301330 0.833366
v -0.314728 -0.143311 0.813372
v -0.363737 -0.134001 0.859628
v -0.363737 -0.297700 0.875047
v -0.320810 -0.301330 0.833366
v -0.363737 0.500235 0.419665
v -0.419255 0.312361 0.556480
v -0.441946 0.431444 0.437297
v -0.412745 -0.143311 0.813372
v -0.363737 -0.134001 0.859628
v -0.363737 -0.297700 0.875047
v -0.406664 -0.301330 0.833366
v -0.363737 -0.589673 0.832213
v -0.363737 -0.098584 0.523857
v -0.380625 -0.204611 0.483720
v -0.363737 -0.210287 0.499269
v -0.389255 -0.096769 0.498972
v -0.346849 -0.204611 0.483720
v -0.338200 -0.096769 0.498972
v -0.363737 -0.098584 0.523857
v -0.363737 -0.210287 0.499269
v -0.363737 0.500235 0.419665
v -0.308218 0.312361 0.556480
v -0.285527 0.431444 0.437297
v -0.363737 0.076237 0.540318
v -0.389255 -0.096769 0.498972
v -0.363737 -0.098584 0.523857
v -0.403762 0.076237 0.501203
v -0.338200 -0.096769 0.498972
v -0.323693 0.076237 0.501203
v -0.363737 0.076237 0.540318
v -0.363737 -0.098584 0.523857
v -0.317648 0.204516 0.495810
v -0.363737 0.076237 0.540318
v -0.323693 0.076237 0.501203
v -0.363737 0.210077 0.540299
v -0.363737 0.076237 0.540318
v -0.363737 0.210077 0.540299
v -0.409825 0.204516 0.495810
v -0.403762 0.076237 0.501203
v -0.363737 -0.199050 0.467539
v -0.389255 -0.096769 0.498972
v -0.380625 -0.204611 0.483720
v -0.363737 0.330979 0.456082
v -0.429150 0.265930 0.371753
v -0.363737 0.236186 0.428685
v -0.441946 0.431444 0.437297
v -0.363737 0.236186 0.428685
v -0.298305 0.265930 0.371753
v -0.363737 0.330979 0.456082
v -0.285527 0.431444 0.437297
v -0.429838 0.070561 -0.157226
v -0.363737 0.011077 -0.190110
v -0.363737 0.126414 -0.124585
v -0.297635 0.070561 -0.157226
v -0.363737 0.295674 -0.314222
v -0.441946 0.431444 -0.439004
v -0.363737 0.500235 -0.421372
v -0.285527 0.431444 -0.439004
v -0.363737 0.295674 -0.314222
v -0.363737 0.500235 -0.421372
v -0.363737 -0.199050 -0.469246
v -0.338200 -0.096769 -0.500679
v -0.346849 -0.204611 -0.485446
v -0.380625 -0.204611 -0.485446
v -0.363737 -0.210287 -0.500977
v -0.363737 -0.280897 -0.450889
v -0.380625 -0.204611 0.483720
v -0.363737 -0.280897 0.449182
v -0.363737 -0.210287 0.499269
v -0.363737 0.500235 -0.421372
v -0.419255 0.312361 -0.558188
v -0.363737 0.347778 -0.599775
v -0.363737 0.219388 -0.700453
v -0.419739 0.185898 -0.657861
v -0.363737 0.044566 -0.790629
v -0.412764 0.025949 -0.746609
v -0.412746 -0.143311 -0.815080
v -0.363737 -0.134001 -0.861340
v -0.363737 0.500235 0.419665
v -0.419255 0.312361 0.556480
v -0.363737 0.347778 0.598068
v -0.363737 0.219388 0.698745
v -0.419739 0.185898 0.656135
v -0.363737 0.044566 0.788914
v -0.412764 0.025949 0.744890
v -0.412745 -0.143311 0.813372
v -0.363737 -0.134001 0.859628
v -0.409825 0.204516 -0.497517
v -0.410309 0.416572 -0.441757
v -0.363737 0.210077 -0.542025
v -0.363737 0.431444 -0.484367
v -0.410309 0.416572 0.440049
v -0.409825 0.204516 0.495810
v -0.363737 0.210077 0.540299
v -0.363737 0.431444 0.482660
v -0.363737 0.236186 -0.430393
v -0.432647 0.163649 -0.296609
v -0.429150 0.265930 -0.373461
v -0.363737 0.111542 -0.337936
v -0.432647 0.163650 0.294883
v -0.363737 0.236186 0.428685
v -0.429150 0.265930 0.371753
v -0.363737 0.111542 0.336229
v -0.363737 0.111542 -0.337936
v -0.433763 0.100416 -0.235492
v -0.432647 0.163649 -0.296609
v -0.363737 0.044566 -0.271314
v -0.432647 0.163650 0.294883
v -0.433763 0.100416 0.233766
v -0.363737 0.111542 0.336229
v -0.363737 0.044566 0.269606
v -0.363737 0.011077 -0.190110
v -0.433763 0.100416 -0.235492
v -0.363737 0.044566 -0.271314
v -0.429838 0.070561 -0.157226
v -0.433763 0.100416 0.233766
v -0.363737 0.011077 0.188402
v -0.363737 0.044566 0.269606
v -0.429838 0.070561 0.155519
v -0.432647 0.163649 -0.296609
v -0.363737 0.161719 -0.196378
v -0.363737 0.217569 -0.253049
v -0.433763 0.100416 -0.235492
v -0.363737 0.161719 -0.196378
v -0.429838 0.070561 -0.157226
v -0.363737 0.126414 -0.124585
v -0.363737 0.161719 0.194652
v -0.432647 0.163650 0.294883
v -0.363737 0.217569 0.251342
v -0.433763 0.100416 0.233766
v -0.363737 0.161719 0.194652
v -0.429838 0.070561 0.155519
v -0.363737 0.126414 0.122877
v -0.429150 0.265930 -0.373461
v -0.363737 0.217569 -0.253049
v -0.363737 0.295674 -0.314222
v -0.432647 0.163649 -0.296609
v -0.441946 0.431444 -0.439004
v -0.363737 0.217569 0.251342
v -0.429150 0.265930 0.371753
v -0.363737 0.295674 0.312515
v -0.432647 0.163650 0.294883
v -0.441946 0.431444 0.437297
v -0.441946 0.431444 -0.439004
v -0.419255 0.312361 -0.558188
v -0.363737 0.330979 -0.457789
v -0.363737 0.277056 -0.515149
v -0.419255 0.312361 0.556480
v -0.441946 0.431444 0.437297
v -0.363737 0.330979 0.456082
v -0.363737 0.277056 0.513442
v -0.419739 0.185898 -0.657861
v -0.363737 0.277056 -0.515149
v -0.419255 0.312361 -0.558188
v -0.363737 0.150593 -0.613334
v -0.419739 0.185898 0.656135
v -0.419255 0.312361 0.556480
v -0.363737 0.277056 0.513442
v -0.363737 0.150593 0.611627
v -0.412764 0.025949 -0.746609
v -0.363737 0.150593 -0.613334
v -0.419739 0.185898 -0.657861
v -0.363737 0.005515 -0.700583
v -0.363737 -0.154438 -0.765602
v -0.412746 -0.143311 -0.815080
v -0.406664 -0.301330 -0.835066
v -0.363737 -0.305076 -0.791310
v -0.406664 -0.301330 -0.835066
v -0.363737 -0.589673 -0.833932
v -0.412764 0.025949 0.744890
v -0.419739 0.185898 0.656135
v -0.363737 0.150593 0.611627
v -0.363737 0.005515 0.698876
v -0.363737 -0.154438 0.763898
v -0.412745 -0.143311 0.813372
v -0.406664 -0.301330 0.833366
v -0.363737 -0.305076 0.789602
v -0.363737 -0.589673 0.832213
v -0.406664 -0.301330 0.833366
v -0.363737 -0.297700 -0.876755
v -0.320810 -0.301330 -0.835066
v -0.363737 -0.589673 -0.833932
v -0.314728 -0.143311 -0.815080
v -0.363737 -0.134001 -0.861340
v -0.363737 -0.297700 -0.876755
v -0.320810 -0.301330 -0.835066
v -0.363737 0.500235 -0.421372
v -0.419255 0.312361 -0.558188
v -0.441946 0.431444 -0.439004
v -0.412746 -0.143311 -0.815080
v -0.363737 -0.134001 -0.861340
v -0.363737 -0.297700 -0.876755
v -0.406664 -0.301330 -0.835066
v -0.363737 -0.589673 -0.833932
v -0.363737 -0.098584 -0.525565
v -0.380625 -0.204611 -0.485446
v -0.389255 -0.096769 -0.500679
v -0.363737 -0.210287 -0.500977
v -0.346849 -0.204611 -0.485446
v -0.363737 -0.098584 -0.525565
v -0.338200 -0.096769 -0.500679
v -0.363737 -0.210287 -0.500977
v -0.363737 0.500235 -0.421372
v -0.308218 0.312361 -0.558188
v -0.285527 0.431444 -0.439004
v -0.363737 0.076237 -0.542025
v -0.389255 -0.096769 -0.500679
v -0.403762 0.076237 -0.502911
v -0.363737 -0.098584 -0.525565
v -0.338200 -0.096769 -0.500679
v -0.363737 0.076237 -0.542025
v -0.323693 0.076237 -0.502911
v -0.363737 -0.098584 -0.525565
v -0.363737 0.076237 -0.542025
v -0.317648 0.204516 -0.497517
v -0.323693 0.076237 -0.502911
v -0.363737 0.210077 -0.542025
v -0.403762 0.076237 -0.502911
v -0.409825 0.204516 -0.497517
v -0.363737 0.076237 -0.542025
v -0.363737 0.210077 -0.542025
v -0.363737 -0.199050 -0.469246
v -0.389255 -0.096769 -0.500679
v -0.380625 -0.204611 -0.485446
v -0.429150 0.265930 -0.373461
v -0.363737 0.330979 -0.457789
v -0.363737 0.236186 -0.430393
v -0.441946 0.431444 -0.439004
v -0.363737 0.236186 -0.430393
v -0.298305 0.265930 -0.373461
v -0.363737 0.330979 -0.457789
v -0.285527 0.431444 -0.439004
v -0.363737 0.126414 0.122877
v -0.363737 0.011077 0.188402
v -0.429838 0.070561 0.155519
v -0.297635 0.070561 0.155519
v -0.363737 0.295674 0.312515
v -0.441946 0.431444 0.437297
v -0.363737 0.500235 0.419665
v -0.285527 0.431444 0.437297
v -0.363737 0.295674 0.312515
v -0.363737 0.500235 0.419665
v -0.363737 -0.199050 0.467539
v -0.338200 -0.096769 0.498972
v -0.346849 -0.204611 0.483720
v -0.307716 0.185898 -0.657861
v -0.363737 0.044566 -0.790629
v -0.363737 0.219388 -0.700453
v -0.314709 0.025949 -0.746609
v -0.314728 -0.143311 -0.815080
v -0.363737 -0.134001 -0.861340
v -0.307716 0.185898 0.656135
v -0.363737 0.044566 0.788914
v -0.314709 0.025949 0.744890
v -0.363737 0.219388 0.698745
v -0.314728 -0.143311 0.813372
v -0.363737 -0.134001 0.859628
v -0.363737 -0.210287 -0.500977
v -0.346849 -0.204611 -0.485446
v -0.363737 -0.280897 -0.450889
v -0.363737 -0.210287 0.499269
v -0.363737 -0.280897 0.449182
v -0.346849 -0.204611 0.483720
v -0.308218 0.312361 -0.558188
v -0.363737 0.219388 -0.700453
v -0.363737 0.347778 -0.599775
v -0.307716 0.185898 -0.657861
v -0.363737 0.500235 -0.421372
v -0.308218 0.312361 -0.558188
v -0.308218 0.312361 0.556480
v -0.363737 0.219388 0.698745
v -0.307716 0.185898 0.656135
v -0.363737 0.347778 0.598068
v -0.363737 0.500235 0.419665
v -0.308218 0.312361 0.556480
v -0.380625 -0.204611 -0.485446
v -0.363737 -0.199050 -0.469246
v -0.363737 -0.280897 -0.450889
v -0.380625 -0.204611 0.483720
v -0.363737 -0.280897 0.449182
v -0.363737 -0.199050 0.467539
v -0.363737 0.210077 -0.542025
v -0.317146 0.416572 -0.441757
v -0.317648 0.204516 -0.497517
v -0.363737 0.431444 -0.484367
v -0.317146 0.416572 0.440049
v -0.363737 0.210077 0.540299
v -0.317648 0.204516 0.495810
v -0.363737 0.431444 0.482660
v -0.363737 -0.094950 -0.474677
v -0.363737 -0.199050 -0.469246
v -0.389255 -0.096769 -0.500679
v -0.363737 -0.199050 0.467539
v -0.363737 -0.094950 0.472970
v -0.389255 -0.096769 0.498972
v -0.363737 -0.094950 -0.474677
v -0.403762 0.076237 -0.502911
v -0.363737 0.076237 -0.462011
v -0.389255 -0.096769 -0.500679
v -0.363737 -0.094950 0.472970
v -0.363737 0.076237 0.460285
v -0.403762 0.076237 0.501203
v -0.389255 -0.096769 0.498972
v -0.363737 0.197135 -0.450926
v -0.403762 0.076237 -0.502911
v -0.409825 0.204516 -0.497517
v -0.363737 0.076237 -0.462011
v -0.363737 0.197135 0.449219
v -0.403762 0.076237 0.501203
v -0.363737 0.076237 0.460285
v -0.409825 0.204516 0.495810
v -0.409825 0.204516 -0.497517
v -0.410309 0.416572 -0.441757
v -0.363737 0.197135 -0.450926
v -0.363737 0.399770 -0.397026
v -0.410309 0.416572 0.440049
v -0.363737 0.197135 0.449219
v -0.363737 0.399770 0.395318
v -0.409825 0.204516 0.495810
v -0.363737 0.236186 -0.430393
v -0.294827 0.163650 -0.296609
v -0.363737 0.111542 -0.337936
v -0.298305 0.265930 -0.373461
v -0.363737 0.236186 0.428685
v -0.363737 0.111542 0.336229
v -0.294827 0.163650 0.294883
v -0.298305 0.265930 0.371753
v -0.363737 0.011077 -0.190110
v -0.293711 0.100416 -0.235492
v -0.297635 0.070561 -0.157226
v -0.363737 0.044566 -0.271314
v -0.363737 0.111542 -0.337936
v -0.293711 0.100416 -0.235492
v -0.294827 0.163650 -0.296609
v -0.293711 0.100416 0.233766
v -0.363737 0.011077 0.188402
v -0.297635 0.070561 0.155519
v -0.363737 0.044566 0.269606
v -0.293711 0.100416 0.233766
v -0.363737 0.111542 0.336229
v -0.294827 0.163650 0.294883
v -0.297635 0.070561 -0.157226
v -0.363737 0.161719 -0.196378
v -0.363737 0.126414 -0.124585
v -0.293711 0.100416 -0.235492
v -0.297635 0.070561 0.155519
v -0.363737 0.126414 0.122877
v -0.363737 0.161719 0.194652
v -0.293711 0.100416 0.233766
v -0.294827 0.163650 -0.296609
v -0.363737 0.161719 -0.196378
v -0.293711 0.100416 -0.235492
v -0.363737 0.217569 -0.253049
v -0.363737 0.161719 0.194652
v -0.294827 0.163650 0.294883
v -0.293711 0.100416 0.233766
v -0.363737 0.217569 0.251342
v -0.298305 0.265930 -0.373461
v -0.363737 0.217569 -0.253049
v -0.294827 0.163650 -0.296609
v -0.363737 0.295674 -0.314222
v -0.298305 0.265930 0.371753
v -0.294827 0.163650 0.294883
v -0.363737 0.217569 0.251342
v -0.363737 0.295674 0.312515
v -0.298305 0.265930 -0.373461
v -0.285527 0.431444 -0.439004
v -0.363737 0.295674 -0.314222
v -0.285527 0.431444 0.437297
v -0.298305 0.265930 0.371753
v -0.363737 0.295674 0.312515
v -0.317648 0.204516 -0.497517
v -0.317146 0.416572 -0.441757
v -0.363737 0.197135 -0.450926
v -0.363737 0.399770 -0.397026
v -0.317146 0.416572 0.440049
v -0.363737 0.197135 0.449219
v -0.363737 0.399770 0.395318
v -0.317648 0.204516 0.495810
v -0.363737 0.197135 -0.450926
v -0.323693 0.076237 -0.502911
v -0.317648 0.204516 -0.497517
v -0.363737 0.076237 -0.462011
v -0.363737 0.197135 0.449219
v -0.323693 0.076237 0.501203
v -0.363737 0.076237 0.460285
v -0.317648 0.204516 0.495810
v -0.363737 -0.094950 -0.474677
v -0.323693 0.076237 -0.502911
v -0.363737 0.076237 -0.462011
v -0.338200 -0.096769 -0.500679
v -0.363737 -0.094950 0.472970
v -0.363737 0.076237 0.460285
v -0.323693 0.076237 0.501203
v -0.338200 -0.096769 0.498972
v -0.308218 0.312361 -0.558188
v -0.363737 0.330979 -0.457789
v -0.363737 0.277056 -0.515149
v -0.285527 0.431444 -0.439004
v -0.307716 0.185898 -0.657861
v -0.363737 0.150593 -0.613334
v -0.314709 0.025949 -0.746609
v -0.363737 0.005515 -0.700583
v -0.363737 -0.154438 -0.765602
v -0.314728 -0.143311 -0.815080
v -0.320810 -0.301330 -0.835066
v -0.363737 -0.305076 -0.791310
v -0.363737 -0.589673 -0.833932
v -0.363737 0.330979 0.456082
v -0.308218 0.312361 0.556480
v -0.363737 0.277056 0.513442
v -0.285527 0.431444 0.437297
v -0.307716 0.185898 0.656135
v -0.363737 0.150593 0.611627
v -0.314709 0.025949 0.744890
v -0.363737 0.005515 0.698876
v -0.363737 -0.154438 0.763898
v -0.314728 -0.143311 0.813372
v -0.320810 -0.301330 0.833366
v -0.363737 -0.305076 0.789602
v -0.363737 -0.589673 0.832213
v -0.363737 -0.094950 -0.474677
v -0.363737 -0.199050 -0.469246
v -0.338200 -0.096769 -0.500679
v -0.363737 -0.199050 0.467539
v -0.363737 -0.094950 0.472970
v -0.338200 -0.096769 0.498972
v -0.346849 -0.204611 -0.485446
v -0.363737 -0.199050 -0.469246
v -0.363737 -0.280897 -0.450889
v -0.346849 -0.204611 0.483720
v -0.363737 -0.280897 0.449182
v -0.363737 -0.199050 0.467539
vn -0.5619 0.8272 0.0005
vn -0.5619 0.8272 0.0006
vn -0.9964 0.0851 0.0003
vn -0.5849 -0.3974 -0.7071
vn -0.8274 -0.5616 0.0005
vn -0.5849 -0.3974 0.7071
vn -0.8082 0.2132 -0.5489
vn -0.0000 -0.0000 -1.0000
vn -0.3542 0.5213 -0.7764
vn 0.5846 0.3978 -0.7071
vn 0.0999 0.8298 -0.5490
vn 0.8271 0.5620 -0.0000
vn 0.2875 0.9578 0.0004
vn -0.8082 0.2132 0.5489
vn -0.0000 -0.0000 1.0000
vn 0.0999 0.8298 0.5490
vn 0.5846 0.3978 0.7071
vn -0.3542 0.5213 0.7764
vn 0.2699 -0.6791 0.6826
vn 0.0638 -0.0448 0.9970
vn -0.0330 -0.7257 0.6872
vn -0.0721 -0.9974 0.0005
vn 0.1429 -0.0125 0.9897
vn 0.5642 -0.5022 0.6553
vn 0.3216 -0.9469 0.0004
vn 0.6900 -0.7238 0.0005
vn 0.5642 -0.5022 -0.6553
vn 0.9294 -0.3692 0.0005
vn 0.2219 0.0597 0.9732
vn 0.7112 -0.2372 0.6617
vn 0.9800 -0.1991 0.0005
vn 0.7151 -0.0985 0.6920
vn 0.7112 -0.2372 -0.6617
vn 0.7151 -0.0985 -0.6920
vn 0.1497 0.1272 0.9805
vn 0.0676 0.1497 0.9864
vn -0.5878 0.4026 0.7017
vn -0.4530 0.5384 0.7106
vn 0.1497 0.1272 -0.9805
vn 0.0676 0.1496 -0.9864
vn -0.5878 0.4026 -0.7017
vn 0.2219 0.0597 -0.9732
vn -0.4530 0.5384 -0.7106
vn -0.7045 0.7097 0.0005
vn -0.8607 0.5092 0.0005
vn -0.1854 0.6663 0.7223
vn -0.1854 0.6663 -0.7223
vn -0.3712 0.9286 0.0005
vn 0.0108 0.6921 0.7217
vn 0.0108 0.6921 -0.7217
vn -0.0477 0.9989 0.0005
vn 0.2054 0.9787 0.0003
vn 0.1634 0.6725 0.7218
vn 0.1429 -0.0125 -0.9897
vn 0.0637 -0.0448 -0.9970
vn 0.2699 -0.6791 -0.6827
vn 0.1634 0.6725 -0.7218
vn 0.4457 0.8952 0.0005
vn 0.3334 0.6090 -0.7197
vn -0.0330 -0.7257 -0.6872
vn 0.0471 -0.0624 -0.9969
vn 0.3334 0.6090 0.7197
vn 0.7335 0.6797 0.0005
vn 0.5307 0.4252 -0.7332
vn -0.2441 -0.6878 -0.6836
vn 0.0617 -0.1259 -0.9901
vn -0.0595 0.0744 -0.9955
vn -0.3917 -0.6223 -0.6777
vn -0.3623 -0.9320 0.0005
vn -0.2441 -0.6878 0.6836
vn -0.5755 -0.8178 0.0005
vn 0.0471 -0.0624 0.9969
vn -0.3917 -0.6223 0.6777
vn 0.0617 -0.1259 0.9901
vn 0.5307 0.4252 0.7332
vn -0.0595 0.0744 0.9955
vn -0.6250 -0.3417 0.7018
vn -0.8579 -0.5139 0.0005
vn -0.9729 -0.2314 0.0005
vn -0.6250 -0.3417 -0.7018
vn -0.7463 -0.0769 0.6611
vn -0.7463 -0.0769 -0.6611
vn -0.2002 0.2943 0.9345
vn 0.3468 0.6655 0.6609
vn -0.1998 0.2941 -0.9347
vn 0.3468 0.6655 -0.6609
vn 0.5072 0.4945 0.7059
vn 0.5728 0.8197 0.0004
vn 0.7428 0.6695 0.0005
vn 0.5072 0.4945 -0.7059
vn 0.8515 -0.5244 -0.0000
vn 0.9960 -0.0888 -0.0000
vn 0.3579 0.9338 -0.0000
vn 0.3579 0.9338 -0.0002
vn -0.3862 0.1139 -0.9154
vn -0.3659 -0.4839 -0.7950
vn 0.0373 -0.3333 -0.9421
vn -0.4594 0.0108 -0.8882
vn -0.3863 0.1140 0.9153
vn -0.3660 -0.4839 0.7949
vn -0.4594 0.0107 0.8882
vn 0.0373 -0.3332 0.9421
vn -0.1912 -0.2756 0.9421
vn 0.3941 -0.0833 0.9153
vn 0.0921 -0.5997 0.7949
vn 0.4093 -0.2088 0.8882
vn 0.3941 -0.0833 -0.9153
vn 0.0921 -0.5998 -0.7949
vn 0.4094 -0.2088 -0.8882
vn -0.1912 -0.2755 -0.9421
vn -0.2716 0.0198 -0.9622
vn -0.3862 0.1140 -0.9153
vn -0.2622 0.0581 -0.9633
vn -0.3984 0.0354 -0.9165
vn -0.4013 0.0526 -0.9144
vn -0.4091 0.3711 -0.8336
vn -0.3984 0.0356 -0.9165
vn -0.4013 0.0528 -0.9144
vn -0.0600 -0.2369 -0.9697
vn 0.0920 -0.5996 -0.7950
vn 0.4093 -0.2087 -0.8882
vn 0.2484 -0.1116 -0.9622
vn 0.3940 -0.0832 -0.9153
vn 0.2584 -0.0735 -0.9632
vn 0.3674 -0.1581 -0.9165
vn 0.3781 -0.1444 -0.9144
vn 0.3675 -0.1580 -0.9165
vn 0.5363 0.1321 -0.8336
vn 0.3783 -0.1442 -0.9144
vn 0.1983 -0.1476 -0.9690
vn 0.2242 -0.1374 -0.9648
vn 0.0896 -0.0956 -0.9914
vn 0.0858 -0.0787 -0.9932
vn 0.0894 -0.0956 -0.9914
vn 0.0439 0.0133 -0.9989
vn 0.0858 -0.0786 -0.9932
vn 0.0439 0.0132 -0.9989
vn -0.2446 -0.0358 -0.9690
vn -0.1243 -0.0416 -0.9914
vn -0.2626 -0.0144 -0.9648
vn -0.1130 -0.0285 -0.9932
vn -0.0323 0.0325 -0.9989
vn -0.1240 -0.0416 -0.9914
vn -0.1129 -0.0284 -0.9932
vn -0.0598 -0.2370 -0.9697
vn -0.3660 -0.4838 -0.7950
vn -0.9984 -0.0567 -0.0000
vn -0.9186 0.3952 -0.0000
vn 0.1289 0.9917 -0.0000
vn 0.1289 0.9917 0.0002
vn 0.1286 0.9917 -0.0000
vn 0.7758 0.6310 -0.0000
vn -0.3827 0.9239 -0.0000
vn 0.3580 0.9337 -0.0000
vn 0.3581 0.9337 -0.0000
vn -0.4091 0.3711 0.8336
vn -0.4013 0.0527 0.9144
vn -0.3984 0.0356 0.9165
vn -0.4092 0.3711 0.8336
vn -0.2716 0.0198 0.9622
vn -0.3984 0.0355 0.9165
vn -0.4013 0.0526 0.9144
vn -0.2622 0.0581 0.9632
vn -0.4594 0.0108 0.8882
vn -0.3862 0.1140 0.9153
vn -0.0600 -0.2369 0.9697
vn -0.1912 -0.2755 0.9421
vn 0.0920 -0.5997 0.7949
vn -0.0601 -0.2369 0.9697
vn 0.3940 -0.0832 0.9153
vn 0.2484 -0.1116 0.9622
vn 0.4093 -0.2087 0.8882
vn 0.2583 -0.0734 0.9633
vn 0.3674 -0.1583 0.9165
vn 0.3781 -0.1444 0.9144
vn 0.3782 -0.1443 0.9144
vn 0.5363 0.1321 0.8336
vn 0.3675 -0.1580 0.9165
vn 0.5364 0.1321 0.8336
vn 0.1982 -0.1477 0.9690
vn 0.0896 -0.0956 0.9914
vn 0.2242 -0.1375 0.9648
vn 0.0858 -0.0787 0.9932
vn 0.0439 0.0133 0.9989
vn 0.0894 -0.0956 0.9914
vn 0.0858 -0.0786 0.9932
vn 0.0439 0.0132 0.9989
vn -0.2446 -0.0357 0.9690
vn -0.2626 -0.0144 0.9648
vn -0.1243 -0.0416 0.9914
vn -0.1129 -0.0285 0.9932
vn -0.1241 -0.0416 0.9914
vn -0.0323 0.0325 0.9989
vn -0.1129 -0.0284 0.9932
vn -0.0598 -0.2370 0.9697
vn -0.0597 -0.2370 0.9697
vn 0.6951 -0.0158 0.7188
vn 0.6874 -0.1029 0.7190
vn 0.7003 0.1724 0.6927
vn 0.7013 0.1651 0.6935
vn -0.6302 0.5207 0.5759
vn -0.5607 0.5932 0.5777
vn -0.5608 0.5931 0.5776
vn -0.6950 -0.0160 0.7189
vn -0.7013 0.1647 0.6936
vn -0.7003 0.1724 0.6927
vn -0.6951 -0.0158 0.7188
vn -0.6874 -0.1029 0.7190
vn -0.6943 -0.1578 0.7022
vn 0.6943 -0.1578 0.7022
vn 0.6943 -0.1577 0.7022
vn 0.5608 0.5931 0.5777
vn 0.6302 0.5207 0.5759
vn 0.5607 0.5932 0.5777
vn -0.6975 -0.0703 0.7131
vn -0.6975 -0.0704 0.7131
vn -0.6975 -0.0705 0.7131
vn 0.6975 -0.0705 0.7131
vn 0.6951 -0.0000 0.7189
vn 0.6952 -0.0000 0.7188
vn 0.6951 0.0001 0.7189
vn -0.6952 -0.0000 0.7188
vn -0.6950 0.0001 0.7190
vn -0.6952 -0.0001 0.7188
vn 0.7105 -0.0395 0.7026
vn -0.6376 -0.2834 0.7163
vn -0.6671 -0.3605 0.6519
vn -0.6674 -0.3604 0.6517
vn 0.6671 -0.3605 0.6519
vn 0.6376 -0.2834 0.7163
vn 0.6674 -0.3603 0.6518
vn -0.0000 -0.4970 0.8678
vn -0.0000 -0.4969 0.8678
vn -0.6083 0.3168 0.7277
vn -0.6598 0.3853 0.6452
vn 0.6598 0.3853 0.6452
vn 0.6083 0.3168 0.7277
vn 0.7105 0.0395 0.7026
vn -0.6877 -0.4190 -0.5928
vn -0.6877 -0.4191 -0.5928
vn -0.6877 -0.4192 0.5928
vn -0.6877 -0.4191 0.5928
vn -0.6308 0.5204 -0.5756
vn -0.5620 0.5929 -0.5768
vn -0.6355 0.5178 -0.5727
vn -0.7014 0.3862 -0.5990
vn -0.6981 0.3845 -0.6040
vn -0.6940 0.2998 -0.6546
vn -0.6940 0.2997 -0.6546
vn -0.7003 0.1735 -0.6924
vn -0.7012 0.1662 -0.6933
vn -0.5620 0.5928 0.5768
vn -0.6308 0.5204 0.5756
vn -0.6355 0.5178 0.5727
vn -0.7015 0.3862 0.5990
vn -0.6981 0.3844 0.6040
vn -0.6941 0.2996 0.6546
vn -0.6940 0.2997 0.6546
vn -0.7003 0.1738 0.6923
vn -0.7012 0.1662 0.6933
vn -0.6994 0.1807 -0.6915
vn -0.6994 0.1807 0.6915
vn -0.6672 -0.3612 -0.6514
vn -0.6900 -0.4626 -0.5567
vn -0.6672 -0.3611 -0.6515
vn -0.6905 -0.4708 -0.5492
vn -0.6900 -0.4626 0.5567
vn -0.6672 -0.3612 0.6514
vn -0.6672 -0.3611 0.6515
vn -0.6904 -0.4707 0.5493
vn -0.6993 -0.5967 -0.3936
vn -0.7014 -0.5986 -0.3868
vn -0.6993 -0.5968 0.3935
vn -0.6905 -0.4708 0.5492
vn -0.7014 -0.5986 0.3869
vn -0.6922 -0.6764 -0.2517
vn -0.6993 -0.5976 -0.3922
vn -0.7014 -0.5995 -0.3856
vn -0.6994 -0.5976 0.3921
vn -0.6922 -0.6764 0.2517
vn -0.7014 -0.5994 0.3856
vn -0.7074 0.4716 0.5266
vn -0.7178 0.5677 0.4031
vn -0.7073 0.4716 0.5266
vn -0.7147 0.5729 0.4012
vn -0.7178 0.5686 0.4018
vn -0.7147 0.5738 0.3999
vn -0.7092 0.6383 0.2994
vn -0.7179 0.5676 -0.4030
vn -0.7073 0.4716 -0.5266
vn -0.7072 0.4717 -0.5267
vn -0.7147 0.5729 -0.4012
vn -0.7178 0.5686 -0.4019
vn -0.7092 0.6383 -0.2994
vn -0.7148 0.5738 -0.3999
vn -0.6623 0.3785 0.6466
vn -0.6604 0.3852 0.6446
vn -0.6094 0.3158 0.7273
vn -0.6623 0.3785 -0.6466
vn -0.6604 0.3852 -0.6446
vn -0.6094 0.3158 -0.7273
vn -0.6688 -0.5744 0.4721
vn -0.6943 -0.5049 0.5128
vn -0.6943 -0.5050 -0.5128
vn -0.6688 -0.5744 -0.4721
vn -0.6688 -0.5743 -0.4721
vn -0.6943 -0.5049 -0.5128
vn -0.7147 -0.4006 0.5733
vn -0.6944 -0.5049 0.5128
vn -0.7170 -0.3939 0.5751
vn -0.7147 -0.4006 -0.5733
vn -0.7170 -0.3940 -0.5751
vn -0.7132 -0.3135 0.6270
vn -0.7147 -0.4006 0.5734
vn -0.7167 -0.3150 0.6222
vn -0.7176 -0.1892 0.6703
vn -0.7145 -0.1099 0.6909
vn -0.7151 -0.1021 0.6915
vn -0.7132 -0.3135 -0.6270
vn -0.7147 -0.4005 -0.5734
vn -0.7170 -0.3939 -0.5751
vn -0.7167 -0.3150 -0.6222
vn -0.7176 -0.1892 -0.6703
vn -0.7186 -0.1885 -0.6694
vn -0.7145 -0.1099 -0.6909
vn -0.7145 -0.1100 -0.6910
vn -0.7151 -0.1022 -0.6915
vn 0.6951 -0.0158 -0.7188
vn 0.6874 -0.1027 -0.7190
vn 0.7003 0.1724 -0.6927
vn 0.7013 0.1647 -0.6936
vn -0.5608 0.5931 -0.5777
vn -0.6302 0.5207 -0.5759
vn -0.5607 0.5932 -0.5777
vn -0.6950 -0.0160 -0.7188
vn -0.7003 0.1724 -0.6927
vn -0.7013 0.1647 -0.6936
vn -0.6951 -0.0159 -0.7187
vn -0.6874 -0.1029 -0.7189
vn -0.6943 -0.1576 -0.7022
vn -0.6943 -0.1578 -0.7022
vn 0.6943 -0.1578 -0.7022
vn 0.6302 0.5207 -0.5759
vn 0.5607 0.5932 -0.5777
vn 0.5608 0.5931 -0.5776
vn -0.6975 -0.0704 -0.7131
vn -0.6975 -0.0705 -0.7131
vn 0.6975 -0.0704 -0.7131
vn 0.6975 -0.0705 -0.7131
vn 0.6952 -0.0001 -0.7188
vn 0.6957 -0.0007 -0.7183
vn 0.6952 -0.0000 -0.7188
vn 0.6950 -0.0000 -0.7190
vn -0.6952 -0.0000 -0.7188
vn -0.6957 -0.0007 -0.7183
vn -0.6952 -0.0000 -0.7189
vn -0.6950 -0.0000 -0.7190
vn 0.7105 -0.0395 -0.7026
vn -0.6672 -0.3604 -0.6519
vn -0.6376 -0.2834 -0.7163
vn -0.6674 -0.3604 -0.6517
vn 0.6671 -0.3605 -0.6519
vn 0.6674 -0.3603 -0.6517
vn 0.6376 -0.2834 -0.7163
vn -0.0000 -0.4969 -0.8678
vn -0.0000 -0.4970 -0.8678
vn -0.6598 0.3853 -0.6452
vn -0.6083 0.3168 -0.7277
vn 0.6598 0.3853 -0.6452
vn 0.6083 0.3168 -0.7277
vn 0.7105 0.0395 -0.7026
vn 0.6981 0.3844 -0.6040
vn 0.6940 0.2997 -0.6546
vn 0.7015 0.3862 -0.5990
vn 0.7003 0.1736 -0.6924
vn 0.7012 0.1662 -0.6933
vn 0.6982 0.3844 0.6040
vn 0.6941 0.2996 0.6546
vn 0.6940 0.2997 0.6546
vn 0.7015 0.3862 0.5990
vn 0.7003 0.1738 0.6923
vn 0.7012 0.1662 0.6933
vn 0.6877 -0.4191 -0.5928
vn 0.6877 -0.4191 0.5928
vn 0.6878 -0.4190 0.5928
vn 0.6313 0.5199 -0.5755
vn 0.6360 0.5173 -0.5727
vn 0.6982 0.3844 -0.6040
vn 0.5620 0.5928 -0.5768
vn 0.6312 0.5206 -0.5750
vn 0.6359 0.5180 -0.5721
vn 0.6313 0.5199 0.5755
vn 0.6981 0.3844 0.6040
vn 0.6360 0.5173 0.5727
vn 0.5620 0.5929 0.5768
vn 0.6359 0.5180 0.5721
vn 0.6312 0.5206 0.5750
vn 0.7108 -0.1501 -0.6872
vn 0.7108 -0.1501 0.6872
vn 0.6994 0.1807 -0.6915
vn 0.6994 0.1807 0.6915
vn 0.6994 0.1808 0.6915
vn 0.7141 0.0471 -0.6984
vn 0.7141 0.0471 0.6984
vn 0.7135 0.0627 -0.6978
vn 0.7135 0.0628 -0.6978
vn 0.7135 0.0627 0.6979
vn 0.7136 0.0629 0.6977
vn 0.7135 0.0627 0.6978
vn 0.7136 0.0628 0.6977
vn 0.7148 0.1806 -0.6756
vn 0.7147 0.1806 -0.6757
vn 0.7148 0.1807 -0.6756
vn 0.7144 0.1799 -0.6762
vn 0.7147 0.1805 0.6757
vn 0.7146 0.1805 0.6758
vn 0.7144 0.1799 0.6762
vn 0.7147 0.1806 0.6757
vn 0.6672 -0.3611 -0.6515
vn 0.6900 -0.4626 -0.5567
vn 0.6905 -0.4708 -0.5492
vn 0.6674 -0.3616 0.6510
vn 0.6904 -0.4708 0.5492
vn 0.6900 -0.4626 0.5567
vn 0.6672 -0.3611 0.6515
vn 0.6922 -0.6764 -0.2517
vn 0.6993 -0.5976 -0.3922
vn 0.7013 -0.5995 -0.3856
vn 0.7014 -0.5986 -0.3868
vn 0.6993 -0.5967 -0.3936
vn 0.6994 -0.5976 0.3921
vn 0.6922 -0.6764 0.2517
vn 0.7014 -0.5994 0.3856
vn 0.6993 -0.5967 0.3936
vn 0.6905 -0.4708 0.5492
vn 0.7013 -0.5987 0.3870
vn 0.7092 0.6383 0.2994
vn 0.7178 0.5685 0.4019
vn 0.7148 0.5738 0.3999
vn 0.7092 0.6383 -0.2994
vn 0.7178 0.5686 -0.4019
vn 0.7147 0.5738 -0.3999
vn 0.7073 0.4716 0.5266
vn 0.7179 0.5676 0.4030
vn 0.7147 0.5729 0.4012
vn 0.7178 0.5677 -0.4031
vn 0.7074 0.4716 -0.5266
vn 0.7147 0.5729 -0.4012
vn 0.7073 0.4716 -0.5266
vn 0.6627 0.3789 0.6459
vn 0.7073 0.4715 0.5267
vn 0.6607 0.3856 0.6440
vn 0.6627 0.3789 -0.6460
vn 0.7073 0.4715 -0.5267
vn 0.6607 0.3856 -0.6440
vn 0.6627 0.3777 0.6467
vn 0.6094 0.3158 0.7273
vn 0.6605 0.3845 0.6449
vn 0.6094 0.3158 -0.7272
vn 0.6625 0.3777 -0.6468
vn 0.6606 0.3845 -0.6448
vn 0.7148 -0.1807 0.6756
vn 0.7148 -0.1807 0.6755
vn 0.7149 -0.1807 -0.6755
vn 0.7148 -0.1807 -0.6756
vn 0.7141 -0.0632 0.6972
vn 0.7135 -0.0627 0.6978
vn 0.7131 -0.0640 0.6982
vn 0.7142 -0.0632 -0.6971
vn 0.7135 -0.0628 -0.6978
vn 0.7135 -0.0630 -0.6979
vn 0.7135 -0.0627 -0.6979
vn 0.7138 -0.0549 0.6982
vn 0.7138 -0.0549 0.6981
vn 0.7139 -0.0549 -0.6981
vn 0.7138 -0.0548 -0.6982
vn 0.7138 -0.0549 -0.6982
vn 0.6943 -0.5049 0.5128
vn 0.6688 -0.5743 0.4721
vn 0.6688 -0.5744 0.4721
vn 0.7146 -0.4006 0.5734
vn 0.7170 -0.3939 0.5751
vn 0.7132 -0.3135 0.6270
vn 0.7167 -0.3150 0.6221
vn 0.7176 -0.1892 0.6703
vn 0.7147 -0.1104 0.6907
vn 0.7145 -0.1102 0.6910
vn 0.7151 -0.1022 0.6915
vn 0.6688 -0.5744 -0.4721
vn 0.6943 -0.5049 -0.5128
vn 0.7147 -0.4006 -0.5733
vn 0.7170 -0.3939 -0.5751
vn 0.7132 -0.3135 -0.6269
vn 0.7167 -0.3150 -0.6222
vn 0.7176 -0.1893 -0.6703
vn 0.7176 -0.1893 -0.6702
vn 0.7149 -0.1106 -0.6904
vn 0.7144 -0.1101 -0.6910
vn 0.7151 -0.1023 -0.6915
vn 0.7108 0.1501 0.6872
vn 0.7108 0.1501 -0.6872
vt 0.000000 0.000000
vt 3.999120 -39.098202
vt 3.997470 -39.109600
vt 4.000880 -39.098202
vt 4.002530 -39.109600
vt 3.997470 -39.114300
vt 4.002530 -39.114300
vt 4.025340 -39.000000
vt 4.015720 -38.998001
vt 4.011200 -39.000000
vt 4.021130 -38.998001
vt 4.015720 -39.001999
vt 4.021130 -39.001999
vt 3.988800 -39.000000
vt 3.974660 -39.000000
vt 3.984280 -39.001999
vt 3.978870 -39.001999
vt 3.984280 -38.998001
vt 3.978870 -38.998001
vt 3.988830 -39.133499
vt 3.978870 -39.117100
vt 3.974660 -39.119499
vt 3.995200 -39.133400
vt 3.985390 -39.139198
vt 3.980420 -39.137100
vt 4.000000 -39.173302
vt 4.000000 -39.167900
vt 4.000000 -39.125401
vt 4.015720 -39.113201
vt 4.011200 -39.107800
vt 4.000000 -39.118999
vt 4.021130 -39.117100
vt 4.011170 -39.133499
vt 4.025340 -39.119499
vt 4.004800 -39.133400
vt 4.014610 -39.139198
vt 4.019580 -39.137100
vt 3.984280 -39.113201
vt 4.009620 -39.098202
vt 4.000000 -39.098202
vt 4.000000 -39.102299
vt 4.015270 -39.109600
vt 4.011030 -39.114300
vt 4.000000 -39.106098
vt 3.990380 -39.098202
vt 3.984730 -39.109600
vt 3.988970 -39.114300
vt 3.988800 -39.107800
vt 3.988970 -39.002499
vt 4.000000 -38.996799
vt 3.988970 -38.997501
vt 4.000000 -39.003201
vt 4.011030 -39.002499
vt 4.011030 -38.997501
vt -0.000000 -45.034302
vt 0.000000 -45.053902
vt 0.002885 -45.034500
vt 0.003294 -45.023998
vt -0.000000 -45.023300
vt -0.003731 -44.993301
vt -0.000000 -44.980701
vt -0.005257 -44.985298
vt -0.003294 -45.023998
vt -0.002885 -45.034500
vt -0.000000 -45.020901
vt -0.001135 -45.028000
vt -0.000000 -45.028400
vt -0.001716 -45.020802
vt 0.001135 -45.028000
vt 0.001716 -45.020802
vt 0.003731 -44.993301
vt 0.005257 -44.985298
vt -0.000000 -45.009102
vt -0.002691 -45.009201
vt 0.002691 -45.009201
vt 0.003097 -45.000599
vt -0.000000 -45.000099
vt -0.003097 -45.000599
vt -0.000000 -45.027599
vt -0.000000 -44.992100
vt -0.004397 -44.996498
vt -0.000000 -44.998402
vt 0.004397 -44.996498
vt -0.004442 -45.009602
vt -0.000000 -45.013500
vt -0.000000 -45.005798
vt 0.004442 -45.009602
vt -0.000000 -44.994400
vt -0.032568 -45.028000
vt -0.033612 -45.028400
vt -0.030246 -45.033199
vt 0.032568 -45.028000
vt 0.030246 -45.033199
vt 0.033612 -45.028400
vt -0.037457 -44.993301
vt -0.028261 -44.980701
vt -0.040252 -44.990898
vt -0.047018 -44.999500
vt -0.044155 -45.001801
vt -0.053078 -45.011398
vt -0.050120 -45.012600
vt -0.054722 -45.023998
vt -0.057831 -45.023300
vt 0.028261 -44.980701
vt 0.037457 -44.993301
vt 0.040252 -44.990898
vt 0.047019 -44.999500
vt 0.044155 -45.001801
vt 0.053079 -45.011398
vt 0.050120 -45.012600
vt 0.054722 -45.023998
vt 0.057831 -45.023300
vt -0.033380 -45.000599
vt -0.029632 -44.986401
vt -0.036370 -45.000099
vt -0.032495 -44.985298
vt 0.029632 -44.986401
vt 0.033380 -45.000599
vt 0.036370 -45.000099
vt 0.032495 -44.985298
vt -0.028868 -44.998402
vt -0.019876 -45.003300
vt -0.025042 -44.996498
vt -0.022654 -45.006802
vt 0.019876 -45.003300
vt 0.028868 -44.998402
vt 0.025042 -44.996498
vt 0.022654 -45.006802
vt -0.015769 -45.007500
vt -0.018177 -45.011398
vt 0.015769 -45.007500
vt 0.018177 -45.011398
vt -0.012719 -45.013500
vt -0.010509 -45.009602
vt 0.012719 -45.013500
vt 0.010509 -45.009602
vt -0.013140 -45.003399
vt -0.016949 -44.999699
vt -0.008316 -45.005798
vt 0.013140 -45.003399
vt 0.016949 -44.999699
vt 0.008316 -45.005798
vt -0.021061 -44.994400
vt -0.029447 -44.985298
vt 0.021061 -44.994400
vt 0.029447 -44.985298
vt -0.030709 -44.992100
vt -0.034564 -44.995701
vt 0.030709 -44.992100
vt 0.034564 -44.995701
vt -0.041162 -45.004200
vt 0.041163 -45.004200
vt -0.047027 -45.013901
vt -0.051397 -45.024700
vt -0.056065 -45.034500
vt -0.053124 -45.034801
vt -0.055989 -45.053902
vt 0.047027 -45.013901
vt 0.051397 -45.024700
vt 0.056065 -45.034500
vt 0.053124 -45.034801
vt 0.055989 -45.053902
vt 0.053078 -45.011398
vt 0.047018 -44.999500
vt -0.053079 -45.011398
vt -0.047019 -44.999500
vt 0.031479 -45.027599
vt -0.031479 -45.027599
vt 0.031844 -45.020699
vt 0.033592 -45.020802
vt -0.031844 -45.020699
vt -0.033592 -45.020802
vt 0.033742 -45.009201
vt 0.030993 -45.009201
vt -0.030993 -45.009201
vt -0.033742 -45.009201
vt 0.030248 -45.001099
vt -0.030248 -45.001099
vt 0.026626 -44.987400
vt -0.026626 -44.987400
vt 0.041162 -45.004200
vt -0.041163 -45.004200
s 1
usemtl Meshpart21Mtl.001
f 1/1/1 2/1/1 3/1/1
f 2/1/1 1/1/1 4/1/1
f 5/1/1 3/1/1 2/1/1
f 1/1/1 6/1/1 4/1/1
f 3/1/1 5/1/1 7/1/1
f 1/1/1 8/1/1 6/1/1
f 9/1/1 7/1/1 5/1/1
f 8/1/1 10/1/1 6/1/1
f 11/1/1 9/1/1 5/1/1
f 10/1/1 8/1/1 12/1/1
f 13/1/1 9/1/1 11/1/1
f 14/1/2 10/1/1 12/1/1
f 13/1/1 11/1/1 15/1/1
f 10/1/1 14/1/2 16/1/1
f 13/1/1 16/1/1 14/1/2
f 16/1/1 13/1/1 15/1/1
f 17/1/3 18/1/4 19/1/5
f 20/1/6 17/1/3 19/1/5
f 18/1/4 17/1/3 21/1/7
f 22/1/8 18/1/4 21/1/7
f 23/1/9 22/1/8 21/1/7
f 24/1/10 22/1/8 23/1/9
f 21/1/7 25/1/11 23/1/9
f 25/1/11 24/1/10 23/1/9
f 17/1/3 25/1/11 21/1/7
f 26/1/12 24/1/10 25/1/11
f 17/1/3 27/1/13 25/1/11
f 27/1/13 26/1/12 25/1/11
f 17/1/3 20/1/6 28/1/14
f 29/1/15 28/1/14 20/1/6
f 27/1/13 17/1/3 30/1/16
f 30/1/16 26/1/12 27/1/13
f 30/1/16 17/1/3 28/1/14
f 26/1/12 30/1/16 31/1/17
f 28/1/14 29/1/15 32/1/18
f 30/1/16 28/1/14 32/1/18
f 31/1/17 32/1/18 29/1/15
f 32/1/18 31/1/17 30/1/16
f 33/1/19 34/1/20 35/1/21
f 36/1/22 33/1/19 35/1/21
f 34/1/20 33/1/19 37/1/23
f 38/1/24 37/1/23 33/1/19
f 36/1/22 39/1/25 33/1/19
f 39/1/25 38/1/24 33/1/19
f 38/1/24 39/1/25 40/1/26
f 39/1/25 41/1/27 40/1/26
f 42/1/28 38/1/24 40/1/26
f 41/1/27 42/1/28 40/1/26
f 43/1/29 37/1/23 38/1/24
f 38/1/24 42/1/28 44/1/30
f 38/1/24 44/1/30 43/1/29
f 45/1/31 44/1/30 42/1/28
f 44/1/30 45/1/31 46/1/32
f 47/1/33 45/1/31 42/1/28
f 42/1/28 41/1/27 47/1/33
f 45/1/31 47/1/33 48/1/34
f 44/1/30 46/1/32 49/1/35
f 49/1/35 43/1/29 44/1/30
f 49/1/35 46/1/32 50/1/36
f 51/1/37 49/1/35 50/1/36
f 52/1/38 43/1/29 49/1/35
f 49/1/35 51/1/37 52/1/38
f 53/1/39 48/1/34 47/1/33
f 48/1/34 53/1/39 54/1/40
f 54/1/40 53/1/39 55/1/41
f 47/1/33 56/1/42 53/1/39
f 56/1/42 47/1/33 41/1/27
f 53/1/39 57/1/43 55/1/41
f 53/1/39 56/1/42 57/1/43
f 58/1/44 55/1/41 57/1/43
f 52/1/38 51/1/37 58/1/44
f 55/1/41 58/1/44 59/1/45
f 59/1/45 58/1/44 51/1/37
f 58/1/44 60/1/46 52/1/38
f 43/1/29 52/1/38 60/1/46
f 57/1/43 61/1/47 58/1/44
f 57/1/43 56/1/42 61/1/47
f 60/1/46 58/1/44 62/1/48
f 61/1/47 62/1/48 58/1/44
f 63/1/49 43/1/29 60/1/46
f 62/1/48 63/1/49 60/1/46
f 43/1/29 63/1/49 37/1/23
f 61/1/47 64/1/50 62/1/48
f 56/1/42 64/1/50 61/1/47
f 63/1/49 62/1/48 65/1/51
f 64/1/50 65/1/51 62/1/48
f 34/1/20 37/1/23 63/1/49
f 66/1/52 63/1/49 65/1/51
f 64/1/50 66/1/52 65/1/51
f 34/1/20 63/1/49 67/1/53
f 63/1/49 66/1/52 67/1/53
f 64/1/50 56/1/42 68/1/54
f 41/1/27 68/1/54 56/1/42
f 69/1/55 64/1/50 68/1/54
f 68/1/54 41/1/27 70/1/56
f 70/1/56 69/1/55 68/1/54
f 41/1/27 39/1/25 70/1/56
f 36/1/22 70/1/56 39/1/25
f 71/1/57 66/1/52 64/1/50
f 64/1/50 69/1/55 71/1/57
f 71/1/57 72/1/58 66/1/52
f 72/1/58 67/1/53 66/1/52
f 69/1/55 73/1/59 71/1/57
f 72/1/58 71/1/57 73/1/59
f 69/1/55 70/1/56 74/1/60
f 70/1/56 36/1/22 74/1/60
f 73/1/59 69/1/55 75/1/61
f 74/1/60 75/1/61 69/1/55
f 67/1/53 72/1/58 76/1/62
f 34/1/20 67/1/53 76/1/62
f 73/1/59 77/1/63 72/1/58
f 77/1/63 76/1/62 72/1/58
f 75/1/61 78/1/64 73/1/59
f 77/1/63 73/1/59 78/1/64
f 75/1/61 74/1/60 79/1/65
f 36/1/22 79/1/65 74/1/60
f 78/1/64 75/1/61 80/1/66
f 79/1/65 80/1/66 75/1/61
f 81/1/67 78/1/64 80/1/66
f 80/1/66 79/1/65 82/1/68
f 82/1/68 81/1/67 80/1/66
f 79/1/65 36/1/22 83/1/69
f 83/1/69 82/1/68 79/1/65
f 83/1/69 36/1/22 84/1/70
f 36/1/22 35/1/21 84/1/70
f 82/1/68 83/1/69 85/1/71
f 84/1/70 35/1/21 86/1/72
f 35/1/21 34/1/20 86/1/72
f 86/1/72 34/1/20 76/1/62
f 83/1/69 84/1/70 87/1/73
f 85/1/71 83/1/69 87/1/73
f 88/1/74 84/1/70 86/1/72
f 88/1/74 87/1/73 84/1/70
f 89/1/75 86/1/72 76/1/62
f 89/1/75 88/1/74 86/1/72
f 76/1/62 77/1/63 89/1/75
f 90/1/76 87/1/73 88/1/74
f 89/1/75 90/1/76 88/1/74
f 85/1/71 87/1/73 91/1/77
f 87/1/73 90/1/76 91/1/77
f 92/1/78 85/1/71 91/1/77
f 91/1/77 93/1/79 92/1/78
f 94/1/80 85/1/71 92/1/78
f 94/1/80 92/1/78 93/1/79
f 85/1/71 94/1/80 82/1/68
f 93/1/79 91/1/77 95/1/81
f 90/1/76 95/1/81 91/1/77
f 93/1/79 96/1/82 94/1/80
f 95/1/81 90/1/76 97/1/83
f 90/1/76 98/1/84 97/1/83
f 81/1/67 82/1/68 94/1/80
f 96/1/82 81/1/67 94/1/80
f 81/1/67 96/1/82 99/1/85
f 100/1/86 81/1/67 99/1/85
f 98/1/84 90/1/76 101/1/87
f 90/1/76 89/1/75 101/1/87
f 101/1/87 102/1/88 98/1/84
f 77/1/63 101/1/87 89/1/75
f 102/1/88 101/1/87 103/1/89
f 101/1/87 77/1/63 103/1/89
f 102/1/88 104/1/90 100/1/86
f 81/1/67 100/1/86 104/1/90
f 104/1/90 102/1/88 103/1/89
f 77/1/63 104/1/90 103/1/89
f 78/1/64 81/1/67 104/1/90
f 104/1/90 77/1/63 78/1/64
f 241/55/197 242/56/198 243/57/197
f 246/55/197 244/58/199 245/59/200
f 244/58/199 246/55/197 247/57/197
f 249/60/201 248/61/202 250/62/203
f 253/55/204 252/59/205 251/63/206
f 253/55/204 251/63/206 254/64/207
f 254/64/207 255/56/208 253/55/204
f 256/65/209 257/66/209 258/67/209
f 257/66/209 256/65/209 259/68/209
f 260/69/210 261/70/211 262/65/210
f 262/65/210 263/67/210 260/69/210
f 264/61/212 265/71/213 266/72/214
f 267/73/215 268/68/216 269/65/217
f 268/68/216 267/73/215 270/74/217
f 271/70/218 272/75/218 273/73/218
f 271/70/218 273/73/218 274/65/218
f 275/76/219 276/73/220 277/75/220
f 276/73/220 275/76/219 278/77/221
f 279/73/222 280/77/223 281/78/224
f 279/73/222 281/78/224 282/74/222
f 284/68/225 285/66/225 283/79/225
f 286/80/226 287/81/227 288/82/228
f 287/81/227 286/80/226 289/62/226
f 291/83/229 292/80/230 290/82/231
f 293/72/230 292/80/230 291/83/229
f 294/84/232 295/85/233 296/86/233
f 295/85/233 297/87/232 296/86/233
f 299/62/234 298/88/235 300/61/234
f 302/88/236 301/72/237 303/61/237
f 306/69/238 305/70/238 304/79/238
f 307/89/239 308/90/240 309/91/240
f 310/92/241 311/93/242 312/94/242
f 314/95/243 313/96/244 315/97/245
f 316/98/246 314/95/243 315/97/245
f 314/95/243 316/98/246 317/99/247
f 318/100/248 317/99/247 316/98/246
f 317/99/247 318/100/248 319/101/249
f 318/100/248 320/102/250 319/101/249
f 320/102/250 318/100/248 321/103/251
f 322/104/252 323/105/253 324/106/254
f 325/107/255 324/106/254 323/105/253
f 325/107/255 323/105/253 326/108/256
f 327/109/257 325/107/255 326/108/256
f 327/109/257 326/108/256 328/110/258
f 329/111/259 327/109/257 328/110/258
f 327/109/257 329/111/259 330/112/260
f 331/113/261 332/114/261 333/115/261
f 334/116/261 333/115/261 332/114/261
f 335/117/262 336/118/262 337/119/262
f 337/119/262 338/120/262 335/117/262
f 339/121/263 340/122/264 341/123/265
f 340/122/264 339/121/263 342/124/266
f 343/125/267 344/126/268 345/127/269
f 344/126/268 343/125/267 346/128/270
f 347/124/266 348/129/271 349/122/264
f 348/129/271 347/124/266 350/130/272
f 351/125/267 352/131/273 353/128/274
f 352/131/273 354/132/275 353/128/274
f 355/133/276 356/129/277 357/130/278
f 356/129/277 355/133/276 358/134/276
f 359/131/279 360/135/280 361/132/281
f 360/135/280 359/131/279 362/136/280
f 363/122/282 364/137/283 365/138/284
f 364/137/283 363/122/282 366/129/285
f 367/137/286 366/129/287 368/134/288
f 367/137/286 368/134/288 369/139/288
f 370/140/289 371/125/290 372/141/291
f 371/125/290 370/140/289 373/131/292
f 374/140/293 375/136/294 373/131/295
f 375/136/294 374/140/293 376/142/294
f 377/123/296 378/138/284 379/143/297
f 378/138/284 377/123/296 380/122/284
f 379/143/297 381/144/298 377/123/296
f 382/141/290 383/127/299 384/145/300
f 383/127/299 382/141/290 385/125/290
f 386/146/301 384/145/300 383/127/299
f 387/144/302 388/95/303 389/147/302
f 389/147/302 388/95/303 390/148/303
f 391/105/304 392/146/305 393/149/306
f 393/149/306 394/150/307 391/105/304
f 395/99/308 396/148/303 397/95/309
f 396/148/303 395/99/308 398/151/310
f 399/108/311 400/105/307 401/150/307
f 399/108/311 401/150/307 402/152/312
f 403/101/313 404/151/310 405/99/314
f 404/151/310 403/101/313 406/153/315
f 403/101/313 407/154/316 406/153/315
f 407/154/316 403/101/313 408/102/316
f 409/155/317 407/154/316 408/102/316
f 410/156/317 407/154/316 409/155/317
f 410/156/317 411/155/317 412/157/318
f 413/110/319 414/108/320 415/152/321
f 413/110/319 415/152/321 416/158/322
f 417/159/323 413/110/319 416/158/322
f 413/110/319 417/159/323 418/111/324
f 417/159/323 419/160/325 418/111/324
f 419/160/325 417/159/323 420/161/325
f 420/161/326 421/162/327 422/160/325
f 423/55/328 424/64/328 425/56/329
f 426/63/330 428/55/328 427/59/331
f 428/55/328 426/63/330 429/64/328
f 430/61/332 431/71/333 432/72/334
f 435/55/335 433/58/336 434/59/337
f 433/58/336 435/55/335 436/57/338
f 436/57/338 435/55/335 437/56/339
f 438/65/340 439/69/341 440/70/341
f 439/69/341 438/65/340 441/67/341
f 442/66/342 443/65/342 444/68/342
f 443/65/342 442/66/342 445/67/342
f 447/60/343 446/61/344 448/62/345
f 449/73/346 450/70/347 451/75/347
f 450/70/347 449/73/346 452/65/347
f 453/68/348 454/73/349 455/74/349
f 454/73/349 453/68/348 456/65/349
f 457/73/350 458/78/351 459/74/352
f 458/78/351 457/73/350 460/77/353
f 461/75/354 462/76/355 463/73/356
f 464/77/357 463/73/356 462/76/355
f 467/69/358 466/70/358 465/79/358
f 468/83/359 469/80/360 470/82/361
f 469/80/360 468/83/359 471/72/360
f 473/81/362 472/82/363 474/80/364
f 475/62/364 473/81/362 474/80/364
f 476/86/365 477/85/365 478/87/366
f 477/85/365 476/86/365 479/84/366
f 480/88/367 481/72/368 482/61/368
f 484/88/369 485/61/370 483/62/370
f 487/68/371 488/66/371 486/79/371
f 489/108/372 490/163/373 491/164/374
f 490/163/373 489/108/372 492/110/373
f 493/111/375 490/163/373 492/110/373
f 490/163/373 493/111/375 494/112/376
f 495/99/377 496/165/378 497/101/379
f 496/165/378 495/99/377 498/166/380
f 499/102/381 497/101/379 496/165/378
f 496/165/378 500/103/382 499/102/381
f 501/94/383 502/92/383 503/93/383
f 504/90/384 505/91/385 506/89/384
f 507/105/386 508/164/374 509/106/387
f 508/164/374 507/105/386 510/108/388
f 511/104/389 512/105/390 509/106/391
f 513/95/392 514/166/380 515/99/393
f 514/166/380 513/95/392 516/97/394
f 517/96/395 516/97/396 518/95/397
f 519/92/398 520/167/398 521/93/398
f 522/89/399 523/91/399 524/168/399
f 525/119/400 526/117/400 527/118/400
f 526/117/400 525/119/400 528/120/400
f 529/114/401 530/115/402 531/113/401
f 530/115/402 529/114/401 532/116/401
f 533/169/358 534/167/358 535/170/358
f 536/168/225 537/171/225 538/172/225
f 539/169/403 540/173/403 541/174/403
f 540/173/403 539/169/403 542/170/403
f 543/171/404 544/175/404 545/176/404
f 545/176/404 546/172/404 543/171/404
f 547/177/405 548/173/406 549/118/406
f 548/173/406 547/177/405 550/174/405
f 551/178/407 552/176/408 553/175/409
f 552/176/408 551/178/407 554/113/410
f 555/118/411 556/117/412 557/177/413
f 558/179/414 557/177/413 556/117/412
f 559/114/415 560/178/416 561/180/417
f 560/178/416 559/114/415 562/113/418
f 563/126/419 564/125/420 565/128/421
f 564/125/420 563/126/419 566/127/419
f 567/121/422 568/124/423 569/122/424
f 567/121/422 569/122/424 570/123/425
f 571/135/426 572/131/427 573/136/426
f 572/131/427 571/135/426 574/132/428
f 574/132/429 575/128/421 576/131/430
f 575/128/421 577/125/420 576/131/430
f 578/129/431 579/133/432 580/134/432
f 579/133/432 578/129/431 581/130/433
f 582/129/434 583/124/435 581/130/436
f 583/124/435 582/129/434 584/122/424
f 585/136/437 586/140/438 587/142/437
f 586/140/438 585/136/437 588/131/439
f 589/134/440 590/139/440 591/137/441
f 591/137/441 592/129/442 589/134/440
f 593/125/443 594/140/444 595/131/445
f 594/140/444 593/125/443 596/141/443
f 597/137/446 598/122/447 599/129/448
f 598/122/447 597/137/446 600/138/449
f 601/127/450 602/141/451 603/125/443
f 602/141/451 601/127/450 604/145/452
f 605/123/453 606/122/449 607/138/454
f 605/123/453 607/138/454 608/143/455
f 609/127/456 610/146/457 611/145/458
f 612/144/459 613/123/460 614/143/461
f 615/118/462 616/117/463 617/177/462
f 618/179/462 617/177/462 616/117/463
f 619/114/464 620/178/465 621/180/465
f 620/178/465 619/114/464 622/113/465
f 623/177/466 624/173/467 625/118/467
f 624/173/467 623/177/466 626/174/468
f 627/178/469 628/176/470 629/175/471
f 628/176/470 627/178/469 630/113/472
f 631/169/473 632/173/473 633/174/474
f 632/173/473 631/169/473 634/170/473
f 635/171/475 636/175/476 637/176/477
f 637/176/477 638/172/475 635/171/475
f 639/105/478 640/149/479 641/150/478
f 640/149/479 639/105/478 642/146/480
f 641/150/478 643/108/481 639/105/478
f 643/108/481 641/150/478 644/181/482
f 644/181/482 645/110/483 643/108/481
f 645/110/483 644/181/482 646/158/484
f 647/159/485 645/110/483 646/158/484
f 645/110/483 647/159/485 648/111/485
f 647/159/485 649/160/486 648/111/485
f 649/160/486 647/159/485 650/161/487
f 649/160/486 650/161/487 651/162/488
f 652/147/489 653/95/490 654/148/490
f 653/95/490 652/147/489 655/144/489
f 656/99/491 654/148/490 653/95/490
f 654/148/490 656/99/491 657/182/492
f 658/101/493 657/182/492 656/99/491
f 657/182/492 658/101/493 659/153/494
f 660/154/495 659/153/494 658/101/493
f 658/101/493 661/102/496 660/154/495
f 662/155/497 660/154/495 661/102/496
f 660/154/495 662/155/497 663/156/498
f 662/155/497 664/157/499 663/156/498
f 665/169/238 666/167/238 667/170/238
f 668/168/371 669/171/371 670/172/371
f 671/92/500 672/167/500 673/93/500
f 674/89/501 675/91/501 676/168/501
usemtl Meshpart11Mtl
f 105/2/91 106/3/92 107/4/91
f 107/4/91 106/3/92 108/5/92
f 108/5/92 106/3/92 109/6/93
f 109/6/93 110/7/94 108/5/92
f 111/8/95 112/9/96 113/10/97
f 112/9/96 111/8/95 114/11/98
f 116/8/99 117/12/100 115/13/101
f 116/8/99 118/10/102 117/12/100
f 119/14/103 121/15/104 120/16/105
f 120/16/105 121/15/104 122/17/106
f 123/15/107 124/18/108 125/19/109
f 124/18/108 123/15/107 126/14/110
f 128/20/111 127/21/98 129/22/112
f 127/21/98 128/20/111 130/23/113
f 131/24/114 130/23/113 128/20/111
f 128/20/111 132/25/115 131/24/114
f 133/26/116 134/24/117 132/25/118
f 134/24/117 133/26/116 135/27/116
f 139/28/119 136/29/120 138/30/110
f 138/30/110 140/31/119 139/28/119
f 137/32/121 141/33/122 142/34/123
f 141/33/122 137/32/121 143/35/124
f 143/35/124 144/36/125 141/33/122
f 145/37/126 141/33/122 144/36/125
f 146/36/127 147/26/128 145/37/129
f 147/26/128 146/36/127 148/27/128
f 149/35/8 150/28/8 151/23/8
f 152/38/8 151/23/8 150/28/8
f 153/21/8 151/23/8 152/38/8
f 150/28/8 149/35/8 154/29/8
f 149/35/8 155/32/8 154/29/8
f 156/27/8 149/35/8 151/23/8
f 149/35/8 156/27/8 157/36/8
f 156/27/8 151/23/8 158/24/8
f 160/39/130 159/40/131 161/41/132
f 160/39/130 161/41/132 162/42/133
f 163/41/134 164/43/135 162/42/136
f 164/43/135 163/41/134 165/44/137
f 167/45/138 168/41/139 166/40/140
f 168/41/139 167/45/138 169/46/141
f 170/47/142 171/41/143 169/46/144
f 171/41/143 170/47/142 172/44/142
f 173/48/97 174/28/145 175/31/145
f 176/38/146 174/28/145 173/48/97
f 177/2/147 178/3/148 179/4/147
f 179/4/147 178/3/148 180/5/148
f 181/6/149 180/5/148 178/3/148
f 180/5/148 181/6/149 182/7/150
f 183/49/151 185/50/152 184/51/151
f 183/49/151 186/52/152 185/50/152
f 187/52/153 188/53/154 189/54/155
f 187/52/153 189/54/155 190/50/153
f 191/26/156 192/37/157 193/36/158
f 193/36/158 194/27/159 191/26/156
f 195/33/160 196/36/161 192/37/162
f 196/36/161 195/33/160 197/35/163
f 198/32/164 197/35/163 195/33/160
f 198/32/164 195/33/160 199/34/165
f 200/28/166 201/48/167 202/38/168
f 201/48/167 200/28/166 203/31/169
f 205/22/170 206/20/171 204/21/172
f 207/23/173 204/21/172 206/20/171
f 206/20/171 208/24/174 207/23/173
f 208/24/174 206/20/171 209/25/175
f 209/25/176 210/26/177 211/24/178
f 212/27/179 211/24/178 210/26/177
f 213/27/15 214/23/15 215/24/15
f 216/21/15 214/23/15 217/38/15
f 217/38/15 214/23/15 218/28/15
f 213/27/15 219/35/15 214/23/15
f 218/28/15 214/23/15 219/35/15
f 219/35/15 213/27/15 220/36/15
f 219/35/15 221/29/15 218/28/15
f 219/35/15 222/32/15 221/29/15
f 224/45/180 225/41/181 223/40/182
f 225/41/181 224/45/180 226/46/183
f 227/47/184 228/41/185 226/46/186
f 228/41/185 227/47/184 229/44/187
f 231/39/188 230/40/189 232/41/190
f 231/39/188 232/41/190 233/42/191
f 234/41/192 235/43/193 233/42/194
f 235/43/193 234/41/192 236/44/193
f 237/28/195 238/30/102 239/31/196
f 238/30/102 237/28/195 240/29/100
