# Blender 5.1.2
# www.blender.org
mtllib Bat Horn2 1.mtl
o RenderMesh_70528849669897
v 0.413652 0.428221 -0.000000
v 0.438240 0.423352 0.060517
v 0.458425 0.419355 0.039941
v 0.442195 0.422569 -0.000000
v 0.497605 0.411596 0.056485
v 0.458425 0.419355 -0.039941
v 0.497605 0.411596 0.085584
v 0.438240 0.423352 -0.060517
v 0.556968 0.399841 0.060517
v 0.497605 0.411596 -0.056485
v 0.536784 0.403837 0.039941
v 0.497605 0.411596 -0.085584
v 0.581559 0.394971 -0.000000
v 0.556968 0.399841 -0.060517
v 0.553013 0.400624 -0.000000
v 0.536784 0.403837 -0.039941
v 0.438240 0.423352 -0.060517
v 0.497605 0.411596 -0.085584
v 0.491058 0.378536 -0.104352
v 0.556968 0.399841 -0.060517
v 0.418676 0.392870 -0.073788
v 0.563440 0.364203 -0.073788
v 0.388694 0.398807 -0.000000
v 0.593422 0.358266 -0.000000
v 0.413652 0.428221 -0.000000
v 0.581559 0.394971 -0.000000
v 0.438240 0.423352 0.060517
v 0.556968 0.399841 0.060517
v 0.418676 0.392870 0.073788
v 0.563440 0.364203 0.073788
v 0.491058 0.378536 0.104352
v 0.497605 0.411596 0.085584
v 0.536784 0.403837 0.039941
v 0.479985 0.322620 0.056485
v 0.497605 0.411596 0.056485
v 0.440804 0.330378 0.039941
v 0.458425 0.419355 0.039941
v 0.519165 0.314861 0.039941
v 0.553013 0.400624 -0.000000
v 0.424575 0.333592 -0.000000
v 0.442195 0.422569 -0.000000
v 0.535394 0.311647 -0.000000
v 0.458425 0.419355 -0.039941
v 0.519165 0.314861 -0.039941
v 0.536784 0.403837 -0.039941
v 0.440804 0.330378 -0.039941
v 0.497605 0.411596 -0.056485
v 0.479985 0.322620 -0.056485
v -0.584434 -0.319827 0.000000
v -0.553294 -0.265890 0.150363
v -0.532268 -0.225103 0.104528
v -0.553917 -0.262599 0.000000
v -0.480005 -0.134578 0.147825
v -0.478111 -0.135671 0.212646
v -0.402929 -0.005452 0.150363
v -0.532268 -0.225101 -0.104528
v -0.553294 -0.265890 -0.150363
v -0.486593 -0.261262 0.000000
v -0.480005 -0.134578 -0.147825
v -0.478111 -0.135671 -0.212646
v -0.402929 -0.005452 -0.150363
v -0.470043 -0.232597 -0.079907
v -0.427740 -0.044053 -0.104528
v -0.371788 0.048485 -0.000000
v -0.430090 -0.163395 -0.113005
v -0.406091 -0.006557 0.000000
v -0.390138 -0.094194 -0.079907
v -0.373588 -0.065530 0.000000
v -0.427740 -0.044053 0.104528
v -0.380176 -0.192213 -0.147825
v -0.390138 -0.094194 0.079907
v -0.430090 -0.163395 0.113005
v -0.327912 -0.101689 -0.104528
v -0.306265 -0.064193 0.000000
v -0.470045 -0.232597 0.079907
v -0.275746 -0.006964 0.000000
v -0.306888 -0.060902 -0.150363
v -0.382070 -0.191120 -0.212646
v -0.457252 -0.321338 -0.150363
v -0.327912 -0.101689 0.104528
v -0.306888 -0.060902 0.150363
v -0.432441 -0.282737 -0.104528
v -0.488392 -0.375278 0.000000
v -0.454090 -0.320234 0.000000
v -0.432441 -0.282737 0.104528
v -0.457252 -0.321339 0.150363
v -0.380176 -0.192213 0.147825
v -0.382070 -0.191120 0.212646
v -0.516213 -0.312564 0.172245
v -0.584434 -0.319827 0.000000
v -0.551887 -0.374353 0.000000
v -0.516213 -0.312564 -0.172246
v -0.553294 -0.265890 0.150363
v -0.553294 -0.265890 -0.150363
v -0.430090 -0.163395 0.243592
v -0.430090 -0.163395 -0.243592
v -0.478111 -0.135671 0.212646
v -0.478111 -0.135671 -0.212646
v -0.402929 -0.005452 0.150363
v -0.402929 -0.005452 -0.150363
v -0.343968 -0.014226 0.172245
v -0.343968 -0.014226 -0.172245
v -0.371788 0.048485 -0.000000
v -0.308294 0.047561 -0.000000
v 0.288696 -0.261917 0.000000
v 0.269754 -0.226201 0.097599
v 0.249818 -0.195113 0.060793
v 0.261616 -0.217360 0.000000
v 0.221335 -0.141405 0.085974
v 0.224029 -0.139978 0.138026
v 0.178302 -0.053752 0.097599
v 0.249818 -0.195113 -0.060793
v 0.269754 -0.226201 -0.097599
v 0.289527 -0.169181 0.000000
v 0.281777 -0.154564 0.039943
v 0.281777 -0.154564 -0.039943
v 0.221335 -0.141405 -0.085974
v 0.224029 -0.139978 -0.138026
v 0.178302 -0.053752 -0.097599
v 0.192853 -0.087697 -0.060793
v 0.159362 -0.018037 0.000000
v 0.244349 -0.083989 -0.039943
v 0.181056 -0.065450 0.000000
v 0.192853 -0.087697 0.060793
v 0.244349 -0.083989 0.039943
v 0.263062 -0.119276 -0.056488
v 0.236597 -0.069372 0.000000
v 0.263062 -0.119276 0.056488
v 0.304790 -0.097148 0.085974
v 0.276306 -0.043440 0.060793
v 0.264509 -0.021193 0.000000
v 0.237429 0.023363 -0.000000
v 0.276306 -0.043440 -0.060793
v 0.256369 -0.012351 0.097599
v 0.256369 -0.012351 -0.097599
v 0.302097 -0.098576 0.138026
v 0.347823 -0.184800 0.097599
v 0.333271 -0.150856 0.060793
v 0.366763 -0.220516 0.000000
v 0.345070 -0.173102 0.000000
v 0.333271 -0.150856 -0.060793
v 0.347823 -0.184800 -0.097599
v 0.304790 -0.097148 -0.085974
v 0.302097 -0.098576 -0.138026
v 0.316755 -0.220523 0.114604
v 0.338996 -0.262462 0.000000
v 0.366763 -0.220516 0.000000
v 0.316755 -0.220523 -0.114604
v 0.347823 -0.184800 0.097599
v 0.347823 -0.184800 -0.097599
v 0.263062 -0.119276 0.162074
v 0.263062 -0.119276 -0.162074
v 0.302097 -0.098576 0.138026
v 0.302097 -0.098576 -0.138026
v 0.256369 -0.012351 0.097599
v 0.256369 -0.012351 -0.097599
v 0.209369 -0.018029 0.114604
v 0.209369 -0.018029 -0.114604
v 0.237429 0.023363 -0.000000
v 0.187129 0.023909 -0.000000
v -0.006409 -0.352534 0.128516
v 0.002834 -0.404958 0.000000
v 0.060433 -0.424587 0.000000
v 0.049697 -0.363702 0.149257
v 0.023779 -0.216711 0.211082
v -0.006409 -0.352532 -0.128516
v 0.049697 -0.363702 -0.149257
v -0.017049 -0.309457 0.084246
v -0.010990 -0.343822 0.000000
v -0.017049 -0.309457 -0.084247
v -0.031678 -0.226490 0.119142
v -0.031678 -0.226490 -0.119142
v 0.023779 -0.216711 -0.211082
v -0.028726 -0.225969 -0.181749
v -0.051042 -0.099406 -0.128516
v -0.002140 -0.069721 -0.149257
v -0.046308 -0.143524 -0.084246
v -0.012875 -0.008836 0.000000
v -0.060286 -0.046981 0.000000
v -0.052367 -0.109157 0.000000
v -0.046308 -0.143524 0.084246
v -0.051042 -0.099406 0.128516
v -0.002140 -0.069721 0.149257
v -0.028726 -0.225969 0.181749
v 0.060433 -0.424587 0.000000
v 0.098599 -0.334018 0.128516
v 0.049697 -0.363702 0.149257
v 0.023779 -0.216711 0.211082
v 0.107844 -0.386442 0.000000
v 0.076283 -0.207453 0.181749
v 0.098599 -0.334018 -0.128516
v 0.053967 -0.080890 0.128516
v 0.049697 -0.363702 -0.149257
v -0.002140 -0.069721 0.149257
v 0.023779 -0.216711 -0.211082
v -0.012875 -0.008836 0.000000
v 0.076283 -0.207453 -0.181749
v 0.044723 -0.028465 0.000000
v 0.053967 -0.080890 -0.128516
v -0.002140 -0.069721 -0.149257
v 0.038448 -0.299903 0.000000
v -0.010990 -0.343822 0.000000
v 0.034150 -0.275537 0.059733
v -0.017049 -0.309457 0.084246
v -0.031678 -0.226490 0.119142
v 0.034150 -0.275537 -0.059733
v -0.017049 -0.309457 -0.084247
v -0.031678 -0.226490 -0.119142
v 0.099925 -0.324265 0.000000
v 0.023779 -0.216711 -0.084475
v 0.023779 -0.216711 0.084475
v 0.013406 -0.157886 -0.059733
v -0.046308 -0.143524 -0.084246
v 0.079235 -0.206933 -0.119142
v -0.052367 -0.109157 0.000000
v 0.013406 -0.157886 0.059733
v -0.046308 -0.143524 0.084246
v 0.009110 -0.133521 0.000000
v 0.058547 -0.089600 0.000000
v 0.064607 -0.123966 -0.084246
v 0.044723 -0.028465 0.000000
v 0.053967 -0.080890 -0.128516
v 0.076283 -0.207453 -0.181749
v 0.098599 -0.334018 -0.128516
v 0.064607 -0.123966 0.084246
v 0.053967 -0.080890 0.128516
v 0.093865 -0.289900 -0.084247
v 0.107844 -0.386442 0.000000
v 0.079235 -0.206933 0.119142
v 0.076283 -0.207453 0.181749
v 0.098599 -0.334018 0.128516
v 0.093865 -0.289900 0.084246
v 0.316755 -0.220523 0.114604
v 0.288696 -0.261917 0.000000
v 0.338996 -0.262462 0.000000
v 0.316755 -0.220523 -0.114604
v 0.269754 -0.226201 0.097599
v 0.269754 -0.226201 -0.097599
v 0.263062 -0.119276 0.162074
v 0.263062 -0.119276 -0.162074
v 0.224029 -0.139978 0.138026
v 0.224029 -0.139978 -0.138026
v 0.178302 -0.053752 0.097599
v 0.178302 -0.053752 -0.097599
v 0.209369 -0.018029 0.114604
v 0.209369 -0.018029 -0.114604
v 0.159362 -0.018037 0.000000
v 0.187129 0.023909 -0.000000
v 0.455009 0.102904 -0.042963
v 0.497377 0.090371 -0.000000
v 0.471975 0.097707 -0.000000
v 0.455009 0.102904 0.042963
v 0.473022 0.097832 -0.061678
v 0.473022 0.097832 0.061678
v 0.414051 0.115452 -0.060759
v 0.414051 0.115452 0.060759
v 0.414222 0.115847 -0.087226
v 0.414222 0.115847 0.087226
v 0.355422 0.133861 -0.061678
v 0.355422 0.133861 0.061678
v 0.373094 0.128000 -0.042963
v 0.373094 0.128000 0.042963
v 0.331067 0.141322 -0.000000
v 0.356129 0.133197 -0.000000
v 0.414222 0.115847 0.087226
v 0.422366 0.261096 0.044571
v 0.355422 0.133861 0.061678
v 0.331067 0.141322 -0.000000
v 0.466087 0.252438 0.063033
v 0.473022 0.097832 0.061678
v 0.404255 0.264682 -0.000000
v 0.491058 0.378536 0.104352
v 0.418676 0.392870 0.073788
v 0.388694 0.398807 -0.000000
v 0.509810 0.243780 0.044571
v 0.563440 0.364203 0.073788
v 0.593422 0.358266 -0.000000
v 0.422366 0.261096 -0.044571
v 0.418676 0.392870 -0.073788
v 0.355422 0.133861 -0.061678
v 0.491058 0.378536 -0.104352
v 0.414222 0.115847 -0.087226
v 0.466087 0.252438 -0.063033
v 0.473022 0.097832 -0.061678
v 0.509810 0.243780 -0.044571
v 0.563440 0.364203 -0.073788
v 0.527921 0.240194 -0.000000
v 0.497377 0.090371 -0.000000
v -0.516213 -0.312564 0.172245
v -0.551887 -0.374353 0.000000
v -0.488392 -0.375278 0.000000
v -0.516213 -0.312564 -0.172246
v -0.457252 -0.321339 0.150363
v -0.457252 -0.321338 -0.150363
v -0.430090 -0.163395 0.243592
v -0.430090 -0.163395 -0.243592
v -0.382070 -0.191120 0.212646
v -0.382070 -0.191120 -0.212646
v -0.306888 -0.060902 0.150363
v -0.306888 -0.060902 -0.150363
v -0.343968 -0.014226 0.172245
v -0.343968 -0.014226 -0.172245
v -0.275746 -0.006964 0.000000
v -0.308294 0.047561 -0.000000
v 0.499665 0.418418 0.007480
v 0.502356 0.429063 -0.011724
v 0.473636 0.465276 0.007480
v 0.483979 0.462107 -0.011724
v 0.502356 0.429063 -0.011724
v 0.473636 0.465276 -0.030923
v 0.483979 0.462107 -0.011724
v 0.499665 0.418418 -0.030923
v 0.560068 0.657348 -0.011724
v 0.595379 0.511105 -0.011724
v 0.554809 0.636548 -0.030923
v 0.580633 0.514833 -0.030923
v 0.595379 0.511105 -0.011724
v 0.554809 0.636548 0.007480
v 0.580633 0.514833 0.007480
v 0.560068 0.657348 -0.011724
v 0.514464 0.534954 -0.011724
v 0.518875 0.518532 -0.011724
v 0.496990 0.541069 -0.030923
v 0.507114 0.503323 -0.030923
v 0.518875 0.518532 -0.011724
v 0.496990 0.541069 0.007480
v 0.507114 0.503323 0.007480
v 0.514464 0.534954 -0.011724
v 0.560793 0.475588 -0.011724
v 0.580633 0.514833 -0.030923
v 0.595379 0.511105 -0.011724
v 0.545669 0.477126 -0.030923
v 0.580633 0.514833 0.007480
v 0.545669 0.477126 0.007480
v 0.560793 0.475588 -0.011724
v 0.595379 0.511105 -0.011724
v 0.564608 0.397464 -0.011724
v 0.629636 0.446271 0.007480
v 0.655357 0.455630 -0.011724
v 0.564608 0.397464 -0.011724
v 0.629636 0.446271 -0.030923
v 0.655357 0.455630 -0.011724
v 0.567979 0.411919 0.007480
v 0.556407 0.429597 0.007480
v 0.552694 0.414640 -0.011724
v 0.490226 0.381081 -0.011724
v 0.494004 0.396023 0.007480
v 0.564608 0.397464 -0.011724
v 0.629636 0.446271 0.007480
v 0.564608 0.397464 -0.011724
v 0.629636 0.446271 -0.030923
v 0.567979 0.411919 -0.030923
v 0.552694 0.414640 -0.011724
v 0.556407 0.429597 -0.030923
v 0.490226 0.381081 -0.011724
v 0.494004 0.396023 -0.030923
v 0.451217 0.440294 -0.011724
v 0.490226 0.381081 -0.011724
v 0.455053 0.455220 0.007480
v 0.494004 0.396023 0.007480
v 0.436470 0.445165 0.007480
v 0.432572 0.430843 -0.011724
v 0.398551 0.504690 0.007480
v 0.432572 0.430843 -0.011724
v 0.398551 0.504690 -0.030923
v 0.436470 0.445165 -0.030923
v 0.451217 0.440294 -0.011724
v 0.455053 0.455220 -0.030923
v 0.490226 0.381081 -0.011724
v 0.494004 0.396023 -0.030923
v 0.483979 0.462107 -0.011724
v 0.517325 0.488275 0.007480
v 0.473636 0.465276 0.007480
v 0.514626 0.477598 -0.011724
v 0.514626 0.477598 -0.011724
v 0.483979 0.462107 -0.011724
v 0.517325 0.488275 -0.030923
v 0.473636 0.465276 -0.030923
v 0.534235 0.449403 -0.011724
v 0.514626 0.477598 -0.011724
v 0.517325 0.488275 -0.030923
v 0.544835 0.447277 -0.030923
v 0.517325 0.488275 0.007480
v 0.534235 0.449403 -0.011724
v 0.544835 0.447277 0.007480
v 0.514626 0.477598 -0.011724
v 0.436470 0.445165 -0.030923
v 0.444505 0.466960 -0.030923
v 0.455053 0.455220 -0.030923
v 0.398551 0.504690 -0.030923
v 0.473636 0.465276 -0.030923
v 0.499665 0.418418 -0.030923
v 0.494004 0.396023 -0.030923
v 0.487094 0.491934 -0.030923
v 0.556407 0.429597 -0.030923
v 0.517325 0.488275 -0.030923
v 0.544835 0.447277 -0.030923
v 0.507114 0.503323 -0.030923
v 0.523118 0.511191 -0.030923
v 0.496990 0.541069 -0.030923
v 0.474245 0.541729 -0.030923
v 0.545905 0.601327 -0.030923
v 0.554809 0.636548 -0.030923
v 0.580633 0.514833 -0.030923
v 0.560312 0.525061 -0.030923
v 0.545669 0.477126 -0.030923
v 0.533466 0.496662 -0.030923
v 0.517325 0.488275 -0.030923
v 0.571272 0.434913 -0.030923
v 0.567979 0.411919 -0.030923
v 0.629636 0.446271 -0.030923
v 0.533466 0.496662 -0.030923
v 0.517325 0.488275 -0.030923
v 0.523118 0.511191 -0.030923
v 0.496990 0.541069 -0.030923
v 0.545905 0.601327 -0.030923
v 0.535660 0.560800 -0.011724
v 0.514464 0.534954 -0.011724
v 0.560312 0.525061 -0.030923
v 0.535660 0.560800 -0.011724
v 0.545905 0.601327 -0.030923
v 0.542032 0.527985 -0.011724
v 0.544835 0.447277 0.007480
v 0.502356 0.429063 -0.011724
v 0.499665 0.418418 0.007480
v 0.534235 0.449403 -0.011724
v 0.534235 0.449403 -0.011724
v 0.544835 0.447277 -0.030923
v 0.502356 0.429063 -0.011724
v 0.499665 0.418418 -0.030923
v 0.554809 0.636548 0.007480
v 0.459498 0.545456 -0.011724
v 0.474245 0.541729 0.007480
v 0.560068 0.657348 -0.011724
v 0.459498 0.545456 -0.011724
v 0.554809 0.636548 -0.030923
v 0.474245 0.541729 -0.030923
v 0.560068 0.657348 -0.011724
v 0.560312 0.525061 0.007480
v 0.530347 0.515632 -0.011724
v 0.533466 0.496662 0.007480
v 0.542032 0.527985 -0.011724
v 0.530347 0.515632 -0.011724
v 0.542032 0.527985 -0.011724
v 0.560312 0.525061 -0.030923
v 0.533466 0.496662 -0.030923
v 0.474245 0.541729 0.007480
v 0.473056 0.497769 -0.011724
v 0.487094 0.491934 0.007480
v 0.459498 0.545456 -0.011724
v 0.473056 0.497769 -0.011724
v 0.474245 0.541729 -0.030923
v 0.487094 0.491934 -0.030923
v 0.459498 0.545456 -0.011724
v 0.432572 0.430843 -0.011724
v 0.398551 0.504690 0.007480
v 0.380368 0.525149 -0.011724
v 0.432572 0.430843 -0.011724
v 0.398551 0.504690 -0.030923
v 0.380368 0.525149 -0.011724
v 0.444505 0.466960 -0.030923
v 0.398551 0.504690 -0.030923
v 0.445551 0.482004 -0.011724
v 0.380368 0.525149 -0.011724
v 0.629636 0.446271 -0.030923
v 0.577496 0.448648 -0.011724
v 0.655357 0.455630 -0.011724
v 0.571272 0.434913 -0.030923
v 0.445551 0.482004 -0.011724
v 0.398551 0.504690 0.007480
v 0.444505 0.466960 0.007480
v 0.380368 0.525149 -0.011724
v 0.655357 0.455630 -0.011724
v 0.577496 0.448648 -0.011724
v 0.629636 0.446271 0.007480
v 0.571272 0.434913 0.007480
v 0.523118 0.511191 0.007480
v 0.518875 0.518532 -0.011724
v 0.507114 0.503323 0.007480
v 0.525818 0.521868 -0.011724
v 0.523118 0.511191 0.007480
v 0.530347 0.515632 -0.011724
v 0.525818 0.521868 -0.011724
v 0.533466 0.496662 0.007480
v 0.530347 0.515632 -0.011724
v 0.523118 0.511191 -0.030923
v 0.525818 0.521868 -0.011724
v 0.533466 0.496662 -0.030923
v 0.525818 0.521868 -0.011724
v 0.523118 0.511191 -0.030923
v 0.518875 0.518532 -0.011724
v 0.507114 0.503323 -0.030923
v 0.444505 0.466960 0.007480
v 0.487094 0.491934 0.007480
v 0.473056 0.497769 -0.011724
v 0.445551 0.482004 -0.011724
v 0.571272 0.434913 -0.030923
v 0.560793 0.475588 -0.011724
v 0.577496 0.448648 -0.011724
v 0.545669 0.477126 -0.030923
v 0.545669 0.477126 0.007480
v 0.571272 0.434913 0.007480
v 0.560793 0.475588 -0.011724
v 0.577496 0.448648 -0.011724
v 0.473056 0.497769 -0.011724
v 0.444505 0.466960 -0.030923
v 0.445551 0.482004 -0.011724
v 0.487094 0.491934 -0.030923
v 0.487094 0.491934 0.007480
v 0.517325 0.488275 0.007480
v 0.507114 0.503323 0.007480
v 0.523118 0.511191 0.007480
v 0.496990 0.541069 0.007480
v 0.473636 0.465276 0.007480
v 0.474245 0.541729 0.007480
v 0.545905 0.601327 0.007480
v 0.444505 0.466960 0.007480
v 0.554809 0.636548 0.007480
v 0.580633 0.514833 0.007480
v 0.560312 0.525061 0.007480
v 0.545669 0.477126 0.007480
v 0.533466 0.496662 0.007480
v 0.517325 0.488275 0.007480
v 0.544835 0.447277 0.007480
v 0.571272 0.434913 0.007480
v 0.556407 0.429597 0.007480
v 0.567979 0.411919 0.007480
v 0.629636 0.446271 0.007480
v 0.499665 0.418418 0.007480
v 0.494004 0.396023 0.007480
v 0.455053 0.455220 0.007480
v 0.436470 0.445165 0.007480
v 0.398551 0.504690 0.007480
v 0.517325 0.488275 0.007480
v 0.533466 0.496662 0.007480
v 0.523118 0.511191 0.007480
v 0.560312 0.525061 0.007480
v 0.545905 0.601327 0.007480
v 0.535660 0.560800 -0.011724
v 0.542032 0.527985 -0.011724
v 0.496990 0.541069 0.007480
v 0.535660 0.560800 -0.011724
v 0.545905 0.601327 0.007480
v 0.514464 0.534954 -0.011724
v -0.657476 -0.369576 0.836818
v -0.637519 -0.549959 0.836223
v -0.637519 -0.369576 0.836818
v -0.657476 -0.549959 0.836223
v -0.657476 0.337204 -0.436166
v -0.637519 0.337204 -0.436166
v -0.637519 0.093588 -0.296486
v -0.657476 0.093588 -0.296486
v -0.657476 -0.213257 0.817717
v -0.637519 -0.369576 0.836818
v -0.637519 -0.213257 0.817717
v -0.657476 -0.369576 0.836818
v -0.657476 -0.042182 0.746687
v -0.637519 -0.042182 0.746687
v -0.657476 0.175436 0.612382
v -0.637519 0.175436 0.612382
v -0.637519 -0.189078 -0.425081
v -0.657476 -0.189078 -0.425081
v -0.637519 -0.269111 -0.480581
v -0.657476 -0.269111 -0.480581
v -0.657476 -0.135156 -0.213273
v -0.637519 -0.135156 -0.213273
v -0.657476 -0.010511 -0.157066
v -0.637519 -0.010511 -0.157066
v -0.637519 -0.549958 -0.831908
v -0.637519 -0.349028 -0.761477
v -0.657476 -0.349028 -0.761477
v -0.657476 -0.549958 -0.831908
v -0.657476 -0.270926 -0.709537
v -0.637519 -0.270926 -0.709537
v -0.657476 0.175436 -0.608078
v -0.637519 0.175436 -0.608078
v -0.657476 0.337204 -0.436166
v -0.637519 0.337204 -0.436166
v -0.637519 0.093588 -0.296486
v -0.657476 0.093588 -0.296486
v -0.637519 0.007995 -0.198003
v -0.657476 0.007995 -0.198003
v -0.637519 -0.010511 -0.157066
v -0.657476 -0.010511 -0.157066
v -0.657476 0.175436 0.612382
v -0.637519 0.175436 0.612382
v -0.657476 0.337204 0.440470
v -0.637519 0.337204 0.440470
v -0.637519 0.093588 0.300790
v -0.657476 0.093588 0.300790
v -0.637519 0.007995 0.202307
v -0.657476 0.007995 0.202307
v -0.637519 -0.010511 0.161370
v -0.657476 -0.010511 0.161370
v -0.657476 -0.189078 -0.425081
v -0.657476 -0.241182 -0.553155
v -0.657476 -0.269111 -0.480581
v -0.657476 0.175436 -0.608078
v -0.657476 -0.239367 -0.635531
v -0.657476 0.337204 -0.436166
v -0.657476 -0.042182 -0.742375
v -0.657476 0.093588 -0.296486
v -0.657476 -0.270926 -0.709537
v -0.657476 -0.146282 -0.338948
v -0.657476 -0.213257 -0.813406
v -0.657476 -0.135156 -0.213273
v -0.657476 0.007995 -0.198003
v -0.657476 -0.010511 -0.157066
v -0.657476 -0.349028 -0.761477
v -0.657476 -0.369576 -0.832507
v -0.657476 -0.549958 -0.831908
v -0.657476 -0.239367 0.639834
v -0.657476 0.175436 0.612382
v -0.657476 -0.241182 0.557459
v -0.657476 -0.042182 0.746687
v -0.657476 -0.270926 0.713859
v -0.657476 -0.213257 0.817717
v -0.657476 -0.349028 0.765788
v -0.657476 -0.369576 0.836818
v -0.657476 -0.549959 0.836223
v -0.657476 -0.189078 0.429385
v -0.657476 -0.269111 0.484903
v -0.657476 0.337204 0.440470
v -0.657476 0.093588 0.300790
v -0.657476 -0.146282 0.343270
v -0.657476 -0.135156 0.217577
v -0.657476 0.007995 0.202307
v -0.657476 -0.010511 0.161370
v -0.657476 -0.369576 -0.832507
v -0.637519 -0.549958 -0.831908
v -0.657476 -0.549958 -0.831908
v -0.637519 -0.369576 -0.832507
v -0.657476 -0.213257 -0.813406
v -0.637519 -0.369576 -0.832507
v -0.657476 -0.369576 -0.832507
v -0.637519 -0.213257 -0.813406
v -0.657476 -0.042182 -0.742375
v -0.637519 -0.042182 -0.742375
v -0.657476 0.175436 -0.608078
v -0.637519 0.175436 -0.608078
v -0.657476 0.337204 0.440470
v -0.637519 0.337204 0.440470
v -0.637519 0.093588 0.300790
v -0.657476 0.093588 0.300790
v -0.637519 -0.189078 0.429385
v -0.637519 -0.269111 0.484903
v -0.657476 -0.189078 0.429385
v -0.657476 -0.269111 0.484903
v -0.657476 -0.135156 0.217577
v -0.637519 -0.135156 0.217577
v -0.657476 -0.010511 0.161370
v -0.637519 -0.010511 0.161370
v -0.637519 -0.349028 0.765788
v -0.637519 -0.549959 0.836223
v -0.657476 -0.349028 0.765788
v -0.657476 -0.549959 0.836223
v -0.657476 -0.270926 0.713859
v -0.637519 -0.270926 0.713859
v -0.657476 -0.269111 -0.480581
v -0.657476 -0.241182 -0.553155
v -0.637519 -0.269111 -0.480581
v -0.637519 -0.241182 -0.553155
v -0.637519 -0.189078 -0.425081
v -0.657476 -0.189078 -0.425081
v -0.657476 -0.146282 -0.338948
v -0.637519 -0.146282 -0.338948
v -0.657476 -0.135156 -0.213273
v -0.637519 -0.135156 -0.213273
v -0.637519 -0.189078 0.429385
v -0.657476 -0.189078 0.429385
v -0.657476 -0.146282 0.343270
v -0.637519 -0.146282 0.343270
v -0.657476 -0.135156 0.217577
v -0.637519 -0.135156 0.217577
v -0.657476 -0.270926 0.713859
v -0.637519 -0.270926 0.713859
v -0.657476 -0.239367 0.639834
v -0.637519 -0.239367 0.639834
v -0.657476 -0.241182 0.557459
v -0.637519 -0.241182 0.557459
v -0.637519 -0.269111 0.484903
v -0.657476 -0.269111 0.484903
v -0.657476 -0.270926 -0.709537
v -0.637519 -0.270926 -0.709537
v -0.657476 -0.239367 -0.635531
v -0.637519 -0.239367 -0.635531
v -0.657476 -0.241182 -0.553155
v -0.637519 -0.241182 -0.553155
v -0.637519 -0.239367 -0.635531
v -0.637519 0.175436 -0.608078
v -0.637519 -0.241182 -0.553155
v -0.637519 -0.042182 -0.742375
v -0.637519 -0.270926 -0.709537
v -0.637519 -0.213257 -0.813406
v -0.637519 -0.349028 -0.761477
v -0.637519 -0.369576 -0.832507
v -0.637519 -0.549958 -0.831908
v -0.637519 -0.189078 -0.425081
v -0.637519 -0.269111 -0.480581
v -0.637519 0.337204 -0.436166
v -0.637519 0.093588 -0.296486
v -0.637519 -0.146282 -0.338948
v -0.637519 -0.135156 -0.213273
v -0.637519 0.007995 -0.198003
v -0.637519 -0.010511 -0.157066
v -0.637519 -0.349028 0.765788
v -0.637519 -0.213257 0.817717
v -0.637519 -0.369576 0.836818
v -0.637519 -0.549959 0.836223
v -0.637519 -0.270926 0.713859
v -0.637519 -0.042182 0.746687
v -0.637519 -0.239367 0.639834
v -0.637519 0.175436 0.612382
v -0.637519 -0.241182 0.557459
v -0.637519 -0.189078 0.429385
v -0.637519 -0.269111 0.484903
v -0.637519 0.337204 0.440470
v -0.637519 0.093588 0.300790
v -0.637519 -0.146282 0.343270
v -0.637519 -0.135156 0.217577
v -0.637519 0.007995 0.202307
v -0.637519 -0.010511 0.161370
vn 0.1947 0.9809 0.0004
vn 0.1948 0.9808 0.0005
vn 0.1948 0.9809 0.0004
vn 0.1946 0.9809 0.0003
vn -0.5115 0.5973 -0.6178
vn 0.0940 0.4772 -0.8737
vn 0.7005 0.3573 -0.6178
vn -0.7624 0.6471 0.0005
vn 0.9516 0.3072 0.0005
vn 0.9516 0.3073 0.0004
vn -0.5115 0.5973 0.6178
vn 0.7005 0.3573 0.6178
vn 0.0942 0.4772 0.8737
vn 0.0940 0.4772 0.8737
vn -0.6936 0.1374 -0.7071
vn 0.1224 0.6182 -0.7764
vn 0.0003 -0.0004 -1.0000
vn 0.6610 0.5116 -0.5490
vn 0.6939 -0.1373 -0.7069
vn -0.4161 0.7249 -0.5490
vn -0.9810 0.1941 0.0003
vn 0.8838 0.4678 0.0006
vn 0.9810 -0.1939 0.0005
vn -0.6393 0.7690 0.0006
vn 0.6939 -0.1373 0.7069
vn -0.4161 0.7249 0.5490
vn -0.6936 0.1374 0.7071
vn 0.6610 0.5116 0.5490
vn 0.0003 -0.0004 1.0000
vn 0.1224 0.6182 0.7764
vn -0.8823 0.4707 0.0005
vn -0.8774 0.4791 0.0238
vn -0.6753 0.6902 -0.2601
vn -0.6214 0.7835 0.0005
vn -0.8053 0.4650 -0.3678
vn -0.8654 0.5000 0.0337
vn -0.8536 0.5204 0.0238
vn -0.6750 0.6904 0.2604
vn -0.8774 0.4791 -0.0238
vn 0.4995 0.8663 0.0006
vn -0.8056 0.4645 0.3678
vn -0.8654 0.5000 -0.0337
vn -0.8536 0.5204 -0.0238
vn 0.3539 0.6123 0.7070
vn -0.9354 0.2397 0.2601
vn -0.8486 0.5290 0.0003
vn -0.9893 0.1461 0.0005
vn -0.3536 -0.6124 0.7071
vn -0.4999 -0.8661 0.0005
vn -0.9354 0.2397 -0.2601
vn 0.8055 -0.4645 0.3679
vn -0.3536 -0.6124 -0.7071
vn 0.6753 -0.6902 0.2601
vn 0.6218 -0.7832 0.0005
vn 0.3539 0.6123 -0.7070
vn 0.8825 -0.4703 0.0005
vn 0.8774 -0.4791 -0.0238
vn 0.8655 -0.4997 -0.0337
vn 0.8536 -0.5204 -0.0238
vn 0.6753 -0.6902 -0.2601
vn 0.8774 -0.4791 0.0238
vn 0.9354 -0.2397 0.2601
vn 0.8485 -0.5292 0.0006
vn 0.9893 -0.1461 0.0005
vn 0.9353 -0.2398 -0.2604
vn 0.8536 -0.5204 0.0238
vn 0.8056 -0.4644 -0.3679
vn 0.8655 -0.4997 0.0337
vn -0.7308 -0.2911 0.6175
vn -0.8587 -0.5125 0.0006
vn -0.8587 -0.5125 0.0005
vn -0.7308 -0.2911 -0.6175
vn -0.4218 0.2441 0.8732
vn -0.4220 0.2437 -0.8732
vn -0.4219 0.2439 0.8732
vn -0.4218 0.2441 -0.8732
vn -0.1133 0.7784 0.6175
vn -0.1130 0.7787 -0.6172
vn 0.0149 0.9999 0.0005
vn -0.8546 -0.5194 -0.0000
vn -0.8623 -0.5047 0.0416
vn -0.9435 -0.2222 -0.2457
vn -0.9912 -0.1323 0.0003
vn -0.8284 -0.4393 -0.3475
vn -0.8821 -0.4675 0.0582
vn -0.9013 -0.4312 0.0413
vn -0.9435 -0.2222 0.2457
vn -0.8624 -0.5046 -0.0415
vn -0.4685 0.8835 0.0007
vn -0.3309 0.6250 -0.7070
vn -0.3313 0.6247 0.7071
vn -0.8284 -0.4393 0.3475
vn -0.8821 -0.4675 -0.0582
vn -0.9013 -0.4312 -0.0413
vn -0.7133 -0.6564 0.2457
vn -0.9095 -0.4158 0.0004
vn 0.3313 -0.6247 0.7071
vn -0.6660 -0.7460 0.0004
vn -0.7133 -0.6564 -0.2457
vn 0.3313 -0.6247 -0.7071
vn 0.4684 -0.8835 0.0003
vn 0.8287 0.4391 -0.3472
vn 0.9435 0.2222 -0.2457
vn 0.9912 0.1325 0.0005
vn 0.8545 0.5195 0.0005
vn 0.9435 0.2222 0.2457
vn 0.8628 0.5038 0.0415
vn 0.8628 0.5038 -0.0415
vn 0.8819 0.4677 0.0585
vn 0.9012 0.4314 0.0415
vn 0.7133 0.6564 -0.2457
vn 0.9094 0.4160 0.0003
vn 0.6656 0.7463 -0.0000
vn 0.7136 0.6561 0.2457
vn 0.9012 0.4314 -0.0415
vn 0.8287 0.4391 0.3472
vn 0.8819 0.4677 -0.0585
vn 0.7133 -0.3247 0.6211
vn 0.8336 -0.5524 0.0005
vn 0.8337 -0.5523 0.0004
vn 0.7133 -0.3247 -0.6211
vn 0.4225 0.2243 0.8782
vn 0.4223 0.2240 -0.8783
vn 0.4225 0.2244 0.8781
vn 0.4225 0.2244 -0.8781
vn 0.1314 0.7727 0.6211
vn 0.1314 0.7727 -0.6211
vn 0.0110 0.9999 0.0003
vn -0.7090 -0.5601 0.4285
vn -0.6779 -0.7351 0.0003
vn -0.3231 -0.9464 0.0004
vn -0.3667 -0.6938 0.6198
vn -0.4747 -0.0834 0.8762
vn -0.7090 -0.5601 -0.4285
vn -0.3667 -0.6938 -0.6198
vn -0.9778 -0.2068 0.0338
vn -0.9755 -0.2202 0.0005
vn -0.9778 -0.2068 -0.0338
vn -0.9837 -0.1734 0.0474
vn -0.9837 -0.1734 -0.0478
vn -0.4747 -0.0834 -0.8762
vn -0.7834 -0.1381 -0.6060
vn -0.8578 0.2838 -0.4285
vn -0.5821 0.5262 -0.6199
vn -0.9896 -0.1401 -0.0338
vn -0.6269 0.7791 0.0005
vn -0.8886 0.4586 -0.0000
vn -0.9920 -0.1264 0.0003
vn -0.9896 -0.1401 0.0338
vn -0.8578 0.2838 0.4285
vn -0.5821 0.5262 0.6199
vn -0.7832 -0.1382 0.6063
vn 0.6267 -0.7793 0.0005
vn 0.5825 -0.5260 0.6197
vn 0.4752 0.0836 0.8759
vn 0.5825 -0.5260 -0.6197
vn 0.3667 0.6940 0.6197
vn 0.3666 0.6940 0.6197
vn 0.4752 0.0836 -0.8759
vn 0.3228 0.9465 0.0006
vn 0.3228 0.9465 0.0005
vn 0.3667 0.6940 -0.6197
vn 0.3666 0.6940 -0.6197
vn -0.1737 0.9848 0.0005
vn -0.6640 0.7478 0.0004
vn -0.1228 0.6964 -0.7071
vn -0.6209 0.5020 -0.6021
vn -0.5166 -0.0914 -0.8514
vn -0.1228 0.6964 0.7071
vn -0.6209 0.5020 0.6021
vn -0.5165 -0.0913 0.8514
vn 0.8581 0.5135 0.0005
vn 0.1223 -0.6964 0.7072
vn -0.4117 -0.6840 0.6022
vn 0.9202 0.1626 0.3560
vn -0.3681 -0.9298 0.0006
vn 0.1225 -0.6964 -0.7072
vn -0.4117 -0.6840 -0.6022
vn 0.1731 -0.9849 0.0005
vn 0.9820 -0.1889 0.0005
vn 0.9640 -0.0854 0.2516
vn 0.9754 0.2204 0.0005
vn 0.9778 0.2068 -0.0338
vn 0.9837 0.1734 -0.0478
vn 0.9895 0.1403 -0.0335
vn 0.9640 -0.0854 -0.2516
vn 0.9778 0.2068 0.0338
vn 0.8767 0.4099 0.2516
vn 0.9920 0.1266 0.0004
vn 0.9202 0.1627 -0.3559
vn 0.9837 0.1734 0.0478
vn 0.9896 0.1401 0.0338
vn 0.8767 0.4100 -0.2516
vn -0.1314 -0.7727 0.6211
vn -0.0104 -0.9999 0.0005
vn -0.0104 -0.9999 0.0006
vn -0.1317 -0.7726 -0.6211
vn -0.1314 -0.7727 -0.6211
vn -0.4227 -0.2242 0.8781
vn -0.4227 -0.2242 -0.8781
vn -0.7133 0.3247 0.6211
vn -0.7133 0.3247 -0.6211
vn -0.8340 0.5518 0.0002
vn -0.8340 0.5517 0.0004
vn -0.2822 -0.9593 -0.0112
vn -0.2772 -0.9608 0.0004
vn -0.2772 -0.9608 0.0005
vn -0.2822 -0.9593 0.0112
vn -0.2820 -0.9594 -0.0114
vn -0.2820 -0.9594 0.0114
vn -0.2929 -0.9560 -0.0162
vn -0.2929 -0.9560 0.0162
vn -0.3034 -0.9528 -0.0112
vn -0.3034 -0.9528 0.0112
vn -0.3039 -0.9526 -0.0114
vn -0.3036 -0.9527 0.0113
vn -0.3085 -0.9512 0.0003
vn -0.3085 -0.9512 0.0005
vn 0.0286 0.1646 0.9859
vn -0.6824 0.1197 0.7212
vn -0.6086 0.4110 0.6788
vn -0.8611 0.5085 0.0005
vn 0.0091 -0.0845 0.9964
vn 0.6972 -0.0913 0.7110
vn -0.9780 0.2088 0.0005
vn -0.0594 -0.3002 0.9520
vn -0.7198 -0.1694 0.6732
vn -0.9934 -0.1148 0.0005
vn 0.6706 -0.2760 0.6885
vn 0.6009 -0.4309 0.6732
vn 0.8745 -0.4849 0.0004
vn -0.6823 0.1197 -0.7212
vn -0.7198 -0.1694 -0.6732
vn -0.6086 0.4110 -0.6788
vn -0.0592 -0.3004 -0.9520
vn 0.0286 0.1646 -0.9859
vn 0.0091 -0.0845 -0.9964
vn 0.6972 -0.0913 -0.7111
vn 0.6707 -0.2760 -0.6885
vn 0.6009 -0.4309 -0.6732
vn 0.9360 -0.3520 0.0003
vn 0.9801 -0.1987 0.0005
vn 0.1133 -0.7784 0.6175
vn -0.0143 -0.9999 0.0007
vn -0.0144 -0.9999 0.0005
vn 0.1133 -0.7784 -0.6175
vn 0.4223 -0.2437 0.8731
vn 0.4223 -0.2437 -0.8731
vn 0.4220 -0.2437 0.8732
vn 0.7312 0.2908 0.6171
vn 0.7311 0.2908 -0.6172
vn 0.7311 0.2908 0.6172
vn 0.7308 0.2911 -0.6175
vn 0.8588 0.5123 0.0004
vn 0.8142 0.4532 0.3628
vn 0.8142 0.4532 0.3629
vn 0.8142 0.4531 0.3629
vn 0.8142 0.4532 -0.3628
vn 0.8142 0.4532 -0.3629
vn 0.8143 0.4531 -0.3628
vn 0.8142 0.4531 -0.3629
vn 0.8341 0.1867 -0.5191
vn 0.7854 -0.2066 -0.5835
vn 0.7854 -0.2066 -0.5834
vn 0.7854 -0.2066 0.5835
vn 0.8341 0.1867 0.5191
vn 0.7568 0.2057 -0.6205
vn 0.1894 0.7172 -0.6707
vn 0.7568 0.2056 -0.6205
vn 0.3322 0.6394 -0.6934
vn 0.1894 0.7172 0.6707
vn 0.7568 0.2056 0.6205
vn 0.3322 0.6394 0.6934
vn 0.6031 -0.5756 -0.5522
vn 0.7854 -0.2068 -0.5834
vn 0.6032 -0.5756 -0.5522
vn 0.7854 -0.2068 0.5834
vn 0.6031 -0.5756 0.5522
vn 0.7853 -0.2067 0.5835
vn 0.4771 -0.7890 0.3871
vn -0.1633 -0.8061 0.5687
vn -0.1631 -0.8061 -0.5689
vn 0.4771 -0.7890 -0.3871
vn -0.1553 -0.8078 0.5686
vn -0.1847 -0.7626 0.6199
vn -0.1848 -0.7626 0.6199
vn 0.4086 -0.7611 0.5038
vn 0.4085 -0.7610 0.5039
vn -0.1631 -0.8061 0.5688
vn 0.4770 -0.7890 0.3873
vn 0.4770 -0.7890 -0.3873
vn -0.1554 -0.8078 -0.5686
vn -0.1848 -0.7626 -0.6199
vn 0.4085 -0.7610 -0.5039
vn -0.1998 -0.7588 0.6199
vn -0.7211 -0.4755 0.5039
vn -0.1923 -0.7608 0.6199
vn -0.7211 -0.4754 0.5039
vn -0.2472 -0.7846 0.5686
vn -0.2396 -0.7868 0.5688
vn -0.7947 -0.4675 0.3873
vn -0.2395 -0.7868 -0.5689
vn -0.7946 -0.4675 -0.3874
vn -0.2472 -0.7846 -0.5686
vn -0.1998 -0.7588 -0.6199
vn -0.1923 -0.7608 -0.6199
vn -0.7211 -0.4755 -0.5039
vn 0.4256 -0.8223 0.3779
vn 0.4256 -0.8222 0.3779
vn 0.4256 -0.8222 -0.3779
vn -0.7652 -0.5212 -0.3779
vn -0.7652 -0.5212 0.3779
vn -0.7653 -0.5211 0.3779
vn -0.0000 -0.0000 -1.0000
vn 0.5701 -0.4681 -0.6752
vn 0.5700 -0.4681 -0.6752
vn -0.7241 -0.1409 -0.6752
vn -0.7241 -0.1408 -0.6752
vn -0.7240 -0.1408 -0.6752
vn -0.7240 -0.1409 -0.6753
vn -0.5011 0.7857 0.3629
vn -0.5010 0.7856 0.3630
vn -0.5010 0.7857 0.3628
vn -0.5011 0.7856 0.3630
vn -0.5011 0.7856 -0.3629
vn -0.5010 0.7857 -0.3629
vn -0.5011 0.7856 -0.3630
vn -0.5010 0.7857 -0.3628
vn -0.6452 0.5606 0.5191
vn -0.7892 0.1915 0.5835
vn -0.7892 0.1916 0.5835
vn -0.7892 0.1916 -0.5834
vn -0.6452 0.5606 -0.5191
vn -0.7892 0.1915 -0.5835
vn -0.5682 0.5405 0.6205
vn 0.1743 0.7210 0.6707
vn 0.0115 0.7205 0.6933
vn -0.5681 0.5405 0.6205
vn 0.1743 0.7210 -0.6707
vn -0.5681 0.5406 -0.6205
vn -0.5682 0.5405 -0.6205
vn 0.0116 0.7205 -0.6934
vn -0.7893 0.1913 0.5835
vn -0.8042 -0.2198 0.5522
vn -0.7893 0.1913 0.5834
vn -0.8042 -0.2198 -0.5522
vn -0.7893 0.1913 -0.5834
vn -0.7892 0.1913 -0.5835
vn -0.2395 -0.7868 0.5688
vn -0.7947 -0.4675 0.3871
vn -0.7947 -0.4675 -0.3871
vn -0.2395 -0.7868 -0.5688
vn 0.0632 0.8274 -0.5581
vn 0.5250 0.7280 -0.4408
vn 0.0555 0.8283 -0.5576
vn 0.5251 0.7281 -0.4407
vn -0.1160 0.8901 -0.4408
vn 0.3448 0.7552 -0.5574
vn 0.3375 0.7579 -0.5582
vn 0.0555 0.8284 0.5574
vn 0.5251 0.7280 0.4408
vn 0.0632 0.8273 0.5582
vn 0.5250 0.7281 0.4407
vn -0.1160 0.8901 0.4407
vn 0.3448 0.7551 0.5576
vn -0.1160 0.8900 0.4409
vn 0.3376 0.7579 0.5582
vn -0.4076 0.8243 0.3929
vn 0.1895 0.7171 0.6707
vn 0.3324 0.6393 0.6934
vn 0.7504 0.5316 0.3929
vn 0.1741 0.7209 0.6708
vn 0.7503 0.5316 0.3929
vn 0.0113 0.7204 0.6935
vn 0.1741 0.7210 -0.6707
vn 0.7504 0.5316 -0.3929
vn 0.0114 0.7204 -0.6934
vn -0.4076 0.8243 -0.3929
vn 0.1895 0.7171 -0.6707
vn 0.3324 0.6393 -0.6934
vn 0.0632 0.8274 0.5581
vn -0.4158 0.7298 0.5427
vn 0.0555 0.8283 0.5575
vn 0.3376 0.7580 -0.5581
vn 0.7127 0.4445 -0.5427
vn 0.3448 0.7551 -0.5575
vn 0.7127 0.4445 0.5427
vn 0.3448 0.7552 0.5575
vn -0.4158 0.7298 -0.5427
vn 0.0632 0.8273 -0.5582
vn 0.0555 0.8283 -0.5575
vn -0.0000 -0.0000 1.0000
vn -0.7240 -0.1410 0.6752
vn -0.7240 -0.1409 0.6752
vn 0.5701 -0.4681 0.6752
vn 0.5701 -0.4680 0.6752
vn -0.0000 0.0550 0.9985
vn -0.0000 0.9633 0.2683
vn -0.0000 0.6198 0.7848
vn -0.0000 0.2444 0.9697
vn -0.0000 0.4504 0.8928
vn -0.0000 0.6236 0.7817
vn -0.0000 -0.7341 0.6791
vn -0.0000 -0.5696 0.8219
vn -0.0000 -0.5692 0.8222
vn -0.0000 -0.7302 0.6832
vn -0.0000 0.1580 0.9874
vn -0.0000 -0.7301 0.6833
vn -0.0000 -0.3308 0.9437
vn -0.0000 -0.4345 0.9007
vn -0.0000 -0.3302 0.9439
vn -0.0000 -0.7377 0.6752
vn -0.0000 0.9633 0.2684
vn -0.0000 0.6239 -0.7815
vn 0.0001 0.6239 -0.7815
vn -0.0000 0.6201 0.7846
vn -0.0000 0.8345 0.5511
vn -0.0000 0.6200 0.7846
vn -0.0001 0.6239 0.7815
vn 0.0003 0.9633 -0.2684
vn -0.0000 0.6239 0.7815
vn -0.0000 0.9633 -0.2684
vn -0.0000 0.6200 -0.7846
vn -0.0000 0.8345 -0.5511
vn -0.0000 0.6201 -0.7846
vn -0.0000 0.1580 -0.9874
vn -1.0000 -0.0000 -0.0000
vn -0.0000 0.0550 -0.9985
vn -0.0000 0.2444 -0.9697
vn -0.0000 0.0551 -0.9985
vn -0.0000 0.4504 -0.8928
vn -0.0000 0.6236 -0.7817
vn -0.0001 0.6236 -0.7817
vn -0.0004 0.9633 -0.2683
vn -0.0000 0.6198 -0.7848
vn -0.0000 0.9633 -0.2683
vn -0.0000 -0.7341 -0.6791
vn -0.0000 -0.5697 -0.8218
vn -0.0000 -0.5694 -0.8220
vn -0.0000 -0.7302 -0.6832
vn -0.0000 -0.4345 -0.9007
vn -0.0000 -0.3304 -0.9439
vn -0.0000 -0.3308 -0.9437
vn -0.0000 -0.7377 -0.6752
vn -0.0000 -0.7377 -0.6751
vn -0.0000 -0.9405 -0.3399
vn -0.0000 -0.9802 -0.1978
vn -0.0000 -0.7343 0.6788
vn -0.0000 -0.9612 0.2758
vn -0.0000 -0.7343 -0.6788
vn -0.0000 -0.9612 -0.2758
vn -0.0000 -0.7301 -0.6833
vn -0.0000 -0.9806 -0.1961
vn -0.0000 -0.7379 -0.6749
vn -0.0000 -0.9803 0.1976
vn -0.0000 -0.9405 0.3398
vn -0.0000 -0.7379 0.6749
vn -0.0000 -0.9806 0.1961
vn -0.0000 -0.9803 -0.1975
vn 1.0000 -0.0000 -0.0000
vt 0.000000 0.000000
vt 0.004363 -45.099499
vt 0.000000 -45.101898
vt 0.004363 -45.108299
vt 0.000000 -45.108200
vt -0.004363 -45.108299
vt -0.004363 -45.099499
vt 0.000000 -45.155499
vt 0.000000 -45.125198
vt -0.004363 -45.150501
vt -0.004363 -45.125198
vt 0.004363 -45.150501
vt 0.004363 -45.125198
vt 0.000000 -45.125900
vt 0.000000 -45.122501
vt -0.004363 -45.126301
vt -0.004363 -45.118599
vt 0.004363 -45.126301
vt 0.004363 -45.118599
vt 0.000000 -45.115398
vt -0.004363 -45.114899
vt 0.004363 -45.114899
vt 0.004363 -45.112801
vt 0.000000 -45.098400
vt 0.000000 -45.116299
vt -0.004363 -45.112801
vt -0.015411 -45.004398
vt -0.011878 -45.004398
vt -0.011892 -45.000000
vt 0.000000 -45.000000
vt 0.000000 -45.004398
vt -0.015473 -45.000000
vt -0.027080 -45.004398
vt -0.027080 -44.995602
vt -0.015411 -44.995602
vt -0.011878 -44.995602
vt 0.000000 -44.995602
vt 0.011892 -45.000000
vt 0.011878 -45.004398
vt 0.015411 -45.004398
vt 0.015473 -45.000000
vt 0.027080 -45.004398
vt 0.027080 -44.995602
vt 0.015411 -44.995602
vt 0.011878 -44.995602
vt 0.005889 -45.000000
vt 0.008344 -45.004398
vt 0.008344 -44.995602
vt -0.005889 -45.000000
vt -0.008344 -44.995602
vt -0.008344 -45.004398
vt -0.015411 -45.101898
vt -0.014856 -45.107101
vt -0.011878 -45.105099
vt -0.027080 -45.112801
vt -0.008344 -45.108299
vt -0.000000 -45.099499
vt -0.000000 -45.094200
vt -0.006864 -45.114899
vt 0.011878 -45.105099
vt -0.000000 -45.115799
vt 0.008344 -45.108299
vt -0.003088 -45.118599
vt -0.000000 -45.121201
vt -0.007421 -45.126301
vt -0.012467 -45.125198
vt -0.000000 -45.142300
vt -0.000000 -45.150501
vt 0.012467 -45.125198
vt 0.007421 -45.126301
vt 0.006864 -45.114899
vt 0.003088 -45.118599
vt 0.014856 -45.107101
vt 0.015411 -45.101898
vt 0.027080 -45.112801
vt -0.000000 -45.132801
vt -0.003231 -45.125900
vt 0.003231 -45.125900
vt -0.014856 -44.995602
vt -0.015463 -45.000000
vt -0.032226 -45.000000
vt 0.015463 -45.000000
vt 0.032226 -45.000000
vt 0.014856 -44.995602
vt -0.014856 -45.004398
vt 0.014856 -45.004398
vt -0.001344 -45.000000
vt -0.003088 -45.004398
vt 0.001344 -45.000000
vt 0.003088 -45.004398
vt 0.003088 -44.995602
vt -0.003088 -44.995602
vt -0.006864 -45.004398
vt -0.010282 -45.000000
vt 0.010282 -45.000000
vt 0.006864 -44.995602
vt 0.006864 -45.004398
vt -0.006864 -44.995602
vt 3.999330 -39.042500
vt 4.000670 -39.054699
vt 4.000670 -39.042500
vt 3.999330 -39.054699
vt 3.999330 -38.994999
vt 4.000670 -39.011299
vt 4.000670 -38.994999
vt 3.999330 -39.011299
vt 3.999330 -39.032001
vt 4.000670 -39.032001
vt 3.999330 -39.020500
vt 4.000670 -39.020500
vt 3.999330 -39.005798
vt 4.000670 -39.005798
vt 4.000670 -39.030300
vt 3.999330 -39.030300
vt 4.000670 -39.035702
vt 3.999330 -39.035702
vt 4.000670 -39.026699
vt 3.999330 -39.018398
vt 3.999330 -39.026699
vt 4.000670 -39.018398
vt 4.000670 -39.041100
vt 3.999330 -39.041100
vt 3.999330 -39.035900
vt 4.000670 -39.035900
vt 4.029460 -38.999298
vt 4.041010 -39.000702
vt 4.041010 -38.999298
vt 4.029460 -39.000702
vt 4.020070 -38.999298
vt 4.013450 -39.000702
vt 4.020070 -39.000702
vt 4.013450 -38.999298
vt 4.010700 -39.000702
vt 4.010700 -38.999298
vt 3.958990 -39.000702
vt 3.970540 -38.999298
vt 3.958990 -38.999298
vt 3.970540 -39.000702
vt 3.979930 -39.000702
vt 3.986550 -39.000702
vt 3.979930 -38.999298
vt 3.986550 -38.999298
vt 3.989300 -39.000702
vt 3.989300 -38.999298
vt 3.971290 -39.030300
vt 3.962680 -39.033901
vt 3.967560 -39.035702
vt 3.958990 -39.005798
vt 3.957140 -39.033699
vt 3.970540 -38.994999
vt 3.949960 -39.020500
vt 3.979930 -39.011299
vt 3.952170 -39.035900
vt 3.977070 -39.027500
vt 3.945190 -39.032001
vt 3.985520 -39.026699
vt 3.986550 -39.017101
vt 3.989300 -39.018398
vt 3.948680 -39.041100
vt 3.943900 -39.042500
vt 3.943940 -39.054699
vt 4.042860 -39.033699
vt 4.041010 -39.005798
vt 4.037320 -39.033901
vt 4.050040 -39.020500
vt 4.047830 -39.035900
vt 4.054810 -39.032001
vt 4.051320 -39.041100
vt 4.056100 -39.042500
vt 4.056060 -39.054699
vt 4.028710 -39.030300
vt 4.032440 -39.035702
vt 4.029460 -38.994999
vt 4.020070 -39.011299
vt 4.022930 -39.027500
vt 4.014480 -39.026699
vt 4.013450 -39.017101
vt 4.010700 -39.018398
vt 3.967560 -38.999298
vt 3.962680 -38.999298
vt 3.967560 -39.000702
vt 3.962680 -39.000702
vt 3.971290 -39.000702
vt 3.977070 -38.999298
vt 3.971290 -38.999298
vt 3.977070 -39.000702
vt 3.985520 -38.999298
vt 3.985520 -39.000702
vt 4.028710 -38.999298
vt 4.022930 -38.999298
vt 4.028710 -39.000702
vt 4.022930 -39.000702
vt 4.014480 -38.999298
vt 4.014480 -39.000702
vt 4.042860 -38.999298
vt 4.047830 -39.000702
vt 4.047830 -38.999298
vt 4.042860 -39.000702
vt 4.037320 -38.999298
vt 4.037320 -39.000702
vt 4.032440 -39.000702
vt 4.032440 -38.999298
vt 3.952170 -39.000702
vt 3.957140 -38.999298
vt 3.952170 -38.999298
vt 3.957140 -39.000702
s 1
usemtl Meshpart21Mtl
f 1/1/1 2/1/1 3/1/1
f 1/1/1 3/1/1 4/1/2
f 2/1/1 5/1/1 3/1/1
f 6/1/1 1/1/1 4/1/2
f 5/1/1 2/1/1 7/1/1
f 1/1/1 6/1/1 8/1/1
f 9/1/1 5/1/1 7/1/1
f 10/1/3 8/1/1 6/1/1
f 5/1/1 9/1/1 11/1/1
f 8/1/1 10/1/3 12/1/1
f 13/1/1 11/1/1 9/1/1
f 14/1/1 12/1/1 10/1/3
f 11/1/1 13/1/1 15/1/3
f 14/1/1 10/1/3 16/1/4
f 13/1/1 16/1/4 15/1/3
f 13/1/1 14/1/1 16/1/4
f 17/1/5 18/1/6 19/1/6
f 20/1/7 19/1/6 18/1/6
f 19/1/6 21/1/5 17/1/5
f 19/1/6 20/1/7 22/1/7
f 23/1/8 17/1/5 21/1/5
f 20/1/7 24/1/9 22/1/7
f 17/1/5 23/1/8 25/1/8
f 24/1/9 20/1/7 26/1/10
f 27/1/11 25/1/8 23/1/8
f 28/1/12 24/1/9 26/1/10
f 23/1/8 29/1/11 27/1/11
f 24/1/9 28/1/12 30/1/12
f 31/1/13 27/1/11 29/1/11
f 31/1/13 30/1/12 28/1/12
f 27/1/11 31/1/13 32/1/14
f 31/1/13 28/1/12 32/1/14
f 33/1/15 34/1/16 35/1/17
f 36/1/18 35/1/17 34/1/16
f 35/1/17 36/1/18 37/1/19
f 34/1/16 33/1/15 38/1/20
f 38/1/20 36/1/18 34/1/16
f 39/1/21 38/1/20 33/1/15
f 40/1/22 37/1/19 36/1/18
f 36/1/18 38/1/20 40/1/22
f 37/1/19 40/1/22 41/1/23
f 38/1/20 39/1/21 42/1/24
f 40/1/22 38/1/20 42/1/24
f 41/1/23 40/1/22 43/1/25
f 39/1/21 44/1/26 42/1/24
f 44/1/26 40/1/22 42/1/24
f 44/1/26 39/1/21 45/1/27
f 46/1/28 43/1/25 40/1/22
f 40/1/22 44/1/26 46/1/28
f 46/1/28 47/1/29 43/1/25
f 45/1/27 48/1/30 44/1/26
f 46/1/28 44/1/26 48/1/30
f 48/1/30 45/1/27 47/1/29
f 47/1/29 46/1/28 48/1/30
f 49/1/31 50/1/32 51/1/33
f 49/1/31 51/1/33 52/1/34
f 50/1/32 53/1/35 51/1/33
f 53/1/35 50/1/32 54/1/36
f 55/1/37 53/1/35 54/1/36
f 56/1/38 49/1/31 52/1/34
f 49/1/31 56/1/38 57/1/39
f 51/1/33 58/1/40 52/1/34
f 56/1/38 52/1/34 58/1/40
f 59/1/41 57/1/39 56/1/38
f 57/1/39 59/1/41 60/1/42
f 61/1/43 60/1/42 59/1/41
f 56/1/38 62/1/44 59/1/41
f 58/1/40 62/1/44 56/1/38
f 63/1/45 61/1/43 59/1/41
f 64/1/46 61/1/43 63/1/45
f 59/1/41 62/1/44 65/1/29
f 64/1/46 63/1/45 66/1/47
f 59/1/41 67/1/48 63/1/45
f 67/1/48 59/1/41 65/1/29
f 63/1/45 68/1/49 66/1/47
f 68/1/49 63/1/45 67/1/48
f 69/1/50 64/1/46 66/1/47
f 68/1/49 69/1/50 66/1/47
f 64/1/46 69/1/50 55/1/37
f 53/1/35 55/1/37 69/1/50
f 65/1/29 70/1/51 67/1/48
f 62/1/44 70/1/51 65/1/29
f 53/1/35 69/1/50 71/1/52
f 69/1/50 68/1/49 71/1/52
f 71/1/52 72/1/17 53/1/35
f 73/1/53 68/1/49 67/1/48
f 67/1/48 70/1/51 73/1/53
f 68/1/49 73/1/53 74/1/54
f 75/1/55 53/1/35 72/1/17
f 53/1/35 75/1/55 51/1/33
f 58/1/40 51/1/33 75/1/55
f 73/1/53 76/1/56 74/1/54
f 76/1/56 73/1/53 77/1/57
f 70/1/51 77/1/57 73/1/53
f 77/1/57 70/1/51 78/1/58
f 79/1/59 78/1/58 70/1/51
f 76/1/56 80/1/60 74/1/54
f 80/1/60 68/1/49 74/1/54
f 68/1/49 80/1/60 71/1/52
f 76/1/56 81/1/61 80/1/60
f 79/1/59 70/1/51 82/1/62
f 70/1/51 62/1/44 82/1/62
f 58/1/40 82/1/62 62/1/44
f 82/1/62 83/1/63 79/1/59
f 82/1/62 58/1/40 84/1/64
f 82/1/62 84/1/64 83/1/63
f 85/1/65 84/1/64 58/1/40
f 85/1/65 83/1/63 84/1/64
f 85/1/65 58/1/40 75/1/55
f 83/1/63 85/1/65 86/1/66
f 87/1/67 85/1/65 75/1/55
f 87/1/67 86/1/66 85/1/65
f 87/1/67 75/1/55 72/1/17
f 71/1/52 87/1/67 72/1/17
f 87/1/67 71/1/52 80/1/60
f 87/1/67 80/1/60 81/1/61
f 86/1/66 87/1/67 88/1/68
f 87/1/67 81/1/61 88/1/68
f 89/1/69 90/1/70 91/1/71
f 92/1/72 91/1/71 90/1/70
f 90/1/70 89/1/69 93/1/69
f 90/1/70 94/1/72 92/1/72
f 95/1/73 93/1/69 89/1/69
f 96/1/74 92/1/72 94/1/72
f 93/1/69 95/1/73 97/1/75
f 96/1/74 94/1/72 98/1/76
f 99/1/77 97/1/75 95/1/73
f 100/1/78 96/1/74 98/1/76
f 95/1/73 101/1/77 99/1/77
f 96/1/74 100/1/78 102/1/78
f 101/1/77 103/1/79 99/1/77
f 103/1/79 102/1/78 100/1/78
f 103/1/79 101/1/77 104/1/79
f 102/1/78 103/1/79 104/1/79
f 105/1/80 106/1/81 107/1/82
f 105/1/80 107/1/82 108/1/83
f 106/1/81 109/1/84 107/1/82
f 109/1/84 106/1/81 110/1/85
f 111/1/86 109/1/84 110/1/85
f 112/1/87 105/1/80 108/1/83
f 105/1/80 112/1/87 113/1/88
f 107/1/82 114/1/89 108/1/83
f 112/1/87 108/1/83 114/1/89
f 114/1/89 107/1/82 115/1/90
f 109/1/84 115/1/90 107/1/82
f 114/1/89 116/1/91 112/1/87
f 117/1/92 113/1/88 112/1/87
f 117/1/92 112/1/87 116/1/91
f 113/1/88 117/1/92 118/1/93
f 119/1/94 118/1/93 117/1/92
f 120/1/95 119/1/94 117/1/92
f 121/1/96 119/1/94 120/1/95
f 117/1/92 122/1/97 120/1/95
f 121/1/96 120/1/95 123/1/98
f 122/1/97 123/1/98 120/1/95
f 124/1/99 121/1/96 123/1/98
f 121/1/96 124/1/99 111/1/86
f 109/1/84 111/1/86 124/1/99
f 123/1/98 125/1/100 124/1/99
f 124/1/99 125/1/100 109/1/84
f 122/1/97 117/1/92 126/1/29
f 116/1/91 126/1/29 117/1/92
f 123/1/98 122/1/97 127/1/101
f 125/1/100 123/1/98 127/1/101
f 109/1/84 125/1/100 128/1/17
f 115/1/90 109/1/84 128/1/17
f 125/1/100 129/1/102 128/1/17
f 129/1/102 115/1/90 128/1/17
f 127/1/101 130/1/103 125/1/100
f 129/1/102 125/1/100 130/1/103
f 130/1/103 127/1/101 131/1/104
f 132/1/105 130/1/103 131/1/104
f 127/1/101 133/1/106 131/1/104
f 133/1/106 132/1/105 131/1/104
f 133/1/106 127/1/101 122/1/97
f 132/1/105 134/1/107 130/1/103
f 129/1/102 130/1/103 134/1/107
f 132/1/105 133/1/106 135/1/108
f 129/1/102 134/1/107 136/1/109
f 137/1/110 129/1/102 136/1/109
f 129/1/102 137/1/110 138/1/111
f 115/1/90 129/1/102 138/1/111
f 139/1/112 138/1/111 137/1/110
f 140/1/113 115/1/90 138/1/111
f 138/1/111 139/1/112 140/1/113
f 115/1/90 140/1/113 114/1/89
f 116/1/91 114/1/89 140/1/113
f 141/1/114 140/1/113 139/1/112
f 116/1/91 140/1/113 141/1/114
f 141/1/114 139/1/112 142/1/115
f 143/1/116 116/1/91 141/1/114
f 142/1/115 143/1/116 141/1/114
f 116/1/91 143/1/116 126/1/29
f 142/1/115 144/1/117 143/1/116
f 143/1/116 122/1/97 126/1/29
f 135/1/108 143/1/116 144/1/117
f 143/1/116 133/1/106 122/1/97
f 143/1/116 135/1/108 133/1/106
f 145/1/118 146/1/119 147/1/120
f 148/1/121 147/1/120 146/1/119
f 145/1/118 147/1/120 149/1/118
f 147/1/120 148/1/121 150/1/121
f 149/1/118 151/1/122 145/1/118
f 152/1/123 150/1/121 148/1/121
f 149/1/118 153/1/124 151/1/122
f 150/1/121 152/1/123 154/1/125
f 155/1/126 151/1/122 153/1/124
f 152/1/123 156/1/127 154/1/125
f 151/1/122 155/1/126 157/1/126
f 152/1/123 158/1/127 156/1/127
f 159/1/128 157/1/126 155/1/126
f 158/1/127 159/1/128 156/1/127
f 157/1/126 159/1/128 160/1/128
f 159/1/128 158/1/127 160/1/128
f 161/1/129 162/1/130 163/1/131
f 163/1/131 164/1/132 161/1/129
f 165/1/133 161/1/129 164/1/132
f 166/1/134 163/1/131 162/1/130
f 163/1/131 166/1/134 167/1/135
f 162/1/130 161/1/129 168/1/136
f 162/1/130 168/1/136 169/1/137
f 170/1/138 162/1/130 169/1/137
f 162/1/130 170/1/138 166/1/134
f 161/1/129 171/1/139 168/1/136
f 172/1/140 166/1/134 170/1/138
f 173/1/141 167/1/135 166/1/134
f 166/1/134 172/1/140 174/1/142
f 166/1/134 174/1/142 173/1/141
f 175/1/143 174/1/142 172/1/140
f 175/1/143 173/1/141 174/1/142
f 173/1/141 175/1/143 176/1/144
f 175/1/143 172/1/140 177/1/145
f 175/1/143 178/1/146 176/1/144
f 179/1/147 175/1/143 177/1/145
f 178/1/146 175/1/143 179/1/147
f 179/1/147 177/1/145 180/1/148
f 181/1/149 179/1/147 180/1/148
f 182/1/150 178/1/146 179/1/147
f 179/1/147 181/1/149 182/1/150
f 178/1/146 182/1/150 183/1/151
f 171/1/139 182/1/150 181/1/149
f 165/1/133 183/1/151 182/1/150
f 182/1/150 171/1/139 184/1/152
f 165/1/133 182/1/150 184/1/152
f 171/1/139 161/1/129 184/1/152
f 161/1/129 165/1/133 184/1/152
f 185/1/153 186/1/154 187/1/154
f 186/1/154 188/1/155 187/1/154
f 186/1/154 185/1/153 189/1/153
f 186/1/154 190/1/155 188/1/155
f 191/1/156 189/1/153 185/1/153
f 192/1/157 188/1/155 190/1/155
f 185/1/153 193/1/156 191/1/156
f 188/1/155 192/1/157 194/1/158
f 195/1/159 191/1/156 193/1/156
f 196/1/160 194/1/158 192/1/157
f 191/1/156 195/1/159 197/1/159
f 196/1/160 192/1/157 198/1/161
f 199/1/162 197/1/159 195/1/159
f 199/1/162 196/1/160 198/1/161
f 195/1/159 200/1/163 199/1/162
f 196/1/160 199/1/162 200/1/163
f 201/1/164 202/1/165 203/1/166
f 202/1/165 204/1/167 203/1/166
f 205/1/168 203/1/166 204/1/167
f 206/1/169 202/1/165 201/1/164
f 202/1/165 206/1/169 207/1/170
f 206/1/169 208/1/171 207/1/170
f 206/1/169 201/1/164 209/1/172
f 203/1/166 209/1/172 201/1/164
f 208/1/171 206/1/169 210/1/29
f 203/1/166 205/1/168 211/1/17
f 212/1/173 208/1/171 210/1/29
f 208/1/171 212/1/173 213/1/174
f 206/1/169 214/1/175 210/1/29
f 214/1/175 212/1/173 210/1/29
f 212/1/173 215/1/176 213/1/174
f 205/1/168 216/1/177 211/1/17
f 216/1/177 205/1/168 217/1/178
f 215/1/176 216/1/177 217/1/178
f 215/1/176 212/1/173 218/1/179
f 216/1/177 215/1/176 218/1/179
f 212/1/173 219/1/180 218/1/179
f 219/1/180 216/1/177 218/1/179
f 219/1/180 212/1/173 220/1/181
f 214/1/175 220/1/181 212/1/173
f 220/1/181 221/1/182 219/1/180
f 221/1/182 220/1/181 222/1/183
f 214/1/175 222/1/183 220/1/181
f 222/1/183 214/1/175 223/1/184
f 224/1/185 223/1/184 214/1/175
f 221/1/182 225/1/186 219/1/180
f 219/1/180 225/1/186 216/1/177
f 221/1/182 226/1/187 225/1/186
f 224/1/185 214/1/175 227/1/188
f 214/1/175 206/1/169 227/1/188
f 227/1/188 228/1/189 224/1/185
f 227/1/188 206/1/169 209/1/172
f 227/1/188 209/1/172 228/1/189
f 229/1/190 225/1/186 226/1/187
f 229/1/190 216/1/177 225/1/186
f 229/1/190 226/1/187 230/1/191
f 216/1/177 229/1/190 211/1/17
f 231/1/192 229/1/190 230/1/191
f 229/1/190 203/1/166 211/1/17
f 228/1/189 232/1/193 231/1/192
f 229/1/190 231/1/192 232/1/193
f 203/1/166 229/1/190 232/1/193
f 232/1/193 228/1/189 209/1/172
f 209/1/172 203/1/166 232/1/193
f 233/1/194 234/1/195 235/1/196
f 236/1/197 235/1/196 234/1/195
f 234/1/195 233/1/194 237/1/194
f 234/1/195 238/1/198 236/1/197
f 239/1/199 237/1/194 233/1/194
f 240/1/200 236/1/197 238/1/198
f 237/1/194 239/1/199 241/1/199
f 238/1/198 242/1/200 240/1/200
f 239/1/199 243/1/201 241/1/199
f 244/1/202 240/1/200 242/1/200
f 239/1/199 245/1/201 243/1/201
f 240/1/200 244/1/202 246/1/202
f 245/1/201 247/1/203 243/1/201
f 247/1/203 246/1/202 244/1/202
f 247/1/203 245/1/201 248/1/204
f 246/1/202 247/1/203 248/1/204
f 249/1/205 250/1/206 251/1/207
f 250/1/206 252/1/208 251/1/207
f 250/1/206 249/1/205 253/1/209
f 250/1/206 254/1/210 252/1/208
f 255/1/211 253/1/209 249/1/205
f 256/1/212 252/1/208 254/1/210
f 253/1/209 255/1/211 257/1/211
f 256/1/212 254/1/210 258/1/212
f 259/1/213 257/1/211 255/1/211
f 260/1/214 256/1/212 258/1/212
f 259/1/213 255/1/211 261/1/215
f 256/1/212 260/1/214 262/1/216
f 261/1/215 263/1/217 259/1/213
f 263/1/217 262/1/216 260/1/214
f 261/1/215 264/1/218 263/1/217
f 262/1/216 263/1/217 264/1/218
f 265/1/219 266/1/220 267/1/221
f 267/1/221 266/1/220 268/1/222
f 266/1/220 265/1/219 269/1/223
f 270/1/224 269/1/223 265/1/219
f 271/1/225 268/1/222 266/1/220
f 269/1/223 272/1/226 266/1/220
f 266/1/220 272/1/226 273/1/227
f 274/1/228 266/1/220 273/1/227
f 266/1/220 274/1/228 271/1/225
f 275/1/229 272/1/226 269/1/223
f 269/1/223 270/1/224 275/1/229
f 272/1/226 275/1/229 276/1/230
f 275/1/229 277/1/231 276/1/230
f 271/1/225 274/1/228 278/1/232
f 278/1/232 268/1/222 271/1/225
f 279/1/233 278/1/232 274/1/228
f 268/1/222 278/1/232 280/1/234
f 281/1/235 278/1/232 279/1/233
f 280/1/234 278/1/232 282/1/236
f 283/1/237 282/1/236 278/1/232
f 278/1/232 281/1/235 283/1/237
f 284/1/238 282/1/236 283/1/237
f 285/1/239 283/1/237 281/1/235
f 285/1/239 284/1/238 283/1/237
f 286/1/240 285/1/239 281/1/235
f 277/1/231 285/1/239 286/1/240
f 287/1/241 284/1/238 285/1/239
f 285/1/239 277/1/231 287/1/241
f 277/1/231 275/1/229 287/1/241
f 284/1/238 287/1/241 288/1/242
f 270/1/224 287/1/241 275/1/229
f 287/1/241 270/1/224 288/1/242
f 289/1/243 290/1/244 291/1/245
f 292/1/246 291/1/245 290/1/244
f 289/1/243 291/1/245 293/1/243
f 291/1/245 292/1/246 294/1/246
f 295/1/247 289/1/243 293/1/243
f 296/1/248 294/1/246 292/1/246
f 295/1/247 293/1/243 297/1/249
f 294/1/246 296/1/248 298/1/248
f 299/1/250 295/1/247 297/1/249
f 300/1/251 298/1/248 296/1/248
f 295/1/247 299/1/250 301/1/252
f 300/1/251 296/1/248 302/1/253
f 303/1/254 301/1/252 299/1/250
f 302/1/253 303/1/254 300/1/251
f 301/1/252 303/1/254 304/1/254
f 303/1/254 302/1/253 304/1/254
f 305/2/255 306/3/256 307/4/257
f 307/4/257 306/3/256 308/5/257
f 309/3/258 310/6/259 311/5/260
f 310/6/259 309/3/258 312/7/261
f 313/8/262 314/9/263 315/10/262
f 315/10/262 314/9/263 316/11/264
f 317/9/265 318/12/266 319/13/265
f 318/12/266 317/9/265 320/8/266
f 321/14/267 322/15/268 323/16/269
f 322/15/268 324/17/270 323/16/269
f 325/15/271 326/18/272 327/19/273
f 326/18/272 325/15/271 328/14/272
f 329/20/274 330/11/275 331/9/275
f 330/11/275 329/20/274 332/21/276
f 333/13/277 334/22/278 335/20/278
f 333/13/277 335/20/278 336/9/279
f 338/23/280 337/24/281 339/25/280
f 340/24/282 341/26/283 342/25/283
f 343/27/284 344/28/285 345/29/286
f 344/28/285 346/30/287 345/29/286
f 346/30/287 344/28/285 347/31/288
f 343/27/284 345/29/286 348/32/289
f 349/33/290 343/27/284 348/32/289
f 351/34/291 350/32/282 352/35/292
f 353/29/293 352/35/292 350/32/282
f 352/35/292 353/29/293 354/36/293
f 353/29/293 355/30/294 354/36/293
f 356/37/294 354/36/293 355/30/294
f 357/38/295 358/30/296 359/39/297
f 360/31/298 359/39/297 358/30/296
f 361/40/299 357/38/295 359/39/297
f 357/38/295 361/40/299 362/41/300
f 363/42/301 362/41/300 361/40/299
f 364/41/302 365/43/303 366/44/304
f 366/44/304 367/38/305 364/41/302
f 367/38/305 366/44/304 368/45/306
f 368/45/306 369/30/307 367/38/305
f 369/30/307 368/45/306 370/37/307
f 371/46/308 372/31/309 373/47/309
f 372/31/309 371/46/308 374/30/309
f 375/30/310 376/46/310 377/37/310
f 376/46/310 378/48/310 377/37/310
f 379/49/311 380/30/311 381/37/311
f 381/37/311 382/50/311 379/49/311
f 383/31/312 384/49/313 385/51/312
f 384/49/313 383/31/312 386/30/312
f 387/52/314 388/53/314 389/54/314
f 388/53/314 387/52/314 390/55/314
f 391/56/314 389/54/314 388/53/314
f 391/56/314 392/57/314 389/54/314
f 393/58/314 389/54/314 392/57/314
f 388/53/314 394/59/314 391/56/314
f 395/60/314 393/58/314 392/57/314
f 394/59/314 396/61/314 391/56/314
f 395/60/314 392/57/314 397/62/314
f 396/61/314 394/59/314 398/63/314
f 396/61/314 398/63/314 399/64/314
f 394/59/314 400/65/314 398/63/314
f 400/65/314 394/59/314 401/66/314
f 401/66/314 402/67/314 400/65/314
f 402/67/314 401/66/314 403/68/314
f 403/68/314 404/69/314 402/67/314
f 402/67/314 404/69/314 405/70/314
f 406/71/314 405/70/314 404/69/314
f 405/70/314 406/71/314 407/72/314
f 408/61/314 407/72/314 406/71/314
f 397/62/314 408/61/314 406/71/314
f 409/73/314 397/62/314 406/71/314
f 397/62/314 409/73/314 395/60/314
f 409/73/314 410/74/314 395/60/314
f 410/74/314 409/73/314 411/75/314
f 412/72/314 413/61/314 414/64/314
f 415/65/315 416/67/315 417/76/316
f 415/65/315 417/76/316 418/77/315
f 419/70/317 420/76/318 421/67/319
f 420/76/318 419/70/317 422/78/320
f 423/6/321 424/3/322 425/7/323
f 424/3/322 423/6/321 426/5/324
f 427/5/325 428/4/326 429/3/327
f 429/3/327 428/4/326 430/2/328
f 431/10/329 432/9/330 433/11/331
f 432/9/330 431/10/329 434/8/329
f 435/9/332 436/12/333 437/13/334
f 436/12/333 435/9/332 438/8/333
f 439/16/335 440/15/336 441/17/337
f 440/15/336 439/16/335 442/14/338
f 443/15/339 444/14/340 445/18/341
f 445/18/341 446/19/342 443/15/339
f 447/11/343 448/20/344 449/21/344
f 448/20/344 447/11/343 450/9/345
f 451/20/346 452/13/347 453/22/346
f 452/13/347 451/20/346 454/9/348
f 455/24/349 456/26/350 457/25/350
f 459/23/351 458/24/352 460/25/351
f 461/79/353 462/34/354 463/80/355
f 464/81/356 463/80/355 462/34/354
f 465/43/357 466/82/358 467/83/357
f 466/82/358 465/43/357 468/84/359
f 469/80/360 470/33/361 471/85/362
f 470/33/361 469/80/360 472/81/363
f 473/83/364 474/82/365 475/42/366
f 476/86/367 475/42/366 474/82/365
f 477/31/368 478/87/369 479/88/370
f 478/87/369 477/31/368 480/30/368
f 481/31/371 482/89/372 483/30/373
f 482/89/372 481/31/371 484/90/374
f 485/89/375 486/37/376 487/30/376
f 486/37/376 485/89/375 488/91/377
f 489/30/378 490/37/378 491/87/379
f 490/37/378 492/92/380 491/87/379
f 493/85/381 494/93/382 495/94/382
f 493/85/381 495/94/382 496/80/383
f 497/84/384 498/95/385 499/82/386
f 498/95/385 497/84/384 500/96/385
f 501/97/387 502/86/367 503/95/387
f 503/95/387 502/86/367 504/82/388
f 505/94/389 506/79/390 507/80/391
f 506/79/390 505/94/389 508/98/389
f 509/71/392 510/61/392 511/72/392
f 511/72/392 510/61/392 512/64/392
f 513/70/392 509/71/392 511/72/392
f 514/62/392 510/61/392 509/71/392
f 509/71/392 513/70/392 515/69/392
f 516/67/392 515/69/392 513/70/392
f 517/73/392 514/62/392 509/71/392
f 515/69/392 516/67/392 518/68/392
f 519/66/392 518/68/392 516/67/392
f 519/66/392 516/67/392 520/65/392
f 520/65/392 521/59/392 519/66/392
f 521/59/392 520/65/392 522/63/392
f 523/61/392 521/59/392 522/63/392
f 523/61/392 524/56/392 521/59/392
f 524/56/392 525/53/392 521/59/392
f 525/53/392 524/56/392 526/54/392
f 527/52/392 525/53/392 526/54/392
f 525/53/392 527/52/392 528/55/392
f 529/57/392 526/54/392 524/56/392
f 530/58/392 526/54/392 529/57/392
f 531/60/392 530/58/392 529/57/392
f 531/60/392 529/57/392 514/62/392
f 514/62/392 517/73/392 531/60/392
f 532/74/392 531/60/392 517/73/392
f 532/74/392 517/73/392 533/75/392
f 534/61/392 535/63/392 536/64/392
f 537/65/393 538/67/393 539/76/394
f 537/65/393 539/76/394 540/77/394
f 541/70/395 542/76/396 543/67/395
f 542/76/396 541/70/395 544/78/395
usemtl Meshpart11Mtl.001
f 545/99/397 546/100/392 547/101/397
f 546/100/392 545/99/397 548/102/392
f 549/103/398 551/104/399 550/105/398
f 549/103/398 552/106/399 551/104/399
f 553/107/400 554/101/397 555/108/400
f 554/101/397 553/107/400 556/99/397
f 555/108/400 557/109/401 553/107/400
f 557/109/401 555/108/400 558/110/401
f 558/110/401 559/111/402 557/109/401
f 559/111/402 558/110/401 560/112/402
f 561/113/403 562/114/403 563/115/404
f 563/115/404 562/114/403 564/116/405
f 566/117/406 567/118/407 565/119/408
f 567/118/407 566/117/406 568/120/407
f 569/100/409 570/121/410 571/122/410
f 571/122/410 572/102/411 569/100/409
f 570/121/410 573/123/412 571/122/410
f 570/121/410 574/124/412 573/123/412
f 577/125/413 576/126/414 575/127/415
f 576/126/414 577/125/413 578/128/413
f 580/129/416 581/130/417 579/131/418
f 580/129/416 582/132/417 581/130/417
f 582/132/417 583/133/407 581/130/417
f 584/134/407 583/133/407 582/132/417
f 586/135/419 587/136/420 585/137/421
f 587/136/420 586/135/419 588/138/422
f 589/139/423 591/140/424 590/141/425
f 592/142/424 590/141/425 591/140/424
f 592/142/424 591/140/424 593/143/426
f 594/144/426 592/142/424 593/143/426
f 595/145/427 596/146/427 597/147/427
f 596/146/427 595/145/427 598/148/427
f 596/146/427 598/148/427 599/149/427
f 595/145/427 600/150/427 598/148/427
f 601/151/427 599/149/427 598/148/427
f 600/150/427 595/145/427 602/152/427
f 599/149/427 601/151/427 603/153/427
f 602/152/427 595/145/427 604/154/427
f 605/155/427 603/153/427 601/151/427
f 606/156/427 602/152/427 604/154/427
f 602/152/427 606/156/427 607/157/427
f 607/157/427 606/156/427 608/158/427
f 603/153/427 605/155/427 609/159/427
f 609/159/427 605/155/427 610/160/427
f 610/160/427 611/161/427 609/159/427
f 612/162/427 613/163/427 614/164/427
f 613/163/427 612/162/427 615/165/427
f 616/166/427 615/165/427 612/162/427
f 615/165/427 616/166/427 617/167/427
f 618/168/427 617/167/427 616/166/427
f 618/168/427 619/169/427 617/167/427
f 619/169/427 618/168/427 620/170/427
f 621/171/427 614/164/427 613/163/427
f 614/164/427 621/171/427 622/172/427
f 621/171/427 613/163/427 623/173/427
f 624/174/427 621/171/427 623/173/427
f 621/171/427 624/174/427 625/175/427
f 624/174/427 626/176/427 625/175/427
f 626/176/427 624/174/427 627/177/427
f 626/176/427 627/177/427 628/178/427
f 629/101/428 630/102/314 631/100/314
f 630/102/314 629/101/428 632/99/428
f 633/108/429 634/99/430 635/101/430
f 634/99/430 633/108/429 636/107/429
f 637/110/431 636/107/429 633/108/429
f 636/107/429 637/110/431 638/109/431
f 639/112/432 638/109/431 637/110/431
f 638/109/431 639/112/432 640/111/433
f 642/103/434 643/106/435 641/105/436
f 644/104/435 641/105/436 643/106/435
f 645/114/437 646/116/438 647/113/437
f 646/116/438 648/115/439 647/113/437
f 651/120/426 650/119/440 649/117/440
f 652/118/426 650/119/440 651/120/426
f 653/122/441 654/102/442 655/121/441
f 655/121/441 654/102/442 656/100/443
f 657/124/444 653/122/441 655/121/441
f 653/122/441 657/124/444 658/123/445
f 659/179/446 660/180/447 661/181/446
f 662/182/447 661/181/446 660/180/447
f 663/183/448 665/184/449 664/185/448
f 663/183/448 666/186/449 665/184/449
f 666/186/449 667/187/406 665/184/449
f 666/186/449 668/188/406 667/187/406
f 670/189/450 671/190/451 669/191/450
f 672/192/451 669/191/450 671/190/451
f 671/190/451 673/193/452 672/192/451
f 674/194/452 672/192/451 673/193/452
f 677/195/453 676/196/454 675/197/454
f 676/196/454 677/195/453 678/198/453
f 679/199/455 678/198/453 677/195/453
f 678/198/453 679/199/455 680/200/455
f 681/201/456 680/200/455 679/199/455
f 681/201/456 679/199/455 682/202/456
f 684/203/457 685/204/458 683/205/457
f 684/203/457 686/206/458 685/204/458
f 686/206/458 687/180/459 685/204/458
f 686/206/458 688/182/459 687/180/459
f 689/162/460 690/163/460 691/164/460
f 690/163/460 689/162/460 692/165/460
f 693/166/460 692/165/460 689/162/460
f 693/166/460 694/167/460 692/165/460
f 694/167/460 693/166/460 695/168/460
f 694/167/460 695/168/460 696/169/460
f 696/169/460 695/168/460 697/170/460
f 690/163/460 698/171/460 691/164/460
f 699/172/460 691/164/460 698/171/460
f 700/173/460 698/171/460 690/163/460
f 701/174/460 698/171/460 700/173/460
f 698/171/460 701/174/460 702/175/460
f 701/174/460 703/176/460 702/175/460
f 703/176/460 701/174/460 704/177/460
f 703/176/460 704/177/460 705/178/460
f 706/159/460 707/155/460 708/160/460
f 708/160/460 709/161/460 706/159/460
f 707/155/460 706/159/460 710/153/460
f 707/155/460 710/153/460 711/151/460
f 712/149/460 711/151/460 710/153/460
f 711/151/460 712/149/460 713/148/460
f 714/146/460 713/148/460 712/149/460
f 715/145/460 713/148/460 714/146/460
f 715/145/460 714/146/460 716/147/460
f 713/148/460 715/145/460 717/150/460
f 715/145/460 718/152/460 717/150/460
f 718/152/460 715/145/460 719/154/460
f 720/156/460 718/152/460 719/154/460
f 718/152/460 720/156/460 721/157/460
f 721/157/460 720/156/460 722/158/460
