# Blender 5.1.2
# www.blender.org
mtllib Batrambit2 6.mtl
o batbow0.001
v -0.219152 -1.144269 0.066894
v 0.147192 -1.254784 0.066894
v 0.177632 -1.122951 0.066894
v 0.218340 -1.228847 0.066894
v -0.346858 -1.240557 0.066894
v -0.220577 -1.246608 0.066894
v -0.218608 -1.103065 0.066894
v -0.231677 -1.107684 0.066894
v -0.226862 -1.081032 0.066894
v -0.126206 -1.286749 0.066894
v 0.102991 -1.289243 0.066894
v -0.083352 -1.331163 0.066894
v -0.095489 -1.335067 0.066894
v 0.016000 -1.385531 0.066894
v -0.081618 -1.371327 0.066894
v 0.073653 -0.914740 0.066894
v -0.249819 -1.021697 0.066894
v -0.245942 -1.067889 0.066894
v -0.288761 -0.987237 0.066894
v -0.287610 -0.919012 0.066894
v -0.455725 -0.973727 0.066894
v -0.219987 -0.868916 0.066894
v -0.283058 -0.881689 0.066894
v -0.041343 -0.742766 0.066894
v -0.268534 -0.849008 0.066894
v -0.296020 -0.823417 0.066894
v -0.344261 -0.796071 0.066894
v -0.307713 -0.824502 0.066894
v -0.414541 -0.680937 0.066894
v -0.427834 -0.764083 0.066894
v -0.186829 -0.601716 0.066894
v -0.461450 -0.688419 0.066894
v -0.515766 -0.726782 0.066894
v -0.592691 -0.713640 0.066894
v -0.403690 -0.659988 0.066894
v -0.375418 -0.610239 0.066894
v -0.406550 -0.623750 0.066894
v -0.381163 -0.472031 0.066894
v -0.456230 -0.552683 0.066894
v -0.462309 -0.532081 0.066894
v -0.510593 -0.522843 0.066894
v -0.546092 -0.501156 0.066894
v -0.554825 -0.463855 0.066894
v -0.635737 -0.359045 0.066894
v -0.603436 -0.453186 0.066894
v -0.807090 -0.305023 0.066894
v -0.268534 -0.849008 0.058222
v -0.041343 -0.742766 0.058222
v -0.219987 -0.868916 0.058222
v -0.296020 -0.823417 0.058222
v -0.344261 -0.796071 0.058222
v -0.307713 -0.824502 0.058222
v -0.414541 -0.680937 0.058222
v -0.427834 -0.764083 0.058222
v -0.186829 -0.601716 0.058222
v -0.461450 -0.688419 0.058222
v -0.515766 -0.726782 0.058222
v -0.592691 -0.713640 0.058222
v -0.403690 -0.659988 0.058222
v -0.375418 -0.610239 0.058222
v -0.406550 -0.623750 0.058222
v -0.381163 -0.472031 0.058222
v -0.456230 -0.552683 0.058222
v -0.462309 -0.532081 0.058222
v -0.510593 -0.522843 0.058222
v -0.546092 -0.501156 0.058222
v -0.554825 -0.463855 0.058222
v -0.635737 -0.359045 0.058222
v -0.603436 -0.453186 0.058222
v -0.807090 -0.305023 0.058222
v 0.073653 -0.914740 0.058222
v -0.226862 -1.081032 0.058222
v -0.249819 -1.021697 0.058222
v -0.245942 -1.067889 0.058222
v -0.288761 -0.987237 0.058222
v -0.287610 -0.919012 0.058222
v -0.455725 -0.973727 0.058222
v -0.283058 -0.881689 0.058222
v 0.177632 -1.122951 0.058222
v -0.218608 -1.103065 0.058222
v -0.219152 -1.144269 0.058222
v -0.231677 -1.107684 0.058222
v 0.147192 -1.254784 0.058222
v 0.218340 -1.228847 0.058222
v -0.346858 -1.240557 0.058222
v -0.220577 -1.246608 0.058222
v -0.126206 -1.286749 0.058222
v 0.102991 -1.289243 0.058222
v -0.083352 -1.331163 0.058222
v -0.095489 -1.335067 0.058222
v 0.016000 -1.385531 0.058222
v -0.081618 -1.371327 0.058222
v 0.411494 -1.462304 0.080157
v 0.411494 -1.462304 0.067148
v 0.458899 -1.514475 0.080157
v 0.458899 -1.514475 0.067148
v 0.758980 -1.697554 0.080157
v 0.698822 -1.566571 0.080157
v 0.698822 -1.566571 0.067148
v 0.758980 -1.697554 0.067148
v 0.654458 -1.515658 0.067148
v 0.654458 -1.515658 0.080157
v 0.411494 -1.462304 0.067148
v 0.520887 -1.496269 0.067148
v 0.458899 -1.514475 0.067148
v 0.567799 -1.224684 0.067148
v 0.591247 -1.495086 0.067148
v 0.420962 -1.119231 0.067148
v 0.682507 -1.366545 0.067148
v 0.301657 -1.278039 0.067148
v 0.654458 -1.515658 0.067148
v 0.337925 -1.434405 0.067148
v 0.743177 -1.478065 0.067148
v 0.230582 -1.427153 0.067148
v 0.217539 -1.333836 0.067148
v 0.182574 -1.345899 0.067148
v 0.698822 -1.566571 0.067148
v 0.759492 -1.579966 0.067148
v 0.758980 -1.697554 0.067148
v -0.498088 -1.495086 0.067148
v -0.474640 -1.224684 0.067148
v -0.427728 -1.496269 0.067148
v -0.589354 -1.366545 0.067148
v -0.561315 -1.515658 0.067148
v -0.650024 -1.478065 0.067148
v -0.605669 -1.566571 0.067148
v -0.666339 -1.579966 0.067148
v -0.665830 -1.697554 0.067148
v -0.318335 -1.462304 0.067148
v -0.365755 -1.514475 0.067148
v -0.327803 -1.119231 0.067148
v -0.208498 -1.278039 0.067148
v -0.244782 -1.434405 0.067148
v -0.137423 -1.427153 0.067148
v -0.124380 -1.333836 0.067148
v -0.089414 -1.345899 0.067148
v -0.318335 -1.462304 0.080157
v -0.365755 -1.514475 0.080157
v -0.318335 -1.462304 0.067148
v -0.365755 -1.514475 0.067148
v -0.605669 -1.566571 0.080157
v -0.665830 -1.697554 0.080157
v -0.605669 -1.566571 0.067148
v -0.665830 -1.697554 0.067148
v -0.561315 -1.515658 0.067148
v -0.561315 -1.515658 0.080157
v 0.458899 -1.514475 0.067148
v 0.520887 -1.496269 0.067148
v 0.458899 -1.514475 0.080157
v 0.520887 -1.496269 0.080157
v 0.411494 -1.462304 0.080157
v 0.411494 -1.462304 0.067148
v 0.337925 -1.434405 0.067148
v 0.337925 -1.434405 0.080157
v 0.230582 -1.427153 0.067148
v 0.230582 -1.427153 0.080157
v -0.318335 -1.462304 0.080157
v -0.318335 -1.462304 0.067148
v -0.244782 -1.434405 0.067148
v -0.244782 -1.434405 0.080157
v -0.137423 -1.427153 0.067148
v -0.137423 -1.427153 0.080157
v -0.561315 -1.515658 0.067148
v -0.561315 -1.515658 0.080157
v -0.498088 -1.495086 0.067148
v -0.498088 -1.495086 0.080157
v -0.427728 -1.496269 0.067148
v -0.427728 -1.496269 0.080157
v -0.365755 -1.514475 0.080157
v -0.365755 -1.514475 0.067148
v 0.654458 -1.515658 0.067148
v 0.654458 -1.515658 0.080157
v 0.591247 -1.495086 0.067148
v 0.591247 -1.495086 0.080157
v 0.520887 -1.496269 0.067148
v 0.520887 -1.496269 0.080157
v 0.591247 -1.495086 0.080157
v 0.567799 -1.224684 0.080157
v 0.520887 -1.496269 0.080157
v 0.682507 -1.366545 0.080157
v 0.654458 -1.515658 0.080157
v 0.743177 -1.478065 0.080157
v 0.698822 -1.566571 0.080157
v 0.759492 -1.579966 0.080157
v 0.758980 -1.697554 0.080157
v 0.411494 -1.462304 0.080157
v 0.458899 -1.514475 0.080157
v 0.420962 -1.119231 0.080157
v 0.301657 -1.278039 0.080157
v 0.337925 -1.434405 0.080157
v 0.230582 -1.427153 0.080157
v 0.217539 -1.333836 0.080157
v 0.182574 -1.345899 0.080157
v -0.605669 -1.566571 0.080157
v -0.650024 -1.478065 0.080157
v -0.666339 -1.579966 0.080157
v -0.665830 -1.697554 0.080157
v -0.561315 -1.515658 0.080157
v -0.589354 -1.366545 0.080157
v -0.498088 -1.495086 0.080157
v -0.474640 -1.224684 0.080157
v -0.427728 -1.496269 0.080157
v -0.318335 -1.462304 0.080157
v -0.365755 -1.514475 0.080157
v -0.327803 -1.119231 0.080157
v -0.208498 -1.278039 0.080157
v -0.244782 -1.434405 0.080157
v -0.137423 -1.427153 0.080157
v -0.124380 -1.333836 0.080157
v -0.089414 -1.345899 0.080157
vn -0.0000 -0.0000 1.0000
vn -0.0000 -0.0000 -1.0000
vn -0.5774 -0.8165 -0.0000
vn -0.7401 -0.6725 -0.0000
vn -0.7406 -0.6719 -0.0000
vn -0.9087 -0.4174 -0.0000
vn -0.8466 -0.5322 -0.0000
vn -0.9091 -0.4167 -0.0000
vn -0.5742 -0.8187 -0.0000
vn 0.5774 -0.8165 -0.0000
vn 0.7400 -0.6726 -0.0000
vn 0.8466 -0.5322 -0.0000
vn 0.9087 -0.4174 -0.0000
vn 0.5741 -0.8188 -0.0000
vn 0.2620 -0.9651 -0.0000
vn 0.1175 -0.9931 -0.0000
vn -0.6029 -0.7978 -0.0000
vn -0.2180 -0.9760 -0.0000
vn -0.6681 -0.7441 -0.0000
vn 0.6029 -0.7978 -0.0000
vn 0.2180 -0.9759 -0.0000
vn 0.6682 -0.7440 -0.0000
vn 0.1553 -0.9879 -0.0000
vn 0.6069 -0.7948 -0.0000
vn -0.1549 -0.9879 -0.0000
vn -0.2619 -0.9651 -0.0000
vn -0.6069 -0.7948 -0.0000
vn -0.1553 -0.9879 -0.0000
vn 0.1921 -0.9814 -0.0000
vt 13.856000 -34.973499
vt 13.894900 -34.844700
vt 13.848500 -34.833900
vt 13.885800 -34.819599
vt 13.889900 -35.018501
vt 13.892000 -34.973999
vt 13.841500 -34.973301
vt 13.843200 -34.977901
vt 13.833800 -34.976200
vt 13.906100 -34.940800
vt 13.907100 -34.860199
vt 13.921800 -34.925800
vt 13.923200 -34.930000
vt 13.940800 -34.890800
vt 13.935900 -34.925201
vt 13.775200 -34.870499
vt 13.812800 -34.984299
vt 13.829100 -34.983002
vt 13.800700 -34.998001
vt 13.776700 -34.997601
vt 13.796000 -35.056801
vt 13.759100 -34.973801
vt 13.763600 -34.995998
vt 13.714700 -34.910999
vt 13.752100 -34.990898
vt 13.743200 -35.000599
vt 13.733500 -35.017601
vt 13.743500 -35.004700
vt 13.693000 -35.042301
vt 13.722200 -35.047001
vt 13.665100 -34.962200
vt 13.695700 -35.058800
vt 13.709100 -35.077900
vt 13.704500 -35.104900
vt 13.685700 -35.038502
vt 13.668200 -35.028500
vt 13.672900 -35.039501
vt 13.619500 -35.030499
vt 13.647900 -35.056900
vt 13.640600 -35.059101
vt 13.637400 -35.076099
vt 13.629700 -35.088600
vt 13.616600 -35.091599
vt 13.579800 -35.120098
vt 13.612800 -35.108700
vt 13.560800 -35.180401
vt 14.247900 -34.990898
vt 14.285300 -34.910999
vt 14.240900 -34.973801
vt 14.256800 -35.000599
vt 14.266500 -35.017601
vt 14.256500 -35.004700
vt 14.307000 -35.042301
vt 14.277800 -35.047001
vt 14.334900 -34.962200
vt 14.304300 -35.058800
vt 14.290900 -35.077900
vt 14.295500 -35.104900
vt 14.314300 -35.038502
vt 14.331800 -35.028500
vt 14.327100 -35.039501
vt 14.380500 -35.030499
vt 14.352100 -35.056900
vt 14.359400 -35.059101
vt 14.362600 -35.076099
vt 14.370300 -35.088600
vt 14.383400 -35.091599
vt 14.420200 -35.120098
vt 14.387200 -35.108700
vt 14.439200 -35.180401
vt 14.224800 -34.870499
vt 14.166200 -34.976200
vt 14.187200 -34.984299
vt 14.170900 -34.983002
vt 14.199300 -34.998001
vt 14.223300 -34.997601
vt 14.204000 -35.056801
vt 14.236400 -34.995998
vt 14.151500 -34.833900
vt 14.158500 -34.973301
vt 14.144000 -34.973499
vt 14.156800 -34.977901
vt 14.105100 -34.844700
vt 14.114200 -34.819599
vt 14.110100 -35.018501
vt 14.108000 -34.973999
vt 14.093900 -34.940800
vt 14.092900 -34.860199
vt 14.078200 -34.925800
vt 14.076800 -34.930000
vt 14.059200 -34.890800
vt 14.064100 -34.925201
vt 4.000670 -39.030300
vt 3.999330 -39.030300
vt 4.000670 -39.035702
vt 3.999330 -39.035702
vt 4.000670 -39.054699
vt 4.000670 -39.041100
vt 3.999330 -39.041100
vt 3.999330 -39.054699
vt 3.999330 -39.035900
vt 4.000670 -39.035900
vt 3.971290 -39.030300
vt 3.962680 -39.033901
vt 3.967560 -39.035702
vt 3.958990 -39.005798
vt 3.957140 -39.033699
vt 3.970540 -38.994999
vt 3.949960 -39.020500
vt 3.979930 -39.011299
vt 3.952170 -39.035900
vt 3.977070 -39.027500
vt 3.945190 -39.032001
vt 3.985520 -39.026699
vt 3.986550 -39.017101
vt 3.989300 -39.018398
vt 3.948680 -39.041100
vt 3.943900 -39.042500
vt 3.943940 -39.054699
vt 4.042860 -39.033699
vt 4.041010 -39.005798
vt 4.037320 -39.033901
vt 4.050040 -39.020500
vt 4.047830 -39.035900
vt 4.054810 -39.032001
vt 4.051320 -39.041100
vt 4.056100 -39.042500
vt 4.056060 -39.054699
vt 4.028710 -39.030300
vt 4.032440 -39.035702
vt 4.029460 -38.994999
vt 4.020070 -39.011299
vt 4.022930 -39.027500
vt 4.014480 -39.026699
vt 4.013450 -39.017101
vt 4.010700 -39.018398
vt 3.967560 -38.999298
vt 3.962680 -38.999298
vt 3.967560 -39.000702
vt 3.962680 -39.000702
vt 3.971290 -39.000702
vt 3.977070 -38.999298
vt 3.971290 -38.999298
vt 3.977070 -39.000702
vt 3.985520 -38.999298
vt 3.985520 -39.000702
vt 4.028710 -38.999298
vt 4.022930 -38.999298
vt 4.028710 -39.000702
vt 4.022930 -39.000702
vt 4.014480 -38.999298
vt 4.014480 -39.000702
vt 4.042860 -38.999298
vt 4.047830 -39.000702
vt 4.047830 -38.999298
vt 4.042860 -39.000702
vt 4.037320 -38.999298
vt 4.037320 -39.000702
vt 4.032440 -39.000702
vt 4.032440 -38.999298
vt 3.952170 -39.000702
vt 3.957140 -38.999298
vt 3.952170 -38.999298
vt 3.957140 -39.000702
s 1
usemtl Material.007
f 1/1/1 2/2/1 3/3/1
f 3/3/1 2/2/1 4/4/1
f 1/1/1 5/5/1 6/6/1
f 1/1/1 3/3/1 7/7/1
f 1/1/1 7/7/1 8/8/1
f 3/3/1 9/9/1 7/7/1
f 10/10/1 1/1/1 6/6/1
f 2/2/1 1/1/1 10/10/1
f 2/2/1 10/10/1 11/11/1
f 11/11/1 10/10/1 12/12/1
f 12/12/1 10/10/1 13/13/1
f 11/11/1 12/12/1 14/14/1
f 14/14/1 12/12/1 15/15/1
f 16/16/1 9/9/1 3/3/1
f 9/9/1 17/17/1 18/18/1
f 9/9/1 16/16/1 17/17/1
f 16/16/1 19/19/1 17/17/1
f 19/19/1 16/16/1 20/20/1
f 20/20/1 21/21/1 19/19/1
f 20/20/1 16/16/1 22/22/1
f 20/20/1 22/22/1 23/23/1
f 24/24/1 22/22/1 16/16/1
f 24/24/1 25/25/1 22/22/1
f 25/25/1 24/24/1 26/26/1
f 27/27/1 26/26/1 24/24/1
f 26/26/1 27/27/1 28/28/1
f 29/29/1 27/27/1 24/24/1
f 27/27/1 29/29/1 30/30/1
f 31/31/1 29/29/1 24/24/1
f 30/30/1 29/29/1 32/32/1
f 30/30/1 32/32/1 33/33/1
f 32/32/1 34/34/1 33/33/1
f 29/29/1 31/31/1 35/35/1
f 35/35/1 31/31/1 36/36/1
f 35/35/1 36/36/1 37/37/1
f 38/38/1 36/36/1 31/31/1
f 36/36/1 38/38/1 39/39/1
f 39/39/1 38/38/1 40/40/1
f 38/38/1 41/41/1 40/40/1
f 38/38/1 42/42/1 41/41/1
f 42/42/1 38/38/1 43/43/1
f 44/44/1 43/43/1 38/38/1
f 43/43/1 44/44/1 45/45/1
f 44/44/1 46/46/1 45/45/1
f 47/47/2 48/48/2 49/49/2
f 48/48/2 47/47/2 50/50/2
f 51/51/2 48/48/2 50/50/2
f 52/52/2 51/51/2 50/50/2
f 53/53/2 48/48/2 51/51/2
f 53/53/2 51/51/2 54/54/2
f 48/48/2 53/53/2 55/55/2
f 54/54/2 56/56/2 53/53/2
f 56/56/2 54/54/2 57/57/2
f 57/57/2 58/58/2 56/56/2
f 55/55/2 53/53/2 59/59/2
f 55/55/2 59/59/2 60/60/2
f 60/60/2 59/59/2 61/61/2
f 55/55/2 60/60/2 62/62/2
f 63/63/2 62/62/2 60/60/2
f 62/62/2 63/63/2 64/64/2
f 65/65/2 62/62/2 64/64/2
f 62/62/2 65/65/2 66/66/2
f 62/62/2 66/66/2 67/67/2
f 62/62/2 67/67/2 68/68/2
f 67/67/2 69/69/2 68/68/2
f 69/69/2 70/70/2 68/68/2
f 71/71/2 72/72/2 73/73/2
f 72/72/2 74/74/2 73/73/2
f 75/75/2 71/71/2 73/73/2
f 71/71/2 75/75/2 76/76/2
f 75/75/2 77/77/2 76/76/2
f 71/71/2 76/76/2 49/49/2
f 49/49/2 76/76/2 78/78/2
f 71/71/2 49/49/2 48/48/2
f 72/72/2 71/71/2 79/79/2
f 79/79/2 80/80/2 72/72/2
f 81/81/2 80/80/2 79/79/2
f 80/80/2 81/81/2 82/82/2
f 79/79/2 83/83/2 81/81/2
f 83/83/2 79/79/2 84/84/2
f 85/85/2 81/81/2 86/86/2
f 81/81/2 87/87/2 86/86/2
f 83/83/2 87/87/2 81/81/2
f 87/87/2 83/83/2 88/88/2
f 87/87/2 88/88/2 89/89/2
f 90/90/2 87/87/2 89/89/2
f 91/91/2 89/89/2 88/88/2
f 89/89/2 91/91/2 92/92/2
f 93/93/3 94/94/3 95/95/4
f 95/95/4 94/94/3 96/96/5
f 97/97/6 98/98/7 99/99/7
f 99/99/7 100/100/8 97/97/6
f 98/98/7 101/101/9 99/99/7
f 98/98/7 102/102/9 101/101/9
f 103/103/2 104/104/2 105/105/2
f 104/104/2 103/103/2 106/106/2
f 104/104/2 106/106/2 107/107/2
f 103/103/2 108/108/2 106/106/2
f 109/109/2 107/107/2 106/106/2
f 108/108/2 103/103/2 110/110/2
f 107/107/2 109/109/2 111/111/2
f 110/110/2 103/103/2 112/112/2
f 113/113/2 111/111/2 109/109/2
f 114/114/2 110/110/2 112/112/2
f 110/110/2 114/114/2 115/115/2
f 115/115/2 114/114/2 116/116/2
f 111/111/2 113/113/2 117/117/2
f 117/117/2 113/113/2 118/118/2
f 118/118/2 119/119/2 117/117/2
f 120/120/2 121/121/2 122/122/2
f 121/121/2 120/120/2 123/123/2
f 124/124/2 123/123/2 120/120/2
f 123/123/2 124/124/2 125/125/2
f 126/126/2 125/125/2 124/124/2
f 126/126/2 127/127/2 125/125/2
f 127/127/2 126/126/2 128/128/2
f 129/129/2 122/122/2 121/121/2
f 122/122/2 129/129/2 130/130/2
f 129/129/2 121/121/2 131/131/2
f 132/132/2 129/129/2 131/131/2
f 129/129/2 132/132/2 133/133/2
f 132/132/2 134/134/2 133/133/2
f 134/134/2 132/132/2 135/135/2
f 134/134/2 135/135/2 136/136/2
f 137/94/10 138/96/11 139/93/10
f 138/96/11 140/95/11 139/93/10
f 141/99/12 142/100/13 143/98/12
f 143/98/12 142/100/13 144/97/13
f 145/102/14 141/99/12 143/98/12
f 141/99/12 145/102/14 146/101/14
f 147/137/15 148/138/16 149/139/15
f 150/140/16 149/139/15 148/138/16
f 151/141/17 153/142/18 152/143/17
f 151/141/17 154/144/18 153/142/18
f 154/144/18 155/145/19 153/142/18
f 154/144/18 156/146/19 155/145/19
f 158/147/20 159/148/21 157/149/20
f 160/150/21 157/149/20 159/148/21
f 159/148/21 161/151/22 160/150/21
f 162/152/22 160/150/21 161/151/22
f 165/153/23 164/154/24 163/155/24
f 164/154/24 165/153/23 166/156/23
f 167/157/25 166/156/23 165/153/23
f 166/156/23 167/157/25 168/158/25
f 169/159/26 168/158/25 167/157/25
f 169/159/26 167/157/25 170/160/26
f 172/161/27 173/162/28 171/163/27
f 172/161/27 174/164/28 173/162/28
f 174/164/28 175/138/29 173/162/28
f 174/164/28 176/140/29 175/138/29
f 177/120/1 178/121/1 179/122/1
f 178/121/1 177/120/1 180/123/1
f 181/124/1 180/123/1 177/120/1
f 181/124/1 182/125/1 180/123/1
f 182/125/1 181/124/1 183/126/1
f 182/125/1 183/126/1 184/127/1
f 184/127/1 183/126/1 185/128/1
f 178/121/1 186/129/1 179/122/1
f 187/130/1 179/122/1 186/129/1
f 188/131/1 186/129/1 178/121/1
f 189/132/1 186/129/1 188/131/1
f 186/129/1 189/132/1 190/133/1
f 189/132/1 191/134/1 190/133/1
f 191/134/1 189/132/1 192/135/1
f 191/134/1 192/135/1 193/136/1
f 194/117/1 195/113/1 196/118/1
f 196/118/1 197/119/1 194/117/1
f 195/113/1 194/117/1 198/111/1
f 195/113/1 198/111/1 199/109/1
f 200/107/1 199/109/1 198/111/1
f 199/109/1 200/107/1 201/106/1
f 202/104/1 201/106/1 200/107/1
f 203/103/1 201/106/1 202/104/1
f 203/103/1 202/104/1 204/105/1
f 201/106/1 203/103/1 205/108/1
f 203/103/1 206/110/1 205/108/1
f 206/110/1 203/103/1 207/112/1
f 208/114/1 206/110/1 207/112/1
f 206/110/1 208/114/1 209/115/1
f 209/115/1 208/114/1 210/116/1
