# Blender 5.2.0 LTS
# www.blender.org
mtllib deagle mag.mtl
o deagle_mag
v -0.125044 0.161718 0.044243
v -0.122145 0.161718 0.037142
v -0.125044 0.161718 0.037142
v -0.125044 0.161718 0.044243
v -0.122145 0.161718 0.041742
v -0.122145 0.161718 0.037142
v -0.053549 0.161838 0.044243
v -0.053549 0.161838 0.041742
v -0.024344 0.161898 0.044243
v -0.024344 0.161898 0.041742
v -0.013647 0.161918 0.044243
v -0.013647 0.161918 0.041742
v -0.024344 0.161898 -0.041758
v -0.013647 0.161918 -0.041758
v -0.013647 0.161918 -0.044258
v -0.024344 0.161898 -0.041758
v -0.013647 0.161918 -0.044258
v -0.024344 0.161898 -0.044258
v -0.053549 0.161838 -0.041758
v -0.053549 0.161838 -0.044258
v -0.122145 0.161718 -0.041758
v -0.125044 0.161718 -0.044258
v -0.122145 0.161718 -0.037157
v -0.125044 0.161718 -0.037157
v 0.078150 0.136078 -0.000057
v 0.078150 0.136078 0.000042
v 0.080751 0.134928 0.000042
v 0.080751 0.134928 0.000042
v 0.078150 0.136078 0.000042
v 0.078150 0.136078 0.000042
v 0.078150 0.136078 0.000042
v 0.080851 0.134918 0.000042
v 0.080751 0.134928 0.000042
v 0.078150 0.136078 0.000042
v 0.078150 0.136088 0.000042
v 0.078150 0.136078 0.000042
v 0.080851 0.134918 0.000042
v 0.075457 0.138388 0.018343
v 0.078257 0.137158 0.018343
v 0.080851 0.134918 0.000042
v 0.078150 0.136078 0.000042
v 0.075457 0.138388 0.018343
v 0.080751 0.134928 0.000042
v 0.080851 0.134918 -0.000057
v 0.078150 0.136078 -0.000057
v 0.080851 0.134918 -0.000057
v 0.075457 0.138388 -0.018358
v 0.078150 0.136078 -0.000057
v 0.078257 0.137158 -0.018358
v 0.078257 0.137158 0.018343
v 0.069155 0.143468 0.036543
v 0.071855 0.142298 0.036543
v 0.078257 0.137158 0.018343
v 0.075457 0.138388 0.018343
v 0.069155 0.143468 0.036543
v 0.078257 0.137158 -0.018358
v 0.069155 0.143468 -0.036558
v 0.075457 0.138388 -0.018358
v 0.071855 0.142298 -0.036558
v 0.078150 0.136078 0.000042
v 0.078150 0.136078 -0.000057
v 0.078150 0.136088 0.000042
v 0.044657 0.162018 0.054842
v 0.069155 0.143468 0.036543
v 0.043955 0.162018 0.051943
v -0.123648 0.147028 0.000042
v -0.123648 0.147028 -0.018057
v -0.125151 0.147028 0.000042
v -0.126646 0.147028 -0.018057
v -0.126646 0.147028 0.000042
v -0.123648 0.147028 -0.018057
v -0.125151 0.147028 0.000042
v -0.126646 0.147028 0.000042
v -0.126646 0.147028 0.018042
v -0.123648 0.147028 0.018042
v -0.123648 0.147028 0.000042
v 0.044657 0.162018 -0.054758
v 0.043955 0.162018 -0.051958
v 0.069155 0.143468 -0.036558
v 0.002649 -0.468702 0.036343
v -0.047644 -0.464262 0.065542
v 0.012255 -0.468682 0.018042
v -0.227049 -0.469092 0.000042
v -0.047644 -0.464262 -0.065557
v 0.015352 -0.468672 0.000042
v 0.049456 -0.464092 0.054543
v -0.047644 -0.464262 0.065542
v -0.047644 -0.464262 0.054543
v 0.049456 -0.464092 0.054543
v 0.025354 -0.464132 0.065542
v -0.047644 -0.464262 0.065542
v 0.049456 -0.464092 -0.054558
v -0.047644 -0.464262 -0.065557
v 0.025354 -0.464132 -0.065557
v 0.049456 -0.464092 -0.054558
v -0.047644 -0.464262 -0.054558
v -0.047644 -0.464262 -0.065557
v -0.047644 -0.464262 -0.054558
v 0.049456 -0.464092 -0.054558
v 0.002649 -0.464172 -0.036358
v 0.049456 -0.464092 -0.054558
v 0.068453 -0.464062 -0.036358
v 0.002649 -0.464172 -0.036358
v 0.002649 -0.464172 -0.036358
v 0.068453 -0.464062 -0.036358
v 0.077249 -0.464042 -0.018057
v 0.002649 -0.464172 -0.036358
v 0.077249 -0.464042 -0.018057
v 0.012255 -0.464162 -0.018057
v 0.012255 -0.464162 -0.018057
v 0.077249 -0.464042 -0.018057
v 0.080751 -0.464032 0.000042
v 0.080751 -0.464032 0.000042
v 0.080156 -0.464042 0.000042
v 0.012255 -0.464162 -0.018057
v 0.012255 -0.464162 0.018042
v 0.080156 -0.464042 0.000042
v 0.080751 -0.464032 0.000042
v 0.012255 -0.464162 0.018042
v 0.015352 -0.464152 0.000042
v 0.080156 -0.464042 0.000042
v 0.012255 -0.464162 -0.018057
v 0.080156 -0.464042 0.000042
v 0.015352 -0.464152 0.000042
v 0.080751 -0.464032 0.000042
v 0.077249 -0.464042 0.018042
v 0.012255 -0.464162 0.018042
v 0.002649 -0.464172 0.036343
v 0.012255 -0.464162 0.018042
v 0.077249 -0.464042 0.018042
v -0.047644 -0.464262 0.054543
v 0.049456 -0.464092 0.054543
v 0.002649 -0.464172 0.036343
v 0.077249 -0.464042 0.018042
v 0.068453 -0.464062 0.036343
v 0.049456 -0.464092 0.054543
v 0.002649 -0.464172 0.036343
v 0.068453 -0.464062 0.036343
v -0.227545 -0.469112 -0.065558
v -0.047644 -0.464262 -0.065557
v -0.227049 -0.469092 0.000042
v -0.227049 -0.469092 0.000042
v -0.047644 -0.464262 0.065542
v -0.227545 -0.469112 0.065542
v -0.047644 -0.464262 0.065542
v 0.015352 -0.468672 0.000042
v 0.012255 -0.468682 0.018042
v -0.047644 -0.464262 -0.065557
v 0.012255 -0.468682 -0.018057
v 0.002649 -0.468702 -0.036358
v -0.227049 -0.469092 0.000042
v -0.227545 -0.469112 0.000042
v -0.227545 -0.469112 -0.065558
v -0.227545 -0.469112 0.065542
v -0.227545 -0.469112 0.000042
v -0.227049 -0.469092 0.000042
v 0.002649 -0.468702 0.036343
v -0.017950 -0.467412 0.054642
v -0.047644 -0.464262 0.065542
v -0.047644 -0.464262 -0.065557
v -0.017950 -0.467412 -0.054657
v 0.002649 -0.468702 -0.036358
v 0.044657 0.162018 0.054842
v 0.071855 0.142298 0.036543
v 0.069155 0.143468 0.036543
v 0.044657 0.162018 -0.054758
v 0.069155 0.143468 -0.036558
v 0.071855 0.142298 -0.036558
v -0.125044 0.161718 0.037142
v -0.123648 0.147028 0.018042
v -0.126646 0.147028 0.018042
v -0.125044 0.161718 0.037142
v -0.122145 0.161718 0.037142
v -0.123648 0.147028 0.018042
v -0.125044 0.161718 -0.037157
v -0.123648 0.147028 -0.018057
v -0.122145 0.161718 -0.037157
v -0.126646 0.147028 -0.018057
v -0.015249 0.147228 0.054543
v -0.025045 0.154548 0.049442
v -0.025847 0.147208 0.054543
v -0.013647 0.161918 0.044243
v -0.024344 0.161898 0.044243
v -0.025045 0.154548 0.049442
v -0.013647 0.161918 0.044243
v -0.053549 0.161838 0.044243
v -0.054350 0.154498 0.049442
v -0.125044 0.161718 0.044243
v -0.055143 0.147158 0.054543
v -0.126646 0.147028 0.054543
v -0.055143 0.147158 -0.054558
v -0.126646 0.147028 -0.054558
v -0.125044 0.161718 -0.044258
v -0.054350 0.154498 -0.049358
v -0.053549 0.161838 -0.044258
v -0.025045 0.154548 -0.049358
v -0.024344 0.161898 -0.044258
v -0.013647 0.161918 -0.044258
v -0.015249 0.147228 -0.054558
v -0.015249 0.147228 -0.054558
v -0.025847 0.147208 -0.054558
v -0.025045 0.154548 -0.049358
v -0.025847 0.147208 0.052343
v -0.025045 0.154548 0.047243
v -0.054350 0.154498 0.049442
v -0.054350 0.154498 -0.049358
v -0.025045 0.154548 -0.047258
v -0.025847 0.147208 -0.052357
v -0.227545 -0.454762 -0.065558
v -0.227049 -0.469092 0.000042
v -0.227545 -0.454762 0.000042
v -0.227545 -0.454762 0.065542
v -0.227545 -0.454762 0.000042
v -0.227049 -0.469092 0.000042
v -0.227545 -0.469112 0.000042
v -0.227545 -0.469112 0.065542
v -0.227545 -0.454762 0.065542
v -0.227545 -0.454762 -0.065558
v -0.227545 -0.469112 -0.065558
v -0.227545 -0.469112 0.000042
v -0.057051 0.021068 0.054543
v -0.061949 0.021058 0.052343
v -0.061949 0.021058 0.054543
v -0.057051 0.021068 0.052343
v -0.057051 0.021068 -0.054558
v -0.061949 0.021058 -0.052357
v -0.057051 0.021068 -0.052357
v -0.061949 0.021058 -0.054558
v -0.050749 0.023388 0.054543
v -0.057051 0.021068 0.052343
v -0.057051 0.021068 0.054543
v -0.050749 0.023388 0.052343
v -0.050749 0.023378 -0.054558
v -0.057051 0.021068 -0.052357
v -0.050749 0.023378 -0.052357
v -0.057051 0.021068 -0.054558
v -0.055143 0.147158 0.052343
v -0.025847 0.147208 0.052343
v -0.054350 0.154498 0.049442
v -0.054350 0.154498 -0.049358
v -0.025847 0.147208 -0.052357
v -0.055143 0.147158 -0.052357
v -0.061949 0.021058 0.054543
v -0.067747 0.023728 0.052343
v -0.067747 0.023728 0.054543
v -0.061949 0.021058 0.052343
v -0.061949 0.021058 -0.054558
v -0.067747 0.023728 -0.052357
v -0.061949 0.021058 -0.052357
v -0.067747 0.023728 -0.054558
v -0.043547 0.029628 0.054543
v -0.050749 0.023388 0.052343
v -0.050749 0.023388 0.054543
v -0.043547 0.029628 0.054543
v -0.043547 0.029628 0.052343
v -0.050749 0.023388 0.052343
v -0.043547 0.029628 -0.054558
v -0.050749 0.023378 -0.052357
v -0.043547 0.029628 -0.052357
v -0.043547 0.029628 -0.054558
v -0.050749 0.023378 -0.054558
v -0.050749 0.023378 -0.052357
v -0.216246 -0.449382 0.000042
v -0.126646 0.147028 -0.018057
v -0.126646 0.147028 -0.054558
v -0.126646 0.147028 0.000042
v -0.216848 -0.452962 0.000042
v -0.217047 -0.454742 -0.054558
v -0.217047 -0.454742 0.000042
v -0.126646 0.147028 0.000042
v -0.216246 -0.449382 0.000042
v -0.126646 0.147028 0.018042
v -0.126646 0.147028 0.054543
v -0.216848 -0.452962 0.000042
v -0.217047 -0.454742 0.054543
v -0.217047 -0.454742 0.000042
v 0.080751 -0.464032 0.000042
v 0.081156 -0.453842 0.000042
v 0.077249 -0.464042 0.018042
v 0.080751 -0.464032 0.000042
v 0.077249 -0.464042 -0.018057
v 0.081156 -0.453842 0.000042
v -0.125044 0.161718 0.037142
v -0.126646 0.147028 0.054543
v -0.125044 0.161718 0.044243
v -0.126646 0.147028 0.018042
v -0.125044 0.161718 -0.037157
v -0.126646 0.147028 -0.054558
v -0.126646 0.147028 -0.018057
v -0.125044 0.161718 -0.044258
v 0.077249 -0.454222 0.018042
v 0.077249 -0.464042 0.018042
v 0.081156 -0.453842 0.000042
v 0.081156 -0.453842 0.000042
v 0.077249 -0.464042 -0.018057
v 0.077249 -0.454222 -0.018057
v 0.077249 -0.454222 0.018042
v 0.068453 -0.464062 0.036343
v 0.077249 -0.464042 0.018042
v 0.077249 -0.454222 0.018042
v 0.068453 -0.454232 0.036343
v 0.068453 -0.464062 0.036343
v 0.077249 -0.454222 -0.018057
v 0.068453 -0.464062 -0.036358
v 0.068453 -0.454232 -0.036358
v 0.077249 -0.454222 -0.018057
v 0.077249 -0.464042 -0.018057
v 0.068453 -0.464062 -0.036358
v 0.068453 -0.454232 0.036343
v 0.049456 -0.464092 0.054543
v 0.068453 -0.464062 0.036343
v 0.068453 -0.454232 0.036343
v 0.049456 -0.454272 0.054543
v 0.049456 -0.464092 0.054543
v 0.068453 -0.454232 -0.036358
v 0.049456 -0.464092 -0.054558
v 0.049456 -0.454272 -0.054558
v 0.068453 -0.454232 -0.036358
v 0.068453 -0.464062 -0.036358
v 0.049456 -0.464092 -0.054558
v -0.067747 0.023728 0.054543
v -0.072844 0.029568 0.052343
v -0.072844 0.029568 0.054543
v -0.067747 0.023728 0.052343
v -0.067747 0.023728 -0.054558
v -0.072844 0.029568 -0.052357
v -0.067747 0.023728 -0.052357
v -0.072844 0.029568 -0.054558
v 0.049456 -0.454272 0.054543
v 0.025354 -0.464132 0.065542
v 0.049456 -0.464092 0.054543
v 0.049456 -0.454272 0.054543
v 0.025354 -0.454312 0.065542
v 0.025354 -0.464132 0.065542
v 0.049456 -0.454272 -0.054558
v 0.025354 -0.464132 -0.065557
v 0.025354 -0.454312 -0.065557
v 0.049456 -0.454272 -0.054558
v 0.049456 -0.464092 -0.054558
v 0.025354 -0.464132 -0.065557
v 0.053354 -0.053242 0.000042
v 0.080851 0.134918 -0.000057
v 0.080751 0.134928 0.000042
v 0.053354 -0.053242 0.000042
v 0.080751 0.134928 0.000042
v 0.080851 0.134918 0.000042
v 0.053354 -0.053242 0.000042
v -0.005247 -0.454372 0.000042
v -0.008650 -0.454372 -0.018057
v 0.080851 0.134918 -0.000057
v 0.078257 0.137158 -0.018358
v -0.008650 -0.454372 0.018042
v 0.080851 0.134918 0.000042
v 0.078257 0.137158 0.018343
v 0.053354 -0.053242 0.000042
v -0.005247 -0.454372 0.000042
v -0.016951 -0.454392 0.036343
v -0.008650 -0.454372 0.018042
v 0.078257 0.137158 0.018343
v -0.016951 -0.454392 0.036343
v 0.078257 0.137158 0.018343
v 0.071855 0.142298 0.036543
v -0.016951 -0.454392 -0.036358
v 0.078257 0.137158 -0.018358
v -0.008650 -0.454372 -0.018057
v -0.016951 -0.454392 -0.036358
v 0.071855 0.142298 -0.036558
v 0.078257 0.137158 -0.018358
v -0.047644 -0.464262 0.065542
v -0.227545 -0.454762 0.065542
v -0.227545 -0.469112 0.065542
v -0.047644 -0.464262 0.065542
v -0.047644 -0.454442 0.065542
v -0.227545 -0.454762 0.065542
v 0.025354 -0.454312 0.065542
v -0.047644 -0.464262 0.065542
v 0.025354 -0.464132 0.065542
v 0.025354 -0.454312 0.065542
v -0.047644 -0.464262 -0.065557
v 0.025354 -0.454312 -0.065557
v 0.025354 -0.464132 -0.065557
v -0.047644 -0.464262 -0.065557
v -0.047644 -0.454442 -0.065557
v 0.025354 -0.454312 -0.065557
v -0.227545 -0.454762 -0.065558
v -0.047644 -0.464262 -0.065557
v -0.227545 -0.469112 -0.065558
v -0.227545 -0.454762 -0.065558
v 0.044657 0.162018 0.054842
v -0.016951 -0.454392 0.036343
v 0.071855 0.142298 0.036543
v -0.047644 -0.454442 0.054543
v 0.044657 0.162018 -0.054758
v -0.016951 -0.454392 -0.036358
v -0.047644 -0.454442 -0.054558
v 0.071855 0.142298 -0.036558
v -0.047644 -0.464262 0.065542
v -0.017950 -0.467412 0.054642
v -0.017950 -0.464212 0.054642
v -0.047644 -0.464262 -0.065557
v -0.017950 -0.464212 -0.054657
v -0.017950 -0.467412 -0.054657
v -0.047644 -0.464262 0.054543
v -0.047644 -0.464262 0.054543
v -0.017950 -0.464212 0.054642
v -0.047644 -0.464262 -0.054558
v -0.017950 -0.464212 -0.054657
v -0.047644 -0.464262 -0.054558
v -0.043547 0.029628 0.054543
v -0.015249 0.147228 0.054543
v -0.025847 0.147208 0.054543
v -0.017950 -0.467412 0.054642
v 0.002649 -0.464172 0.036343
v -0.017950 -0.464212 0.054642
v -0.017950 -0.467412 0.054642
v 0.002649 -0.468702 0.036343
v 0.002649 -0.464172 0.036343
v -0.055143 0.147158 0.054543
v -0.126646 0.147028 0.054543
v -0.072844 0.029568 0.054543
v -0.075346 0.012498 0.054543
v -0.067747 0.023728 0.054543
v -0.061949 0.021058 0.054543
v -0.126646 0.147028 0.054543
v -0.217047 -0.454742 0.054543
v -0.116346 -0.454562 0.054543
v -0.057051 0.021068 0.054543
v -0.046148 0.012548 0.054543
v -0.050749 0.023388 0.054543
v -0.043547 0.029628 0.054543
v -0.015249 0.147228 0.054543
v -0.047644 -0.454442 0.054543
v 0.044657 0.162018 0.054842
v -0.015249 0.147228 0.054543
v -0.025847 0.147208 -0.054558
v -0.015249 0.147228 -0.054558
v -0.043547 0.029628 -0.054558
v -0.017950 -0.467412 -0.054657
v 0.002649 -0.464172 -0.036358
v 0.002649 -0.468702 -0.036358
v -0.017950 -0.464212 -0.054657
v -0.047644 -0.454442 -0.054558
v -0.015249 0.147228 -0.054558
v 0.044657 0.162018 -0.054758
v -0.116346 -0.454562 -0.054558
v -0.046148 0.012548 -0.054558
v -0.043547 0.029628 -0.054558
v -0.050749 0.023378 -0.054558
v -0.057051 0.021068 -0.054558
v -0.061949 0.021058 -0.054558
v -0.075346 0.012498 -0.054558
v -0.217047 -0.454742 -0.054558
v -0.067747 0.023728 -0.054558
v -0.126646 0.147028 -0.054558
v -0.072844 0.029568 -0.054558
v -0.055143 0.147158 -0.054558
v 0.012255 -0.464162 0.018042
v 0.002649 -0.468702 0.036343
v 0.012255 -0.468682 0.018042
v 0.012255 -0.464162 0.018042
v 0.002649 -0.464172 0.036343
v 0.002649 -0.468702 0.036343
v 0.012255 -0.464162 -0.018057
v 0.002649 -0.468702 -0.036358
v 0.002649 -0.464172 -0.036358
v 0.012255 -0.468682 -0.018057
v 0.015352 -0.468672 0.000042
v 0.015352 -0.464192 0.000042
v 0.012255 -0.468682 0.018042
v 0.015352 -0.464152 0.000042
v 0.012255 -0.464162 0.018042
v 0.012255 -0.468682 0.018042
v 0.015352 -0.468672 0.000042
v 0.012255 -0.468682 -0.018057
v 0.015352 -0.464192 0.000042
v 0.012255 -0.464162 -0.018057
v 0.015352 -0.464152 0.000042
v 0.012255 -0.468682 0.018042
v 0.015352 -0.464192 0.000042
v 0.015352 -0.464152 0.000042
v 0.015352 -0.464152 0.000042
v 0.015352 -0.464192 0.000042
v 0.012255 -0.468682 -0.018057
v -0.025847 0.147208 0.052343
v -0.050749 0.023388 0.052343
v -0.043547 0.029628 0.052343
v -0.025847 0.147208 0.052343
v -0.057051 0.021068 0.052343
v -0.050749 0.023388 0.052343
v -0.061949 0.021058 0.052343
v -0.067747 0.023728 0.052343
v -0.072844 0.029568 0.052343
v -0.055143 0.147158 0.052343
v -0.025847 0.147208 -0.052357
v -0.072844 0.029568 -0.052357
v -0.055143 0.147158 -0.052357
v -0.067747 0.023728 -0.052357
v -0.061949 0.021058 -0.052357
v -0.057051 0.021068 -0.052357
v -0.050749 0.023378 -0.052357
v -0.025847 0.147208 -0.052357
v -0.043547 0.029628 -0.052357
v -0.050749 0.023378 -0.052357
v -0.025847 0.147208 0.054543
v -0.043547 0.029628 0.052343
v -0.043547 0.029628 0.054543
v -0.043547 0.029628 -0.054558
v -0.043547 0.029628 -0.052357
v -0.025847 0.147208 -0.054558
v -0.025847 0.147208 0.054543
v -0.025847 0.147208 0.052343
v -0.043547 0.029628 0.052343
v -0.025847 0.147208 -0.054558
v -0.043547 0.029628 -0.052357
v -0.025847 0.147208 -0.052357
v -0.025045 0.154548 0.049442
v -0.025847 0.147208 0.052343
v -0.025847 0.147208 0.054543
v -0.025045 0.154548 0.047243
v -0.025045 0.154548 -0.049358
v -0.025847 0.147208 -0.052357
v -0.025045 0.154548 -0.047258
v -0.025847 0.147208 -0.054558
v -0.055143 0.147158 0.054543
v -0.055143 0.147158 0.052343
v -0.054350 0.154498 0.049442
v -0.055143 0.147158 -0.054558
v -0.054350 0.154498 -0.049358
v -0.055143 0.147158 -0.052357
v 0.049456 -0.464092 0.054543
v -0.047644 -0.464262 0.054543
v -0.047644 -0.464262 0.054543
v 0.049456 -0.464092 0.054543
v 0.049456 -0.454272 0.054543
v 0.049456 -0.464092 0.054543
v 0.049456 -0.464092 0.054543
v 0.049456 -0.454272 -0.054558
v 0.049456 -0.464092 -0.054558
v 0.049456 -0.464092 -0.054558
v 0.049456 -0.464092 -0.054558
v -0.047644 -0.464262 -0.054558
v -0.047644 -0.464262 -0.054558
v 0.049456 -0.464092 -0.054558
v -0.047644 -0.464262 -0.054558
v 0.049456 -0.464092 -0.054558
v -0.072844 0.029568 0.054543
v -0.055143 0.147158 0.052343
v -0.055143 0.147158 0.054543
v -0.072844 0.029568 0.054543
v -0.072844 0.029568 0.052343
v -0.055143 0.147158 0.052343
v -0.072844 0.029568 -0.054558
v -0.055143 0.147158 -0.052357
v -0.072844 0.029568 -0.052357
v -0.072844 0.029568 -0.054558
v -0.055143 0.147158 -0.054558
v -0.055143 0.147158 -0.052357
v -0.217047 -0.454742 0.054543
v -0.047644 -0.454442 0.054543
v -0.116346 -0.454562 0.054543
v -0.217047 -0.454742 -0.054558
v -0.116346 -0.454562 -0.054558
v -0.047644 -0.454442 -0.054558
v -0.005247 -0.454372 0.000042
v -0.008650 -0.454372 0.018042
v 0.077249 -0.454222 0.018042
v -0.004446 -0.454362 0.000042
v 0.080652 -0.454212 0.000042
v 0.068453 -0.454232 0.036343
v -0.016951 -0.454392 0.036343
v 0.049456 -0.454272 0.054543
v -0.047644 -0.454442 0.054543
v 0.025354 -0.454312 0.065542
v -0.047644 -0.454442 0.065542
v -0.217047 -0.454742 0.054543
v -0.227545 -0.454762 0.065542
v -0.217047 -0.454742 0.000042
v -0.217146 -0.454742 0.000042
v -0.227545 -0.454762 0.000042
v -0.005247 -0.454372 0.000042
v -0.004446 -0.454362 0.000042
v 0.077249 -0.454222 -0.018057
v 0.080652 -0.454212 0.000042
v -0.008650 -0.454372 -0.018057
v 0.068453 -0.454232 -0.036358
v -0.016951 -0.454392 -0.036358
v 0.049456 -0.454272 -0.054558
v -0.047644 -0.454442 -0.054558
v 0.025354 -0.454312 -0.065557
v -0.047644 -0.454442 -0.065557
v -0.217047 -0.454742 -0.054558
v -0.227545 -0.454762 -0.065558
v -0.217047 -0.454742 0.000042
v -0.217146 -0.454742 0.000042
v -0.227545 -0.454762 0.000042
v -0.227545 -0.454762 0.065542
v -0.227049 -0.469092 0.000042
v -0.227545 -0.469112 0.000042
v -0.227545 -0.469112 0.000042
v -0.227049 -0.469092 0.000042
v -0.227545 -0.454762 -0.065558
v 0.081156 -0.453842 0.000042
v 0.080652 -0.454212 0.000042
v 0.077249 -0.454222 0.018042
v 0.077249 -0.454222 -0.018057
v 0.080652 -0.454212 0.000042
v 0.081156 -0.453842 0.000042
v -0.017950 -0.464212 0.054642
v 0.002649 -0.464172 0.036343
v -0.047644 -0.464262 0.054543
v -0.017950 -0.464212 -0.054657
v -0.047644 -0.464262 -0.054558
v 0.002649 -0.464172 -0.036358
v -0.054350 0.154498 0.049442
v -0.025045 0.154548 0.047243
v -0.025045 0.154548 0.049442
v -0.054350 0.154498 -0.049358
v -0.025045 0.154548 -0.049358
v -0.025045 0.154548 -0.047258
vn -0.0000 1.0000 -0.0000
vn 0.3928 0.9191 -0.0314
vn 0.3954 0.9169 0.0552
vn -0.0000 -0.0000 1.0000
vn 0.3953 0.9169 0.0552
vn 0.3952 0.9169 0.0553
vn 0.3952 0.9169 0.0552
vn 0.3951 0.9165 0.0630
vn 0.3952 0.9169 -0.0553
vn 0.3952 0.9169 0.0554
vn 0.3931 0.9119 -0.1179
vn 0.3930 0.9119 -0.1179
vn 0.3931 0.9119 0.1179
vn 0.3930 0.9120 0.1178
vn 0.5834 0.8120 -0.0158
vn 0.5834 0.8120 -0.0157
vn 0.5417 0.8323 -0.1178
vn 0.5418 0.8322 -0.1178
vn 0.5417 0.8323 0.1178
vn -0.0079 -1.0000 -0.0000
vn -0.0000 -1.0000 -0.0000
vn 0.0079 -1.0000 -0.0000
vn -0.0001 -1.0000 -0.0000
vn 0.0236 -0.9997 -0.0000
vn -0.0000 -1.0000 -0.0001
vn 0.3706 0.8517 -0.3706
vn 0.3706 0.8517 0.3706
vn 0.3706 0.8516 0.3706
vn -0.0000 0.7952 -0.6063
vn -0.0000 0.7952 0.6063
vn -0.0000 0.5745 0.8185
vn -0.0001 0.5746 0.8184
vn -0.0002 0.5745 0.8185
vn -0.0001 0.5745 0.8185
vn -0.0000 0.5745 -0.8185
vn -0.0001 0.5745 -0.8185
vn -0.0002 0.5745 -0.8185
vn 0.0628 0.4713 0.8797
vn 0.0628 0.4713 -0.8797
vn -0.9992 -0.0393 -0.0000
vn -0.9995 0.0315 -0.0079
vn -0.9995 0.0315 0.0079
vn -0.3468 0.9379 -0.0000
vn -0.3466 0.9380 -0.0000
vn -0.3468 0.9380 -0.0000
vn 0.0628 0.4712 0.8798
vn 0.4156 0.9095 -0.0000
vn 0.4156 0.9096 -0.0000
vn 0.4155 0.9096 -0.0000
vn -0.6540 0.7565 -0.0000
vn -0.9888 0.1491 0.0001
vn -0.9889 0.1489 -0.0000
vn -0.9889 0.1486 -0.0000
vn -0.9888 0.1491 -0.0000
vn -0.9888 0.1490 -0.0000
vn -0.9888 0.1491 -0.0001
vn -0.7799 0.1182 0.6146
vn -0.3463 0.0551 0.9365
vn 0.9810 -0.0471 0.1883
vn 0.9810 -0.0471 -0.1883
vn -0.9947 0.1027 -0.0000
vn -0.9947 0.1026 -0.0000
vn 0.9760 0.0472 0.2125
vn 0.9760 0.0472 -0.2125
vn 0.9007 -0.0000 0.4345
vn 0.9007 -0.0000 -0.4345
vn 0.6913 -0.0000 0.7226
vn 0.6912 -0.0000 0.7227
vn 0.6913 -0.0000 -0.7226
vn 0.7565 0.6540 -0.0000
vn 0.4156 -0.0000 0.9095
vn 0.4156 -0.0000 -0.9095
vn 0.4155 -0.0000 -0.9096
vn 0.9785 -0.1420 0.1499
vn 0.9784 -0.1421 0.1499
vn 0.9734 -0.1414 -0.1805
vn 0.9773 -0.1418 -0.1576
vn 0.9772 -0.1420 -0.1576
vn 0.9734 -0.1413 -0.1806
vn 0.9784 -0.1420 -0.1499
vn 0.9784 -0.1420 0.1499
vn 0.9784 -0.1420 0.1500
vn 0.9734 -0.1413 0.1806
vn 0.9030 -0.1335 0.4083
vn 0.9223 -0.1340 0.3626
vn 0.9030 -0.1335 -0.4083
vn 0.9223 -0.1340 -0.3626
vn -0.0000 -0.0000 -1.0000
vn 0.5140 -0.0791 0.8541
vn 0.5106 -0.0785 0.8562
vn 0.5140 -0.0791 -0.8541
vn 0.5106 -0.0785 -0.8562
vn 0.5141 -0.0790 -0.8541
vn 0.3468 -0.0000 0.9380
vn 0.3468 -0.0000 -0.9379
vn -0.0000 -0.0001 -1.0000
vn -0.2050 0.0316 0.9783
vn -0.2051 0.0316 0.9782
vn 0.6624 -0.0000 0.7491
vn -0.7800 0.1182 0.6145
vn -0.3462 0.0551 0.9365
vn -0.2051 0.0316 -0.9782
vn 0.6624 -0.0000 -0.7491
vn 0.6624 -0.0000 -0.7492
vn -0.0002 -0.0000 -1.0000
vn 0.8847 -0.0000 0.4661
vn 0.8848 -0.0000 0.4660
vn 0.8847 -0.0000 -0.4661
vn 0.8848 -0.0000 -0.4659
vn 0.8848 -0.0000 -0.4660
vn 0.9862 -0.0000 0.1657
vn 0.9862 -0.0000 -0.1657
vn 0.9862 -0.0000 0.1658
vn 0.0003 -0.0000 -1.0000
vn -0.2051 0.0314 0.9782
vn -0.2052 0.0309 0.9782
vn -0.2051 0.0315 0.9782
vn -0.2051 0.0315 -0.9782
vn 0.0628 0.4713 0.8798
vn 0.0628 0.4714 -0.8797
vn 0.0628 0.4711 -0.8798
vn -0.0000 -0.0550 -0.9985
vn -0.0000 0.0157 -0.9999
vn 0.0001 -0.9737 0.2278
vn -0.0000 0.0157 0.9999
vn -0.0000 -0.9737 0.2278
vn 0.9888 -0.1492 -0.0000
vn 0.9889 -0.1489 -0.0000
vn -0.0000 0.3929 -0.9196
vn -0.0000 0.3930 -0.9195
vn -0.0000 0.4025 0.9154
vn -0.0002 1.0000 0.0003
vn -0.0001 1.0000 -0.0000
vn -0.0002 1.0000 -0.0003
vn -0.9995 0.0313 -0.0079
vn -0.9995 0.0314 0.0079
vn -0.9995 0.0314 -0.0078
vn -0.9995 0.0314 0.0078
vn -0.9995 0.0313 0.0079
vn -0.9995 0.0315 0.0078
vn 0.9760 0.0472 0.2126
vn 0.9760 0.0473 -0.2124
vn 0.9760 0.0473 -0.2125
vn 0.9760 0.0473 -0.2126
vt 0.422071 0.449203
vt 0.423363 0.445965
vt 0.422068 0.445967
vt 0.423365 0.448040
vt 0.454196 0.449130
vt 0.454195 0.447970
vt 0.467351 0.449100
vt 0.467350 0.447940
vt 0.472122 0.449090
vt 0.472120 0.447929
vt 0.519199 0.428232
vt 0.520313 0.428169
vt 0.519198 0.428202
vt 0.520319 0.428199
vt 0.519193 0.428202
vt 0.518222 0.435413
vt 0.519408 0.435378
vt 0.515676 0.442641
vt 0.516802 0.442608
vt 0.505111 0.450092
vt 0.504837 0.448970
vt 0.423864 0.429016
vt 0.423874 0.437278
vt 0.423213 0.429018
vt 0.422561 0.437281
vt 0.422551 0.429019
vt 0.934414 0.249847
vt 0.942464 0.263135
vt 0.929606 0.247308
vt 0.924700 0.312061
vt 0.907046 0.263191
vt 0.924698 0.246375
vt 0.939317 0.236598
vt 0.939509 0.263015
vt 0.941988 0.243235
vt 0.911408 0.236855
vt 0.908410 0.243356
vt 0.910381 0.263221
vt 0.910548 0.263201
vt 0.910930 0.236821
vt 0.915667 0.249480
vt 0.915762 0.231611
vt 0.920512 0.229048
vt 0.920382 0.246674
vt 0.925215 0.228107
vt 0.925185 0.228089
vt 0.930002 0.246411
vt 0.925112 0.245615
vt 0.929963 0.228841
vt 0.934884 0.249153
vt 0.939587 0.262970
vt 0.939544 0.236570
vt 0.934757 0.231337
vt 0.907661 0.311528
vt 0.941765 0.311491
vt 0.919773 0.247055
vt 0.914842 0.249563
vt 0.924913 0.312023
vt 0.924517 0.312004
vt 0.939421 0.255197
vt 0.909968 0.255130
vt 0.096272 0.966304
vt 0.100323 0.968596
vt 0.100163 0.965691
vt 0.096593 0.972116
vt 0.100484 0.971502
vt 0.111211 0.969811
vt 0.111050 0.966906
vt 0.137408 0.965684
vt 0.110890 0.964001
vt 0.137086 0.959872
vt 0.100175 0.965770
vt 0.100335 0.968672
vt 0.120260 0.932116
vt 0.906017 0.313068
vt 0.924708 0.315790
vt 0.943401 0.313032
vt 0.117451 0.920687
vt 0.116903 0.922623
vt 0.117726 0.922498
vt 0.116628 0.920812
vt 0.117110 0.918431
vt 0.116286 0.918555
vt 0.122591 0.960634
vt 0.117236 0.924816
vt 0.118059 0.924691
vt 0.116719 0.915858
vt 0.115896 0.915983
vt 0.040380 0.754726
vt 0.035678 0.978785
vt 0.022110 0.978907
vt 0.042400 0.978724
vt 0.040368 0.753382
vt 0.020073 0.752892
vt 0.040362 0.752710
vt 0.925174 0.225503
vt 0.028628 0.984342
vt 0.025995 0.984365
vt 0.930889 0.226388
vt 0.919546 0.226602
vt 0.936496 0.229420
vt 0.914049 0.229684
vt 0.941755 0.235387
vt 0.908877 0.235537
vt 0.117530 0.926756
vt 0.118353 0.926631
vt 0.944479 0.242911
vt 0.905917 0.242933
vt 0.142803 0.020224
vt 0.072681 0.020061
vt 0.072678 0.020033
vt 0.292292 0.020632
vt 0.292323 0.027337
vt 0.071865 0.026824
vt 0.292423 0.034103
vt 0.070028 0.033585
vt 0.945128 0.263275
vt 0.904396 0.263275
vt 0.075163 0.975113
vt 0.062792 0.747279
vt 0.064141 0.970115
vt 0.073948 0.744867
vt 0.940112 0.254824
vt 0.909178 0.255059
vt 0.099962 0.921768
vt 0.110689 0.920077
vt 0.110660 0.913699
vt 0.108510 0.918233
vt 0.106213 0.917592
vt 0.136060 0.735078
vt 0.099136 0.740897
vt 0.104410 0.917876
vt 0.099933 0.915390
vt 0.102260 0.919077
vt 0.007260 0.930373
vt 0.008865 0.937136
vt 0.007189 0.937167
vt 0.008445 0.930351
vt 0.009128 0.943898
vt 0.007451 0.943928
vt 0.924969 0.245361
vt 0.007618 0.950632
vt 0.009279 0.950602
vt 0.009294 0.950602
vt 0.102272 0.919155
vt 0.104422 0.917954
vt 0.106225 0.917670
vt 0.108523 0.918311
vt 0.110701 0.920156
vt 0.110902 0.964079
vt 0.121981 0.962201
vt 0.122819 0.962069
vt 0.115795 0.917503
vt 0.124350 0.964664
vt 0.125157 0.964538
vt 0.121753 0.960767
vt -0.054381 0.006305
vt 0.114730 0.916200
vt 0.115568 0.916069
vt 0.427323 0.412477
vt 0.478840 0.412488
vt 0.457948 0.412483
vt 0.491724 0.429077
vt 0.490699 0.423582
vt 0.516812 0.423588
vt 0.491957 0.429077
vt 0.517849 0.429083
vt 0.514126 0.418043
vt 0.488176 0.418037
vt 0.508359 0.412496
vt 0.501024 0.409142
vt 0.478840 0.409137
vt 0.424142 0.409125
vt 0.427319 0.429063
vt 0.427311 0.429063
vt 0.424138 0.429063
vt 0.925184 0.225637
vt 0.487848 0.412469
vt 0.494119 0.418037
vt 0.478840 0.412489
vt 0.121842 0.951255
vt 0.123232 0.951037
s 1
usemtl Mag1Mtl.002
f 1/1/1 2/2/1 3/3/1
f 4/1/1 5/4/1 6/2/1
f 5/4/1 4/1/1 7/5/1
f 5/4/1 7/5/1 8/6/1
f 8/6/1 7/5/1 9/7/1
f 8/6/1 9/7/1 10/8/1
f 10/8/1 9/7/1 11/9/1
f 10/8/1 11/9/1 12/10/1
f 13/8/1 14/10/1 15/9/1
f 16/8/1 17/9/1 18/7/1
f 19/6/1 16/8/1 18/7/1
f 19/6/1 18/7/1 20/5/1
f 21/4/1 19/6/1 20/5/1
f 21/4/1 20/5/1 22/1/1
f 22/1/1 23/2/1 21/4/1
f 22/1/1 24/3/1 23/2/1
f 25/11/2 26/11/2 27/12/2
s 0
f 28/12/3 29/13/4 30/11/5
s 1
f 31/11/6 32/14/5 33/12/7
s 0
f 34/13/7 35/15/8 36/11/4
s 1
f 37/14/9 38/16/9 39/17/9
f 40/14/9 41/11/9 42/16/9
f 43/12/2 44/14/2 45/11/2
f 46/14/10 47/16/6 48/11/10
f 46/14/10 49/17/6 47/16/6
f 50/17/11 51/18/11 52/19/11
f 53/17/11 54/16/12 55/18/12
f 56/17/13 57/18/14 58/16/13
f 56/17/13 59/19/13 57/18/14
f 60/11/15 61/11/15 62/15/16
f 63/20/17 64/18/18 65/21/17
f 66/22/1 67/23/1 68/24/1
f 69/25/1 70/26/1 68/24/1
f 68/24/1 71/23/1 69/25/1
f 72/24/1 73/26/1 74/25/1
f 74/25/1 75/23/1 72/24/1
f 76/22/1 72/24/1 75/23/1
f 77/20/19 78/21/19 79/18/19
f 80/27/20 81/28/21 82/29/20
f 81/28/21 83/30/22 84/31/21
f 81/28/21 84/31/21 85/32/20
f 86/33/21 87/28/21 88/34/21
f 89/33/21 90/35/21 91/28/21
f 92/36/21 93/31/21 94/37/21
f 95/36/21 96/38/21 97/31/21
f 98/39/21 99/40/21 100/41/21
f 101/40/21 102/42/21 103/41/21
f 104/41/21 105/42/21 106/43/21
f 107/41/21 108/43/21 109/44/21
f 110/44/21 111/43/21 112/45/21
f 113/45/21 114/46/21 115/44/21
f 116/47/21 117/46/21 118/45/21
f 119/47/23 120/48/23 121/46/23
f 122/44/21 123/46/21 124/48/21
f 125/45/21 126/49/21 127/47/21
f 128/50/21 129/47/21 130/49/21
f 131/51/21 128/50/21 132/52/21
f 133/50/21 134/49/21 135/53/21
f 136/52/21 137/50/21 138/53/21
f 139/54/24 140/31/21 141/30/22
f 142/30/22 143/28/25 144/55/24
f 145/28/21 146/32/20 147/29/20
f 148/31/21 149/56/20 146/32/20
f 148/31/21 150/57/20 149/56/20
f 151/30/22 152/58/24 153/54/24
f 154/55/24 155/59/24 156/30/22
f 157/27/20 158/60/20 159/28/21
f 160/31/21 161/61/20 162/57/20
f 163/20/26 164/19/26 165/18/26
f 166/20/27 167/18/28 168/19/28
f 169/3/29 170/23/29 171/25/29
f 172/3/29 173/2/29 174/23/29
f 175/3/30 176/23/30 177/2/30
f 175/3/30 178/25/30 176/23/30
f 179/62/31 180/63/31 181/64/31
f 179/62/31 182/65/31 180/63/31
f 183/66/31 184/63/31 185/65/31
f 186/67/31 184/63/31 183/66/31
f 186/67/31 187/68/32 184/63/31
f 186/67/31 188/69/33 187/68/32
f 189/70/31 187/68/32 188/69/33
f 189/70/31 188/69/33 190/71/34
f 191/70/35 192/71/36 193/69/37
f 191/70/35 193/69/37 194/68/35
f 195/67/35 194/68/35 193/69/37
f 195/67/35 196/63/35 194/68/35
f 195/67/35 197/66/35 196/63/35
f 197/66/35 198/65/35 196/63/35
f 199/62/35 196/63/35 198/65/35
f 200/62/35 201/64/35 202/63/35
f 203/72/38 204/73/38 205/74/38
f 206/74/39 207/73/39 208/72/39
f 209/75/40 210/30/40 211/76/40
f 212/77/40 213/76/40 214/30/40
f 215/59/41 216/55/41 217/77/41
f 218/75/42 219/54/42 220/58/42
f 221/78/1 222/79/1 223/80/1
f 221/78/1 224/81/1 222/79/1
f 225/78/1 226/79/1 227/81/1
f 225/78/1 228/80/1 226/79/1
f 229/82/43 230/81/43 231/78/44
f 229/82/43 232/83/43 230/81/43
f 233/82/45 234/81/45 235/83/43
f 233/82/45 236/78/45 234/81/45
f 237/84/46 238/72/46 239/74/46
f 240/74/39 241/72/39 242/84/39
f 243/80/47 244/85/48 245/86/48
f 243/80/47 246/79/48 244/85/48
f 247/80/49 248/85/49 249/79/48
f 247/80/49 250/86/48 248/85/49
f 251/87/50 252/83/50 253/82/50
f 254/87/50 255/88/50 256/83/50
f 257/87/50 258/83/50 259/88/50
f 260/87/50 261/82/50 262/83/50
f 263/89/51 264/90/52 265/91/53
f 266/92/54 264/90/52 263/89/51
f 265/91/53 267/93/54 263/89/51
f 267/93/54 265/91/53 268/94/54
f 268/94/54 269/95/54 267/93/54
f 270/92/55 271/89/56 272/90/52
f 273/91/57 272/90/52 271/89/56
f 271/89/56 274/93/54 273/91/57
f 275/94/58 273/91/57 274/93/54
f 274/93/54 276/95/54 275/94/58
f 277/45/59 278/96/59 279/49/59
f 280/45/60 281/43/60 282/96/60
f 283/97/61 284/91/61 285/98/62
f 283/97/61 286/90/62 284/91/61
f 287/97/62 288/91/61 289/90/62
f 287/97/62 290/98/62 288/91/61
f 291/99/63 292/49/63 293/96/63
f 294/96/64 295/43/64 296/100/64
f 297/99/65 298/53/65 299/49/65
f 300/99/65 301/101/65 302/53/65
f 303/100/66 304/42/66 305/102/66
f 306/100/66 307/43/66 308/42/66
f 309/101/67 310/52/67 311/53/67
f 312/101/68 313/103/68 314/52/68
f 315/102/69 316/40/69 317/104/69
f 318/102/69 319/42/69 320/40/69
f 321/86/70 322/105/70 323/106/70
f 321/86/70 324/85/70 322/105/70
f 325/86/70 326/105/70 327/85/70
f 325/86/70 328/106/70 326/105/70
f 329/103/71 330/35/71 331/33/71
f 332/103/71 333/107/71 334/35/71
f 335/104/72 336/37/72 337/108/72
f 338/104/73 339/36/73 340/37/73
f 341/109/74 342/110/75 343/111/74
f 344/109/76 345/111/77 346/110/78
f 347/109/76 348/112/79 349/113/80
f 349/113/80 350/110/80 347/109/76
f 349/113/80 351/114/80 350/110/80
f 352/113/81 353/110/81 354/114/82
f 355/109/74 353/110/81 352/113/81
f 352/113/81 356/112/83 355/109/74
f 357/115/84 358/113/84 359/114/84
f 360/115/85 361/114/85 362/116/85
f 363/115/86 364/114/86 365/113/86
f 366/115/87 367/116/87 368/114/87
f 369/28/4 370/77/4 371/55/4
f 372/28/4 373/117/4 374/77/4
f 372/28/4 375/107/4 373/117/4
f 376/28/4 377/35/4 378/107/4
f 379/31/88 380/108/88 381/37/88
f 382/31/88 383/118/88 384/108/88
f 382/31/88 385/75/88 383/118/88
f 386/31/88 387/54/88 388/75/88
f 389/119/89 390/120/89 391/121/89
f 389/119/89 392/122/90 390/120/89
f 393/119/91 394/120/91 395/122/92
f 393/119/91 396/121/93 394/120/91
f 397/28/94 398/60/94 399/123/94
f 400/31/95 401/124/95 402/61/95
s 0
f 403/51/4 404/34/4 405/123/4
f 406/39/96 407/124/88 408/38/88
s 1
f 409/125/97 410/62/98 411/64/98
f 412/60/99 413/50/99 414/123/99
f 415/60/99 416/27/99 417/50/99
f 418/70/4 419/71/4 420/126/4
f 419/71/4 421/127/4 420/126/4
f 420/126/4 421/127/4 422/128/4
f 422/128/4 421/127/4 423/129/4
f 424/71/100 425/130/101 421/127/4
f 426/131/4 421/127/4 425/130/101
f 426/131/4 423/129/4 421/127/4
f 426/131/4 427/132/4 423/129/4
f 426/131/4 428/133/4 427/132/4
f 428/133/4 429/134/4 427/132/4
f 430/125/4 429/134/4 428/133/4
f 428/133/4 431/62/4 430/125/4
f 428/133/4 426/131/4 431/62/4
f 432/122/4 431/62/4 426/131/4
f 432/122/4 433/119/4 434/62/4
f 435/64/102 436/62/102 437/125/102
f 438/135/103 439/136/104 440/137/103
f 438/135/103 441/138/104 439/136/104
f 442/122/105 443/62/88 444/119/88
f 442/122/105 445/131/88 443/62/88
f 446/133/88 443/62/88 445/131/88
f 446/133/88 447/125/88 443/62/88
f 447/125/88 446/133/88 448/134/88
f 446/133/88 449/132/88 448/134/88
f 445/131/88 449/132/88 446/133/88
f 445/131/88 450/129/88 449/132/88
f 445/131/88 451/127/88 450/129/88
f 445/131/88 452/130/88 451/127/88
f 453/128/88 450/129/88 451/127/88
f 454/71/88 451/127/88 452/130/88
f 455/126/88 453/128/88 451/127/88
f 454/71/88 455/126/88 451/127/88
f 456/70/88 455/126/88 454/71/88
f 457/47/106 458/27/106 459/29/106
f 460/47/107 461/50/107 462/27/107
f 463/139/108 464/137/109 465/136/110
f 463/139/108 466/140/108 464/137/109
f 467/32/111 468/141/111 469/29/111
f 470/48/111 471/47/111 472/29/111
f 473/142/112 474/140/112 475/143/112
f 474/140/112 476/139/112 477/144/112
f 478/29/113 479/141/113 480/48/113
f 481/144/112 482/143/112 483/140/112
f 484/72/4 485/145/4 486/125/4
f 487/72/4 488/146/4 489/145/4
f 487/72/4 490/147/4 488/146/4
f 487/72/4 491/148/4 490/147/4
f 487/72/4 492/149/4 491/148/4
f 487/72/4 493/150/4 492/149/4
f 494/72/88 495/149/88 496/150/88
f 494/72/88 497/148/88 495/149/88
f 494/72/88 498/147/88 497/148/88
f 494/72/88 499/146/88 498/147/88
f 494/72/88 500/145/88 499/146/88
f 501/72/114 502/125/114 503/145/114
f 504/64/115 505/125/116 506/125/117
f 507/125/102 508/125/118 509/64/118
f 510/151/52 511/152/52 512/153/52
f 513/151/52 514/153/52 515/152/52
f 516/154/62 517/152/62 518/151/62
f 516/154/62 519/155/62 517/152/62
f 520/154/61 521/152/62 522/155/62
f 520/154/61 523/151/62 521/152/62
f 524/156/46 525/84/119 526/74/38
f 527/156/120 528/74/121 529/84/39
s 0
f 530/52/122 531/34/88 532/51/123
f 530/52/88 533/33/88 531/34/123
f 534/103/88 535/33/88 536/52/122
f 537/104/4 538/40/4 539/36/4
f 540/40/124 541/39/4 542/38/125
f 543/157/126 544/157/125 545/157/4
s 1
f 546/158/127 547/84/127 548/156/127
f 549/158/128 550/159/128 551/84/128
f 552/158/128 553/84/128 554/159/128
f 555/158/128 556/156/128 557/84/128
f 558/160/129 559/161/129 560/162/130
f 561/160/131 562/162/131 563/161/131
f 564/163/1 565/164/1 566/165/1
f 566/165/1 567/166/1 564/163/1
f 568/167/1 567/166/1 566/165/1
f 565/164/1 569/168/1 566/165/1
f 565/164/1 570/169/1 569/168/1
f 571/170/1 569/168/1 570/169/1
f 571/170/1 570/169/1 572/161/1
f 573/171/1 571/170/1 572/161/1
f 573/171/1 572/161/1 574/172/1
f 575/160/1 574/172/1 572/161/1
f 575/160/1 576/173/1 574/172/1
f 576/173/1 575/160/1 577/174/132
f 577/174/132 578/175/133 576/173/1
f 576/173/1 578/175/133 579/176/1
f 580/163/1 581/166/1 582/165/1
f 583/167/1 582/165/1 581/166/1
f 582/165/1 584/164/1 580/163/1
f 584/164/1 582/165/1 585/168/1
f 584/164/1 585/168/1 586/169/1
f 587/170/1 586/169/1 585/168/1
f 587/170/1 588/161/1 586/169/1
f 589/171/1 588/161/1 587/170/1
f 589/171/1 590/172/1 588/161/1
f 591/160/133 588/161/1 590/172/1
f 591/160/133 590/172/1 592/173/1
f 593/174/134 591/160/133 592/173/1
f 592/173/1 594/175/1 593/174/134
f 592/173/1 595/176/133 594/175/1
f 596/77/135 597/30/136 598/59/137
f 599/58/138 600/30/139 601/75/140
f 602/96/63 603/177/63 604/99/141
f 605/100/142 606/177/143 607/96/144
f 608/178/1 609/179/1 610/180/1
f 611/178/1 612/180/1 613/179/1
f 614/74/21 615/181/21 616/182/21
f 617/74/21 618/182/21 619/181/21
