# Blender 5.2.0 LTS
# www.blender.org
mtllib famas mag perfect.mtl
o famas_mag_perfect
v 0.144019 0.498254 0.074951
v 0.154028 0.376653 -0.074951
v 0.144019 0.498254 -0.074951
v 0.154028 0.376653 0.074951
v 0.144019 0.258707 -0.074951
v 0.144019 0.258707 0.074951
v 0.103979 0.147312 -0.074951
v 0.103979 0.147312 0.074951
v 0.053931 0.042470 -0.074951
v 0.053931 0.042470 0.074951
v -0.016016 -0.058719 -0.074951
v -0.016016 -0.058719 0.074951
v -0.006006 -0.118536 0.094971
v -0.006006 -0.118536 -0.094971
v -0.016016 -0.182911 0.094971
v -0.016016 -0.182911 -0.094971
v -0.006006 -0.118536 -0.094971
v -0.006006 -0.118536 0.094971
v 0.144019 0.498254 -0.074951
v -0.206079 0.601762 -0.074951
v -0.206079 0.601762 0.074951
v 0.144019 0.498254 0.074951
v -0.365991 0.044788 0.074951
v -0.365991 0.044788 -0.074951
v -0.426050 0.005672 -0.094971
v -0.426050 0.005672 0.094971
v -0.016016 -0.182911 0.094971
v -0.426050 0.005672 0.094971
v -0.446069 -0.058702 0.094971
v -0.006006 -0.118536 0.094971
v -0.206079 0.480160 0.074951
v 0.144019 0.498254 0.074951
v -0.206079 0.601762 0.074951
v 0.154028 0.376653 0.074951
v -0.215967 0.362213 0.074951
v 0.144019 0.258707 0.074951
v 0.103979 0.147312 0.074951
v -0.245996 0.250819 0.074951
v 0.053931 0.042470 0.074951
v -0.306055 0.145977 0.074951
v -0.016016 -0.058719 0.074951
v -0.365991 0.044788 0.074951
v -0.006006 -0.118536 0.094971
v -0.426050 0.005672 0.094971
v -0.446069 -0.058702 -0.094971
v -0.426050 0.005672 0.094971
v -0.426050 0.005672 -0.094971
v -0.446069 -0.058702 0.094971
v -0.206079 0.601762 -0.074951
v -0.206079 0.480160 -0.074951
v -0.206079 0.480160 0.074951
v -0.206079 0.601762 0.074951
v -0.215967 0.362213 0.074951
v -0.215967 0.362213 -0.074951
v -0.245996 0.250819 0.074951
v -0.245996 0.250819 -0.074951
v -0.306055 0.145977 0.074951
v -0.306055 0.145977 -0.074951
v -0.365991 0.044788 0.074951
v -0.365991 0.044788 -0.074951
v -0.446069 -0.058702 -0.094971
v -0.016016 -0.182911 -0.094971
v -0.016016 -0.182911 0.094971
v -0.446069 -0.058702 0.094971
v -0.016016 -0.182911 -0.094971
v -0.426050 0.005672 -0.094971
v -0.006006 -0.118536 -0.094971
v -0.446069 -0.058702 -0.094971
v 0.144019 0.498254 -0.074951
v -0.206079 0.480160 -0.074951
v -0.206079 0.601762 -0.074951
v 0.154028 0.376653 -0.074951
v -0.215967 0.362213 -0.074951
v 0.144019 0.258707 -0.074951
v 0.103979 0.147312 -0.074951
v -0.245996 0.250819 -0.074951
v 0.053931 0.042470 -0.074951
v -0.306055 0.145977 -0.074951
v -0.016016 -0.058719 -0.074951
v -0.365991 0.044788 -0.074951
v -0.006006 -0.118536 -0.094971
v -0.426050 0.005672 -0.094971
v 0.103979 0.487114 -0.084961
v 0.103979 0.487114 0.084961
v 0.103979 0.383665 -0.084961
v 0.103979 0.383665 0.084961
v 0.093970 0.270037 -0.084961
v 0.093970 0.270037 0.084961
v 0.063940 0.162582 -0.084961
v 0.063940 0.162582 0.084961
v 0.014014 0.061303 -0.084961
v 0.014014 0.061303 0.084961
v -0.046045 -0.024064 -0.084961
v -0.046045 -0.024064 0.084961
v -0.016016 0.520962 -0.084961
v -0.016016 0.520962 0.084961
v -0.016016 0.417514 -0.084961
v -0.016016 0.417514 0.084961
v -0.026025 0.303885 -0.084961
v -0.026025 0.303885 0.084961
v -0.056055 0.196431 -0.084961
v -0.056055 0.196431 0.084961
v -0.105981 0.095151 -0.084961
v -0.105981 0.095151 0.084961
v -0.166040 0.009784 -0.084961
v -0.166040 0.009784 0.084961
v -0.136011 0.554811 -0.084961
v -0.136011 0.554811 0.084961
v -0.126001 0.451362 -0.084961
v -0.126001 0.451362 0.084961
v -0.136011 0.337733 -0.084961
v -0.136011 0.337733 0.084961
v -0.166040 0.230279 -0.084961
v -0.166040 0.230279 0.084961
v -0.225977 0.128999 -0.084961
v -0.225977 0.128999 0.084961
v -0.276025 0.043632 -0.084961
v -0.276025 0.043632 0.084961
v -0.046045 0.530171 -0.084961
v -0.046045 0.530171 0.084961
v -0.016016 0.520962 -0.084961
v -0.016016 0.520962 0.084961
v 0.063940 0.496322 -0.084961
v 0.063940 0.496322 0.084961
v 0.103979 0.487114 -0.084961
v 0.103979 0.487114 0.084961
v -0.166040 0.564019 -0.084961
v -0.166040 0.564019 0.084961
v -0.136011 0.554811 -0.084961
v -0.136011 0.554811 0.084961
v -0.046045 0.426722 0.084961
v -0.016016 0.520962 0.084961
v -0.046045 0.530171 0.084961
v -0.016016 0.417514 0.084961
v -0.056055 0.313093 0.084961
v -0.026025 0.303885 0.084961
v -0.056055 0.196431 0.084961
v -0.086084 0.205639 0.084961
v -0.105981 0.095151 0.084961
v -0.136011 0.104359 0.084961
v -0.166040 0.009784 0.084961
v -0.196069 0.018992 0.084961
v 0.073950 0.392874 0.084961
v 0.103979 0.487114 0.084961
v 0.063940 0.496322 0.084961
v 0.103979 0.383665 0.084961
v 0.063940 0.279245 0.084961
v 0.093970 0.270037 0.084961
v 0.034033 0.171791 0.084961
v 0.063940 0.162582 0.084961
v 0.014014 0.061303 0.084961
v -0.026025 0.070511 0.084961
v -0.046045 -0.024064 0.084961
v -0.076074 -0.014856 0.084961
v -0.156030 0.460570 0.084961
v -0.136011 0.554811 0.084961
v -0.166040 0.564019 0.084961
v -0.126001 0.451362 0.084961
v -0.166040 0.346942 0.084961
v -0.136011 0.337733 0.084961
v -0.206079 0.239487 0.084961
v -0.166040 0.230279 0.084961
v -0.225977 0.128999 0.084961
v -0.256006 0.138207 0.084961
v -0.276025 0.043632 0.084961
v -0.316064 0.052840 0.084961
v -0.166040 0.564019 -0.084961
v -0.156030 0.460570 -0.084961
v -0.156030 0.460570 0.084961
v -0.166040 0.564019 0.084961
v -0.166040 0.346942 0.084961
v -0.166040 0.346942 -0.084961
v -0.206079 0.239487 0.084961
v -0.206079 0.239487 -0.084961
v -0.256006 0.138207 0.084961
v -0.256006 0.138207 -0.084961
v -0.316064 0.052840 0.084961
v -0.316064 0.052840 -0.084961
v -0.046045 0.530171 -0.084961
v -0.046045 0.426722 -0.084961
v -0.046045 0.426722 0.084961
v -0.046045 0.530171 0.084961
v -0.056055 0.313093 0.084961
v -0.056055 0.313093 -0.084961
v -0.086084 0.205639 0.084961
v -0.086084 0.205639 -0.084961
v -0.136011 0.104359 0.084961
v -0.136011 0.104359 -0.084961
v -0.196069 0.018992 0.084961
v -0.196069 0.018992 -0.084961
v 0.063940 0.496322 -0.084961
v 0.073950 0.392874 -0.084961
v 0.073950 0.392874 0.084961
v 0.063940 0.496322 0.084961
v 0.063940 0.279245 0.084961
v 0.063940 0.279245 -0.084961
v 0.034033 0.171791 0.084961
v 0.034033 0.171791 -0.084961
v -0.026025 0.070511 0.084961
v -0.026025 0.070511 -0.084961
v -0.076074 -0.014856 0.084961
v -0.076074 -0.014856 -0.084961
v -0.166040 0.009784 -0.084961
v -0.166040 0.009784 0.084961
v -0.196069 0.018992 -0.084961
v -0.196069 0.018992 0.084961
v -0.046045 -0.024064 -0.084961
v -0.046045 -0.024064 0.084961
v -0.076074 -0.014856 -0.084961
v -0.076074 -0.014856 0.084961
v -0.276025 0.043632 -0.084961
v -0.276025 0.043632 0.084961
v -0.316064 0.052840 -0.084961
v -0.316064 0.052840 0.084961
v -0.016016 0.520962 -0.084961
v -0.046045 0.426722 -0.084961
v -0.046045 0.530171 -0.084961
v -0.016016 0.417514 -0.084961
v -0.056055 0.313093 -0.084961
v -0.026025 0.303885 -0.084961
v -0.056055 0.196431 -0.084961
v -0.086084 0.205639 -0.084961
v -0.105981 0.095151 -0.084961
v -0.136011 0.104359 -0.084961
v -0.166040 0.009784 -0.084961
v -0.196069 0.018992 -0.084961
v 0.103979 0.487114 -0.084961
v 0.073950 0.392874 -0.084961
v 0.063940 0.496322 -0.084961
v 0.103979 0.383665 -0.084961
v 0.063940 0.279245 -0.084961
v 0.093970 0.270037 -0.084961
v 0.034033 0.171791 -0.084961
v 0.063940 0.162582 -0.084961
v 0.014014 0.061303 -0.084961
v -0.026025 0.070511 -0.084961
v -0.046045 -0.024064 -0.084961
v -0.076074 -0.014856 -0.084961
v -0.136011 0.554811 -0.084961
v -0.156030 0.460570 -0.084961
v -0.166040 0.564019 -0.084961
v -0.126001 0.451362 -0.084961
v -0.166040 0.346942 -0.084961
v -0.136011 0.337733 -0.084961
v -0.206079 0.239487 -0.084961
v -0.166040 0.230279 -0.084961
v -0.225977 0.128999 -0.084961
v -0.256006 0.138207 -0.084961
v -0.276025 0.043632 -0.084961
v -0.316064 0.052840 -0.084961
vn 0.9997 0.0236 -0.0000
vn 0.9995 -0.0315 -0.0000
vn 0.9821 -0.1886 -0.0000
vn 0.9821 -0.1885 -0.0000
vn 0.9263 -0.3768 -0.0000
vn 0.8589 -0.5122 -0.0000
vn 0.9835 -0.1809 -0.0000
vn 0.9754 0.2203 -0.0000
vn 0.9591 -0.2830 -0.0000
vn 0.2833 0.9590 -0.0000
vn -0.5601 0.8284 -0.0000
vn -0.6750 0.7378 -0.0000
vn -0.5602 0.8284 -0.0000
vn -0.0000 -0.0000 1.0000
vn -0.0001 -0.0000 1.0000
vn 0.0550 0.1807 0.9820
vn 0.0316 0.1026 0.9942
vn 0.0787 0.2677 0.9603
vn -0.9591 0.2830 -0.0000
vn -0.9997 -0.0236 -0.0000
vn -0.9995 0.0315 -0.0000
vn -0.9821 0.1886 -0.0000
vn -0.9821 0.1885 -0.0000
vn -0.9263 0.3768 -0.0000
vn -0.8589 0.5122 -0.0000
vn -0.6751 0.7378 -0.0000
vn -0.2830 -0.9591 -0.0000
vn -0.0000 -0.0000 -1.0000
vn 0.0002 -0.0000 -1.0000
vn 0.0001 -0.0000 -1.0000
vn 0.0550 0.1807 -0.9820
vn 0.0316 0.1026 -0.9942
vn 0.0787 0.2676 -0.9603
vn 0.0787 0.2677 -0.9603
vn 0.9995 0.0315 -0.0000
vn 0.8247 -0.5655 -0.0000
vn 0.9995 -0.0314 -0.0000
vn 0.2830 0.9591 -0.0000
vn -0.0003 -0.0000 1.0000
vn 0.0001 -0.0000 1.0000
vn -0.9995 -0.0315 -0.0000
vn -0.8247 0.5655 -0.0000
vn -0.8589 0.5121 -0.0000
vn -0.0001 -0.0000 -1.0000
vt 39.923100 -16.711201
vt 40.076900 -16.832800
vt 40.076900 -16.711201
vt 39.923100 -16.832800
vt 40.076900 -16.950701
vt 39.923100 -16.950701
vt 40.076900 -17.062099
vt 39.923100 -17.062099
vt 40.076900 -17.167000
vt 39.923100 -17.167000
vt 40.076900 -17.268101
vt 39.923100 -17.268101
vt 39.907700 -17.327999
vt 40.092300 -17.327999
vt 39.907700 -17.392300
vt 40.092300 -17.392300
vt 39.704498 -17.076900
vt 40.058899 -17.076900
vt 40.058899 -16.923100
vt 39.704498 -16.923100
vt 40.278999 -17.092300
vt 40.221600 -16.923100
vt 40.221600 -17.076900
vt 40.278999 -16.907700
vt 40.127399 -17.392300
vt 39.721001 -17.203800
vt 39.702099 -17.268101
vt 40.146198 -17.327999
vt 39.943501 -16.729300
vt 40.295502 -16.711201
vt 39.941101 -16.607700
vt 40.297901 -16.832800
vt 39.933399 -16.847200
vt 40.287800 -16.950701
vt 40.255199 -17.062099
vt 39.900902 -16.958599
vt 40.200298 -17.167000
vt 39.845901 -17.063400
vt 40.132801 -17.268101
vt 39.778400 -17.164600
vt 39.907700 -17.268101
vt 40.092300 -17.203800
vt 39.907700 -17.203800
vt 40.092300 -17.268101
vt 39.923100 -16.607700
vt 39.923100 -16.729300
vt 40.076900 -16.729300
vt 40.076900 -16.607700
vt 40.076900 -16.847200
vt 39.923100 -16.847200
vt 40.076900 -16.958599
vt 39.923100 -16.958599
vt 40.076900 -17.063400
vt 39.923100 -17.063400
vt 40.076900 -17.164600
vt 39.923100 -17.164600
vt 39.702099 -17.092300
vt 40.127399 -17.092300
vt 40.127399 -16.907700
vt 39.702099 -16.907700
vt 39.872601 -17.392300
vt 40.278999 -17.203800
vt 39.853802 -17.327999
vt 40.297901 -17.268101
vt 39.704498 -16.711201
vt 40.056499 -16.729300
vt 40.058899 -16.607700
vt 39.702099 -16.832800
vt 40.066601 -16.847200
vt 39.712200 -16.950701
vt 39.744801 -17.062099
vt 40.099098 -16.958599
vt 39.799702 -17.167000
vt 40.154099 -17.063400
vt 39.867199 -17.268101
vt 40.221600 -17.164600
vt 12.082100 -22.782900
vt 11.917900 -22.782900
vt 12.082100 -22.886299
vt 11.917900 -22.886299
vt 12.082100 -22.999901
vt 11.917900 -22.999901
vt 12.082100 -23.107401
vt 11.917900 -23.107401
vt 12.082100 -23.208700
vt 11.917900 -23.208700
vt 12.082100 -23.294001
vt 11.917900 -23.294001
vt 12.082100 -22.749001
vt 11.917900 -22.749001
vt 12.082100 -22.852501
vt 11.917900 -22.852501
vt 12.082100 -22.966101
vt 11.917900 -22.966101
vt 12.082100 -23.073500
vt 11.917900 -23.073500
vt 12.082100 -23.174801
vt 11.917900 -23.174801
vt 12.082100 -23.260201
vt 11.917900 -23.260201
vt 12.082100 -22.715200
vt 11.917900 -22.715200
vt 12.082100 -22.818600
vt 11.917900 -22.818600
vt 12.082100 -22.932199
vt 11.917900 -22.932199
vt 12.082100 -23.039700
vt 11.917900 -23.039700
vt 12.082100 -23.141001
vt 11.917900 -23.141001
vt 12.082100 -23.226299
vt 11.917900 -23.226299
vt 11.942800 -23.082100
vt 11.942800 -22.917900
vt 11.911300 -23.082100
vt 11.911300 -22.917900
vt 11.826900 -23.082100
vt 11.826900 -22.917900
vt 11.795400 -23.082100
vt 11.795400 -22.917900
vt 12.058700 -23.082100
vt 12.058700 -22.917900
vt 12.027200 -23.082100
vt 12.027200 -22.917900
vt 12.060600 -22.843300
vt 12.088700 -22.749001
vt 12.057200 -22.739799
vt 12.092100 -22.852501
vt 12.050300 -22.956900
vt 12.081900 -22.966101
vt 12.050500 -23.073500
vt 12.018900 -23.064301
vt 11.997900 -23.174801
vt 11.966400 -23.165600
vt 11.939400 -23.260201
vt 11.907900 -23.250999
vt 12.176500 -22.877100
vt 12.204600 -22.782900
vt 12.173100 -22.773701
vt 12.208000 -22.886299
vt 12.166200 -22.990700
vt 12.197700 -22.999901
vt 12.134800 -23.098200
vt 12.166400 -23.107401
vt 12.113800 -23.208700
vt 12.082300 -23.199499
vt 12.055300 -23.294001
vt 12.023800 -23.284800
vt 11.944700 -22.809401
vt 11.972800 -22.715200
vt 11.941300 -22.705999
vt 11.976200 -22.818600
vt 11.934400 -22.923000
vt 11.966000 -22.932199
vt 11.903100 -23.030500
vt 11.934600 -23.039700
vt 11.882100 -23.141001
vt 11.850500 -23.131800
vt 11.823500 -23.226299
vt 11.792000 -23.217100
vt 11.917900 -22.705999
vt 11.917900 -22.809401
vt 12.082100 -22.809401
vt 12.082100 -22.705999
vt 12.082100 -22.923000
vt 11.917900 -22.923000
vt 12.082100 -23.030500
vt 11.917900 -23.030500
vt 12.082100 -23.131800
vt 11.917900 -23.131800
vt 12.082100 -23.217100
vt 11.917900 -23.217100
vt 11.917900 -22.739799
vt 11.917900 -22.843300
vt 12.082100 -22.843300
vt 12.082100 -22.739799
vt 12.082100 -22.956900
vt 11.917900 -22.956900
vt 12.082100 -23.064301
vt 11.917900 -23.064301
vt 12.082100 -23.165600
vt 11.917900 -23.165600
vt 12.082100 -23.250999
vt 11.917900 -23.250999
vt 11.917900 -22.773701
vt 11.917900 -22.877100
vt 12.082100 -22.877100
vt 12.082100 -22.773701
vt 12.082100 -22.990700
vt 11.917900 -22.990700
vt 12.082100 -23.098200
vt 11.917900 -23.098200
vt 12.082100 -23.199499
vt 11.917900 -23.199499
vt 12.082100 -23.284800
vt 11.917900 -23.284800
vt 11.939400 -23.082100
vt 11.939400 -22.917900
vt 11.907900 -23.082100
vt 11.907900 -22.917900
vt 12.055300 -23.082100
vt 12.055300 -22.917900
vt 12.023800 -23.082100
vt 12.023800 -22.917900
vt 11.823500 -23.082100
vt 11.823500 -22.917900
vt 11.792000 -23.082100
vt 11.792000 -22.917900
vt 11.911300 -22.749001
vt 11.939400 -22.843300
vt 11.942800 -22.739799
vt 11.907900 -22.852501
vt 11.949700 -22.956900
vt 11.918100 -22.966101
vt 11.949500 -23.073500
vt 11.981100 -23.064301
vt 12.002100 -23.174801
vt 12.033600 -23.165600
vt 12.060600 -23.260201
vt 12.092100 -23.250999
vt 11.795400 -22.782900
vt 11.823500 -22.877100
vt 11.826900 -22.773701
vt 11.792000 -22.886299
vt 11.833800 -22.990700
vt 11.802300 -22.999901
vt 11.865200 -23.098200
vt 11.833600 -23.107401
vt 11.886200 -23.208700
vt 11.917700 -23.199499
vt 11.944700 -23.294001
vt 11.976200 -23.284800
vt 12.027200 -22.715200
vt 12.055300 -22.809401
vt 12.058700 -22.705999
vt 12.023800 -22.818600
vt 12.065600 -22.923000
vt 12.034000 -22.932199
vt 12.096900 -23.030500
vt 12.065400 -23.039700
vt 12.117900 -23.141001
vt 12.149500 -23.131800
vt 12.176500 -23.226299
vt 12.208000 -23.217100
s 1
usemtl Meshpart1Mtl.005
f 1/1/1 2/2/2 3/3/1
f 2/2/2 1/1/1 4/4/2
f 4/4/2 5/5/3 2/2/2
f 5/5/3 4/4/2 6/6/4
f 6/6/4 7/7/5 5/5/3
f 7/7/5 6/6/4 8/8/5
f 7/7/5 8/8/5 9/9/6
f 9/9/6 8/8/5 10/10/6
f 9/9/6 10/10/6 11/11/7
f 11/11/7 10/10/6 12/12/7
f 11/11/7 12/12/7 13/13/8
f 13/13/8 14/14/8 11/11/7
f 15/15/9 16/16/9 17/14/9
f 17/14/9 18/13/9 15/15/9
f 19/17/10 20/18/10 21/19/10
f 19/17/10 21/19/10 22/20/10
f 25/21/11 23/22/12 24/23/12
f 23/22/12 25/21/11 26/24/13
f 27/25/14 28/26/14 29/27/14
f 28/26/14 27/25/14 30/28/15
f 31/29/14 32/30/15 33/31/14
f 32/30/15 31/29/14 34/32/14
f 35/33/15 34/32/14 31/29/14
f 34/32/14 35/33/15 36/34/14
f 37/35/14 36/34/14 35/33/15
f 38/36/14 37/35/14 35/33/15
f 39/37/14 37/35/14 38/36/14
f 40/38/14 39/37/14 38/36/14
f 41/39/16 39/37/14 40/38/14
f 42/40/17 41/39/16 40/38/14
f 42/40/17 43/28/18 41/39/16
f 43/28/18 42/40/17 44/26/18
f 45/41/19 46/42/19 47/43/19
f 46/42/19 45/41/19 48/44/19
f 49/45/20 50/46/21 51/47/21
f 49/45/20 51/47/21 52/48/20
f 50/46/21 53/49/22 51/47/21
f 50/46/21 54/50/23 53/49/22
f 54/50/23 55/51/24 53/49/22
f 54/50/23 56/52/24 55/51/24
f 56/52/24 57/53/25 55/51/24
f 56/52/24 58/54/25 57/53/25
f 58/54/25 59/55/26 57/53/25
f 58/54/25 60/56/26 59/55/26
f 61/57/27 62/58/27 63/59/27
f 61/57/27 63/59/27 64/60/27
f 65/61/28 66/62/29 67/63/28
f 66/62/29 65/61/28 68/64/28
f 69/65/30 70/66/28 71/67/28
f 70/66/28 69/65/30 72/68/28
f 72/68/28 73/69/28 70/66/28
f 73/69/28 72/68/28 74/70/30
f 75/71/30 73/69/28 74/70/30
f 73/69/28 75/71/30 76/72/28
f 77/73/28 76/72/28 75/71/30
f 76/72/28 77/73/28 78/74/30
f 79/75/31 78/74/30 77/73/28
f 78/74/30 79/75/31 80/76/32
f 81/63/33 80/76/32 79/75/31
f 81/63/33 82/62/34 80/76/32
usemtl Meshpart2Mtl.002
f 83/77/35 84/78/35 85/79/2
f 85/79/2 84/78/35 86/80/2
f 86/80/2 87/81/3 85/79/2
f 87/81/3 86/80/2 88/82/3
f 87/81/3 88/82/3 89/83/5
f 89/83/5 88/82/3 90/84/5
f 89/83/5 90/84/5 91/85/6
f 91/85/6 90/84/5 92/86/6
f 91/85/6 92/86/6 93/87/36
f 93/87/36 92/86/6 94/88/36
f 95/89/35 96/90/35 97/91/2
f 97/91/2 96/90/35 98/92/2
f 97/91/2 98/92/2 99/93/3
f 99/93/3 98/92/2 100/94/3
f 100/94/3 101/95/5 99/93/3
f 101/95/5 100/94/3 102/96/5
f 101/95/5 102/96/5 103/97/6
f 103/97/6 102/96/5 104/98/6
f 103/97/6 104/98/6 105/99/36
f 105/99/36 104/98/6 106/100/36
f 107/101/35 108/102/35 109/103/37
f 109/103/37 108/102/35 110/104/2
f 110/104/2 111/105/3 109/103/37
f 111/105/3 110/104/2 112/106/4
f 112/106/4 113/107/5 111/105/3
f 113/107/5 112/106/4 114/108/5
f 113/107/5 114/108/5 115/109/6
f 115/109/6 114/108/5 116/110/6
f 115/109/6 116/110/6 117/111/36
f 117/111/36 116/110/6 118/112/36
f 119/113/38 120/114/38 121/115/38
f 121/115/38 120/114/38 122/116/38
f 123/117/38 124/118/38 125/119/38
f 125/119/38 124/118/38 126/120/38
f 127/121/38 128/122/38 129/123/38
f 129/123/38 128/122/38 130/124/38
f 131/125/14 132/126/14 133/127/14
f 132/126/14 131/125/14 134/128/14
f 135/129/14 134/128/14 131/125/14
f 134/128/14 135/129/14 136/130/39
f 137/131/15 136/130/39 135/129/14
f 135/129/14 138/132/15 137/131/15
f 139/133/14 137/131/15 138/132/15
f 138/132/15 140/134/14 139/133/14
f 141/135/14 139/133/14 140/134/14
f 140/134/14 142/136/14 141/135/14
f 143/137/14 144/138/14 145/139/14
f 144/138/14 143/137/14 146/140/14
f 147/141/14 146/140/14 143/137/14
f 146/140/14 147/141/14 148/142/14
f 149/143/15 148/142/14 147/141/14
f 148/142/14 149/143/15 150/144/40
f 151/145/14 150/144/40 149/143/15
f 149/143/15 152/146/15 151/145/14
f 153/147/14 151/145/14 152/146/15
f 152/146/15 154/148/14 153/147/14
f 155/149/14 156/150/40 157/151/14
f 156/150/40 155/149/14 158/152/14
f 159/153/40 158/152/14 155/149/14
f 158/152/14 159/153/40 160/154/40
f 161/155/14 160/154/40 159/153/40
f 160/154/40 161/155/14 162/156/40
f 163/157/40 162/156/40 161/155/14
f 161/155/14 164/158/40 163/157/40
f 165/159/14 163/157/40 164/158/40
f 164/158/40 166/160/14 165/159/14
f 167/161/41 168/162/21 169/163/21
f 167/161/41 169/163/21 170/164/41
f 168/162/21 171/165/22 169/163/21
f 168/162/21 172/166/22 171/165/22
f 172/166/22 173/167/24 171/165/22
f 172/166/22 174/168/24 173/167/24
f 174/168/24 175/169/25 173/167/24
f 174/168/24 176/170/25 175/169/25
f 176/170/25 177/171/42 175/169/25
f 178/172/42 177/171/42 176/170/25
f 179/173/41 180/174/21 181/175/21
f 179/173/41 181/175/21 182/176/41
f 180/174/21 183/177/22 181/175/21
f 180/174/21 184/178/22 183/177/22
f 184/178/22 185/179/24 183/177/22
f 184/178/22 186/180/24 185/179/24
f 186/180/24 187/181/43 185/179/24
f 186/180/24 188/182/25 187/181/43
f 188/182/25 189/183/42 187/181/43
f 190/184/42 189/183/42 188/182/25
f 191/185/41 192/186/21 193/187/21
f 191/185/41 193/187/21 194/188/41
f 192/186/21 195/189/22 193/187/21
f 192/186/21 196/190/22 195/189/22
f 196/190/22 197/191/24 195/189/22
f 196/190/22 198/192/24 197/191/24
f 198/192/24 199/193/25 197/191/24
f 198/192/24 200/194/25 199/193/25
f 200/194/25 201/195/42 199/193/25
f 202/196/42 201/195/42 200/194/25
f 203/197/27 204/198/27 205/199/27
f 205/199/27 204/198/27 206/200/27
f 207/201/27 208/202/27 209/203/27
f 209/203/27 208/202/27 210/204/27
f 211/205/27 212/206/27 213/207/27
f 213/207/27 212/206/27 214/208/27
f 215/209/28 216/210/30 217/211/28
f 216/210/30 215/209/28 218/212/28
f 218/212/28 219/213/28 216/210/30
f 219/213/28 218/212/28 220/214/28
f 221/215/30 219/213/28 220/214/28
f 219/213/28 221/215/30 222/216/28
f 223/217/28 222/216/28 221/215/30
f 222/216/28 223/217/28 224/218/44
f 225/219/28 224/218/44 223/217/28
f 224/218/44 225/219/28 226/220/28
f 227/221/28 228/222/28 229/223/28
f 228/222/28 227/221/28 230/224/28
f 230/224/28 231/225/28 228/222/28
f 231/225/28 230/224/28 232/226/28
f 232/226/28 233/227/28 231/225/28
f 233/227/28 232/226/28 234/228/28
f 235/229/30 233/227/28 234/228/28
f 233/227/28 235/229/30 236/230/28
f 237/231/28 236/230/28 235/229/30
f 236/230/28 237/231/28 238/232/28
f 239/233/28 240/234/28 241/235/28
f 240/234/28 239/233/28 242/236/28
f 242/236/28 243/237/28 240/234/28
f 243/237/28 242/236/28 244/238/28
f 244/238/28 245/239/28 243/237/28
f 245/239/28 244/238/28 246/240/28
f 247/241/44 245/239/28 246/240/28
f 245/239/28 247/241/44 248/242/28
f 249/243/28 248/242/28 247/241/44
f 248/242/28 249/243/28 250/244/28
