# Blender 5.1.2
# www.blender.org
mtllib fn mag.mtl
o fn_mag
v 0.106521 -0.398887 -0.052471
v 0.423481 -0.477434 0.074932
v 0.106521 -0.398887 0.074932
v 0.423481 -0.477434 -0.052471
v 0.124367 -0.391125 0.068531
v 0.124367 -0.391125 -0.046070
v 0.167065 -0.401707 -0.030171
v 0.152039 -0.397988 -0.046070
v 0.179203 -0.404705 -0.030171
v 0.167065 -0.401707 0.052532
v 0.152039 -0.397988 0.068531
v 0.267132 -0.426512 -0.030171
v 0.194161 -0.408424 -0.046070
v 0.257452 -0.424109 -0.046070
v 0.272768 -0.427904 -0.030171
v 0.364814 -0.450709 -0.030171
v 0.370232 -0.452056 -0.030171
v 0.361275 -0.449837 -0.040470
v 0.282450 -0.430308 -0.046070
v 0.359396 -0.449363 -0.046070
v 0.179203 -0.404706 0.052532
v 0.372184 -0.452540 -0.030171
v 0.194161 -0.408424 0.068531
v 0.379697 -0.454408 -0.030171
v 0.267132 -0.426512 0.052532
v 0.257452 -0.424109 0.068531
v 0.409392 -0.461760 -0.046070
v 0.380998 -0.454727 -0.033970
v 0.272768 -0.427905 0.052532
v 0.364814 -0.450709 0.052532
v 0.282450 -0.430308 0.068531
v 0.359396 -0.449364 0.068531
v 0.379697 -0.454408 0.052532
v 0.409392 -0.461760 0.068531
v 0.385116 -0.455753 0.068531
v 0.385116 -0.455753 -0.046070
v 0.384178 -0.455505 -0.043171
v 0.381287 -0.454787 -0.034672
v 0.381287 -0.454787 -0.034672
v 0.409392 -0.461760 -0.046070
v 0.380998 -0.454727 -0.033970
v 0.152039 0.244617 -0.046070
v 0.179203 0.244617 -0.030171
v 0.194161 0.244617 -0.046070
v 0.167065 0.244617 -0.030171
v 0.138743 0.244617 -0.026173
v 0.124367 0.244617 -0.046070
v 0.267132 0.244617 -0.030171
v 0.257452 0.244617 -0.046070
v 0.282450 0.244617 -0.046070
v 0.395016 0.244617 -0.026173
v 0.272768 0.244617 -0.030171
v 0.138743 0.244617 0.048534
v 0.124367 0.244617 0.068531
v 0.152039 0.244617 0.068531
v 0.364814 0.244617 -0.030171
v 0.359396 0.244617 -0.046070
v 0.379697 0.244617 -0.030171
v 0.385190 0.244617 -0.046070
v 0.409392 0.244617 -0.046070
v 0.409392 0.244616 0.068531
v 0.395016 0.244616 0.048534
v 0.385190 0.244616 0.068531
v 0.379697 0.244616 0.052532
v 0.359396 0.244616 0.068531
v 0.364814 0.244616 0.052532
v 0.282450 0.244617 0.068531
v 0.272768 0.244617 0.052532
v 0.267132 0.244617 0.052532
v 0.257452 0.244617 0.068531
v 0.194161 0.244617 0.068531
v 0.179203 0.244617 0.052532
v 0.167065 0.244617 0.052532
v 0.395016 0.244617 -0.026173
v 0.272768 0.244617 -0.030171
v 0.267132 0.244617 -0.030171
v 0.267132 0.244617 0.052532
v 0.272768 0.244617 0.052532
v 0.395016 0.244616 0.048534
v 0.395016 0.178845 -0.002873
v 0.138743 0.178845 -0.002873
v 0.138743 0.178845 0.025333
v 0.395016 0.178845 0.025333
v 0.423481 -0.477434 -0.052471
v 0.425432 -0.465094 0.074932
v 0.423481 -0.477434 0.074932
v 0.425432 -0.465094 -0.052471
v 0.124367 0.244617 -0.046070
v 0.124367 -0.391125 0.068531
v 0.124367 0.244617 0.068531
v 0.124367 -0.391125 -0.046070
v 0.409392 -0.461760 -0.046070
v 0.409392 0.244616 0.068531
v 0.409392 -0.461760 0.068531
v 0.409392 0.244617 -0.046070
v 0.108544 -0.386548 -0.052471
v 0.106521 -0.398887 0.074932
v 0.108544 -0.386548 0.074932
v 0.106521 -0.398887 -0.052471
v 0.359396 -0.449364 0.068531
v 0.364814 0.244616 0.052532
v 0.359396 0.244616 0.068531
v 0.364814 -0.450709 0.052532
v 0.364814 0.244617 -0.030171
v 0.359396 -0.449363 -0.046070
v 0.359396 0.244617 -0.046070
v 0.361275 -0.449837 -0.040470
v 0.361275 -0.449837 -0.040470
v 0.364814 0.244617 -0.030171
v 0.364814 -0.450709 -0.030171
v 0.395016 0.244617 -0.026173
v 0.138743 0.244617 -0.026173
v 0.138743 0.178845 -0.002873
v 0.395016 0.178845 -0.002873
v 0.395016 0.178845 0.025333
v 0.138743 0.178845 0.025333
v 0.138743 0.244617 0.048534
v 0.395016 0.244616 0.048534
v 0.106521 -0.398887 0.074932
v 0.425432 -0.465094 0.074932
v 0.108544 -0.386548 0.074932
v 0.423481 -0.477434 0.074932
v 0.385116 -0.455753 0.068531
v 0.409392 0.244616 0.068531
v 0.385190 0.244616 0.068531
v 0.409392 -0.461760 0.068531
v 0.282450 -0.430308 0.068531
v 0.359396 0.244616 0.068531
v 0.282450 0.244617 0.068531
v 0.359396 -0.449364 0.068531
v 0.194161 -0.408424 0.068531
v 0.257452 0.244617 0.068531
v 0.194161 0.244617 0.068531
v 0.257452 -0.424109 0.068531
v 0.124367 -0.391125 0.068531
v 0.152039 0.244617 0.068531
v 0.124367 0.244617 0.068531
v 0.152039 -0.397988 0.068531
v 0.425432 -0.465094 -0.052471
v 0.106521 -0.398887 -0.052471
v 0.108544 -0.386548 -0.052471
v 0.423481 -0.477434 -0.052471
v 0.409392 0.244617 -0.046070
v 0.385116 -0.455753 -0.046070
v 0.385190 0.244617 -0.046070
v 0.409392 -0.461760 -0.046070
v 0.359396 0.244617 -0.046070
v 0.282450 -0.430308 -0.046070
v 0.282450 0.244617 -0.046070
v 0.359396 -0.449363 -0.046070
v 0.257452 0.244617 -0.046070
v 0.194161 -0.408424 -0.046070
v 0.194161 0.244617 -0.046070
v 0.257452 -0.424109 -0.046070
v 0.152039 0.244617 -0.046070
v 0.124367 -0.391125 -0.046070
v 0.124367 0.244617 -0.046070
v 0.152039 -0.397988 -0.046070
v 0.152039 -0.397988 0.068531
v 0.167065 0.244617 0.052532
v 0.152039 0.244617 0.068531
v 0.167065 -0.401707 0.052532
v 0.179203 0.244617 0.052532
v 0.179203 -0.404706 0.052532
v 0.194161 0.244617 0.068531
v 0.194161 -0.408424 0.068531
v 0.267132 -0.426512 0.052532
v 0.272768 0.244617 0.052532
v 0.267132 0.244617 0.052532
v 0.272768 -0.427905 0.052532
v 0.364814 -0.450709 0.052532
v 0.379697 0.244616 0.052532
v 0.364814 0.244616 0.052532
v 0.379697 -0.454408 0.052532
v 0.152039 -0.397988 -0.046070
v 0.152039 0.244617 -0.046070
v 0.167065 0.244617 -0.030171
v 0.167065 -0.401707 -0.030171
v 0.179203 0.244617 -0.030171
v 0.179203 -0.404705 -0.030171
v 0.194161 0.244617 -0.046070
v 0.194161 -0.408424 -0.046070
v 0.272768 0.244617 -0.030171
v 0.267132 -0.426512 -0.030171
v 0.267132 0.244617 -0.030171
v 0.272768 -0.427904 -0.030171
v 0.372184 -0.452540 -0.030171
v 0.379697 0.244617 -0.030171
v 0.379697 -0.454408 -0.030171
v 0.370232 -0.452056 -0.030171
v 0.364814 -0.450709 -0.030171
v 0.364814 0.244617 -0.030171
v 0.282450 0.244617 0.068531
v 0.272768 -0.427905 0.052532
v 0.282450 -0.430308 0.068531
v 0.272768 0.244617 0.052532
v 0.282450 0.244617 -0.046070
v 0.272768 -0.427904 -0.030171
v 0.272768 0.244617 -0.030171
v 0.282450 -0.430308 -0.046070
v 0.257452 -0.424109 0.068531
v 0.267132 0.244617 0.052532
v 0.257452 0.244617 0.068531
v 0.267132 -0.426512 0.052532
v 0.257452 -0.424109 -0.046070
v 0.267132 0.244617 -0.030171
v 0.267132 -0.426512 -0.030171
v 0.257452 0.244617 -0.046070
v 0.385190 0.244616 0.068531
v 0.379697 -0.454408 0.052532
v 0.385116 -0.455753 0.068531
v 0.379697 0.244616 0.052532
v 0.385190 0.244617 -0.046070
v 0.379697 -0.454408 -0.030171
v 0.379697 0.244617 -0.030171
v 0.380998 -0.454727 -0.033970
v 0.384178 -0.455505 -0.043171
v 0.381287 -0.454787 -0.034672
v 0.385116 -0.455753 -0.046070
v 0.385190 0.244617 -0.046070
v 0.381287 -0.454787 -0.034672
v 0.380998 -0.454727 -0.033970
v 0.395016 0.244617 -0.026173
v 0.395016 0.178845 0.025333
v 0.395016 0.244616 0.048534
v 0.395016 0.178845 -0.002873
v 0.138743 0.244617 0.048534
v 0.138743 0.178845 -0.002873
v 0.138743 0.244617 -0.026173
v 0.138743 0.178845 0.025333
v 0.425432 -0.465094 -0.052471
v 0.108544 -0.386548 -0.052471
v 0.108544 -0.386548 0.074932
v 0.425432 -0.465094 0.074932
vn -0.2418 -0.9703 -0.0000
vn -0.2416 -0.9704 -0.0000
vn -0.2415 -0.9704 -0.0000
vn -0.2419 -0.9703 -0.0000
vn -0.2417 -0.9703 -0.0000
vn -0.2418 -0.9703 0.0001
vn -0.2420 -0.9703 -0.0000
vn -0.2417 -0.9704 -0.0000
vn -0.2416 -0.9704 -0.0001
vn -0.0000 1.0000 -0.0000
vn -0.0000 1.0000 -0.0001
vn -0.0000 1.0000 0.0001
vn 0.9874 -0.1585 -0.0000
vn -1.0000 -0.0000 -0.0000
vn 1.0000 -0.0000 -0.0000
vn -0.9874 0.1585 -0.0000
vn 0.9471 -0.0000 0.3208
vn 0.9471 -0.0000 0.3211
vn 0.9470 -0.0000 0.3212
vn 0.9470 -0.0000 -0.3213
vn 0.9470 -0.0000 -0.3212
vn 0.9470 -0.0000 -0.3214
vn -0.0000 0.3295 0.9442
vn -0.0000 0.3295 -0.9442
vn -0.0000 0.3295 -0.9441
vn -0.0000 -0.0000 1.0000
vn -0.0004 -0.0000 1.0000
vn -0.0000 -0.0000 -1.0000
vn 0.7258 -0.0000 0.6879
vn 0.4274 -0.0000 0.9041
vn 0.4275 -0.0000 0.9040
vn -0.4274 -0.0000 0.9041
vn -0.4275 -0.0000 0.9040
vn -0.7258 -0.0000 0.6879
vn 0.7259 -0.0000 -0.6878
vn 0.7258 -0.0000 -0.6879
vn 0.4274 -0.0000 -0.9040
vn 0.4276 -0.0000 -0.9040
vn -0.4274 -0.0000 -0.9040
vn -0.4275 -0.0000 -0.9040
vn -0.7259 -0.0000 -0.6878
vn -0.7258 -0.0000 -0.6879
vn -0.8534 -0.0000 0.5212
vn -0.8535 -0.0000 0.5212
vn -0.8535 -0.0000 -0.5212
vn 0.8534 -0.0000 0.5212
vn 0.8534 -0.0000 -0.5212
vn 0.8534 -0.0000 -0.5213
vn -0.9470 -0.0000 0.3213
vn -0.9470 -0.0000 0.3212
vn -0.9471 0.0001 0.3208
vn -0.9470 -0.0000 -0.3213
vn -0.9469 -0.0000 -0.3216
vn 0.2416 0.9704 -0.0000
vn 0.2419 0.9703 -0.0000
vt 0.556491 0.844275
vt 0.578800 0.767064
vt 0.578800 0.844275
vt 0.556491 0.767064
vt 0.759944 0.354327
vt 0.739882 0.354327
vt 0.742673 0.343925
vt 0.739882 0.347581
vt 0.742673 0.340978
vt 0.757153 0.343925
vt 0.759944 0.347581
vt 0.742673 0.319541
vt 0.739882 0.337322
vt 0.739882 0.321904
vt 0.742673 0.318173
vt 0.742673 0.295757
vt 0.742673 0.294432
vt 0.740865 0.296613
vt 0.739882 0.315811
vt 0.739882 0.297079
vt 0.757153 0.340978
vt 0.742673 0.293956
vt 0.759944 0.337322
vt 0.742673 0.292120
vt 0.757153 0.319541
vt 0.759944 0.321904
vt 0.739882 0.284893
vt 0.742011 0.291806
vt 0.757153 0.318173
vt 0.757153 0.295757
vt 0.759944 0.315811
vt 0.759944 0.297079
vt 0.757153 0.292120
vt 0.759944 0.284893
vt 0.759944 0.290797
vt 0.739882 0.290797
vt 0.740397 0.291042
vt 0.741887 0.291748
vt 0.717043 0.393276
vt 0.719834 0.399879
vt 0.717043 0.403534
vt 0.719834 0.396932
vt 0.720534 0.390039
vt 0.717043 0.386529
vt 0.719834 0.421315
vt 0.717043 0.418953
vt 0.717043 0.425046
vt 0.720534 0.452455
vt 0.719834 0.422684
vt 0.733614 0.390039
vt 0.737105 0.386529
vt 0.737105 0.393276
vt 0.719834 0.445100
vt 0.717043 0.443778
vt 0.719834 0.448737
vt 0.717043 0.450059
vt 0.717043 0.455964
vt 0.737105 0.455964
vt 0.733614 0.452455
vt 0.737105 0.450059
vt 0.734314 0.448737
vt 0.737105 0.443778
vt 0.734314 0.445100
vt 0.737105 0.425046
vt 0.734314 0.422684
vt 0.734314 0.421315
vt 0.737105 0.418953
vt 0.737105 0.403534
vt 0.734314 0.399879
vt 0.734314 0.396932
vt 0.649862 0.599878
vt 0.649862 0.537462
vt 0.654808 0.537462
vt 0.654808 0.599878
vt 0.432828 0.049379
vt 0.410519 0.051793
vt 0.410519 0.049379
vt 0.432828 0.051793
vt 0.045104 0.417242
vt 0.065166 0.292910
vt 0.065166 0.417242
vt 0.045104 0.292910
vt 0.675189 0.855288
vt 0.655127 0.993434
vt 0.655127 0.855288
vt 0.675189 0.993434
vt 0.596763 0.060126
vt 0.619072 0.057713
vt 0.619072 0.060126
vt 0.596763 0.057713
vt 0.794607 0.464156
vt 0.795923 0.599878
vt 0.794607 0.599878
vt 0.795923 0.463893
vt 0.870437 0.594514
vt 0.873228 0.458793
vt 0.873228 0.594514
vt 0.872245 0.458700
vt 0.856307 0.464064
vt 0.855455 0.599878
vt 0.855455 0.463893
vt 0.724601 0.390039
vt 0.724601 0.452455
vt 0.729547 0.452455
vt 0.729547 0.390039
vt 0.593388 0.269348
vt 0.670675 0.256400
vt 0.593865 0.271762
vt 0.670197 0.253987
vt 0.813919 0.614184
vt 0.819793 0.751155
vt 0.813919 0.751155
vt 0.819793 0.613009
vt 0.688253 0.861439
vt 0.706887 0.993434
vt 0.688253 0.993434
vt 0.706887 0.857713
vt 0.717043 0.472163
vt 0.732381 0.599878
vt 0.717043 0.599878
vt 0.732381 0.469095
vt 0.803876 0.235748
vt 0.810588 0.360080
vt 0.803876 0.360080
vt 0.810588 0.234406
vt 0.467752 0.226705
vt 0.545039 0.239653
vt 0.544562 0.242067
vt 0.468229 0.224292
vt 0.813919 0.599878
vt 0.819793 0.462907
vt 0.819793 0.599878
vt 0.813919 0.461732
vt 0.681321 0.842157
vt 0.699955 0.710162
vt 0.699955 0.842157
vt 0.681321 0.706435
vt 0.717043 0.743792
vt 0.732381 0.616077
vt 0.732381 0.743792
vt 0.717043 0.613009
vt 0.805277 0.990881
vt 0.811989 0.866549
vt 0.811989 0.990881
vt 0.805277 0.865207
vt 0.745444 0.615050
vt 0.749081 0.740724
vt 0.745444 0.740724
vt 0.749081 0.614323
vt 0.752013 0.740724
vt 0.752013 0.613737
vt 0.755649 0.740724
vt 0.755649 0.613009
vt 0.835206 0.613751
vt 0.836568 0.745004
vt 0.835206 0.745004
vt 0.836568 0.613479
vt 0.799541 0.599878
vt 0.799541 0.463170
vt 0.751108 0.867760
vt 0.751108 0.993434
vt 0.747472 0.993434
vt 0.747472 0.867033
vt 0.744540 0.993434
vt 0.744540 0.866446
vt 0.740903 0.993434
vt 0.740903 0.865719
vt 0.827402 0.990881
vt 0.828763 0.859628
vt 0.828763 0.990881
vt 0.827402 0.859356
vt 0.853664 0.463535
vt 0.851837 0.599878
vt 0.851837 0.463170
vt 0.854138 0.463630
vt 0.838918 0.745004
vt 0.838918 0.613009
vt 0.825052 0.990881
vt 0.825052 0.858886
vt 0.832856 0.614222
vt 0.832856 0.745004
vt 0.831113 0.860098
vt 0.831113 0.990881
vt 0.800856 0.599878
vt 0.800856 0.462907
vt 0.870437 0.744617
vt 0.873228 0.607909
vt 0.873228 0.744617
vt 0.872566 0.607846
vt 0.870953 0.607694
vt 0.872442 0.607835
vt 0.870437 0.607646
vt 0.660597 0.086326
vt 0.669610 0.073464
vt 0.673677 0.086326
vt 0.664664 0.073464
vt 0.634454 0.086326
vt 0.643466 0.073464
vt 0.647534 0.086326
vt 0.638521 0.073464
vt 0.327036 0.371833
vt 0.327036 0.294622
vt 0.349345 0.294622
vt 0.349345 0.371833
s 1
usemtl Magazine1Mtl
f 1/1/1 2/2/1 3/3/1
f 2/2/1 1/1/1 4/4/1
f 5/5/1 6/6/1 7/7/2
f 7/7/2 6/6/1 8/8/2
f 5/5/1 7/7/2 9/9/2
f 10/10/3 5/5/1 9/9/2
f 5/5/1 10/10/3 11/11/4
f 10/10/3 9/9/2 12/12/5
f 12/12/5 9/9/2 13/13/5
f 12/12/5 13/13/5 14/14/1
f 12/12/5 15/15/4 10/10/3
f 16/16/6 10/10/3 15/15/4
f 16/16/6 17/17/1 10/10/3
f 16/16/6 15/15/4 18/18/7
f 18/18/7 15/15/4 19/19/1
f 18/18/7 19/19/1 20/20/1
f 10/10/3 17/17/1 21/21/1
f 22/22/1 21/21/1 17/17/1
f 21/21/1 22/22/1 23/23/5
f 24/24/1 23/23/5 22/22/1
f 24/24/1 25/25/8 23/23/5
f 25/25/8 26/26/1 23/23/5
f 24/24/1 27/27/1 25/25/8
f 24/24/1 28/28/9 27/27/1
f 27/27/1 29/29/5 25/25/8
f 30/30/3 29/29/5 27/27/1
f 29/29/5 30/30/3 31/31/2
f 30/30/3 32/32/1 31/31/2
f 27/27/1 33/33/8 30/30/3
f 27/27/1 34/34/2 33/33/8
f 33/33/8 34/34/2 35/35/5
f 36/36/1 27/27/1 37/37/1
f 37/37/1 27/27/1 38/38/5
f 39/38/1 40/27/1 41/28/1
f 42/39/10 43/40/10 44/41/10
f 43/40/10 42/39/10 45/42/10
f 46/43/10 45/42/10 42/39/10
f 46/43/10 43/40/10 45/42/10
f 47/44/10 46/43/10 42/39/10
f 48/45/10 44/41/10 43/40/10
f 44/41/10 48/45/10 49/46/10
f 49/46/10 48/45/10 50/47/10
f 43/40/10 51/48/10 48/45/10
f 46/43/10 51/48/10 43/40/10
f 50/47/10 48/45/10 52/49/10
f 47/44/10 53/50/10 46/43/10
f 53/50/10 47/44/10 54/51/10
f 55/52/10 53/50/10 54/51/10
f 56/53/10 50/47/10 52/49/10
f 52/49/10 51/48/10 56/53/10
f 50/47/10 56/53/10 57/54/10
f 58/55/10 57/54/10 56/53/10
f 51/48/10 58/55/10 56/53/10
f 57/54/10 58/55/10 59/56/10
f 51/48/10 59/56/10 58/55/10
f 59/56/10 51/48/10 60/57/10
f 51/48/10 61/58/10 60/57/10
f 61/58/10 51/48/10 62/59/10
f 63/60/10 61/58/10 62/59/10
f 63/60/10 62/59/10 64/61/10
f 65/62/10 63/60/10 64/61/10
f 66/63/10 65/62/10 64/61/10
f 66/63/10 64/61/10 62/59/10
f 66/63/10 67/64/10 65/62/10
f 66/63/10 62/59/10 68/65/10
f 66/63/10 68/65/10 67/64/10
f 69/66/11 67/64/10 68/65/10
f 67/64/10 69/66/11 70/67/10
f 69/66/11 71/68/10 70/67/10
f 69/66/11 62/59/11 72/69/10
f 69/66/11 72/69/10 71/68/10
f 62/59/11 53/50/10 72/69/10
f 55/52/10 71/68/10 72/69/10
f 72/69/10 53/50/10 73/70/10
f 53/50/10 55/52/10 73/70/10
f 55/52/10 72/69/10 73/70/10
f 74/48/12 75/49/12 76/45/12
f 77/66/11 78/65/11 79/59/11
f 80/71/10 81/72/10 82/73/10
f 82/73/10 83/74/10 80/71/10
f 84/75/13 85/76/13 86/77/13
f 85/76/13 84/75/13 87/78/13
f 88/79/14 89/80/14 90/81/14
f 89/80/14 88/79/14 91/82/14
f 92/83/15 93/84/15 94/85/15
f 93/84/15 92/83/15 95/86/15
f 96/87/16 97/88/16 98/89/16
f 97/88/16 96/87/16 99/90/16
f 100/91/17 101/92/18 102/93/17
f 101/92/18 100/91/17 103/94/19
f 104/95/20 105/96/21 106/97/22
f 105/96/21 104/95/20 107/98/20
f 108/99/20 109/100/20 110/101/20
f 111/48/23 112/43/23 113/102/23
f 113/102/23 114/103/23 111/48/23
f 115/104/24 116/105/24 117/50/24
f 117/50/24 118/59/25 115/104/24
f 119/106/26 120/107/26 121/108/26
f 120/107/26 119/106/26 122/109/26
f 123/110/26 124/111/26 125/112/26
f 124/111/26 123/110/26 126/113/26
f 127/114/26 128/115/26 129/116/26
f 128/115/26 127/114/26 130/117/26
f 131/118/26 132/119/26 133/120/26
f 132/119/26 131/118/26 134/121/27
f 135/122/26 136/123/26 137/124/26
f 136/123/26 135/122/26 138/125/26
f 139/126/28 140/127/28 141/128/28
f 140/127/28 139/126/28 142/129/28
f 143/130/28 144/131/28 145/132/28
f 144/131/28 143/130/28 146/133/28
f 147/134/28 148/135/28 149/136/28
f 148/135/28 147/134/28 150/137/28
f 151/138/28 152/139/28 153/140/28
f 152/139/28 151/138/28 154/141/28
f 155/142/28 156/143/28 157/144/28
f 156/143/28 155/142/28 158/145/28
f 159/146/29 160/147/30 161/148/29
f 160/147/30 159/146/29 162/149/31
f 162/149/31 163/150/32 160/147/30
f 163/150/32 162/149/31 164/151/33
f 164/151/33 165/152/34 163/150/32
f 165/152/34 164/151/33 166/153/34
f 167/154/26 168/155/26 169/156/26
f 168/155/26 167/154/26 170/157/26
f 171/94/26 172/158/26 173/92/26
f 172/158/26 171/94/26 174/159/26
f 175/160/35 176/161/36 177/162/37
f 175/160/35 177/162/37 178/163/38
f 179/164/39 178/163/38 177/162/37
f 178/163/38 179/164/39 180/165/40
f 180/165/40 179/164/39 181/166/41
f 180/165/40 181/166/41 182/167/42
f 183/168/28 184/169/28 185/170/28
f 184/169/28 183/168/28 186/171/28
f 187/172/28 188/173/28 189/174/28
f 188/173/28 187/172/28 190/175/28
f 191/101/28 188/173/28 190/175/28
f 188/173/28 191/101/28 192/100/28
f 193/176/43 194/157/43 195/177/43
f 194/157/43 193/176/43 196/155/44
f 197/178/45 198/171/45 199/168/45
f 198/171/45 197/178/45 200/179/45
f 201/180/46 202/156/46 203/181/46
f 202/156/46 201/180/46 204/154/46
f 205/182/47 206/170/48 207/169/47
f 206/170/48 205/182/47 208/183/47
f 209/184/49 210/159/50 211/185/51
f 210/159/50 209/184/49 212/158/49
f 213/186/52 214/187/52 215/188/52
f 214/187/52 213/186/52 216/189/52
f 213/186/52 217/190/52 218/191/53
f 217/190/52 213/186/52 219/192/52
f 220/186/52 221/191/52 222/189/52
f 223/193/14 224/194/14 225/195/14
f 224/194/14 223/193/14 226/196/14
f 227/197/15 228/198/15 229/199/15
f 228/198/15 227/197/15 230/200/15
f 231/201/54 232/202/54 233/203/55
f 233/203/55 234/204/54 231/201/54
