# Blender 5.2.0 LTS
# www.blender.org
mtllib Glass default AR bolt.mtl
o Bolt
v -0.178994 -0.056494 0.009839
v -0.178445 -0.055946 0.009208
v -0.178994 -0.056494 0.109937
v -0.178449 -0.055944 0.110569
v -0.166100 -0.087500 0.009839
v -0.165324 -0.087500 0.009209
v -0.166100 -0.087500 0.109937
v -0.165324 -0.087500 0.110567
v -0.178994 -0.118506 0.009839
v -0.178445 -0.119054 0.009208
v -0.178994 -0.118506 0.109937
v -0.178445 -0.119054 0.110567
v -0.191400 -0.068457 -0.060107
v -0.190698 -0.067745 -0.060101
v -0.191400 -0.068457 0.009839
v -0.190990 -0.068040 0.009027
v -0.183694 -0.087500 0.009839
v -0.183097 -0.087500 0.009037
v -0.183694 -0.087500 -0.060107
v -0.182694 -0.087501 -0.060107
v -0.191400 -0.106482 -0.060107
v -0.190697 -0.107194 -0.060101
v -0.191400 -0.106482 0.009839
v -0.190989 -0.106899 0.009028
v -0.210000 -0.043494 0.009839
v -0.210000 -0.042717 0.009209
v -0.210000 -0.043494 0.109937
v -0.210001 -0.042717 0.110566
v -0.240998 -0.056494 0.109937
v -0.241545 -0.055945 0.110568
v -0.240998 -0.056494 0.009839
v -0.241547 -0.055946 0.009208
v -0.228600 -0.068457 0.009839
v -0.229010 -0.068041 0.009027
v -0.228600 -0.068457 -0.060107
v -0.229302 -0.067745 -0.060101
v -0.210000 -0.061499 -0.060107
v -0.210000 -0.060499 -0.060107
v -0.210000 -0.061499 0.009839
v -0.210000 -0.060892 0.009044
v -0.240998 -0.118506 0.109937
v -0.241547 -0.119054 0.110567
v -0.253900 -0.087500 0.109937
v -0.254676 -0.087500 0.110567
v -0.210000 -0.131506 0.109937
v -0.210000 -0.132283 0.110566
v -0.253900 -0.087500 0.009839
v -0.254676 -0.087500 0.009209
v -0.240998 -0.118506 0.009839
v -0.241547 -0.119054 0.009208
v -0.236299 -0.087500 -0.060107
v -0.237299 -0.087500 -0.060107
v -0.236299 -0.087500 0.009839
v -0.236896 -0.087500 0.009037
v -0.228600 -0.106482 -0.060107
v -0.229303 -0.107194 -0.060101
v -0.228600 -0.106482 0.009839
v -0.229011 -0.106899 0.009028
v -0.210000 -0.131506 0.009839
v -0.210000 -0.132283 0.009209
v -0.210000 -0.113501 -0.060107
v -0.210000 -0.114501 -0.060107
v -0.210000 -0.113501 0.009839
v -0.210000 -0.114106 0.009043
v -0.190860 -0.106375 -0.056618
v -0.183646 -0.088119 0.008938
v -0.191006 -0.106227 0.008933
v -0.241465 -0.118318 0.107190
v -0.254021 -0.088142 0.010024
v -0.241465 -0.118318 0.010024
v -0.228994 -0.106227 0.005947
v -0.236548 -0.088119 -0.059607
v -0.229140 -0.106374 -0.059604
v -0.209359 -0.131626 0.109751
v -0.179181 -0.118973 0.012583
v -0.179180 -0.118973 0.109752
v -0.240811 -0.056026 0.107193
v -0.210641 -0.043374 0.010024
v -0.240812 -0.056027 0.010024
v -0.236410 -0.087037 0.005961
v -0.229202 -0.068720 -0.059604
v -0.236611 -0.087037 -0.059607
v -0.183381 -0.087037 -0.056631
v -0.190944 -0.068868 0.008933
v -0.183583 -0.087037 0.008938
v -0.165979 -0.086858 0.109752
v -0.178528 -0.056682 0.012586
v -0.178530 -0.056681 0.109753
v -0.179929 -0.056719 0.110253
v -0.240772 -0.056720 0.110252
v -0.240773 -0.117573 0.110252
v -0.228867 -0.107446 0.009433
v -0.211491 -0.130727 0.009524
v -0.240381 -0.118612 0.009524
v -0.178452 -0.118138 0.109752
v -0.165904 -0.087962 0.012586
v -0.165904 -0.087962 0.109752
v -0.179363 -0.055950 0.109753
v -0.209539 -0.043299 0.012583
v -0.209539 -0.043299 0.109751
v -0.179435 -0.057605 0.009523
v -0.183616 -0.085621 0.009438
v -0.190605 -0.068374 0.009433
v -0.254096 -0.087038 0.107189
v -0.241540 -0.056862 0.010024
v -0.254096 -0.087038 0.010024
v -0.210620 -0.061428 0.008941
v -0.228483 -0.067926 -0.056513
v -0.228337 -0.068074 0.008933
v -0.191815 -0.068017 0.008933
v -0.209532 -0.061174 -0.056516
v -0.209532 -0.061371 0.008941
v -0.210461 -0.131701 0.107192
v -0.240632 -0.119049 0.010024
v -0.210461 -0.131701 0.010024
v -0.210468 -0.113627 0.005853
v -0.228332 -0.107072 -0.059604
v -0.210468 -0.113824 -0.059607
v -0.211494 -0.044274 0.009524
v -0.228867 -0.067495 0.009433
v -0.240379 -0.056387 0.009524
v -0.192612 -0.107760 0.009433
v -0.209500 -0.130384 0.009524
v -0.209500 -0.114149 0.009441
v -0.237179 -0.088000 0.009438
v -0.241499 -0.116935 0.009524
v -0.253538 -0.088000 0.009524
v -0.241499 -0.058065 0.009524
v -0.237179 -0.087000 0.009438
v -0.253538 -0.087000 0.009524
v -0.183617 -0.089375 0.009438
v -0.179436 -0.117389 0.009524
v -0.190604 -0.106566 0.009433
v -0.209500 -0.044613 0.009524
v -0.192611 -0.067185 0.009433
v -0.209500 -0.060849 0.009441
v -0.191662 -0.106867 0.005845
v -0.209381 -0.113767 -0.059607
v -0.191516 -0.107014 -0.059604
v -0.190797 -0.106219 -0.059604
v -0.183382 -0.087964 -0.059607
v -0.183583 -0.087963 0.005952
v -0.241540 -0.118138 0.109752
v -0.254096 -0.087962 0.109752
v -0.254096 -0.087962 0.012586
v -0.229057 -0.106072 0.008933
v -0.236409 -0.087963 0.008938
v -0.236611 -0.087963 -0.056621
v -0.209539 -0.131701 0.107192
v -0.209539 -0.131701 0.010024
v -0.179361 -0.119049 0.010024
v -0.240631 -0.055951 0.109752
v -0.210461 -0.043299 0.109751
v -0.210461 -0.043299 0.012584
v -0.236347 -0.086881 0.008938
v -0.228993 -0.068713 0.008933
v -0.229139 -0.068564 -0.056627
v -0.183444 -0.086881 -0.059607
v -0.190861 -0.068564 -0.059604
v -0.191007 -0.068712 0.005956
v -0.165904 -0.087038 0.107189
v -0.165904 -0.087038 0.010024
v -0.178453 -0.056862 0.010023
v -0.210000 -0.131353 0.110251
v -0.181205 -0.119280 0.110252
v -0.238788 -0.119280 0.110252
v -0.178219 -0.116275 0.110252
v -0.166254 -0.087500 0.110252
v -0.178222 -0.058724 0.110253
v -0.240066 -0.118280 0.110252
v -0.179219 -0.118280 0.110252
v -0.179222 -0.057426 0.110253
v -0.181207 -0.055719 0.110253
v -0.210000 -0.043647 0.110251
v -0.238787 -0.055720 0.110252
v -0.241772 -0.058723 0.110252
v -0.253746 -0.087500 0.110252
v -0.241773 -0.116277 0.110252
v -0.227388 -0.107760 0.009433
v -0.210500 -0.114149 0.009441
v -0.210500 -0.130384 0.009524
v -0.178527 -0.118318 0.107189
v -0.178527 -0.118318 0.010024
v -0.165979 -0.088142 0.010024
v -0.179183 -0.056026 0.107194
v -0.179181 -0.056027 0.010023
v -0.209358 -0.043374 0.010024
v -0.178494 -0.058066 0.009523
v -0.166462 -0.087000 0.009524
v -0.182814 -0.087000 0.009438
v -0.254021 -0.086858 0.109752
v -0.241464 -0.056681 0.109752
v -0.241465 -0.056682 0.012586
v -0.210468 -0.061371 0.005850
v -0.210468 -0.061174 -0.059607
v -0.228332 -0.067869 -0.059604
v -0.191663 -0.068074 0.005841
v -0.191517 -0.067926 -0.059604
v -0.209380 -0.061231 -0.059607
v -0.210641 -0.131626 0.109751
v -0.240812 -0.118973 0.109752
v -0.240812 -0.118973 0.012583
v -0.210619 -0.113570 0.008941
v -0.228338 -0.106867 0.008933
v -0.228484 -0.107014 -0.056516
v -0.210500 -0.044613 0.009524
v -0.210500 -0.060849 0.009441
v -0.227389 -0.067185 0.009433
v -0.191133 -0.107446 0.009433
v -0.179611 -0.118612 0.009524
v -0.208509 -0.130728 0.009524
v -0.236376 -0.089376 0.009438
v -0.229396 -0.106566 0.009433
v -0.240556 -0.117388 0.009524
v -0.240557 -0.057605 0.009524
v -0.229395 -0.068374 0.009433
v -0.236376 -0.085620 0.009438
v -0.182814 -0.088000 0.009438
v -0.166462 -0.088000 0.009524
v -0.178493 -0.116934 0.009524
v -0.208505 -0.044274 0.009524
v -0.179614 -0.056387 0.009523
v -0.191133 -0.067495 0.009433
v -0.191814 -0.106924 0.008933
v -0.209532 -0.113627 0.008941
v -0.209532 -0.113824 -0.056519
vn -0.9537 -0.2408 0.1799
vn -0.9567 -0.2361 0.1702
vn -0.9536 -0.2463 0.1731
vn 0.5620 -0.8102 0.1665
vn 0.5562 -0.8157 0.1589
vn 0.5712 -0.8037 0.1666
vn -0.8870 0.3603 -0.2890
vn -0.8832 0.3694 -0.2889
vn -0.8831 0.3627 -0.2976
vn 0.3100 -0.1353 -0.9411
vn 0.3098 -0.1256 -0.9425
vn 0.3134 -0.1165 -0.9424
vn -0.3630 0.9318 0.0076
vn -0.3533 0.9355 -0.0108
vn -0.3688 0.9295 0.0014
vn -0.3587 0.9334 -0.0109
vn 0.9926 0.1209 0.0111
vn 0.9935 0.1136 -0.0072
vn 0.9924 0.1230 0.0015
vn 0.9922 0.1247 0.0033
vn 0.9626 -0.1981 -0.1848
vn 0.9624 -0.1983 -0.1857
vn 0.9623 -0.1980 -0.1866
vn -0.5397 -0.8211 -0.1855
vn -0.5401 -0.8207 -0.1863
vn -0.5397 -0.8209 -0.1864
vn 0.4230 0.1760 0.8889
vn 0.4239 0.1756 0.8885
vn 0.4226 0.1770 0.8889
vn -0.8455 -0.3506 0.4028
vn -0.8451 -0.3516 0.4028
vn -0.8450 -0.3509 0.4035
vn 0.3728 0.9279 0.0011
vn 0.3731 0.9278 -0.0009
vn 0.3727 0.9280 -0.0009
vn 0.3719 0.9283 0.0004
vn -0.9938 0.1110 0.0008
vn -0.9938 0.1108 -0.0008
vn -0.9938 0.1115 0.0011
vn -0.9938 0.1115 -0.0010
vn 0.9650 -0.1992 -0.1708
vn 0.9673 -0.1954 -0.1617
vn 0.9671 -0.1959 -0.1620
vn 0.9650 -0.2038 -0.1651
vn -0.5201 -0.8365 -0.1724
vn -0.5144 -0.8415 -0.1654
vn -0.5278 -0.8318 -0.1720
vn -0.5198 -0.8370 -0.1712
vn 0.6822 0.2774 0.6765
vn 0.6779 0.2870 0.6769
vn 0.6740 0.2783 0.6843
vn 0.6825 0.2761 0.6767
vn -0.6819 -0.2852 0.6736
vn -0.6797 -0.2765 0.6794
vn -0.6795 -0.2761 0.6797
vn -0.6842 -0.2657 0.6792
vn 0.3739 0.9274 -0.0086
vn 0.3618 0.9322 0.0067
vn 0.3753 0.9269 -0.0038
vn 0.3667 0.9303 0.0101
vn -0.9913 0.1314 -0.0045
vn -0.9921 0.1251 0.0136
vn -0.9909 0.1347 0.0086
vn -0.9909 0.1345 0.0023
vn 0.1962 0.9628 0.1860
vn 0.1966 0.9625 0.1871
vn 0.1973 0.9625 0.1864
vn 0.8228 -0.5374 0.1847
vn 0.8222 -0.5381 0.1855
vn 0.8216 -0.5391 0.1856
vn -0.9291 0.3699 -0.0010
vn -0.9286 0.3712 0.0003
vn -0.9289 0.3704 -0.0009
vn -0.9284 0.3715 0.0004
vn -0.1091 -0.9940 -0.0009
vn -0.1098 -0.9939 0.0009
vn -0.1103 -0.9939 0.0001
vn -0.1097 -0.9940 -0.0006
vn -0.1780 0.4224 -0.8887
vn -0.1772 0.4227 -0.8887
vn -0.1775 0.4220 -0.8890
vn 0.3539 -0.8441 -0.4027
vn 0.3545 -0.8442 -0.4021
vn 0.3531 -0.8445 -0.4027
vn -0.1969 -0.9625 -0.1868
vn -0.1966 -0.9626 -0.1862
vn -0.1973 -0.9625 -0.1864
vn -0.8219 0.5386 -0.1853
vn -0.8223 0.5383 -0.1848
vn -0.8216 0.5392 -0.1853
vn 0.1773 -0.4227 0.8888
vn 0.1784 -0.4222 0.8888
vn 0.1777 -0.4216 0.8892
vn -0.3548 0.8442 0.4018
vn -0.3540 0.8441 0.4027
vn -0.3528 0.8446 0.4027
vn 0.9281 -0.3722 -0.0004
vn 0.9287 -0.3709 0.0006
vn 0.9283 -0.3717 -0.0002
vn 0.9286 -0.3711 0.0012
vn 0.1099 0.9939 -0.0005
vn 0.1095 0.9940 0.0012
vn 0.1103 0.9939 0.0009
vn 0.1102 0.9939 -0.0001
vn 0.5509 -0.8180 -0.1653
vn 0.5577 -0.8122 -0.1711
vn 0.5498 -0.8212 -0.1529
vn 0.5508 -0.8182 -0.1650
vn -0.9583 -0.2370 -0.1600
vn -0.9570 -0.2342 -0.1709
vn -0.9572 -0.2334 -0.1713
vn -0.9555 -0.2439 -0.1660
vn 0.6781 -0.2868 0.6767
vn 0.6828 -0.2752 0.6767
vn 0.6821 -0.2755 0.6773
vn 0.6740 -0.2797 0.6837
vn -0.6810 0.2747 0.6788
vn -0.6814 0.2854 0.6740
vn -0.6847 0.2644 0.6792
vn -0.6801 0.2760 0.6793
vn 0.9116 0.4111 -0.0019
vn 0.9112 0.4119 -0.0010
vn 0.9115 0.4113 -0.0015
vn 0.9113 0.4117 -0.0005
vn -0.6160 0.7877 0.0024
vn -0.6163 0.7875 0.0036
vn -0.6157 0.7880 0.0032
vn -0.6159 0.7878 0.0027
vn -0.5180 -0.8380 0.1717
vn -0.5221 -0.8336 0.1803
vn -0.5169 -0.8407 0.1614
vn 0.9710 -0.1833 0.1537
vn 0.9697 -0.1803 0.1646
vn 0.9682 -0.1900 0.1631
vn -0.8834 -0.3692 -0.2885
vn -0.8875 -0.3594 -0.2885
vn -0.8830 -0.3633 -0.2972
vn 0.3098 0.1252 -0.9425
vn 0.3092 0.1357 -0.9412
vn 0.3138 0.1154 -0.9424
vn -0.9081 0.4188 -0.0014
vn 0.6250 0.7807 0.0028
vn -0.9624 0.1982 0.1856
vn -0.9626 0.1983 0.1843
vn -0.9623 0.1979 0.1868
vn 0.5400 0.8207 0.1867
vn 0.5398 0.8211 0.1855
vn 0.5398 0.8208 0.1868
vn -0.3729 -0.9279 0.0013
vn -0.3729 -0.9279 -0.0010
vn -0.3720 -0.9282 -0.0003
vn -0.3727 -0.9280 0.0013
vn 0.9940 -0.1094 0.0007
vn 0.9940 -0.1097 -0.0012
vn 0.9939 -0.1100 0.0013
vn 0.9939 -0.1100 -0.0009
vn -0.4235 -0.1754 -0.8887
vn -0.4227 -0.1758 -0.8891
vn -0.4223 -0.1767 -0.8891
vn 0.8455 0.3517 -0.4018
vn 0.8459 0.3508 -0.4018
vn 0.8454 0.3510 -0.4025
vn -0.0096 -0.8144 -0.5803
vn 0.0048 -0.8144 -0.5803
vn 0.0024 -0.8168 -0.5769
vn -0.0088 -0.8165 -0.5773
vn -0.0033 -0.3745 0.9272
vn 0.0083 -0.3733 0.9277
vn -0.0096 -0.3777 0.9259
vn 0.0048 -0.3777 0.9259
vn 0.8108 0.0024 -0.5854
vn 0.8131 -0.0004 -0.5821
vn 0.8132 0.0005 -0.5820
vn 0.8132 -0.0048 -0.5820
vn 0.3775 0.0005 0.9260
vn 0.3775 -0.0048 0.9260
vn 0.3808 -0.0033 0.9247
vn 0.3777 0.0004 0.9259
vn -0.3768 0.3774 -0.8459
vn -0.3682 0.3792 -0.8489
vn -0.3839 0.3703 -0.8459
vn -0.3770 0.3775 -0.8458
vn -0.3850 0.3714 0.8449
vn -0.3785 0.3778 0.8450
vn -0.3779 0.3785 0.8449
vn -0.3866 0.3738 0.8431
vn -0.3437 -0.2543 0.9040
vn -0.6693 -0.5035 -0.5464
vn 0.3528 0.8414 0.4094
vn 0.1332 0.3176 -0.9388
vn 0.4059 -0.4154 0.8141
vn 0.4083 -0.4304 -0.8050
vn -0.5388 0.8220 0.1846
vn -0.5391 0.8216 0.1853
vn -0.5383 0.8221 0.1853
vn 0.9625 0.1976 0.1859
vn 0.9625 0.1971 0.1866
vn 0.9627 0.1975 0.1850
vn -0.9203 -0.3912 -0.0000
vn 0.6227 -0.7825 -0.0000
vn -0.4229 0.1759 -0.8889
vn -0.4235 0.1752 -0.8888
vn -0.4228 0.1767 -0.8888
vn 0.8454 -0.3506 -0.4029
vn 0.8452 -0.3514 -0.4027
vn 0.8450 -0.3510 -0.4034
vn -0.8218 -0.5388 0.1853
vn -0.8223 -0.5381 0.1851
vn -0.8226 -0.5380 0.1842
vn -0.1963 0.9626 0.1865
vn -0.1966 0.9627 0.1857
vn -0.1969 0.9626 0.1859
vn 0.3897 -0.9209 -0.0000
vn 0.7837 0.6212 -0.0000
vn -0.1768 -0.4218 -0.8893
vn -0.1776 -0.4215 -0.8893
vn -0.1773 -0.4211 -0.8895
vn 0.3546 0.8442 -0.4019
vn 0.3540 0.8442 -0.4025
vn 0.3532 0.8445 -0.4025
vn -0.8246 0.1238 0.5521
vn -0.8253 0.1234 0.5510
vn -0.8256 0.1221 0.5509
vn -0.4200 0.0662 -0.9051
vn -0.4192 0.0652 -0.9055
vn -0.4205 0.0650 -0.9050
vn 0.4290 0.1738 0.8864
vn 0.4280 0.1745 0.8868
vn 0.4286 0.1727 0.8868
vn 0.8076 0.3261 -0.4915
vn 0.8068 0.3269 -0.4921
vn 0.8074 0.3272 -0.4910
vn 0.4091 -0.4260 0.8070
vn 0.4067 -0.4263 0.8080
vn 0.4073 -0.4274 0.8071
vn 0.4086 -0.4271 0.8066
vn 0.4120 -0.4170 -0.8102
vn 0.4112 -0.4182 -0.8100
vn 0.4126 -0.4169 -0.8099
vn 0.4115 -0.4191 -0.8094
vn 0.5389 -0.8217 -0.1853
vn 0.5385 -0.8222 -0.1843
vn 0.5378 -0.8224 -0.1854
vn -0.9625 -0.1965 -0.1869
vn -0.9626 -0.1973 -0.1859
vn -0.9628 -0.1972 -0.1847
vn 0.4238 -0.1751 0.8887
vn 0.4230 -0.1760 0.8889
vn 0.4229 -0.1772 0.8887
vn -0.8451 0.3516 0.4028
vn -0.8454 0.3505 0.4031
vn -0.8448 0.3510 0.4038
vn 0.9204 0.3911 -0.0000
vn -0.6225 0.7826 -0.0000
vn -0.2592 -0.9517 0.1644
vn -0.2596 -0.9535 0.1529
vn -0.2562 -0.9505 0.1755
vn -0.7979 0.5768 0.1750
vn -0.8010 0.5757 0.1641
vn -0.7988 0.5754 0.1756
vn 0.9246 -0.3808 0.0101
vn 0.9246 -0.3808 -0.0126
vn 0.9264 -0.3764 -0.0108
vn 0.9253 -0.3792 0.0102
vn 0.1243 0.9922 0.0044
vn 0.1327 0.9911 -0.0084
vn 0.1353 0.9907 0.0145
vn 0.1353 0.9908 -0.0078
vn 0.3327 -0.8997 -0.2824
vn 0.3355 -0.8956 -0.2921
vn 0.3457 -0.8917 -0.2921
vn -0.1176 0.3150 -0.9418
vn -0.1075 0.3188 -0.9417
vn -0.1069 0.3144 -0.9432
vn -0.8330 -0.5300 0.1587
vn -0.8294 -0.5328 0.1682
vn -0.8348 -0.5262 0.1616
vn -0.2048 0.9658 0.1591
vn -0.1944 0.9672 0.1634
vn -0.2046 0.9674 0.1494
vn 0.4384 -0.8988 -0.0013
vn 0.7722 0.6353 0.0028
vn -0.3355 -0.8956 -0.2921
vn -0.3295 -0.9002 -0.2847
vn -0.3453 -0.8928 -0.2892
vn 0.1072 0.3168 -0.9424
vn 0.1176 0.3149 -0.9418
vn 0.1077 0.3120 -0.9440
vn 0.8228 0.5372 -0.1853
vn 0.8222 0.5381 -0.1856
vn 0.8232 0.5371 -0.1842
vn 0.1955 -0.9631 -0.1852
vn 0.1952 -0.9629 -0.1862
vn 0.1960 -0.9629 -0.1855
vn 0.1783 0.4223 0.8888
vn 0.1773 0.4227 0.8888
vn 0.1779 0.4218 0.8891
vn -0.3540 -0.8441 0.4028
vn -0.3548 -0.8441 0.4020
vn -0.3530 -0.8445 0.4028
vn -0.3897 0.9210 -0.0000
vn -0.7838 -0.6211 -0.0000
vn 0.8110 0.5622 -0.1620
vn 0.8146 0.5594 -0.1530
vn 0.8178 0.5533 -0.1582
vn 0.2453 -0.9539 -0.1726
vn 0.2539 -0.9530 -0.1655
vn 0.2536 -0.9548 -0.1547
vn 0.2540 0.6954 0.6723
vn 0.2598 0.6878 0.6778
vn 0.2704 0.6860 0.6754
vn -0.2592 -0.6858 0.6801
vn -0.2486 -0.6881 0.6818
vn -0.2512 -0.6821 0.6867
vn -0.4292 0.9032 -0.0013
vn -0.7804 -0.6253 0.0027
vn -0.3445 0.2546 0.9036
vn -0.3437 0.2549 0.9039
vn -0.3443 0.2554 0.9035
vn -0.6687 0.5043 -0.5464
vn -0.6684 0.5050 -0.5460
vn -0.6685 0.5037 -0.5471
vn 0.4045 0.4160 0.8144
vn 0.4078 0.4321 -0.8043
vn 0.3528 -0.8413 0.4095
vn 0.3536 -0.8412 0.4091
vn 0.3524 -0.8411 0.4103
vn 0.1328 -0.3185 -0.9386
vn 0.1332 -0.3177 -0.9388
vn 0.1336 -0.3185 -0.9385
vn -0.6677 0.4983 0.5530
vn -0.3454 0.2532 -0.9036
vn 0.5798 0.0020 0.8148
vn 0.5876 -0.0059 -0.8092
vn 0.1629 -0.4305 0.8878
vn 0.3091 -0.8168 -0.4871
vn -0.4197 0.0645 0.9054
vn -0.8300 0.1208 -0.5446
vn 0.8425 0.3505 0.4091
vn 0.3181 0.1324 -0.9388
vn 0.0021 -0.5829 0.8126
vn -0.0061 -0.5857 -0.8105
vn -0.4197 -0.0645 0.9054
vn -0.8300 -0.1208 -0.5446
vn 0.0021 0.5829 0.8125
vn -0.0061 0.5856 -0.8106
vn 0.8425 -0.3505 0.4091
vn 0.3181 -0.1324 -0.9388
vn -0.8253 -0.1234 0.5510
vn -0.4199 -0.0662 -0.9052
vn 0.4082 0.4244 0.8082
vn 0.4138 0.4175 -0.8090
vn 0.4285 -0.1742 0.8866
vn 0.8067 -0.3279 -0.4916
vn -0.6670 -0.5000 0.5523
vn -0.6665 -0.5003 0.5527
vn -0.6675 -0.4981 0.5535
vn -0.6676 -0.4996 0.5521
vn -0.3464 -0.2530 -0.9033
vn -0.3460 -0.2531 -0.9034
vn -0.3445 -0.2536 -0.9039
vn -0.3465 -0.2539 -0.9030
vn 0.1607 0.4318 0.8876
vn 0.1621 0.4306 0.8879
vn 0.1620 0.4313 0.8876
vn 0.1615 0.4321 0.8873
vn 0.3065 0.8177 -0.4872
vn 0.3081 0.8175 -0.4867
vn 0.3058 0.8178 -0.4875
vn 0.3074 0.8177 -0.4868
vn 0.5791 -0.0023 0.8153
vn 0.5796 -0.0011 0.8149
vn 0.5788 -0.0024 0.8155
vn 0.5795 -0.0014 0.8150
vn 0.5879 0.0051 -0.8089
vn 0.5874 0.0064 -0.8093
vn 0.5879 0.0059 -0.8089
vn 0.5882 0.0057 -0.8087
vn 0.2181 0.9647 -0.1475
vn 0.2175 0.9633 -0.1574
vn 0.2150 0.9623 -0.1666
vn 0.8290 -0.5332 -0.1688
vn 0.8264 -0.5342 -0.1782
vn 0.8270 -0.5331 -0.1784
vn -0.2598 0.6877 0.6779
vn -0.2581 0.6958 0.6703
vn -0.2702 0.6838 0.6778
vn 0.2488 -0.6897 0.6800
vn 0.2593 -0.6858 0.6800
vn 0.2499 -0.6837 0.6856
vn -0.9222 0.3866 0.0092
vn -0.9222 0.3866 -0.0113
vn -0.9226 0.3855 -0.0111
vn -0.9255 0.3788 0.0065
vn -0.1430 -0.9896 0.0124
vn -0.1358 -0.9907 -0.0028
vn -0.1452 -0.9893 0.0141
vn -0.1451 -0.9894 -0.0070
vn -0.6777 0.2873 0.6769
vn -0.6819 0.2770 0.6770
vn -0.6738 0.2805 0.6837
vn 0.6800 -0.2761 0.6792
vn 0.6810 -0.2860 0.6742
vn 0.6841 -0.2658 0.6792
vn -0.9118 -0.4105 -0.0014
vn 0.6154 -0.7882 0.0028
vn -0.5500 0.8188 -0.1645
vn -0.5563 0.8133 -0.1704
vn -0.5487 0.8219 -0.1529
vn 0.9584 0.2361 -0.1602
vn 0.9573 0.2331 -0.1710
vn 0.9558 0.2427 -0.1659
vn 0.4235 0.1753 -0.8888
vn 0.4228 0.1759 -0.8890
vn 0.4227 0.1769 -0.8888
vn -0.8451 -0.3516 -0.4027
vn -0.8454 -0.3507 -0.4029
vn -0.8449 -0.3511 -0.4035
vn 0.9204 -0.3911 -0.0000
vn -0.6225 -0.7826 -0.0000
vn 0.5390 0.8217 0.1853
vn 0.5387 0.8221 0.1845
vn 0.5381 0.8222 0.1853
vn -0.9625 0.1968 0.1867
vn -0.9625 0.1974 0.1859
vn -0.9627 0.1974 0.1850
vn 0.8834 0.3689 -0.2889
vn 0.8871 0.3602 -0.2886
vn 0.8872 0.3597 -0.2889
vn 0.8830 0.3636 -0.2968
vn -0.3097 -0.1259 -0.9425
vn -0.3093 -0.1351 -0.9413
vn -0.3135 -0.1167 -0.9424
vn -0.3096 -0.1258 -0.9425
vn 0.9084 -0.4181 -0.0017
vn 0.9084 -0.4181 -0.0006
vn 0.9084 -0.4182 -0.0006
vn 0.9083 -0.4182 -0.0016
vn -0.6245 -0.7810 0.0021
vn -0.6246 -0.7809 0.0029
vn -0.6244 -0.7811 0.0025
vn -0.6244 -0.7811 0.0036
vn 0.5174 0.8386 0.1705
vn 0.5211 0.8345 0.1790
vn 0.5163 0.8410 0.1619
vn 0.5174 0.8383 0.1720
vn -0.9709 0.1832 0.1545
vn -0.9697 0.1803 0.1650
vn -0.9696 0.1804 0.1651
vn -0.9683 0.1892 0.1630
vn 0.3897 0.9209 -0.0000
vn 0.7837 -0.6211 -0.0000
vn -0.1772 0.4227 0.8888
vn -0.1783 0.4223 0.8887
vn -0.1779 0.4218 0.8891
vn 0.3548 -0.8441 0.4020
vn 0.3539 -0.8441 0.4028
vn 0.3528 -0.8446 0.4028
vn -0.8221 0.5382 -0.1856
vn -0.8228 0.5373 -0.1853
vn -0.8231 0.5371 -0.1842
vn -0.1953 -0.9629 -0.1862
vn -0.1956 -0.9631 -0.1851
vn -0.1961 -0.9629 -0.1854
vn 0.1777 -0.4219 -0.8890
vn 0.1770 -0.4222 -0.8890
vn 0.1774 -0.4217 -0.8892
vn -0.3540 0.8441 -0.4027
vn -0.3545 0.8441 -0.4023
vn -0.3534 0.8444 -0.4027
vn -0.3896 -0.9210 -0.0000
vn -0.7838 0.6211 -0.0000
vn 0.8225 -0.5378 0.1851
vn 0.8221 -0.5384 0.1853
vn 0.8227 -0.5377 0.1844
vn 0.1959 0.9629 0.1857
vn 0.1957 0.9628 0.1864
vn 0.1962 0.9628 0.1859
vn 0.8877 -0.3586 -0.2886
vn 0.8834 -0.3691 -0.2886
vn 0.8833 -0.3617 -0.2982
vn 0.8875 -0.3588 -0.2890
vn -0.3100 0.1358 -0.9410
vn -0.3100 0.1247 -0.9425
vn -0.3095 0.1255 -0.9426
vn -0.3138 0.1150 -0.9425
vn 0.3647 -0.9311 0.0086
vn 0.3543 -0.9351 -0.0112
vn 0.3705 -0.9288 0.0016
vn 0.3599 -0.9329 -0.0119
vn -0.9925 -0.1217 0.0115
vn -0.9934 -0.1141 -0.0083
vn -0.9922 -0.1246 0.0014
vn -0.9921 -0.1257 0.0033
vn 0.9534 0.2418 0.1806
vn 0.9565 0.2366 0.1709
vn 0.9565 0.2370 0.1700
vn 0.9532 0.2475 0.1735
vn -0.5630 0.8095 0.1664
vn -0.5571 0.8151 0.1590
vn -0.5727 0.8026 0.1670
vn -0.5627 0.8096 0.1668
vn -0.6824 -0.2763 0.6768
vn -0.6779 -0.2871 0.6768
vn -0.6739 -0.2779 0.6846
vn 0.6823 0.2852 0.6731
vn 0.6804 0.2754 0.6791
vn 0.6847 0.2646 0.6791
vn -0.3749 -0.9270 -0.0090
vn -0.3619 -0.9322 0.0075
vn -0.3768 -0.9263 -0.0040
vn -0.3673 -0.9300 0.0107
vn 0.9913 -0.1319 -0.0052
vn 0.9921 -0.1249 0.0142
vn 0.9908 -0.1350 0.0089
vn 0.9908 -0.1353 0.0022
vn -0.9647 0.1994 -0.1720
vn -0.9673 0.1949 -0.1625
vn -0.9647 0.2045 -0.1656
vn 0.5203 0.8364 -0.1724
vn 0.5145 0.8414 -0.1652
vn 0.5293 0.8307 -0.1725
vn -0.9203 0.3911 -0.0000
vn 0.6226 0.7825 -0.0000
vn -0.4229 -0.1758 0.8890
vn -0.4237 -0.1749 0.8887
vn -0.4228 -0.1771 0.8887
vn 0.8456 0.3503 0.4029
vn 0.8452 0.3515 0.4026
vn 0.8450 0.3508 0.4037
vn -0.5386 -0.8222 -0.1842
vn -0.5390 -0.8216 -0.1853
vn -0.5379 -0.8224 -0.1854
vn 0.9626 -0.1973 -0.1858
vn 0.9625 -0.1966 -0.1869
vn 0.9628 -0.1972 -0.1846
vn -0.3528 0.8414 -0.4094
vn -0.3526 0.8416 -0.4091
vn -0.3525 0.8413 -0.4098
vn -0.1335 0.3180 0.9386
vn -0.1332 0.3177 0.9388
vn -0.1330 0.3181 0.9387
vn -0.0002 -0.3777 -0.9259
vn 0.0004 -0.3775 -0.9260
vn 0.0002 -0.3777 -0.9259
vn 0.0003 -0.3776 -0.9260
vn -0.0005 -0.8130 0.5823
vn 0.0003 -0.8131 0.5821
vn 0.0002 -0.8126 0.5828
vn 0.0003 -0.8127 0.5827
vn 0.3524 0.8416 -0.4092
vn 0.3529 0.8414 -0.4094
vn 0.3531 0.8411 -0.4097
vn 0.1332 0.3177 0.9388
vn 0.1337 0.3177 0.9387
vn 0.1336 0.3180 0.9386
vn -0.8424 0.3508 -0.4091
vn -0.8424 0.3501 -0.4097
vn -0.8429 0.3498 -0.4089
vn -0.3182 0.1317 0.9389
vn -0.3182 0.1318 0.9388
vn -0.3180 0.1328 0.9387
vn -0.3188 0.1321 0.9386
vn -0.8421 -0.3495 -0.4107
vn -0.8471 -0.3445 -0.4046
vn -0.8385 -0.3480 -0.4192
vn -0.8423 -0.3499 -0.4100
vn -0.3232 -0.1407 0.9358
vn -0.3182 -0.1323 0.9387
vn -0.3192 -0.1321 0.9384
vn -0.3278 -0.1329 0.9353
vn 0.3850 -0.0057 -0.9229
vn 0.3778 -0.0004 -0.9259
vn 0.3779 0.0005 -0.9258
vn 0.3862 0.0035 -0.9224
vn 0.8128 0.0005 0.5825
vn 0.8165 0.0071 0.5772
vn 0.8072 0.0007 0.5903
vn 0.8129 0.0005 0.5824
vn -0.0004 0.8127 -0.5826
vn 0.0004 0.8127 -0.5827
vn -0.0004 0.8128 -0.5826
vn 0.0005 0.8129 -0.5824
vn -0.0005 0.3774 0.9260
vn 0.0005 0.3773 0.9261
vn 0.0004 0.3775 0.9260
vn -0.0001 0.3777 0.9259
vn -0.8129 0.0004 -0.5824
vn -0.8134 0.0095 -0.5816
vn -0.8086 -0.0064 -0.5883
vn -0.8131 -0.0000 -0.5821
vn -0.3823 -0.0084 0.9240
vn -0.3777 -0.0005 0.9259
vn -0.3777 0.0004 0.9259
vn -0.3865 -0.0023 0.9223
vn 0.3753 -0.3869 -0.8423
vn 0.3786 -0.3778 -0.8450
vn 0.3787 -0.3781 -0.8448
vn 0.3830 -0.3848 -0.8398
vn 0.3767 -0.3772 0.8461
vn 0.3846 -0.3711 0.8452
vn 0.3683 -0.3772 0.8497
vn 0.3774 -0.3767 0.8459
vn -0.3439 -0.8447 -0.4101
vn -0.3532 -0.8412 -0.4094
vn -0.3522 -0.8417 -0.4092
vn -0.3617 -0.8379 -0.4088
vn -0.1329 -0.3186 0.9385
vn -0.1422 -0.3143 0.9386
vn -0.1429 -0.3173 0.9375
vn -0.1338 -0.3187 0.9384
vn 0.3523 -0.8419 -0.4086
vn 0.3484 -0.8431 -0.4096
vn 0.3573 -0.8397 -0.4089
vn 0.3533 -0.8417 -0.4083
vn 0.1377 -0.3159 0.9387
vn 0.1336 -0.3171 0.9389
vn 0.1326 -0.3177 0.9389
vn 0.1381 -0.3174 0.9382
vn 0.0048 0.3777 -0.9259
vn -0.0096 0.3777 -0.9259
vn -0.0090 0.3808 -0.9246
vn 0.0045 0.3793 -0.9253
vn 0.0095 0.8136 0.5813
vn -0.0048 0.8140 0.5808
vn 0.0048 0.8144 0.5803
vn -0.0096 0.8144 0.5802
vn 0.8447 -0.3476 -0.4069
vn 0.8421 -0.3499 -0.4104
vn 0.8426 -0.3500 -0.4094
vn 0.8405 -0.3494 -0.4142
vn 0.3181 -0.1319 0.9388
vn 0.3207 -0.1366 0.9373
vn 0.3230 -0.1327 0.9371
vn 0.3191 -0.1321 0.9385
vn 0.8424 0.3500 -0.4097
vn 0.8427 0.3501 -0.4090
vn 0.8422 0.3508 -0.4095
vn 0.8429 0.3501 -0.4087
vn 0.3182 0.1329 0.9387
vn 0.3178 0.1318 0.9389
vn 0.3188 0.1320 0.9386
vn 0.3185 0.1327 0.9386
vn -0.3777 0.0004 -0.9259
vn -0.3811 -0.0028 -0.9245
vn -0.3817 0.0017 -0.9243
vn -0.3779 0.0002 -0.9258
vn -0.8151 0.0036 0.5794
vn -0.8133 -0.0004 0.5819
vn -0.8130 0.0003 0.5823
vn -0.8104 0.0003 0.5859
vn -0.1629 -0.4305 0.8878
vn -0.3091 -0.8168 -0.4871
vn -0.5798 0.0020 0.8148
vn -0.5876 -0.0059 -0.8091
vn 0.6677 0.4984 0.5530
vn 0.3454 0.2532 -0.9036
vn -0.3729 0.9279 -0.0009
vn -0.3730 0.9278 0.0012
vn -0.3719 0.9283 0.0004
vn -0.3728 0.9279 -0.0008
vn 0.9938 0.1109 -0.0009
vn 0.9938 0.1115 0.0008
vn 0.9937 0.1117 -0.0009
vn 0.9937 0.1117 0.0012
vn -0.4240 0.1755 0.8885
vn -0.4229 0.1759 0.8889
vn -0.4225 0.1770 0.8889
vn 0.8452 -0.3514 0.4027
vn 0.8456 -0.3503 0.4027
vn 0.8451 -0.3506 0.4036
vn -0.9624 -0.1985 -0.1857
vn -0.9625 -0.1985 -0.1848
vn -0.9623 -0.1982 -0.1865
vn 0.5400 -0.8208 -0.1863
vn 0.5398 -0.8211 -0.1855
vn 0.5398 -0.8209 -0.1863
vn -0.9283 -0.3717 0.0007
vn -0.9278 -0.3731 -0.0004
vn -0.9282 -0.3721 0.0012
vn -0.9279 -0.3729 -0.0003
vn -0.1099 0.9939 0.0012
vn -0.1105 0.9939 -0.0007
vn -0.1108 0.9938 -0.0001
vn -0.1107 0.9938 0.0009
vn -0.1783 -0.4221 0.8889
vn -0.1772 -0.4226 0.8889
vn -0.1776 -0.4215 0.8893
vn 0.3539 0.8441 0.4027
vn 0.3547 0.8442 0.4018
vn 0.3528 0.8446 0.4027
vn 0.1972 -0.9625 -0.1863
vn 0.1975 -0.9623 -0.1871
vn 0.1980 -0.9623 -0.1866
vn 0.8222 0.5384 -0.1847
vn 0.8217 0.5389 -0.1852
vn 0.8213 0.5396 -0.1853
vn -0.8430 -0.3491 0.4092
vn -0.8423 -0.3500 0.4100
vn -0.8428 -0.3497 0.4091
vn -0.8418 -0.3513 0.4098
vn -0.3178 -0.1318 -0.9390
vn -0.3181 -0.1337 -0.9386
vn -0.3189 -0.1335 -0.9384
vn -0.3188 -0.1318 -0.9386
vn -0.0024 0.5825 0.8128
vn -0.0021 0.5830 0.8124
vn -0.0027 0.5833 0.8122
vn 0.0061 0.5857 -0.8105
vn 0.0059 0.5850 -0.8110
vn 0.0054 0.5858 -0.8104
vn 0.4198 -0.0645 0.9053
vn 0.4200 -0.0658 0.9051
vn 0.4207 -0.0654 0.9048
vn 0.8302 -0.1195 -0.5445
vn 0.8299 -0.1208 -0.5446
vn 0.8294 -0.1219 -0.5451
vn 0.4228 -0.1759 -0.8890
vn 0.4235 -0.1756 -0.8887
vn 0.4224 -0.1767 -0.8890
vn -0.8456 0.3509 -0.4022
vn -0.8453 0.3517 -0.4022
vn -0.8452 0.3512 -0.4029
vn 0.3727 -0.9279 -0.0009
vn 0.3728 -0.9279 0.0012
vn 0.3725 -0.9280 0.0012
vn 0.3720 -0.9282 -0.0003
vn -0.9939 -0.1104 -0.0012
vn -0.9939 -0.1102 0.0007
vn -0.9938 -0.1108 -0.0008
vn -0.9938 -0.1108 0.0013
vn 0.9626 0.1982 0.1844
vn 0.9624 0.1982 0.1857
vn 0.9623 0.1978 0.1869
vn -0.5397 0.8212 0.1855
vn -0.5399 0.8208 0.1867
vn -0.5397 0.8209 0.1867
vn -0.4314 -0.9021 -0.0013
vn -0.7795 0.6265 0.0027
vn 0.2579 -0.6886 0.6778
vn 0.2518 -0.6965 0.6719
vn 0.2690 -0.6868 0.6753
vn -0.2461 0.6888 0.6819
vn -0.2573 0.6864 0.6802
vn -0.2489 0.6825 0.6872
vn 0.8138 -0.5608 -0.1526
vn 0.8099 -0.5637 -0.1621
vn 0.8172 -0.5543 -0.1580
vn 0.2560 0.9525 -0.1652
vn 0.2470 0.9535 -0.1727
vn 0.2557 0.9544 -0.1539
vn -0.9211 -0.3891 -0.0121
vn -0.9211 -0.3891 0.0097
vn -0.9246 -0.3809 0.0069
vn -0.9216 -0.3880 -0.0119
vn -0.1372 0.9905 -0.0030
vn -0.1448 0.9894 0.0132
vn -0.1469 0.9891 -0.0078
vn -0.1470 0.9890 0.0146
vn -0.2560 -0.6969 0.6699
vn -0.2579 -0.6885 0.6778
vn -0.2687 -0.6844 0.6778
vn 0.2573 0.6865 0.6801
vn 0.2464 0.6905 0.6801
vn 0.2475 0.6842 0.6860
vn 0.2196 -0.9629 -0.1570
vn 0.2204 -0.9644 -0.1464
vn 0.2169 -0.9618 -0.1671
vn 0.8251 0.5359 -0.1789
vn 0.8279 0.5349 -0.1688
vn 0.8257 0.5348 -0.1792
vn 0.1772 0.4227 -0.8888
vn 0.1781 0.4223 -0.8888
vn 0.1776 0.4219 -0.8891
vn -0.3546 -0.8442 -0.4020
vn -0.3540 -0.8441 -0.4027
vn -0.3531 -0.8444 -0.4027
vn 0.9285 0.3713 0.0003
vn 0.9290 0.3700 -0.0010
vn 0.9285 0.3714 0.0003
vn 0.9289 0.3704 -0.0009
vn 0.1098 -0.9940 0.0008
vn 0.1091 -0.9940 -0.0009
vn 0.1097 -0.9940 -0.0007
vn 0.1102 -0.9939 0.0001
vn -0.1966 0.9625 0.1870
vn -0.1961 0.9628 0.1860
vn -0.1971 0.9625 0.1864
vn -0.8223 -0.5380 0.1855
vn -0.8228 -0.5374 0.1847
vn -0.8217 -0.5389 0.1855
vn 0.3381 0.8946 -0.2921
vn 0.3356 0.8983 -0.2835
vn 0.3470 0.8912 -0.2921
vn -0.1096 -0.3179 -0.9418
vn -0.1185 -0.3145 -0.9418
vn -0.1091 -0.3141 -0.9431
vn 0.9256 0.3784 -0.0113
vn 0.9255 0.3785 0.0095
vn 0.9262 0.3769 0.0096
vn 0.9272 0.3745 -0.0097
vn 0.1311 -0.9913 -0.0078
vn 0.1240 -0.9923 0.0042
vn 0.1336 -0.9910 -0.0065
vn 0.1337 -0.9909 0.0139
vn -0.2574 0.9540 0.1538
vn -0.2571 0.9523 0.1647
vn -0.2543 0.9511 0.1752
vn -0.8021 -0.5743 0.1640
vn -0.7991 -0.5753 0.1744
vn -0.7999 -0.5740 0.1750
vn -0.5799 -0.0028 0.8147
vn -0.5796 -0.0014 0.8149
vn -0.5800 -0.0015 0.8146
vn -0.5803 -0.0024 0.8144
vn -0.5868 0.0059 -0.8097
vn -0.5872 0.0068 -0.8094
vn -0.5868 0.0051 -0.8097
vn -0.5873 0.0064 -0.8094
vn -0.1614 0.4305 0.8880
vn -0.1616 0.4310 0.8878
vn -0.1622 0.4308 0.8877
vn -0.3068 0.8177 -0.4870
vn -0.3073 0.8175 -0.4871
vn -0.3073 0.8178 -0.4867
vn 0.6671 -0.4991 0.5530
vn 0.6677 -0.4984 0.5530
vn 0.6664 -0.4996 0.5534
vn 0.3451 -0.2546 -0.9034
vn 0.3454 -0.2537 -0.9035
vn 0.3456 -0.2546 -0.9032
vn -0.4057 -0.4154 0.8141
vn -0.4082 -0.4306 -0.8050
vn -0.3528 0.8414 0.4094
vn -0.1332 0.3176 -0.9388
vn 0.3437 -0.2543 0.9040
vn 0.6693 -0.5035 -0.5464
vn -0.4286 -0.1740 0.8866
vn -0.8068 -0.3276 -0.4916
vn -0.4083 0.4242 0.8083
vn -0.4140 0.4174 -0.8089
vn 0.8253 -0.1234 0.5510
vn 0.4199 -0.0662 -0.9052
vn -0.4078 -0.4259 0.8076
vn -0.4127 -0.4181 -0.8093
vn -0.4291 0.1737 0.8864
vn -0.8070 0.3267 -0.4920
vn 0.8254 0.1234 0.5510
vn 0.4199 0.0662 -0.9052
vn -0.0021 -0.5829 0.8125
vn -0.0024 -0.5824 0.8129
vn -0.0027 -0.5832 0.8123
vn 0.0060 -0.5852 -0.8109
vn 0.0061 -0.5858 -0.8104
vn 0.0054 -0.5859 -0.8103
vn -0.8423 0.3501 0.4098
vn -0.8425 0.3504 0.4092
vn -0.8429 0.3497 0.4090
vn -0.3182 0.1323 -0.9388
vn -0.3177 0.1318 -0.9390
vn -0.3187 0.1318 -0.9387
vn 0.4197 0.0645 0.9054
vn 0.8300 0.1208 -0.5446
vn -0.3520 -0.8419 0.4091
vn -0.3538 -0.8407 0.4098
vn -0.3540 -0.8412 0.4088
vn -0.3523 -0.8419 0.4087
vn -0.1323 -0.3169 -0.9392
vn -0.1340 -0.3173 -0.9388
vn -0.1323 -0.3176 -0.9389
vn -0.1345 -0.3174 -0.9387
vn -0.4033 0.4154 0.8154
vn -0.4053 0.4154 0.8143
vn -0.4034 0.4154 0.8153
vn -0.4053 0.4152 0.8145
vn -0.4081 0.4335 -0.8034
vn -0.4085 0.4313 -0.8044
vn -0.4091 0.4319 -0.8038
vn -0.4091 0.4322 -0.8036
vn 0.3440 0.2559 0.9034
vn 0.3429 0.2555 0.9040
vn 0.3437 0.2539 0.9041
vn 0.3448 0.2546 0.9035
vn 0.6695 0.5037 -0.5459
vn 0.6697 0.5035 -0.5459
vn 0.6681 0.5041 -0.5473
vn 0.6695 0.5040 -0.5457
vn -0.3325 0.8990 -0.2851
vn -0.3381 0.8947 -0.2920
vn -0.3471 0.8921 -0.2893
vn 0.1186 -0.3146 -0.9418
vn 0.1089 -0.3164 -0.9424
vn 0.1093 -0.3119 -0.9438
vn 0.4363 0.8998 -0.0013
vn 0.7731 -0.6342 0.0028
vn -0.8305 0.5310 0.1682
vn -0.8339 0.5284 0.1595
vn -0.8356 0.5249 0.1621
vn -0.1930 -0.9675 0.1634
vn -0.2026 -0.9662 0.1594
vn -0.2025 -0.9677 0.1504
vt 30.087900 -27.018600
vt 30.015699 -27.000000
vt 30.015699 -27.018600
vt 30.087900 -27.031000
vt 29.984301 -27.000000
vt 29.984301 -27.031000
vt 29.984301 -27.018600
vt 29.912100 -27.000000
vt 29.912100 -27.018600
vt 30.000000 -26.912100
vt 30.031000 -27.015699
vt 30.031000 -26.912100
vt 30.000000 -27.015699
vt 29.912100 -26.981400
vt 30.087900 -27.000000
vt 30.015699 -26.981400
vt 30.015699 -26.969000
vt 29.912100 -26.969000
vt 30.031000 -26.969000
vt 29.969000 -26.969000
vt 29.969000 -27.031000
vt 30.018600 -27.018600
vt 30.000000 -27.043900
vt 30.031000 -27.031000
vt 29.912100 -27.031000
vt 29.969000 -26.912100
vt 29.973700 -27.000000
vt 29.981400 -26.981400
vt 29.984301 -26.969000
vt 30.018600 -27.087900
vt 30.018600 -27.015699
vt 29.981400 -27.015699
vt 30.000000 -27.087900
vt 29.969000 -27.015699
vt 29.981400 -27.087900
vt 30.000000 -26.956100
vt 30.018600 -26.981400
vt 29.981400 -27.018600
vt 30.000000 -27.026300
vt 30.026300 -27.000000
vt 30.043900 -27.000000
vt 30.000000 -26.973700
vt 29.984301 -26.981400
vt 30.087900 -26.981400
vt 29.956100 -27.000000
vt 30.015699 -27.031000
vt 30.087900 -26.969000
s 0
usemtl Meshpart1Mtl.002
f 65/1/1 66/2/2 17/2/2 21/1/3
f 66/2/4 65/1/5 22/1/6 18/2/4
f 66/2/7 67/3/8 23/3/9 17/2/7
f 67/3/10 66/2/11 18/2/11 24/3/12
f 67/3/13 65/1/14 21/1/15 23/3/16
f 65/1/17 67/3/18 24/3/19 22/1/20
f 68/4/21 69/5/22 47/5/22 41/4/23
f 69/5/24 68/4/25 42/4/26 48/5/24
f 69/5/27 70/6/28 49/6/29 47/5/27
f 70/6/30 69/5/31 48/5/31 50/6/32
f 70/6/33 68/4/34 41/4/35 49/6/36
f 68/4/37 70/6/38 50/6/39 42/4/40
f 71/7/41 72/8/42 51/8/43 57/7/44
f 72/8/45 71/7/46 58/7/47 52/8/48
f 72/8/49 73/9/50 55/9/51 51/8/52
f 73/9/53 72/8/54 52/8/55 56/9/56
f 73/9/57 71/7/58 57/7/59 55/9/60
f 71/7/61 73/9/62 56/9/63 58/7/64
f 74/10/65 75/11/66 9/11/67 45/10/65
f 75/11/68 74/10/69 46/10/69 10/11/70
f 75/11/71 76/12/72 11/12/73 9/11/74
f 76/12/75 75/11/76 10/11/77 12/12/78
f 76/12/79 74/10/80 45/10/80 11/12/81
f 74/10/82 76/12/83 12/12/84 46/10/82
f 77/12/85 78/13/86 25/13/86 29/12/87
f 78/13/88 77/12/89 30/12/90 26/13/88
f 78/13/91 79/11/92 31/11/93 25/13/91
f 79/11/94 78/13/95 26/13/95 32/11/96
f 79/11/97 77/12/98 29/12/99 31/11/100
f 77/12/101 79/11/102 32/11/103 30/12/104
f 80/5/105 81/14/106 35/14/107 53/5/108
f 81/14/109 80/5/110 54/5/111 36/14/112
f 81/14/113 82/8/114 51/8/115 35/14/116
f 82/8/117 81/14/118 36/14/119 52/8/120
f 82/8/121 80/5/122 53/5/123 51/8/124
f 80/5/125 82/8/126 52/8/127 54/5/128
f 83/15/129 84/16/130 15/16/131 19/15/129
f 84/16/132 83/15/133 20/15/133 16/16/134
f 84/16/135 85/2/136 17/2/136 15/16/137
f 85/2/138 84/16/139 16/16/140 18/2/138
f 85/2/141 83/15/141 19/15/141 17/2/141
f 83/15/142 85/2/142 18/2/142 20/15/142
f 86/8/143 87/17/144 1/17/145 7/8/143
f 87/17/146 86/8/147 8/8/147 2/17/148
f 87/17/149 88/18/150 3/18/151 1/17/152
f 88/18/153 87/17/154 2/17/155 4/18/156
f 88/18/157 86/8/158 7/8/158 3/18/159
f 86/8/160 88/18/161 4/18/162 8/8/160
f 89/19/163 90/20/164 29/20/165 3/19/166
f 90/20/167 89/19/168 4/19/169 30/20/170
f 90/20/171 91/21/172 41/21/173 29/20/174
f 91/21/175 90/20/176 30/20/177 42/21/178
f 91/21/179 89/19/180 3/19/181 41/21/182
f 89/19/183 91/21/184 42/21/185 4/19/186
f 92/22/187 93/23/187 59/23/187 57/22/187
f 93/23/188 92/22/188 58/22/188 60/23/188
f 93/23/189 94/24/189 49/24/189 59/23/189
f 94/24/190 93/23/190 60/23/190 50/24/190
f 94/24/191 92/22/191 57/22/191 49/24/191
f 92/22/192 94/24/192 50/24/192 58/22/192
f 95/25/193 96/2/194 5/2/194 11/25/195
f 96/2/196 95/25/197 12/25/198 6/2/196
f 96/2/199 97/8/199 7/8/199 5/2/199
f 97/8/200 96/2/200 6/2/200 8/8/200
f 97/8/201 95/25/202 11/25/203 7/8/201
f 95/25/204 97/8/205 8/8/205 12/25/206
f 98/26/207 99/13/208 25/13/208 3/26/209
f 99/13/210 98/26/211 4/26/212 26/13/210
f 99/13/213 100/10/213 27/10/213 25/13/213
f 100/10/214 99/13/214 26/13/214 28/10/214
f 100/10/215 98/26/216 3/26/217 27/10/215
f 98/26/218 100/10/219 28/10/219 4/26/220
f 101/20/221 102/27/222 17/27/222 1/20/223
f 102/27/224 101/20/225 2/20/226 18/27/224
f 102/27/227 103/28/228 15/28/229 17/27/227
f 103/28/230 102/27/231 18/27/231 16/28/232
f 103/28/233 101/20/234 1/20/235 15/28/236
f 101/20/237 103/28/238 16/28/239 2/20/240
f 104/15/241 105/29/242 31/29/243 43/15/241
f 105/29/244 104/15/245 44/15/245 32/29/246
f 105/29/247 106/5/248 47/5/248 31/29/249
f 106/5/250 105/29/251 32/29/252 48/5/250
f 106/5/253 104/15/253 43/15/253 47/5/253
f 104/15/254 106/5/254 48/5/254 44/15/254
f 107/13/255 108/30/256 35/30/257 39/13/255
f 108/30/258 107/13/259 40/13/259 36/30/260
f 108/30/261 109/31/262 33/31/263 35/30/264
f 109/31/265 108/30/266 36/30/267 34/31/268
f 109/31/269 107/13/270 39/13/270 33/31/271
f 107/13/272 109/31/273 34/31/274 40/13/272
f 110/32/275 111/33/276 37/33/276 15/32/277
f 111/33/278 110/32/279 16/32/280 38/33/278
f 111/33/281 112/13/281 39/13/281 37/33/281
f 112/13/282 111/33/282 38/33/282 40/13/282
f 112/13/283 110/32/284 15/32/285 39/13/283
f 110/32/286 112/13/287 40/13/287 16/32/288
f 113/10/289 114/34/290 49/34/291 45/10/289
f 114/34/292 113/10/293 46/10/293 50/34/294
f 114/34/295 115/13/296 59/13/296 49/34/297
f 115/13/298 114/34/299 50/34/300 60/13/298
f 115/13/301 113/10/301 45/10/301 59/13/301
f 113/10/302 115/13/302 60/13/302 46/10/302
f 116/13/303 117/35/304 55/35/305 63/13/303
f 117/35/306 116/13/307 64/13/307 56/35/308
f 117/35/309 118/33/310 61/33/310 55/35/311
f 118/33/312 117/35/313 56/35/314 62/33/312
f 118/33/315 116/13/315 63/13/315 61/33/315
f 116/13/316 118/33/316 62/33/316 64/13/316
f 119/36/317 120/37/318 33/37/318 25/36/319
f 120/37/320 119/36/321 26/36/322 34/37/320
f 120/37/323 121/19/323 31/19/323 33/37/323
f 121/19/324 120/37/324 34/37/324 32/19/324
f 121/19/325 119/36/326 25/36/327 31/19/325
f 119/36/328 121/19/329 32/19/329 26/36/330
f 122/38/331 123/23/331 59/23/331 23/38/331
f 123/23/332 122/38/332 24/38/332 60/23/332
f 123/23/333 124/39/333 63/39/333 59/23/333
f 124/39/334 123/23/334 60/23/334 64/39/334
f 124/39/335 122/38/335 23/38/335 63/39/335
f 122/38/336 124/39/336 64/39/336 24/38/336
f 125/40/337 126/24/337 49/24/337 53/40/337
f 126/24/338 125/40/338 54/40/338 50/24/338
f 126/24/339 127/41/339 47/41/339 49/24/339
f 127/41/340 126/24/340 50/24/340 48/41/340
f 127/41/341 125/40/341 53/40/341 47/41/341
f 125/40/342 127/41/342 48/41/342 54/40/342
f 128/19/343 129/40/343 53/40/343 31/19/343
f 129/40/344 128/19/344 32/19/344 54/40/344
f 129/40/345 130/41/345 47/41/345 53/40/345
f 130/41/346 129/40/346 54/40/346 48/41/346
f 130/41/347 128/19/347 31/19/347 47/41/347
f 128/19/348 130/41/348 48/41/348 32/19/348
f 131/27/349 132/21/349 9/21/349 17/27/349
f 132/21/350 131/27/350 18/27/350 10/21/350
f 132/21/351 133/38/351 23/38/351 9/21/351
f 133/38/352 132/21/352 10/21/352 24/38/352
f 133/38/353 131/27/353 17/27/353 23/38/353
f 131/27/354 133/38/354 24/38/354 18/27/354
f 134/36/355 135/28/356 15/28/357 25/36/358
f 135/28/359 134/36/360 26/36/361 16/28/362
f 135/28/363 136/42/364 39/42/365 15/28/366
f 136/42/367 135/28/368 16/28/369 40/42/370
f 136/42/371 134/36/372 25/36/373 39/42/374
f 134/36/375 136/42/376 40/42/377 26/36/378
f 137/31/379 138/33/380 61/33/380 23/31/381
f 138/33/382 137/31/383 24/31/384 62/33/382
f 138/33/385 139/30/386 21/30/387 61/33/385
f 139/30/388 138/33/389 62/33/389 22/30/390
f 139/30/391 137/31/392 23/31/393 21/30/394
f 137/31/395 139/30/396 22/30/397 24/31/398
f 140/1/399 141/15/400 19/15/400 21/1/401
f 141/15/402 140/1/403 22/1/404 20/15/402
f 141/15/405 142/2/405 17/2/405 19/15/405
f 142/2/406 141/15/406 20/15/406 18/2/406
f 142/2/407 140/1/408 21/1/409 17/2/407
f 140/1/410 142/2/411 18/2/411 22/1/412
f 143/4/413 144/15/414 43/15/414 41/4/415
f 144/15/416 143/4/417 42/4/418 44/15/416
f 144/15/419 145/5/419 47/5/419 43/15/419
f 145/5/420 144/15/420 44/15/420 48/5/420
f 145/5/421 143/4/422 41/4/423 47/5/421
f 143/4/424 145/5/425 48/5/425 42/4/426
f 146/7/427 147/5/428 53/5/429 57/7/430
f 147/5/431 146/7/432 58/7/433 54/5/434
f 147/5/435 148/8/436 51/8/437 53/5/438
f 148/8/439 147/5/440 54/5/441 52/8/442
f 148/8/443 146/7/444 57/7/445 51/8/446
f 146/7/447 148/8/448 52/8/449 58/7/450
f 149/10/451 150/13/451 59/13/451 45/10/451
f 150/13/452 149/10/452 46/10/452 60/13/452
f 150/13/453 151/11/454 9/11/455 59/13/453
f 151/11/456 150/13/457 60/13/457 10/11/458
f 151/11/459 149/10/460 45/10/460 9/11/461
f 149/10/462 151/11/463 10/11/464 46/10/462
f 152/12/465 153/10/466 27/10/466 29/12/467
f 153/10/468 152/12/469 30/12/470 28/10/468
f 153/10/471 154/13/471 25/13/471 27/10/471
f 154/13/472 153/10/472 28/10/472 26/13/472
f 154/13/473 152/12/474 29/12/475 25/13/473
f 152/12/476 154/13/477 26/13/477 30/12/478
f 155/5/479 156/43/480 33/43/481 53/5/482
f 156/43/483 155/5/484 54/5/485 34/43/486
f 156/43/487 157/14/488 35/14/489 33/43/490
f 157/14/491 156/43/492 34/43/493 36/14/494
f 157/14/495 155/5/496 53/5/497 35/14/498
f 155/5/499 157/14/500 36/14/501 54/5/502
f 158/15/503 159/44/504 13/44/505 19/15/503
f 159/44/506 158/15/507 20/15/507 14/44/508
f 159/44/509 160/16/510 15/16/511 13/44/512
f 160/16/513 159/44/514 14/44/515 16/16/516
f 160/16/517 158/15/518 19/15/518 15/16/519
f 158/15/520 160/16/521 16/16/522 20/15/520
f 161/8/523 162/2/523 5/2/523 7/8/523
f 162/2/524 161/8/524 8/8/524 6/2/524
f 162/2/525 163/17/526 1/17/527 5/2/525
f 163/17/528 162/2/529 6/2/529 2/17/530
f 163/17/531 161/8/532 7/8/532 1/17/533
f 161/8/534 163/17/535 2/17/536 8/8/534
f 164/23/537 165/25/538 11/25/539 45/23/537
f 165/25/540 164/23/541 46/23/541 12/25/542
f 165/25/543 166/21/544 41/21/545 11/25/546
f 166/21/547 165/25/548 12/25/549 42/21/550
f 166/21/551 164/23/552 45/23/552 41/21/553
f 164/23/554 166/21/555 42/21/556 46/23/554
f 167/25/557 168/41/558 7/41/559 11/25/557
f 168/41/560 167/25/561 12/25/562 8/41/563
f 168/41/564 169/19/565 3/19/566 7/41/567
f 169/19/568 168/41/569 8/41/570 4/19/571
f 169/19/572 167/25/573 11/25/574 3/19/575
f 167/25/576 169/19/577 4/19/578 12/25/579
f 170/21/580 171/25/581 11/25/582 41/21/583
f 171/25/584 170/21/585 42/21/586 12/25/587
f 171/25/588 172/19/589 3/19/590 11/25/591
f 172/19/592 171/25/593 12/25/594 4/19/595
f 172/19/596 170/21/597 41/21/598 3/19/599
f 170/21/600 172/19/601 4/19/602 42/21/603
f 173/19/604 174/36/605 27/36/606 3/19/607
f 174/36/608 173/19/609 4/19/610 28/36/611
f 174/36/612 175/20/613 29/20/614 27/36/615
f 175/20/616 174/36/617 28/36/618 30/20/619
f 175/20/620 173/19/621 3/19/622 29/20/623
f 173/19/624 175/20/625 30/20/626 4/19/627
f 176/20/628 177/45/629 43/45/630 29/20/631
f 177/45/632 176/20/633 30/20/634 44/45/635
f 177/45/636 178/21/637 41/21/638 43/45/639
f 178/21/640 177/45/641 44/45/642 42/21/643
f 178/21/644 176/20/645 29/20/646 41/21/647
f 176/20/648 178/21/649 42/21/650 30/20/651
f 179/22/652 180/39/652 63/39/652 57/22/652
f 180/39/653 179/22/653 58/22/653 64/39/653
f 180/39/654 181/23/654 59/23/654 63/39/654
f 181/23/655 180/39/655 64/39/655 60/23/655
f 181/23/656 179/22/656 57/22/656 59/23/656
f 179/22/657 181/23/657 60/23/657 58/22/657
f 182/25/658 183/46/659 9/46/660 11/25/661
f 183/46/662 182/25/663 12/25/664 10/46/665
f 183/46/666 184/2/667 5/2/667 9/46/668
f 184/2/669 183/46/670 10/46/671 6/2/669
f 184/2/672 182/25/673 11/25/674 5/2/672
f 182/25/675 184/2/676 6/2/676 12/25/677
f 185/26/678 186/34/679 1/34/680 3/26/681
f 186/34/682 185/26/683 4/26/684 2/34/685
f 186/34/686 187/13/687 25/13/687 1/34/688
f 187/13/689 186/34/690 2/34/691 26/13/689
f 187/13/692 185/26/693 3/26/694 25/13/692
f 185/26/695 187/13/696 26/13/696 4/26/697
f 188/20/698 189/45/699 5/45/700 1/20/701
f 189/45/702 188/20/703 2/20/704 6/45/705
f 189/45/706 190/27/707 17/27/707 5/45/708
f 190/27/709 189/45/710 6/45/711 18/27/709
f 190/27/712 188/20/713 1/20/714 17/27/712
f 188/20/715 190/27/716 18/27/716 2/20/717
f 191/15/718 192/47/719 29/47/720 43/15/718
f 192/47/721 191/15/722 44/15/722 30/47/723
f 192/47/724 193/29/725 31/29/726 29/47/727
f 193/29/728 192/47/729 30/47/730 32/29/731
f 193/29/732 191/15/733 43/15/733 31/29/734
f 191/15/735 193/29/736 32/29/737 44/15/735
f 194/13/738 195/33/738 37/33/738 39/13/738
f 195/33/739 194/13/739 40/13/739 38/33/739
f 195/33/740 196/30/741 35/30/742 37/33/740
f 196/30/743 195/33/744 38/33/744 36/30/745
f 196/30/746 194/13/747 39/13/747 35/30/748
f 194/13/749 196/30/750 36/30/751 40/13/749
f 197/32/752 198/35/753 13/35/754 15/32/755
f 198/35/756 197/32/757 16/32/758 14/35/759
f 198/35/760 199/33/761 37/33/761 13/35/762
f 199/33/763 198/35/764 14/35/765 38/33/763
f 199/33/766 197/32/767 15/32/768 37/33/766
f 197/32/769 199/33/770 38/33/770 16/32/771
f 200/10/772 201/26/773 41/26/774 45/10/772
f 201/26/775 200/10/776 46/10/776 42/26/777
f 201/26/778 202/34/779 49/34/780 41/26/781
f 202/34/782 201/26/783 42/26/784 50/34/785
f 202/34/786 200/10/787 45/10/787 49/34/788
f 200/10/789 202/34/790 50/34/791 46/10/789
f 203/13/792 204/32/793 57/32/794 63/13/792
f 204/32/795 203/13/796 64/13/796 58/32/797
f 204/32/798 205/35/799 55/35/800 57/32/801
f 205/35/802 204/32/803 58/32/804 56/35/805
f 205/35/806 203/13/807 63/13/807 55/35/808
f 203/13/809 205/35/810 56/35/811 64/13/809
f 206/36/812 207/42/813 39/42/814 25/36/815
f 207/42/816 206/36/817 26/36/818 40/42/819
f 207/42/820 208/37/821 33/37/821 39/42/822
f 208/37/823 207/42/824 40/42/825 34/37/823
f 208/37/826 206/36/827 25/36/828 33/37/826
f 206/36/829 208/37/830 34/37/830 26/36/831
f 209/38/832 210/21/832 9/21/832 23/38/832
f 210/21/833 209/38/833 24/38/833 10/21/833
f 210/21/834 211/23/834 59/23/834 9/21/834
f 211/23/835 210/21/835 10/21/835 60/23/835
f 211/23/836 209/38/836 23/38/836 59/23/836
f 209/38/837 211/23/837 60/23/837 24/38/837
f 212/40/838 213/22/838 57/22/838 53/40/838
f 213/22/839 212/40/839 54/40/839 58/22/839
f 213/22/840 214/24/840 49/24/840 57/22/840
f 214/24/841 213/22/841 58/22/841 50/24/841
f 214/24/842 212/40/842 53/40/842 49/24/842
f 212/40/843 214/24/843 50/24/843 54/40/843
f 215/19/844 216/37/844 33/37/844 31/19/844
f 216/37/845 215/19/845 32/19/845 34/37/845
f 216/37/846 217/40/846 53/40/846 33/37/846
f 217/40/847 216/37/847 34/37/847 54/40/847
f 217/40/848 215/19/848 31/19/848 53/40/848
f 215/19/849 217/40/849 54/40/849 32/19/849
f 218/27/850 219/45/851 5/45/852 17/27/850
f 219/45/853 218/27/854 18/27/854 6/45/855
f 219/45/856 220/21/857 9/21/857 5/45/858
f 220/21/859 219/45/860 6/45/861 10/21/859
f 220/21/862 218/27/862 17/27/862 9/21/862
f 218/27/863 220/21/863 10/21/863 18/27/863
f 221/36/864 222/20/865 1/20/866 25/36/867
f 222/20/868 221/36/869 26/36/870 2/20/871
f 222/20/872 223/28/873 15/28/874 1/20/875
f 223/28/876 222/20/877 2/20/878 16/28/879
f 223/28/880 221/36/881 25/36/882 15/28/883
f 221/36/884 223/28/885 16/28/886 26/36/887
f 224/31/888 225/13/889 63/13/889 23/31/890
f 225/13/891 224/31/892 24/31/893 64/13/891
f 225/13/894 226/33/894 61/33/894 63/13/894
f 226/33/895 225/13/895 64/13/895 62/33/895
f 226/33/896 224/31/897 23/31/898 61/33/896
f 224/31/899 226/33/900 62/33/900 24/31/901
