# Blender 5.1.2
# www.blender.org
mtllib handgunrightarm.mtl
o RenderMesh_18407376865
v -1.662583 0.569283 0.287164
v -1.811683 0.569147 0.279715
v -1.665017 0.569283 0.335884
v -1.814117 0.569147 0.328434
v -1.665017 0.569283 0.335884
v -1.814117 0.569147 0.328434
v -1.667209 0.584204 0.379486
v -1.816309 0.584068 0.372037
v -1.660418 0.584204 0.243561
v -1.809518 0.584068 0.236111
v -1.662583 0.569283 0.287164
v -1.811683 0.569147 0.279715
v -1.808110 1.006864 0.200220
v -1.816732 1.049306 0.372016
v -1.818486 1.006864 0.407889
v -1.809941 1.049306 0.236090
v -1.814572 1.069711 0.328412
v -1.812138 1.069711 0.279692
v -1.807360 0.958707 0.186086
v -1.819148 0.958707 0.422028
v -1.818890 0.674667 0.422041
v -1.807101 0.674667 0.186099
v -1.818140 0.626511 0.407907
v -1.807764 0.626511 0.200237
v -1.816309 0.584068 0.372037
v -1.809518 0.584068 0.236111
v -1.814117 0.569147 0.328434
v -1.811683 0.569147 0.279715
v -1.669386 1.006999 0.415339
v -1.658260 0.958843 0.193535
v -1.670048 0.958843 0.429477
v -1.669790 0.674803 0.429490
v -1.659010 1.006999 0.207670
v -1.658002 0.674803 0.193548
v -1.667632 1.049442 0.379465
v -1.669040 0.626647 0.415356
v -1.660841 1.049442 0.243539
v -1.665472 1.069847 0.335861
v -1.663038 1.069847 0.287141
v -1.658664 0.626647 0.207687
v -1.667209 0.584204 0.379486
v -1.660418 0.584204 0.243561
v -1.665017 0.569283 0.335884
v -1.662583 0.569283 0.287164
v -1.818486 1.006864 0.407889
v -1.669386 1.006999 0.415339
v -1.670048 0.958843 0.429477
v -1.816732 1.049306 0.372016
v -1.819148 0.958707 0.422028
v -1.667632 1.049442 0.379465
v -1.814572 1.069711 0.328412
v -1.665472 1.069847 0.335861
v -1.669790 0.674803 0.429490
v -1.818890 0.674667 0.422041
v -1.818140 0.626511 0.407907
v -1.669040 0.626647 0.415356
v -1.816309 0.584068 0.372037
v -1.667209 0.584204 0.379486
v -1.659010 1.006999 0.207670
v -1.807360 0.958707 0.186086
v -1.658260 0.958843 0.193535
v -1.808110 1.006864 0.200220
v -1.807101 0.674667 0.186099
v -1.660841 1.049442 0.243539
v -1.658002 0.674803 0.193548
v -1.809941 1.049306 0.236090
v -1.658664 0.626647 0.207687
v -1.663038 1.069847 0.287141
v -1.807764 0.626511 0.200237
v -1.660418 0.584204 0.243561
v -1.809518 0.584068 0.236111
v -1.812138 1.069711 0.279692
v -1.665472 1.069847 0.335861
v -1.814572 1.069711 0.328412
vn 0.0083 -0.9865 -0.1634
vn -0.0081 -0.9864 0.1640
vn -0.0081 -0.9864 0.1641
vn -0.0159 -0.9462 0.3233
vn -0.0157 -0.9462 0.3232
vn 0.0163 -0.9463 -0.3228
vn 0.0165 -0.9463 -0.3228
vn -0.9988 -0.0009 -0.0499
vn 0.9988 0.0009 0.0499
vn -0.0437 0.4745 0.8792
vn -0.0437 0.4744 0.8792
vn -0.0495 0.1423 0.9886
vn -0.0302 0.7951 0.6058
vn -0.0490 0.1423 0.9886
vn -0.0302 0.7950 0.6058
vn -0.0109 0.9762 0.2165
vn -0.0483 -0.1422 0.9887
vn -0.0485 -0.1423 0.9886
vn -0.0443 -0.4745 0.8791
vn -0.0442 -0.4745 0.8792
vn -0.0382 -0.6463 0.7621
vn 0.0441 0.4743 -0.8793
vn 0.0493 0.1423 -0.9886
vn 0.0498 0.1423 -0.9886
vn 0.0443 0.4744 -0.8792
vn 0.0504 -0.1422 -0.9886
vn 0.0303 0.7948 -0.6061
vn 0.0503 -0.1422 -0.9886
vn 0.0303 0.7949 -0.6060
vn 0.0437 -0.4743 -0.8793
vn 0.0106 0.9763 -0.2160
vn 0.0380 -0.6461 -0.7623
vn 0.0377 -0.6462 -0.7622
vn 0.0107 0.9764 -0.2159
vt 0.625000 0.750000
vt 0.375000 0.750000
vt 0.625000 1.000000
vt 0.375000 1.000000
vt 0.625000 0.000000
vt 0.375000 0.000000
vt 0.125000 0.750000
vt 0.875000 0.750000
s 1
f 1/1/1 3/3/2 2/2/1
f 3/3/2 4/4/2 2/2/1
f 5/5/3 7/5/4 6/6/3
f 7/5/4 8/6/5 6/6/3
f 9/1/6 11/1/1 10/2/7
f 11/1/1 12/2/1 10/2/7
f 13/2/8 15/7/8 14/7/8
f 14/7/8 16/2/8 13/2/8
f 16/2/8 14/7/8 17/7/8
f 17/7/8 18/2/8 16/2/8
f 15/7/8 13/2/8 19/2/8
f 19/2/8 20/7/8 15/7/8
f 19/2/8 21/7/8 20/7/8
f 19/2/8 22/2/8 21/7/8
f 23/7/8 21/7/8 22/2/8
f 22/2/8 24/2/8 23/7/8
f 25/7/8 23/7/8 24/2/8
f 24/2/8 26/2/8 25/7/8
f 27/7/8 25/7/8 26/2/8
f 26/2/8 28/2/8 27/7/8
f 29/8/9 31/8/9 30/1/9
f 30/1/9 31/8/9 32/8/9
f 30/1/9 33/1/9 29/8/9
f 32/8/9 34/1/9 30/1/9
f 33/1/9 35/8/9 29/8/9
f 34/1/9 32/8/9 36/8/9
f 33/1/9 37/1/9 35/8/9
f 37/1/9 38/8/9 35/8/9
f 37/1/9 39/1/9 38/8/9
f 36/8/9 40/1/9 34/1/9
f 40/1/9 36/8/9 41/8/9
f 41/8/9 42/1/9 40/1/9
f 41/8/9 43/8/9 42/1/9
f 43/8/9 44/1/9 42/1/9
f 45/6/10 47/5/12 46/5/11
f 46/5/11 48/6/13 45/6/10
f 47/5/12 45/6/10 49/6/14
f 48/6/13 46/5/11 50/5/15
f 50/5/15 51/6/16 48/6/13
f 51/6/16 50/5/15 52/5/16
f 47/5/12 49/6/14 53/5/17
f 53/5/17 49/6/14 54/6/18
f 53/5/17 54/6/18 55/6/19
f 55/6/19 56/5/20 53/5/17
f 56/5/20 55/6/19 57/6/21
f 58/5/21 56/5/20 57/6/21
f 59/1/22 61/1/24 60/2/23
f 60/2/23 62/2/25 59/1/22
f 63/2/26 60/2/23 61/1/24
f 64/1/27 59/1/22 62/2/25
f 61/1/24 65/1/28 63/2/26
f 62/2/25 66/2/29 64/1/27
f 65/1/28 67/1/30 63/2/26
f 68/1/31 64/1/27 66/2/29
f 67/1/30 69/2/30 63/2/26
f 67/1/30 70/1/32 69/2/30
f 70/1/32 71/2/33 69/2/30
f 66/2/29 72/2/34 68/1/31
f 73/3/16 68/1/31 72/2/34
f 72/2/34 74/4/16 73/3/16
o RenderMesh_18407376883
v -2.753877 0.715192 -0.254334
v -2.753877 0.711016 -0.439591
v -2.737034 0.760090 -0.255346
v -2.737034 0.755914 -0.440603
v -2.756857 0.656773 -0.438368
v -2.756857 0.660949 -0.253111
v -2.732143 0.502107 -0.249531
v -2.750676 0.542159 -0.435785
v -2.750676 0.546335 -0.250528
v -2.732143 0.497931 -0.434788
v -2.755710 0.600426 -0.251747
v -2.755710 0.596250 -0.437004
v -2.755710 0.600426 -0.251747
v -2.755710 0.596250 -0.437004
v -2.756857 0.660949 -0.253111
v -2.756857 0.656773 -0.438368
v -2.207469 0.671359 -0.253346
v -2.208496 0.721350 -0.439824
v -2.207469 0.667183 -0.438603
v -2.206322 0.610835 -0.251981
v -2.206322 0.606660 -0.437239
v -2.206322 0.610835 -0.251981
v -2.207469 0.667183 -0.438603
v -2.205295 0.556669 -0.250760
v -2.205295 0.552493 -0.436018
v -2.204450 0.512106 -0.249756
v -2.204450 0.507930 -0.435013
v -2.204117 0.490369 -0.434618
v -2.204117 0.494545 -0.249360
v -2.209674 0.783474 -0.441224
v -2.209341 0.770089 -0.255571
v -2.209674 0.787650 -0.255967
v -2.209341 0.765913 -0.440829
v -2.208496 0.721350 -0.439824
v -2.208496 0.725526 -0.254567
v -2.207469 0.671359 -0.253346
v -2.204117 0.494545 -0.249360
v -2.209674 0.787650 -0.255967
v -2.209341 0.770089 -0.255571
v -2.204450 0.512106 -0.249756
v -2.356079 0.491665 -0.249295
v -2.361700 0.784769 -0.255902
v -2.732143 0.502107 -0.249531
v -2.737034 0.760090 -0.255346
v -2.750676 0.546335 -0.250528
v -2.753877 0.715192 -0.254334
v -2.756857 0.660949 -0.253111
v -2.755710 0.600426 -0.251747
v -2.753877 0.711016 -0.439591
v -2.732143 0.497931 -0.434788
v -2.737034 0.755914 -0.440603
v -2.324509 0.488088 -0.434566
v -2.750676 0.542159 -0.435785
v -2.756857 0.656773 -0.438368
v -2.755710 0.596250 -0.437004
v -2.330065 0.781193 -0.441173
v -2.204117 0.490369 -0.434618
v -2.209674 0.783474 -0.441224
v -2.737034 0.760090 -0.255346
v -2.737034 0.755914 -0.440603
v -2.361700 0.784769 -0.255902
v -2.330065 0.781193 -0.441173
v -2.209674 0.787650 -0.255967
v -2.209674 0.783474 -0.441224
v -2.356079 0.491665 -0.249295
v -2.732143 0.497931 -0.434788
v -2.732143 0.502107 -0.249531
v -2.324509 0.488088 -0.434566
v -2.204117 0.494545 -0.249360
v -2.204117 0.490369 -0.434618
v -2.209341 0.765913 -0.440829
v -2.204450 0.507930 -0.435013
v -2.205295 0.552493 -0.436018
v -2.208496 0.721350 -0.439824
v -2.209674 0.783474 -0.441224
v -2.204117 0.490369 -0.434618
v -2.205295 0.556669 -0.250760
v -2.208496 0.725526 -0.254567
v -2.207469 0.671359 -0.253346
v -2.206322 0.610835 -0.251981
v -2.204450 0.512106 -0.249756
v -2.209341 0.770089 -0.255571
v -2.208496 0.725526 -0.254567
v -2.205295 0.556669 -0.250760
v -2.208496 0.721350 -0.439824
v -2.205295 0.552493 -0.436018
v -2.206322 0.606660 -0.437239
v -2.207469 0.667183 -0.438603
vn -0.9786 0.2056 -0.0053
vn -0.9786 0.2056 -0.0054
vn -0.9363 0.3510 -0.0087
vn -0.9363 0.3510 -0.0084
vn -0.9998 0.0177 -0.0012
vn -0.9224 -0.3862 0.0080
vn -0.9701 -0.2426 0.0047
vn -0.9701 -0.2425 0.0048
vn -0.9985 -0.0556 0.0005
vn 0.9998 0.0194 0.0003
vn -0.0003 0.0229 0.9997
vn -0.0003 0.0228 0.9997
vn 0.0003 0.0228 0.9997
vn -0.0003 -0.0222 -0.9998
vn 0.0003 -0.0222 -0.9998
vn -0.0634 0.9976 -0.0263
vn -0.0427 0.9988 -0.0249
vn -0.0399 0.9989 -0.0248
vn -0.0194 0.9996 -0.0218
vn -0.0048 -0.9998 0.0202
vn -0.0255 -0.9995 0.0186
vn -0.0256 -0.9995 0.0187
vn -0.0020 -0.9998 0.0202
vn 0.0185 -0.9996 0.0233
vn 0.0003 -0.0223 -0.9998
vt 0.625000 0.000000
vt 0.375000 0.000000
vt 0.625000 0.750000
vt 0.375000 0.750000
vt 0.625000 1.000000
vt 0.375000 1.000000
vt 0.875000 0.750000
vt 0.125000 0.750000
s 1
f 75/9/35 77/9/37 76/10/36
f 77/9/37 78/10/38 76/10/36
f 75/9/35 76/10/36 79/10/39
f 80/9/39 75/9/35 79/10/39
f 81/11/40 83/11/42 82/12/41
f 82/12/41 84/12/40 81/11/40
f 83/11/42 85/11/43 82/12/41
f 85/11/43 86/12/43 82/12/41
f 87/11/43 89/13/39 88/12/43
f 89/13/39 90/14/39 88/12/43
f 91/9/44 93/14/44 92/10/44
f 91/9/44 94/11/44 93/14/44
f 95/12/44 97/14/44 96/11/44
f 96/11/44 98/11/44 95/12/44
f 99/12/44 95/12/44 98/11/44
f 98/11/44 100/11/44 99/12/44
f 100/11/44 101/12/44 99/12/44
f 100/11/44 102/12/44 101/12/44
f 102/12/44 100/11/44 103/11/44
f 104/10/44 106/9/44 105/9/44
f 107/10/44 104/10/44 105/9/44
f 108/10/44 107/10/44 105/9/44
f 108/10/44 105/9/44 109/9/44
f 109/9/44 110/9/44 108/10/44
s 0
f 111/11/45 113/15/45 112/15/46
f 113/15/46 111/11/45 114/11/45
s 1
f 115/11/46 111/11/46 112/15/46
f 115/11/46 112/15/46 116/15/46
f 117/11/46 115/11/46 116/15/46
f 116/15/46 118/15/46 117/11/46
f 119/11/47 117/11/46 118/15/46
f 118/15/46 120/15/47 119/11/47
f 119/11/47 120/15/47 121/15/46
f 121/15/46 122/11/46 119/11/47
f 123/16/48 125/16/48 124/12/48
f 126/12/49 124/12/48 125/16/48
f 124/12/48 127/12/48 123/16/48
f 128/16/49 123/16/48 127/12/48
f 127/12/48 129/12/49 128/16/49
f 125/16/48 130/16/49 126/12/49
f 131/12/49 126/12/49 130/16/49
f 131/12/49 130/16/49 132/16/49
f 133/9/50 135/9/51 134/10/50
f 135/9/51 136/10/52 134/10/50
f 136/10/52 135/9/51 137/9/53
f 137/9/53 138/10/53 136/10/52
f 139/11/54 141/11/56 140/12/55
f 140/12/55 142/12/57 139/11/54
f 143/11/58 139/11/54 142/12/57
f 142/12/57 144/12/58 143/11/58
s 0
f 145/16/46 147/12/45 146/12/45
f 147/12/45 145/16/46 148/16/45
f 146/12/45 149/16/46 145/16/45
f 149/16/46 146/12/45 150/12/45
f 151/11/45 153/15/45 152/15/46
f 153/15/46 151/11/45 154/11/45
f 155/11/49 157/15/49 156/15/59
f 157/15/59 155/11/49 158/11/49
f 159/16/59 161/12/49 160/12/49
f 161/12/49 159/16/59 162/16/49
o right_fist
v -1.804018 -0.100548 -0.403191
v -1.804018 0.705834 0.403191
v -1.804018 0.705834 -0.403191
v -1.804018 -0.100548 0.403191
v 1.804018 0.705834 -0.403191
v 1.804018 -0.100548 0.403191
v 1.804018 -0.100548 -0.403191
v 1.804018 0.705834 0.403191
v 1.756205 -0.100548 0.451005
v 1.756205 -0.148361 0.403191
v 1.804018 -0.100548 0.403191
v 1.804018 -0.100548 -0.403191
v 1.756205 -0.148362 -0.403191
v 1.756205 -0.100548 -0.451004
v 1.756205 0.705834 0.451004
v 1.804018 0.705834 0.403191
v 1.756205 0.753648 0.403191
v 1.756205 0.753647 -0.403191
v 1.804018 0.705834 -0.403191
v 1.756205 0.705834 -0.451005
v -1.756205 -0.100548 0.451005
v -1.804018 -0.100548 0.403191
v -1.756205 -0.148361 0.403191
v -1.756205 -0.148362 -0.403191
v -1.804018 -0.100548 -0.403191
v -1.756205 -0.100548 -0.451004
v -1.756205 0.705834 0.451004
v -1.756205 0.753648 0.403191
v -1.804018 0.705834 0.403191
v -1.804018 0.705834 -0.403191
v -1.756205 0.753647 -0.403191
v -1.756205 0.705834 -0.451005
v 1.804018 -0.100548 0.403191
v 1.756205 0.705834 0.451004
v 1.756205 -0.100548 0.451005
v 1.804018 0.705834 0.403191
v 1.804018 0.705834 -0.403191
v 1.756205 -0.100548 -0.451004
v 1.756205 0.705834 -0.451005
v 1.804018 -0.100548 -0.403191
v -1.804018 0.705834 0.403191
v -1.804018 -0.100548 0.403191
v -1.756205 -0.100548 0.451005
v -1.756205 0.705834 0.451004
v -1.804018 -0.100548 -0.403191
v -1.804018 0.705834 -0.403191
v -1.756205 0.705834 -0.451005
v -1.756205 -0.100548 -0.451004
v 1.756205 0.753648 0.403191
v -1.756205 0.753648 0.403191
v -1.756205 0.705834 0.451004
v 1.756205 0.705834 0.451004
v 1.756205 0.705834 -0.451005
v -1.756205 0.705834 -0.451005
v -1.756205 0.753647 -0.403191
v 1.756205 0.753647 -0.403191
v -1.756205 -0.148361 0.403191
v 1.756205 -0.148361 0.403191
v 1.756205 -0.100548 0.451005
v -1.756205 -0.100548 0.451005
v -1.756205 -0.100548 -0.451004
v 1.756205 -0.100548 -0.451004
v 1.756205 -0.148362 -0.403191
v -1.756205 -0.148362 -0.403191
v 1.756205 -0.148362 -0.403191
v -1.756205 -0.148361 0.403191
v -1.756205 -0.148362 -0.403191
v 1.756205 -0.148361 0.403191
v -1.756205 0.705834 -0.451005
v 1.756205 0.705834 -0.451005
v 1.756205 -0.100548 -0.451004
v -1.756205 -0.100548 -0.451004
v -1.756205 0.753647 -0.403191
v 1.756205 0.753648 0.403191
v 1.756205 0.753647 -0.403191
v -1.756205 0.753648 0.403191
v -1.756205 -0.100548 0.451005
v 1.756205 -0.100548 0.451005
v 1.756205 0.705834 0.451004
v -1.756205 0.705834 0.451004
vn -0.8755 -0.3417 -0.3417
vn -0.8755 0.3417 0.3417
vn -0.8755 0.3417 -0.3417
vn -0.8755 -0.3417 0.3417
vn 0.8755 0.3417 -0.3417
vn 0.8755 -0.3417 0.3417
vn 0.8755 -0.3417 -0.3417
vn 0.8755 0.3417 0.3417
vn 0.3417 -0.3418 0.8755
vn 0.3417 -0.8755 0.3417
vn 0.8755 -0.3418 0.3417
vn 0.3418 -0.8755 -0.3417
vn 0.3418 -0.3417 -0.8755
vn 0.3418 0.3417 0.8755
vn 0.3418 0.8755 0.3417
vn 0.3417 0.8755 -0.3417
vn 0.8755 0.3418 -0.3417
vn 0.3417 0.3418 -0.8755
vn -0.3418 -0.3417 0.8755
vn -0.3418 -0.8755 0.3417
vn -0.3417 -0.8755 -0.3417
vn -0.8755 -0.3418 -0.3417
vn -0.3417 -0.3418 -0.8755
vn -0.3417 0.3418 0.8755
vn -0.3417 0.8755 0.3417
vn -0.8755 0.3418 0.3417
vn -0.3418 0.8755 -0.3417
vn -0.3418 0.3417 -0.8755
vn 0.3417 0.3417 0.8755
vn 0.3417 -0.3417 0.8755
vn 0.3417 -0.3417 -0.8755
vn 0.3417 0.3417 -0.8755
vn -0.3417 -0.3417 0.8755
vn -0.3417 0.3417 0.8755
vn -0.3417 0.3417 -0.8755
vn -0.3417 -0.3417 -0.8755
vn 0.3417 0.8755 0.3417
vn -0.3417 0.8755 -0.3417
vn -0.3417 -0.8755 0.3417
vn 0.3417 -0.8755 -0.3417
vt 0.372650 0.019678
vt 0.478632 0.130590
vt 0.372650 0.130590
vt 0.478632 0.019678
vt 0.478632 0.481216
vt 0.372650 0.370304
vt 0.478632 0.370304
vt 0.372650 0.481216
vt 0.478632 0.363148
vt 0.478632 0.137746
vt 0.365812 0.363148
vt 0.365812 0.137746
vt 0.140171 0.137746
vt 0.140171 0.363148
vt 0.252991 0.137746
vt 0.252991 0.363148
vt 0.147009 0.137746
vt 0.147009 0.363148
vt 0.259829 0.363148
vt 0.259829 0.137746
vt 0.372650 0.137746
vt 0.372650 0.363148
vt 0.034188 0.363148
vt 0.034188 0.137746
s 1
f 163/17/60 164/18/61 165/19/62
f 164/18/61 163/17/60 166/20/63
f 167/21/64 168/22/65 169/23/66
f 168/22/65 167/21/64 170/24/67
f 171/22/68 172/22/69 173/22/70
f 172/22/69 174/23/66 173/22/70
f 174/23/66 172/22/69 175/23/71
f 175/23/71 176/23/72 174/23/66
f 177/24/73 178/24/67 179/24/74
f 180/21/75 179/24/74 178/24/67
f 178/24/67 181/21/76 180/21/75
f 182/21/77 180/21/75 181/21/76
f 183/20/78 184/20/63 185/20/79
f 186/17/80 185/20/79 184/20/63
f 184/20/63 187/17/81 186/17/80
f 188/17/82 186/17/80 187/17/81
f 189/18/83 190/18/84 191/18/85
f 192/19/62 191/18/85 190/18/84
f 190/18/84 193/19/86 192/19/62
f 194/19/87 192/19/62 193/19/86
f 195/22/65 196/24/88 197/22/89
f 196/24/88 195/22/65 198/24/67
f 199/21/64 200/23/90 201/21/91
f 200/23/90 199/21/64 202/23/66
f 203/18/61 204/20/63 205/20/92
f 205/20/92 206/18/93 203/18/61
f 207/17/60 208/19/62 209/19/94
f 209/19/94 210/17/95 207/17/60
f 211/25/96 212/26/84 213/26/93
f 211/25/96 213/26/93 214/25/88
f 215/27/91 216/28/94 217/28/97
f 215/27/91 217/28/97 218/27/75
f 219/29/98 220/30/69 221/30/89
f 219/29/98 221/30/89 222/29/92
f 223/31/95 224/32/90 225/32/99
f 223/31/95 225/32/99 226/31/80
f 227/32/99 228/33/98 229/31/80
f 228/33/98 227/32/99 230/34/69
f 231/28/94 232/27/91 233/35/90
f 231/28/94 233/35/90 234/36/95
f 235/37/97 236/25/96 237/38/75
f 236/25/96 235/37/97 238/26/84
f 239/29/92 240/30/89 241/39/88
f 239/29/92 241/39/88 242/40/93
o RenderMesh_18407376865.001
v -1.681675 1.133483 0.283187
v -1.679212 0.984217 0.283217
v -1.681637 1.133494 0.331967
v -1.679174 0.984228 0.331997
v -1.681637 1.133494 0.331967
v -1.679174 0.984228 0.331997
v -1.696522 1.133257 0.375636
v -1.694059 0.983991 0.375667
v -1.696628 1.133227 0.239541
v -1.694165 0.983962 0.239571
v -1.681675 1.133483 0.283187
v -1.679212 0.984217 0.283217
v -2.116930 0.976978 0.203986
v -2.159233 0.976315 0.376030
v -2.116768 0.977023 0.411914
v -2.159339 0.976286 0.239935
v -2.179669 0.975969 0.332389
v -2.179708 0.975958 0.283609
v -2.068791 0.977770 0.189794
v -2.068607 0.977821 0.426030
v -1.784606 0.982507 0.425808
v -1.784790 0.982456 0.189572
v -1.736468 0.983299 0.411616
v -1.736629 0.983254 0.203688
v -1.694059 0.983991 0.375667
v -1.694165 0.983962 0.239571
v -1.679174 0.984228 0.331997
v -1.679212 0.984217 0.283217
v -2.119231 1.126289 0.411884
v -2.071254 1.127035 0.189764
v -2.071070 1.127086 0.426000
v -1.787069 1.131773 0.425778
v -2.119393 1.126244 0.203955
v -1.787253 1.131722 0.189542
v -2.161696 1.125581 0.376000
v -1.738931 1.132564 0.411586
v -2.161802 1.125551 0.239905
v -2.182132 1.125235 0.332359
v -2.182170 1.125224 0.283578
v -1.739093 1.132519 0.203658
v -1.696522 1.133257 0.375636
v -1.696628 1.133227 0.239541
v -1.681637 1.133494 0.331967
v -1.681675 1.133483 0.283187
v -2.116768 0.977023 0.411914
v -2.119231 1.126289 0.411884
v -2.071070 1.127086 0.426000
v -2.159233 0.976315 0.376030
v -2.068607 0.977821 0.426030
v -2.161696 1.125581 0.376000
v -2.179669 0.975969 0.332389
v -2.182132 1.125235 0.332359
v -1.787069 1.131773 0.425778
v -1.784606 0.982507 0.425808
v -1.736468 0.983299 0.411616
v -1.738931 1.132564 0.411586
v -1.694059 0.983991 0.375667
v -1.696522 1.133257 0.375636
v -2.119393 1.126244 0.203955
v -2.068791 0.977770 0.189794
v -2.071254 1.127035 0.189764
v -2.116930 0.976978 0.203986
v -1.784790 0.982456 0.189572
v -2.161802 1.125551 0.239905
v -1.787253 1.131722 0.189542
v -2.159339 0.976286 0.239935
v -1.739093 1.132519 0.203658
v -2.182170 1.125224 0.283578
v -1.736629 0.983254 0.203688
v -1.696628 1.133227 0.239541
v -1.694165 0.983962 0.239571
v -2.179708 0.975958 0.283609
v -2.182132 1.125235 0.332359
v -2.179669 0.975969 0.332389
vn 0.9863 0.0154 -0.1643
vn 0.9864 0.0155 0.1634
vn 0.9864 0.0155 0.1635
vn 0.9463 0.0151 0.3229
vn 0.9463 0.0152 0.3229
vn 0.9460 0.0148 -0.3240
vn 0.9459 0.0151 -0.3240
vn 0.9863 0.0155 -0.1644
vn 0.0165 -0.9999 0.0002
vn -0.0165 0.9999 -0.0002
vn -0.4737 -0.0069 0.8807
vn -0.1416 -0.0021 0.9899
vn -0.7945 -0.0122 0.6072
vn -0.1415 -0.0016 0.9899
vn -0.9759 -0.0153 0.2176
vn 0.1430 0.0035 0.9897
vn 0.1430 0.0034 0.9897
vn 0.4752 0.0072 0.8799
vn 0.4751 0.0073 0.8799
vn 0.6469 0.0101 0.7625
vn -0.4749 -0.0074 -0.8800
vn -0.1431 -0.0026 -0.9897
vn -0.1430 -0.0020 -0.9897
vn -0.4750 -0.0072 -0.8800
vn 0.1414 0.0031 -0.9900
vn -0.7952 -0.0125 -0.6062
vn 0.1414 0.0029 -0.9899
vn -0.7953 -0.0125 -0.6061
vn 0.4736 0.0069 -0.8807
vn -0.9764 -0.0154 -0.2155
vn 0.4735 0.0070 -0.8808
vn 0.6455 0.0098 -0.7637
vn 0.6455 0.0095 -0.7637
vn -0.9764 -0.0154 -0.2154
vn -0.9759 -0.0153 0.2175
vt 0.625000 0.750000
vt 0.375000 0.750000
vt 0.625000 1.000000
vt 0.375000 1.000000
vt 0.625000 0.000000
vt 0.375000 0.000000
vt 0.125000 0.750000
vt 0.875000 0.750000
s 1
f 243/41/100 245/43/101 244/42/100
f 245/43/101 246/44/101 244/42/100
f 247/45/102 249/45/103 248/46/102
f 249/45/103 250/46/104 248/46/102
f 251/41/105 253/41/107 252/42/106
f 253/41/107 254/42/107 252/42/106
f 255/42/108 257/47/108 256/47/108
f 256/47/108 258/42/108 255/42/108
f 258/42/108 256/47/108 259/47/108
f 259/47/108 260/42/108 258/42/108
f 257/47/108 255/42/108 261/42/108
f 261/42/108 262/47/108 257/47/108
f 261/42/108 263/47/108 262/47/108
f 261/42/108 264/42/108 263/47/108
f 265/47/108 263/47/108 264/42/108
f 264/42/108 266/42/108 265/47/108
f 267/47/108 265/47/108 266/42/108
f 266/42/108 268/42/108 267/47/108
f 269/47/108 267/47/108 268/42/108
f 268/42/108 270/42/108 269/47/108
f 271/48/109 273/48/109 272/41/109
f 272/41/109 273/48/109 274/48/109
f 272/41/109 275/41/109 271/48/109
f 274/48/109 276/41/109 272/41/109
f 275/41/109 277/48/109 271/48/109
f 276/41/109 274/48/109 278/48/109
f 275/41/109 279/41/109 277/48/109
f 279/41/109 280/48/109 277/48/109
f 279/41/109 281/41/109 280/48/109
f 278/48/109 282/41/109 276/41/109
f 282/41/109 278/48/109 283/48/109
f 283/48/109 284/41/109 282/41/109
f 283/48/109 285/48/109 284/41/109
f 285/48/109 286/41/109 284/41/109
f 287/46/110 289/45/111 288/45/110
f 288/45/110 290/46/112 287/46/110
f 289/45/111 287/46/110 291/46/113
f 290/46/112 288/45/110 292/45/112
f 292/45/112 293/46/114 290/46/112
f 293/46/114 292/45/112 294/45/114
f 289/45/111 291/46/113 295/45/115
f 295/45/115 291/46/113 296/46/116
f 295/45/115 296/46/116 297/46/117
f 297/46/117 298/45/118 295/45/115
f 298/45/118 297/46/117 299/46/119
f 300/45/119 298/45/118 299/46/119
f 301/41/120 303/41/122 302/42/121
f 302/42/121 304/42/123 301/41/120
f 305/42/124 302/42/121 303/41/122
f 306/41/125 301/41/120 304/42/123
f 303/41/122 307/41/126 305/42/124
f 304/42/123 308/42/127 306/41/125
f 307/41/126 309/41/128 305/42/124
f 310/41/129 306/41/125 308/42/127
f 309/41/128 311/42/130 305/42/124
f 309/41/128 312/41/131 311/42/130
f 312/41/131 313/42/132 311/42/130
f 308/42/127 314/42/133 310/41/129
f 315/43/134 310/41/129 314/42/133
f 314/42/133 316/44/134 315/43/134
o RenderMesh_18407376883.001
v -1.720812 0.715192 -0.438851
v -1.718880 0.711016 -0.253603
v -1.737643 0.760090 -0.437663
v -1.735712 0.755914 -0.252416
v -1.715913 0.656773 -0.254857
v -1.717844 0.660949 -0.440104
v -1.742594 0.502107 -0.443427
v -1.722121 0.542159 -0.257376
v -1.724052 0.546335 -0.442623
v -1.740663 0.497931 -0.258180
v -1.719006 0.600426 -0.441457
v -1.717074 0.596250 -0.256209
v -1.719006 0.600426 -0.441457
v -1.717074 0.596250 -0.256209
v -1.717844 0.660949 -0.440104
v -1.715913 0.656773 -0.254857
v -2.267200 0.671359 -0.434142
v -2.264229 0.721350 -0.247684
v -2.265269 0.667183 -0.248894
v -2.268362 0.610835 -0.435494
v -2.266430 0.606660 -0.250247
v -2.268362 0.610835 -0.435494
v -2.265269 0.667183 -0.248894
v -2.269401 0.556669 -0.436704
v -2.267470 0.552493 -0.251457
v -2.270256 0.512106 -0.437700
v -2.268325 0.507930 -0.252452
v -2.268662 0.490369 -0.252845
v -2.270593 0.494545 -0.438092
v -2.263037 0.783474 -0.246296
v -2.265305 0.770089 -0.431936
v -2.264968 0.787650 -0.431544
v -2.263374 0.765913 -0.246689
v -2.264229 0.721350 -0.247684
v -2.266160 0.725526 -0.432932
v -2.267200 0.671359 -0.434142
v -2.270593 0.494545 -0.438092
v -2.264968 0.787650 -0.431544
v -2.265305 0.770089 -0.431936
v -2.270256 0.512106 -0.437700
v -2.118640 0.491665 -0.439741
v -2.112951 0.784769 -0.433194
v -1.742594 0.502107 -0.443427
v -1.737643 0.760090 -0.437663
v -1.724052 0.546335 -0.442623
v -1.720812 0.715192 -0.438851
v -1.717844 0.660949 -0.440104
v -1.719006 0.600426 -0.441457
v -1.718880 0.711016 -0.253603
v -1.740663 0.497931 -0.258180
v -1.735712 0.755914 -0.252416
v -2.148277 0.488088 -0.254151
v -1.722121 0.542159 -0.257376
v -1.715913 0.656773 -0.254857
v -1.717074 0.596250 -0.256209
v -2.142652 0.781193 -0.247603
v -2.268662 0.490369 -0.252845
v -2.263037 0.783474 -0.246296
v -1.737643 0.760090 -0.437663
v -1.735712 0.755914 -0.252416
v -2.112951 0.784769 -0.433194
v -2.142652 0.781193 -0.247603
v -2.264968 0.787650 -0.431544
v -2.263037 0.783474 -0.246296
v -2.118640 0.491665 -0.439741
v -1.740663 0.497931 -0.258180
v -1.742594 0.502107 -0.443427
v -2.148277 0.488088 -0.254151
v -2.270593 0.494545 -0.438092
v -2.268662 0.490369 -0.252845
v -2.263374 0.765913 -0.246689
v -2.268325 0.507930 -0.252452
v -2.267470 0.552493 -0.251457
v -2.264229 0.721350 -0.247684
v -2.263037 0.783474 -0.246296
v -2.268662 0.490369 -0.252845
v -2.269401 0.556669 -0.436704
v -2.266160 0.725526 -0.432932
v -2.267200 0.671359 -0.434142
v -2.268362 0.610835 -0.435494
v -2.270256 0.512106 -0.437700
v -2.265305 0.770089 -0.431936
v -2.266160 0.725526 -0.432932
v -2.269401 0.556669 -0.436704
v -2.264229 0.721350 -0.247684
v -2.267470 0.552493 -0.251457
v -2.266430 0.606660 -0.250247
v -2.265269 0.667183 -0.248894
vn 0.9786 0.2056 -0.0049
vn 0.9786 0.2056 -0.0048
vn 0.9364 0.3510 -0.0011
vn 0.9364 0.3510 -0.0013
vn 0.9998 0.0177 -0.0093
vn 0.9222 -0.3862 -0.0176
vn 0.9700 -0.2426 -0.0148
vn 0.9700 -0.2425 -0.0149
vn 0.9984 -0.0556 -0.0109
vn -0.9998 0.0194 0.0101
vn -0.0101 0.0229 -0.9997
vn -0.0101 0.0228 -0.9997
vn -0.0107 0.0228 -0.9997
vn 0.0107 -0.0222 0.9997
vn 0.0101 -0.0222 0.9997
vn 0.0637 0.9976 0.0257
vn 0.0430 0.9988 0.0244
vn 0.0402 0.9989 0.0244
vn 0.0196 0.9996 0.0216
vn 0.0046 -0.9998 -0.0202
vn 0.0253 -0.9995 -0.0189
vn 0.0254 -0.9995 -0.0190
vn 0.0018 -0.9998 -0.0202
vn -0.0187 -0.9996 -0.0231
vn 0.0102 -0.0222 0.9997
vn 0.0102 -0.0223 0.9997
vn 0.0101 -0.0223 0.9997
vt 0.625000 0.000000
vt 0.375000 0.000000
vt 0.625000 0.750000
vt 0.375000 0.750000
vt 0.625000 1.000000
vt 0.375000 1.000000
vt 0.875000 0.750000
vt 0.125000 0.750000
s 1
f 317/49/135 319/49/137 318/50/136
f 319/49/137 320/50/138 318/50/136
f 317/49/135 318/50/136 321/50/139
f 322/49/139 317/49/135 321/50/139
f 323/51/140 325/51/142 324/52/141
f 324/52/141 326/52/140 323/51/140
f 325/51/142 327/51/143 324/52/141
f 327/51/143 328/52/143 324/52/141
f 329/51/143 331/53/139 330/52/143
f 331/53/139 332/54/139 330/52/143
f 333/49/144 335/54/144 334/50/144
f 333/49/144 336/51/144 335/54/144
f 337/52/144 339/54/144 338/51/144
f 338/51/144 340/51/144 337/52/144
f 341/52/144 337/52/144 340/51/144
f 340/51/144 342/51/144 341/52/144
f 342/51/144 343/52/144 341/52/144
f 342/51/144 344/52/144 343/52/144
f 344/52/144 342/51/144 345/51/144
f 346/50/144 348/49/144 347/49/144
f 349/50/144 346/50/144 347/49/144
f 350/50/144 349/50/144 347/49/144
f 350/50/144 347/49/144 351/49/144
f 351/49/144 352/49/144 350/50/144
s 0
f 353/51/145 355/55/145 354/55/146
f 355/55/146 353/51/145 356/51/145
s 1
f 357/51/146 353/51/146 354/55/146
f 357/51/146 354/55/146 358/55/146
f 359/51/146 357/51/146 358/55/146
f 358/55/146 360/55/146 359/51/146
f 361/51/147 359/51/146 360/55/146
f 360/55/146 362/55/147 361/51/147
f 361/51/147 362/55/147 363/55/146
f 363/55/146 364/51/146 361/51/147
f 365/56/148 367/56/148 366/52/148
f 368/52/149 366/52/148 367/56/148
f 366/52/148 369/52/148 365/56/148
f 370/56/149 365/56/148 369/52/148
f 369/52/148 371/52/149 370/56/149
f 367/56/148 372/56/149 368/52/149
f 373/52/149 368/52/149 372/56/149
f 373/52/149 372/56/149 374/56/149
f 375/49/150 377/49/151 376/50/150
f 377/49/151 378/50/152 376/50/150
f 378/50/152 377/49/151 379/49/153
f 379/49/153 380/50/153 378/50/152
f 381/51/154 383/51/156 382/52/155
f 382/52/155 384/52/157 381/51/154
f 385/51/158 381/51/154 384/52/157
f 384/52/157 386/52/158 385/51/158
s 0
f 387/56/146 389/52/145 388/52/145
f 389/52/145 387/56/146 390/56/145
f 388/52/145 391/56/146 387/56/145
f 391/56/146 388/52/145 392/52/145
f 393/51/145 395/55/145 394/55/146
f 395/55/146 393/51/145 396/51/145
f 397/51/159 399/55/159 398/55/160
f 399/55/161 397/51/149 400/51/149
f 401/56/161 403/52/149 402/52/149
f 403/52/149 401/56/161 404/56/149
o RenderMesh_18407376883.002
v -1.481961 0.443936 -0.438851
v -1.480029 0.439760 -0.253603
v -1.498792 0.488833 -0.437663
v -1.496861 0.484658 -0.252416
v -1.477062 0.385517 -0.254857
v -1.478993 0.389692 -0.440104
v -1.503743 0.230851 -0.443427
v -1.483270 0.270902 -0.257376
v -1.485201 0.275078 -0.442623
v -1.501812 0.226675 -0.258180
v -1.480155 0.329169 -0.441457
v -1.478223 0.324993 -0.256209
v -1.480155 0.329169 -0.441457
v -1.478223 0.324993 -0.256209
v -1.478993 0.389692 -0.440104
v -1.477062 0.385517 -0.254857
v -2.028349 0.400102 -0.434142
v -2.025378 0.450094 -0.247684
v -2.026417 0.395926 -0.248894
v -2.029510 0.339579 -0.435494
v -2.027579 0.335403 -0.250247
v -2.029510 0.339579 -0.435494
v -2.026417 0.395926 -0.248894
v -2.030550 0.285412 -0.436704
v -2.028619 0.281236 -0.251457
v -2.031405 0.240849 -0.437700
v -2.029474 0.236674 -0.252452
v -2.029811 0.219112 -0.252845
v -2.031742 0.223288 -0.438092
v -2.024186 0.512218 -0.246296
v -2.026454 0.498832 -0.431936
v -2.026117 0.516393 -0.431544
v -2.024523 0.494656 -0.246689
v -2.025378 0.450094 -0.247684
v -2.027309 0.454269 -0.432932
v -2.028349 0.400102 -0.434142
v -2.031742 0.223288 -0.438092
v -2.026117 0.516393 -0.431544
v -2.026454 0.498832 -0.431936
v -2.031405 0.240849 -0.437700
v -1.879789 0.220409 -0.439741
v -1.874100 0.513513 -0.433194
v -1.503743 0.230851 -0.443427
v -1.498792 0.488833 -0.437663
v -1.485201 0.275078 -0.442623
v -1.481961 0.443936 -0.438851
v -1.478993 0.389692 -0.440104
v -1.480155 0.329169 -0.441457
v -1.480029 0.439760 -0.253603
v -1.501812 0.226675 -0.258180
v -1.496861 0.484658 -0.252416
v -1.909426 0.216831 -0.254151
v -1.483270 0.270902 -0.257376
v -1.477062 0.385517 -0.254857
v -1.478223 0.324993 -0.256209
v -1.903801 0.509936 -0.247603
v -2.029811 0.219112 -0.252845
v -2.024186 0.512218 -0.246296
v -1.498792 0.488833 -0.437663
v -1.496861 0.484658 -0.252416
v -1.874100 0.513513 -0.433194
v -1.903801 0.509936 -0.247603
v -2.026117 0.516393 -0.431544
v -2.024186 0.512218 -0.246296
v -1.879789 0.220409 -0.439741
v -1.501812 0.226675 -0.258180
v -1.503743 0.230851 -0.443427
v -1.909426 0.216831 -0.254151
v -2.031742 0.223288 -0.438092
v -2.029811 0.219112 -0.252845
v -2.024523 0.494656 -0.246689
v -2.029474 0.236674 -0.252452
v -2.028619 0.281236 -0.251457
v -2.025378 0.450094 -0.247684
v -2.024186 0.512218 -0.246296
v -2.029811 0.219112 -0.252845
v -2.030550 0.285412 -0.436704
v -2.027309 0.454269 -0.432932
v -2.028349 0.400102 -0.434142
v -2.029510 0.339579 -0.435494
v -2.031405 0.240849 -0.437700
v -2.026454 0.498832 -0.431936
v -2.027309 0.454269 -0.432932
v -2.030550 0.285412 -0.436704
v -2.025378 0.450094 -0.247684
v -2.028619 0.281236 -0.251457
v -2.027579 0.335403 -0.250247
v -2.026417 0.395926 -0.248894
vn 0.9786 0.2056 -0.0049
vn 0.9786 0.2056 -0.0048
vn 0.9364 0.3510 -0.0011
vn 0.9364 0.3510 -0.0013
vn 0.9998 0.0177 -0.0093
vn 0.9222 -0.3862 -0.0176
vn 0.9700 -0.2426 -0.0148
vn 0.9700 -0.2425 -0.0149
vn 0.9984 -0.0556 -0.0109
vn -0.9998 0.0194 0.0101
vn -0.0101 0.0229 -0.9997
vn -0.0101 0.0228 -0.9997
vn -0.0107 0.0228 -0.9997
vn 0.0107 -0.0222 0.9997
vn 0.0101 -0.0222 0.9997
vn 0.0637 0.9976 0.0257
vn 0.0430 0.9988 0.0244
vn 0.0402 0.9989 0.0244
vn 0.0196 0.9996 0.0216
vn 0.0046 -0.9998 -0.0202
vn 0.0253 -0.9995 -0.0189
vn 0.0254 -0.9995 -0.0190
vn 0.0018 -0.9998 -0.0202
vn -0.0187 -0.9996 -0.0231
vn 0.0102 -0.0222 0.9997
vn 0.0102 -0.0223 0.9997
vn 0.0101 -0.0223 0.9997
vt 0.625000 0.000000
vt 0.375000 0.000000
vt 0.625000 0.750000
vt 0.375000 0.750000
vt 0.625000 1.000000
vt 0.375000 1.000000
vt 0.875000 0.750000
vt 0.125000 0.750000
s 1
f 405/57/162 407/57/164 406/58/163
f 407/57/164 408/58/165 406/58/163
f 405/57/162 406/58/163 409/58/166
f 410/57/166 405/57/162 409/58/166
f 411/59/167 413/59/169 412/60/168
f 412/60/168 414/60/167 411/59/167
f 413/59/169 415/59/170 412/60/168
f 415/59/170 416/60/170 412/60/168
f 417/59/170 419/61/166 418/60/170
f 419/61/166 420/62/166 418/60/170
f 421/57/171 423/62/171 422/58/171
f 421/57/171 424/59/171 423/62/171
f 425/60/171 427/62/171 426/59/171
f 426/59/171 428/59/171 425/60/171
f 429/60/171 425/60/171 428/59/171
f 428/59/171 430/59/171 429/60/171
f 430/59/171 431/60/171 429/60/171
f 430/59/171 432/60/171 431/60/171
f 432/60/171 430/59/171 433/59/171
f 434/58/171 436/57/171 435/57/171
f 437/58/171 434/58/171 435/57/171
f 438/58/171 437/58/171 435/57/171
f 438/58/171 435/57/171 439/57/171
f 439/57/171 440/57/171 438/58/171
s 0
f 441/59/172 443/63/172 442/63/173
f 443/63/173 441/59/172 444/59/172
s 1
f 445/59/173 441/59/173 442/63/173
f 445/59/173 442/63/173 446/63/173
f 447/59/173 445/59/173 446/63/173
f 446/63/173 448/63/173 447/59/173
f 449/59/174 447/59/173 448/63/173
f 448/63/173 450/63/174 449/59/174
f 449/59/174 450/63/174 451/63/173
f 451/63/173 452/59/173 449/59/174
f 453/64/175 455/64/175 454/60/175
f 456/60/176 454/60/175 455/64/175
f 454/60/175 457/60/175 453/64/175
f 458/64/176 453/64/175 457/60/175
f 457/60/175 459/60/176 458/64/176
f 455/64/175 460/64/176 456/60/176
f 461/60/176 456/60/176 460/64/176
f 461/60/176 460/64/176 462/64/176
f 463/57/177 465/57/178 464/58/177
f 465/57/178 466/58/179 464/58/177
f 466/58/179 465/57/178 467/57/180
f 467/57/180 468/58/180 466/58/179
f 469/59/181 471/59/183 470/60/182
f 470/60/182 472/60/184 469/59/181
f 473/59/185 469/59/181 472/60/184
f 472/60/184 474/60/185 473/59/185
s 0
f 475/64/173 477/60/172 476/60/172
f 477/60/172 475/64/173 478/64/172
f 476/60/172 479/64/173 475/64/172
f 479/64/173 476/60/172 480/60/172
f 481/59/172 483/63/172 482/63/173
f 483/63/173 481/59/172 484/59/172
f 485/59/186 487/63/186 486/63/187
f 487/63/188 485/59/176 488/59/176
f 489/64/188 491/60/176 490/60/176
f 491/60/176 489/64/188 492/64/176
o RenderMesh_18407376883.003
v -2.515026 0.443936 -0.254334
v -2.515026 0.439760 -0.439591
v -2.498183 0.488833 -0.255346
v -2.498183 0.484658 -0.440603
v -2.518006 0.385517 -0.438368
v -2.518006 0.389692 -0.253111
v -2.493292 0.230851 -0.249531
v -2.511825 0.270902 -0.435785
v -2.511825 0.275078 -0.250528
v -2.493292 0.226675 -0.434788
v -2.516859 0.329169 -0.251747
v -2.516859 0.324993 -0.437004
v -2.516859 0.329169 -0.251747
v -2.516859 0.324993 -0.437004
v -2.518006 0.389692 -0.253111
v -2.518006 0.385517 -0.438368
v -1.968618 0.400102 -0.253346
v -1.969645 0.450094 -0.439824
v -1.968618 0.395926 -0.438603
v -1.967471 0.339579 -0.251981
v -1.967471 0.335403 -0.437239
v -1.967471 0.339579 -0.251981
v -1.968618 0.395926 -0.438603
v -1.966444 0.285412 -0.250760
v -1.966444 0.281236 -0.436018
v -1.965599 0.240849 -0.249756
v -1.965599 0.236674 -0.435013
v -1.965266 0.219112 -0.434618
v -1.965266 0.223288 -0.249360
v -1.970823 0.512218 -0.441224
v -1.970490 0.498832 -0.255571
v -1.970823 0.516393 -0.255967
v -1.970490 0.494656 -0.440829
v -1.969645 0.450094 -0.439824
v -1.969645 0.454269 -0.254567
v -1.968618 0.400102 -0.253346
v -1.965266 0.223288 -0.249360
v -1.970823 0.516393 -0.255967
v -1.970490 0.498832 -0.255571
v -1.965599 0.240849 -0.249756
v -2.117228 0.220409 -0.249295
v -2.122849 0.513513 -0.255902
v -2.493292 0.230851 -0.249531
v -2.498183 0.488833 -0.255346
v -2.511825 0.275078 -0.250528
v -2.515026 0.443936 -0.254334
v -2.518006 0.389692 -0.253111
v -2.516859 0.329169 -0.251747
v -2.515026 0.439760 -0.439591
v -2.493292 0.226675 -0.434788
v -2.498183 0.484658 -0.440603
v -2.085658 0.216831 -0.434566
v -2.511825 0.270902 -0.435785
v -2.518006 0.385517 -0.438368
v -2.516859 0.324993 -0.437004
v -2.091214 0.509936 -0.441173
v -1.965266 0.219112 -0.434618
v -1.970823 0.512218 -0.441224
v -2.498183 0.488833 -0.255346
v -2.498183 0.484658 -0.440603
v -2.122849 0.513513 -0.255902
v -2.091214 0.509936 -0.441173
v -1.970823 0.516393 -0.255967
v -1.970823 0.512218 -0.441224
v -2.117228 0.220409 -0.249295
v -2.493292 0.226675 -0.434788
v -2.493292 0.230851 -0.249531
v -2.085658 0.216831 -0.434566
v -1.965266 0.223288 -0.249360
v -1.965266 0.219112 -0.434618
v -1.970490 0.494656 -0.440829
v -1.965599 0.236674 -0.435013
v -1.966444 0.281236 -0.436018
v -1.969645 0.450094 -0.439824
v -1.970823 0.512218 -0.441224
v -1.965266 0.219112 -0.434618
v -1.966444 0.285412 -0.250760
v -1.969645 0.454269 -0.254567
v -1.968618 0.400102 -0.253346
v -1.967471 0.339579 -0.251981
v -1.965599 0.240849 -0.249756
v -1.970490 0.498832 -0.255571
v -1.969645 0.454269 -0.254567
v -1.966444 0.285412 -0.250760
v -1.969645 0.450094 -0.439824
v -1.966444 0.281236 -0.436018
v -1.967471 0.335403 -0.437239
v -1.968618 0.395926 -0.438603
vn -0.9786 0.2056 -0.0053
vn -0.9786 0.2056 -0.0054
vn -0.9363 0.3510 -0.0087
vn -0.9363 0.3510 -0.0084
vn -0.9998 0.0177 -0.0012
vn -0.9224 -0.3862 0.0080
vn -0.9701 -0.2426 0.0047
vn -0.9701 -0.2425 0.0048
vn -0.9985 -0.0556 0.0005
vn 0.9998 0.0194 0.0003
vn -0.0003 0.0229 0.9997
vn -0.0003 0.0228 0.9997
vn 0.0003 0.0228 0.9997
vn -0.0003 -0.0222 -0.9998
vn 0.0003 -0.0222 -0.9998
vn -0.0634 0.9976 -0.0263
vn -0.0427 0.9988 -0.0249
vn -0.0399 0.9989 -0.0248
vn -0.0194 0.9996 -0.0218
vn -0.0048 -0.9998 0.0202
vn -0.0255 -0.9995 0.0186
vn -0.0256 -0.9995 0.0187
vn -0.0020 -0.9998 0.0202
vn 0.0185 -0.9996 0.0233
vn 0.0003 -0.0223 -0.9998
vt 0.625000 0.000000
vt 0.375000 0.000000
vt 0.625000 0.750000
vt 0.375000 0.750000
vt 0.625000 1.000000
vt 0.375000 1.000000
vt 0.875000 0.750000
vt 0.125000 0.750000
s 1
f 493/65/189 495/65/191 494/66/190
f 495/65/191 496/66/192 494/66/190
f 493/65/189 494/66/190 497/66/193
f 498/65/193 493/65/189 497/66/193
f 499/67/194 501/67/196 500/68/195
f 500/68/195 502/68/194 499/67/194
f 501/67/196 503/67/197 500/68/195
f 503/67/197 504/68/197 500/68/195
f 505/67/197 507/69/193 506/68/197
f 507/69/193 508/70/193 506/68/197
f 509/65/198 511/70/198 510/66/198
f 509/65/198 512/67/198 511/70/198
f 513/68/198 515/70/198 514/67/198
f 514/67/198 516/67/198 513/68/198
f 517/68/198 513/68/198 516/67/198
f 516/67/198 518/67/198 517/68/198
f 518/67/198 519/68/198 517/68/198
f 518/67/198 520/68/198 519/68/198
f 520/68/198 518/67/198 521/67/198
f 522/66/198 524/65/198 523/65/198
f 525/66/198 522/66/198 523/65/198
f 526/66/198 525/66/198 523/65/198
f 526/66/198 523/65/198 527/65/198
f 527/65/198 528/65/198 526/66/198
s 0
f 529/67/199 531/71/199 530/71/200
f 531/71/200 529/67/199 532/67/199
s 1
f 533/67/200 529/67/200 530/71/200
f 533/67/200 530/71/200 534/71/200
f 535/67/200 533/67/200 534/71/200
f 534/71/200 536/71/200 535/67/200
f 537/67/201 535/67/200 536/71/200
f 536/71/200 538/71/201 537/67/201
f 537/67/201 538/71/201 539/71/200
f 539/71/200 540/67/200 537/67/201
f 541/72/202 543/72/202 542/68/202
f 544/68/203 542/68/202 543/72/202
f 542/68/202 545/68/202 541/72/202
f 546/72/203 541/72/202 545/68/202
f 545/68/202 547/68/203 546/72/203
f 543/72/202 548/72/203 544/68/203
f 549/68/203 544/68/203 548/72/203
f 549/68/203 548/72/203 550/72/203
f 551/65/204 553/65/205 552/66/204
f 553/65/205 554/66/206 552/66/204
f 554/66/206 553/65/205 555/65/207
f 555/65/207 556/66/207 554/66/206
f 557/67/208 559/67/210 558/68/209
f 558/68/209 560/68/211 557/67/208
f 561/67/212 557/67/208 560/68/211
f 560/68/211 562/68/212 561/67/212
s 0
f 563/72/200 565/68/199 564/68/199
f 565/68/199 563/72/200 566/72/199
f 564/68/199 567/72/200 563/72/199
f 567/72/200 564/68/199 568/68/199
f 569/67/199 571/71/199 570/71/200
f 571/71/200 569/67/199 572/67/199
f 573/67/203 575/71/203 574/71/213
f 575/71/213 573/67/203 576/67/203
f 577/72/213 579/68/203 578/68/203
f 579/68/203 577/72/213 580/72/203
o RenderMesh_18407376883.004
v -2.106015 0.190931 0.086824
v -2.253865 0.186755 -0.024803
v -2.096674 0.235829 0.072772
v -2.244524 0.231653 -0.038855
v -2.254685 0.132512 -0.021688
v -2.106835 0.136688 0.089939
v -2.089086 -0.022154 0.072373
v -2.248899 0.017898 -0.025064
v -2.101048 0.022074 0.086563
v -2.236936 -0.026330 -0.039254
v -2.105055 0.076165 0.089846
v -2.252905 0.071989 -0.021781
v -2.105055 0.076165 0.089846
v -2.252905 0.071989 -0.021781
v -2.106835 0.136688 0.089939
v -2.254685 0.132512 -0.021688
v -1.775988 0.147098 -0.348658
v -1.925431 0.197089 -0.460201
v -1.923838 0.142922 -0.460285
v -1.774208 0.086574 -0.348751
v -1.922058 0.082399 -0.460378
v -1.774208 0.086574 -0.348751
v -1.923838 0.142922 -0.460285
v -1.772614 0.032408 -0.348835
v -1.920465 0.028232 -0.460462
v -1.771304 -0.012155 -0.348904
v -1.919154 -0.016331 -0.460531
v -1.918638 -0.033892 -0.460558
v -1.770787 -0.029716 -0.348931
v -1.927258 0.259213 -0.460105
v -1.778892 0.245828 -0.348505
v -1.779408 0.263389 -0.348478
v -1.926742 0.241652 -0.460132
v -1.925431 0.197089 -0.460201
v -1.777581 0.201265 -0.348574
v -1.775988 0.147098 -0.348658
v -1.770787 -0.029716 -0.348931
v -1.779408 0.263389 -0.348478
v -1.778892 0.245828 -0.348505
v -1.771304 -0.012155 -0.348904
v -1.862300 -0.032596 -0.227614
v -1.870960 0.260508 -0.227110
v -2.089086 -0.022154 0.072373
v -2.096674 0.235829 0.072772
v -2.101048 0.022074 0.086563
v -2.106015 0.190931 0.086824
v -2.106835 0.136688 0.089939
v -2.105055 0.076165 0.089846
v -2.253865 0.186755 -0.024803
v -2.236936 -0.026330 -0.039254
v -2.244524 0.231653 -0.038855
v -1.991139 -0.036173 -0.364445
v -2.248899 0.017898 -0.025064
v -2.254685 0.132512 -0.021688
v -2.252905 0.071989 -0.021781
v -1.999760 0.256932 -0.363991
v -1.918638 -0.033892 -0.460558
v -1.927258 0.259213 -0.460105
v -2.096674 0.235829 0.072772
v -2.244524 0.231653 -0.038855
v -1.870960 0.260508 -0.227110
v -1.999760 0.256932 -0.363991
v -1.779408 0.263389 -0.348478
v -1.927258 0.259213 -0.460105
v -1.862300 -0.032596 -0.227614
v -2.236936 -0.026330 -0.039254
v -2.089086 -0.022154 0.072373
v -1.991139 -0.036173 -0.364445
v -1.770787 -0.029716 -0.348931
v -1.918638 -0.033892 -0.460558
v -1.926742 0.241652 -0.460132
v -1.919154 -0.016331 -0.460531
v -1.920465 0.028232 -0.460462
v -1.925431 0.197089 -0.460201
v -1.927258 0.259213 -0.460105
v -1.918638 -0.033892 -0.460558
v -1.772614 0.032408 -0.348835
v -1.777581 0.201265 -0.348574
v -1.775988 0.147098 -0.348658
v -1.774208 0.086574 -0.348751
v -1.771304 -0.012155 -0.348904
v -1.778892 0.245828 -0.348505
v -1.777581 0.201265 -0.348574
v -1.772614 0.032408 -0.348835
v -1.925431 0.197089 -0.460201
v -1.920465 0.028232 -0.460462
v -1.922058 0.082399 -0.460378
v -1.923838 0.142922 -0.460285
vn -0.5939 0.2056 0.7778
vn -0.5940 0.2056 0.7777
vn -0.5711 0.3510 0.7421
vn -0.5709 0.3510 0.7422
vn -0.6034 0.0177 0.7972
vn -0.5494 -0.3862 0.7409
vn -0.5808 -0.2426 0.7771
vn -0.5807 -0.2425 0.7771
vn -0.6012 -0.0556 0.7971
vn -0.6034 0.0177 0.7973
vn 0.6027 0.0194 -0.7977
vn 0.7977 0.0229 0.6026
vn 0.7977 0.0228 0.6026
vn 0.7980 0.0228 0.6022
vn -0.7981 -0.0222 -0.6022
vn -0.7977 -0.0222 -0.6026
vn -0.0592 0.9976 0.0347
vn -0.0456 0.9988 0.0191
vn -0.0439 0.9989 0.0169
vn -0.0291 0.9996 0.0024
vn 0.0132 -0.9998 0.0160
vn -0.0005 -0.9995 0.0316
vn -0.0004 -0.9995 0.0317
vn 0.0149 -0.9998 0.0138
vn 0.0297 -0.9996 -0.0007
vn -0.7977 -0.0223 -0.6026
vt 0.625000 0.000000
vt 0.375000 0.000000
vt 0.625000 0.750000
vt 0.375000 0.750000
vt 0.625000 1.000000
vt 0.375000 1.000000
vt 0.875000 0.750000
vt 0.125000 0.750000
s 1
f 581/73/214 583/73/216 582/74/215
f 583/73/216 584/74/217 582/74/215
f 581/73/214 582/74/215 585/74/218
f 586/73/218 581/73/214 585/74/218
f 587/75/219 589/75/221 588/76/220
f 588/76/220 590/76/219 587/75/219
f 589/75/221 591/75/222 588/76/220
f 591/75/222 592/76/222 588/76/220
f 593/75/222 595/77/223 594/76/222
f 595/77/223 596/78/218 594/76/222
f 597/73/224 599/78/224 598/74/224
f 597/73/224 600/75/224 599/78/224
f 601/76/224 603/78/224 602/75/224
f 602/75/224 604/75/224 601/76/224
f 605/76/224 601/76/224 604/75/224
f 604/75/224 606/75/224 605/76/224
f 606/75/224 607/76/224 605/76/224
f 606/75/224 608/76/224 607/76/224
f 608/76/224 606/75/224 609/75/224
f 610/74/224 612/73/224 611/73/224
f 613/74/224 610/74/224 611/73/224
f 614/74/224 613/74/224 611/73/224
f 614/74/224 611/73/224 615/73/224
f 615/73/224 616/73/224 614/74/224
s 0
f 617/75/225 619/79/225 618/79/226
f 619/79/226 617/75/225 620/75/225
s 1
f 621/75/226 617/75/226 618/79/226
f 621/75/226 618/79/226 622/79/226
f 623/75/226 621/75/226 622/79/226
f 622/79/226 624/79/226 623/75/226
f 625/75/227 623/75/226 624/79/226
f 624/79/226 626/79/227 625/75/227
f 625/75/227 626/79/227 627/79/226
f 627/79/226 628/75/226 625/75/227
f 629/80/228 631/80/228 630/76/228
f 632/76/229 630/76/228 631/80/228
f 630/76/228 633/76/228 629/80/228
f 634/80/229 629/80/228 633/76/228
f 633/76/228 635/76/229 634/80/229
f 631/80/228 636/80/229 632/76/229
f 637/76/229 632/76/229 636/80/229
f 637/76/229 636/80/229 638/80/229
f 639/73/230 641/73/231 640/74/230
f 641/73/231 642/74/232 640/74/230
f 642/74/232 641/73/231 643/73/233
f 643/73/233 644/74/233 642/74/232
f 645/75/234 647/75/236 646/76/235
f 646/76/235 648/76/237 645/75/234
f 649/75/238 645/75/234 648/76/237
f 648/76/237 650/76/238 649/75/238
s 0
f 651/80/226 653/76/225 652/76/225
f 653/76/225 651/80/226 654/80/225
f 652/76/225 655/80/226 651/80/225
f 655/80/226 652/76/225 656/76/225
f 657/75/225 659/79/225 658/79/226
f 659/79/226 657/75/225 660/75/225
f 661/75/229 663/79/229 662/79/239
f 663/79/239 661/75/229 664/75/229
f 665/80/239 667/76/229 666/76/229
f 667/76/229 665/80/239 668/80/229
o RenderMesh_18407376883.005
v -2.106015 0.061634 0.044989
v -2.253865 0.057458 -0.066638
v -2.096674 0.106532 0.030937
v -2.244524 0.102356 -0.080690
v -2.254685 0.003215 -0.063523
v -2.106835 0.007391 0.048104
v -2.089086 -0.151451 0.030538
v -2.248899 -0.111400 -0.066900
v -2.101048 -0.107224 0.044727
v -2.236936 -0.155627 -0.081089
v -2.105055 -0.053133 0.048010
v -2.252905 -0.057309 -0.063617
v -2.105055 -0.053133 0.048010
v -2.252905 -0.057309 -0.063617
v -2.106835 0.007391 0.048104
v -2.254685 0.003215 -0.063523
v -1.775988 0.017800 -0.390493
v -1.925431 0.067792 -0.502036
v -1.923838 0.013625 -0.502120
v -1.774208 -0.042723 -0.390587
v -1.922058 -0.046899 -0.502214
v -1.774208 -0.042723 -0.390587
v -1.923838 0.013625 -0.502120
v -1.772614 -0.096890 -0.390671
v -1.920465 -0.101066 -0.502298
v -1.771304 -0.141452 -0.390740
v -1.919154 -0.145628 -0.502367
v -1.918638 -0.163190 -0.502394
v -1.770787 -0.159014 -0.390767
v -1.927258 0.129916 -0.501940
v -1.778892 0.116530 -0.390340
v -1.779408 0.134092 -0.390313
v -1.926742 0.112355 -0.501967
v -1.925431 0.067792 -0.502036
v -1.777581 0.071968 -0.390409
v -1.775988 0.017800 -0.390493
v -1.770787 -0.159014 -0.390767
v -1.779408 0.134092 -0.390313
v -1.778892 0.116530 -0.390340
v -1.771304 -0.141452 -0.390740
v -1.862300 -0.161893 -0.269450
v -1.870960 0.131211 -0.268945
v -2.089086 -0.151451 0.030538
v -2.096674 0.106532 0.030937
v -2.101048 -0.107224 0.044727
v -2.106015 0.061634 0.044989
v -2.106835 0.007391 0.048104
v -2.105055 -0.053133 0.048010
v -2.253865 0.057458 -0.066638
v -2.236936 -0.155627 -0.081089
v -2.244524 0.102356 -0.080690
v -1.991139 -0.165471 -0.406281
v -2.248899 -0.111400 -0.066900
v -2.254685 0.003215 -0.063523
v -2.252905 -0.057309 -0.063617
v -1.999760 0.127635 -0.405827
v -1.918638 -0.163190 -0.502394
v -1.927258 0.129916 -0.501940
v -2.096674 0.106532 0.030937
v -2.244524 0.102356 -0.080690
v -1.870960 0.131211 -0.268945
v -1.999760 0.127635 -0.405827
v -1.779408 0.134092 -0.390313
v -1.927258 0.129916 -0.501940
v -1.862300 -0.161893 -0.269450
v -2.236936 -0.155627 -0.081089
v -2.089086 -0.151451 0.030538
v -1.991139 -0.165471 -0.406281
v -1.770787 -0.159014 -0.390767
v -1.918638 -0.163190 -0.502394
v -1.926742 0.112355 -0.501967
v -1.919154 -0.145628 -0.502367
v -1.920465 -0.101066 -0.502298
v -1.925431 0.067792 -0.502036
v -1.927258 0.129916 -0.501940
v -1.918638 -0.163190 -0.502394
v -1.772614 -0.096890 -0.390671
v -1.777581 0.071968 -0.390409
v -1.775988 0.017800 -0.390493
v -1.774208 -0.042723 -0.390587
v -1.771304 -0.141452 -0.390740
v -1.778892 0.116530 -0.390340
v -1.777581 0.071968 -0.390409
v -1.772614 -0.096890 -0.390671
v -1.925431 0.067792 -0.502036
v -1.920465 -0.101066 -0.502298
v -1.922058 -0.046899 -0.502214
v -1.923838 0.013625 -0.502120
vn -0.5939 0.2056 0.7778
vn -0.5940 0.2056 0.7777
vn -0.5711 0.3510 0.7421
vn -0.5709 0.3510 0.7422
vn -0.6034 0.0177 0.7972
vn -0.5494 -0.3862 0.7409
vn -0.5808 -0.2426 0.7771
vn -0.5807 -0.2425 0.7771
vn -0.6012 -0.0556 0.7971
vn -0.6034 0.0177 0.7973
vn 0.6027 0.0194 -0.7977
vn 0.7977 0.0229 0.6026
vn 0.7977 0.0228 0.6026
vn 0.7980 0.0228 0.6022
vn -0.7981 -0.0222 -0.6022
vn -0.7977 -0.0222 -0.6026
vn -0.0592 0.9976 0.0347
vn -0.0456 0.9988 0.0191
vn -0.0439 0.9989 0.0169
vn -0.0291 0.9996 0.0024
vn 0.0132 -0.9998 0.0160
vn -0.0005 -0.9995 0.0316
vn -0.0004 -0.9995 0.0317
vn 0.0149 -0.9998 0.0138
vn 0.0297 -0.9996 -0.0007
vn -0.7977 -0.0223 -0.6026
vt 0.625000 0.000000
vt 0.375000 0.000000
vt 0.625000 0.750000
vt 0.375000 0.750000
vt 0.625000 1.000000
vt 0.375000 1.000000
vt 0.875000 0.750000
vt 0.125000 0.750000
s 1
f 669/81/240 671/81/242 670/82/241
f 671/81/242 672/82/243 670/82/241
f 669/81/240 670/82/241 673/82/244
f 674/81/244 669/81/240 673/82/244
f 675/83/245 677/83/247 676/84/246
f 676/84/246 678/84/245 675/83/245
f 677/83/247 679/83/248 676/84/246
f 679/83/248 680/84/248 676/84/246
f 681/83/248 683/85/249 682/84/248
f 683/85/249 684/86/244 682/84/248
f 685/81/250 687/86/250 686/82/250
f 685/81/250 688/83/250 687/86/250
f 689/84/250 691/86/250 690/83/250
f 690/83/250 692/83/250 689/84/250
f 693/84/250 689/84/250 692/83/250
f 692/83/250 694/83/250 693/84/250
f 694/83/250 695/84/250 693/84/250
f 694/83/250 696/84/250 695/84/250
f 696/84/250 694/83/250 697/83/250
f 698/82/250 700/81/250 699/81/250
f 701/82/250 698/82/250 699/81/250
f 702/82/250 701/82/250 699/81/250
f 702/82/250 699/81/250 703/81/250
f 703/81/250 704/81/250 702/82/250
s 0
f 705/83/251 707/87/251 706/87/252
f 707/87/252 705/83/251 708/83/251
s 1
f 709/83/252 705/83/252 706/87/252
f 709/83/252 706/87/252 710/87/252
f 711/83/252 709/83/252 710/87/252
f 710/87/252 712/87/252 711/83/252
f 713/83/253 711/83/252 712/87/252
f 712/87/252 714/87/253 713/83/253
f 713/83/253 714/87/253 715/87/252
f 715/87/252 716/83/252 713/83/253
f 717/88/254 719/88/254 718/84/254
f 720/84/255 718/84/254 719/88/254
f 718/84/254 721/84/254 717/88/254
f 722/88/255 717/88/254 721/84/254
f 721/84/254 723/84/255 722/88/255
f 719/88/254 724/88/255 720/84/255
f 725/84/255 720/84/255 724/88/255
f 725/84/255 724/88/255 726/88/255
f 727/81/256 729/81/257 728/82/256
f 729/81/257 730/82/258 728/82/256
f 730/82/258 729/81/257 731/81/259
f 731/81/259 732/82/259 730/82/258
f 733/83/260 735/83/262 734/84/261
f 734/84/261 736/84/263 733/83/260
f 737/83/264 733/83/260 736/84/263
f 736/84/263 738/84/264 737/83/264
s 0
f 739/88/252 741/84/251 740/84/251
f 741/84/251 739/88/252 742/88/251
f 740/84/251 743/88/252 739/88/251
f 743/88/252 740/84/251 744/84/251
f 745/83/251 747/87/251 746/87/252
f 747/87/252 745/83/251 748/83/251
f 749/83/255 751/87/255 750/87/265
f 751/87/265 749/83/255 752/83/255
f 753/88/265 755/84/255 754/84/255
f 755/84/255 753/88/265 756/88/255
