# Blender 5.2.0 LTS
# www.blender.org
mtllib Karambit3.mtl
o another_boduy
v -0.491358 -0.526253 0.045091
v -0.491358 -0.485265 0.004104
v -0.491358 -0.485265 0.045091
v -0.450371 -0.567240 0.045091
v -0.409384 -0.608227 0.045091
v -0.409384 -0.567240 0.004104
v -0.409384 -0.567240 0.045091
v -0.450371 -0.526253 0.004104
v -0.450371 -0.526253 0.045091
v -0.450371 -0.485265 0.004104
v -0.450371 -0.485265 0.045091
v -0.409384 -0.526253 0.004104
v -0.409384 -0.526253 0.045091
v -0.409384 -0.485265 0.004104
v -0.409384 -0.485265 0.045091
v -0.368397 -0.608227 0.004104
v -0.368397 -0.608227 0.045091
v -0.368397 -0.567240 0.004104
v -0.368397 -0.567240 0.045091
v -0.327409 -0.608227 0.004104
v -0.327409 -0.608227 0.045091
v -0.327409 -0.567240 0.004104
v -0.327409 -0.567240 0.045091
v -0.368397 -0.526253 0.004104
v -0.368397 -0.526253 0.045091
v -0.327409 -0.526253 0.045091
v -0.286422 -0.608227 0.004104
v -0.286422 -0.608227 0.045091
v -0.286422 -0.567240 0.004104
v -0.286422 -0.567240 0.045091
v -0.245435 -0.608227 0.004104
v -0.245435 -0.608227 0.045091
v -0.245435 -0.567240 0.004104
v -0.245435 -0.567240 0.045091
v -0.245435 -0.526253 0.045091
v -0.491358 -0.444278 0.004104
v -0.491358 -0.444278 0.045091
v -0.491358 -0.403291 0.004104
v -0.491358 -0.403291 0.045091
v -0.491358 -0.362304 0.004104
v -0.491358 -0.362304 0.045091
v -0.491358 -0.321317 0.004104
v -0.491358 -0.321317 0.045091
v -0.450371 -0.444278 0.004104
v -0.450371 -0.444278 0.045091
v -0.450371 -0.403291 0.004104
v -0.450371 -0.403291 0.045091
v -0.409384 -0.444278 0.045091
v -0.450371 -0.362304 0.004104
v -0.450371 -0.362304 0.045091
v -0.450371 -0.321317 0.004104
v -0.450371 -0.321317 0.045091
v -0.409384 -0.362304 0.004104
v -0.409384 -0.362304 0.045091
v -0.409384 -0.321317 0.004104
v -0.409384 -0.321317 0.045091
v -0.450371 -0.280330 0.004104
v -0.450371 -0.280330 0.045091
v -0.409384 -0.280330 0.004104
v -0.409384 -0.280330 0.045091
v -0.409384 -0.239343 0.004104
v -0.409384 -0.239343 0.045091
v -0.368397 -0.321317 0.004104
v -0.368397 -0.321317 0.045091
v -0.368397 -0.280330 0.004104
v -0.368397 -0.280330 0.045091
v -0.368397 -0.239343 0.004104
v -0.368397 -0.239343 0.045091
v -0.327409 -0.280330 0.004104
v -0.327409 -0.280330 0.045091
v -0.327409 -0.239343 0.004104
v -0.327409 -0.239343 0.045091
v -0.327409 -0.198355 0.045091
v -0.286422 -0.280330 0.004104
v -0.286422 -0.280330 0.045091
v -0.286422 -0.239343 0.004104
v -0.286422 -0.239343 0.045091
v -0.245435 -0.280330 0.004104
v -0.245435 -0.280330 0.045091
v -0.245435 -0.239343 0.004104
v -0.245435 -0.239343 0.045091
v -0.286422 -0.198355 0.045091
v -0.245435 -0.198355 0.004104
v -0.245435 -0.198355 0.045091
v -0.245435 -0.157368 0.004104
v -0.245435 -0.157368 0.045091
v -0.491358 -0.526253 0.086079
v -0.491358 -0.485265 0.086079
v -0.491358 -0.485265 0.127066
v -0.450371 -0.567240 0.086079
v -0.409384 -0.608227 0.086079
v -0.409384 -0.567240 0.086079
v -0.409384 -0.567240 0.127066
v -0.450371 -0.526253 0.086079
v -0.450371 -0.526253 0.127066
v -0.450371 -0.485265 0.086079
v -0.450371 -0.485265 0.127066
v -0.409384 -0.526253 0.086079
v -0.409384 -0.526253 0.127066
v -0.409384 -0.485265 0.086079
v -0.409384 -0.485265 0.127066
v -0.368397 -0.608227 0.086079
v -0.368397 -0.608227 0.127066
v -0.368397 -0.567240 0.086079
v -0.368397 -0.567240 0.127066
v -0.327409 -0.608227 0.086079
v -0.327409 -0.608227 0.127066
v -0.327409 -0.567240 0.086079
v -0.327409 -0.567240 0.127066
v -0.368397 -0.526253 0.086079
v -0.368397 -0.526253 0.127066
v -0.327409 -0.526253 0.086079
v -0.286422 -0.608227 0.086079
v -0.286422 -0.608227 0.127066
v -0.286422 -0.567240 0.086079
v -0.286422 -0.567240 0.127066
v -0.245435 -0.608227 0.086079
v -0.245435 -0.608227 0.127066
v -0.245435 -0.567240 0.086079
v -0.245435 -0.567240 0.127066
v -0.245435 -0.526253 0.086079
v -0.491358 -0.444278 0.086079
v -0.491358 -0.444278 0.127066
v -0.491358 -0.403291 0.086079
v -0.491358 -0.403291 0.127066
v -0.491358 -0.362304 0.086079
v -0.491358 -0.362304 0.127066
v -0.491358 -0.321317 0.086079
v -0.491358 -0.321317 0.127066
v -0.450371 -0.444278 0.086079
v -0.450371 -0.444278 0.127066
v -0.450371 -0.403291 0.086079
v -0.450371 -0.403291 0.127066
v -0.409384 -0.444278 0.086079
v -0.450371 -0.362304 0.086079
v -0.450371 -0.362304 0.127066
v -0.450371 -0.321317 0.086079
v -0.450371 -0.321317 0.127066
v -0.409384 -0.362304 0.086079
v -0.409384 -0.362304 0.127066
v -0.409384 -0.321317 0.086079
v -0.409384 -0.321317 0.127066
v -0.450371 -0.280330 0.086079
v -0.450371 -0.280330 0.127066
v -0.409384 -0.280330 0.086079
v -0.409384 -0.280330 0.127066
v -0.409384 -0.239343 0.086079
v -0.409384 -0.239343 0.127066
v -0.368397 -0.321317 0.086079
v -0.368397 -0.321317 0.127066
v -0.368397 -0.280330 0.086079
v -0.368397 -0.280330 0.127066
v -0.368397 -0.239343 0.086079
v -0.368397 -0.239343 0.127066
v -0.327409 -0.280330 0.086079
v -0.327409 -0.280330 0.127066
v -0.327409 -0.239343 0.086079
v -0.327409 -0.239343 0.127066
v -0.327409 -0.198355 0.086079
v -0.286422 -0.280330 0.086079
v -0.286422 -0.280330 0.127066
v -0.286422 -0.239343 0.086079
v -0.286422 -0.239343 0.127066
v -0.245435 -0.280330 0.086079
v -0.245435 -0.280330 0.127066
v -0.245435 -0.239343 0.086079
v -0.245435 -0.239343 0.127066
v -0.286422 -0.198355 0.086079
v -0.245435 -0.198355 0.086079
v -0.245435 -0.198355 0.127066
v -0.245435 -0.157368 0.086079
v -0.245435 -0.157368 0.127066
v -0.245435 0.539413 0.004104
v -0.245435 0.539413 0.045091
v -0.245435 0.580400 0.004104
v -0.245435 0.580400 0.045091
v -0.245435 0.621387 0.004104
v -0.245435 0.621387 0.045091
v -0.245435 0.662374 0.004104
v -0.245435 0.662374 0.045091
v -0.245435 0.703362 0.045091
v -0.245435 0.744349 0.045091
v -0.245435 0.785336 0.045091
v -0.245435 0.826323 0.045091
v -0.245435 0.867310 0.045091
v -0.245435 0.908297 0.045091
v -0.245435 0.949284 0.045091
v -0.245435 0.990272 0.045091
v -0.327409 1.154220 0.045091
v -0.286422 1.031259 0.045091
v -0.286422 1.072246 0.045091
v -0.245435 1.031259 0.045091
v -0.245435 1.072246 0.045091
v -0.286422 1.113233 0.045091
v -0.286422 1.154220 0.045091
v -0.245435 1.113233 0.045091
v -0.245435 1.154220 0.045091
v -0.655306 1.564092 0.045091
v -0.696294 1.605079 0.045091
v -0.696294 1.646066 0.045091
v -0.655306 1.605079 0.045091
v -0.655306 1.646066 0.045091
v -0.614319 1.564092 0.045091
v -0.573332 1.523104 0.045091
v -0.573332 1.564092 0.045091
v -0.614319 1.605079 0.045091
v -0.614319 1.646066 0.045091
v -0.573332 1.605079 0.045091
v -0.573332 1.646066 0.045091
v -0.409384 1.318169 0.045091
v -0.532345 1.482117 0.045091
v -0.491358 1.441130 0.045091
v -0.491358 1.482117 0.045091
v -0.450371 1.359156 0.045091
v -0.450371 1.400143 0.045091
v -0.409384 1.359156 0.045091
v -0.409384 1.400143 0.045091
v -0.450371 1.441130 0.045091
v -0.450371 1.482117 0.045091
v -0.409384 1.441130 0.045091
v -0.409384 1.482117 0.045091
v -0.368397 1.236194 0.045091
v -0.327409 1.195207 0.045091
v -0.327409 1.236194 0.045091
v -0.368397 1.277182 0.045091
v -0.368397 1.318169 0.045091
v -0.327409 1.277182 0.045091
v -0.327409 1.318169 0.045091
v -0.286422 1.195207 0.045091
v -0.286422 1.236194 0.045091
v -0.245435 1.195207 0.045091
v -0.245435 1.236194 0.045091
v -0.286422 1.277182 0.045091
v -0.286422 1.318169 0.045091
v -0.245435 1.277182 0.045091
v -0.245435 1.318169 0.045091
v -0.368397 1.359156 0.045091
v -0.368397 1.400143 0.045091
v -0.327409 1.359156 0.045091
v -0.327409 1.400143 0.045091
v -0.368397 1.441130 0.045091
v -0.368397 1.482117 0.045091
v -0.327409 1.441130 0.045091
v -0.327409 1.482117 0.045091
v -0.286422 1.359156 0.045091
v -0.286422 1.400143 0.045091
v -0.245435 1.359156 0.045091
v -0.245435 1.400143 0.045091
v -0.286422 1.441130 0.045091
v -0.286422 1.482117 0.045091
v -0.245435 1.441130 0.045091
v -0.245435 1.482117 0.045091
v -0.532345 1.523104 0.045091
v -0.532345 1.564092 0.045091
v -0.491358 1.523104 0.045091
v -0.491358 1.564092 0.045091
v -0.532345 1.605079 0.045091
v -0.491358 1.605079 0.045091
v -0.450371 1.523104 0.045091
v -0.450371 1.564092 0.045091
v -0.409384 1.523104 0.045091
v -0.409384 1.564092 0.045091
v -0.450371 1.605079 0.045091
v -0.409384 1.605079 0.045091
v -0.368397 1.523104 0.045091
v -0.368397 1.564092 0.045091
v -0.327409 1.523104 0.045091
v -0.327409 1.564092 0.045091
v -0.286422 1.523104 0.045091
v -0.245435 1.523104 0.045091
v -0.245435 0.539413 0.086079
v -0.245435 0.539413 0.127066
v -0.245435 0.580400 0.086079
v -0.245435 0.580400 0.127066
v -0.245435 0.621387 0.086079
v -0.245435 0.621387 0.127066
v -0.245435 0.662374 0.086079
v -0.245435 0.662374 0.127066
v -0.245435 0.703362 0.086079
v -0.245435 0.744349 0.086079
v -0.245435 0.785336 0.086079
v -0.245435 0.826323 0.086079
v -0.245435 0.867310 0.086079
v -0.245435 0.908297 0.086079
v -0.245435 0.949284 0.086079
v -0.245435 0.990272 0.086079
v -0.327409 1.154220 0.086079
v -0.286422 1.031259 0.086079
v -0.286422 1.072246 0.086079
v -0.245435 1.031259 0.086079
v -0.245435 1.072246 0.086079
v -0.286422 1.113233 0.086079
v -0.286422 1.154220 0.086079
v -0.245435 1.113233 0.086079
v -0.245435 1.154220 0.086079
v -0.655306 1.564092 0.086079
v -0.696294 1.605079 0.086079
v -0.696294 1.646066 0.086079
v -0.655306 1.605079 0.086079
v -0.655306 1.646066 0.086079
v -0.614319 1.564092 0.086079
v -0.573332 1.523104 0.086079
v -0.573332 1.564092 0.086079
v -0.614319 1.605079 0.086079
v -0.614319 1.646066 0.086079
v -0.573332 1.605079 0.086079
v -0.573332 1.646066 0.086079
v -0.409384 1.318169 0.086079
v -0.532345 1.482117 0.086079
v -0.491358 1.441130 0.086079
v -0.491358 1.482117 0.086079
v -0.450371 1.359156 0.086079
v -0.450371 1.400143 0.086079
v -0.409384 1.359156 0.086079
v -0.409384 1.400143 0.086079
v -0.450371 1.441130 0.086079
v -0.450371 1.482117 0.086079
v -0.409384 1.441130 0.086079
v -0.409384 1.482117 0.086079
v -0.368397 1.236194 0.086079
v -0.327409 1.195207 0.086079
v -0.327409 1.236194 0.086079
v -0.368397 1.277182 0.086079
v -0.368397 1.318169 0.086079
v -0.327409 1.277182 0.086079
v -0.327409 1.318169 0.086079
v -0.286422 1.195207 0.086079
v -0.286422 1.236194 0.086079
v -0.245435 1.195207 0.086079
v -0.245435 1.236194 0.086079
v -0.286422 1.277182 0.086079
v -0.286422 1.318169 0.086079
v -0.245435 1.277182 0.086079
v -0.245435 1.318169 0.086079
v -0.368397 1.359156 0.086079
v -0.368397 1.400143 0.086079
v -0.327409 1.359156 0.086079
v -0.327409 1.400143 0.086079
v -0.368397 1.441130 0.086079
v -0.368397 1.482117 0.086079
v -0.327409 1.441130 0.086079
v -0.327409 1.482117 0.086079
v -0.286422 1.359156 0.086079
v -0.286422 1.400143 0.086079
v -0.245435 1.359156 0.086079
v -0.245435 1.400143 0.086079
v -0.286422 1.441130 0.086079
v -0.286422 1.482117 0.086079
v -0.245435 1.441130 0.086079
v -0.245435 1.482117 0.086079
v -0.532345 1.523104 0.086079
v -0.532345 1.564092 0.086079
v -0.491358 1.523104 0.086079
v -0.491358 1.564092 0.086079
v -0.532345 1.605079 0.086079
v -0.491358 1.605079 0.086079
v -0.450371 1.523104 0.086079
v -0.450371 1.564092 0.086079
v -0.409384 1.523104 0.086079
v -0.409384 1.564092 0.086079
v -0.450371 1.605079 0.086079
v -0.409384 1.605079 0.086079
v -0.368397 1.523104 0.086079
v -0.368397 1.564092 0.086079
v -0.327409 1.523104 0.086079
v -0.327409 1.564092 0.086079
v -0.286422 1.523104 0.086079
v -0.245435 1.523104 0.086079
v -0.204448 -0.608227 0.004104
v -0.204448 -0.608227 0.045091
v -0.204448 -0.567240 0.004104
v -0.204448 -0.567240 0.045091
v -0.163461 -0.608227 0.045091
v -0.163461 -0.567240 0.004104
v -0.163461 -0.567240 0.045091
v -0.204448 -0.526253 0.004104
v -0.204448 -0.526253 0.045091
v -0.163461 -0.526253 0.004104
v -0.163461 -0.526253 0.045091
v -0.163461 -0.485265 0.004104
v -0.163461 -0.485265 0.045091
v -0.122474 -0.567240 0.045091
v -0.122474 -0.526253 0.004104
v -0.122474 -0.526253 0.045091
v -0.122474 -0.485265 0.004104
v -0.122474 -0.485265 0.045091
v -0.081486 -0.526253 0.004104
v -0.081486 -0.526253 0.045091
v -0.081486 -0.485265 0.004104
v -0.081486 -0.485265 0.045091
v -0.040499 -0.526253 0.004104
v -0.040499 -0.526253 0.045091
v -0.040499 -0.485265 0.004104
v -0.040499 -0.485265 0.045091
v 0.000488 -0.485265 0.004104
v 0.000488 -0.485265 0.045091
v -0.163461 -0.444278 0.045091
v -0.204448 -0.321317 0.045091
v -0.163461 -0.362304 0.004104
v -0.163461 -0.362304 0.045091
v -0.163461 -0.321317 0.004104
v -0.163461 -0.321317 0.045091
v -0.122474 -0.444278 0.004104
v -0.122474 -0.444278 0.045091
v -0.122474 -0.403291 0.004104
v -0.122474 -0.403291 0.045091
v -0.081486 -0.444278 0.004104
v -0.081486 -0.403291 0.004104
v -0.122474 -0.362304 0.004104
v -0.122474 -0.362304 0.045091
v -0.122474 -0.321317 0.004104
v -0.122474 -0.321317 0.045091
v -0.081486 -0.362304 0.004104
v -0.081486 -0.362304 0.045091
v -0.081486 -0.321317 0.004104
v -0.081486 -0.321317 0.045091
v -0.204448 -0.280330 0.004104
v -0.204448 -0.280330 0.045091
v -0.204448 -0.239343 0.004104
v -0.163461 -0.280330 0.004104
v -0.163461 -0.280330 0.045091
v -0.163461 -0.239343 0.004104
v -0.204448 -0.198355 0.004104
v -0.204448 -0.157368 0.004104
v -0.204448 -0.157368 0.045091
v -0.163461 -0.198355 0.004104
v -0.163461 -0.157368 0.004104
v -0.122474 -0.280330 0.004104
v -0.122474 -0.239343 0.004104
v -0.081486 -0.280330 0.004104
v -0.081486 -0.239343 0.004104
v -0.122474 -0.198355 0.004104
v -0.122474 -0.157368 0.004104
v -0.081486 -0.198355 0.004104
v -0.081486 -0.157368 0.004104
v -0.040499 -0.444278 0.004104
v -0.040499 -0.403291 0.004104
v 0.000488 -0.444278 0.004104
v 0.000488 -0.444278 0.045091
v 0.000488 -0.403291 0.004104
v -0.040499 -0.362304 0.004104
v -0.040499 -0.321317 0.004104
v 0.000488 -0.362304 0.004104
v 0.000488 -0.321317 0.004104
v 0.041475 -0.444278 0.004104
v 0.041475 -0.444278 0.045091
v 0.041475 -0.403291 0.004104
v 0.041475 -0.403291 0.045091
v 0.041475 -0.362304 0.004104
v 0.041475 -0.362304 0.045091
v 0.041475 -0.321317 0.004104
v 0.082462 -0.362304 0.004104
v 0.082462 -0.362304 0.045091
v 0.082462 -0.321317 0.004104
v 0.082462 -0.321317 0.045091
v -0.040499 -0.280330 0.004104
v -0.040499 -0.239343 0.004104
v 0.000488 -0.280330 0.004104
v 0.000488 -0.239343 0.004104
v -0.040499 -0.198355 0.004104
v -0.040499 -0.157368 0.004104
v 0.000488 -0.198355 0.004104
v 0.000488 -0.157368 0.004104
v 0.041475 -0.280330 0.004104
v 0.041475 -0.239343 0.004104
v 0.082462 -0.280330 0.004104
v 0.082462 -0.280330 0.045091
v 0.082462 -0.239343 0.004104
v 0.041475 -0.198355 0.004104
v 0.041475 -0.157368 0.004104
v 0.082462 -0.198355 0.004104
v 0.082462 -0.157368 0.004104
v 0.123449 -0.280330 0.004104
v 0.123449 -0.280330 0.045091
v 0.123449 -0.239343 0.004104
v 0.123449 -0.239343 0.045091
v 0.123449 -0.198355 0.004104
v 0.123449 -0.198355 0.045091
v 0.123449 -0.157368 0.004104
v 0.123449 -0.157368 0.045091
v 0.164436 -0.157368 0.004104
v 0.164436 -0.157368 0.045091
v -0.204448 -0.116381 0.004104
v -0.204448 -0.116381 0.045091
v -0.204448 -0.075394 0.004104
v -0.204448 -0.075394 0.045091
v -0.163461 -0.116381 0.004104
v -0.163461 -0.075394 0.004104
v -0.204448 -0.034407 0.004104
v -0.204448 -0.034407 0.045091
v -0.204448 0.006580 0.004104
v -0.204448 0.006580 0.045091
v -0.163461 -0.034407 0.004104
v -0.163461 0.006580 0.004104
v -0.122474 -0.116381 0.004104
v -0.122474 -0.075394 0.004104
v -0.081486 -0.116381 0.004104
v -0.081486 -0.075394 0.004104
v -0.122474 -0.034407 0.004104
v -0.122474 0.006580 0.004104
v -0.081486 -0.034407 0.004104
v -0.081486 0.006580 0.004104
v -0.204448 0.047567 0.004104
v -0.204448 0.047567 0.045091
v -0.163461 0.047567 0.004104
v -0.163461 0.047567 0.045091
v -0.163461 0.088555 0.004104
v -0.163461 0.088555 0.045091
v -0.122474 0.047567 0.004104
v -0.122474 0.088555 0.004104
v -0.122474 0.088555 0.045091
v -0.081486 0.047567 0.004104
v -0.081486 0.088555 0.004104
v -0.122474 0.129542 0.004104
v -0.122474 0.129542 0.045091
v -0.122474 0.170529 0.004104
v -0.122474 0.170529 0.045091
v -0.081486 0.129542 0.004104
v -0.081486 0.129542 0.045091
v -0.081486 0.170529 0.004104
v -0.081486 0.170529 0.045091
v -0.040499 -0.116381 0.004104
v -0.040499 -0.075394 0.004104
v 0.000488 -0.116381 0.004104
v 0.000488 -0.075394 0.004104
v -0.040499 -0.034407 0.004104
v -0.040499 0.006580 0.004104
v 0.000488 -0.034407 0.004104
v 0.000488 0.006580 0.004104
v 0.041475 -0.116381 0.004104
v 0.041475 -0.075394 0.004104
v 0.082462 -0.116381 0.004104
v 0.082462 -0.075394 0.004104
v 0.041475 -0.034407 0.004104
v 0.041475 0.006580 0.004104
v 0.082462 -0.034407 0.004104
v 0.082462 0.006580 0.004104
v -0.040499 0.047567 0.004104
v -0.040499 0.088555 0.004104
v 0.000488 0.047567 0.004104
v 0.000488 0.088555 0.004104
v -0.040499 0.129542 0.004104
v -0.040499 0.170529 0.004104
v 0.000488 0.129542 0.004104
v 0.000488 0.170529 0.004104
v 0.041475 0.047567 0.004104
v 0.041475 0.088555 0.004104
v 0.082462 0.047567 0.004104
v 0.082462 0.088555 0.004104
v 0.041475 0.129542 0.004104
v 0.041475 0.170529 0.004104
v 0.082462 0.129542 0.004104
v 0.082462 0.170529 0.004104
v -0.122474 0.211516 0.004104
v -0.122474 0.211516 0.045091
v -0.122474 0.252503 0.004104
v -0.122474 0.252503 0.045091
v -0.081486 0.211516 0.004104
v -0.081486 0.252503 0.004104
v -0.122474 0.293490 0.004104
v -0.122474 0.293490 0.045091
v -0.081486 0.293490 0.004104
v -0.081486 0.293490 0.045091
v -0.081486 0.334477 0.004104
v -0.081486 0.334477 0.045091
v -0.163461 0.498426 0.004104
v -0.163461 0.498426 0.045091
v -0.122474 0.498426 0.004104
v -0.122474 0.498426 0.045091
v -0.081486 0.457439 0.004104
v -0.081486 0.457439 0.045091
v -0.081486 0.498426 0.004104
v -0.081486 0.498426 0.045091
v -0.040499 0.211516 0.004104
v -0.040499 0.252503 0.004104
v 0.000488 0.211516 0.004104
v 0.000488 0.252503 0.004104
v -0.040499 0.293490 0.004104
v -0.040499 0.334477 0.004104
v -0.040499 0.334477 0.045091
v 0.000488 0.293490 0.004104
v 0.000488 0.334477 0.004104
v 0.041475 0.211516 0.004104
v 0.041475 0.252503 0.004104
v 0.082462 0.211516 0.004104
v 0.082462 0.252503 0.004104
v 0.041475 0.293490 0.004104
v 0.041475 0.334477 0.004104
v 0.082462 0.293490 0.004104
v 0.082462 0.334477 0.004104
v -0.040499 0.375464 0.004104
v -0.040499 0.375464 0.045091
v -0.040499 0.416452 0.004104
v -0.040499 0.416452 0.045091
v 0.000488 0.375464 0.004104
v 0.000488 0.416452 0.004104
v -0.040499 0.457439 0.004104
v -0.040499 0.457439 0.045091
v -0.040499 0.498426 0.004104
v 0.000488 0.457439 0.004104
v 0.000488 0.498426 0.004104
v 0.041475 0.375464 0.004104
v 0.041475 0.416452 0.004104
v 0.082462 0.375464 0.004104
v 0.082462 0.416452 0.004104
v 0.041475 0.457439 0.004104
v 0.041475 0.498426 0.004104
v 0.082462 0.457439 0.004104
v 0.082462 0.498426 0.004104
v 0.123449 -0.116381 0.004104
v 0.123449 -0.075394 0.004104
v 0.164436 -0.116381 0.004104
v 0.164436 -0.116381 0.045091
v 0.164436 -0.075394 0.004104
v 0.164436 -0.075394 0.045091
v 0.123449 -0.034407 0.004104
v 0.123449 0.006580 0.004104
v 0.164436 -0.034407 0.004104
v 0.164436 -0.034407 0.045091
v 0.164436 0.006580 0.004104
v 0.205423 -0.034407 0.004104
v 0.205423 -0.034407 0.045091
v 0.205423 0.006580 0.004104
v 0.205423 0.006580 0.045091
v 0.123449 0.047567 0.004104
v 0.123449 0.088555 0.004104
v 0.164436 0.047567 0.004104
v 0.164436 0.088555 0.004104
v 0.123449 0.129542 0.004104
v 0.123449 0.170529 0.004104
v 0.164436 0.129542 0.004104
v 0.164436 0.170529 0.004104
v 0.205423 0.047567 0.004104
v 0.205423 0.047567 0.045091
v 0.205423 0.088555 0.004104
v 0.205423 0.088555 0.045091
v 0.205423 0.129542 0.004104
v 0.205423 0.129542 0.045091
v 0.205423 0.170529 0.004104
v 0.246411 0.129542 0.004104
v 0.246411 0.129542 0.045091
v 0.246411 0.170529 0.004104
v 0.246411 0.170529 0.045091
v 0.123449 0.211516 0.004104
v 0.123449 0.252503 0.004104
v 0.164436 0.211516 0.004104
v 0.164436 0.252503 0.004104
v 0.123449 0.293490 0.004104
v 0.123449 0.334477 0.004104
v 0.164436 0.293490 0.004104
v 0.164436 0.334477 0.004104
v 0.205423 0.211516 0.004104
v 0.205423 0.252503 0.004104
v 0.246411 0.211516 0.004104
v 0.246411 0.211516 0.045091
v 0.246411 0.252503 0.004104
v 0.246411 0.252503 0.045091
v 0.205423 0.293490 0.004104
v 0.205423 0.334477 0.004104
v 0.246411 0.293490 0.004104
v 0.246411 0.293490 0.045091
v 0.246411 0.334477 0.004104
v 0.246411 0.334477 0.045091
v 0.123449 0.375464 0.004104
v 0.123449 0.416452 0.004104
v 0.164436 0.375464 0.004104
v 0.164436 0.416452 0.004104
v 0.123449 0.457439 0.004104
v 0.123449 0.498426 0.004104
v 0.164436 0.457439 0.004104
v 0.164436 0.498426 0.004104
v 0.205423 0.375464 0.004104
v 0.205423 0.416452 0.004104
v 0.246411 0.375464 0.004104
v 0.246411 0.375464 0.045091
v 0.246411 0.416452 0.004104
v 0.246411 0.416452 0.045091
v 0.205423 0.457439 0.004104
v 0.205423 0.457439 0.045091
v 0.205423 0.498426 0.004104
v 0.205423 0.498426 0.045091
v 0.246411 0.457439 0.004104
v 0.246411 0.457439 0.045091
v -0.204448 -0.608227 0.086079
v -0.204448 -0.608227 0.127066
v -0.204448 -0.567240 0.086079
v -0.204448 -0.567240 0.127066
v -0.163461 -0.608227 0.086079
v -0.163461 -0.567240 0.086079
v -0.163461 -0.567240 0.127066
v -0.204448 -0.526253 0.086079
v -0.204448 -0.526253 0.127066
v -0.163461 -0.526253 0.086079
v -0.163461 -0.526253 0.127066
v -0.163461 -0.485265 0.086079
v -0.163461 -0.485265 0.127066
v -0.122474 -0.567240 0.086079
v -0.122474 -0.526253 0.086079
v -0.122474 -0.526253 0.127066
v -0.122474 -0.485265 0.086079
v -0.122474 -0.485265 0.127066
v -0.081486 -0.526253 0.086079
v -0.081486 -0.526253 0.127066
v -0.081486 -0.485265 0.086079
v -0.081486 -0.485265 0.127066
v -0.040499 -0.526253 0.086079
v -0.040499 -0.526253 0.127066
v -0.040499 -0.485265 0.086079
v -0.040499 -0.485265 0.127066
v 0.000488 -0.485265 0.086079
v 0.000488 -0.485265 0.127066
v -0.163461 -0.444278 0.086079
v -0.204448 -0.321317 0.086079
v -0.163461 -0.362304 0.086079
v -0.163461 -0.362304 0.127066
v -0.163461 -0.321317 0.086079
v -0.163461 -0.321317 0.127066
v -0.122474 -0.444278 0.086079
v -0.122474 -0.444278 0.127066
v -0.122474 -0.403291 0.086079
v -0.122474 -0.403291 0.127066
v -0.081486 -0.444278 0.127066
v -0.081486 -0.403291 0.127066
v -0.122474 -0.362304 0.086079
v -0.122474 -0.362304 0.127066
v -0.122474 -0.321317 0.086079
v -0.122474 -0.321317 0.127066
v -0.081486 -0.362304 0.086079
v -0.081486 -0.362304 0.127066
v -0.081486 -0.321317 0.086079
v -0.081486 -0.321317 0.127066
v -0.204448 -0.280330 0.086079
v -0.204448 -0.280330 0.127066
v -0.204448 -0.239343 0.127066
v -0.163461 -0.280330 0.086079
v -0.163461 -0.280330 0.127066
v -0.163461 -0.239343 0.127066
v -0.204448 -0.198355 0.127066
v -0.204448 -0.157368 0.086079
v -0.204448 -0.157368 0.127066
v -0.163461 -0.198355 0.127066
v -0.163461 -0.157368 0.127066
v -0.122474 -0.280330 0.127066
v -0.122474 -0.239343 0.127066
v -0.081486 -0.280330 0.127066
v -0.081486 -0.239343 0.127066
v -0.122474 -0.198355 0.127066
v -0.122474 -0.157368 0.127066
v -0.081486 -0.198355 0.127066
v -0.081486 -0.157368 0.127066
v -0.040499 -0.444278 0.127066
v -0.040499 -0.403291 0.127066
v 0.000488 -0.444278 0.086079
v 0.000488 -0.444278 0.127066
v 0.000488 -0.403291 0.127066
v -0.040499 -0.362304 0.127066
v -0.040499 -0.321317 0.127066
v 0.000488 -0.362304 0.127066
v 0.000488 -0.321317 0.127066
v 0.041475 -0.444278 0.086079
v 0.041475 -0.444278 0.127066
v 0.041475 -0.403291 0.086079
v 0.041475 -0.403291 0.127066
v 0.041475 -0.362304 0.086079
v 0.041475 -0.362304 0.127066
v 0.041475 -0.321317 0.127066
v 0.082462 -0.362304 0.086079
v 0.082462 -0.362304 0.127066
v 0.082462 -0.321317 0.086079
v 0.082462 -0.321317 0.127066
v -0.040499 -0.280330 0.127066
v -0.040499 -0.239343 0.127066
v 0.000488 -0.280330 0.127066
v 0.000488 -0.239343 0.127066
v -0.040499 -0.198355 0.127066
v -0.040499 -0.157368 0.127066
v 0.000488 -0.198355 0.127066
v 0.000488 -0.157368 0.127066
v 0.041475 -0.280330 0.127066
v 0.041475 -0.239343 0.127066
v 0.082462 -0.280330 0.086079
v 0.082462 -0.280330 0.127066
v 0.082462 -0.239343 0.127066
v 0.041475 -0.198355 0.127066
v 0.041475 -0.157368 0.127066
v 0.082462 -0.198355 0.127066
v 0.082462 -0.157368 0.127066
v 0.123449 -0.280330 0.086079
v 0.123449 -0.280330 0.127066
v 0.123449 -0.239343 0.086079
v 0.123449 -0.239343 0.127066
v 0.123449 -0.198355 0.086079
v 0.123449 -0.198355 0.127066
v 0.123449 -0.157368 0.086079
v 0.123449 -0.157368 0.127066
v 0.164436 -0.157368 0.086079
v 0.164436 -0.157368 0.127066
v -0.204448 -0.116381 0.086079
v -0.204448 -0.116381 0.127066
v -0.204448 -0.075394 0.086079
v -0.204448 -0.075394 0.127066
v -0.163461 -0.116381 0.127066
v -0.163461 -0.075394 0.127066
v -0.204448 -0.034407 0.086079
v -0.204448 -0.034407 0.127066
v -0.204448 0.006580 0.086079
v -0.204448 0.006580 0.127066
v -0.163461 -0.034407 0.127066
v -0.163461 0.006580 0.127066
v -0.122474 -0.116381 0.127066
v -0.122474 -0.075394 0.127066
v -0.081486 -0.116381 0.127066
v -0.081486 -0.075394 0.127066
v -0.122474 -0.034407 0.127066
v -0.122474 0.006580 0.127066
v -0.081486 -0.034407 0.127066
v -0.081486 0.006580 0.127066
v -0.204448 0.047567 0.086079
v -0.204448 0.047567 0.127066
v -0.163461 0.047567 0.086079
v -0.163461 0.047567 0.127066
v -0.163461 0.088555 0.086079
v -0.163461 0.088555 0.127066
v -0.122474 0.047567 0.127066
v -0.122474 0.088555 0.086079
v -0.122474 0.088555 0.127066
v -0.081486 0.047567 0.127066
v -0.081486 0.088555 0.127066
v -0.122474 0.129542 0.086079
v -0.122474 0.129542 0.127066
v -0.122474 0.170529 0.086079
v -0.122474 0.170529 0.127066
v -0.081486 0.129542 0.086079
v -0.081486 0.129542 0.127066
v -0.081486 0.170529 0.086079
v -0.081486 0.170529 0.127066
v -0.040499 -0.116381 0.127066
v -0.040499 -0.075394 0.127066
v 0.000488 -0.116381 0.127066
v 0.000488 -0.075394 0.127066
v -0.040499 -0.034407 0.127066
v -0.040499 0.006580 0.127066
v 0.000488 -0.034407 0.127066
v 0.000488 0.006580 0.127066
v 0.041475 -0.116381 0.127066
v 0.041475 -0.075394 0.127066
v 0.082462 -0.116381 0.127066
v 0.082462 -0.075394 0.127066
v 0.041475 -0.034407 0.127066
v 0.041475 0.006580 0.127066
v 0.082462 -0.034407 0.127066
v 0.082462 0.006580 0.127066
v -0.040499 0.047567 0.127066
v -0.040499 0.088555 0.127066
v 0.000488 0.047567 0.127066
v 0.000488 0.088555 0.127066
v -0.040499 0.129542 0.127066
v -0.040499 0.170529 0.127066
v 0.000488 0.129542 0.127066
v 0.000488 0.170529 0.127066
v 0.041475 0.047567 0.127066
v 0.041475 0.088555 0.127066
v 0.082462 0.047567 0.127066
v 0.082462 0.088555 0.127066
v 0.041475 0.129542 0.127066
v 0.041475 0.170529 0.127066
v 0.082462 0.129542 0.127066
v 0.082462 0.170529 0.127066
v -0.122474 0.211516 0.086079
v -0.122474 0.211516 0.127066
v -0.122474 0.252503 0.086079
v -0.122474 0.252503 0.127066
v -0.081486 0.211516 0.127066
v -0.081486 0.252503 0.127066
v -0.122474 0.293490 0.086079
v -0.122474 0.293490 0.127066
v -0.081486 0.293490 0.086079
v -0.081486 0.293490 0.127066
v -0.081486 0.334477 0.086079
v -0.081486 0.334477 0.127066
v -0.163461 0.498426 0.086079
v -0.163461 0.498426 0.127066
v -0.122474 0.498426 0.086079
v -0.122474 0.498426 0.127066
v -0.081486 0.457439 0.086079
v -0.081486 0.457439 0.127066
v -0.081486 0.498426 0.086079
v -0.081486 0.498426 0.127066
v -0.040499 0.211516 0.127066
v -0.040499 0.252503 0.127066
v 0.000488 0.211516 0.127066
v 0.000488 0.252503 0.127066
v -0.040499 0.293490 0.127066
v -0.040499 0.334477 0.086079
v -0.040499 0.334477 0.127066
v 0.000488 0.293490 0.127066
v 0.000488 0.334477 0.127066
v 0.041475 0.211516 0.127066
v 0.041475 0.252503 0.127066
v 0.082462 0.211516 0.127066
v 0.082462 0.252503 0.127066
v 0.041475 0.293490 0.127066
v 0.041475 0.334477 0.127066
v 0.082462 0.293490 0.127066
v 0.082462 0.334477 0.127066
v -0.040499 0.375464 0.086079
v -0.040499 0.375464 0.127066
v -0.040499 0.416452 0.086079
v -0.040499 0.416452 0.127066
v 0.000488 0.375464 0.127066
v 0.000488 0.416452 0.127066
v -0.040499 0.457439 0.086079
v -0.040499 0.457439 0.127066
v -0.040499 0.498426 0.127066
v 0.000488 0.457439 0.127066
v 0.000488 0.498426 0.127066
v 0.041475 0.375464 0.127066
v 0.041475 0.416452 0.127066
v 0.082462 0.375464 0.127066
v 0.082462 0.416452 0.127066
v 0.041475 0.457439 0.127066
v 0.041475 0.498426 0.127066
v 0.082462 0.457439 0.127066
v 0.082462 0.498426 0.127066
v 0.123449 -0.116381 0.127066
v 0.123449 -0.075394 0.127066
v 0.164436 -0.116381 0.086079
v 0.164436 -0.116381 0.127066
v 0.164436 -0.075394 0.086079
v 0.164436 -0.075394 0.127066
v 0.123449 -0.034407 0.127066
v 0.123449 0.006580 0.127066
v 0.164436 -0.034407 0.086079
v 0.164436 -0.034407 0.127066
v 0.164436 0.006580 0.127066
v 0.205423 -0.034407 0.086079
v 0.205423 -0.034407 0.127066
v 0.205423 0.006580 0.086079
v 0.205423 0.006580 0.127066
v 0.123449 0.047567 0.127066
v 0.123449 0.088555 0.127066
v 0.164436 0.047567 0.127066
v 0.164436 0.088555 0.127066
v 0.123449 0.129542 0.127066
v 0.123449 0.170529 0.127066
v 0.164436 0.129542 0.127066
v 0.164436 0.170529 0.127066
v 0.205423 0.047567 0.086079
v 0.205423 0.047567 0.127066
v 0.205423 0.088555 0.086079
v 0.205423 0.088555 0.127066
v 0.205423 0.129542 0.086079
v 0.205423 0.129542 0.127066
v 0.205423 0.170529 0.127066
v 0.246411 0.129542 0.086079
v 0.246411 0.129542 0.127066
v 0.246411 0.170529 0.086079
v 0.246411 0.170529 0.127066
v 0.123449 0.211516 0.127066
v 0.123449 0.252503 0.127066
v 0.164436 0.211516 0.127066
v 0.164436 0.252503 0.127066
v 0.123449 0.293490 0.127066
v 0.123449 0.334477 0.127066
v 0.164436 0.293490 0.127066
v 0.164436 0.334477 0.127066
v 0.205423 0.211516 0.127066
v 0.205423 0.252503 0.127066
v 0.246411 0.211516 0.086079
v 0.246411 0.211516 0.127066
v 0.246411 0.252503 0.086079
v 0.246411 0.252503 0.127066
v 0.205423 0.293490 0.127066
v 0.205423 0.334477 0.127066
v 0.246411 0.293490 0.086079
v 0.246411 0.293490 0.127066
v 0.246411 0.334477 0.086079
v 0.246411 0.334477 0.127066
v 0.123449 0.375464 0.127066
v 0.123449 0.416452 0.127066
v 0.164436 0.375464 0.127066
v 0.164436 0.416452 0.127066
v 0.123449 0.457439 0.127066
v 0.123449 0.498426 0.127066
v 0.164436 0.457439 0.127066
v 0.164436 0.498426 0.127066
v 0.205423 0.375464 0.127066
v 0.205423 0.416452 0.127066
v 0.246411 0.375464 0.086079
v 0.246411 0.375464 0.127066
v 0.246411 0.416452 0.086079
v 0.246411 0.416452 0.127066
v 0.205423 0.457439 0.086079
v 0.205423 0.457439 0.127066
v 0.205423 0.498426 0.086079
v 0.205423 0.498426 0.127066
v 0.246411 0.457439 0.086079
v 0.246411 0.457439 0.127066
v -0.204448 0.539413 0.004104
v -0.204448 0.539413 0.045091
v -0.204448 0.580400 0.004104
v -0.163461 0.539413 0.004104
v -0.163461 0.539413 0.045091
v -0.163461 0.580400 0.004104
v -0.204448 0.621387 0.004104
v -0.204448 0.662374 0.004104
v -0.204448 0.662374 0.045091
v -0.163461 0.621387 0.004104
v -0.163461 0.662374 0.004104
v -0.163461 0.662374 0.045091
v -0.122474 0.539413 0.004104
v -0.122474 0.580400 0.004104
v -0.081486 0.539413 0.004104
v -0.081486 0.580400 0.004104
v -0.122474 0.621387 0.004104
v -0.122474 0.662374 0.004104
v -0.122474 0.662374 0.045091
v -0.081486 0.621387 0.004104
v -0.081486 0.662374 0.004104
v -0.081486 0.662374 0.045091
v -0.204448 0.703362 0.045091
v -0.204448 0.744349 0.045091
v -0.163461 0.703362 0.045091
v -0.163461 0.744349 0.045091
v -0.204448 0.785336 0.045091
v -0.204448 0.826323 0.045091
v -0.163461 0.785336 0.045091
v -0.163461 0.826323 0.045091
v -0.122474 0.703362 0.004104
v -0.122474 0.703362 0.045091
v -0.122474 0.744349 0.045091
v -0.081486 0.703362 0.004104
v -0.081486 0.703362 0.045091
v -0.081486 0.744349 0.045091
v -0.122474 0.785336 0.045091
v -0.122474 0.826323 0.045091
v -0.081486 0.785336 0.045091
v -0.081486 0.826323 0.045091
v -0.040499 0.539413 0.004104
v -0.040499 0.580400 0.004104
v 0.000488 0.539413 0.004104
v 0.000488 0.580400 0.004104
v -0.040499 0.621387 0.004104
v -0.040499 0.662374 0.004104
v -0.040499 0.662374 0.045091
v 0.000488 0.621387 0.004104
v 0.000488 0.662374 0.004104
v 0.000488 0.662374 0.045091
v 0.041475 0.539413 0.004104
v 0.041475 0.580400 0.004104
v 0.082462 0.539413 0.004104
v 0.082462 0.580400 0.004104
v 0.041475 0.621387 0.004104
v 0.041475 0.662374 0.004104
v 0.041475 0.662374 0.045091
v 0.082462 0.621387 0.004104
v 0.082462 0.662374 0.004104
v 0.082462 0.662374 0.045091
v -0.040499 0.703362 0.004104
v -0.040499 0.703362 0.045091
v -0.040499 0.744349 0.004104
v -0.040499 0.744349 0.045091
v 0.000488 0.703362 0.004104
v 0.000488 0.703362 0.045091
v 0.000488 0.744349 0.004104
v 0.000488 0.744349 0.045091
v -0.040499 0.785336 0.045091
v -0.040499 0.826323 0.045091
v 0.000488 0.785336 0.004104
v 0.000488 0.785336 0.045091
v 0.000488 0.826323 0.045091
v 0.041475 0.703362 0.004104
v 0.041475 0.703362 0.045091
v 0.041475 0.744349 0.004104
v 0.041475 0.744349 0.045091
v 0.082462 0.703362 0.004104
v 0.082462 0.703362 0.045091
v 0.082462 0.744349 0.004104
v 0.082462 0.744349 0.045091
v 0.041475 0.785336 0.004104
v 0.041475 0.785336 0.045091
v 0.041475 0.826323 0.004104
v 0.041475 0.826323 0.045091
v 0.082462 0.785336 0.004104
v 0.082462 0.785336 0.045091
v 0.082462 0.826323 0.004104
v 0.082462 0.826323 0.045091
v -0.204448 0.867310 0.045091
v -0.204448 0.908297 0.045091
v -0.163461 0.867310 0.045091
v -0.163461 0.908297 0.045091
v -0.204448 0.949284 0.045091
v -0.204448 0.990272 0.045091
v -0.163461 0.949284 0.045091
v -0.163461 0.990272 0.045091
v -0.122474 0.867310 0.045091
v -0.122474 0.908297 0.045091
v -0.081486 0.867310 0.045091
v -0.081486 0.908297 0.045091
v -0.122474 0.949284 0.045091
v -0.122474 0.990272 0.045091
v -0.081486 0.949284 0.045091
v -0.081486 0.990272 0.045091
v -0.204448 1.031259 0.045091
v -0.204448 1.072246 0.045091
v -0.163461 1.031259 0.045091
v -0.163461 1.072246 0.045091
v -0.204448 1.113233 0.045091
v -0.204448 1.154220 0.045091
v -0.163461 1.113233 0.045091
v -0.163461 1.154220 0.045091
v -0.122474 1.031259 0.045091
v -0.122474 1.072246 0.045091
v -0.081486 1.031259 0.045091
v -0.081486 1.072246 0.045091
v -0.122474 1.113233 0.045091
v -0.122474 1.154220 0.045091
v -0.081486 1.113233 0.045091
v -0.081486 1.154220 0.045091
v -0.040499 0.867310 0.045091
v -0.040499 0.908297 0.045091
v 0.000488 0.867310 0.045091
v 0.000488 0.908297 0.045091
v -0.040499 0.949284 0.045091
v -0.040499 0.990272 0.045091
v 0.000488 0.949284 0.045091
v 0.000488 0.990272 0.045091
v 0.041475 0.867310 0.045091
v 0.041475 0.908297 0.045091
v 0.082462 0.867310 0.045091
v 0.082462 0.908297 0.045091
v 0.041475 0.949284 0.045091
v 0.041475 0.990272 0.045091
v 0.082462 0.949284 0.045091
v 0.082462 0.990272 0.045091
v -0.040499 1.031259 0.045091
v -0.040499 1.072246 0.045091
v 0.000488 1.031259 0.045091
v 0.000488 1.072246 0.045091
v -0.040499 1.113233 0.045091
v -0.040499 1.154220 0.045091
v 0.000488 1.113233 0.045091
v 0.000488 1.154220 0.045091
v 0.041475 1.031259 0.045091
v 0.041475 1.072246 0.045091
v 0.082462 1.031259 0.045091
v 0.082462 1.072246 0.045091
v 0.041475 1.113233 0.045091
v 0.041475 1.154220 0.045091
v 0.082462 1.113233 0.045091
v 0.082462 1.154220 0.045091
v 0.123449 0.539413 0.004104
v 0.123449 0.580400 0.004104
v 0.164436 0.539413 0.004104
v 0.164436 0.580400 0.004104
v 0.123449 0.621387 0.004104
v 0.123449 0.662374 0.004104
v 0.123449 0.662374 0.045091
v 0.164436 0.621387 0.004104
v 0.164436 0.662374 0.004104
v 0.205423 0.539413 0.004104
v 0.205423 0.539413 0.045091
v 0.205423 0.580400 0.004104
v 0.246411 0.539413 0.004104
v 0.246411 0.539413 0.045091
v 0.246411 0.580400 0.004104
v 0.246411 0.580400 0.045091
v 0.205423 0.621387 0.004104
v 0.205423 0.662374 0.004104
v 0.246411 0.621387 0.004104
v 0.246411 0.621387 0.045091
v 0.246411 0.662374 0.004104
v 0.246411 0.662374 0.045091
v 0.123449 0.703362 0.004104
v 0.123449 0.703362 0.045091
v 0.123449 0.744349 0.004104
v 0.123449 0.744349 0.045091
v 0.164436 0.703362 0.004104
v 0.164436 0.703362 0.045091
v 0.164436 0.744349 0.004104
v 0.164436 0.744349 0.045091
v 0.123449 0.785336 0.004104
v 0.123449 0.785336 0.045091
v 0.123449 0.826323 0.004104
v 0.123449 0.826323 0.045091
v 0.164436 0.785336 0.004104
v 0.164436 0.785336 0.045091
v 0.164436 0.826323 0.004104
v 0.164436 0.826323 0.045091
v 0.205423 0.703362 0.004104
v 0.205423 0.703362 0.045091
v 0.205423 0.744349 0.004104
v 0.205423 0.744349 0.045091
v 0.246411 0.703362 0.004104
v 0.246411 0.703362 0.045091
v 0.246411 0.744349 0.004104
v 0.246411 0.744349 0.045091
v 0.205423 0.785336 0.004104
v 0.205423 0.785336 0.045091
v 0.205423 0.826323 0.045091
v 0.246411 0.785336 0.004104
v 0.246411 0.785336 0.045091
v 0.287398 0.662374 0.004104
v 0.287398 0.662374 0.045091
v 0.287398 0.703362 0.004104
v 0.287398 0.703362 0.045091
v 0.287398 0.744349 0.004104
v 0.287398 0.744349 0.045091
v 0.123449 0.867310 0.045091
v 0.123449 0.908297 0.045091
v 0.164436 0.867310 0.045091
v 0.164436 0.908297 0.045091
v 0.123449 0.949284 0.045091
v 0.123449 0.990272 0.045091
v 0.164436 0.949284 0.045091
v 0.164436 0.990272 0.045091
v 0.205423 0.867310 0.045091
v 0.205423 0.908297 0.045091
v 0.205423 0.949284 0.045091
v 0.123449 1.031259 0.045091
v 0.123449 1.072246 0.045091
v 0.164436 1.031259 0.045091
v 0.164436 1.072246 0.045091
v 0.123449 1.113233 0.045091
v 0.123449 1.154220 0.045091
v -0.204448 1.195207 0.045091
v -0.204448 1.236194 0.045091
v -0.163461 1.195207 0.045091
v -0.163461 1.236194 0.045091
v -0.204448 1.277182 0.045091
v -0.204448 1.318169 0.045091
v -0.163461 1.277182 0.045091
v -0.163461 1.318169 0.045091
v -0.122474 1.195207 0.045091
v -0.122474 1.236194 0.045091
v -0.081486 1.195207 0.045091
v -0.081486 1.236194 0.045091
v -0.122474 1.277182 0.045091
v -0.122474 1.318169 0.045091
v -0.081486 1.277182 0.045091
v -0.081486 1.318169 0.045091
v -0.204448 1.359156 0.045091
v -0.204448 1.400143 0.045091
v -0.163461 1.359156 0.045091
v -0.163461 1.400143 0.045091
v -0.204448 1.441130 0.045091
v -0.204448 1.482117 0.045091
v -0.163461 1.441130 0.045091
v -0.122474 1.359156 0.045091
v -0.122474 1.400143 0.045091
v -0.081486 1.359156 0.045091
v -0.081486 1.400143 0.045091
v -0.122474 1.441130 0.045091
v -0.040499 1.195207 0.045091
v -0.040499 1.236194 0.045091
v 0.000488 1.195207 0.045091
v 0.000488 1.236194 0.045091
v -0.040499 1.277182 0.045091
v -0.040499 1.318169 0.045091
v 0.000488 1.277182 0.045091
v 0.000488 1.318169 0.045091
v 0.041475 1.195207 0.045091
v 0.041475 1.236194 0.045091
v 0.082462 1.195207 0.045091
v 0.041475 1.277182 0.045091
v -0.040499 1.359156 0.045091
v -0.204448 0.539413 0.086079
v -0.204448 0.539413 0.127066
v -0.204448 0.580400 0.127066
v -0.163461 0.539413 0.086079
v -0.163461 0.539413 0.127066
v -0.163461 0.580400 0.127066
v -0.204448 0.621387 0.127066
v -0.204448 0.662374 0.086079
v -0.204448 0.662374 0.127066
v -0.163461 0.621387 0.127066
v -0.163461 0.662374 0.086079
v -0.163461 0.662374 0.127066
v -0.122474 0.539413 0.127066
v -0.122474 0.580400 0.127066
v -0.081486 0.539413 0.127066
v -0.081486 0.580400 0.127066
v -0.122474 0.621387 0.127066
v -0.122474 0.662374 0.086079
v -0.122474 0.662374 0.127066
v -0.081486 0.621387 0.127066
v -0.081486 0.662374 0.086079
v -0.081486 0.662374 0.127066
v -0.204448 0.703362 0.086079
v -0.204448 0.744349 0.086079
v -0.163461 0.703362 0.086079
v -0.163461 0.744349 0.086079
v -0.204448 0.785336 0.086079
v -0.204448 0.826323 0.086079
v -0.163461 0.785336 0.086079
v -0.163461 0.826323 0.086079
v -0.122474 0.703362 0.086079
v -0.122474 0.703362 0.127066
v -0.122474 0.744349 0.086079
v -0.081486 0.703362 0.086079
v -0.081486 0.703362 0.127066
v -0.081486 0.744349 0.086079
v -0.122474 0.785336 0.086079
v -0.122474 0.826323 0.086079
v -0.081486 0.785336 0.086079
v -0.081486 0.826323 0.086079
v -0.040499 0.539413 0.127066
v -0.040499 0.580400 0.127066
v 0.000488 0.539413 0.127066
v 0.000488 0.580400 0.127066
v -0.040499 0.621387 0.127066
v -0.040499 0.662374 0.086079
v -0.040499 0.662374 0.127066
v 0.000488 0.621387 0.127066
v 0.000488 0.662374 0.086079
v 0.000488 0.662374 0.127066
v 0.041475 0.539413 0.127066
v 0.041475 0.580400 0.127066
v 0.082462 0.539413 0.127066
v 0.082462 0.580400 0.127066
v 0.041475 0.621387 0.127066
v 0.041475 0.662374 0.086079
v 0.041475 0.662374 0.127066
v 0.082462 0.621387 0.127066
v 0.082462 0.662374 0.086079
v 0.082462 0.662374 0.127066
v -0.040499 0.703362 0.086079
v -0.040499 0.703362 0.127066
v -0.040499 0.744349 0.086079
v -0.040499 0.744349 0.127066
v 0.000488 0.703362 0.086079
v 0.000488 0.703362 0.127066
v 0.000488 0.744349 0.086079
v 0.000488 0.744349 0.127066
v -0.040499 0.785336 0.086079
v -0.040499 0.826323 0.086079
v 0.000488 0.785336 0.086079
v 0.000488 0.785336 0.127066
v 0.000488 0.826323 0.086079
v 0.041475 0.703362 0.086079
v 0.041475 0.703362 0.127066
v 0.041475 0.744349 0.086079
v 0.041475 0.744349 0.127066
v 0.082462 0.703362 0.086079
v 0.082462 0.703362 0.127066
v 0.082462 0.744349 0.086079
v 0.082462 0.744349 0.127066
v 0.041475 0.785336 0.086079
v 0.041475 0.785336 0.127066
v 0.041475 0.826323 0.086079
v 0.041475 0.826323 0.127066
v 0.082462 0.785336 0.086079
v 0.082462 0.785336 0.127066
v 0.082462 0.826323 0.086079
v 0.082462 0.826323 0.127066
v -0.204448 0.867310 0.086079
v -0.204448 0.908297 0.086079
v -0.163461 0.867310 0.086079
v -0.163461 0.908297 0.086079
v -0.204448 0.949284 0.086079
v -0.204448 0.990272 0.086079
v -0.163461 0.949284 0.086079
v -0.163461 0.990272 0.086079
v -0.122474 0.867310 0.086079
v -0.122474 0.908297 0.086079
v -0.081486 0.867310 0.086079
v -0.081486 0.908297 0.086079
v -0.122474 0.949284 0.086079
v -0.122474 0.990272 0.086079
v -0.081486 0.949284 0.086079
v -0.081486 0.990272 0.086079
v -0.204448 1.031259 0.086079
v -0.204448 1.072246 0.086079
v -0.163461 1.031259 0.086079
v -0.163461 1.072246 0.086079
v -0.204448 1.113233 0.086079
v -0.204448 1.154220 0.086079
v -0.163461 1.113233 0.086079
v -0.163461 1.154220 0.086079
v -0.122474 1.031259 0.086079
v -0.122474 1.072246 0.086079
v -0.081486 1.031259 0.086079
v -0.081486 1.072246 0.086079
v -0.122474 1.113233 0.086079
v -0.122474 1.154220 0.086079
v -0.081486 1.113233 0.086079
v -0.081486 1.154220 0.086079
v -0.040499 0.867310 0.086079
v -0.040499 0.908297 0.086079
v 0.000488 0.867310 0.086079
v 0.000488 0.908297 0.086079
v -0.040499 0.949284 0.086079
v -0.040499 0.990272 0.086079
v 0.000488 0.949284 0.086079
v 0.000488 0.990272 0.086079
v 0.041475 0.867310 0.086079
v 0.041475 0.908297 0.086079
v 0.082462 0.867310 0.086079
v 0.082462 0.908297 0.086079
v 0.041475 0.949284 0.086079
v 0.041475 0.990272 0.086079
v 0.082462 0.949284 0.086079
v 0.082462 0.990272 0.086079
v -0.040499 1.031259 0.086079
v -0.040499 1.072246 0.086079
v 0.000488 1.031259 0.086079
v 0.000488 1.072246 0.086079
v -0.040499 1.113233 0.086079
v -0.040499 1.154220 0.086079
v 0.000488 1.113233 0.086079
v 0.000488 1.154220 0.086079
v 0.041475 1.031259 0.086079
v 0.041475 1.072246 0.086079
v 0.082462 1.031259 0.086079
v 0.082462 1.072246 0.086079
v 0.041475 1.113233 0.086079
v 0.041475 1.154220 0.086079
v 0.082462 1.113233 0.086079
v 0.082462 1.154220 0.086079
v 0.123449 0.539413 0.127066
v 0.123449 0.580400 0.127066
v 0.164436 0.539413 0.127066
v 0.164436 0.580400 0.127066
v 0.123449 0.621387 0.127066
v 0.123449 0.662374 0.086079
v 0.123449 0.662374 0.127066
v 0.164436 0.621387 0.127066
v 0.164436 0.662374 0.127066
v 0.205423 0.539413 0.086079
v 0.205423 0.539413 0.127066
v 0.205423 0.580400 0.127066
v 0.246411 0.539413 0.086079
v 0.246411 0.539413 0.127066
v 0.246411 0.580400 0.086079
v 0.246411 0.580400 0.127066
v 0.205423 0.621387 0.127066
v 0.205423 0.662374 0.127066
v 0.246411 0.621387 0.086079
v 0.246411 0.621387 0.127066
v 0.246411 0.662374 0.086079
v 0.246411 0.662374 0.127066
v 0.123449 0.703362 0.086079
v 0.123449 0.703362 0.127066
v 0.123449 0.744349 0.086079
v 0.123449 0.744349 0.127066
v 0.164436 0.703362 0.086079
v 0.164436 0.703362 0.127066
v 0.164436 0.744349 0.086079
v 0.164436 0.744349 0.127066
v 0.123449 0.785336 0.086079
v 0.123449 0.785336 0.127066
v 0.123449 0.826323 0.086079
v 0.123449 0.826323 0.127066
v 0.164436 0.785336 0.086079
v 0.164436 0.785336 0.127066
v 0.164436 0.826323 0.086079
v 0.164436 0.826323 0.127066
v 0.205423 0.703362 0.086079
v 0.205423 0.703362 0.127066
v 0.205423 0.744349 0.086079
v 0.205423 0.744349 0.127066
v 0.246411 0.703362 0.086079
v 0.246411 0.703362 0.127066
v 0.246411 0.744349 0.086079
v 0.246411 0.744349 0.127066
v 0.205423 0.785336 0.086079
v 0.205423 0.785336 0.127066
v 0.205423 0.826323 0.086079
v 0.246411 0.785336 0.086079
v 0.246411 0.785336 0.127066
v 0.287398 0.662374 0.086079
v 0.287398 0.662374 0.127066
v 0.287398 0.703362 0.086079
v 0.287398 0.703362 0.127066
v 0.287398 0.744349 0.086079
v 0.287398 0.744349 0.127066
v 0.123449 0.867310 0.086079
v 0.123449 0.908297 0.086079
v 0.164436 0.867310 0.086079
v 0.164436 0.908297 0.086079
v 0.123449 0.949284 0.086079
v 0.123449 0.990272 0.086079
v 0.164436 0.949284 0.086079
v 0.164436 0.990272 0.086079
v 0.205423 0.867310 0.086079
v 0.205423 0.908297 0.086079
v 0.205423 0.949284 0.086079
v 0.123449 1.031259 0.086079
v 0.123449 1.072246 0.086079
v 0.164436 1.031259 0.086079
v 0.164436 1.072246 0.086079
v 0.123449 1.113233 0.086079
v 0.123449 1.154220 0.086079
v -0.204448 1.195207 0.086079
v -0.204448 1.236194 0.086079
v -0.163461 1.195207 0.086079
v -0.163461 1.236194 0.086079
v -0.204448 1.277182 0.086079
v -0.204448 1.318169 0.086079
v -0.163461 1.277182 0.086079
v -0.163461 1.318169 0.086079
v -0.122474 1.195207 0.086079
v -0.122474 1.236194 0.086079
v -0.081486 1.195207 0.086079
v -0.081486 1.236194 0.086079
v -0.122474 1.277182 0.086079
v -0.122474 1.318169 0.086079
v -0.081486 1.277182 0.086079
v -0.081486 1.318169 0.086079
v -0.204448 1.359156 0.086079
v -0.204448 1.400143 0.086079
v -0.163461 1.359156 0.086079
v -0.163461 1.400143 0.086079
v -0.204448 1.441130 0.086079
v -0.204448 1.482117 0.086079
v -0.163461 1.441130 0.086079
v -0.122474 1.359156 0.086079
v -0.122474 1.400143 0.086079
v -0.081486 1.359156 0.086079
v -0.081486 1.400143 0.086079
v -0.122474 1.441130 0.086079
v -0.040499 1.195207 0.086079
v -0.040499 1.236194 0.086079
v 0.000488 1.195207 0.086079
v 0.000488 1.236194 0.086079
v -0.040499 1.277182 0.086079
v -0.040499 1.318169 0.086079
v 0.000488 1.277182 0.086079
v 0.000488 1.318169 0.086079
v 0.041475 1.195207 0.086079
v 0.041475 1.236194 0.086079
v 0.082462 1.195207 0.086079
v 0.041475 1.277182 0.086079
v -0.040499 1.359156 0.086079
vn -1.0000 -0.0000 -0.0000
vn 1.0000 -0.0000 -0.0000
vn -0.0000 -1.0000 -0.0000
vn -0.0000 1.0000 -0.0000
vn -0.0000 -0.0000 -1.0000
vn -0.0000 -0.0000 1.0000
s 0
f 8//1 9//1 11//1 10//1
f 14//2 15//2 13//2 12//2
f 8//3 12//3 13//3 9//3
f 11//4 15//4 14//4 10//4
f 8//5 10//5 14//5 12//5
f 2//3 10//3 11//3 3//3
f 1//5 3//5 11//5 9//5
f 6//1 7//1 13//1 12//1
f 4//5 9//5 13//5 7//5
f 16//1 17//1 19//1 18//1
f 16//3 20//3 21//3 17//3
f 19//4 23//4 22//4 18//4
f 16//5 18//5 22//5 20//5
f 27//3 31//3 32//3 28//3
f 30//4 34//4 33//4 29//4
f 27//5 29//5 33//5 31//5
f 20//3 27//3 28//3 21//3
f 23//4 30//4 29//4 22//4
f 20//5 22//5 29//5 27//5
f 24//2 25//2 19//2 18//2
f 19//5 25//5 26//5 23//5
f 6//3 18//3 19//3 7//3
f 5//5 7//5 19//5 17//5
f 13//4 25//4 24//4 12//4
f 6//5 12//5 24//5 18//5
f 36//1 37//1 39//1 38//1
f 40//1 41//1 43//1 42//1
f 46//2 47//2 45//2 44//2
f 55//2 56//2 54//2 53//2
f 49//3 53//3 54//3 50//3
f 49//5 51//5 55//5 53//5
f 36//5 38//5 46//5 44//5
f 43//4 52//4 51//4 42//4
f 40//5 42//5 51//5 49//5
f 38//1 39//1 41//1 40//1
f 49//2 50//2 47//2 46//2
f 38//5 40//5 49//5 46//5
f 59//1 60//1 62//1 61//1
f 58//4 60//4 59//4 57//4
f 65//3 69//3 70//3 66//3
f 68//4 72//4 71//4 67//4
f 65//5 67//5 71//5 69//5
f 74//3 78//3 79//3 75//3
f 77//4 81//4 80//4 76//4
f 74//5 76//5 80//5 78//5
f 83//1 84//1 86//1 85//1
f 69//3 74//3 75//3 70//3
f 72//4 77//4 76//4 71//4
f 69//5 71//5 76//5 74//5
f 80//1 81//1 84//1 83//1
f 77//5 82//5 84//5 81//5
f 72//5 73//5 82//5 77//5
f 55//3 63//3 64//3 56//3
f 62//4 68//4 67//4 61//4
f 59//5 61//5 67//5 65//5
f 51//1 52//1 58//1 57//1
f 51//5 57//5 59//5 55//5
f 65//2 66//2 64//2 63//2
f 55//5 59//5 65//5 63//5
f 2//1 3//1 37//1 36//1
f 44//2 45//2 11//2 10//2
f 11//5 45//5 48//5 15//5
f 2//5 36//5 44//5 10//5
f 94//1 95//1 97//1 96//1
f 100//2 101//2 99//2 98//2
f 94//3 98//3 99//3 95//3
f 97//4 101//4 100//4 96//4
f 99//6 101//6 97//6 95//6
f 88//3 96//3 97//3 89//3
f 94//6 96//6 88//6 87//6
f 92//1 93//1 99//1 98//1
f 92//6 98//6 94//6 90//6
f 102//1 103//1 105//1 104//1
f 102//3 106//3 107//3 103//3
f 105//4 109//4 108//4 104//4
f 107//6 109//6 105//6 103//6
f 113//3 117//3 118//3 114//3
f 116//4 120//4 119//4 115//4
f 118//6 120//6 116//6 114//6
f 106//3 113//3 114//3 107//3
f 109//4 116//4 115//4 108//4
f 114//6 116//6 109//6 107//6
f 110//2 111//2 105//2 104//2
f 108//6 112//6 110//6 104//6
f 92//3 104//3 105//3 93//3
f 102//6 104//6 92//6 91//6
f 99//4 111//4 110//4 98//4
f 105//6 111//6 99//6 93//6
f 122//1 123//1 125//1 124//1
f 126//1 127//1 129//1 128//1
f 132//2 133//2 131//2 130//2
f 141//2 142//2 140//2 139//2
f 135//3 139//3 140//3 136//3
f 140//6 142//6 138//6 136//6
f 131//6 133//6 125//6 123//6
f 129//4 138//4 137//4 128//4
f 136//6 138//6 129//6 127//6
f 124//1 125//1 127//1 126//1
f 135//2 136//2 133//2 132//2
f 133//6 136//6 127//6 125//6
f 145//1 146//1 148//1 147//1
f 144//4 146//4 145//4 143//4
f 151//3 155//3 156//3 152//3
f 154//4 158//4 157//4 153//4
f 156//6 158//6 154//6 152//6
f 160//3 164//3 165//3 161//3
f 163//4 167//4 166//4 162//4
f 165//6 167//6 163//6 161//6
f 169//1 170//1 172//1 171//1
f 155//3 160//3 161//3 156//3
f 158//4 163//4 162//4 157//4
f 161//6 163//6 158//6 156//6
f 166//1 167//1 170//1 169//1
f 166//6 169//6 168//6 162//6
f 162//6 168//6 159//6 157//6
f 141//3 149//3 150//3 142//3
f 148//4 154//4 153//4 147//4
f 152//6 154//6 148//6 146//6
f 137//1 138//1 144//1 143//1
f 142//6 146//6 144//6 138//6
f 151//2 152//2 150//2 149//2
f 150//6 152//6 146//6 142//6
f 88//1 89//1 123//1 122//1
f 130//2 131//2 97//2 96//2
f 100//6 134//6 130//6 96//6
f 97//6 131//6 123//6 89//6
f 173//1 174//1 176//1 175//1
f 177//1 178//1 180//1 179//1
f 175//1 176//1 178//1 177//1
f 190//5 191//5 193//5 192//5
f 194//5 195//5 197//5 196//5
f 191//5 194//5 196//5 193//5
f 199//5 200//5 202//5 201//5
f 206//5 207//5 209//5 208//5
f 201//5 202//5 207//5 206//5
f 203//5 206//5 208//5 205//5
f 198//5 201//5 206//5 203//5
f 214//5 215//5 217//5 216//5
f 218//5 219//5 221//5 220//5
f 212//5 213//5 219//5 218//5
f 215//5 218//5 220//5 217//5
f 225//5 226//5 228//5 227//5
f 229//5 230//5 232//5 231//5
f 233//5 234//5 236//5 235//5
f 223//5 224//5 230//5 229//5
f 227//5 228//5 234//5 233//5
f 222//5 225//5 227//5 224//5
f 230//5 233//5 235//5 232//5
f 224//5 227//5 233//5 230//5
f 237//5 238//5 240//5 239//5
f 241//5 242//5 244//5 243//5
f 245//5 246//5 248//5 247//5
f 249//5 250//5 252//5 251//5
f 239//5 240//5 246//5 245//5
f 243//5 244//5 250//5 249//5
f 238//5 241//5 243//5 240//5
f 246//5 249//5 251//5 248//5
f 240//5 243//5 249//5 246//5
f 216//5 217//5 238//5 237//5
f 220//5 221//5 242//5 241//5
f 217//5 220//5 241//5 238//5
f 226//5 237//5 239//5 228//5
f 234//5 245//5 247//5 236//5
f 228//5 239//5 245//5 234//5
f 210//5 216//5 237//5 226//5
f 253//5 254//5 256//5 255//5
f 259//5 260//5 262//5 261//5
f 255//5 256//5 260//5 259//5
f 254//5 257//5 258//5 256//5
f 260//5 263//5 264//5 262//5
f 256//5 258//5 263//5 260//5
f 265//5 266//5 268//5 267//5
f 261//5 262//5 266//5 265//5
f 204//5 205//5 254//5 253//5
f 205//5 208//5 257//5 254//5
f 211//5 253//5 255//5 213//5
f 219//5 259//5 261//5 221//5
f 213//5 255//5 259//5 219//5
f 242//5 265//5 267//5 244//5
f 250//5 269//5 270//5 252//5
f 244//5 267//5 269//5 250//5
f 221//5 261//5 265//5 242//5
f 195//5 229//5 231//5 197//5
f 189//5 223//5 229//5 195//5
f 271//1 272//1 274//1 273//1
f 275//1 276//1 278//1 277//1
f 273//1 274//1 276//1 275//1
f 290//6 291//6 289//6 288//6
f 294//6 295//6 293//6 292//6
f 291//6 294//6 292//6 289//6
f 299//6 300//6 298//6 297//6
f 306//6 307//6 305//6 304//6
f 304//6 305//6 300//6 299//6
f 303//6 306//6 304//6 301//6
f 301//6 304//6 299//6 296//6
f 314//6 315//6 313//6 312//6
f 318//6 319//6 317//6 316//6
f 316//6 317//6 311//6 310//6
f 315//6 318//6 316//6 313//6
f 325//6 326//6 324//6 323//6
f 329//6 330//6 328//6 327//6
f 333//6 334//6 332//6 331//6
f 327//6 328//6 322//6 321//6
f 331//6 332//6 326//6 325//6
f 322//6 325//6 323//6 320//6
f 330//6 333//6 331//6 328//6
f 328//6 331//6 325//6 322//6
f 337//6 338//6 336//6 335//6
f 341//6 342//6 340//6 339//6
f 345//6 346//6 344//6 343//6
f 349//6 350//6 348//6 347//6
f 343//6 344//6 338//6 337//6
f 347//6 348//6 342//6 341//6
f 338//6 341//6 339//6 336//6
f 346//6 349//6 347//6 344//6
f 344//6 347//6 341//6 338//6
f 335//6 336//6 315//6 314//6
f 339//6 340//6 319//6 318//6
f 336//6 339//6 318//6 315//6
f 326//6 337//6 335//6 324//6
f 334//6 345//6 343//6 332//6
f 332//6 343//6 337//6 326//6
f 324//6 335//6 314//6 308//6
f 353//6 354//6 352//6 351//6
f 359//6 360//6 358//6 357//6
f 357//6 358//6 354//6 353//6
f 354//6 356//6 355//6 352//6
f 360//6 362//6 361//6 358//6
f 358//6 361//6 356//6 354//6
f 365//6 366//6 364//6 363//6
f 363//6 364//6 360//6 359//6
f 351//6 352//6 303//6 302//6
f 352//6 355//6 306//6 303//6
f 311//6 353//6 351//6 309//6
f 319//6 359//6 357//6 317//6
f 317//6 357//6 353//6 311//6
f 342//6 365//6 363//6 340//6
f 350//6 368//6 367//6 348//6
f 348//6 367//6 365//6 342//6
f 340//6 363//6 359//6 319//6
f 295//6 329//6 327//6 293//6
f 293//6 327//6 321//6 287//6
f 371//2 372//2 370//2 369//2
f 371//3 374//3 375//3 372//3
f 370//5 372//5 375//5 373//5
f 378//1 379//1 381//1 380//1
f 377//4 379//4 378//4 376//4
f 385//2 386//2 384//2 383//2
f 387//1 388//1 390//1 389//1
f 385//3 389//3 390//3 386//3
f 384//5 386//5 390//5 388//5
f 378//3 383//3 384//3 379//3
f 381//4 386//4 385//4 380//4
f 378//5 380//5 385//5 383//5
f 371//1 372//1 377//1 376//1
f 378//2 379//2 375//2 374//2
f 371//5 376//5 378//5 374//5
f 375//5 379//5 384//5 382//5
f 393//2 394//2 392//2 391//2
f 393//3 395//3 396//3 394//3
f 387//3 391//3 392//3 388//3
f 387//5 389//5 393//5 391//5
f 399//1 400//1 402//1 401//1
f 403//1 404//1 406//1 405//1
f 403//5 405//5 408//5 407//5
f 409//5 411//5 415//5 413//5
f 414//6 416//6 412//6 410//6
f 399//3 409//3 410//3 400//3
f 399//5 401//5 411//5 409//5
f 405//1 406//1 410//1 409//1
f 405//5 409//5 413//5 408//5
f 417//3 420//3 421//3 418//3
f 417//5 419//5 422//5 420//5
f 423//5 424//5 427//5 426//5
f 428//5 429//5 431//5 430//5
f 432//5 433//5 435//5 434//5
f 420//5 422//5 429//5 428//5
f 426//5 427//5 433//5 432//5
f 419//5 423//5 426//5 422//5
f 429//5 432//5 434//5 431//5
f 422//5 426//5 432//5 429//5
f 436//5 437//5 440//5 438//5
f 441//5 442//5 444//5 443//5
f 447//2 448//2 446//2 445//2
f 454//2 455//2 453//2 452//2
f 449//3 452//3 453//3 450//3
f 449//5 451//5 454//5 452//5
f 438//3 445//3 446//3 439//3
f 438//5 440//5 447//5 445//5
f 443//5 444//5 451//5 449//5
f 437//5 441//5 443//5 440//5
f 449//2 450//2 448//2 447//2
f 440//5 443//5 449//5 447//5
f 456//5 457//5 459//5 458//5
f 460//5 461//5 463//5 462//5
f 464//5 465//5 468//5 466//5
f 469//5 470//5 472//5 471//5
f 458//5 459//5 465//5 464//5
f 462//5 463//5 470//5 469//5
f 457//5 460//5 462//5 459//5
f 465//5 469//5 471//5 468//5
f 459//5 462//5 469//5 465//5
f 407//5 408//5 437//5 436//5
f 413//5 415//5 442//5 441//5
f 408//5 413//5 441//5 437//5
f 430//5 431//5 457//5 456//5
f 434//5 435//5 461//5 460//5
f 431//5 434//5 460//5 457//5
f 401//1 402//1 421//1 420//1
f 398//5 418//5 421//5 402//5
f 411//5 428//5 430//5 415//5
f 401//5 420//5 428//5 411//5
f 442//5 456//5 458//5 444//5
f 466//2 467//2 455//2 454//2
f 451//5 464//5 466//5 454//5
f 444//5 458//5 464//5 451//5
f 415//5 430//5 456//5 442//5
f 475//2 476//2 474//2 473//2
f 479//2 480//2 478//2 477//2
f 479//3 481//3 482//3 480//3
f 477//2 478//2 476//2 475//2
f 466//3 473//3 474//3 467//3
f 466//5 468//5 475//5 473//5
f 471//5 472//5 479//5 477//5
f 468//5 471//5 477//5 475//5
f 385//1 386//1 404//1 403//1
f 385//5 403//5 407//5 389//5
f 381//5 397//5 404//5 386//5
f 438//2 439//2 396//2 395//2
f 393//5 436//5 438//5 395//5
f 389//5 407//5 436//5 393//5
f 483//1 484//1 486//1 485//1
f 483//5 485//5 488//5 487//5
f 489//1 490//1 492//1 491//1
f 489//5 491//5 494//5 493//5
f 495//5 496//5 498//5 497//5
f 499//5 500//5 502//5 501//5
f 487//5 488//5 496//5 495//5
f 493//5 494//5 500//5 499//5
f 485//1 486//1 490//1 489//1
f 485//5 489//5 493//5 488//5
f 496//5 499//5 501//5 498//5
f 488//5 493//5 499//5 496//5
f 505//1 506//1 508//1 507//1
f 504//4 506//4 505//4 503//4
f 509//5 510//5 513//5 512//5
f 518//1 519//1 521//1 520//1
f 515//4 519//4 518//4 514//4
f 516//3 520//3 521//3 517//3
f 508//4 511//4 510//4 507//4
f 505//5 507//5 510//5 509//5
f 510//1 511//1 515//1 514//1
f 510//5 514//5 518//5 513//5
f 522//5 523//5 525//5 524//5
f 526//5 527//5 529//5 528//5
f 530//5 531//5 533//5 532//5
f 534//5 535//5 537//5 536//5
f 524//5 525//5 531//5 530//5
f 528//5 529//5 535//5 534//5
f 523//5 526//5 528//5 525//5
f 531//5 534//5 536//5 533//5
f 525//5 528//5 534//5 531//5
f 538//5 539//5 541//5 540//5
f 542//5 543//5 545//5 544//5
f 546//5 547//5 549//5 548//5
f 550//5 551//5 553//5 552//5
f 540//5 541//5 547//5 546//5
f 544//5 545//5 551//5 550//5
f 539//5 542//5 544//5 541//5
f 547//5 550//5 552//5 549//5
f 541//5 544//5 550//5 547//5
f 497//5 498//5 523//5 522//5
f 501//5 502//5 527//5 526//5
f 498//5 501//5 526//5 523//5
f 512//5 513//5 539//5 538//5
f 518//5 520//5 543//5 542//5
f 513//5 518//5 542//5 539//5
f 491//1 492//1 504//1 503//1
f 491//5 503//5 505//5 494//5
f 500//5 509//5 512//5 502//5
f 494//5 505//5 509//5 500//5
f 527//5 538//5 540//5 529//5
f 535//5 546//5 548//5 537//5
f 529//5 540//5 546//5 535//5
f 502//5 512//5 538//5 527//5
f 554//1 555//1 557//1 556//1
f 554//5 556//5 559//5 558//5
f 562//1 563//1 565//1 564//1
f 561//4 563//4 562//4 560//4
f 556//1 557//1 561//1 560//1
f 556//5 560//5 562//5 559//5
f 570//1 571//1 573//1 572//1
f 568//3 572//3 573//3 569//3
f 566//3 568//3 569//3 567//3
f 574//5 575//5 577//5 576//5
f 578//5 579//5 582//5 581//5
f 583//5 584//5 586//5 585//5
f 587//5 588//5 590//5 589//5
f 576//5 577//5 584//5 583//5
f 581//5 582//5 588//5 587//5
f 575//5 578//5 581//5 577//5
f 584//5 587//5 589//5 586//5
f 577//5 581//5 587//5 584//5
f 591//1 592//1 594//1 593//1
f 591//5 593//5 596//5 595//5
f 597//5 599//5 601//5 600//5
f 602//5 603//5 605//5 604//5
f 606//5 607//5 609//5 608//5
f 595//5 596//5 603//5 602//5
f 600//5 601//5 607//5 606//5
f 593//1 594//1 598//1 597//1
f 593//5 597//5 600//5 596//5
f 603//5 606//5 608//5 605//5
f 596//5 600//5 606//5 603//5
f 558//5 559//5 575//5 574//5
f 565//4 580//4 579//4 564//4
f 562//5 564//5 579//5 578//5
f 559//5 562//5 578//5 575//5
f 570//3 597//3 598//3 571//3
f 570//5 572//5 599//5 597//5
f 579//1 580//1 592//1 591//1
f 579//5 591//5 595//5 582//5
f 588//5 602//5 604//5 590//5
f 582//5 595//5 602//5 588//5
f 614//2 615//2 613//2 612//2
f 610//5 611//5 614//5 612//5
f 616//5 617//5 620//5 618//5
f 623//2 624//2 622//2 621//2
f 618//3 621//3 622//3 619//3
f 618//5 620//5 623//5 621//5
f 618//2 619//2 615//2 614//2
f 611//5 616//5 618//5 614//5
f 625//5 626//5 628//5 627//5
f 629//5 630//5 632//5 631//5
f 635//2 636//2 634//2 633//2
f 642//2 643//2 641//2 640//2
f 637//3 640//3 641//3 638//3
f 637//5 639//5 642//5 640//5
f 627//5 628//5 635//5 633//5
f 631//5 632//5 639//5 637//5
f 626//5 629//5 631//5 628//5
f 637//2 638//2 636//2 635//2
f 628//5 631//5 637//5 635//5
f 617//5 625//5 627//5 620//5
f 633//2 634//2 624//2 623//2
f 620//5 627//5 633//5 623//5
f 644//5 645//5 647//5 646//5
f 648//5 649//5 651//5 650//5
f 656//2 657//2 655//2 654//2
f 652//5 653//5 656//5 654//5
f 662//2 663//2 661//2 660//2
f 658//5 659//5 662//5 660//5
f 646//5 647//5 653//5 652//5
f 650//5 651//5 659//5 658//5
f 645//5 648//5 650//5 647//5
f 660//2 661//2 657//2 656//2
f 653//5 658//5 660//5 656//5
f 647//5 650//5 658//5 653//5
f 664//5 665//5 667//5 666//5
f 668//5 669//5 671//5 670//5
f 676//2 677//2 675//2 674//2
f 672//5 673//5 676//5 674//5
f 680//2 681//2 679//2 678//2
f 679//4 683//4 682//4 678//4
f 666//5 667//5 673//5 672//5
f 670//5 671//5 680//5 678//5
f 665//5 668//5 670//5 667//5
f 682//2 683//2 677//2 676//2
f 673//5 678//5 682//5 676//5
f 667//5 670//5 678//5 673//5
f 649//5 664//5 666//5 651//5
f 674//2 675//2 663//2 662//2
f 659//5 672//5 674//5 662//5
f 651//5 666//5 672//5 659//5
f 532//5 533//5 611//5 610//5
f 536//5 537//5 617//5 616//5
f 533//5 536//5 616//5 611//5
f 548//5 549//5 626//5 625//5
f 552//5 553//5 630//5 629//5
f 549//5 552//5 629//5 626//5
f 537//5 548//5 625//5 617//5
f 585//5 586//5 645//5 644//5
f 589//5 590//5 649//5 648//5
f 586//5 589//5 648//5 645//5
f 604//5 605//5 665//5 664//5
f 608//5 609//5 669//5 668//5
f 605//5 608//5 668//5 665//5
f 590//5 604//5 664//5 649//5
f 516//1 517//1 555//1 554//1
f 516//5 554//5 558//5 520//5
f 543//5 574//5 576//5 545//5
f 551//5 583//5 585//5 553//5
f 545//5 576//5 583//5 551//5
f 520//5 558//5 574//5 543//5
f 630//5 644//5 646//5 632//5
f 654//2 655//2 643//2 642//2
f 639//5 652//5 654//5 642//5
f 632//5 646//5 652//5 639//5
f 553//5 585//5 644//5 630//5
f 424//1 425//1 484//1 483//1
f 424//5 483//5 487//5 427//5
f 433//5 495//5 497//5 435//5
f 427//5 487//5 495//5 433//5
f 461//5 522//5 524//5 463//5
f 470//5 530//5 532//5 472//5
f 463//5 524//5 530//5 470//5
f 435//5 497//5 522//5 461//5
f 612//2 613//2 482//2 481//2
f 479//5 610//5 612//5 481//5
f 472//5 532//5 610//5 479//5
f 686//2 687//2 685//2 684//2
f 686//3 689//3 690//3 687//3
f 688//6 689//6 686//6 684//6
f 693//1 694//1 696//1 695//1
f 692//4 694//4 693//4 691//4
f 700//2 701//2 699//2 698//2
f 702//1 703//1 705//1 704//1
f 700//3 704//3 705//3 701//3
f 702//6 704//6 700//6 698//6
f 693//3 698//3 699//3 694//3
f 696//4 701//4 700//4 695//4
f 699//6 701//6 696//6 694//6
f 686//1 687//1 692//1 691//1
f 693//2 694//2 690//2 689//2
f 690//6 694//6 692//6 687//6
f 697//6 698//6 693//6 689//6
f 708//2 709//2 707//2 706//2
f 708//3 710//3 711//3 709//3
f 702//3 706//3 707//3 703//3
f 707//6 709//6 705//6 703//6
f 714//1 715//1 717//1 716//1
f 718//1 719//1 721//1 720//1
f 722//6 723//6 721//6 719//6
f 724//5 726//5 730//5 728//5
f 729//6 731//6 727//6 725//6
f 714//3 724//3 725//3 715//3
f 725//6 727//6 717//6 715//6
f 720//1 721//1 725//1 724//1
f 723//6 729//6 725//6 721//6
f 732//3 735//3 736//3 733//3
f 736//6 737//6 734//6 733//6
f 741//6 742//6 740//6 738//6
f 745//6 746//6 744//6 743//6
f 749//6 750//6 748//6 747//6
f 743//6 744//6 737//6 736//6
f 747//6 748//6 742//6 741//6
f 737//6 741//6 738//6 734//6
f 746//6 749//6 747//6 744//6
f 744//6 747//6 741//6 737//6
f 754//6 755//6 752//6 751//6
f 758//6 759//6 757//6 756//6
f 762//2 763//2 761//2 760//2
f 769//2 770//2 768//2 767//2
f 764//3 767//3 768//3 765//3
f 768//6 770//6 766//6 765//6
f 753//3 760//3 761//3 754//3
f 761//6 763//6 755//6 754//6
f 765//6 766//6 759//6 758//6
f 755//6 758//6 756//6 752//6
f 764//2 765//2 763//2 762//2
f 763//6 765//6 758//6 755//6
f 773//6 774//6 772//6 771//6
f 777//6 778//6 776//6 775//6
f 782//6 783//6 780//6 779//6
f 786//6 787//6 785//6 784//6
f 779//6 780//6 774//6 773//6
f 784//6 785//6 778//6 777//6
f 774//6 777//6 775//6 772//6
f 783//6 786//6 784//6 780//6
f 780//6 784//6 777//6 774//6
f 751//6 752//6 723//6 722//6
f 756//6 757//6 731//6 729//6
f 752//6 756//6 729//6 723//6
f 771//6 772//6 746//6 745//6
f 775//6 776//6 750//6 749//6
f 772//6 775//6 749//6 746//6
f 716//1 717//1 736//1 735//1
f 716//6 735//6 732//6 713//6
f 731//6 745//6 743//6 727//6
f 727//6 743//6 736//6 717//6
f 759//6 773//6 771//6 757//6
f 781//2 782//2 770//2 769//2
f 770//6 782//6 779//6 766//6
f 766//6 779//6 773//6 759//6
f 757//6 771//6 745//6 731//6
f 790//2 791//2 789//2 788//2
f 794//2 795//2 793//2 792//2
f 794//3 796//3 797//3 795//3
f 792//2 793//2 791//2 790//2
f 781//3 788//3 789//3 782//3
f 789//6 791//6 783//6 782//6
f 793//6 795//6 787//6 786//6
f 791//6 793//6 786//6 783//6
f 700//1 701//1 719//1 718//1
f 705//6 722//6 719//6 701//6
f 700//6 718//6 712//6 695//6
f 753//2 754//2 711//2 710//2
f 711//6 754//6 751//6 709//6
f 709//6 751//6 722//6 705//6
f 798//1 799//1 801//1 800//1
f 802//6 803//6 801//6 799//6
f 804//1 805//1 807//1 806//1
f 808//6 809//6 807//6 805//6
f 812//6 813//6 811//6 810//6
f 816//6 817//6 815//6 814//6
f 810//6 811//6 803//6 802//6
f 814//6 815//6 809//6 808//6
f 800//1 801//1 805//1 804//1
f 803//6 808//6 805//6 801//6
f 813//6 816//6 814//6 811//6
f 811//6 814//6 808//6 803//6
f 820//1 821//1 823//1 822//1
f 819//4 821//4 820//4 818//4
f 827//6 828//6 826//6 824//6
f 833//1 834//1 836//1 835//1
f 830//4 834//4 833//4 829//4
f 831//3 835//3 836//3 832//3
f 823//4 826//4 825//4 822//4
f 824//6 826//6 823//6 821//6
f 825//1 826//1 830//1 829//1
f 828//6 834//6 830//6 826//6
f 839//6 840//6 838//6 837//6
f 843//6 844//6 842//6 841//6
f 847//6 848//6 846//6 845//6
f 851//6 852//6 850//6 849//6
f 845//6 846//6 840//6 839//6
f 849//6 850//6 844//6 843//6
f 840//6 843//6 841//6 838//6
f 848//6 851//6 849//6 846//6
f 846//6 849//6 843//6 840//6
f 855//6 856//6 854//6 853//6
f 859//6 860//6 858//6 857//6
f 863//6 864//6 862//6 861//6
f 867//6 868//6 866//6 865//6
f 861//6 862//6 856//6 855//6
f 865//6 866//6 860//6 859//6
f 856//6 859//6 857//6 854//6
f 864//6 867//6 865//6 862//6
f 862//6 865//6 859//6 856//6
f 837//6 838//6 813//6 812//6
f 841//6 842//6 817//6 816//6
f 838//6 841//6 816//6 813//6
f 853//6 854//6 828//6 827//6
f 857//6 858//6 836//6 834//6
f 854//6 857//6 834//6 828//6
f 806//1 807//1 819//1 818//1
f 809//6 821//6 819//6 807//6
f 817//6 827//6 824//6 815//6
f 815//6 824//6 821//6 809//6
f 844//6 855//6 853//6 842//6
f 852//6 863//6 861//6 850//6
f 850//6 861//6 855//6 844//6
f 842//6 853//6 827//6 817//6
f 869//1 870//1 872//1 871//1
f 873//6 874//6 872//6 870//6
f 877//1 878//1 880//1 879//1
f 876//4 878//4 877//4 875//4
f 871//1 872//1 876//1 875//1
f 874//6 878//6 876//6 872//6
f 885//1 886//1 888//1 887//1
f 883//3 887//3 888//3 884//3
f 881//3 883//3 884//3 882//3
f 891//6 892//6 890//6 889//6
f 896//6 897//6 895//6 893//6
f 900//6 901//6 899//6 898//6
f 904//6 905//6 903//6 902//6
f 898//6 899//6 892//6 891//6
f 902//6 903//6 897//6 896//6
f 892//6 896//6 893//6 890//6
f 901//6 904//6 902//6 899//6
f 899//6 902//6 896//6 892//6
f 906//1 907//1 909//1 908//1
f 910//6 911//6 909//6 907//6
f 915//6 916//6 914//6 913//6
f 919//6 920//6 918//6 917//6
f 923//6 924//6 922//6 921//6
f 917//6 918//6 911//6 910//6
f 921//6 922//6 916//6 915//6
f 908//1 909//1 913//1 912//1
f 911//6 915//6 913//6 909//6
f 920//6 923//6 921//6 918//6
f 918//6 921//6 915//6 911//6
f 889//6 890//6 874//6 873//6
f 880//4 895//4 894//4 879//4
f 893//6 895//6 880//6 878//6
f 890//6 893//6 878//6 874//6
f 885//3 912//3 913//3 886//3
f 913//6 914//6 888//6 886//6
f 894//1 895//1 907//1 906//1
f 897//6 910//6 907//6 895//6
f 905//6 919//6 917//6 903//6
f 903//6 917//6 910//6 897//6
f 929//2 930//2 928//2 927//2
f 928//6 930//6 926//6 925//6
f 934//6 935//6 932//6 931//6
f 938//2 939//2 937//2 936//2
f 933//3 936//3 937//3 934//3
f 937//6 939//6 935//6 934//6
f 933//2 934//2 930//2 929//2
f 930//6 934//6 931//6 926//6
f 942//6 943//6 941//6 940//6
f 946//6 947//6 945//6 944//6
f 950//2 951//2 949//2 948//2
f 957//2 958//2 956//2 955//2
f 952//3 955//3 956//3 953//3
f 956//6 958//6 954//6 953//6
f 949//6 951//6 943//6 942//6
f 953//6 954//6 947//6 946//6
f 943//6 946//6 944//6 941//6
f 952//2 953//2 951//2 950//2
f 951//6 953//6 946//6 943//6
f 935//6 942//6 940//6 932//6
f 948//2 949//2 939//2 938//2
f 939//6 949//6 942//6 935//6
f 961//6 962//6 960//6 959//6
f 965//6 966//6 964//6 963//6
f 971//2 972//2 970//2 969//2
f 970//6 972//6 968//6 967//6
f 977//2 978//2 976//2 975//2
f 976//6 978//6 974//6 973//6
f 967//6 968//6 962//6 961//6
f 973//6 974//6 966//6 965//6
f 962//6 965//6 963//6 960//6
f 975//2 976//2 972//2 971//2
f 972//6 976//6 973//6 968//6
f 968//6 973//6 965//6 962//6
f 981//6 982//6 980//6 979//6
f 985//6 986//6 984//6 983//6
f 991//2 992//2 990//2 989//2
f 990//6 992//6 988//6 987//6
f 995//2 996//2 994//2 993//2
f 994//4 998//4 997//4 993//4
f 987//6 988//6 982//6 981//6
f 994//6 996//6 986//6 985//6
f 982//6 985//6 983//6 980//6
f 997//2 998//2 992//2 991//2
f 992//6 998//6 994//6 988//6
f 988//6 994//6 985//6 982//6
f 966//6 981//6 979//6 964//6
f 989//2 990//2 978//2 977//2
f 978//6 990//6 987//6 974//6
f 974//6 987//6 981//6 966//6
f 925//6 926//6 848//6 847//6
f 931//6 932//6 852//6 851//6
f 926//6 931//6 851//6 848//6
f 940//6 941//6 864//6 863//6
f 944//6 945//6 868//6 867//6
f 941//6 944//6 867//6 864//6
f 932//6 940//6 863//6 852//6
f 959//6 960//6 901//6 900//6
f 963//6 964//6 905//6 904//6
f 960//6 963//6 904//6 901//6
f 979//6 980//6 920//6 919//6
f 983//6 984//6 924//6 923//6
f 980//6 983//6 923//6 920//6
f 964//6 979//6 919//6 905//6
f 831//1 832//1 870//1 869//1
f 836//6 873//6 870//6 832//6
f 860//6 891//6 889//6 858//6
f 868//6 900//6 898//6 866//6
f 866//6 898//6 891//6 860//6
f 858//6 889//6 873//6 836//6
f 947//6 961//6 959//6 945//6
f 969//2 970//2 958//2 957//2
f 958//6 970//6 967//6 954//6
f 954//6 967//6 961//6 947//6
f 945//6 959//6 900//6 868//6
f 739//1 740//1 799//1 798//1
f 742//6 802//6 799//6 740//6
f 750//6 812//6 810//6 748//6
f 748//6 810//6 802//6 742//6
f 778//6 839//6 837//6 776//6
f 787//6 847//6 845//6 785//6
f 785//6 845//6 839//6 778//6
f 776//6 837//6 812//6 750//6
f 927//2 928//2 797//2 796//2
f 797//6 928//6 925//6 795//6
f 795//6 925//6 847//6 787//6
f 999//3 1002//3 1003//3 1000//3
f 999//5 1001//5 1004//5 1002//5
f 1007//4 1010//4 1009//4 1006//4
f 1005//5 1006//5 1009//5 1008//5
f 1011//5 1012//5 1014//5 1013//5
f 1015//5 1016//5 1019//5 1018//5
f 1002//5 1004//5 1012//5 1011//5
f 1010//4 1017//4 1016//4 1009//4
f 1008//5 1009//5 1016//5 1015//5
f 1001//5 1005//5 1008//5 1004//5
f 1012//5 1015//5 1018//5 1014//5
f 1004//5 1008//5 1015//5 1012//5
f 1021//5 1022//5 1024//5 1023//5
f 1025//5 1026//5 1028//5 1027//5
f 1030//4 1033//4 1032//4 1029//4
f 1030//5 1031//5 1034//5 1033//5
f 1035//5 1036//5 1038//5 1037//5
f 1023//5 1024//5 1031//5 1030//5
f 1027//5 1028//5 1036//5 1035//5
f 1022//5 1025//5 1027//5 1024//5
f 1031//5 1035//5 1037//5 1034//5
f 1024//5 1027//5 1035//5 1031//5
f 1039//5 1040//5 1042//5 1041//5
f 1043//5 1044//5 1047//5 1046//5
f 1049//5 1050//5 1052//5 1051//5
f 1053//5 1054//5 1057//5 1056//5
f 1041//5 1042//5 1050//5 1049//5
f 1046//5 1047//5 1054//5 1053//5
f 1040//5 1043//5 1046//5 1042//5
f 1050//5 1053//5 1056//5 1052//5
f 1042//5 1046//5 1053//5 1050//5
f 1059//1 1060//1 1062//1 1061//1
f 1062//4 1066//4 1065//4 1061//4
f 1059//5 1061//5 1065//5 1063//5
f 1064//6 1066//6 1062//6 1060//6
f 1067//5 1068//5 1071//5 1070//5
f 1072//5 1074//5 1078//5 1076//5
f 1077//6 1079//6 1075//6 1073//6
f 1080//1 1081//1 1083//1 1082//1
f 1083//4 1087//4 1086//4 1082//4
f 1080//5 1082//5 1086//5 1084//5
f 1085//6 1087//6 1083//6 1081//6
f 1063//5 1065//5 1074//5 1072//5
f 1073//6 1075//6 1066//6 1064//6
f 1070//4 1081//4 1080//4 1069//4
f 1070//5 1071//5 1083//5 1081//5
f 1065//1 1066//1 1070//1 1069//1
f 1062//5 1067//5 1070//5 1066//5
f 1074//5 1080//5 1084//5 1078//5
f 1079//6 1085//6 1081//6 1075//6
f 1065//5 1069//5 1080//5 1074//5
f 1075//6 1081//6 1070//6 1066//6
f 1013//5 1014//5 1040//5 1039//5
f 1018//5 1019//5 1044//5 1043//5
f 1014//5 1018//5 1043//5 1040//5
f 1033//4 1060//4 1059//4 1032//4
f 1033//5 1034//5 1062//5 1060//5
f 1037//5 1038//5 1068//5 1067//5
f 1034//5 1037//5 1067//5 1062//5
f 1007//5 1021//5 1023//5 1010//5
f 1016//1 1017//1 1030//1 1029//1
f 1016//5 1029//5 1032//5 1019//5
f 1020//6 1033//6 1030//6 1017//6
f 1010//5 1023//5 1030//5 1017//5
f 1044//5 1059//5 1063//5 1047//5
f 1048//6 1064//6 1060//6 1045//6
f 1054//5 1072//5 1076//5 1057//5
f 1058//6 1077//6 1073//6 1055//6
f 1047//5 1063//5 1072//5 1054//5
f 1055//6 1073//6 1064//6 1048//6
f 1019//5 1032//5 1059//5 1044//5
f 1045//6 1060//6 1033//6 1020//6
f 1088//5 1089//5 1091//5 1090//5
f 1092//5 1093//5 1095//5 1094//5
f 1096//5 1097//5 1099//5 1098//5
f 1100//5 1101//5 1103//5 1102//5
f 1090//5 1091//5 1097//5 1096//5
f 1094//5 1095//5 1101//5 1100//5
f 1089//5 1092//5 1094//5 1091//5
f 1097//5 1100//5 1102//5 1099//5
f 1091//5 1094//5 1100//5 1097//5
f 1104//5 1105//5 1107//5 1106//5
f 1108//5 1109//5 1111//5 1110//5
f 1112//5 1113//5 1115//5 1114//5
f 1116//5 1117//5 1119//5 1118//5
f 1106//5 1107//5 1113//5 1112//5
f 1110//5 1111//5 1117//5 1116//5
f 1105//5 1108//5 1110//5 1107//5
f 1113//5 1116//5 1118//5 1115//5
f 1107//5 1110//5 1116//5 1113//5
f 1120//5 1121//5 1123//5 1122//5
f 1124//5 1125//5 1127//5 1126//5
f 1128//5 1129//5 1131//5 1130//5
f 1132//5 1133//5 1135//5 1134//5
f 1122//5 1123//5 1129//5 1128//5
f 1126//5 1127//5 1133//5 1132//5
f 1121//5 1124//5 1126//5 1123//5
f 1129//5 1132//5 1134//5 1131//5
f 1123//5 1126//5 1132//5 1129//5
f 1136//5 1137//5 1139//5 1138//5
f 1140//5 1141//5 1143//5 1142//5
f 1144//5 1145//5 1147//5 1146//5
f 1148//5 1149//5 1151//5 1150//5
f 1138//5 1139//5 1145//5 1144//5
f 1142//5 1143//5 1149//5 1148//5
f 1137//5 1140//5 1142//5 1139//5
f 1145//5 1148//5 1150//5 1147//5
f 1139//5 1142//5 1148//5 1145//5
f 1098//5 1099//5 1121//5 1120//5
f 1102//5 1103//5 1125//5 1124//5
f 1099//5 1102//5 1124//5 1121//5
f 1114//5 1115//5 1137//5 1136//5
f 1118//5 1119//5 1141//5 1140//5
f 1115//5 1118//5 1140//5 1137//5
f 1093//5 1104//5 1106//5 1095//5
f 1101//5 1112//5 1114//5 1103//5
f 1095//5 1106//5 1112//5 1101//5
f 1125//5 1136//5 1138//5 1127//5
f 1133//5 1144//5 1146//5 1135//5
f 1127//5 1138//5 1144//5 1133//5
f 1103//5 1114//5 1136//5 1125//5
f 1152//5 1153//5 1155//5 1154//5
f 1156//5 1157//5 1160//5 1159//5
f 1166//2 1167//2 1165//2 1164//2
f 1161//3 1164//3 1165//3 1162//3
f 1161//5 1163//5 1166//5 1164//5
f 1172//2 1173//2 1171//2 1170//2
f 1168//5 1169//5 1172//5 1170//5
f 1154//5 1155//5 1163//5 1161//5
f 1159//5 1160//5 1169//5 1168//5
f 1153//5 1156//5 1159//5 1155//5
f 1170//2 1171//2 1167//2 1166//2
f 1163//5 1168//5 1170//5 1166//5
f 1155//5 1159//5 1168//5 1163//5
f 1174//5 1176//5 1180//5 1178//5
f 1179//6 1181//6 1177//6 1175//6
f 1188//2 1189//2 1187//2 1186//2
f 1185//4 1189//4 1188//4 1184//4
f 1182//5 1184//5 1188//5 1186//5
f 1187//6 1189//6 1185//6 1183//6
f 1190//5 1192//5 1196//5 1194//5
f 1195//6 1197//6 1193//6 1191//6
f 1199//4 1202//4 1201//4 1198//4
f 1178//5 1180//5 1192//5 1190//5
f 1191//6 1193//6 1181//6 1179//6
f 1187//4 1199//4 1198//4 1186//4
f 1187//5 1189//5 1200//5 1199//5
f 1176//5 1182//5 1186//5 1180//5
f 1181//6 1187//6 1183//6 1177//6
f 1201//2 1202//2 1197//2 1196//2
f 1192//5 1198//5 1201//5 1196//5
f 1197//6 1202//6 1199//6 1193//6
f 1180//5 1186//5 1198//5 1192//5
f 1193//6 1199//6 1187//6 1181//6
f 1207//2 1208//2 1206//2 1205//2
f 1172//3 1203//3 1204//3 1173//3
f 1197//4 1208//4 1207//4 1196//4
f 1194//5 1196//5 1207//5 1205//5
f 1157//5 1174//5 1178//5 1160//5
f 1169//5 1190//5 1194//5 1172//5
f 1160//5 1178//5 1190//5 1169//5
f 1205//2 1206//2 1204//2 1203//2
f 1172//5 1194//5 1205//5 1203//5
f 1209//5 1210//5 1212//5 1211//5
f 1213//5 1214//5 1216//5 1215//5
f 1211//5 1212//5 1218//5 1217//5
f 1210//5 1213//5 1215//5 1212//5
f 1212//5 1215//5 1219//5 1218//5
f 1220//5 1221//5 1223//5 1222//5
f 1214//5 1220//5 1222//5 1216//5
f 1051//5 1052//5 1153//5 1152//5
f 1056//5 1057//5 1157//5 1156//5
f 1052//5 1056//5 1156//5 1153//5
f 1076//5 1078//5 1176//5 1174//5
f 1175//6 1177//6 1079//6 1077//6
f 1087//4 1185//4 1184//4 1086//4
f 1084//5 1086//5 1184//5 1182//5
f 1183//6 1185//6 1087//6 1085//6
f 1078//5 1084//5 1182//5 1176//5
f 1177//6 1183//6 1085//6 1079//6
f 1057//5 1076//5 1174//5 1157//5
f 1158//6 1175//6 1077//6 1058//6
f 1130//5 1131//5 1210//5 1209//5
f 1134//5 1135//5 1214//5 1213//5
f 1131//5 1134//5 1213//5 1210//5
f 1146//5 1147//5 1221//5 1220//5
f 1150//5 1151//5 1225//5 1224//5
f 1147//5 1150//5 1224//5 1221//5
f 1135//5 1146//5 1220//5 1214//5
f 1026//5 1088//5 1090//5 1028//5
f 1036//5 1096//5 1098//5 1038//5
f 1028//5 1090//5 1096//5 1036//5
f 1068//5 1120//5 1122//5 1071//5
f 1083//5 1128//5 1130//5 1087//5
f 1071//5 1122//5 1128//5 1083//5
f 1038//5 1098//5 1120//5 1068//5
f 1185//5 1209//5 1211//5 1189//5
f 1189//5 1211//5 1217//5 1200//5
f 1087//5 1130//5 1209//5 1185//5
f 1226//5 1227//5 1229//5 1228//5
f 1230//5 1231//5 1233//5 1232//5
f 1234//5 1235//5 1237//5 1236//5
f 1238//5 1239//5 1241//5 1240//5
f 1228//5 1229//5 1235//5 1234//5
f 1232//5 1233//5 1239//5 1238//5
f 1227//5 1230//5 1232//5 1229//5
f 1235//5 1238//5 1240//5 1237//5
f 1229//5 1232//5 1238//5 1235//5
f 1242//5 1243//5 1245//5 1244//5
f 1249//5 1250//5 1252//5 1251//5
f 1244//5 1245//5 1250//5 1249//5
f 1243//5 1246//5 1248//5 1245//5
f 1245//5 1248//5 1253//5 1250//5
f 1254//5 1255//5 1257//5 1256//5
f 1258//5 1259//5 1261//5 1260//5
f 1256//5 1257//5 1263//5 1262//5
f 1255//5 1258//5 1260//5 1257//5
f 1257//5 1260//5 1265//5 1263//5
f 1236//5 1237//5 1255//5 1254//5
f 1240//5 1241//5 1259//5 1258//5
f 1237//5 1240//5 1258//5 1255//5
f 1231//5 1242//5 1244//5 1233//5
f 1239//5 1249//5 1251//5 1241//5
f 1233//5 1244//5 1249//5 1239//5
f 1241//5 1251//5 1266//5 1259//5
f 1109//5 1226//5 1228//5 1111//5
f 1117//5 1234//5 1236//5 1119//5
f 1111//5 1228//5 1234//5 1117//5
f 1141//5 1254//5 1256//5 1143//5
f 1149//5 1262//5 1264//5 1151//5
f 1143//5 1256//5 1262//5 1149//5
f 1119//5 1236//5 1254//5 1141//5
f 1267//3 1270//3 1271//3 1268//3
f 1271//6 1272//6 1269//6 1268//6
f 1275//4 1278//4 1277//4 1274//4
f 1276//6 1278//6 1275//6 1273//6
f 1281//6 1282//6 1280//6 1279//6
f 1286//6 1288//6 1285//6 1283//6
f 1279//6 1280//6 1272//6 1271//6
f 1278//4 1285//4 1284//4 1277//4
f 1283//6 1285//6 1278//6 1276//6
f 1272//6 1276//6 1273//6 1269//6
f 1282//6 1286//6 1283//6 1280//6
f 1280//6 1283//6 1276//6 1272//6
f 1291//6 1292//6 1290//6 1289//6
f 1295//6 1296//6 1294//6 1293//6
f 1298//4 1301//4 1300//4 1297//4
f 1300//6 1302//6 1299//6 1297//6
f 1305//6 1306//6 1304//6 1303//6
f 1297//6 1299//6 1292//6 1291//6
f 1303//6 1304//6 1296//6 1295//6
f 1292//6 1295//6 1293//6 1290//6
f 1302//6 1305//6 1303//6 1299//6
f 1299//6 1303//6 1295//6 1292//6
f 1309//6 1310//6 1308//6 1307//6
f 1314//6 1316//6 1313//6 1311//6
f 1319//6 1320//6 1318//6 1317//6
f 1324//6 1326//6 1323//6 1321//6
f 1317//6 1318//6 1310//6 1309//6
f 1321//6 1323//6 1316//6 1314//6
f 1310//6 1314//6 1311//6 1308//6
f 1320//6 1324//6 1321//6 1318//6
f 1318//6 1321//6 1314//6 1310//6
f 1327//1 1328//1 1330//1 1329//1
f 1330//4 1334//4 1333//4 1329//4
f 1327//5 1329//5 1333//5 1331//5
f 1332//6 1334//6 1330//6 1328//6
f 1337//6 1339//6 1336//6 1335//6
f 1340//5 1342//5 1346//5 1344//5
f 1345//6 1347//6 1343//6 1341//6
f 1348//1 1349//1 1351//1 1350//1
f 1351//4 1355//4 1354//4 1350//4
f 1348//5 1350//5 1354//5 1352//5
f 1353//6 1355//6 1351//6 1349//6
f 1331//5 1333//5 1342//5 1340//5
f 1341//6 1343//6 1334//6 1332//6
f 1338//4 1349//4 1348//4 1337//4
f 1348//6 1350//6 1339//6 1337//6
f 1333//1 1334//1 1338//1 1337//1
f 1333//6 1337//6 1335//6 1329//6
f 1342//5 1348//5 1352//5 1346//5
f 1347//6 1353//6 1349//6 1343//6
f 1333//5 1337//5 1348//5 1342//5
f 1343//6 1349//6 1338//6 1334//6
f 1307//6 1308//6 1282//6 1281//6
f 1311//6 1313//6 1288//6 1286//6
f 1308//6 1311//6 1286//6 1282//6
f 1301//4 1328//4 1327//4 1300//4
f 1327//6 1329//6 1302//6 1300//6
f 1335//6 1336//6 1306//6 1305//6
f 1329//6 1335//6 1305//6 1302//6
f 1277//6 1291//6 1289//6 1274//6
f 1284//1 1285//1 1298//1 1297//1
f 1284//5 1297//5 1300//5 1287//5
f 1288//6 1301//6 1298//6 1285//6
f 1284//6 1297//6 1291//6 1277//6
f 1312//5 1327//5 1331//5 1315//5
f 1316//6 1332//6 1328//6 1313//6
f 1322//5 1340//5 1344//5 1325//5
f 1326//6 1345//6 1341//6 1323//6
f 1315//5 1331//5 1340//5 1322//5
f 1323//6 1341//6 1332//6 1316//6
f 1287//5 1300//5 1327//5 1312//5
f 1313//6 1328//6 1301//6 1288//6
f 1358//6 1359//6 1357//6 1356//6
f 1362//6 1363//6 1361//6 1360//6
f 1366//6 1367//6 1365//6 1364//6
f 1370//6 1371//6 1369//6 1368//6
f 1364//6 1365//6 1359//6 1358//6
f 1368//6 1369//6 1363//6 1362//6
f 1359//6 1362//6 1360//6 1357//6
f 1367//6 1370//6 1368//6 1365//6
f 1365//6 1368//6 1362//6 1359//6
f 1374//6 1375//6 1373//6 1372//6
f 1378//6 1379//6 1377//6 1376//6
f 1382//6 1383//6 1381//6 1380//6
f 1386//6 1387//6 1385//6 1384//6
f 1380//6 1381//6 1375//6 1374//6
f 1384//6 1385//6 1379//6 1378//6
f 1375//6 1378//6 1376//6 1373//6
f 1383//6 1386//6 1384//6 1381//6
f 1381//6 1384//6 1378//6 1375//6
f 1390//6 1391//6 1389//6 1388//6
f 1394//6 1395//6 1393//6 1392//6
f 1398//6 1399//6 1397//6 1396//6
f 1402//6 1403//6 1401//6 1400//6
f 1396//6 1397//6 1391//6 1390//6
f 1400//6 1401//6 1395//6 1394//6
f 1391//6 1394//6 1392//6 1389//6
f 1399//6 1402//6 1400//6 1397//6
f 1397//6 1400//6 1394//6 1391//6
f 1406//6 1407//6 1405//6 1404//6
f 1410//6 1411//6 1409//6 1408//6
f 1414//6 1415//6 1413//6 1412//6
f 1418//6 1419//6 1417//6 1416//6
f 1412//6 1413//6 1407//6 1406//6
f 1416//6 1417//6 1411//6 1410//6
f 1407//6 1410//6 1408//6 1405//6
f 1415//6 1418//6 1416//6 1413//6
f 1413//6 1416//6 1410//6 1407//6
f 1388//6 1389//6 1367//6 1366//6
f 1392//6 1393//6 1371//6 1370//6
f 1389//6 1392//6 1370//6 1367//6
f 1404//6 1405//6 1383//6 1382//6
f 1408//6 1409//6 1387//6 1386//6
f 1405//6 1408//6 1386//6 1383//6
f 1363//6 1374//6 1372//6 1361//6
f 1371//6 1382//6 1380//6 1369//6
f 1369//6 1380//6 1374//6 1363//6
f 1395//6 1406//6 1404//6 1393//6
f 1403//6 1414//6 1412//6 1401//6
f 1401//6 1412//6 1406//6 1395//6
f 1393//6 1404//6 1382//6 1371//6
f 1422//6 1423//6 1421//6 1420//6
f 1427//6 1428//6 1426//6 1424//6
f 1434//2 1435//2 1433//2 1432//2
f 1429//3 1432//3 1433//3 1430//3
f 1433//6 1435//6 1431//6 1430//6
f 1440//2 1441//2 1439//2 1438//2
f 1439//6 1441//6 1437//6 1436//6
f 1430//6 1431//6 1423//6 1422//6
f 1436//6 1437//6 1428//6 1427//6
f 1423//6 1427//6 1424//6 1421//6
f 1438//2 1439//2 1435//2 1434//2
f 1435//6 1439//6 1436//6 1431//6
f 1431//6 1436//6 1427//6 1423//6
f 1442//5 1444//5 1448//5 1446//5
f 1447//6 1449//6 1445//6 1443//6
f 1456//2 1457//2 1455//2 1454//2
f 1453//4 1457//4 1456//4 1452//4
f 1450//5 1452//5 1456//5 1454//5
f 1455//6 1457//6 1453//6 1451//6
f 1458//5 1460//5 1464//5 1462//5
f 1463//6 1465//6 1461//6 1459//6
f 1467//4 1470//4 1469//4 1466//4
f 1446//5 1448//5 1460//5 1458//5
f 1459//6 1461//6 1449//6 1447//6
f 1455//4 1467//4 1466//4 1454//4
f 1466//6 1468//6 1456//6 1454//6
f 1444//5 1450//5 1454//5 1448//5
f 1449//6 1455//6 1451//6 1445//6
f 1469//2 1470//2 1465//2 1464//2
f 1460//5 1466//5 1469//5 1464//5
f 1465//6 1470//6 1467//6 1461//6
f 1448//5 1454//5 1466//5 1460//5
f 1461//6 1467//6 1455//6 1449//6
f 1475//2 1476//2 1474//2 1473//2
f 1440//3 1471//3 1472//3 1441//3
f 1465//4 1476//4 1475//4 1464//4
f 1474//6 1476//6 1465//6 1463//6
f 1428//6 1447//6 1443//6 1426//6
f 1441//6 1463//6 1459//6 1437//6
f 1437//6 1459//6 1447//6 1428//6
f 1473//2 1474//2 1472//2 1471//2
f 1472//6 1474//6 1463//6 1441//6
f 1479//6 1480//6 1478//6 1477//6
f 1483//6 1484//6 1482//6 1481//6
f 1485//6 1486//6 1480//6 1479//6
f 1480//6 1483//6 1481//6 1478//6
f 1486//6 1487//6 1483//6 1480//6
f 1490//6 1491//6 1489//6 1488//6
f 1484//6 1490//6 1488//6 1482//6
f 1420//6 1421//6 1320//6 1319//6
f 1424//6 1426//6 1326//6 1324//6
f 1421//6 1424//6 1324//6 1320//6
f 1344//5 1346//5 1444//5 1442//5
f 1443//6 1445//6 1347//6 1345//6
f 1355//4 1453//4 1452//4 1354//4
f 1352//5 1354//5 1452//5 1450//5
f 1451//6 1453//6 1355//6 1353//6
f 1346//5 1352//5 1450//5 1444//5
f 1445//6 1451//6 1353//6 1347//6
f 1325//5 1344//5 1442//5 1425//5
f 1426//6 1443//6 1345//6 1326//6
f 1477//6 1478//6 1399//6 1398//6
f 1481//6 1482//6 1403//6 1402//6
f 1478//6 1481//6 1402//6 1399//6
f 1488//6 1489//6 1415//6 1414//6
f 1492//6 1493//6 1419//6 1418//6
f 1489//6 1492//6 1418//6 1415//6
f 1482//6 1488//6 1414//6 1403//6
f 1296//6 1358//6 1356//6 1294//6
f 1306//6 1366//6 1364//6 1304//6
f 1304//6 1364//6 1358//6 1296//6
f 1339//6 1390//6 1388//6 1336//6
f 1354//6 1398//6 1396//6 1350//6
f 1350//6 1396//6 1390//6 1339//6
f 1336//6 1388//6 1366//6 1306//6
f 1456//6 1479//6 1477//6 1452//6
f 1468//6 1485//6 1479//6 1456//6
f 1452//6 1477//6 1398//6 1354//6
f 1496//6 1497//6 1495//6 1494//6
f 1500//6 1501//6 1499//6 1498//6
f 1504//6 1505//6 1503//6 1502//6
f 1508//6 1509//6 1507//6 1506//6
f 1502//6 1503//6 1497//6 1496//6
f 1506//6 1507//6 1501//6 1500//6
f 1497//6 1500//6 1498//6 1495//6
f 1505//6 1508//6 1506//6 1503//6
f 1503//6 1506//6 1500//6 1497//6
f 1512//6 1513//6 1511//6 1510//6
f 1519//6 1520//6 1518//6 1517//6
f 1517//6 1518//6 1513//6 1512//6
f 1513//6 1516//6 1514//6 1511//6
f 1518//6 1521//6 1516//6 1513//6
f 1524//6 1525//6 1523//6 1522//6
f 1528//6 1529//6 1527//6 1526//6
f 1530//6 1531//6 1525//6 1524//6
f 1525//6 1528//6 1526//6 1523//6
f 1531//6 1533//6 1528//6 1525//6
f 1522//6 1523//6 1505//6 1504//6
f 1526//6 1527//6 1509//6 1508//6
f 1523//6 1526//6 1508//6 1505//6
f 1501//6 1512//6 1510//6 1499//6
f 1509//6 1519//6 1517//6 1507//6
f 1507//6 1517//6 1512//6 1501//6
f 1527//6 1534//6 1519//6 1509//6
f 1379//6 1496//6 1494//6 1377//6
f 1387//6 1504//6 1502//6 1385//6
f 1385//6 1502//6 1496//6 1379//6
f 1411//6 1524//6 1522//6 1409//6
f 1419//6 1532//6 1530//6 1417//6
f 1417//6 1530//6 1524//6 1411//6
f 1409//6 1522//6 1504//6 1387//6
f 31//3 369//3 370//3 32//3
f 34//4 372//4 371//4 33//4
f 31//5 33//5 371//5 369//5
f 34//5 35//5 377//5 372//5
f 78//3 417//3 418//3 79//3
f 78//5 80//5 419//5 417//5
f 86//4 425//4 424//4 85//4
f 83//5 85//5 424//5 423//5
f 80//5 83//5 423//5 419//5
f 117//3 684//3 685//3 118//3
f 120//4 687//4 686//4 119//4
f 685//6 687//6 120//6 118//6
f 686//6 691//6 121//6 119//6
f 164//3 732//3 733//3 165//3
f 733//6 734//6 167//6 165//6
f 172//4 740//4 739//4 171//4
f 738//6 740//6 172//6 170//6
f 734//6 738//6 170//6 167//6
f 173//3 999//3 1000//3 174//3
f 173//5 175//5 1001//5 999//5
f 180//4 1007//4 1006//4 179//4
f 177//5 179//5 1006//5 1005//5
f 175//5 177//5 1005//5 1001//5
f 181//5 182//5 1022//5 1021//5
f 183//5 184//5 1026//5 1025//5
f 182//5 183//5 1025//5 1022//5
f 180//5 181//5 1021//5 1007//5
f 185//5 186//5 1089//5 1088//5
f 187//5 188//5 1093//5 1092//5
f 186//5 187//5 1092//5 1089//5
f 192//5 193//5 1105//5 1104//5
f 196//5 197//5 1109//5 1108//5
f 193//5 196//5 1108//5 1105//5
f 188//5 192//5 1104//5 1093//5
f 184//5 185//5 1088//5 1026//5
f 231//5 232//5 1227//5 1226//5
f 235//5 236//5 1231//5 1230//5
f 232//5 235//5 1230//5 1227//5
f 247//5 248//5 1243//5 1242//5
f 251//5 252//5 1247//5 1246//5
f 248//5 251//5 1246//5 1243//5
f 236//5 247//5 1242//5 1231//5
f 197//5 231//5 1226//5 1109//5
f 271//3 1267//3 1268//3 272//3
f 1268//6 1269//6 274//6 272//6
f 278//4 1275//4 1274//4 277//4
f 1273//6 1275//6 278//6 276//6
f 1269//6 1273//6 276//6 274//6
f 1289//6 1290//6 280//6 279//6
f 1293//6 1294//6 282//6 281//6
f 1290//6 1293//6 281//6 280//6
f 1274//6 1289//6 279//6 277//6
f 1356//6 1357//6 284//6 283//6
f 1360//6 1361//6 286//6 285//6
f 1357//6 1360//6 285//6 284//6
f 1372//6 1373//6 291//6 290//6
f 1376//6 1377//6 295//6 294//6
f 1373//6 1376//6 294//6 291//6
f 1361//6 1372//6 290//6 286//6
f 1294//6 1356//6 283//6 282//6
f 1494//6 1495//6 330//6 329//6
f 1498//6 1499//6 334//6 333//6
f 1495//6 1498//6 333//6 330//6
f 1510//6 1511//6 346//6 345//6
f 1514//6 1515//6 350//6 349//6
f 1511//6 1514//6 349//6 346//6
f 1499//6 1510//6 345//6 334//6
f 1377//6 1494//6 329//6 295//6
f 566//1 567//1 1003//1 1002//1
f 568//5 1011//5 1013//5 572//5
f 566//5 1002//5 1011//5 568//5
f 599//5 1039//5 1041//5 601//5
f 607//5 1049//5 1051//5 609//5
f 601//5 1041//5 1049//5 607//5
f 572//5 1013//5 1039//5 599//5
f 669//5 1152//5 1154//5 671//5
f 1161//2 1162//2 681//2 680//2
f 671//5 1154//5 1161//5 680//5
f 609//5 1051//5 1152//5 669//5
f 881//1 882//1 1271//1 1270//1
f 888//6 1281//6 1279//6 884//6
f 884//6 1279//6 1271//6 882//6
f 916//6 1309//6 1307//6 914//6
f 924//6 1319//6 1317//6 922//6
f 922//6 1317//6 1309//6 916//6
f 914//6 1307//6 1281//6 888//6
f 986//6 1422//6 1420//6 984//6
f 1429//2 1430//2 996//2 995//2
f 996//6 1430//6 1422//6 986//6
f 984//6 1420//6 1319//6 924//6
f 1//1 87//1 88//1 3//1
f 5//1 91//1 92//1 7//1
f 4//3 7//3 92//3 90//3
f 15//2 100//2 98//2 13//2
f 4//1 90//1 94//1 9//1
f 1//3 9//3 94//3 87//3
f 17//3 21//3 106//3 102//3
f 110//4 112//4 26//4 25//4
f 28//3 32//3 117//3 113//3
f 115//4 119//4 34//4 30//4
f 26//2 112//2 108//2 23//2
f 34//1 119//1 121//1 35//1
f 21//3 28//3 113//3 106//3
f 108//4 115//4 30//4 23//4
f 5//3 17//3 102//3 91//3
f 98//4 110//4 25//4 13//4
f 37//1 122//1 124//1 39//1
f 41//1 126//1 128//1 43//1
f 47//2 132//2 130//2 45//2
f 130//4 134//4 48//4 45//4
f 56//2 141//2 139//2 54//2
f 50//3 54//3 139//3 135//3
f 39//1 124//1 126//1 41//1
f 50//2 135//2 132//2 47//2
f 128//4 137//4 52//4 43//4
f 60//1 145//1 147//1 62//1
f 143//4 145//4 60//4 58//4
f 66//3 70//3 155//3 151//3
f 153//4 157//4 72//4 68//4
f 75//3 79//3 164//3 160//3
f 84//1 169//1 171//1 86//1
f 168//4 169//4 84//4 82//4
f 72//1 157//1 159//1 73//1
f 70//3 75//3 160//3 155//3
f 159//4 168//4 82//4 73//4
f 52//1 137//1 143//1 58//1
f 66//2 151//2 149//2 64//2
f 56//3 64//3 149//3 141//3
f 147//4 153//4 68//4 62//4
f 3//1 88//1 122//1 37//1
f 48//2 134//2 100//2 15//2
f 174//1 271//1 273//1 176//1
f 178//1 275//1 277//1 180//1
f 176//1 273//1 275//1 178//1
f 181//1 279//1 280//1 182//1
f 183//1 281//1 282//1 184//1
f 182//1 280//1 281//1 183//1
f 180//1 277//1 279//1 181//1
f 185//1 283//1 284//1 186//1
f 187//1 285//1 286//1 188//1
f 186//1 284//1 285//1 187//1
f 190//1 288//1 289//1 191//1
f 190//3 192//3 290//3 288//3
f 194//1 292//1 293//1 195//1
f 191//1 289//1 292//1 194//1
f 189//3 195//3 293//3 287//3
f 188//1 286//1 290//1 192//1
f 184//1 282//1 283//1 185//1
f 199//1 297//1 298//1 200//1
f 199//3 201//3 299//3 297//3
f 298//4 300//4 202//4 200//4
f 204//1 302//1 303//1 205//1
f 203//3 205//3 303//3 301//3
f 209//2 307//2 306//2 208//2
f 305//4 307//4 209//4 207//4
f 198//1 296//1 299//1 201//1
f 198//3 203//3 301//3 296//3
f 300//4 305//4 207//4 202//4
f 212//1 310//1 311//1 213//1
f 211//3 213//3 311//3 309//3
f 214//1 312//1 313//1 215//1
f 214//3 216//3 314//3 312//3
f 215//1 313//1 316//1 218//1
f 212//3 218//3 316//3 310//3
f 223//1 321//1 322//1 224//1
f 222//3 224//3 322//3 320//3
f 225//1 323//1 324//1 226//1
f 222//1 320//1 323//1 225//1
f 210//1 308//1 314//1 216//1
f 210//3 226//3 324//3 308//3
f 355//4 356//4 258//4 257//4
f 361//4 362//4 264//4 263//4
f 264//2 362//2 360//2 262//2
f 356//4 361//4 263//4 258//4
f 268//2 366//2 365//2 267//2
f 364//4 366//4 268//4 266//4
f 367//4 368//4 270//4 269//4
f 365//4 367//4 269//4 267//4
f 360//4 364//4 266//4 262//4
f 211//1 309//1 351//1 253//1
f 270//2 368//2 350//2 252//2
f 204//3 253//3 351//3 302//3
f 306//4 355//4 257//4 208//4
f 189//1 287//1 321//1 223//1
f 375//2 689//2 688//2 373//2
f 370//3 373//3 688//3 684//3
f 379//1 693//1 695//1 381//1
f 691//4 693//4 379//4 377//4
f 384//3 388//3 702//3 698//3
f 384//2 698//2 697//2 382//2
f 375//3 382//3 697//3 689//3
f 394//2 708//2 706//2 392//2
f 394//3 396//3 710//3 708//3
f 388//3 392//3 706//3 702//3
f 400//1 714//1 716//1 402//1
f 398//3 402//3 716//3 713//3
f 404//1 718//1 720//1 406//1
f 412//2 726//2 724//2 410//2
f 414//1 728//1 730//1 416//1
f 724//4 728//4 414//4 410//4
f 412//3 416//3 730//3 726//3
f 406//1 720//1 724//1 410//1
f 712//4 718//4 404//4 397//4
f 400//3 410//3 724//3 714//3
f 448//2 762//2 760//2 446//2
f 455//2 769//2 767//2 453//2
f 450//3 453//3 767//3 764//3
f 450//2 764//2 762//2 448//2
f 439//3 446//3 760//3 753//3
f 398//1 713//1 732//1 418//1
f 467//2 781//2 769//2 455//2
f 476//2 790//2 788//2 474//2
f 480//2 794//2 792//2 478//2
f 480//3 482//3 796//3 794//3
f 478//2 792//2 790//2 476//2
f 381//1 695//1 712//1 397//1
f 439//2 753//2 710//2 396//2
f 467//3 474//3 788//3 781//3
f 484//1 798//1 800//1 486//1
f 490//1 804//1 806//1 492//1
f 486//1 800//1 804//1 490//1
f 506//1 820//1 822//1 508//1
f 818//4 820//4 506//4 504//4
f 519//1 833//1 835//1 521//1
f 829//4 833//4 519//4 515//4
f 517//3 521//3 835//3 831//3
f 511//1 825//1 829//1 515//1
f 822//4 825//4 511//4 508//4
f 492//1 806//1 818//1 504//1
f 555//1 869//1 871//1 557//1
f 563//1 877//1 879//1 565//1
f 875//4 877//4 563//4 561//4
f 557//1 871//1 875//1 561//1
f 571//1 885//1 887//1 573//1
f 569//3 573//3 887//3 883//3
f 567//3 569//3 883//3 881//3
f 592//1 906//1 908//1 594//1
f 594//1 908//1 912//1 598//1
f 580//1 894//1 906//1 592//1
f 879//4 894//4 580//4 565//4
f 571//3 598//3 912//3 885//3
f 615//2 929//2 927//2 613//2
f 624//2 938//2 936//2 622//2
f 619//2 933//2 929//2 615//2
f 619//3 622//3 936//3 933//3
f 636//2 950//2 948//2 634//2
f 643//2 957//2 955//2 641//2
f 638//3 641//3 955//3 952//3
f 638//2 952//2 950//2 636//2
f 634//2 948//2 938//2 624//2
f 657//2 971//2 969//2 655//2
f 663//2 977//2 975//2 661//2
f 661//2 975//2 971//2 657//2
f 677//2 991//2 989//2 675//2
f 681//2 995//2 993//2 679//2
f 993//4 997//4 683//4 679//4
f 683//2 997//2 991//2 677//2
f 675//2 989//2 977//2 663//2
f 517//1 831//1 869//1 555//1
f 655//2 969//2 957//2 643//2
f 425//1 739//1 798//1 484//1
f 613//2 927//2 796//2 482//2
f 1000//3 1003//3 1270//3 1267//3
f 1284//4 1287//4 1020//4 1017//4
f 1030//3 1033//3 1300//3 1297//3
f 1312//4 1315//4 1048//4 1045//4
f 1322//4 1325//4 1058//4 1055//4
f 1315//4 1322//4 1055//4 1048//4
f 1062//2 1329//2 1327//2 1060//2
f 1062//3 1066//3 1333//3 1329//3
f 1083//2 1350//2 1348//2 1081//2
f 1083//3 1087//3 1354//3 1350//3
f 1070//2 1337//2 1333//2 1066//2
f 1070//3 1081//3 1348//3 1337//3
f 1030//2 1297//2 1284//2 1017//2
f 1287//4 1312//4 1045//4 1020//4
f 1033//3 1060//3 1327//3 1300//3
f 1167//2 1434//2 1432//2 1165//2
f 1162//3 1165//3 1432//3 1429//3
f 1173//2 1440//2 1438//2 1171//2
f 1171//2 1438//2 1434//2 1167//2
f 1442//4 1446//4 1179//4 1175//4
f 1187//1 1454//1 1456//1 1189//1
f 1185//3 1189//3 1456//3 1452//3
f 1195//1 1462//1 1464//1 1197//1
f 1458//4 1462//4 1195//4 1191//4
f 1200//2 1468//2 1466//2 1199//2
f 1446//4 1458//4 1191//4 1179//4
f 1187//3 1199//3 1466//3 1454//3
f 1208//2 1475//2 1473//2 1206//2
f 1158//1 1425//1 1442//1 1175//1
f 1206//2 1473//2 1471//2 1204//2
f 1173//3 1204//3 1471//3 1440//3
f 1464//4 1475//4 1208//4 1197//4
f 1216//2 1484//2 1483//2 1215//2
f 1218//2 1486//2 1485//2 1217//2
f 1219//2 1487//2 1486//2 1218//2
f 1483//4 1487//4 1219//4 1215//4
f 1223//2 1491//2 1490//2 1222//2
f 1489//4 1491//4 1223//4 1221//4
f 1225//2 1493//2 1492//2 1224//2
f 1224//2 1492//2 1489//2 1221//2
f 1222//2 1490//2 1484//2 1216//2
f 1217//2 1485//2 1468//2 1200//2
f 1325//4 1425//4 1158//4 1058//4
f 1087//3 1185//3 1452//3 1354//3
f 1419//4 1493//4 1225//4 1151//4
f 1247//2 1515//2 1514//2 1246//2
f 1514//4 1516//4 1248//4 1246//4
f 1252//2 1520//2 1519//2 1251//2
f 1518//4 1520//4 1252//4 1250//4
f 1253//2 1521//2 1518//2 1250//2
f 1516//4 1521//4 1253//4 1248//4
f 1261//2 1529//2 1528//2 1260//2
f 1527//4 1529//4 1261//4 1259//4
f 1263//2 1531//2 1530//2 1262//2
f 1530//4 1532//4 1264//4 1262//4
f 1265//2 1533//2 1531//2 1263//2
f 1528//4 1533//4 1265//4 1260//4
f 1266//2 1534//2 1527//2 1259//2
f 1519//4 1534//4 1266//4 1251//4
f 1264//2 1532//2 1419//2 1151//2
f 567//1 881//1 1270//1 1003//1
f 1162//2 1429//2 995//2 681//2
f 32//3 370//3 684//3 117//3
f 121//4 691//4 377//4 35//4
f 79//3 418//3 732//3 164//3
f 171//4 739//4 425//4 86//4
f 174//3 1000//3 1267//3 271//3
f 350//4 1515//4 1247//4 252//4
