# Blender 5.1.1
# www.blender.org
mtllib magnum 3.mtl
o Magnum_3
v -0.280167 0.565809 -0.004016
v -0.280167 0.565809 0.005284
v -0.280066 0.549813 -0.004016
v -0.280066 0.549813 0.005284
v -0.468765 0.563321 -0.011417
v -0.468666 0.504506 -0.011417
v -0.468666 0.504506 0.012685
v -0.468765 0.563321 0.012685
v -0.439766 0.488592 0.012685
v -0.439766 0.488592 -0.011417
v -0.420466 0.477486 0.012685
v -0.420466 0.477486 -0.011417
v -0.397766 0.467858 0.012685
v -0.397766 0.467858 -0.011417
v -0.383866 0.497709 -0.011417
v -0.383866 0.497709 0.012685
v -0.397766 0.467858 -0.011417
v -0.397766 0.467858 0.012685
v -0.329565 0.536847 0.012685
v -0.329565 0.536847 -0.011417
v -0.292767 0.549581 0.012685
v -0.292767 0.549581 -0.011417
v -0.280066 0.549813 -0.004016
v -0.280066 0.549813 0.005284
v -0.432266 0.552066 -0.011417
v -0.468765 0.563321 0.012685
v -0.432266 0.552066 0.012685
v -0.468765 0.563321 -0.011417
v -0.415667 0.534282 -0.011417
v -0.415667 0.534282 0.012685
v -0.397865 0.525099 -0.011417
v -0.397865 0.525099 0.012685
v -0.384066 0.530910 -0.011417
v -0.384066 0.530910 0.012685
v -0.329666 0.556430 -0.011417
v -0.329666 0.556430 0.012685
v -0.292866 0.565577 -0.011417
v -0.292866 0.565577 0.012685
v -0.280167 0.565809 -0.004016
v -0.280167 0.565809 0.005284
v -0.468666 0.504506 -0.011417
v -0.432266 0.552066 -0.011417
v -0.439766 0.488592 -0.011417
v -0.468765 0.563321 -0.011417
v -0.415667 0.534282 -0.011417
v -0.420466 0.477486 -0.011417
v -0.397865 0.525099 -0.011417
v -0.397766 0.467858 -0.011417
v -0.383866 0.497709 -0.011417
v -0.384066 0.530910 -0.011417
v -0.329565 0.536847 -0.011417
v -0.329666 0.556430 -0.011417
v -0.292767 0.549581 -0.011417
v -0.292866 0.565577 -0.011417
v -0.280066 0.549813 -0.004016
v -0.280167 0.565809 -0.004016
v -0.439766 0.488592 0.012685
v -0.432266 0.552066 0.012685
v -0.468666 0.504506 0.012685
v -0.468765 0.563321 0.012685
v -0.415667 0.534282 0.012685
v -0.420466 0.477486 0.012685
v -0.397865 0.525099 0.012685
v -0.397766 0.467858 0.012685
v -0.383866 0.497709 0.012685
v -0.384066 0.530910 0.012685
v -0.329565 0.536847 0.012685
v -0.329666 0.556430 0.012685
v -0.292767 0.549581 0.012685
v -0.292866 0.565577 0.012685
v -0.280066 0.549813 0.005284
v -0.280167 0.565809 0.005284
vn 0.8677 0.0079 -0.4970
vn 0.8677 0.0079 0.4970
vn -1.0000 -0.0000 -0.0000
vn -0.8588 -0.5122 -0.0000
vn -0.8589 -0.5122 -0.0000
vn -0.4877 -0.8730 -0.0000
vn -0.4472 -0.8944 -0.0000
vn -0.3930 -0.9195 -0.0000
vn -0.3929 -0.9196 -0.0000
vn 0.7706 -0.6373 -0.0000
vn 0.9082 -0.4186 -0.0000
vn 0.4628 -0.8865 -0.0000
vn 0.1734 -0.9848 -0.0000
vn 0.0157 -0.9999 -0.0000
vn 0.0158 -0.9999 -0.0000
vn 0.5272 0.8497 -0.0000
vn 0.2924 0.9563 -0.0000
vn 0.5272 0.8498 -0.0000
vn 0.2925 0.9563 -0.0000
vn 0.6062 0.7953 -0.0000
vn 0.0388 0.9992 -0.0000
vn -0.4091 0.9125 -0.0000
vn -0.4090 0.9126 -0.0000
vn -0.3373 0.9414 -0.0000
vn -0.1337 0.9910 -0.0000
vn -0.0158 0.9999 -0.0000
vn -0.0000 -0.0000 -1.0000
vn 0.2591 -0.0000 -0.9659
vn 0.2591 -0.0000 -0.9658
vn -0.0000 -0.0000 1.0000
vn 0.2591 -0.0000 0.9659
vn 0.2592 -0.0000 0.9658
vt 0.729831 0.125904
vt 0.727647 0.125904
vt 0.729831 0.122133
vt 0.727647 0.122133
vt 0.969327 0.286182
vt 0.969327 0.286157
vt 0.974994 0.286157
vt 0.974994 0.286182
vt 0.974994 0.279325
vt 0.969327 0.279325
vt 0.974994 0.274780
vt 0.969327 0.274780
vt 0.974994 0.269423
vt 0.969327 0.269423
vt 0.867533 0.726139
vt 0.873200 0.726139
vt 0.867533 0.729393
vt 0.873200 0.729393
vt 0.873200 0.713334
vt 0.867533 0.713334
vt 0.873200 0.704658
vt 0.867533 0.704658
vt 0.869275 0.701648
vt 0.871459 0.701648
vt 0.944089 0.410099
vt 0.949756 0.401483
vt 0.949756 0.410099
vt 0.944089 0.401483
vt 0.944089 0.414014
vt 0.949756 0.414014
vt 0.944089 0.418217
vt 0.949756 0.418217
vt 0.944089 0.421472
vt 0.949756 0.421472
vt 0.944089 0.434277
vt 0.949756 0.434277
vt 0.944089 0.442952
vt 0.949756 0.442952
vt 0.945831 0.445963
vt 0.948015 0.445963
vt 0.059379 0.174266
vt 0.050792 0.185478
vt 0.052550 0.170514
vt 0.059404 0.188131
vt 0.046879 0.181285
vt 0.048007 0.167896
vt 0.042678 0.179121
vt 0.042653 0.165626
vt 0.039400 0.172663
vt 0.039425 0.180490
vt 0.026601 0.181890
vt 0.026626 0.186507
vt 0.017930 0.184892
vt 0.017955 0.188663
vt 0.014921 0.184947
vt 0.014946 0.188718
vt 0.645421 0.166214
vt 0.647179 0.181177
vt 0.638592 0.169965
vt 0.638567 0.183830
vt 0.651092 0.176985
vt 0.649964 0.163595
vt 0.655293 0.174820
vt 0.655318 0.161326
vt 0.658571 0.168363
vt 0.658546 0.176190
vt 0.671370 0.177590
vt 0.671345 0.182206
vt 0.680041 0.180591
vt 0.680016 0.184362
vt 0.683050 0.180646
vt 0.683025 0.184417
s 1
usemtl 10ye1b1Mtl
f 1/1/1 2/2/2 3/3/1
f 2/2/2 4/4/2 3/3/1
f 5/5/3 6/6/4 7/7/5
f 7/7/5 8/8/3 5/5/3
f 9/9/6 7/7/5 6/6/4
f 10/10/6 9/9/6 6/6/4
f 11/11/7 9/9/6 10/10/6
f 12/12/7 11/11/7 10/10/6
f 13/13/8 11/11/7 12/12/7
f 14/14/9 13/13/8 12/12/7
f 15/15/10 16/16/10 17/17/11
f 16/16/10 18/18/11 17/17/11
f 19/19/12 16/16/10 15/15/10
f 15/15/10 20/20/12 19/19/12
f 21/21/13 19/19/12 20/20/12
f 22/22/13 21/21/13 20/20/12
f 23/23/14 21/21/13 22/22/13
f 21/21/13 23/23/14 24/24/15
f 25/25/16 26/26/17 27/27/18
f 26/26/17 25/25/16 28/28/19
f 25/25/16 27/27/18 29/29/20
f 27/27/18 30/30/20 29/29/20
f 30/30/20 31/31/21 29/29/20
f 31/31/21 30/30/20 32/32/21
f 32/32/21 33/33/22 31/31/21
f 33/33/22 32/32/21 34/34/23
f 34/34/23 35/35/24 33/33/22
f 35/35/24 34/34/23 36/36/24
f 36/36/24 37/37/25 35/35/24
f 37/37/25 36/36/24 38/38/25
f 38/38/25 39/39/26 37/37/25
f 39/39/26 38/38/25 40/40/26
f 41/41/27 42/42/27 43/43/27
f 42/42/27 41/41/27 44/44/27
f 45/45/27 43/43/27 42/42/27
f 43/43/27 45/45/27 46/46/27
f 47/47/27 46/46/27 45/45/27
f 46/46/27 47/47/27 48/48/27
f 48/48/27 47/47/27 49/49/27
f 50/50/27 49/49/27 47/47/27
f 50/50/27 51/51/27 49/49/27
f 51/51/27 50/50/27 52/52/27
f 52/52/27 53/53/28 51/51/27
f 53/53/28 52/52/27 54/54/29
f 54/54/29 55/55/1 53/53/28
f 55/55/1 54/54/29 56/56/1
f 57/57/30 58/58/30 59/59/30
f 58/58/30 60/60/30 59/59/30
f 58/58/30 57/57/30 61/61/30
f 62/62/30 61/61/30 57/57/30
f 61/61/30 62/62/30 63/63/30
f 64/64/30 63/63/30 62/62/30
f 65/65/30 63/63/30 64/64/30
f 63/63/30 65/65/30 66/66/30
f 67/67/30 66/66/30 65/65/30
f 68/68/30 66/66/30 67/67/30
f 69/69/31 68/68/30 67/67/30
f 68/68/30 69/69/31 70/70/32
f 71/71/2 70/70/32 69/69/31
f 71/71/2 72/72/2 70/70/32
