# Blender 5.2.0 LTS
# www.blender.org
mtllib PB mag.mtl
o PB_mag
v 0.275146 0.106621 -0.077087
v 0.275146 0.456719 -0.077087
v 0.275146 0.456719 0.076904
v 0.275146 0.106621 0.076904
v 0.205200 0.106621 -0.077087
v 0.205200 -0.023262 0.076904
v 0.205200 -0.023262 -0.077087
v 0.205200 0.106621 0.076904
v 0.135193 -0.023262 -0.077087
v 0.135193 -0.233467 0.076904
v 0.135193 -0.233467 -0.077087
v 0.135193 -0.023262 0.076904
v 0.065186 -0.233467 -0.077087
v 0.065186 -0.233467 0.076904
v 0.065186 -0.303291 -0.077087
v 0.065186 -0.303291 0.076904
v -0.102844 0.456719 0.076904
v 0.275146 0.456719 0.076904
v -0.102844 0.456719 -0.077087
v 0.275146 0.456719 -0.077087
v -0.102844 0.256523 0.076904
v -0.102844 0.256523 -0.077087
v -0.158813 0.256523 -0.077087
v -0.158813 0.256523 0.076904
v -0.158813 0.106621 0.076904
v -0.158813 0.106621 -0.077087
v -0.214844 0.106621 -0.077087
v -0.214844 0.106621 0.076904
v -0.284851 -0.023262 -0.077087
v -0.284851 -0.023262 0.076904
v -0.214844 -0.023262 -0.077087
v -0.214844 -0.023262 0.076904
v 0.275146 0.456719 0.076904
v 0.205200 0.106621 0.076904
v 0.275146 0.106621 0.076904
v -0.102844 0.256523 0.076904
v -0.102844 0.456719 0.076904
v -0.158813 0.106621 0.076904
v -0.158813 0.256523 0.076904
v 0.135193 -0.023262 0.076904
v 0.205200 -0.023262 0.076904
v -0.214844 -0.023262 0.076904
v -0.214844 0.106621 0.076904
v 0.065186 -0.233467 0.076904
v 0.135193 -0.233467 0.076904
v -0.284851 -0.303291 0.076904
v -0.284851 -0.023262 0.076904
v 0.065186 -0.303291 0.076904
v -0.284851 -0.303291 -0.077087
v -0.284851 -0.023262 0.076904
v -0.284851 -0.023262 -0.077087
v -0.284851 -0.303291 0.076904
v -0.214844 0.106621 -0.077087
v -0.214844 -0.023262 -0.077087
v -0.214844 0.106621 0.076904
v -0.214844 -0.023262 0.076904
v -0.158813 0.256523 -0.077087
v -0.158813 0.106621 -0.077087
v -0.158813 0.106621 0.076904
v -0.158813 0.256523 0.076904
v -0.102844 0.456719 -0.077087
v -0.102844 0.256523 -0.077087
v -0.102844 0.256523 0.076904
v -0.102844 0.456719 0.076904
v 0.065186 -0.303291 0.076904
v -0.284851 -0.303291 0.076904
v 0.065186 -0.303291 -0.077087
v -0.284851 -0.303291 -0.077087
v 0.065186 -0.233467 0.076904
v 0.065186 -0.233467 -0.077087
v 0.135193 -0.233467 -0.077087
v 0.135193 -0.233467 0.076904
v 0.205200 -0.023262 -0.077087
v 0.205200 -0.023262 0.076904
v 0.135193 -0.023262 -0.077087
v 0.135193 -0.023262 0.076904
v 0.275146 0.106621 0.076904
v 0.205200 0.106621 -0.077087
v 0.275146 0.106621 -0.077087
v 0.205200 0.106621 0.076904
v 0.065186 -0.233467 -0.077087
v 0.135193 -0.023262 -0.077087
v 0.135193 -0.233467 -0.077087
v -0.284851 -0.303291 -0.077087
v 0.065186 -0.303291 -0.077087
v -0.214844 -0.023262 -0.077087
v -0.284851 -0.023262 -0.077087
v -0.158813 0.106621 -0.077087
v -0.214844 0.106621 -0.077087
v 0.205200 0.106621 -0.077087
v 0.205200 -0.023262 -0.077087
v -0.102844 0.256523 -0.077087
v -0.158813 0.256523 -0.077087
v 0.275146 0.456719 -0.077087
v 0.275146 0.106621 -0.077087
v -0.102844 0.456719 -0.077087
v 0.165161 0.406670 -0.081116
v 0.165161 0.406670 0.081909
v 0.165161 0.136650 -0.081116
v 0.165161 0.136650 0.081909
v 0.125183 0.136650 0.081909
v 0.125183 -0.003242 -0.081116
v 0.125183 0.136650 -0.081116
v 0.125183 -0.003242 0.081909
v 0.085205 -0.103340 -0.081116
v 0.085205 -0.003242 -0.081116
v 0.085205 -0.103340 0.081909
v 0.085205 -0.003242 0.081909
v 0.040161 -0.203438 -0.081116
v 0.040161 -0.103340 -0.081116
v 0.040161 -0.203438 0.081909
v 0.040161 -0.103340 0.081909
v 0.000183 -0.263252 0.081909
v 0.000183 -0.263252 -0.081116
v 0.000183 -0.203438 -0.081116
v 0.000183 -0.203438 0.081909
v -0.014832 0.406670 -0.081116
v -0.014832 0.406670 0.081909
v -0.014832 0.136650 -0.081116
v -0.014832 0.136650 0.081909
v -0.054810 0.136650 0.081909
v -0.054810 -0.003242 -0.081116
v -0.054810 0.136650 -0.081116
v -0.054810 -0.003242 0.081909
v -0.094849 -0.103340 -0.081116
v -0.094849 -0.003242 -0.081116
v -0.094849 -0.103340 0.081909
v -0.094849 -0.003242 0.081909
v -0.139832 -0.203438 -0.081116
v -0.139832 -0.103340 -0.081116
v -0.139832 -0.203438 0.081909
v -0.139832 -0.103340 0.081909
v -0.179810 -0.263252 0.081909
v -0.179810 -0.263252 -0.081116
v -0.179810 -0.203438 -0.081116
v -0.179810 -0.203438 0.081909
v -0.014832 0.406670 0.081909
v -0.014832 0.406670 -0.081116
v -0.054810 0.406670 -0.081116
v -0.054810 0.406670 0.081909
v 0.165161 0.406670 0.081909
v 0.165161 0.406670 -0.081116
v 0.125183 0.406670 -0.081116
v 0.125183 0.406670 0.081909
v -0.094849 0.166680 -0.081116
v -0.094849 0.166680 0.081909
v -0.054810 0.166680 -0.081116
v -0.054810 0.166680 0.081909
v 0.085205 0.166680 -0.081116
v 0.085205 0.166680 0.081909
v 0.125183 0.166680 -0.081116
v 0.125183 0.166680 0.081909
v -0.139832 0.036553 -0.081116
v -0.094849 0.036553 0.081909
v -0.094849 0.036553 -0.081116
v -0.139832 0.036553 0.081909
v 0.040161 0.036553 -0.081116
v 0.085205 0.036553 0.081909
v 0.085205 0.036553 -0.081116
v 0.040161 0.036553 0.081909
v -0.179810 -0.063301 -0.081116
v -0.139832 -0.063301 0.081909
v -0.139832 -0.063301 -0.081116
v -0.179810 -0.063301 0.081909
v 0.000183 -0.063301 -0.081116
v 0.040161 -0.063301 0.081909
v 0.040161 -0.063301 -0.081116
v 0.000183 -0.063301 0.081909
v -0.223816 -0.163398 -0.081116
v -0.179810 -0.163398 0.081909
v -0.179810 -0.163398 -0.081116
v -0.223816 -0.163398 0.081909
v -0.043823 -0.163398 -0.081116
v 0.000183 -0.163398 0.081909
v 0.000183 -0.163398 -0.081116
v -0.043823 -0.163398 0.081909
v -0.179810 -0.163398 0.081909
v -0.223816 -0.163398 0.081909
v -0.179810 -0.203438 0.081909
v -0.223816 -0.263252 0.081909
v -0.179810 -0.263252 0.081909
v -0.139832 -0.203438 0.081909
v -0.139832 -0.103340 0.081909
v -0.179810 -0.063301 0.081909
v -0.139832 -0.063301 0.081909
v -0.094849 -0.103340 0.081909
v -0.094849 -0.003242 0.081909
v -0.139832 0.036553 0.081909
v -0.094849 0.036553 0.081909
v -0.054810 -0.003242 0.081909
v -0.054810 0.136650 0.081909
v -0.094849 0.166680 0.081909
v -0.054810 0.166680 0.081909
v -0.014832 0.136650 0.081909
v -0.014832 0.406670 0.081909
v -0.054810 0.406670 0.081909
v 0.165161 0.136650 0.081909
v 0.125183 0.166680 0.081909
v 0.125183 0.136650 0.081909
v 0.165161 0.406670 0.081909
v 0.125183 0.406670 0.081909
v 0.085205 0.166680 0.081909
v 0.085205 0.036553 0.081909
v 0.125183 -0.003242 0.081909
v 0.085205 -0.003242 0.081909
v 0.040161 0.036553 0.081909
v 0.040161 -0.063301 0.081909
v 0.085205 -0.103340 0.081909
v 0.040161 -0.103340 0.081909
v 0.000183 -0.063301 0.081909
v 0.000183 -0.163398 0.081909
v 0.040161 -0.203438 0.081909
v 0.000183 -0.203438 0.081909
v -0.043823 -0.163398 0.081909
v -0.043823 -0.263252 0.081909
v 0.000183 -0.263252 0.081909
v -0.223816 -0.263252 0.081909
v -0.223816 -0.163398 -0.081116
v -0.223816 -0.263252 -0.081116
v -0.223816 -0.163398 0.081909
v -0.179810 -0.163398 0.081909
v -0.179810 -0.063301 -0.081116
v -0.179810 -0.163398 -0.081116
v -0.179810 -0.063301 0.081909
v -0.139832 -0.063301 0.081909
v -0.139832 0.036553 -0.081116
v -0.139832 -0.063301 -0.081116
v -0.139832 0.036553 0.081909
v -0.094849 0.166680 -0.081116
v -0.094849 0.036553 -0.081116
v -0.094849 0.036553 0.081909
v -0.094849 0.166680 0.081909
v -0.054810 0.406670 -0.081116
v -0.054810 0.166680 -0.081116
v -0.054810 0.406670 0.081909
v -0.054810 0.166680 0.081909
v -0.043823 -0.263252 0.081909
v -0.043823 -0.163398 -0.081116
v -0.043823 -0.263252 -0.081116
v -0.043823 -0.163398 0.081909
v 0.000183 -0.163398 0.081909
v 0.000183 -0.063301 -0.081116
v 0.000183 -0.163398 -0.081116
v 0.000183 -0.063301 0.081909
v 0.040161 -0.063301 0.081909
v 0.040161 0.036553 -0.081116
v 0.040161 -0.063301 -0.081116
v 0.040161 0.036553 0.081909
v 0.085205 0.166680 -0.081116
v 0.085205 0.036553 -0.081116
v 0.085205 0.036553 0.081909
v 0.085205 0.166680 0.081909
v 0.125183 0.406670 -0.081116
v 0.125183 0.166680 -0.081116
v 0.125183 0.406670 0.081909
v 0.125183 0.166680 0.081909
v -0.223816 -0.263252 0.081909
v -0.223816 -0.263252 -0.081116
v -0.179810 -0.263252 -0.081116
v -0.179810 -0.263252 0.081909
v -0.043823 -0.263252 0.081909
v -0.043823 -0.263252 -0.081116
v 0.000183 -0.263252 -0.081116
v 0.000183 -0.263252 0.081909
v -0.179810 -0.203438 0.081909
v -0.179810 -0.203438 -0.081116
v -0.139832 -0.203438 -0.081116
v -0.139832 -0.203438 0.081909
v 0.000183 -0.203438 0.081909
v 0.000183 -0.203438 -0.081116
v 0.040161 -0.203438 -0.081116
v 0.040161 -0.203438 0.081909
v -0.139832 -0.103340 0.081909
v -0.139832 -0.103340 -0.081116
v -0.094849 -0.103340 -0.081116
v -0.094849 -0.103340 0.081909
v 0.040161 -0.103340 0.081909
v 0.040161 -0.103340 -0.081116
v 0.085205 -0.103340 -0.081116
v 0.085205 -0.103340 0.081909
v -0.054810 -0.003242 -0.081116
v -0.054810 -0.003242 0.081909
v -0.094849 -0.003242 -0.081116
v -0.094849 -0.003242 0.081909
v 0.125183 -0.003242 -0.081116
v 0.125183 -0.003242 0.081909
v 0.085205 -0.003242 -0.081116
v 0.085205 -0.003242 0.081909
v -0.014832 0.136650 -0.081116
v -0.054810 0.136650 0.081909
v -0.054810 0.136650 -0.081116
v -0.014832 0.136650 0.081909
v 0.165161 0.136650 -0.081116
v 0.125183 0.136650 0.081909
v 0.125183 0.136650 -0.081116
v 0.165161 0.136650 0.081909
v -0.014832 0.406670 -0.081116
v -0.054810 0.166680 -0.081116
v -0.054810 0.406670 -0.081116
v -0.014832 0.136650 -0.081116
v -0.054810 0.136650 -0.081116
v -0.094849 0.166680 -0.081116
v -0.094849 0.036553 -0.081116
v -0.054810 -0.003242 -0.081116
v -0.094849 -0.003242 -0.081116
v -0.139832 0.036553 -0.081116
v -0.139832 -0.063301 -0.081116
v -0.094849 -0.103340 -0.081116
v -0.139832 -0.103340 -0.081116
v -0.179810 -0.063301 -0.081116
v -0.179810 -0.163398 -0.081116
v -0.139832 -0.203438 -0.081116
v -0.179810 -0.203438 -0.081116
v -0.223816 -0.163398 -0.081116
v -0.223816 -0.263252 -0.081116
v -0.179810 -0.263252 -0.081116
v 0.165161 0.406670 -0.081116
v 0.125183 0.166680 -0.081116
v 0.125183 0.406670 -0.081116
v 0.165161 0.136650 -0.081116
v 0.125183 0.136650 -0.081116
v 0.085205 0.166680 -0.081116
v 0.085205 0.036553 -0.081116
v 0.125183 -0.003242 -0.081116
v 0.085205 -0.003242 -0.081116
v 0.040161 0.036553 -0.081116
v 0.040161 -0.063301 -0.081116
v 0.085205 -0.103340 -0.081116
v 0.040161 -0.103340 -0.081116
v 0.000183 -0.063301 -0.081116
v 0.000183 -0.163398 -0.081116
v 0.040161 -0.203438 -0.081116
v 0.000183 -0.203438 -0.081116
v -0.043823 -0.163398 -0.081116
v -0.043823 -0.263252 -0.081116
v 0.000183 -0.263252 -0.081116
vn 1.0000 -0.0000 -0.0000
vn -0.0000 1.0000 -0.0000
vn 0.0001 -0.0000 1.0000
vn -0.0000 -0.0000 1.0000
vn -1.0000 -0.0000 -0.0000
vn -0.0000 -1.0000 -0.0000
vn -0.0000 -0.0000 -1.0000
vn -0.0001 -0.0000 -1.0000
vn 0.0002 -0.0000 1.0000
vn -0.0001 -0.0000 1.0000
vn -0.0003 -0.0000 1.0000
vn -0.0004 -0.0000 1.0000
vn -0.0002 -0.0000 1.0000
vn -0.0003 -0.0000 -1.0000
vn 0.0002 -0.0000 -1.0000
vt 6.076820 -8.970000
vt 6.076820 -8.620000
vt 5.923180 -8.620000
vt 5.923180 -8.970000
vt 5.923180 -9.106000
vt 6.076820 -9.106000
vt 5.923180 -9.310000
vt 6.076820 -9.310000
vt 6.076820 -9.380000
vt 5.923180 -9.380000
vt 6.098000 -8.923180
vt 5.720000 -8.923180
vt 6.098000 -9.076820
vt 5.720000 -9.076820
vt 6.154000 -9.076820
vt 6.154000 -8.923180
vt 6.210000 -9.076820
vt 6.210000 -8.923180
vt 6.280000 -9.076820
vt 6.280000 -8.923180
vt 6.280000 -8.620000
vt 6.210000 -8.970000
vt 6.280000 -8.970000
vt 5.902000 -8.820000
vt 5.902000 -8.620000
vt 5.846000 -8.970000
vt 5.846000 -8.820000
vt 6.140000 -9.106000
vt 6.210000 -9.106000
vt 5.790000 -9.106000
vt 5.790000 -8.970000
vt 6.070000 -9.310000
vt 6.140000 -9.310000
vt 5.720000 -9.380000
vt 5.720000 -9.106000
vt 6.070000 -9.380000
vt 5.923180 -8.820000
vt 6.076820 -8.820000
vt 6.070000 -8.923180
vt 6.070000 -9.076820
vt 6.140000 -9.076820
vt 6.140000 -8.923180
vt 5.930000 -9.310000
vt 5.860000 -9.106000
vt 5.860000 -9.310000
vt 6.280000 -9.380000
vt 5.930000 -9.380000
vt 6.280000 -9.106000
vt 6.154000 -8.970000
vt 6.098000 -8.820000
vt 6.154000 -8.820000
vt 5.720000 -8.620000
vt 5.720000 -8.970000
vt 6.098000 -8.620000
vt 0.081476 -34.666901
vt -0.081476 -34.666901
vt 0.081476 -34.934101
vt -0.081476 -34.934101
vt 0.081476 -35.072102
vt -0.081476 -35.072102
vt 0.081476 -35.172100
vt -0.081476 -35.172100
vt 0.081476 -35.272099
vt -0.081476 -35.272099
vt -0.081476 -35.333099
vt 0.081476 -35.333099
vt -0.014412 -34.918499
vt -0.014412 -35.081501
vt 0.025588 -35.081501
vt 0.025588 -34.918499
vt -0.194412 -34.918499
vt -0.194412 -35.081501
vt -0.154412 -35.081501
vt -0.154412 -34.918499
vt 0.065588 -35.081501
vt 0.065588 -34.918499
vt -0.114412 -35.081501
vt -0.114412 -34.918499
vt 0.110412 -35.081501
vt 0.110412 -34.918499
vt -0.069588 -35.081501
vt -0.069588 -34.918499
vt 0.150412 -35.081501
vt 0.150412 -34.918499
vt -0.029588 -35.081501
vt -0.029588 -34.918499
vt 0.194412 -35.081501
vt 0.194412 -34.918499
vt 0.014412 -35.081501
vt 0.014412 -34.918499
vt -0.150412 -35.237099
vt -0.194412 -35.237099
vt -0.150412 -35.272099
vt -0.194412 -35.333099
vt -0.150412 -35.333099
vt -0.110412 -35.272099
vt -0.110412 -35.172100
vt -0.150412 -35.132099
vt -0.110412 -35.132099
vt -0.065588 -35.172100
vt -0.065588 -35.072102
vt -0.110412 -35.036499
vt -0.065588 -35.036499
vt -0.025588 -35.072102
vt -0.025588 -34.934101
vt -0.065588 -34.902100
vt -0.025588 -34.902100
vt 0.014412 -34.934101
vt 0.014412 -34.666901
vt -0.025588 -34.666901
vt 0.194412 -34.934101
vt 0.154412 -34.902100
vt 0.154412 -34.934101
vt 0.194412 -34.666901
vt 0.154412 -34.666901
vt 0.114412 -34.902100
vt 0.114412 -35.036499
vt 0.154412 -35.072102
vt 0.114412 -35.072102
vt 0.069588 -35.036499
vt 0.069588 -35.132099
vt 0.114412 -35.172100
vt 0.069588 -35.172100
vt 0.029588 -35.132099
vt 0.029588 -35.237099
vt 0.069588 -35.272099
vt 0.029588 -35.272099
vt -0.014412 -35.237099
vt -0.014412 -35.333099
vt 0.029588 -35.333099
vt -0.081476 -35.237099
vt 0.081476 -35.237099
vt -0.081476 -35.132099
vt 0.081476 -35.132099
vt -0.081476 -35.036499
vt 0.081476 -35.036499
vt -0.081476 -34.902100
vt 0.081476 -34.902100
vt -0.150412 -35.081501
vt -0.150412 -34.918499
vt 0.029588 -35.081501
vt 0.029588 -34.918499
vt -0.110412 -35.081501
vt -0.110412 -34.918499
vt 0.069588 -35.081501
vt 0.069588 -34.918499
vt -0.065588 -35.081501
vt -0.065588 -34.918499
vt 0.114412 -35.081501
vt 0.114412 -34.918499
vt -0.025588 -35.081501
vt -0.025588 -34.918499
vt 0.154412 -35.081501
vt 0.154412 -34.918499
vt -0.014412 -34.666901
vt 0.025588 -34.902100
vt 0.025588 -34.666901
vt -0.014412 -34.934101
vt 0.025588 -34.934101
vt 0.065588 -34.902100
vt 0.065588 -35.036499
vt 0.025588 -35.072102
vt 0.065588 -35.072102
vt 0.110412 -35.036499
vt 0.110412 -35.132099
vt 0.065588 -35.172100
vt 0.110412 -35.172100
vt 0.150412 -35.132099
vt 0.150412 -35.237099
vt 0.110412 -35.272099
vt 0.150412 -35.272099
vt 0.194412 -35.237099
vt 0.194412 -35.333099
vt 0.150412 -35.333099
vt -0.194412 -34.666901
vt -0.154412 -34.902100
vt -0.154412 -34.666901
vt -0.194412 -34.934101
vt -0.154412 -34.934101
vt -0.114412 -34.902100
vt -0.114412 -35.036499
vt -0.154412 -35.072102
vt -0.114412 -35.072102
vt -0.069588 -35.036499
vt -0.069588 -35.132099
vt -0.114412 -35.172100
vt -0.069588 -35.172100
vt -0.029588 -35.132099
vt -0.029588 -35.237099
vt -0.069588 -35.272099
vt -0.029588 -35.272099
vt 0.014412 -35.237099
vt 0.014412 -35.333099
vt -0.029588 -35.333099
s 1
usemtl Meshpart1Mtl.002
f 1/1/1 2/2/1 3/3/1
f 1/1/1 3/3/1 4/4/1
f 5/1/1 6/5/1 7/6/1
f 6/5/1 5/1/1 8/4/1
f 9/6/1 10/7/1 11/8/1
f 10/7/1 9/6/1 12/5/1
f 13/8/1 14/7/1 15/9/1
f 15/9/1 14/7/1 16/10/1
f 17/11/2 18/12/2 19/13/2
f 20/14/2 19/13/2 18/12/2
f 21/11/2 22/13/2 23/15/2
f 23/15/2 24/16/2 21/11/2
f 25/16/2 26/15/2 27/17/2
f 27/17/2 28/18/2 25/16/2
f 29/19/2 30/20/2 31/17/2
f 31/17/2 30/20/2 32/18/2
f 33/21/3 34/22/4 35/23/4
f 33/21/3 36/24/4 34/22/4
f 36/24/4 33/21/3 37/25/4
f 38/26/4 34/22/4 36/24/4
f 38/26/4 36/24/4 39/27/4
f 34/22/4 38/26/4 40/28/4
f 40/28/4 41/29/4 34/22/4
f 42/30/4 40/28/4 38/26/4
f 38/26/4 43/31/4 42/30/4
f 40/28/4 42/30/4 44/32/4
f 45/33/4 40/28/4 44/32/4
f 44/32/4 42/30/4 46/34/4
f 42/30/4 47/35/4 46/34/4
f 44/32/4 46/34/4 48/36/4
f 49/10/5 50/6/5 51/5/5
f 50/6/5 49/10/5 52/9/5
f 53/4/5 54/5/5 55/1/5
f 54/5/5 56/6/5 55/1/5
f 57/37/5 58/4/5 59/1/5
f 57/37/5 59/1/5 60/38/5
f 61/3/5 62/37/5 63/38/5
f 61/3/5 63/38/5 64/2/5
f 65/39/6 66/12/6 67/40/6
f 68/14/6 67/40/6 66/12/6
f 69/39/6 70/40/6 71/41/6
f 71/41/6 72/42/6 69/39/6
f 73/17/6 74/18/6 75/41/6
f 75/41/6 74/18/6 76/42/6
f 77/20/6 78/17/6 79/19/6
f 78/17/6 77/20/6 80/18/6
f 81/43/7 82/44/7 83/45/7
f 84/46/8 81/43/7 85/47/7
f 84/46/8 86/29/7 81/43/7
f 82/44/7 81/43/7 86/29/7
f 86/29/7 84/46/8 87/48/7
f 86/29/7 88/49/7 82/44/7
f 88/49/7 86/29/7 89/22/7
f 88/49/7 90/31/7 82/44/7
f 90/31/7 91/30/7 82/44/7
f 90/31/7 88/49/7 92/50/7
f 88/49/7 93/51/7 92/50/7
f 94/52/7 90/31/7 92/50/7
f 90/31/7 94/52/7 95/53/7
f 94/52/7 92/50/7 96/54/7
usemtl Meshpart2Mtl.002
f 97/55/1 98/56/1 99/57/1
f 99/57/1 98/56/1 100/58/1
f 101/58/1 102/59/1 103/57/1
f 102/59/1 101/58/1 104/60/1
f 105/61/1 106/59/1 107/62/1
f 106/59/1 108/60/1 107/62/1
f 109/63/1 110/61/1 111/64/1
f 110/61/1 112/62/1 111/64/1
f 113/65/1 114/66/1 115/63/1
f 115/63/1 116/64/1 113/65/1
f 117/55/1 118/56/1 119/57/1
f 119/57/1 118/56/1 120/58/1
f 121/58/1 122/59/1 123/57/1
f 122/59/1 121/58/1 124/60/1
f 125/61/1 126/59/1 127/62/1
f 126/59/1 128/60/1 127/62/1
f 129/63/1 130/61/1 131/64/1
f 130/61/1 132/62/1 131/64/1
f 133/65/1 134/66/1 135/63/1
f 135/63/1 136/64/1 133/65/1
f 137/67/2 138/68/2 139/69/2
f 139/69/2 140/70/2 137/67/2
f 141/71/2 142/72/2 143/73/2
f 143/73/2 144/74/2 141/71/2
f 145/75/2 146/76/2 147/69/2
f 147/69/2 146/76/2 148/70/2
f 149/77/2 150/78/2 151/73/2
f 151/73/2 150/78/2 152/74/2
f 153/79/2 154/76/2 155/75/2
f 154/76/2 153/79/2 156/80/2
f 157/81/2 158/78/2 159/77/2
f 158/78/2 157/81/2 160/82/2
f 161/83/2 162/80/2 163/79/2
f 162/80/2 161/83/2 164/84/2
f 165/85/2 166/82/2 167/81/2
f 166/82/2 165/85/2 168/86/2
f 169/87/2 170/84/2 171/83/2
f 170/84/2 169/87/2 172/88/2
f 173/89/2 174/86/2 175/85/2
f 174/86/2 173/89/2 176/90/2
f 177/91/9 178/92/10 179/93/11
f 180/94/12 179/93/11 178/92/10
f 179/93/11 180/94/12 181/95/4
f 182/96/3 177/91/9 179/93/11
f 183/97/13 177/91/9 182/96/3
f 177/91/9 183/97/13 184/98/10
f 184/98/10 183/97/13 185/99/4
f 186/100/10 185/99/4 183/97/13
f 185/99/4 186/100/10 187/101/9
f 188/102/4 185/99/4 187/101/9
f 188/102/4 187/101/9 189/103/4
f 190/104/4 189/103/4 187/101/9
f 190/104/4 191/105/4 189/103/4
f 189/103/4 191/105/4 192/106/4
f 192/106/4 191/105/4 193/107/4
f 194/108/4 193/107/4 191/105/4
f 194/108/4 195/109/4 193/107/4
f 193/107/4 195/109/4 196/110/4
f 197/111/4 198/112/4 199/113/4
f 197/111/4 200/114/4 198/112/4
f 198/112/4 200/114/4 201/115/4
f 202/116/4 199/113/4 198/112/4
f 203/117/4 199/113/4 202/116/4
f 204/118/4 199/113/4 203/117/4
f 204/118/4 203/117/4 205/119/4
f 206/120/4 205/119/4 203/117/4
f 205/119/4 206/120/4 207/121/4
f 208/122/4 205/119/4 207/121/4
f 208/122/4 207/121/4 209/123/4
f 210/124/4 209/123/4 207/121/4
f 209/123/4 210/124/4 211/125/4
f 211/125/4 212/126/4 209/123/4
f 212/126/4 211/125/4 213/127/11
f 211/125/4 214/128/10 213/127/11
f 215/129/12 213/127/11 214/128/10
f 213/127/11 215/129/12 216/130/4
f 217/66/5 218/131/5 219/65/5
f 218/131/5 217/66/5 220/132/5
f 221/132/5 222/133/5 223/131/5
f 222/133/5 221/132/5 224/134/5
f 225/134/5 226/135/5 227/133/5
f 226/135/5 225/134/5 228/136/5
f 229/137/5 230/135/5 231/136/5
f 229/137/5 231/136/5 232/138/5
f 233/56/5 234/137/5 235/55/5
f 234/137/5 236/138/5 235/55/5
f 237/66/5 238/131/5 239/65/5
f 238/131/5 237/66/5 240/132/5
f 241/132/5 242/133/5 243/131/5
f 242/133/5 241/132/5 244/134/5
f 245/134/5 246/135/5 247/133/5
f 246/135/5 245/134/5 248/136/5
f 249/137/5 250/135/5 251/136/5
f 249/137/5 251/136/5 252/138/5
f 253/56/5 254/137/5 255/55/5
f 254/137/5 256/138/5 255/55/5
f 257/71/6 258/72/6 259/139/6
f 259/139/6 260/140/6 257/71/6
f 261/67/6 262/68/6 263/141/6
f 263/141/6 264/142/6 261/67/6
f 265/140/6 266/139/6 267/143/6
f 267/143/6 268/144/6 265/140/6
f 269/142/6 270/141/6 271/145/6
f 271/145/6 272/146/6 269/142/6
f 273/144/6 274/143/6 275/147/6
f 275/147/6 276/148/6 273/144/6
f 277/146/6 278/145/6 279/149/6
f 279/149/6 280/150/6 277/146/6
f 281/151/6 282/152/6 283/147/6
f 283/147/6 282/152/6 284/148/6
f 285/153/6 286/154/6 287/149/6
f 287/149/6 286/154/6 288/150/6
f 289/89/6 290/152/6 291/151/6
f 290/152/6 289/89/6 292/90/6
f 293/87/6 294/154/6 295/153/6
f 294/154/6 293/87/6 296/88/6
f 297/155/7 298/156/7 299/157/7
f 298/156/7 297/155/7 300/158/7
f 301/159/14 298/156/7 300/158/7
f 298/156/7 301/159/14 302/160/8
f 303/161/14 302/160/8 301/159/14
f 301/159/14 304/162/7 303/161/14
f 303/161/14 304/162/7 305/163/15
f 305/163/15 306/164/8 303/161/14
f 307/165/8 306/164/8 305/163/15
f 308/166/7 307/165/8 305/163/15
f 307/165/8 308/166/7 309/167/7
f 309/167/7 310/168/7 307/165/8
f 311/169/7 310/168/7 309/167/7
f 312/170/7 311/169/7 309/167/7
f 311/169/7 312/170/7 313/171/7
f 313/171/7 314/172/7 311/169/7
f 313/171/7 315/173/7 314/172/7
f 315/173/7 313/171/7 316/174/7
f 317/175/7 318/176/7 319/177/7
f 318/176/7 317/175/7 320/178/7
f 321/179/14 318/176/7 320/178/7
f 318/176/7 321/179/14 322/180/8
f 323/181/14 322/180/8 321/179/14
f 321/179/14 324/182/7 323/181/14
f 323/181/14 324/182/7 325/183/7
f 325/183/7 326/184/7 323/181/14
f 326/184/7 325/183/7 327/185/15
f 325/183/7 328/186/7 327/185/15
f 327/185/15 328/186/7 329/187/7
f 329/187/7 330/188/7 327/185/15
f 331/189/7 330/188/7 329/187/7
f 332/190/7 331/189/7 329/187/7
f 331/189/7 332/190/7 333/191/7
f 333/191/7 334/192/7 331/189/7
f 333/191/7 335/193/7 334/192/7
f 335/193/7 333/191/7 336/194/7
