# Blender 5.1.2
# www.blender.org
mtllib pixelkeyrambit.mtl
o keyrambit
v -0.796522 -0.261673 -0.014420
v -0.796522 -0.232832 -0.014420
v -0.767681 -0.261673 -0.014420
v -0.767681 -0.232832 -0.014420
v -0.738840 -0.261673 -0.014420
v -0.738840 -0.232832 -0.014420
v -0.854204 -0.175151 -0.014420
v -0.854204 -0.146310 -0.014420
v -0.854204 -0.117469 -0.014420
v -0.854204 -0.088628 -0.014420
v -0.854204 -0.059787 -0.014420
v -0.854204 -0.030946 -0.014420
v -0.854204 -0.002105 -0.014420
v -0.825363 -0.203992 -0.014420
v -0.825363 -0.175151 -0.014420
v -0.796522 -0.203992 -0.014420
v -0.796522 -0.175151 -0.014420
v -0.825363 -0.146310 -0.014420
v -0.825363 -0.117469 -0.014420
v -0.796522 -0.146310 -0.014420
v -0.796522 -0.117469 -0.014420
v -0.767681 -0.203992 -0.014420
v -0.767681 -0.175151 -0.014420
v -0.738840 -0.203992 -0.014420
v -0.738840 -0.175151 -0.014420
v -0.767681 -0.146310 -0.014420
v -0.767681 -0.117469 -0.014420
v -0.738840 -0.146310 -0.014420
v -0.825363 -0.088628 -0.014420
v -0.825363 -0.059787 -0.014420
v -0.796522 -0.088628 -0.014420
v -0.796522 -0.059787 -0.014420
v -0.825363 -0.030946 -0.014420
v -0.825363 -0.002105 -0.014420
v -0.796522 -0.030946 -0.014420
v -0.796522 -0.002105 -0.014420
v -0.767681 -0.088628 -0.014420
v -0.767681 -0.059787 -0.014420
v -0.767681 -0.030946 -0.014420
v -0.767681 -0.002105 -0.014420
v -0.738840 -0.030946 -0.014420
v -0.738840 -0.002105 -0.014420
v -0.709999 -0.261673 -0.014420
v -0.709999 -0.232832 -0.014420
v -0.681158 -0.261673 -0.014420
v -0.681158 -0.232832 -0.014420
v -0.652317 -0.261673 -0.014420
v -0.652317 -0.232832 -0.014420
v -0.623477 -0.261673 -0.014420
v -0.623477 -0.232832 -0.014420
v -0.594636 -0.232832 -0.014420
v -0.709999 -0.203992 -0.014420
v -0.709999 -0.175151 -0.014420
v -0.681158 -0.203992 -0.014420
v -0.681158 -0.175151 -0.014420
v -0.652317 -0.203992 -0.014420
v -0.652317 -0.175151 -0.014420
v -0.623477 -0.203992 -0.014420
v -0.623477 -0.175151 -0.014420
v -0.652317 -0.146310 -0.014420
v -0.623477 -0.146310 -0.014420
v -0.623477 -0.117469 -0.014420
v -0.709999 -0.002105 -0.014420
v -0.681158 -0.002105 -0.014420
v -0.623477 -0.088628 -0.014420
v -0.623477 -0.059787 -0.014420
v -0.652317 -0.030946 -0.014420
v -0.652317 -0.002105 -0.014420
v -0.623477 -0.030946 -0.014420
v -0.623477 -0.002105 -0.014420
v -0.594636 -0.203992 -0.014420
v -0.594636 -0.175151 -0.014420
v -0.565795 -0.203992 -0.014420
v -0.565795 -0.175151 -0.014420
v -0.594636 -0.146310 -0.014420
v -0.594636 -0.117469 -0.014420
v -0.565795 -0.146310 -0.014420
v -0.565795 -0.117469 -0.014420
v -0.536954 -0.175151 -0.014420
v -0.536954 -0.146310 -0.014420
v -0.536954 -0.117469 -0.014420
v -0.594636 -0.088628 -0.014420
v -0.594636 -0.059787 -0.014420
v -0.565795 -0.088628 -0.014420
v -0.565795 -0.059787 -0.014420
v -0.594636 -0.030946 -0.014420
v -0.594636 -0.002105 -0.043261
v -0.594636 -0.002105 -0.014420
v -0.565795 -0.030946 -0.043261
v -0.565795 -0.030946 -0.014420
v -0.565795 -0.002105 -0.043261
v -0.565795 -0.002105 -0.014420
v -0.536954 -0.088628 -0.014420
v -0.536954 -0.059787 -0.043261
v -0.536954 -0.059787 -0.014420
v -0.508113 -0.059787 -0.043261
v -0.508113 -0.059787 -0.014420
v -0.536954 -0.030946 -0.043261
v -0.536954 -0.030946 -0.014420
v -0.536954 -0.002105 -0.043261
v -0.508113 -0.030946 -0.043261
v -0.508113 -0.002105 -0.043261
v -0.479272 -0.059787 -0.043261
v -0.479272 -0.059787 -0.014420
v -0.450431 -0.059787 -0.043261
v -0.450431 -0.059787 -0.014420
v -0.479272 -0.030946 -0.043261
v -0.479272 -0.002105 -0.043261
v -0.450431 -0.030946 -0.043261
v -0.450431 -0.002105 -0.043261
v -0.421590 -0.059787 -0.043261
v -0.421590 -0.059787 -0.014420
v -0.421590 -0.030946 -0.043261
v -0.421590 -0.030946 -0.014420
v -0.421590 -0.002105 -0.043261
v -0.392749 -0.030946 -0.043261
v -0.392749 -0.030946 -0.014420
v -0.392749 -0.002105 -0.043261
v -0.392749 -0.002105 -0.014420
v -0.363909 -0.030946 -0.014420
v -0.363909 -0.002105 -0.043261
v -0.363909 -0.002105 -0.014420
v -0.335068 -0.002105 -0.014420
v -0.796522 -0.261673 0.014420
v -0.796522 -0.232832 0.014420
v -0.767681 -0.261673 0.014420
v -0.767681 -0.232832 0.014420
v -0.738840 -0.261673 0.014420
v -0.738840 -0.232832 0.014420
v -0.854204 -0.175151 0.014420
v -0.854204 -0.146310 0.014420
v -0.854204 -0.117469 0.014420
v -0.854204 -0.088628 0.014420
v -0.854204 -0.059787 0.014420
v -0.854204 -0.030946 0.014420
v -0.854204 -0.002105 0.014420
v -0.825363 -0.203992 0.014420
v -0.825363 -0.175151 0.014420
v -0.796522 -0.203992 0.014420
v -0.796522 -0.175151 0.014420
v -0.825363 -0.146310 0.014420
v -0.825363 -0.117469 0.014420
v -0.796522 -0.146310 0.014420
v -0.796522 -0.117469 0.014420
v -0.767681 -0.203992 0.014420
v -0.767681 -0.175151 0.014420
v -0.738840 -0.203992 0.014420
v -0.738840 -0.175151 0.014420
v -0.767681 -0.146310 0.014420
v -0.767681 -0.117469 0.014420
v -0.738840 -0.146310 0.014420
v -0.825363 -0.088628 0.014420
v -0.825363 -0.059787 0.014420
v -0.796522 -0.088628 0.014420
v -0.796522 -0.059787 0.014420
v -0.825363 -0.030946 0.014420
v -0.825363 -0.002105 0.014420
v -0.796522 -0.030946 0.014420
v -0.796522 -0.002105 0.014420
v -0.767681 -0.088628 0.014420
v -0.767681 -0.059787 0.014420
v -0.767681 -0.030946 0.014420
v -0.767681 -0.002105 0.014420
v -0.738840 -0.030946 0.014420
v -0.738840 -0.002105 0.014420
v -0.709999 -0.261673 0.014420
v -0.709999 -0.232832 0.014420
v -0.681158 -0.261673 0.014420
v -0.681158 -0.232832 0.014420
v -0.652317 -0.261673 0.014420
v -0.652317 -0.232832 0.014420
v -0.623477 -0.261673 0.014420
v -0.623477 -0.232832 0.014420
v -0.594636 -0.232832 0.014420
v -0.709999 -0.203992 0.014420
v -0.709999 -0.175151 0.014420
v -0.681158 -0.203992 0.014420
v -0.681158 -0.175151 0.014420
v -0.652317 -0.203992 0.014420
v -0.652317 -0.175151 0.014420
v -0.623477 -0.203992 0.014420
v -0.623477 -0.175151 0.014420
v -0.652317 -0.146310 0.014420
v -0.623477 -0.146310 0.014420
v -0.623477 -0.117469 0.014420
v -0.709999 -0.002105 0.014420
v -0.681158 -0.002105 0.014420
v -0.623477 -0.088628 0.014420
v -0.623477 -0.059787 0.014420
v -0.652317 -0.030946 0.014420
v -0.652317 -0.002105 0.014420
v -0.623477 -0.030946 0.014420
v -0.623477 -0.002105 0.014420
v -0.594636 -0.203992 0.014420
v -0.594636 -0.175151 0.014420
v -0.565795 -0.203992 0.014420
v -0.565795 -0.175151 0.014420
v -0.594636 -0.146310 0.014420
v -0.594636 -0.117469 0.014420
v -0.565795 -0.146310 0.014420
v -0.565795 -0.117469 0.014420
v -0.536954 -0.175151 0.014420
v -0.536954 -0.146310 0.014420
v -0.536954 -0.117469 0.014420
v -0.594636 -0.088628 0.014420
v -0.594636 -0.059787 0.014420
v -0.565795 -0.088628 0.014420
v -0.565795 -0.059787 0.014420
v -0.594636 -0.030946 0.014420
v -0.594636 -0.002105 0.014420
v -0.594636 -0.002105 0.043261
v -0.565795 -0.030946 0.014420
v -0.565795 -0.030946 0.043261
v -0.565795 -0.002105 0.014420
v -0.565795 -0.002105 0.043261
v -0.536954 -0.088628 0.014420
v -0.536954 -0.059787 0.014420
v -0.536954 -0.059787 0.043261
v -0.508113 -0.059787 0.014420
v -0.508113 -0.059787 0.043261
v -0.536954 -0.030946 0.014420
v -0.536954 -0.030946 0.043261
v -0.536954 -0.002105 0.043261
v -0.508113 -0.030946 0.043261
v -0.508113 -0.002105 0.043261
v -0.479272 -0.059787 0.014420
v -0.479272 -0.059787 0.043261
v -0.450431 -0.059787 0.014420
v -0.450431 -0.059787 0.043261
v -0.479272 -0.030946 0.043261
v -0.479272 -0.002105 0.043261
v -0.450431 -0.030946 0.043261
v -0.450431 -0.002105 0.043261
v -0.421590 -0.059787 0.014420
v -0.421590 -0.059787 0.043261
v -0.421590 -0.030946 0.014420
v -0.421590 -0.030946 0.043261
v -0.421590 -0.002105 0.043261
v -0.392749 -0.030946 0.014420
v -0.392749 -0.030946 0.043261
v -0.392749 -0.002105 0.014420
v -0.392749 -0.002105 0.043261
v -0.363909 -0.030946 0.014420
v -0.363909 -0.002105 0.014420
v -0.363909 -0.002105 0.043261
v -0.335068 -0.002105 0.014420
v -0.825363 0.026735 -0.014420
v -0.796522 0.026735 -0.014420
v -0.767681 0.026735 -0.014420
v -0.767681 0.055576 -0.014420
v -0.738840 0.026735 -0.014420
v -0.738840 0.055576 -0.014420
v -0.738840 0.084417 -0.014420
v -0.709999 0.026735 -0.014420
v -0.709999 0.055576 -0.014420
v -0.681158 0.026735 -0.014420
v -0.681158 0.055576 -0.014420
v -0.709999 0.084417 -0.014420
v -0.681158 0.084417 -0.014420
v -0.652317 0.026735 -0.014420
v -0.652317 0.055576 -0.014420
v -0.623477 0.026735 -0.014420
v -0.623477 0.055576 -0.043261
v -0.623477 0.055576 -0.014420
v -0.652317 0.084417 -0.014420
v -0.623477 0.084417 -0.043261
v -0.623477 0.084417 -0.014420
v -0.623477 0.113258 -0.043261
v -0.623477 0.113258 -0.014420
v -0.623477 0.142099 -0.043261
v -0.623477 0.142099 -0.014420
v -0.623477 0.170940 -0.043261
v -0.623477 0.170940 -0.014420
v -0.623477 0.199781 -0.014420
v -0.594636 0.026735 -0.043261
v -0.594636 0.026735 -0.014420
v -0.594636 0.055576 -0.043261
v -0.594636 0.055576 -0.014420
v -0.565795 0.026735 -0.043261
v -0.565795 0.055576 -0.043261
v -0.565795 0.055576 -0.014420
v -0.594636 0.084417 -0.043261
v -0.594636 0.113258 -0.043261
v -0.565795 0.084417 -0.043261
v -0.565795 0.084417 -0.014420
v -0.565795 0.113258 -0.043261
v -0.565795 0.113258 -0.014420
v -0.536954 0.026735 -0.043261
v -0.536954 0.026735 -0.014420
v -0.536954 0.055576 -0.043261
v -0.536954 0.055576 -0.014420
v -0.508113 0.026735 -0.043261
v -0.508113 0.026735 -0.014420
v -0.508113 0.055576 -0.014420
v -0.536954 0.084417 -0.014420
v -0.536954 0.113258 -0.043261
v -0.536954 0.113258 -0.014420
v -0.508113 0.113258 -0.014420
v -0.594636 0.142099 -0.043261
v -0.594636 0.170940 -0.043261
v -0.594636 0.170940 -0.014420
v -0.565795 0.142099 -0.043261
v -0.565795 0.170940 -0.043261
v -0.594636 0.199781 -0.043261
v -0.594636 0.199781 -0.014420
v -0.565795 0.199781 -0.043261
v -0.565795 0.199781 -0.014420
v -0.565795 0.228622 -0.043261
v -0.565795 0.228622 -0.014420
v -0.536954 0.142099 -0.043261
v -0.536954 0.142099 -0.014420
v -0.536954 0.170940 -0.043261
v -0.508113 0.142099 -0.043261
v -0.508113 0.142099 -0.014420
v -0.508113 0.170940 -0.043261
v -0.536954 0.199781 -0.043261
v -0.536954 0.228622 -0.043261
v -0.536954 0.228622 -0.014420
v -0.508113 0.199781 -0.043261
v -0.508113 0.228622 -0.043261
v -0.508113 0.228622 -0.014420
v -0.536954 0.257463 -0.014420
v -0.508113 0.257463 -0.043261
v -0.508113 0.257463 -0.014420
v -0.479272 0.026735 -0.043261
v -0.479272 0.026735 -0.014420
v -0.450431 0.026735 -0.043261
v -0.450431 0.026735 -0.014420
v -0.450431 0.055576 -0.043261
v -0.450431 0.055576 -0.014420
v -0.421590 0.026735 -0.043261
v -0.421590 0.055576 -0.043261
v -0.421590 0.055576 -0.014420
v -0.392749 0.026735 -0.043261
v -0.392749 0.055576 -0.043261
v -0.421590 0.084417 -0.043261
v -0.421590 0.084417 -0.014420
v -0.392749 0.084417 -0.043261
v -0.392749 0.084417 -0.014420
v -0.392749 0.113258 -0.043261
v -0.392749 0.113258 -0.014420
v -0.479272 0.142099 -0.043261
v -0.479272 0.142099 -0.014420
v -0.479272 0.170940 -0.043261
v -0.479272 0.170940 -0.014420
v -0.450431 0.170940 -0.043261
v -0.450431 0.170940 -0.014420
v -0.479272 0.199781 -0.043261
v -0.479272 0.228622 -0.043261
v -0.450431 0.199781 -0.043261
v -0.450431 0.199781 -0.014420
v -0.450431 0.228622 -0.043261
v -0.421590 0.142099 -0.014420
v -0.421590 0.170940 -0.043261
v -0.421590 0.170940 -0.014420
v -0.392749 0.142099 -0.043261
v -0.392749 0.142099 -0.014420
v -0.392749 0.170940 -0.043261
v -0.392749 0.170940 -0.014420
v -0.421590 0.199781 -0.043261
v -0.421590 0.199781 -0.014420
v -0.421590 0.228622 -0.043261
v -0.392749 0.199781 -0.043261
v -0.392749 0.228622 -0.043261
v -0.363909 0.026735 -0.043261
v -0.363909 0.026735 -0.014420
v -0.363909 0.055576 -0.043261
v -0.335068 0.026735 -0.043261
v -0.335068 0.026735 -0.014420
v -0.335068 0.055576 -0.043261
v -0.335068 0.055576 -0.014420
v -0.363909 0.084417 -0.043261
v -0.363909 0.113258 -0.043261
v -0.335068 0.084417 -0.043261
v -0.335068 0.113258 -0.043261
v -0.306227 0.026735 -0.014420
v -0.306227 0.055576 -0.043261
v -0.306227 0.055576 -0.014420
v -0.277386 0.055576 -0.014420
v -0.306227 0.084417 -0.043261
v -0.306227 0.084417 -0.014420
v -0.306227 0.113258 -0.043261
v -0.306227 0.113258 -0.014420
v -0.277386 0.084417 -0.043261
v -0.277386 0.084417 -0.014420
v -0.277386 0.113258 -0.043261
v -0.277386 0.113258 -0.014420
v -0.363909 0.142099 -0.043261
v -0.363909 0.170940 -0.043261
v -0.335068 0.142099 -0.043261
v -0.335068 0.142099 -0.014420
v -0.335068 0.170940 -0.043261
v -0.335068 0.170940 -0.014420
v -0.363909 0.199781 -0.043261
v -0.363909 0.199781 -0.014420
v -0.363909 0.228622 -0.043261
v -0.363909 0.228622 -0.014420
v -0.335068 0.199781 -0.043261
v -0.335068 0.199781 -0.014420
v -0.335068 0.228622 -0.043261
v -0.335068 0.228622 -0.014420
v -0.306227 0.142099 -0.043261
v -0.306227 0.142099 -0.014420
v -0.277386 0.142099 -0.043261
v -0.277386 0.142099 -0.014420
v -0.306227 0.228622 -0.014420
v -0.277386 0.228622 -0.014420
v -0.479272 0.257463 -0.043261
v -0.479272 0.257463 -0.014420
v -0.479272 0.286304 -0.043261
v -0.479272 0.286304 -0.014420
v -0.450431 0.257463 -0.043261
v -0.450431 0.286304 -0.043261
v -0.450431 0.286304 -0.014420
v -0.421590 0.257463 -0.043261
v -0.421590 0.286304 -0.043261
v -0.421590 0.286304 -0.014420
v -0.392749 0.257463 -0.043261
v -0.392749 0.286304 -0.043261
v -0.392749 0.286304 -0.014420
v -0.421590 0.315144 -0.014420
v -0.392749 0.315144 -0.043261
v -0.392749 0.315144 -0.014420
v -0.363909 0.257463 -0.043261
v -0.363909 0.286304 -0.043261
v -0.335068 0.257463 -0.043261
v -0.335068 0.257463 -0.014420
v -0.335068 0.286304 -0.043261
v -0.363909 0.315144 -0.043261
v -0.363909 0.315144 -0.014420
v -0.335068 0.315144 -0.043261
v -0.335068 0.315144 -0.014420
v -0.306227 0.257463 -0.043261
v -0.306227 0.257463 -0.014420
v -0.306227 0.286304 -0.043261
v -0.277386 0.257463 -0.043261
v -0.277386 0.257463 -0.014420
v -0.277386 0.286304 -0.043261
v -0.306227 0.315144 -0.043261
v -0.306227 0.315144 -0.014420
v -0.277386 0.315144 -0.043261
v -0.277386 0.315144 -0.014420
v -0.277386 0.343985 -0.014420
v -0.248545 0.084417 -0.043261
v -0.248545 0.084417 -0.014420
v -0.248545 0.113258 -0.043261
v -0.219704 0.084417 -0.043261
v -0.219704 0.084417 -0.014420
v -0.219704 0.113258 -0.043261
v -0.219704 0.113258 -0.014420
v -0.190863 0.084417 -0.014420
v -0.190863 0.113258 -0.043261
v -0.190863 0.113258 -0.014420
v -0.162022 0.113258 -0.043261
v -0.162022 0.113258 -0.014420
v -0.248545 0.142099 -0.043261
v -0.248545 0.142099 -0.014420
v -0.248545 0.170940 -0.014420
v -0.219704 0.142099 -0.043261
v -0.219704 0.142099 -0.014420
v -0.219704 0.170940 -0.043261
v -0.219704 0.170940 -0.014420
v -0.190863 0.142099 -0.043261
v -0.190863 0.170940 -0.043261
v -0.190863 0.170940 -0.014420
v -0.162022 0.142099 -0.043261
v -0.162022 0.170940 -0.043261
v -0.162022 0.170940 -0.014420
v -0.162022 0.199781 -0.014420
v -0.133181 0.113258 -0.043261
v -0.133181 0.113258 -0.014420
v -0.104341 0.113258 -0.043261
v -0.104341 0.113258 -0.014420
v -0.075500 0.113258 -0.043261
v -0.075500 0.113258 -0.014420
v -0.046659 0.113258 -0.043261
v -0.046659 0.113258 -0.014420
v -0.133181 0.142099 -0.043261
v -0.133181 0.142099 -0.014420
v -0.133181 0.170940 -0.043261
v -0.133181 0.170940 -0.014420
v -0.104341 0.142099 -0.043261
v -0.104341 0.142099 -0.014420
v -0.104341 0.170940 -0.043261
v -0.104341 0.170940 -0.014420
v -0.133181 0.199781 -0.014420
v -0.104341 0.199781 -0.014420
v -0.075500 0.142099 -0.043261
v -0.075500 0.170940 -0.043261
v -0.075500 0.170940 -0.014420
v -0.046659 0.142099 -0.043261
v -0.046659 0.170940 -0.043261
v -0.046659 0.170940 -0.014420
v -0.075500 0.199781 -0.014420
v -0.248545 0.257463 -0.043261
v -0.248545 0.257463 -0.014420
v -0.248545 0.286304 -0.043261
v -0.219704 0.257463 -0.043261
v -0.219704 0.257463 -0.014420
v -0.219704 0.286304 -0.043261
v -0.248545 0.315144 -0.043261
v -0.248545 0.315144 -0.014420
v -0.248545 0.343985 -0.043261
v -0.248545 0.343985 -0.014420
v -0.219704 0.315144 -0.043261
v -0.219704 0.343985 -0.043261
v -0.219704 0.343985 -0.014420
v -0.190863 0.257463 -0.043261
v -0.190863 0.257463 -0.014420
v -0.190863 0.286304 -0.043261
v -0.190863 0.286304 -0.014420
v -0.162022 0.257463 -0.014420
v -0.162022 0.286304 -0.043261
v -0.162022 0.286304 -0.014420
v -0.190863 0.315144 -0.043261
v -0.190863 0.343985 -0.043261
v -0.190863 0.343985 -0.014420
v -0.162022 0.315144 -0.043261
v -0.162022 0.343985 -0.043261
v -0.162022 0.343985 -0.014420
v -0.133181 0.286304 -0.043261
v -0.133181 0.286304 -0.014420
v -0.104341 0.286304 -0.043261
v -0.104341 0.286304 -0.014420
v -0.133181 0.315144 -0.043261
v -0.133181 0.343985 -0.043261
v -0.133181 0.343985 -0.014420
v -0.104341 0.315144 -0.043261
v -0.104341 0.343985 -0.043261
v -0.104341 0.343985 -0.014420
v -0.075500 0.286304 -0.043261
v -0.075500 0.286304 -0.014420
v -0.046659 0.286304 -0.043261
v -0.046659 0.286304 -0.014420
v -0.075500 0.315144 -0.043261
v -0.075500 0.343985 -0.043261
v -0.075500 0.343985 -0.014420
v -0.046659 0.315144 -0.043261
v -0.046659 0.343985 -0.043261
v -0.104341 0.372826 -0.014420
v -0.075500 0.372826 -0.043261
v -0.075500 0.372826 -0.014420
v -0.046659 0.372826 -0.043261
v -0.046659 0.372826 -0.014420
v -0.825363 0.026735 0.014420
v -0.796522 0.026735 0.014420
v -0.767681 0.026735 0.014420
v -0.767681 0.055576 0.014420
v -0.738840 0.026735 0.014420
v -0.738840 0.055576 0.014420
v -0.738840 0.084417 0.014420
v -0.709999 0.026735 0.014420
v -0.709999 0.055576 0.014420
v -0.681158 0.026735 0.014420
v -0.681158 0.055576 0.014420
v -0.709999 0.084417 0.014420
v -0.681158 0.084417 0.014420
v -0.652317 0.026735 0.014420
v -0.652317 0.055576 0.014420
v -0.623477 0.026735 0.014420
v -0.623477 0.055576 0.014420
v -0.623477 0.055576 0.043261
v -0.652317 0.084417 0.014420
v -0.623477 0.084417 0.014420
v -0.623477 0.084417 0.043261
v -0.623477 0.113258 0.014420
v -0.623477 0.113258 0.043261
v -0.623477 0.142099 0.014420
v -0.623477 0.142099 0.043261
v -0.623477 0.170940 0.014420
v -0.623477 0.170940 0.043261
v -0.623477 0.199781 0.014420
v -0.594636 0.026735 0.014420
v -0.594636 0.026735 0.043261
v -0.594636 0.055576 0.014420
v -0.594636 0.055576 0.043261
v -0.565795 0.026735 0.043261
v -0.565795 0.055576 0.014420
v -0.565795 0.055576 0.043261
v -0.594636 0.084417 0.043261
v -0.594636 0.113258 0.043261
v -0.565795 0.084417 0.014420
v -0.565795 0.084417 0.043261
v -0.565795 0.113258 0.014420
v -0.565795 0.113258 0.043261
v -0.536954 0.026735 0.014420
v -0.536954 0.026735 0.043261
v -0.536954 0.055576 0.014420
v -0.536954 0.055576 0.043261
v -0.508113 0.026735 0.014420
v -0.508113 0.026735 0.043261
v -0.508113 0.055576 0.014420
v -0.536954 0.084417 0.014420
v -0.536954 0.113258 0.014420
v -0.536954 0.113258 0.043261
v -0.508113 0.113258 0.014420
v -0.594636 0.142099 0.043261
v -0.594636 0.170940 0.014420
v -0.594636 0.170940 0.043261
v -0.565795 0.142099 0.043261
v -0.565795 0.170940 0.043261
v -0.594636 0.199781 0.014420
v -0.594636 0.199781 0.043261
v -0.565795 0.199781 0.014420
v -0.565795 0.199781 0.043261
v -0.565795 0.228622 0.014420
v -0.565795 0.228622 0.043261
v -0.536954 0.142099 0.014420
v -0.536954 0.142099 0.043261
v -0.536954 0.170940 0.043261
v -0.508113 0.142099 0.014420
v -0.508113 0.142099 0.043261
v -0.508113 0.170940 0.043261
v -0.536954 0.199781 0.043261
v -0.536954 0.228622 0.014420
v -0.536954 0.228622 0.043261
v -0.508113 0.199781 0.043261
v -0.508113 0.228622 0.014420
v -0.508113 0.228622 0.043261
v -0.536954 0.257463 0.014420
v -0.508113 0.257463 0.014420
v -0.508113 0.257463 0.043261
v -0.479272 0.026735 0.014420
v -0.479272 0.026735 0.043261
v -0.450431 0.026735 0.014420
v -0.450431 0.026735 0.043261
v -0.450431 0.055576 0.014420
v -0.450431 0.055576 0.043261
v -0.421590 0.026735 0.043261
v -0.421590 0.055576 0.014420
v -0.421590 0.055576 0.043261
v -0.392749 0.026735 0.043261
v -0.392749 0.055576 0.043261
v -0.421590 0.084417 0.014420
v -0.421590 0.084417 0.043261
v -0.392749 0.084417 0.014420
v -0.392749 0.084417 0.043261
v -0.392749 0.113258 0.014420
v -0.392749 0.113258 0.043261
v -0.479272 0.142099 0.014420
v -0.479272 0.142099 0.043261
v -0.479272 0.170940 0.014420
v -0.479272 0.170940 0.043261
v -0.450431 0.170940 0.014420
v -0.450431 0.170940 0.043261
v -0.479272 0.199781 0.043261
v -0.479272 0.228622 0.043261
v -0.450431 0.199781 0.014420
v -0.450431 0.199781 0.043261
v -0.450431 0.228622 0.043261
v -0.421590 0.142099 0.014420
v -0.421590 0.170940 0.014420
v -0.421590 0.170940 0.043261
v -0.392749 0.142099 0.014420
v -0.392749 0.142099 0.043261
v -0.392749 0.170940 0.014420
v -0.392749 0.170940 0.043261
v -0.421590 0.199781 0.014420
v -0.421590 0.199781 0.043261
v -0.421590 0.228622 0.043261
v -0.392749 0.199781 0.043261
v -0.392749 0.228622 0.043261
v -0.363909 0.026735 0.014420
v -0.363909 0.026735 0.043261
v -0.363909 0.055576 0.043261
v -0.335068 0.026735 0.014420
v -0.335068 0.026735 0.043261
v -0.335068 0.055576 0.014420
v -0.335068 0.055576 0.043261
v -0.363909 0.084417 0.043261
v -0.363909 0.113258 0.043261
v -0.335068 0.084417 0.043261
v -0.335068 0.113258 0.043261
v -0.306227 0.026735 0.014420
v -0.306227 0.055576 0.014420
v -0.306227 0.055576 0.043261
v -0.277386 0.055576 0.014420
v -0.306227 0.084417 0.014420
v -0.306227 0.084417 0.043261
v -0.306227 0.113258 0.014420
v -0.306227 0.113258 0.043261
v -0.277386 0.084417 0.014420
v -0.277386 0.084417 0.043261
v -0.277386 0.113258 0.014420
v -0.277386 0.113258 0.043261
v -0.363909 0.142099 0.043261
v -0.363909 0.170940 0.043261
v -0.335068 0.142099 0.014420
v -0.335068 0.142099 0.043261
v -0.335068 0.170940 0.014420
v -0.335068 0.170940 0.043261
v -0.363909 0.199781 0.014420
v -0.363909 0.199781 0.043261
v -0.363909 0.228622 0.014420
v -0.363909 0.228622 0.043261
v -0.335068 0.199781 0.014420
v -0.335068 0.199781 0.043261
v -0.335068 0.228622 0.014420
v -0.335068 0.228622 0.043261
v -0.306227 0.142099 0.014420
v -0.306227 0.142099 0.043261
v -0.277386 0.142099 0.014420
v -0.277386 0.142099 0.043261
v -0.306227 0.228622 0.014420
v -0.277386 0.228622 0.014420
v -0.479272 0.257463 0.014420
v -0.479272 0.257463 0.043261
v -0.479272 0.286304 0.014420
v -0.479272 0.286304 0.043261
v -0.450431 0.257463 0.043261
v -0.450431 0.286304 0.014420
v -0.450431 0.286304 0.043261
v -0.421590 0.257463 0.043261
v -0.421590 0.286304 0.014420
v -0.421590 0.286304 0.043261
v -0.392749 0.257463 0.043261
v -0.392749 0.286304 0.014420
v -0.392749 0.286304 0.043261
v -0.421590 0.315144 0.014420
v -0.392749 0.315144 0.014420
v -0.392749 0.315144 0.043261
v -0.363909 0.257463 0.043261
v -0.363909 0.286304 0.043261
v -0.335068 0.257463 0.014420
v -0.335068 0.257463 0.043261
v -0.335068 0.286304 0.043261
v -0.363909 0.315144 0.014420
v -0.363909 0.315144 0.043261
v -0.335068 0.315144 0.014420
v -0.335068 0.315144 0.043261
v -0.306227 0.257463 0.014420
v -0.306227 0.257463 0.043261
v -0.306227 0.286304 0.043261
v -0.277386 0.257463 0.014420
v -0.277386 0.257463 0.043261
v -0.277386 0.286304 0.043261
v -0.306227 0.315144 0.014420
v -0.306227 0.315144 0.043261
v -0.277386 0.315144 0.014420
v -0.277386 0.315144 0.043261
v -0.277386 0.343985 0.014420
v -0.248545 0.084417 0.014420
v -0.248545 0.084417 0.043261
v -0.248545 0.113258 0.043261
v -0.219704 0.084417 0.014420
v -0.219704 0.084417 0.043261
v -0.219704 0.113258 0.014420
v -0.219704 0.113258 0.043261
v -0.190863 0.084417 0.014420
v -0.190863 0.113258 0.014420
v -0.190863 0.113258 0.043261
v -0.162022 0.113258 0.014420
v -0.162022 0.113258 0.043261
v -0.248545 0.142099 0.014420
v -0.248545 0.142099 0.043261
v -0.248545 0.170940 0.014420
v -0.219704 0.142099 0.014420
v -0.219704 0.142099 0.043261
v -0.219704 0.170940 0.014420
v -0.219704 0.170940 0.043261
v -0.190863 0.142099 0.043261
v -0.190863 0.170940 0.014420
v -0.190863 0.170940 0.043261
v -0.162022 0.142099 0.043261
v -0.162022 0.170940 0.014420
v -0.162022 0.170940 0.043261
v -0.162022 0.199781 0.014420
v -0.133181 0.113258 0.014420
v -0.133181 0.113258 0.043261
v -0.104341 0.113258 0.014420
v -0.104341 0.113258 0.043261
v -0.075500 0.113258 0.014420
v -0.075500 0.113258 0.043261
v -0.046659 0.113258 0.014420
v -0.046659 0.113258 0.043261
v -0.133181 0.142099 0.014420
v -0.133181 0.142099 0.043261
v -0.133181 0.170940 0.014420
v -0.133181 0.170940 0.043261
v -0.104341 0.142099 0.014420
v -0.104341 0.142099 0.043261
v -0.104341 0.170940 0.014420
v -0.104341 0.170940 0.043261
v -0.133181 0.199781 0.014420
v -0.104341 0.199781 0.014420
v -0.075500 0.142099 0.043261
v -0.075500 0.170940 0.014420
v -0.075500 0.170940 0.043261
v -0.046659 0.142099 0.043261
v -0.046659 0.170940 0.014420
v -0.046659 0.170940 0.043261
v -0.075500 0.199781 0.014420
v -0.248545 0.257463 0.014420
v -0.248545 0.257463 0.043261
v -0.248545 0.286304 0.043261
v -0.219704 0.257463 0.014420
v -0.219704 0.257463 0.043261
v -0.219704 0.286304 0.043261
v -0.248545 0.315144 0.014420
v -0.248545 0.315144 0.043261
v -0.248545 0.343985 0.014420
v -0.248545 0.343985 0.043261
v -0.219704 0.315144 0.043261
v -0.219704 0.343985 0.014420
v -0.219704 0.343985 0.043261
v -0.190863 0.257463 0.014420
v -0.190863 0.257463 0.043261
v -0.190863 0.286304 0.014420
v -0.190863 0.286304 0.043261
v -0.162022 0.257463 0.014420
v -0.162022 0.286304 0.014420
v -0.162022 0.286304 0.043261
v -0.190863 0.315144 0.043261
v -0.190863 0.343985 0.014420
v -0.190863 0.343985 0.043261
v -0.162022 0.315144 0.043261
v -0.162022 0.343985 0.014420
v -0.162022 0.343985 0.043261
v -0.133181 0.286304 0.014420
v -0.133181 0.286304 0.043261
v -0.104341 0.286304 0.014420
v -0.104341 0.286304 0.043261
v -0.133181 0.315144 0.043261
v -0.133181 0.343985 0.014420
v -0.133181 0.343985 0.043261
v -0.104341 0.315144 0.043261
v -0.104341 0.343985 0.014420
v -0.104341 0.343985 0.043261
v -0.075500 0.286304 0.014420
v -0.075500 0.286304 0.043261
v -0.046659 0.286304 0.014420
v -0.046659 0.286304 0.043261
v -0.075500 0.315144 0.043261
v -0.075500 0.343985 0.014420
v -0.075500 0.343985 0.043261
v -0.046659 0.315144 0.043261
v -0.046659 0.343985 0.043261
v -0.104341 0.372826 0.014420
v -0.075500 0.372826 0.014420
v -0.075500 0.372826 0.043261
v -0.046659 0.372826 0.014420
v -0.046659 0.372826 0.043261
v 0.443636 -0.002105 -0.014420
v 0.472477 -0.030946 -0.014420
v 0.472477 -0.002105 -0.014420
v 0.501318 -0.059787 -0.014420
v 0.530159 -0.059787 -0.014420
v 0.501318 -0.030946 -0.014420
v 0.501318 -0.002105 -0.014420
v 0.530159 -0.030946 -0.014420
v 0.530159 -0.002105 -0.014420
v 0.645522 -0.117469 -0.014420
v 0.559000 -0.059787 -0.014420
v 0.587841 -0.059787 -0.014420
v 0.559000 -0.030946 -0.014420
v 0.559000 -0.002105 -0.014420
v 0.587841 -0.030946 -0.014420
v 0.587841 -0.002105 -0.014420
v 0.616682 -0.088628 -0.014420
v 0.616682 -0.059787 -0.014420
v 0.645522 -0.088628 -0.014420
v 0.645522 -0.059787 -0.014420
v 0.616682 -0.030946 -0.014420
v 0.616682 -0.002105 -0.014420
v 0.645522 -0.030946 -0.014420
v 0.645522 -0.002105 -0.014420
v 0.703204 -0.232832 -0.014420
v 0.732045 -0.290514 -0.014420
v 0.760886 -0.319355 -0.014420
v 0.760886 -0.290514 -0.014420
v 0.732045 -0.261673 -0.014420
v 0.732045 -0.232832 -0.014420
v 0.760886 -0.261673 -0.014420
v 0.760886 -0.232832 -0.014420
v 0.789727 -0.319355 -0.014420
v 0.789727 -0.290514 -0.014420
v 0.789727 -0.261673 -0.014420
v 0.789727 -0.232832 -0.014420
v 0.674363 -0.175151 -0.014420
v 0.703204 -0.203992 -0.014420
v 0.703204 -0.175151 -0.014420
v 0.674363 -0.146310 -0.014420
v 0.674363 -0.117469 -0.014420
v 0.703204 -0.146310 -0.014420
v 0.703204 -0.117469 -0.014420
v 0.732045 -0.203992 -0.014420
v 0.732045 -0.175151 -0.014420
v 0.760886 -0.203992 -0.014420
v 0.760886 -0.175151 -0.014420
v 0.732045 -0.146310 -0.014420
v 0.732045 -0.117469 -0.014420
v 0.760886 -0.146310 -0.014420
v 0.760886 -0.117469 -0.014420
v 0.674363 -0.088628 -0.014420
v 0.674363 -0.059787 -0.014420
v 0.703204 -0.088628 -0.014420
v 0.703204 -0.059787 -0.014420
v 0.674363 -0.030946 -0.014420
v 0.674363 -0.002105 -0.014420
v 0.703204 -0.030946 -0.014420
v 0.703204 -0.002105 -0.014420
v 0.732045 -0.088628 -0.014420
v 0.732045 -0.059787 -0.014420
v 0.760886 -0.088628 -0.014420
v 0.760886 -0.059787 -0.014420
v 0.732045 -0.030946 -0.014420
v 0.732045 -0.002105 -0.014420
v 0.760886 -0.030946 -0.014420
v 0.789727 -0.203992 -0.014420
v 0.789727 -0.175151 -0.014420
v 0.789727 -0.146310 -0.014420
v 0.789727 -0.117469 -0.014420
v 0.789727 -0.088628 -0.014420
v 0.443636 -0.002105 0.014420
v 0.472477 -0.030946 0.014420
v 0.472477 -0.002105 0.014420
v 0.501318 -0.059787 0.014420
v 0.530159 -0.059787 0.014420
v 0.501318 -0.030946 0.014420
v 0.501318 -0.002105 0.014420
v 0.530159 -0.030946 0.014420
v 0.530159 -0.002105 0.014420
v 0.645522 -0.117469 0.014420
v 0.559000 -0.059787 0.014420
v 0.587841 -0.059787 0.014420
v 0.559000 -0.030946 0.014420
v 0.559000 -0.002105 0.014420
v 0.587841 -0.030946 0.014420
v 0.587841 -0.002105 0.014420
v 0.616682 -0.088628 0.014420
v 0.616682 -0.059787 0.014420
v 0.645522 -0.088628 0.014420
v 0.645522 -0.059787 0.014420
v 0.616682 -0.030946 0.014420
v 0.616682 -0.002105 0.014420
v 0.645522 -0.030946 0.014420
v 0.645522 -0.002105 0.014420
v 0.703204 -0.232832 0.014420
v 0.732045 -0.290514 0.014420
v 0.760886 -0.319355 0.014420
v 0.760886 -0.290514 0.014420
v 0.732045 -0.261673 0.014420
v 0.732045 -0.232832 0.014420
v 0.760886 -0.261673 0.014420
v 0.760886 -0.232832 0.014420
v 0.789727 -0.319355 0.014420
v 0.789727 -0.290514 0.014420
v 0.789727 -0.261673 0.014420
v 0.789727 -0.232832 0.014420
v 0.674363 -0.175151 0.014420
v 0.703204 -0.203992 0.014420
v 0.703204 -0.175151 0.014420
v 0.674363 -0.146310 0.014420
v 0.674363 -0.117469 0.014420
v 0.703204 -0.146310 0.014420
v 0.703204 -0.117469 0.014420
v 0.732045 -0.203992 0.014420
v 0.732045 -0.175151 0.014420
v 0.760886 -0.203992 0.014420
v 0.760886 -0.175151 0.014420
v 0.732045 -0.146310 0.014420
v 0.732045 -0.117469 0.014420
v 0.760886 -0.146310 0.014420
v 0.760886 -0.117469 0.014420
v 0.674363 -0.088628 0.014420
v 0.674363 -0.059787 0.014420
v 0.703204 -0.088628 0.014420
v 0.703204 -0.059787 0.014420
v 0.674363 -0.030946 0.014420
v 0.674363 -0.002105 0.014420
v 0.703204 -0.030946 0.014420
v 0.703204 -0.002105 0.014420
v 0.732045 -0.088628 0.014420
v 0.732045 -0.059787 0.014420
v 0.760886 -0.088628 0.014420
v 0.760886 -0.059787 0.014420
v 0.732045 -0.030946 0.014420
v 0.732045 -0.002105 0.014420
v 0.760886 -0.030946 0.014420
v 0.789727 -0.203992 0.014420
v 0.789727 -0.175151 0.014420
v 0.789727 -0.146310 0.014420
v 0.789727 -0.117469 0.014420
v 0.789727 -0.088628 0.014420
v -0.017818 0.113258 -0.043261
v -0.017818 0.113258 -0.014420
v 0.011023 0.084417 -0.043261
v 0.011023 0.084417 -0.014420
v 0.011023 0.113258 -0.043261
v 0.011023 0.113258 -0.014420
v 0.039864 0.055576 -0.014420
v 0.068705 0.026735 -0.014420
v 0.068705 0.055576 -0.014420
v 0.039864 0.084417 -0.043261
v 0.039864 0.084417 -0.014420
v 0.039864 0.113258 -0.043261
v 0.068705 0.084417 -0.043261
v 0.068705 0.084417 -0.014420
v 0.068705 0.113258 -0.043261
v 0.068705 0.113258 -0.014420
v -0.017818 0.142099 -0.043261
v -0.017818 0.170940 -0.043261
v -0.017818 0.170940 -0.014420
v 0.011023 0.142099 -0.043261
v 0.011023 0.170940 -0.043261
v 0.011023 0.170940 -0.014420
v -0.017818 0.228622 -0.014420
v 0.011023 0.199781 -0.043261
v 0.011023 0.199781 -0.014420
v 0.011023 0.228622 -0.043261
v 0.011023 0.228622 -0.014420
v 0.039864 0.142099 -0.043261
v 0.039864 0.170940 -0.043261
v 0.068705 0.142099 -0.043261
v 0.068705 0.142099 -0.014420
v 0.068705 0.170940 -0.043261
v 0.039864 0.199781 -0.043261
v 0.039864 0.228622 -0.043261
v 0.068705 0.199781 -0.043261
v 0.068705 0.199781 -0.014420
v 0.068705 0.228622 -0.043261
v 0.068705 0.228622 -0.014420
v 0.097546 0.026735 -0.014420
v 0.097546 0.055576 -0.014420
v 0.126387 0.026735 -0.014420
v 0.126387 0.055576 -0.014420
v 0.097546 0.084417 -0.014420
v 0.097546 0.113258 -0.014420
v 0.126387 0.084417 -0.014420
v 0.126387 0.113258 -0.014420
v 0.155227 0.026735 -0.014420
v 0.155227 0.055576 -0.014420
v 0.184068 0.026735 -0.014420
v 0.184068 0.055576 -0.014420
v 0.155227 0.084417 -0.014420
v 0.155227 0.113258 -0.014420
v 0.184068 0.084417 -0.014420
v 0.184068 0.113258 -0.014420
v 0.097546 0.142099 -0.043261
v 0.097546 0.142099 -0.014420
v 0.097546 0.170940 -0.043261
v 0.097546 0.170940 -0.014420
v 0.126387 0.142099 -0.014420
v 0.126387 0.170940 -0.014420
v 0.097546 0.199781 -0.043261
v 0.097546 0.199781 -0.014420
v 0.097546 0.228622 -0.014420
v 0.155227 0.142099 -0.014420
v 0.155227 0.170940 -0.014420
v 0.184068 0.142099 -0.014420
v 0.184068 0.170940 -0.014420
v -0.017818 0.257463 -0.043261
v -0.017818 0.257463 -0.014420
v -0.017818 0.286304 -0.043261
v -0.017818 0.286304 -0.014420
v 0.011023 0.257463 -0.043261
v 0.011023 0.257463 -0.014420
v 0.011023 0.286304 -0.043261
v -0.017818 0.315144 -0.043261
v -0.017818 0.343985 -0.043261
v 0.011023 0.315144 -0.043261
v 0.011023 0.343985 -0.043261
v 0.039864 0.257463 -0.043261
v 0.039864 0.286304 -0.043261
v 0.039864 0.286304 -0.014420
v 0.068705 0.257463 -0.043261
v 0.068705 0.257463 -0.014420
v 0.068705 0.286304 -0.043261
v 0.068705 0.286304 -0.014420
v 0.039864 0.315144 -0.043261
v 0.039864 0.315144 -0.014420
v 0.039864 0.343985 -0.043261
v 0.039864 0.343985 -0.014420
v 0.068705 0.315144 -0.043261
v 0.068705 0.315144 -0.014420
v 0.068705 0.343985 -0.043261
v 0.068705 0.343985 -0.014420
v -0.017818 0.372826 -0.043261
v -0.017818 0.372826 -0.014420
v 0.011023 0.372826 -0.043261
v 0.011023 0.372826 -0.014420
v 0.039864 0.372826 -0.043261
v 0.039864 0.372826 -0.014420
v 0.039864 0.401667 -0.014420
v 0.068705 0.372826 -0.043261
v 0.068705 0.372826 -0.014420
v 0.068705 0.401667 -0.014420
v 0.097546 0.286304 -0.014420
v 0.126387 0.286304 -0.014420
v 0.097546 0.315144 -0.014420
v 0.097546 0.343985 -0.043261
v 0.097546 0.343985 -0.014420
v 0.126387 0.315144 -0.014420
v 0.126387 0.343985 -0.014420
v 0.155227 0.286304 -0.014420
v 0.184068 0.286304 -0.014420
v 0.155227 0.315144 -0.014420
v 0.155227 0.343985 -0.014420
v 0.184068 0.315144 -0.014420
v 0.184068 0.343985 -0.014420
v 0.097546 0.372826 -0.043261
v 0.097546 0.372826 -0.014420
v 0.097546 0.401667 -0.014420
v 0.126387 0.372826 -0.014420
v 0.126387 0.401667 -0.014420
v 0.155227 0.372826 -0.014420
v 0.155227 0.401667 -0.014420
v 0.184068 0.372826 -0.014420
v 0.212909 0.026735 -0.014420
v 0.212909 0.055576 -0.014420
v 0.241750 0.055576 -0.014420
v 0.212909 0.084417 -0.014420
v 0.212909 0.113258 -0.014420
v 0.241750 0.084417 -0.014420
v 0.241750 0.113258 -0.014420
v 0.270591 0.055576 -0.014420
v 0.299432 0.055576 -0.014420
v 0.270591 0.084417 -0.014420
v 0.270591 0.113258 -0.014420
v 0.299432 0.084417 -0.014420
v 0.299432 0.113258 -0.014420
v 0.212909 0.142099 -0.014420
v 0.212909 0.170940 -0.014420
v 0.241750 0.142099 -0.014420
v 0.241750 0.170940 -0.014420
v 0.270591 0.142099 -0.014420
v 0.270591 0.170940 -0.014420
v 0.299432 0.142099 -0.014420
v 0.299432 0.170940 -0.014420
v 0.270591 0.228622 -0.014420
v 0.299432 0.228622 -0.014420
v 0.328273 0.055576 -0.014420
v 0.357114 0.026735 -0.014420
v 0.357114 0.055576 -0.014420
v 0.328273 0.084417 -0.014420
v 0.328273 0.113258 -0.014420
v 0.357114 0.084417 -0.014420
v 0.357114 0.113258 -0.014420
v 0.385954 0.026735 -0.014420
v 0.385954 0.055576 -0.014420
v 0.414795 0.026735 -0.014420
v 0.414795 0.055576 -0.014420
v 0.385954 0.084417 -0.014420
v 0.385954 0.113258 -0.014420
v 0.414795 0.084417 -0.014420
v 0.414795 0.113258 -0.014420
v 0.328273 0.142099 -0.014420
v 0.328273 0.170940 -0.014420
v 0.357114 0.142099 -0.014420
v 0.357114 0.170940 -0.014420
v 0.328273 0.228622 -0.014420
v 0.357114 0.199781 -0.014420
v 0.357114 0.228622 -0.014420
v 0.385954 0.142099 -0.014420
v 0.385954 0.170940 -0.014420
v 0.414795 0.142099 -0.014420
v 0.414795 0.170940 -0.014420
v 0.385954 0.199781 -0.014420
v 0.385954 0.228622 -0.014420
v 0.414795 0.199781 -0.014420
v 0.414795 0.228622 -0.014420
v 0.212909 0.257463 -0.014420
v 0.212909 0.286304 -0.014420
v 0.241750 0.257463 -0.014420
v 0.241750 0.286304 -0.014420
v 0.212909 0.315144 -0.014420
v 0.212909 0.343985 -0.014420
v 0.241750 0.315144 -0.014420
v 0.241750 0.343985 -0.014420
v 0.270591 0.257463 -0.014420
v 0.270591 0.286304 -0.014420
v 0.299432 0.257463 -0.014420
v 0.299432 0.286304 -0.014420
v 0.270591 0.315144 -0.014420
v 0.270591 0.343985 -0.014420
v 0.299432 0.315144 -0.014420
v 0.299432 0.343985 -0.014420
v 0.212909 0.372826 -0.014420
v 0.241750 0.372826 -0.014420
v 0.328273 0.257463 -0.014420
v 0.328273 0.286304 -0.014420
v 0.357114 0.257463 -0.014420
v 0.357114 0.286304 -0.014420
v 0.328273 0.315144 -0.014420
v 0.357114 0.315144 -0.014420
v 0.385954 0.257463 -0.014420
v 0.385954 0.286304 -0.014420
v 0.414795 0.257463 -0.014420
v 0.414795 0.286304 -0.014420
v 0.385954 0.315144 -0.014420
v 0.414795 0.315144 -0.014420
v 0.443636 0.026735 -0.014420
v 0.443636 0.055576 -0.014420
v 0.472477 0.026735 -0.014420
v 0.472477 0.055576 -0.014420
v 0.443636 0.084417 -0.014420
v 0.443636 0.113258 -0.014420
v 0.472477 0.084417 -0.014420
v 0.472477 0.113258 -0.014420
v 0.501318 0.026735 -0.014420
v 0.501318 0.055576 -0.014420
v 0.530159 0.026735 -0.014420
v 0.530159 0.055576 -0.014420
v 0.501318 0.084417 -0.014420
v 0.501318 0.113258 -0.014420
v 0.530159 0.084417 -0.014420
v 0.530159 0.113258 -0.014420
v 0.443636 0.142099 -0.014420
v 0.443636 0.170940 -0.014420
v 0.472477 0.142099 -0.014420
v 0.472477 0.170940 -0.014420
v 0.443636 0.199781 -0.014420
v 0.443636 0.228622 -0.014420
v 0.472477 0.199781 -0.014420
v 0.472477 0.228622 -0.014420
v 0.501318 0.142099 -0.014420
v 0.501318 0.170940 -0.014420
v 0.530159 0.142099 -0.014420
v 0.530159 0.170940 -0.014420
v 0.501318 0.199781 -0.014420
v 0.501318 0.228622 -0.014420
v 0.530159 0.199781 -0.014420
v 0.530159 0.228622 -0.014420
v 0.559000 0.026735 -0.014420
v 0.559000 0.055576 -0.014420
v 0.587841 0.026735 -0.014420
v 0.587841 0.055576 -0.014420
v 0.559000 0.084417 -0.014420
v 0.559000 0.113258 -0.014420
v 0.587841 0.084417 -0.014420
v 0.587841 0.113258 -0.014420
v 0.616682 0.026735 -0.014420
v 0.616682 0.055576 -0.014420
v 0.645522 0.026735 -0.014420
v 0.645522 0.055576 -0.014420
v 0.616682 0.084417 -0.014420
v 0.616682 0.113258 -0.014420
v 0.645522 0.084417 -0.014420
v 0.645522 0.113258 -0.014420
v 0.559000 0.142099 -0.014420
v 0.559000 0.170940 -0.014420
v 0.587841 0.142099 -0.014420
v 0.587841 0.170940 -0.014420
v 0.559000 0.199781 -0.014420
v 0.559000 0.228622 -0.014420
v 0.587841 0.199781 -0.014420
v 0.587841 0.228622 -0.014420
v 0.616682 0.142099 -0.014420
v 0.616682 0.170940 -0.014420
v 0.645522 0.142099 -0.014420
v 0.645522 0.170940 -0.014420
v 0.616682 0.199781 -0.014420
v 0.443636 0.257463 -0.014420
v 0.443636 0.286304 -0.014420
v 0.472477 0.257463 -0.014420
v 0.472477 0.286304 -0.014420
v 0.443636 0.315144 -0.014420
v 0.501318 0.257463 -0.014420
v 0.501318 0.286304 -0.014420
v 0.530159 0.257463 -0.014420
v 0.559000 0.257463 -0.014420
v 0.674363 0.026735 -0.014420
v 0.674363 0.055576 -0.014420
v 0.703204 0.026735 -0.014420
v 0.703204 0.055576 -0.014420
v 0.674363 0.084417 -0.014420
v 0.674363 0.113258 -0.014420
v 0.703204 0.084417 -0.014420
v 0.732045 0.026735 -0.014420
v 0.732045 0.055576 -0.014420
v 0.674363 0.142099 -0.014420
v -0.017818 0.113258 0.014420
v -0.017818 0.113258 0.043261
v 0.011023 0.084417 0.014420
v 0.011023 0.084417 0.043261
v 0.011023 0.113258 0.014420
v 0.011023 0.113258 0.043261
v 0.039864 0.055576 0.014420
v 0.068705 0.026735 0.014420
v 0.068705 0.055576 0.014420
v 0.039864 0.084417 0.014420
v 0.039864 0.084417 0.043261
v 0.039864 0.113258 0.043261
v 0.068705 0.084417 0.014420
v 0.068705 0.084417 0.043261
v 0.068705 0.113258 0.014420
v 0.068705 0.113258 0.043261
v -0.017818 0.142099 0.043261
v -0.017818 0.170940 0.014420
v -0.017818 0.170940 0.043261
v 0.011023 0.142099 0.043261
v 0.011023 0.170940 0.014420
v 0.011023 0.170940 0.043261
v -0.017818 0.228622 0.014420
v 0.011023 0.199781 0.014420
v 0.011023 0.199781 0.043261
v 0.011023 0.228622 0.014420
v 0.011023 0.228622 0.043261
v 0.039864 0.142099 0.043261
v 0.039864 0.170940 0.043261
v 0.068705 0.142099 0.014420
v 0.068705 0.142099 0.043261
v 0.068705 0.170940 0.043261
v 0.039864 0.199781 0.043261
v 0.039864 0.228622 0.043261
v 0.068705 0.199781 0.014420
v 0.068705 0.199781 0.043261
v 0.068705 0.228622 0.014420
v 0.068705 0.228622 0.043261
v 0.097546 0.026735 0.014420
v 0.097546 0.055576 0.014420
v 0.126387 0.026735 0.014420
v 0.126387 0.055576 0.014420
v 0.097546 0.084417 0.014420
v 0.097546 0.113258 0.014420
v 0.126387 0.084417 0.014420
v 0.126387 0.113258 0.014420
v 0.155227 0.026735 0.014420
v 0.155227 0.055576 0.014420
v 0.184068 0.026735 0.014420
v 0.184068 0.055576 0.014420
v 0.155227 0.084417 0.014420
v 0.155227 0.113258 0.014420
v 0.184068 0.084417 0.014420
v 0.184068 0.113258 0.014420
v 0.097546 0.142099 0.014420
v 0.097546 0.142099 0.043261
v 0.097546 0.170940 0.014420
v 0.097546 0.170940 0.043261
v 0.126387 0.142099 0.014420
v 0.126387 0.170940 0.014420
v 0.097546 0.199781 0.014420
v 0.097546 0.199781 0.043261
v 0.097546 0.228622 0.014420
v 0.155227 0.142099 0.014420
v 0.155227 0.170940 0.014420
v 0.184068 0.142099 0.014420
v 0.184068 0.170940 0.014420
v -0.017818 0.257463 0.014420
v -0.017818 0.257463 0.043261
v -0.017818 0.286304 0.014420
v -0.017818 0.286304 0.043261
v 0.011023 0.257463 0.014420
v 0.011023 0.257463 0.043261
v 0.011023 0.286304 0.043261
v -0.017818 0.315144 0.043261
v -0.017818 0.343985 0.043261
v 0.011023 0.315144 0.043261
v 0.011023 0.343985 0.043261
v 0.039864 0.257463 0.043261
v 0.039864 0.286304 0.014420
v 0.039864 0.286304 0.043261
v 0.068705 0.257463 0.014420
v 0.068705 0.257463 0.043261
v 0.068705 0.286304 0.014420
v 0.068705 0.286304 0.043261
v 0.039864 0.315144 0.014420
v 0.039864 0.315144 0.043261
v 0.039864 0.343985 0.014420
v 0.039864 0.343985 0.043261
v 0.068705 0.315144 0.014420
v 0.068705 0.315144 0.043261
v 0.068705 0.343985 0.014420
v 0.068705 0.343985 0.043261
v -0.017818 0.372826 0.014420
v -0.017818 0.372826 0.043261
v 0.011023 0.372826 0.014420
v 0.011023 0.372826 0.043261
v 0.039864 0.372826 0.014420
v 0.039864 0.372826 0.043261
v 0.039864 0.401667 0.014420
v 0.068705 0.372826 0.014420
v 0.068705 0.372826 0.043261
v 0.068705 0.401667 0.014420
v 0.097546 0.286304 0.014420
v 0.126387 0.286304 0.014420
v 0.097546 0.315144 0.014420
v 0.097546 0.343985 0.014420
v 0.097546 0.343985 0.043261
v 0.126387 0.315144 0.014420
v 0.126387 0.343985 0.014420
v 0.155227 0.286304 0.014420
v 0.184068 0.286304 0.014420
v 0.155227 0.315144 0.014420
v 0.155227 0.343985 0.014420
v 0.184068 0.315144 0.014420
v 0.184068 0.343985 0.014420
v 0.097546 0.372826 0.014420
v 0.097546 0.372826 0.043261
v 0.097546 0.401667 0.014420
v 0.126387 0.372826 0.014420
v 0.126387 0.401667 0.014420
v 0.155227 0.372826 0.014420
v 0.155227 0.401667 0.014420
v 0.184068 0.372826 0.014420
v 0.212909 0.026735 0.014420
v 0.212909 0.055576 0.014420
v 0.241750 0.055576 0.014420
v 0.212909 0.084417 0.014420
v 0.212909 0.113258 0.014420
v 0.241750 0.084417 0.014420
v 0.241750 0.113258 0.014420
v 0.270591 0.055576 0.014420
v 0.299432 0.055576 0.014420
v 0.270591 0.084417 0.014420
v 0.270591 0.113258 0.014420
v 0.299432 0.084417 0.014420
v 0.299432 0.113258 0.014420
v 0.212909 0.142099 0.014420
v 0.212909 0.170940 0.014420
v 0.241750 0.142099 0.014420
v 0.241750 0.170940 0.014420
v 0.270591 0.142099 0.014420
v 0.270591 0.170940 0.014420
v 0.299432 0.142099 0.014420
v 0.299432 0.170940 0.014420
v 0.270591 0.228622 0.014420
v 0.299432 0.228622 0.014420
v 0.328273 0.055576 0.014420
v 0.357114 0.026735 0.014420
v 0.357114 0.055576 0.014420
v 0.328273 0.084417 0.014420
v 0.328273 0.113258 0.014420
v 0.357114 0.084417 0.014420
v 0.357114 0.113258 0.014420
v 0.385954 0.026735 0.014420
v 0.385954 0.055576 0.014420
v 0.414795 0.026735 0.014420
v 0.414795 0.055576 0.014420
v 0.385954 0.084417 0.014420
v 0.385954 0.113258 0.014420
v 0.414795 0.084417 0.014420
v 0.414795 0.113258 0.014420
v 0.328273 0.142099 0.014420
v 0.328273 0.170940 0.014420
v 0.357114 0.142099 0.014420
v 0.357114 0.170940 0.014420
v 0.328273 0.228622 0.014420
v 0.357114 0.199781 0.014420
v 0.357114 0.228622 0.014420
v 0.385954 0.142099 0.014420
v 0.385954 0.170940 0.014420
v 0.414795 0.142099 0.014420
v 0.414795 0.170940 0.014420
v 0.385954 0.199781 0.014420
v 0.385954 0.228622 0.014420
v 0.414795 0.199781 0.014420
v 0.414795 0.228622 0.014420
v 0.212909 0.257463 0.014420
v 0.212909 0.286304 0.014420
v 0.241750 0.257463 0.014420
v 0.241750 0.286304 0.014420
v 0.212909 0.315144 0.014420
v 0.212909 0.343985 0.014420
v 0.241750 0.315144 0.014420
v 0.241750 0.343985 0.014420
v 0.270591 0.257463 0.014420
v 0.270591 0.286304 0.014420
v 0.299432 0.257463 0.014420
v 0.299432 0.286304 0.014420
v 0.270591 0.315144 0.014420
v 0.270591 0.343985 0.014420
v 0.299432 0.315144 0.014420
v 0.299432 0.343985 0.014420
v 0.212909 0.372826 0.014420
v 0.241750 0.372826 0.014420
v 0.328273 0.257463 0.014420
v 0.328273 0.286304 0.014420
v 0.357114 0.257463 0.014420
v 0.357114 0.286304 0.014420
v 0.328273 0.315144 0.014420
v 0.357114 0.315144 0.014420
v 0.385954 0.257463 0.014420
v 0.385954 0.286304 0.014420
v 0.414795 0.257463 0.014420
v 0.414795 0.286304 0.014420
v 0.385954 0.315144 0.014420
v 0.414795 0.315144 0.014420
v 0.443636 0.026735 0.014420
v 0.443636 0.055576 0.014420
v 0.472477 0.026735 0.014420
v 0.472477 0.055576 0.014420
v 0.443636 0.084417 0.014420
v 0.443636 0.113258 0.014420
v 0.472477 0.084417 0.014420
v 0.472477 0.113258 0.014420
v 0.501318 0.026735 0.014420
v 0.501318 0.055576 0.014420
v 0.530159 0.026735 0.014420
v 0.530159 0.055576 0.014420
v 0.501318 0.084417 0.014420
v 0.501318 0.113258 0.014420
v 0.530159 0.084417 0.014420
v 0.530159 0.113258 0.014420
v 0.443636 0.142099 0.014420
v 0.443636 0.170940 0.014420
v 0.472477 0.142099 0.014420
v 0.472477 0.170940 0.014420
v 0.443636 0.199781 0.014420
v 0.443636 0.228622 0.014420
v 0.472477 0.199781 0.014420
v 0.472477 0.228622 0.014420
v 0.501318 0.142099 0.014420
v 0.501318 0.170940 0.014420
v 0.530159 0.142099 0.014420
v 0.530159 0.170940 0.014420
v 0.501318 0.199781 0.014420
v 0.501318 0.228622 0.014420
v 0.530159 0.199781 0.014420
v 0.530159 0.228622 0.014420
v 0.559000 0.026735 0.014420
v 0.559000 0.055576 0.014420
v 0.587841 0.026735 0.014420
v 0.587841 0.055576 0.014420
v 0.559000 0.084417 0.014420
v 0.559000 0.113258 0.014420
v 0.587841 0.084417 0.014420
v 0.587841 0.113258 0.014420
v 0.616682 0.026735 0.014420
v 0.616682 0.055576 0.014420
v 0.645522 0.026735 0.014420
v 0.645522 0.055576 0.014420
v 0.616682 0.084417 0.014420
v 0.616682 0.113258 0.014420
v 0.645522 0.084417 0.014420
v 0.645522 0.113258 0.014420
v 0.559000 0.142099 0.014420
v 0.559000 0.170940 0.014420
v 0.587841 0.142099 0.014420
v 0.587841 0.170940 0.014420
v 0.559000 0.199781 0.014420
v 0.559000 0.228622 0.014420
v 0.587841 0.199781 0.014420
v 0.587841 0.228622 0.014420
v 0.616682 0.142099 0.014420
v 0.616682 0.170940 0.014420
v 0.645522 0.142099 0.014420
v 0.645522 0.170940 0.014420
v 0.616682 0.199781 0.014420
v 0.443636 0.257463 0.014420
v 0.443636 0.286304 0.014420
v 0.472477 0.257463 0.014420
v 0.472477 0.286304 0.014420
v 0.443636 0.315144 0.014420
v 0.501318 0.257463 0.014420
v 0.501318 0.286304 0.014420
v 0.530159 0.257463 0.014420
v 0.559000 0.257463 0.014420
v 0.674363 0.026735 0.014420
v 0.674363 0.055576 0.014420
v 0.703204 0.026735 0.014420
v 0.703204 0.055576 0.014420
v 0.674363 0.084417 0.014420
v 0.674363 0.113258 0.014420
v 0.703204 0.084417 0.014420
v 0.732045 0.026735 0.014420
v 0.732045 0.055576 0.014420
v 0.674363 0.142099 0.014420
vn -0.0000 -0.0000 -1.0000
vn -1.0000 -0.0000 -0.0000
vn -0.0000 -1.0000 -0.0000
vn 1.0000 -0.0000 -0.0000
vn -0.0000 -0.0000 1.0000
vn -0.0000 1.0000 -0.0000
s 0
f 3//1 4//1 6//1 5//1
f 1//1 2//1 4//1 3//1
f 14//1 15//1 17//1 16//1
f 18//1 19//1 21//1 20//1
f 22//1 23//1 25//1 24//1
f 16//1 17//1 23//1 22//1
f 20//1 21//1 27//1 26//1
f 15//1 18//1 20//1 17//1
f 23//1 26//1 28//1 25//1
f 17//1 20//1 26//1 23//1
f 29//1 30//1 32//1 31//1
f 33//1 34//1 36//1 35//1
f 39//1 40//1 42//1 41//1
f 31//1 32//1 38//1 37//1
f 35//1 36//1 40//1 39//1
f 30//1 33//1 35//1 32//1
f 32//1 35//1 39//1 38//1
f 8//1 9//1 19//1 18//1
f 7//1 8//1 18//1 15//1
f 10//1 11//1 30//1 29//1
f 12//1 13//1 34//1 33//1
f 11//1 12//1 33//1 30//1
f 19//1 29//1 31//1 21//1
f 21//1 31//1 37//1 27//1
f 9//1 10//1 29//1 19//1
f 43//1 44//1 46//1 45//1
f 47//1 48//1 50//1 49//1
f 45//1 46//1 48//1 47//1
f 52//1 53//1 55//1 54//1
f 56//1 57//1 59//1 58//1
f 54//1 55//1 57//1 56//1
f 57//1 60//1 61//1 59//1
f 67//1 68//1 70//1 69//1
f 71//1 72//1 74//1 73//1
f 75//1 76//1 78//1 77//1
f 77//1 78//1 81//1 80//1
f 72//1 75//1 77//1 74//1
f 74//1 77//1 80//1 79//1
f 82//1 83//1 85//1 84//1
f 89//2 90//2 92//2 91//2
f 87//3 91//3 92//3 88//3
f 86//1 88//1 92//1 90//1
f 94//3 96//3 97//3 95//3
f 98//1 100//1 102//1 101//1
f 84//1 85//1 95//1 93//1
f 89//3 98//3 99//3 90//3
f 89//1 91//1 100//1 98//1
f 83//1 86//1 90//1 85//1
f 94//2 95//2 99//2 98//2
f 94//1 98//1 101//1 96//1
f 85//1 90//1 99//1 95//1
f 58//1 59//1 72//1 71//1
f 61//1 62//1 76//1 75//1
f 59//1 61//1 75//1 72//1
f 65//1 66//1 83//1 82//1
f 69//1 70//1 88//1 86//1
f 66//1 69//1 86//1 83//1
f 76//1 82//1 84//1 78//1
f 78//1 84//1 93//1 81//1
f 62//1 65//1 82//1 76//1
f 5//1 6//1 44//1 43//1
f 24//1 25//1 53//1 52//1
f 4//1 22//1 24//1 6//1
f 2//1 16//1 22//1 4//1
f 44//1 52//1 54//1 46//1
f 48//1 56//1 58//1 50//1
f 46//1 54//1 56//1 48//1
f 50//1 58//1 71//1 51//1
f 6//1 24//1 52//1 44//1
f 103//3 105//3 106//3 104//3
f 107//1 108//1 110//1 109//1
f 118//4 119//4 117//4 116//4
f 113//3 116//3 117//3 114//3
f 113//1 115//1 118//1 116//1
f 105//3 111//3 112//3 106//3
f 109//1 110//1 115//1 113//1
f 103//1 107//1 109//1 105//1
f 113//4 114//4 112//4 111//4
f 105//1 109//1 113//1 111//1
f 118//3 121//3 122//3 119//3
f 117//1 119//1 122//1 120//1
f 96//3 103//3 104//3 97//3
f 101//1 102//1 108//1 107//1
f 96//1 101//1 107//1 103//1
f 128//5 129//5 127//5 126//5
f 126//5 127//5 125//5 124//5
f 139//5 140//5 138//5 137//5
f 143//5 144//5 142//5 141//5
f 147//5 148//5 146//5 145//5
f 145//5 146//5 140//5 139//5
f 149//5 150//5 144//5 143//5
f 140//5 143//5 141//5 138//5
f 148//5 151//5 149//5 146//5
f 146//5 149//5 143//5 140//5
f 154//5 155//5 153//5 152//5
f 158//5 159//5 157//5 156//5
f 164//5 165//5 163//5 162//5
f 160//5 161//5 155//5 154//5
f 162//5 163//5 159//5 158//5
f 155//5 158//5 156//5 153//5
f 161//5 162//5 158//5 155//5
f 141//5 142//5 132//5 131//5
f 138//5 141//5 131//5 130//5
f 152//5 153//5 134//5 133//5
f 156//5 157//5 136//5 135//5
f 153//5 156//5 135//5 134//5
f 144//5 154//5 152//5 142//5
f 150//5 160//5 154//5 144//5
f 142//5 152//5 133//5 132//5
f 168//5 169//5 167//5 166//5
f 172//5 173//5 171//5 170//5
f 170//5 171//5 169//5 168//5
f 177//5 178//5 176//5 175//5
f 181//5 182//5 180//5 179//5
f 179//5 180//5 178//5 177//5
f 182//5 184//5 183//5 180//5
f 192//5 193//5 191//5 190//5
f 196//5 197//5 195//5 194//5
f 200//5 201//5 199//5 198//5
f 203//5 204//5 201//5 200//5
f 197//5 200//5 198//5 195//5
f 202//5 203//5 200//5 197//5
f 207//5 208//5 206//5 205//5
f 212//2 213//2 215//2 214//2
f 210//3 214//3 215//3 211//3
f 212//5 214//5 210//5 209//5
f 217//3 219//3 220//3 218//3
f 224//5 225//5 223//5 222//5
f 216//5 217//5 208//5 207//5
f 212//3 221//3 222//3 213//3
f 222//5 223//5 215//5 213//5
f 208//5 212//5 209//5 206//5
f 217//2 218//2 222//2 221//2
f 220//5 224//5 222//5 218//5
f 217//5 221//5 212//5 208//5
f 194//5 195//5 182//5 181//5
f 198//5 199//5 185//5 184//5
f 195//5 198//5 184//5 182//5
f 205//5 206//5 189//5 188//5
f 209//5 210//5 193//5 192//5
f 206//5 209//5 192//5 189//5
f 201//5 207//5 205//5 199//5
f 204//5 216//5 207//5 201//5
f 199//5 205//5 188//5 185//5
f 166//5 167//5 129//5 128//5
f 175//5 176//5 148//5 147//5
f 129//5 147//5 145//5 127//5
f 127//5 145//5 139//5 125//5
f 169//5 177//5 175//5 167//5
f 173//5 181//5 179//5 171//5
f 171//5 179//5 177//5 169//5
f 174//5 194//5 181//5 173//5
f 167//5 175//5 147//5 129//5
f 226//3 228//3 229//3 227//3
f 232//5 233//5 231//5 230//5
f 241//4 242//4 240//4 239//4
f 236//3 239//3 240//3 237//3
f 240//5 242//5 238//5 237//5
f 228//3 234//3 235//3 229//3
f 237//5 238//5 233//5 232//5
f 229//5 232//5 230//5 227//5
f 236//4 237//4 235//4 234//4
f 235//5 237//5 232//5 229//5
f 241//3 244//3 245//3 242//3
f 243//5 244//5 241//5 239//5
f 219//3 226//3 227//3 220//3
f 230//5 231//5 225//5 224//5
f 227//5 230//5 224//5 220//5
f 249//1 250//1 252//1 251//1
f 254//1 255//1 257//1 256//1
f 260//1 261//1 264//1 262//1
f 266//2 267//2 269//2 268//2
f 256//1 257//1 261//1 260//1
f 255//1 258//1 259//1 257//1
f 263//2 264//2 267//2 266//2
f 261//1 265//1 267//1 264//1
f 257//1 259//1 265//1 261//1
f 270//2 271//2 273//2 272//2
f 275//2 276//2 278//2 277//2
f 275//1 277//1 280//1 279//1
f 286//4 287//4 285//4 284//4
f 282//1 283//1 286//1 284//1
f 290//4 291//4 289//4 288//4
f 289//6 293//6 292//6 288//6
f 289//1 291//1 294//1 293//1
f 281//6 291//6 290//6 280//6
f 279//1 280//1 290//1 288//1
f 286//3 296//3 297//3 287//3
f 284//4 285//4 281//4 280//4
f 277//1 282//1 284//1 280//1
f 281//1 285//1 295//1 291//1
f 299//1 300//1 303//1 302//1
f 306//2 307//2 309//2 308//2
f 305//6 307//6 306//6 304//6
f 310//3 313//3 314//3 311//3
f 310//1 312//1 315//1 313//1
f 318//6 321//6 320//6 317//6
f 316//1 317//1 320//1 319//1
f 302//1 303//1 312//1 310//1
f 309//6 318//6 317//6 308//6
f 306//1 308//1 317//1 316//1
f 300//2 301//2 305//2 304//2
f 300//1 304//1 306//1 303//1
f 312//1 316//1 319//1 315//1
f 303//1 306//1 316//1 312//1
f 263//3 277//3 278//3 264//3
f 266//1 268//1 283//1 282//1
f 263//1 266//1 282//1 277//1
f 273//6 301//6 300//6 272//6
f 270//1 272//1 300//1 299//1
f 273//1 274//1 305//1 301//1
f 268//2 269//2 271//2 270//2
f 283//1 299//1 302//1 286//1
f 310//4 311//4 297//4 296//4
f 297//1 311//1 314//1 298//1
f 286//1 302//1 310//1 296//1
f 268//1 270//1 299//1 283//1
f 251//1 252//1 255//1 254//1
f 252//1 253//1 258//1 255//1
f 320//2 321//2 324//2 323//2
f 318//1 322//1 324//1 321//1
f 327//2 328//2 330//2 329//2
f 326//6 328//6 327//6 325//6
f 331//1 332//1 335//1 334//1
f 338//2 339//2 341//2 340//2
f 337//6 339//6 338//6 336//6
f 330//6 333//6 332//6 329//6
f 327//1 329//1 332//1 331//1
f 332//2 333//2 337//2 336//2
f 332//1 336//1 338//1 335//1
f 344//4 345//4 343//4 342//4
f 344//3 346//3 347//3 345//3
f 348//1 349//1 352//1 350//1
f 356//2 357//2 359//2 358//2
f 354//3 358//3 359//3 355//3
f 353//1 355//1 359//1 357//1
f 360//1 362//1 364//1 363//1
f 350//3 360//3 361//3 351//3
f 350//1 352//1 362//1 360//1
f 350//4 351//4 347//4 346//4
f 344//1 348//1 350//1 346//1
f 354//2 355//2 361//2 360//2
f 354//1 360//1 363//1 358//1
f 347//1 351//1 361//1 355//1
f 370//4 371//4 369//4 368//4
f 365//3 368//3 369//3 366//3
f 365//1 367//1 370//1 368//1
f 372//1 373//1 375//1 374//1
f 380//3 384//3 385//3 381//3
f 383//6 387//6 386//6 382//6
f 380//1 382//1 386//1 384//1
f 370//3 377//3 378//3 371//3
f 369//1 371//1 378//1 376//1
f 374//1 375//1 382//1 380//1
f 367//1 372//1 374//1 370//1
f 380//4 381//4 378//4 377//4
f 378//1 381//1 385//1 379//1
f 370//1 374//1 380//1 377//1
f 392//4 393//4 391//4 390//4
f 388//1 389//1 392//1 390//1
f 396//4 397//4 395//4 394//4
f 395//6 399//6 398//6 394//6
f 396//3 400//3 401//3 397//3
f 395//1 397//1 401//1 399//1
f 391//6 403//6 402//6 390//6
f 398//4 399//4 393//4 392//4
f 389//1 394//1 398//1 392//1
f 334//1 335//1 367//1 365//1
f 338//1 340//1 373//1 372//1
f 335//1 338//1 372//1 367//1
f 356//1 358//1 389//1 388//1
f 363//1 364//1 396//1 394//1
f 358//1 363//1 394//1 389//1
f 340//2 341//2 357//2 356//2
f 373//1 388//1 390//1 375//1
f 402//4 403//4 383//4 382//4
f 386//2 387//2 405//2 404//2
f 383//1 403//1 405//1 387//1
f 375//1 390//1 402//1 382//1
f 340//1 356//1 388//1 373//1
f 408//2 409//2 411//2 410//2
f 411//6 414//6 413//6 410//6
f 408//1 410//1 413//1 412//1
f 417//6 420//6 419//6 416//6
f 415//1 416//1 419//1 418//1
f 414//6 417//6 416//6 413//6
f 412//1 413//1 416//1 415//1
f 419//2 420//2 423//2 422//2
f 417//1 421//1 423//1 420//1
f 424//1 425//1 428//1 426//1
f 430//6 432//6 431//6 429//6
f 433//3 436//3 437//3 434//3
f 433//1 435//1 438//1 436//1
f 440//6 442//6 441//6 439//6
f 426//3 433//3 434//3 427//3
f 426//1 428//1 435//1 433//1
f 432//6 440//6 439//6 431//6
f 425//1 429//1 431//1 428//1
f 435//1 439//1 441//1 438//1
f 428//1 431//1 439//1 435//1
f 418//1 419//1 425//1 424//1
f 423//6 430//6 429//6 422//6
f 419//1 422//1 429//1 425//1
f 449//4 450//4 448//4 447//4
f 444//3 447//3 448//3 445//3
f 444//1 446//1 449//1 447//1
f 452//3 454//3 455//3 453//3
f 449//3 452//3 453//3 450//3
f 448//1 450//1 453//1 451//1
f 459//2 460//2 462//2 461//2
f 457//6 460//6 459//6 456//6
f 457//1 458//1 462//1 460//1
f 465//6 468//6 467//6 464//6
f 463//1 464//1 467//1 466//1
f 462//6 465//6 464//6 461//6
f 459//1 461//1 464//1 463//1
f 474//3 476//3 477//3 475//3
f 472//3 474//3 475//3 473//3
f 478//3 482//3 483//3 479//3
f 481//6 485//6 484//6 480//6
f 478//1 480//1 484//1 482//1
f 490//6 493//6 492//6 489//6
f 488//1 489//1 492//1 491//1
f 485//6 490//6 489//6 484//6
f 482//1 484//1 489//1 488//1
f 481//1 486//1 487//1 485//1
f 485//1 487//1 494//1 490//1
f 454//3 470//3 471//3 455//3
f 468//6 481//6 480//6 467//6
f 466//1 467//1 480//1 478//1
f 468//1 469//1 486//1 481//1
f 446//1 456//1 459//1 449//1
f 452//1 463//1 466//1 454//1
f 449//1 459//1 463//1 452//1
f 478//4 479//4 471//4 470//4
f 472//2 473//2 483//2 482//2
f 471//1 479//1 483//1 473//1
f 474//1 488//1 491//1 476//1
f 472//1 482//1 488//1 474//1
f 454//1 466//1 478//1 470//1
f 495//3 498//3 499//3 496//3
f 495//1 497//1 500//1 498//1
f 501//2 502//2 504//2 503//2
f 504//6 507//6 506//6 503//6
f 501//1 503//1 506//1 505//1
f 510//4 511//4 509//4 508//4
f 510//3 513//3 514//3 511//3
f 509//1 511//1 514//1 512//1
f 517//6 520//6 519//6 516//6
f 515//1 516//1 519//1 518//1
f 498//3 508//3 509//3 499//3
f 498//1 500//1 510//1 508//1
f 507//6 517//6 516//6 506//6
f 505//1 506//1 516//1 515//1
f 497//1 501//1 505//1 500//1
f 510//1 515//1 518//1 513//1
f 500//1 505//1 515//1 510//1
f 521//3 523//3 524//3 522//3
f 527//6 530//6 529//6 526//6
f 525//1 526//1 529//1 528//1
f 531//3 533//3 534//3 532//3
f 535//1 536//1 539//1 538//1
f 523//3 531//3 532//3 524//3
f 530//6 537//6 536//6 529//6
f 528//1 529//1 536//1 535//1
f 521//1 525//1 528//1 523//1
f 531//1 535//1 538//1 533//1
f 523//1 528//1 535//1 531//1
f 542//6 544//6 543//6 541//6
f 513//3 521//3 522//3 514//3
f 520//6 527//6 526//6 519//6
f 518//1 519//1 526//1 525//1
f 513//1 518//1 525//1 521//1
f 536//2 537//2 542//2 541//2
f 536//1 541//1 543//1 539//1
f 530//1 540//1 542//1 537//1
f 384//3 444//3 445//3 385//3
f 384//1 386//1 446//1 444//1
f 405//6 457//6 456//6 404//6
f 386//1 404//1 456//1 446//1
f 436//3 495//3 496//3 437//3
f 436//1 438//1 497//1 495//1
f 442//6 502//6 501//6 441//6
f 442//1 443//1 504//1 502//1
f 438//1 441//1 501//1 497//1
f 349//1 408//1 412//1 352//1
f 362//1 415//1 418//1 364//1
f 352//1 412//1 415//1 362//1
f 426//4 427//4 401//4 400//4
f 396//1 424//1 426//1 400//1
f 406//1 434//1 437//1 407//1
f 401//1 427//1 434//1 406//1
f 364//1 418//1 424//1 396//1
f 293//6 326//6 325//6 292//6
f 313//3 342//3 343//3 314//3
f 313//1 315//1 344//1 342//1
f 319//1 320//1 349//1 348//1
f 315//1 319//1 348//1 344//1
f 324//6 409//6 408//6 323//6
f 320//1 323//1 408//1 349//1
f 549//5 550//5 548//5 547//5
f 554//5 555//5 553//5 552//5
f 560//5 561//5 559//5 558//5
f 564//2 565//2 567//2 566//2
f 558//5 559//5 555//5 554//5
f 555//5 557//5 556//5 553//5
f 561//2 562//2 565//2 564//2
f 561//5 564//5 563//5 559//5
f 559//5 563//5 557//5 555//5
f 568//2 569//2 571//2 570//2
f 573//2 574//2 576//2 575//2
f 577//5 579//5 576//5 574//5
f 584//4 585//4 583//4 582//4
f 583//5 585//5 581//5 580//5
f 588//4 589//4 587//4 586//4
f 587//6 591//6 590//6 586//6
f 590//5 592//5 588//5 586//5
f 579//6 589//6 588//6 578//6
f 587//5 589//5 579//5 577//5
f 584//3 594//3 595//3 585//3
f 582//4 583//4 579//4 578//4
f 579//5 583//5 580//5 576//5
f 588//5 593//5 582//5 578//5
f 600//5 601//5 599//5 597//5
f 604//2 605//2 607//2 606//2
f 603//6 605//6 604//6 602//6
f 608//3 611//3 612//3 609//3
f 612//5 613//5 610//5 609//5
f 616//6 619//6 618//6 615//6
f 617//5 619//5 616//5 614//5
f 609//5 610//5 601//5 600//5
f 607//6 616//6 615//6 606//6
f 614//5 616//5 607//5 605//5
f 598//2 599//2 603//2 602//2
f 601//5 605//5 603//5 599//5
f 613//5 617//5 614//5 610//5
f 610//5 614//5 605//5 601//5
f 561//3 575//3 576//3 562//3
f 580//5 581//5 567//5 565//5
f 576//5 580//5 565//5 562//5
f 571//6 599//6 598//6 570//6
f 597//5 599//5 571//5 569//5
f 598//5 602//5 572//5 570//5
f 566//2 567//2 569//2 568//2
f 585//5 600//5 597//5 581//5
f 608//4 609//4 595//4 594//4
f 596//5 611//5 608//5 594//5
f 595//5 609//5 600//5 585//5
f 581//5 597//5 569//5 567//5
f 552//5 553//5 550//5 549//5
f 553//5 556//5 551//5 550//5
f 618//2 619//2 622//2 621//2
f 618//5 621//5 620//5 615//5
f 625//2 626//2 628//2 627//2
f 624//6 626//6 625//6 623//6
f 632//5 633//5 631//5 629//5
f 636//2 637//2 639//2 638//2
f 635//6 637//6 636//6 634//6
f 628//6 631//6 630//6 627//6
f 629//5 631//5 628//5 626//5
f 630//2 631//2 635//2 634//2
f 633//5 637//5 635//5 631//5
f 642//4 643//4 641//4 640//4
f 642//3 644//3 645//3 643//3
f 649//5 650//5 647//5 646//5
f 654//2 655//2 657//2 656//2
f 652//3 656//3 657//3 653//3
f 654//5 656//5 652//5 651//5
f 661//5 662//5 660//5 659//5
f 648//3 658//3 659//3 649//3
f 659//5 660//5 650//5 649//5
f 648//4 649//4 645//4 644//4
f 645//5 649//5 646//5 643//5
f 652//2 653//2 659//2 658//2
f 657//5 661//5 659//5 653//5
f 652//5 658//5 648//5 644//5
f 668//4 669//4 667//4 666//4
f 663//3 666//3 667//3 664//3
f 667//5 669//5 665//5 664//5
f 672//5 673//5 671//5 670//5
f 678//3 682//3 683//3 679//3
f 681//6 685//6 684//6 680//6
f 683//5 685//5 681//5 679//5
f 668//3 675//3 676//3 669//3
f 674//5 675//5 668//5 666//5
f 679//5 681//5 673//5 672//5
f 669//5 672//5 670//5 665//5
f 678//4 679//4 676//4 675//4
f 677//5 682//5 678//5 675//5
f 676//5 679//5 672//5 669//5
f 690//4 691//4 689//4 688//4
f 689//5 691//5 687//5 686//5
f 694//4 695//4 693//4 692//4
f 693//6 697//6 696//6 692//6
f 694//3 698//3 699//3 695//3
f 696//5 698//5 694//5 692//5
f 689//6 701//6 700//6 688//6
f 696//4 697//4 691//4 690//4
f 691//5 697//5 693//5 687//5
f 664//5 665//5 633//5 632//5
f 670//5 671//5 639//5 637//5
f 665//5 670//5 637//5 633//5
f 686//5 687//5 657//5 655//5
f 693//5 695//5 662//5 661//5
f 687//5 693//5 661//5 657//5
f 638//2 639//2 655//2 654//2
f 673//5 689//5 686//5 671//5
f 700//4 701//4 681//4 680//4
f 684//2 685//2 703//2 702//2
f 684//5 702//5 700//5 680//5
f 681//5 701//5 689//5 673//5
f 671//5 686//5 655//5 639//5
f 706//2 707//2 709//2 708//2
f 709//6 712//6 711//6 708//6
f 710//5 712//5 709//5 707//5
f 715//6 718//6 717//6 714//6
f 716//5 718//5 715//5 713//5
f 712//6 715//6 714//6 711//6
f 713//5 715//5 712//5 710//5
f 717//2 718//2 721//2 720//2
f 717//5 720//5 719//5 714//5
f 725//5 726//5 723//5 722//5
f 728//6 730//6 729//6 727//6
f 731//3 734//3 735//3 732//3
f 735//5 736//5 733//5 732//5
f 738//6 740//6 739//6 737//6
f 724//3 731//3 732//3 725//3
f 732//5 733//5 726//5 725//5
f 730//6 738//6 737//6 729//6
f 726//5 730//5 728//5 723//5
f 736//5 740//5 738//5 733//5
f 733//5 738//5 730//5 726//5
f 722//5 723//5 718//5 716//5
f 721//6 728//6 727//6 720//6
f 723//5 728//5 721//5 718//5
f 747//4 748//4 746//4 745//4
f 742//3 745//3 746//3 743//3
f 746//5 748//5 744//5 743//5
f 750//3 752//3 753//3 751//3
f 747//3 750//3 751//3 748//3
f 749//5 750//5 747//5 745//5
f 757//2 758//2 760//2 759//2
f 755//6 758//6 757//6 754//6
f 757//5 759//5 756//5 754//5
f 763//6 766//6 765//6 762//6
f 764//5 766//5 763//5 761//5
f 760//6 763//6 762//6 759//6
f 761//5 763//5 760//5 758//5
f 772//3 774//3 775//3 773//3
f 770//3 772//3 773//3 771//3
f 776//3 780//3 781//3 777//3
f 779//6 783//6 782//6 778//6
f 781//5 783//5 779//5 777//5
f 788//6 791//6 790//6 787//6
f 789//5 791//5 788//5 786//5
f 783//6 788//6 787//6 782//6
f 786//5 788//5 783//5 781//5
f 782//5 785//5 784//5 778//5
f 787//5 792//5 785//5 782//5
f 752//3 768//3 769//3 753//3
f 766//6 779//6 778//6 765//6
f 777//5 779//5 766//5 764//5
f 778//5 784//5 767//5 765//5
f 748//5 758//5 755//5 744//5
f 753//5 764//5 761//5 751//5
f 751//5 761//5 758//5 748//5
f 776//4 777//4 769//4 768//4
f 770//2 771//2 781//2 780//2
f 770//5 780//5 776//5 768//5
f 775//5 789//5 786//5 773//5
f 773//5 786//5 781//5 771//5
f 769//5 777//5 764//5 753//5
f 793//3 796//3 797//3 794//3
f 797//5 798//5 795//5 794//5
f 799//2 800//2 802//2 801//2
f 802//6 805//6 804//6 801//6
f 803//5 805//5 802//5 800//5
f 808//4 809//4 807//4 806//4
f 808//3 811//3 812//3 809//3
f 810//5 811//5 808//5 806//5
f 815//6 818//6 817//6 814//6
f 816//5 818//5 815//5 813//5
f 796//3 806//3 807//3 797//3
f 807//5 809//5 798//5 797//5
f 805//6 815//6 814//6 804//6
f 813//5 815//5 805//5 803//5
f 798//5 803//5 800//5 795//5
f 812//5 816//5 813//5 809//5
f 809//5 813//5 803//5 798//5
f 819//3 821//3 822//3 820//3
f 825//6 828//6 827//6 824//6
f 826//5 828//5 825//5 823//5
f 829//3 831//3 832//3 830//3
f 836//5 837//5 835//5 833//5
f 821//3 829//3 830//3 822//3
f 828//6 835//6 834//6 827//6
f 833//5 835//5 828//5 826//5
f 822//5 826//5 823//5 820//5
f 832//5 836//5 833//5 830//5
f 830//5 833//5 826//5 822//5
f 840//6 842//6 841//6 839//6
f 811//3 819//3 820//3 812//3
f 818//6 825//6 824//6 817//6
f 823//5 825//5 818//5 816//5
f 820//5 823//5 816//5 812//5
f 834//2 835//2 840//2 839//2
f 837//5 842//5 840//5 835//5
f 834//5 839//5 838//5 827//5
f 682//3 742//3 743//3 683//3
f 743//5 744//5 685//5 683//5
f 703//6 755//6 754//6 702//6
f 744//5 755//5 703//5 685//5
f 734//3 793//3 794//3 735//3
f 794//5 795//5 736//5 735//5
f 740//6 800//6 799//6 739//6
f 799//5 801//5 741//5 739//5
f 795//5 800//5 740//5 736//5
f 650//5 710//5 707//5 647//5
f 662//5 716//5 713//5 660//5
f 660//5 713//5 710//5 650//5
f 724//4 725//4 699//4 698//4
f 699//5 725//5 722//5 695//5
f 705//5 734//5 731//5 704//5
f 704//5 731//5 724//5 698//5
f 695//5 722//5 716//5 662//5
f 591//6 624//6 623//6 590//6
f 611//3 640//3 641//3 612//3
f 641//5 643//5 613//5 612//5
f 646//5 647//5 619//5 617//5
f 643//5 646//5 617//5 613//5
f 622//6 707//6 706//6 621//6
f 647//5 707//5 622//5 619//5
f 848//1 849//1 851//1 850//1
f 844//1 845//1 849//1 848//1
f 846//1 848//1 850//1 847//1
f 855//1 856//1 858//1 857//1
f 859//1 860//1 862//1 861//1
f 863//1 864//1 866//1 865//1
f 857//1 858//1 864//1 863//1
f 853//1 855//1 857//1 854//1
f 860//1 863//1 865//1 862//1
f 854//1 857//1 863//1 860//1
f 850//1 851//1 856//1 855//1
f 847//1 850//1 855//1 853//1
f 871//1 872//1 874//1 873//1
f 868//1 871//1 873//1 870//1
f 869//1 870//1 876//1 875//1
f 873//1 874//1 878//1 877//1
f 870//1 873//1 877//1 876//1
f 882//1 883//1 885//1 884//1
f 886//1 887//1 889//1 888//1
f 890//1 891//1 893//1 892//1
f 880//1 881//1 887//1 886//1
f 884//1 885//1 891//1 890//1
f 879//1 882//1 884//1 881//1
f 887//1 890//1 892//1 889//1
f 881//1 884//1 890//1 887//1
f 894//1 895//1 897//1 896//1
f 898//1 899//1 901//1 900//1
f 902//1 903//1 905//1 904//1
f 896//1 897//1 903//1 902//1
f 900//1 901//1 907//1 906//1
f 895//1 898//1 900//1 897//1
f 903//1 906//1 908//1 905//1
f 897//1 900//1 906//1 903//1
f 888//1 889//1 910//1 909//1
f 892//1 893//1 912//1 911//1
f 889//1 892//1 911//1 910//1
f 883//1 894//1 896//1 885//1
f 891//1 902//1 904//1 893//1
f 885//1 896//1 902//1 891//1
f 893//1 904//1 913//1 912//1
f 861//1 862//1 895//1 894//1
f 865//1 866//1 899//1 898//1
f 862//1 865//1 898//1 895//1
f 852//1 861//1 894//1 883//1
f 872//1 886//1 888//1 874//1
f 867//1 880//1 886//1 872//1
f 874//1 888//1 909//1 878//1
f 921//5 922//5 920//5 919//5
f 919//5 920//5 916//5 915//5
f 918//5 921//5 919//5 917//5
f 928//5 929//5 927//5 926//5
f 932//5 933//5 931//5 930//5
f 936//5 937//5 935//5 934//5
f 934//5 935//5 929//5 928//5
f 925//5 928//5 926//5 924//5
f 933//5 936//5 934//5 931//5
f 931//5 934//5 928//5 925//5
f 926//5 927//5 922//5 921//5
f 924//5 926//5 921//5 918//5
f 944//5 945//5 943//5 942//5
f 941//5 944//5 942//5 939//5
f 946//5 947//5 941//5 940//5
f 948//5 949//5 945//5 944//5
f 947//5 948//5 944//5 941//5
f 955//5 956//5 954//5 953//5
f 959//5 960//5 958//5 957//5
f 963//5 964//5 962//5 961//5
f 957//5 958//5 952//5 951//5
f 961//5 962//5 956//5 955//5
f 952//5 955//5 953//5 950//5
f 960//5 963//5 961//5 958//5
f 958//5 961//5 955//5 952//5
f 967//5 968//5 966//5 965//5
f 971//5 972//5 970//5 969//5
f 975//5 976//5 974//5 973//5
f 973//5 974//5 968//5 967//5
f 977//5 978//5 972//5 971//5
f 968//5 971//5 969//5 966//5
f 976//5 979//5 977//5 974//5
f 974//5 977//5 971//5 968//5
f 980//5 981//5 960//5 959//5
f 982//5 983//5 964//5 963//5
f 981//5 982//5 963//5 960//5
f 956//5 967//5 965//5 954//5
f 964//5 975//5 973//5 962//5
f 962//5 973//5 967//5 956//5
f 983//5 984//5 975//5 964//5
f 965//5 966//5 933//5 932//5
f 969//5 970//5 937//5 936//5
f 966//5 969//5 936//5 933//5
f 954//5 965//5 932//5 923//5
f 945//5 959//5 957//5 943//5
f 943//5 957//5 951//5 938//5
f 949//5 980//5 959//5 945//5
f 987//2 988//2 990//2 989//2
f 985//3 989//3 990//3 986//3
f 999//4 1000//4 998//4 997//4
f 994//3 997//3 998//3 995//3
f 994//1 996//1 999//1 997//1
f 987//3 994//3 995//3 988//3
f 987//1 989//1 996//1 994//1
f 991//1 995//1 998//1 993//1
f 1003//6 1006//6 1005//6 1002//6
f 1001//1 1002//1 1005//1 1004//1
f 1008//2 1009//2 1011//2 1010//2
f 1012//1 1013//1 1016//1 1014//1
f 1021//4 1022//4 1020//4 1019//4
f 1017//1 1018//1 1021//1 1019//1
f 1004//1 1005//1 1013//1 1012//1
f 1008//1 1010//1 1018//1 1017//1
f 1005//2 1006//2 1009//2 1008//2
f 1013//1 1017//1 1019//1 1016//1
f 1005//1 1008//1 1017//1 1013//1
f 1023//1 1024//1 1026//1 1025//1
f 1027//1 1028//1 1030//1 1029//1
f 1031//1 1032//1 1034//1 1033//1
f 1035//1 1036//1 1038//1 1037//1
f 1025//1 1026//1 1032//1 1031//1
f 1029//1 1030//1 1036//1 1035//1
f 1024//1 1027//1 1029//1 1026//1
f 1032//1 1035//1 1037//1 1034//1
f 1026//1 1029//1 1035//1 1032//1
f 1041//4 1042//4 1040//4 1039//4
f 1040//1 1042//1 1044//1 1043//1
f 1048//1 1049//1 1051//1 1050//1
f 1043//1 1044//1 1049//1 1048//1
f 1045//4 1046//4 1042//4 1041//4
f 992//1 993//1 1024//1 1023//1
f 998//1 1000//1 1028//1 1027//1
f 993//1 998//1 1027//1 1024//1
f 1014//3 1039//3 1040//3 1015//3
f 1014//1 1016//1 1041//1 1039//1
f 1020//6 1046//6 1045//6 1019//6
f 1020//1 1022//1 1047//1 1046//1
f 1016//1 1019//1 1045//1 1041//1
f 985//1 1001//1 1004//1 989//1
f 1014//4 1015//4 1000//4 999//4
f 996//1 1012//1 1014//1 999//1
f 989//1 1004//1 1012//1 996//1
f 1028//1 1040//1 1043//1 1030//1
f 1036//1 1048//1 1050//1 1038//1
f 1030//1 1043//1 1048//1 1036//1
f 1000//1 1015//1 1040//1 1028//1
f 1052//2 1053//2 1055//2 1054//2
f 1052//3 1056//3 1057//3 1053//3
f 1052//1 1054//1 1058//1 1056//1
f 1059//1 1060//1 1062//1 1061//1
f 1068//4 1069//4 1067//4 1066//4
f 1065//6 1069//6 1068//6 1064//6
f 1063//1 1064//1 1068//1 1066//1
f 1076//4 1077//4 1075//4 1074//4
f 1070//3 1074//3 1075//3 1071//3
f 1070//1 1072//1 1076//1 1074//1
f 1075//5 1077//5 1073//5 1071//5
f 1056//1 1058//1 1064//1 1063//1
f 1061//1 1062//1 1072//1 1070//1
f 1054//1 1059//1 1061//1 1058//1
f 1070//4 1071//4 1065//4 1064//4
f 1058//1 1061//1 1070//1 1064//1
f 1079//6 1081//6 1080//6 1078//6
f 1083//6 1086//6 1085//6 1082//6
f 1083//1 1084//1 1087//1 1086//1
f 1081//6 1083//6 1082//6 1080//6
f 1090//1 1092//1 1094//1 1093//1
f 1097//1 1098//1 1100//1 1099//1
f 1093//1 1094//1 1098//1 1097//1
f 1088//1 1090//1 1093//1 1089//1
f 1095//1 1097//1 1099//1 1096//1
f 1089//1 1093//1 1097//1 1095//1
f 1102//1 1103//1 1105//1 1104//1
f 1104//1 1105//1 1107//1 1106//1
f 1076//3 1091//3 1092//3 1077//3
f 1075//1 1077//1 1092//1 1090//1
f 1069//1 1075//1 1090//1 1088//1
f 1086//6 1102//6 1101//6 1085//6
f 1086//1 1087//1 1103//1 1102//1
f 1060//1 1078//1 1080//1 1062//1
f 1072//1 1082//1 1085//1 1076//1
f 1077//5 1086//5 1083//5 1073//5
f 1062//1 1080//1 1082//1 1072//1
f 1101//4 1102//4 1092//4 1091//4
f 1092//1 1102//1 1104//1 1094//1
f 1098//1 1106//1 1108//1 1100//1
f 1094//1 1104//1 1106//1 1098//1
f 1076//1 1085//1 1101//1 1091//1
f 1092//5 1102//5 1086//5 1077//5
f 1112//1 1113//1 1115//1 1114//1
f 1118//1 1119//1 1121//1 1120//1
f 1114//1 1115//1 1119//1 1118//1
f 1110//1 1112//1 1114//1 1111//1
f 1116//1 1118//1 1120//1 1117//1
f 1111//1 1114//1 1118//1 1116//1
f 1122//1 1123//1 1125//1 1124//1
f 1126//1 1127//1 1129//1 1128//1
f 1124//1 1125//1 1127//1 1126//1
f 1135//1 1136//1 1138//1 1137//1
f 1139//1 1140//1 1142//1 1141//1
f 1143//1 1144//1 1146//1 1145//1
f 1133//1 1134//1 1140//1 1139//1
f 1137//1 1138//1 1144//1 1143//1
f 1132//1 1135//1 1137//1 1134//1
f 1140//1 1143//1 1145//1 1142//1
f 1134//1 1137//1 1143//1 1140//1
f 1147//1 1148//1 1150//1 1149//1
f 1158//1 1159//1 1161//1 1160//1
f 1152//1 1153//1 1159//1 1158//1
f 1155//1 1158//1 1160//1 1157//1
f 1120//1 1121//1 1136//1 1135//1
f 1117//1 1120//1 1135//1 1132//1
f 1128//1 1129//1 1148//1 1147//1
f 1113//1 1122//1 1124//1 1115//1
f 1119//1 1126//1 1128//1 1121//1
f 1115//1 1124//1 1126//1 1119//1
f 1136//1 1147//1 1149//1 1138//1
f 1144//1 1154//1 1156//1 1146//1
f 1138//1 1149//1 1154//1 1144//1
f 1121//1 1128//1 1147//1 1136//1
f 1162//1 1163//1 1165//1 1164//1
f 1166//1 1167//1 1169//1 1168//1
f 1170//1 1171//1 1173//1 1172//1
f 1174//1 1175//1 1177//1 1176//1
f 1164//1 1165//1 1171//1 1170//1
f 1168//1 1169//1 1175//1 1174//1
f 1163//1 1166//1 1168//1 1165//1
f 1171//1 1174//1 1176//1 1173//1
f 1165//1 1168//1 1174//1 1171//1
f 1180//1 1181//1 1183//1 1182//1
f 1186//1 1187//1 1189//1 1188//1
f 1182//1 1183//1 1187//1 1186//1
f 1181//1 1184//1 1185//1 1183//1
f 1183//1 1185//1 1190//1 1187//1
f 1172//1 1173//1 1181//1 1180//1
f 1173//1 1176//1 1184//1 1181//1
f 1167//1 1178//1 1179//1 1169//1
f 1033//1 1034//1 1110//1 1109//1
f 1037//1 1038//1 1113//1 1112//1
f 1034//1 1037//1 1112//1 1110//1
f 1050//1 1051//1 1123//1 1122//1
f 1038//1 1050//1 1122//1 1113//1
f 1099//1 1100//1 1167//1 1166//1
f 1096//1 1099//1 1166//1 1163//1
f 1100//1 1108//1 1178//1 1167//1
f 1010//2 1011//2 1057//2 1056//2
f 1007//1 1053//1 1057//1 1011//1
f 1066//4 1067//4 1022//4 1021//4
f 1018//1 1063//1 1066//1 1021//1
f 1010//1 1056//1 1063//1 1018//1
f 1130//1 1170//1 1172//1 1131//1
f 1151//1 1180//1 1182//1 1153//1
f 1159//1 1186//1 1188//1 1161//1
f 1153//1 1182//1 1186//1 1159//1
f 1131//1 1172//1 1180//1 1151//1
f 1192//1 1193//1 1195//1 1194//1
f 1196//1 1197//1 1199//1 1198//1
f 1200//1 1201//1 1203//1 1202//1
f 1204//1 1205//1 1207//1 1206//1
f 1194//1 1195//1 1201//1 1200//1
f 1198//1 1199//1 1205//1 1204//1
f 1193//1 1196//1 1198//1 1195//1
f 1201//1 1204//1 1206//1 1203//1
f 1195//1 1198//1 1204//1 1201//1
f 1208//1 1209//1 1211//1 1210//1
f 1212//1 1213//1 1215//1 1214//1
f 1216//1 1217//1 1219//1 1218//1
f 1220//1 1221//1 1223//1 1222//1
f 1210//1 1211//1 1217//1 1216//1
f 1214//1 1215//1 1221//1 1220//1
f 1209//1 1212//1 1214//1 1211//1
f 1217//1 1220//1 1222//1 1219//1
f 1211//1 1214//1 1220//1 1217//1
f 1224//1 1225//1 1227//1 1226//1
f 1228//1 1229//1 1231//1 1230//1
f 1232//1 1233//1 1235//1 1234//1
f 1236//1 1237//1 1239//1 1238//1
f 1226//1 1227//1 1233//1 1232//1
f 1230//1 1231//1 1237//1 1236//1
f 1225//1 1228//1 1230//1 1227//1
f 1233//1 1236//1 1238//1 1235//1
f 1227//1 1230//1 1236//1 1233//1
f 1240//1 1241//1 1243//1 1242//1
f 1244//1 1245//1 1247//1 1246//1
f 1248//1 1249//1 1251//1 1250//1
f 1242//1 1243//1 1249//1 1248//1
f 1241//1 1244//1 1246//1 1243//1
f 1243//1 1246//1 1252//1 1249//1
f 1202//1 1203//1 1225//1 1224//1
f 1206//1 1207//1 1229//1 1228//1
f 1203//1 1206//1 1228//1 1225//1
f 1218//1 1219//1 1241//1 1240//1
f 1222//1 1223//1 1245//1 1244//1
f 1219//1 1222//1 1244//1 1241//1
f 1197//1 1208//1 1210//1 1199//1
f 1205//1 1216//1 1218//1 1207//1
f 1199//1 1210//1 1216//1 1205//1
f 1229//1 1240//1 1242//1 1231//1
f 1237//1 1248//1 1250//1 1239//1
f 1231//1 1242//1 1248//1 1237//1
f 1207//1 1218//1 1240//1 1229//1
f 1253//1 1254//1 1256//1 1255//1
f 1255//1 1256//1 1259//1 1258//1
f 1262//1 1263//1 1265//1 1264//1
f 1264//1 1265//1 1270//1 1269//1
f 1263//1 1266//1 1268//1 1265//1
f 1234//1 1235//1 1263//1 1262//1
f 1238//1 1239//1 1267//1 1266//1
f 1235//1 1238//1 1266//1 1263//1
f 1239//1 1250//1 1271//1 1267//1
f 1213//1 1253//1 1255//1 1215//1
f 1221//1 1258//1 1260//1 1223//1
f 1215//1 1255//1 1258//1 1221//1
f 1223//1 1260//1 1261//1 1245//1
f 1141//1 1142//1 1193//1 1192//1
f 1145//1 1146//1 1197//1 1196//1
f 1142//1 1145//1 1196//1 1193//1
f 1156//1 1157//1 1209//1 1208//1
f 1160//1 1161//1 1213//1 1212//1
f 1157//1 1160//1 1212//1 1209//1
f 1146//1 1156//1 1208//1 1197//1
f 1188//1 1189//1 1254//1 1253//1
f 1189//1 1191//1 1257//1 1254//1
f 1161//1 1188//1 1253//1 1213//1
f 1274//2 1275//2 1277//2 1276//2
f 1272//3 1276//3 1277//3 1273//3
f 1286//4 1287//4 1285//4 1284//4
f 1281//3 1284//3 1285//3 1282//3
f 1285//5 1287//5 1283//5 1282//5
f 1274//3 1281//3 1282//3 1275//3
f 1282//5 1283//5 1277//5 1275//5
f 1280//5 1284//5 1281//5 1278//5
f 1290//6 1293//6 1292//6 1289//6
f 1291//5 1293//5 1290//5 1288//5
f 1295//2 1296//2 1298//2 1297//2
f 1302//5 1303//5 1300//5 1299//5
f 1308//4 1309//4 1307//4 1306//4
f 1307//5 1309//5 1305//5 1304//5
f 1299//5 1300//5 1293//5 1291//5
f 1304//5 1305//5 1298//5 1296//5
f 1292//2 1293//2 1296//2 1295//2
f 1303//5 1307//5 1304//5 1300//5
f 1300//5 1304//5 1296//5 1293//5
f 1312//5 1313//5 1311//5 1310//5
f 1316//5 1317//5 1315//5 1314//5
f 1320//5 1321//5 1319//5 1318//5
f 1324//5 1325//5 1323//5 1322//5
f 1318//5 1319//5 1313//5 1312//5
f 1322//5 1323//5 1317//5 1316//5
f 1313//5 1316//5 1314//5 1311//5
f 1321//5 1324//5 1322//5 1319//5
f 1319//5 1322//5 1316//5 1313//5
f 1328//4 1329//4 1327//4 1326//4
f 1330//5 1331//5 1328//5 1326//5
f 1337//5 1338//5 1336//5 1335//5
f 1335//5 1336//5 1331//5 1330//5
f 1332//4 1333//4 1329//4 1328//4
f 1310//5 1311//5 1280//5 1279//5
f 1314//5 1315//5 1286//5 1284//5
f 1311//5 1314//5 1284//5 1280//5
f 1301//3 1326//3 1327//3 1302//3
f 1327//5 1329//5 1303//5 1302//5
f 1307//6 1333//6 1332//6 1306//6
f 1332//5 1334//5 1308//5 1306//5
f 1329//5 1333//5 1307//5 1303//5
f 1277//5 1291//5 1288//5 1273//5
f 1301//4 1302//4 1287//4 1286//4
f 1287//5 1302//5 1299//5 1283//5
f 1283//5 1299//5 1291//5 1277//5
f 1317//5 1330//5 1326//5 1315//5
f 1325//5 1337//5 1335//5 1323//5
f 1323//5 1335//5 1330//5 1317//5
f 1315//5 1326//5 1301//5 1286//5
f 1339//2 1340//2 1342//2 1341//2
f 1339//3 1343//3 1344//3 1340//3
f 1344//5 1345//5 1342//5 1340//5
f 1348//5 1349//5 1347//5 1346//5
f 1355//4 1356//4 1354//4 1353//4
f 1352//6 1356//6 1355//6 1351//6
f 1354//5 1356//5 1352//5 1350//5
f 1363//4 1364//4 1362//4 1361//4
f 1357//3 1361//3 1362//3 1358//3
f 1357//1 1359//1 1363//1 1361//1
f 1362//5 1364//5 1360//5 1358//5
f 1350//5 1352//5 1345//5 1344//5
f 1358//5 1360//5 1349//5 1348//5
f 1345//5 1348//5 1346//5 1342//5
f 1357//4 1358//4 1352//4 1351//4
f 1352//5 1358//5 1348//5 1345//5
f 1366//6 1368//6 1367//6 1365//6
f 1370//6 1373//6 1372//6 1369//6
f 1372//5 1374//5 1371//5 1369//5
f 1368//6 1370//6 1369//6 1367//6
f 1380//5 1381//5 1378//5 1377//5
f 1386//5 1387//5 1385//5 1384//5
f 1384//5 1385//5 1381//5 1380//5
f 1376//5 1380//5 1377//5 1375//5
f 1383//5 1386//5 1384//5 1382//5
f 1382//5 1384//5 1380//5 1376//5
f 1391//5 1392//5 1390//5 1388//5
f 1393//5 1394//5 1392//5 1391//5
f 1363//3 1378//3 1379//3 1364//3
f 1377//5 1378//5 1363//5 1361//5
f 1375//5 1377//5 1361//5 1355//5
f 1373//6 1389//6 1388//6 1372//6
f 1388//5 1390//5 1374//5 1372//5
f 1349//5 1368//5 1366//5 1347//5
f 1359//1 1369//1 1372//1 1363//1
f 1364//5 1373//5 1370//5 1360//5
f 1360//5 1370//5 1368//5 1349//5
f 1388//4 1389//4 1379//4 1378//4
f 1381//5 1391//5 1388//5 1378//5
f 1387//5 1395//5 1393//5 1385//5
f 1385//5 1393//5 1391//5 1381//5
f 1363//1 1372//1 1388//1 1378//1
f 1379//5 1389//5 1373//5 1364//5
f 1401//5 1402//5 1400//5 1399//5
f 1407//5 1408//5 1406//5 1405//5
f 1405//5 1406//5 1402//5 1401//5
f 1398//5 1401//5 1399//5 1397//5
f 1404//5 1407//5 1405//5 1403//5
f 1403//5 1405//5 1401//5 1398//5
f 1411//5 1412//5 1410//5 1409//5
f 1415//5 1416//5 1414//5 1413//5
f 1413//5 1414//5 1412//5 1411//5
f 1424//5 1425//5 1423//5 1422//5
f 1428//5 1429//5 1427//5 1426//5
f 1432//5 1433//5 1431//5 1430//5
f 1426//5 1427//5 1421//5 1420//5
f 1430//5 1431//5 1425//5 1424//5
f 1421//5 1424//5 1422//5 1419//5
f 1429//5 1432//5 1430//5 1427//5
f 1427//5 1430//5 1424//5 1421//5
f 1436//5 1437//5 1435//5 1434//5
f 1447//5 1448//5 1446//5 1445//5
f 1445//5 1446//5 1440//5 1439//5
f 1444//5 1447//5 1445//5 1442//5
f 1422//5 1423//5 1408//5 1407//5
f 1419//5 1422//5 1407//5 1404//5
f 1434//5 1435//5 1416//5 1415//5
f 1402//5 1411//5 1409//5 1400//5
f 1408//5 1415//5 1413//5 1406//5
f 1406//5 1413//5 1411//5 1402//5
f 1425//5 1436//5 1434//5 1423//5
f 1433//5 1443//5 1441//5 1431//5
f 1431//5 1441//5 1436//5 1425//5
f 1423//5 1434//5 1415//5 1408//5
f 1451//5 1452//5 1450//5 1449//5
f 1455//5 1456//5 1454//5 1453//5
f 1459//5 1460//5 1458//5 1457//5
f 1463//5 1464//5 1462//5 1461//5
f 1457//5 1458//5 1452//5 1451//5
f 1461//5 1462//5 1456//5 1455//5
f 1452//5 1455//5 1453//5 1450//5
f 1460//5 1463//5 1461//5 1458//5
f 1458//5 1461//5 1455//5 1452//5
f 1469//5 1470//5 1468//5 1467//5
f 1475//5 1476//5 1474//5 1473//5
f 1473//5 1474//5 1470//5 1469//5
f 1470//5 1472//5 1471//5 1468//5
f 1474//5 1477//5 1472//5 1470//5
f 1467//5 1468//5 1460//5 1459//5
f 1468//5 1471//5 1463//5 1460//5
f 1456//5 1466//5 1465//5 1454//5
f 1396//5 1397//5 1321//5 1320//5
f 1399//5 1400//5 1325//5 1324//5
f 1397//5 1399//5 1324//5 1321//5
f 1409//5 1410//5 1338//5 1337//5
f 1400//5 1409//5 1337//5 1325//5
f 1453//5 1454//5 1387//5 1386//5
f 1450//5 1453//5 1386//5 1383//5
f 1454//5 1465//5 1395//5 1387//5
f 1297//2 1298//2 1344//2 1343//2
f 1297//5 1343//5 1339//5 1294//5
f 1353//4 1354//4 1309//4 1308//4
f 1309//5 1354//5 1350//5 1305//5
f 1305//5 1350//5 1344//5 1298//5
f 1418//5 1459//5 1457//5 1417//5
f 1440//5 1469//5 1467//5 1438//5
f 1448//5 1475//5 1473//5 1446//5
f 1446//5 1473//5 1469//5 1440//5
f 1438//5 1467//5 1459//5 1418//5
f 1481//5 1482//5 1480//5 1479//5
f 1485//5 1486//5 1484//5 1483//5
f 1489//5 1490//5 1488//5 1487//5
f 1493//5 1494//5 1492//5 1491//5
f 1487//5 1488//5 1482//5 1481//5
f 1491//5 1492//5 1486//5 1485//5
f 1482//5 1485//5 1483//5 1480//5
f 1490//5 1493//5 1491//5 1488//5
f 1488//5 1491//5 1485//5 1482//5
f 1497//5 1498//5 1496//5 1495//5
f 1501//5 1502//5 1500//5 1499//5
f 1505//5 1506//5 1504//5 1503//5
f 1509//5 1510//5 1508//5 1507//5
f 1503//5 1504//5 1498//5 1497//5
f 1507//5 1508//5 1502//5 1501//5
f 1498//5 1501//5 1499//5 1496//5
f 1506//5 1509//5 1507//5 1504//5
f 1504//5 1507//5 1501//5 1498//5
f 1513//5 1514//5 1512//5 1511//5
f 1517//5 1518//5 1516//5 1515//5
f 1521//5 1522//5 1520//5 1519//5
f 1525//5 1526//5 1524//5 1523//5
f 1519//5 1520//5 1514//5 1513//5
f 1523//5 1524//5 1518//5 1517//5
f 1514//5 1517//5 1515//5 1512//5
f 1522//5 1525//5 1523//5 1520//5
f 1520//5 1523//5 1517//5 1514//5
f 1529//5 1530//5 1528//5 1527//5
f 1533//5 1534//5 1532//5 1531//5
f 1537//5 1538//5 1536//5 1535//5
f 1535//5 1536//5 1530//5 1529//5
f 1530//5 1533//5 1531//5 1528//5
f 1536//5 1539//5 1533//5 1530//5
f 1511//5 1512//5 1490//5 1489//5
f 1515//5 1516//5 1494//5 1493//5
f 1512//5 1515//5 1493//5 1490//5
f 1527//5 1528//5 1506//5 1505//5
f 1531//5 1532//5 1510//5 1509//5
f 1528//5 1531//5 1509//5 1506//5
f 1486//5 1497//5 1495//5 1484//5
f 1494//5 1505//5 1503//5 1492//5
f 1492//5 1503//5 1497//5 1486//5
f 1518//5 1529//5 1527//5 1516//5
f 1526//5 1537//5 1535//5 1524//5
f 1524//5 1535//5 1529//5 1518//5
f 1516//5 1527//5 1505//5 1494//5
f 1542//5 1543//5 1541//5 1540//5
f 1545//5 1546//5 1543//5 1542//5
f 1551//5 1552//5 1550//5 1549//5
f 1556//5 1557//5 1552//5 1551//5
f 1552//5 1555//5 1553//5 1550//5
f 1549//5 1550//5 1522//5 1521//5
f 1553//5 1554//5 1526//5 1525//5
f 1550//5 1553//5 1525//5 1522//5
f 1554//5 1558//5 1537//5 1526//5
f 1502//5 1542//5 1540//5 1500//5
f 1510//5 1547//5 1545//5 1508//5
f 1508//5 1545//5 1542//5 1502//5
f 1532//5 1548//5 1547//5 1510//5
f 1479//5 1480//5 1429//5 1428//5
f 1483//5 1484//5 1433//5 1432//5
f 1480//5 1483//5 1432//5 1429//5
f 1495//5 1496//5 1444//5 1443//5
f 1499//5 1500//5 1448//5 1447//5
f 1496//5 1499//5 1447//5 1444//5
f 1484//5 1495//5 1443//5 1433//5
f 1540//5 1541//5 1476//5 1475//5
f 1541//5 1544//5 1478//5 1476//5
f 1500//5 1540//5 1475//5 1448//5
f 476//3 985//3 986//3 477//3
f 493//6 1003//6 1002//6 492//6
f 491//1 492//1 1002//1 1001//1
f 476//1 491//1 1001//1 985//1
f 533//3 1054//3 1055//3 534//3
f 538//1 539//1 1060//1 1059//1
f 533//1 538//1 1059//1 1054//1
f 544//6 1079//6 1078//6 543//6
f 539//1 543//1 1078//1 1060//1
f 774//3 1272//3 1273//3 775//3
f 791//6 1290//6 1289//6 790//6
f 1288//5 1290//5 791//5 789//5
f 1273//5 1288//5 789//5 775//5
f 831//3 1341//3 1342//3 832//3
f 1346//5 1347//5 837//5 836//5
f 1342//5 1346//5 836//5 832//5
f 842//6 1366//6 1365//6 841//6
f 1347//5 1366//5 842//5 837//5
f 34//1 247//1 248//1 36//1
f 40//1 249//1 251//1 42//1
f 36//1 248//1 249//1 40//1
f 63//1 254//1 256//1 64//1
f 68//1 260//1 262//1 70//1
f 64//1 256//1 260//1 68//1
f 87//2 88//2 276//2 275//2
f 87//1 275//1 279//1 91//1
f 100//1 288//1 292//1 102//1
f 91//1 279//1 288//1 100//1
f 70//1 262//1 276//1 88//1
f 42//1 251//1 254//1 63//1
f 108//1 325//1 327//1 110//1
f 115//1 331//1 334//1 118//1
f 110//1 327//1 331//1 115//1
f 365//4 366//4 122//4 121//4
f 122//1 366//1 369//1 123//1
f 118//1 334//1 365//1 121//1
f 102//1 292//1 325//1 108//1
f 843//1 1192//1 1194//1 845//1
f 849//1 1200//1 1202//1 851//1
f 845//1 1194//1 1200//1 849//1
f 856//1 1224//1 1226//1 858//1
f 864//1 1232//1 1234//1 866//1
f 858//1 1226//1 1232//1 864//1
f 851//1 1202//1 1224//1 856//1
f 899//1 1262//1 1264//1 901//1
f 901//1 1264//1 1269//1 907//1
f 866//1 1234//1 1262//1 899//1
f 159//5 546//5 545//5 157//5
f 165//5 549//5 547//5 163//5
f 163//5 547//5 546//5 159//5
f 187//5 554//5 552//5 186//5
f 193//5 560//5 558//5 191//5
f 191//5 558//5 554//5 187//5
f 210//2 211//2 574//2 573//2
f 215//5 577//5 574//5 211//5
f 225//5 591//5 587//5 223//5
f 223//5 587//5 577//5 215//5
f 210//5 573//5 560//5 193//5
f 186//5 552//5 549//5 165//5
f 233//5 626//5 624//5 231//5
f 242//5 632//5 629//5 238//5
f 238//5 629//5 626//5 233//5
f 663//4 664//4 245//4 244//4
f 246//5 666//5 663//5 244//5
f 245//5 664//5 632//5 242//5
f 231//5 624//5 591//5 225//5
f 916//5 1481//5 1479//5 914//5
f 922//5 1489//5 1487//5 920//5
f 920//5 1487//5 1481//5 916//5
f 929//5 1513//5 1511//5 927//5
f 937//5 1521//5 1519//5 935//5
f 935//5 1519//5 1513//5 929//5
f 927//5 1511//5 1489//5 922//5
f 972//5 1551//5 1549//5 970//5
f 978//5 1556//5 1551//5 972//5
f 970//5 1549//5 1521//5 937//5
f 1//2 124//2 125//2 2//2
f 3//3 5//3 128//3 126//3
f 1//3 3//3 126//3 124//3
f 8//2 131//2 132//2 9//2
f 7//2 130//2 131//2 8//2
f 10//2 133//2 134//2 11//2
f 12//2 135//2 136//2 13//2
f 11//2 134//2 135//2 12//2
f 14//2 137//2 138//2 15//2
f 14//3 16//3 139//3 137//3
f 27//4 150//4 149//4 26//4
f 149//6 151//6 28//6 26//6
f 28//4 151//4 148//4 25//4
f 38//4 161//4 160//4 37//4
f 42//4 165//4 164//4 41//4
f 39//3 41//3 164//3 162//3
f 39//4 162//4 161//4 38//4
f 9//2 132//2 133//2 10//2
f 37//4 160//4 150//4 27//4
f 7//3 15//3 138//3 130//3
f 136//6 157//6 34//6 13//6
f 43//3 45//3 168//3 166//3
f 50//4 173//4 172//4 49//4
f 47//3 49//3 172//3 170//3
f 45//3 47//3 170//3 168//3
f 50//3 51//3 174//3 173//3
f 176//6 178//6 55//6 53//6
f 61//2 184//2 185//2 62//2
f 183//6 184//6 61//6 60//6
f 57//2 180//2 183//2 60//2
f 178//6 180//6 57//6 55//6
f 63//3 64//3 187//3 186//3
f 65//2 188//2 189//2 66//2
f 67//2 190//2 191//2 68//2
f 67//3 69//3 192//3 190//3
f 66//2 189//2 192//2 69//2
f 64//3 68//3 191//3 187//3
f 74//4 197//4 196//4 73//4
f 71//3 73//3 196//3 194//3
f 81//4 204//4 203//4 80//4
f 80//4 203//4 202//4 79//4
f 74//3 79//3 202//3 197//3
f 95//4 217//4 216//4 93//4
f 95//3 97//3 219//3 217//3
f 62//2 185//2 188//2 65//2
f 93//4 216//4 204//4 81//4
f 2//2 125//2 139//2 16//2
f 71//4 194//4 174//4 51//4
f 5//3 43//3 166//3 128//3
f 148//6 176//6 53//6 25//6
f 42//3 63//3 186//3 165//3
f 104//3 106//3 228//3 226//3
f 114//3 117//3 239//3 236//3
f 114//4 236//4 234//4 112//4
f 106//3 112//3 234//3 228//3
f 122//4 244//4 243//4 120//4
f 122//3 123//3 246//3 244//3
f 117//3 120//3 243//3 239//3
f 97//3 104//3 226//3 219//3
f 545//6 546//6 248//6 247//6
f 249//2 547//2 548//2 250//2
f 548//6 550//6 252//6 250//6
f 252//2 550//2 551//2 253//2
f 546//6 547//6 249//6 248//6
f 556//6 557//6 259//6 258//6
f 264//4 561//4 560//4 262//4
f 267//2 564//2 566//2 269//2
f 563//6 564//6 267//6 265//6
f 557//6 563//6 265//6 259//6
f 271//2 568//2 570//2 273//2
f 273//2 570//2 572//2 274//2
f 276//2 573//2 575//2 278//2
f 287//4 584//4 582//4 285//4
f 294//4 592//4 590//4 293//4
f 588//6 592//6 294//6 291//6
f 297//3 298//3 596//3 594//3
f 295//4 593//4 588//4 291//4
f 582//6 593//6 295//6 285//6
f 287//3 297//3 594//3 584//3
f 307//2 604//2 606//2 309//2
f 602//6 604//6 307//6 305//6
f 606//6 615//6 318//6 309//6
f 269//2 566//2 568//2 271//2
f 314//4 611//4 596//4 298//4
f 560//6 573//6 276//6 262//6
f 264//3 278//3 575//3 561//3
f 572//6 602//6 305//6 274//6
f 620//6 621//6 324//6 322//6
f 318//2 615//2 620//2 322//2
f 551//6 556//6 258//6 253//6
f 328//2 625//2 627//2 330//2
f 623//6 625//6 328//6 326//6
f 339//2 636//2 638//2 341//2
f 634//6 636//6 339//6 337//6
f 333//2 630//2 634//2 337//2
f 627//6 630//6 333//6 330//6
f 345//4 642//4 640//4 343//4
f 345//3 347//3 644//3 642//3
f 353//2 651//2 652//2 355//2
f 353//3 357//3 654//3 651//3
f 347//3 355//3 652//3 644//3
f 378//4 675//4 674//4 376//4
f 378//3 379//3 677//3 675//3
f 385//4 682//4 677//4 379//4
f 369//3 376//3 674//3 666//3
f 393//4 690//4 688//4 391//4
f 401//4 698//4 696//4 399//4
f 700//6 702//6 405//6 403//6
f 406//3 407//3 705//3 704//3
f 399//4 696//4 690//4 393//4
f 688//6 700//6 403//6 391//6
f 401//3 406//3 704//3 698//3
f 341//2 638//2 654//2 357//2
f 409//2 706//2 708//2 411//2
f 708//6 711//6 414//6 411//6
f 719//6 720//6 423//6 421//6
f 417//2 714//2 719//2 421//2
f 711//6 714//6 417//6 414//6
f 727//6 729//6 432//6 430//6
f 442//2 739//2 741//2 443//2
f 737//6 739//6 442//6 440//6
f 729//6 737//6 440//6 432//6
f 720//6 727//6 430//6 423//6
f 445//3 448//3 745//3 742//3
f 453//4 750//4 749//4 451//4
f 453//3 455//3 752//3 750//3
f 448//3 451//3 749//3 745//3
f 457//2 754//2 756//2 458//2
f 756//6 759//6 462//6 458//6
f 762//6 765//6 468//6 465//6
f 468//2 765//2 767//2 469//2
f 759//6 762//6 465//6 462//6
f 471//3 473//3 770//3 768//3
f 475//3 477//3 774//3 772//3
f 473//3 475//3 772//3 770//3
f 784//6 785//6 487//6 486//6
f 787//6 790//6 493//6 490//6
f 494//4 792//4 787//4 490//4
f 785//6 792//6 494//6 487//6
f 455//3 471//3 768//3 752//3
f 767//6 784//6 486//6 469//6
f 496//3 499//3 796//3 793//3
f 801//6 804//6 507//6 504//6
f 514//4 811//4 810//4 512//4
f 509//3 512//3 810//3 806//3
f 814//6 817//6 520//6 517//6
f 499//3 509//3 806//3 796//3
f 804//6 814//6 517//6 507//6
f 522//3 524//3 821//3 819//3
f 824//6 827//6 530//6 527//6
f 532//3 534//3 831//3 829//3
f 524//3 532//3 829//3 821//3
f 839//6 841//6 544//6 542//6
f 838//6 839//6 542//6 540//6
f 530//2 827//2 838//2 540//2
f 514//3 522//3 819//3 811//3
f 817//6 824//6 527//6 520//6
f 437//4 734//4 705//4 407//4
f 385//3 445//3 742//3 682//3
f 702//6 754//6 457//6 405//6
f 437//3 496//3 793//3 734//3
f 741//6 801//6 504//6 443//6
f 590//6 623//6 326//6 293//6
f 314//3 343//3 640//3 611//3
f 621//6 706//6 409//6 324//6
f 844//2 915//2 916//2 845//2
f 843//3 845//3 916//3 914//3
f 846//3 847//3 918//3 917//3
f 846//2 917//2 919//2 848//2
f 844//3 848//3 919//3 915//3
f 853//3 854//3 925//3 924//3
f 859//2 930//2 931//2 860//2
f 859//3 861//3 932//3 930//3
f 854//3 860//3 931//3 925//3
f 852//2 923//2 932//2 861//2
f 847//3 853//3 924//3 918//3
f 869//2 940//2 941//2 870//2
f 868//3 870//3 941//3 939//3
f 871//2 942//2 943//2 872//2
f 868//2 939//2 942//2 871//2
f 867//3 872//3 943//3 938//3
f 876//4 947//4 946//4 875//4
f 878//4 949//4 948//4 877//4
f 877//4 948//4 947//4 876//4
f 869//3 875//3 946//3 940//3
f 880//2 951//2 952//2 881//2
f 879//3 881//3 952//3 950//3
f 882//2 953//2 954//2 883//2
f 879//2 950//2 953//2 882//2
f 905//4 976//4 975//4 904//4
f 907//4 978//4 977//4 906//4
f 977//6 979//6 908//6 906//6
f 908//4 979//4 976//4 905//4
f 910//4 981//4 980//4 909//4
f 912//4 983//4 982//4 911//4
f 911//4 982//4 981//4 910//4
f 913//4 984//4 983//4 912//4
f 975//6 984//6 913//6 904//6
f 867//2 938//2 951//2 880//2
f 909//4 980//4 949//4 878//4
f 852//3 883//3 954//3 923//3
f 988//2 1274//2 1276//2 990//2
f 986//3 990//3 1276//3 1272//3
f 992//2 1279//2 1280//2 993//2
f 991//3 993//3 1280//3 1278//3
f 991//2 1278//2 1281//2 995//2
f 988//3 995//3 1281//3 1274//3
f 1289//6 1292//6 1006//6 1003//6
f 1009//2 1295//2 1297//2 1011//2
f 1007//3 1011//3 1297//3 1294//3
f 1006//2 1292//2 1295//2 1009//2
f 1023//3 1025//3 1312//3 1310//3
f 1031//3 1033//3 1320//3 1318//3
f 1025//3 1031//3 1318//3 1312//3
f 1328//6 1331//6 1044//6 1042//6
f 1047//4 1334//4 1332//4 1046//4
f 1336//6 1338//6 1051//6 1049//6
f 1046//4 1332//4 1328//4 1042//4
f 1331//6 1336//6 1049//6 1044//6
f 992//3 1023//3 1310//3 1279//3
f 1308//6 1334//6 1047//6 1022//6
f 1053//2 1339//2 1341//2 1055//2
f 1069//4 1355//4 1353//4 1067//4
f 1351//6 1355//6 1069//6 1065//6
f 1073//4 1359//4 1357//4 1071//4
f 1075//2 1361//2 1363//2 1077//2
f 1071//4 1357//4 1351//4 1065//4
f 1069//2 1355//2 1361//2 1075//2
f 1365//6 1367//6 1081//6 1079//6
f 1083//2 1369//2 1371//2 1084//2
f 1083//3 1086//3 1372//3 1369//3
f 1371//6 1374//6 1087//6 1084//6
f 1367//6 1369//6 1083//6 1081//6
f 1088//3 1089//3 1376//3 1375//3
f 1095//3 1096//3 1383//3 1382//3
f 1089//3 1095//3 1382//3 1376//3
f 1390//6 1392//6 1105//6 1103//6
f 1107//4 1394//4 1393//4 1106//4
f 1393//6 1395//6 1108//6 1106//6
f 1392//6 1394//6 1107//6 1105//6
f 1083//4 1369//4 1359//4 1073//4
f 1092//2 1378//2 1388//2 1102//2
f 1069//3 1088//3 1375//3 1355//3
f 1363//6 1378//6 1092//6 1077//6
f 1086//3 1102//3 1388//3 1372//3
f 1374//6 1390//6 1103//6 1087//6
f 1110//4 1397//4 1396//4 1109//4
f 1110//3 1111//3 1398//3 1397//3
f 1116//3 1117//3 1404//3 1403//3
f 1111//3 1116//3 1403//3 1398//3
f 1410//6 1412//6 1125//6 1123//6
f 1414//6 1416//6 1129//6 1127//6
f 1130//3 1131//3 1418//3 1417//3
f 1412//6 1414//6 1127//6 1125//6
f 1133//2 1420//2 1421//2 1134//2
f 1132//3 1134//3 1421//3 1419//3
f 1139//3 1141//3 1428//3 1426//3
f 1133//3 1139//3 1426//3 1420//3
f 1150//4 1437//4 1436//4 1149//4
f 1435//6 1437//6 1150//6 1148//6
f 1152//2 1439//2 1440//2 1153//2
f 1151//3 1153//3 1440//3 1438//3
f 1156//2 1443//2 1444//2 1157//2
f 1441//6 1443//6 1156//6 1154//6
f 1155//3 1157//3 1444//3 1442//3
f 1155//2 1442//2 1445//2 1158//2
f 1436//6 1441//6 1154//6 1149//6
f 1152//3 1158//3 1445//3 1439//3
f 1117//3 1132//3 1419//3 1404//3
f 1416//6 1435//6 1148//6 1129//6
f 1131//3 1151//3 1438//3 1418//3
f 1162//2 1449//2 1450//2 1163//2
f 1162//3 1164//3 1451//3 1449//3
f 1177//4 1464//4 1463//4 1176//4
f 1462//6 1464//6 1177//6 1175//6
f 1164//3 1170//3 1457//3 1451//3
f 1456//6 1462//6 1175//6 1169//6
f 1465//6 1466//6 1179//6 1178//6
f 1471//6 1472//6 1185//6 1184//6
f 1474//6 1476//6 1189//6 1187//6
f 1190//4 1477//4 1474//4 1187//4
f 1189//2 1476//2 1478//2 1191//2
f 1472//6 1477//6 1190//6 1185//6
f 1179//4 1466//4 1456//4 1169//4
f 1463//6 1471//6 1184//6 1176//6
f 1007//2 1294//2 1339//2 1053//2
f 1067//4 1353//4 1308//4 1022//4
f 1130//2 1417//2 1457//2 1170//2
f 1033//3 1109//3 1396//3 1320//3
f 1338//6 1410//6 1123//6 1051//6
f 1096//3 1163//3 1450//3 1383//3
f 1395//6 1465//6 1178//6 1108//6
f 1247//4 1534//4 1533//4 1246//4
f 1532//6 1534//6 1247//6 1245//6
f 1251//4 1538//4 1537//4 1250//4
f 1536//6 1538//6 1251//6 1249//6
f 1252//4 1539//4 1536//4 1249//4
f 1533//6 1539//6 1252//6 1246//6
f 1541//6 1543//6 1256//6 1254//6
f 1259//4 1546//4 1545//4 1258//4
f 1545//6 1547//6 1260//6 1258//6
f 1257//4 1544//4 1541//4 1254//4
f 1543//6 1546//6 1259//6 1256//6
f 1547//6 1548//6 1261//6 1260//6
f 1267//4 1554//4 1553//4 1266//4
f 1553//6 1555//6 1268//6 1266//6
f 1270//4 1557//4 1556//4 1269//4
f 1268//4 1555//4 1552//4 1265//4
f 1552//6 1557//6 1270//6 1265//6
f 1271//4 1558//4 1554//4 1267//4
f 1261//4 1548//4 1532//4 1245//4
f 1537//6 1558//6 1271//6 1250//6
f 1141//3 1192//3 1479//3 1428//3
f 1478//6 1544//6 1257//6 1191//6
f 34//2 157//2 545//2 247//2
f 369//4 666//4 246//4 123//4
f 843//2 914//2 1479//2 1192//2
f 1269//4 1556//4 978//4 907//4
f 477//3 986//3 1272//3 774//3
f 790//6 1289//6 1003//6 493//6
f 534//3 1055//3 1341//3 831//3
f 841//6 1365//6 1079//6 544//6
