# Blender 5.2.1 LTS
# www.blender.org
mtllib pixel tg side.mtl
o tg_side
v -1.622435 0.096470 -0.009504
v -1.622435 0.108623 -0.033810
v -1.622435 0.120776 -0.045963
v -1.622435 0.120776 -0.033810
v -1.622435 0.108623 -0.009504
v -1.622435 0.181540 -0.033810
v -1.622435 0.193692 -0.045963
v -1.622435 0.193692 -0.033810
v -1.622435 0.181540 -0.021657
v -1.622435 0.193692 -0.021657
v -1.622435 0.205845 -0.033810
v -1.622435 0.205845 -0.009504
v -1.622435 0.217998 -0.009504
v -1.573824 0.120776 -0.033810
v -1.500907 0.096470 -0.033810
v -1.500907 0.096470 -0.009504
v -1.500907 0.132929 -0.058115
v -1.500907 0.108623 -0.045963
v -1.500907 0.108623 -0.033810
v -1.500907 0.120776 -0.045963
v -1.500907 0.120776 -0.033810
v -1.488754 0.120776 -0.033810
v -1.500907 0.108623 -0.009504
v -1.488754 0.120776 -0.021657
v -1.500907 0.132929 -0.045963
v -1.488754 0.145081 -0.021657
v -1.488754 0.145081 -0.009504
v -1.573824 0.181540 -0.033810
v -1.573824 0.181540 -0.021657
v -1.573824 0.193692 -0.021657
v -1.500907 0.169387 -0.058115
v -1.500907 0.169387 -0.045963
v -1.500907 0.181540 -0.033810
v -1.500907 0.193692 -0.045963
v -1.500907 0.193692 -0.033810
v -1.488754 0.181540 -0.033810
v -1.500907 0.181540 -0.021657
v -1.500907 0.193692 -0.021657
v -1.488754 0.181540 -0.021657
v -1.488754 0.193692 -0.021657
v -1.488754 0.193692 -0.009504
v -1.500907 0.205845 -0.045963
v -1.500907 0.205845 -0.033810
v -1.500907 0.205845 -0.021657
v -1.500907 0.205845 -0.009504
v -1.500907 0.217998 -0.021657
v -1.500907 0.217998 -0.009504
v -1.488754 0.205845 -0.009504
v -1.488754 0.217998 -0.009504
v -1.476601 0.145081 -0.021657
v -1.476601 0.145081 -0.009504
v -1.452296 0.120776 -0.033810
v -1.452296 0.120776 -0.021657
v -1.452296 0.132929 -0.033810
v -1.440143 0.132929 -0.033810
v -1.452296 0.132929 -0.021657
v -1.440143 0.132929 -0.021657
v -1.403685 0.096470 -0.033810
v -1.403685 0.096470 -0.009504
v -1.403685 0.132929 -0.058115
v -1.403685 0.108623 -0.045963
v -1.403685 0.108623 -0.033810
v -1.403685 0.120776 -0.045963
v -1.403685 0.120776 -0.033810
v -1.403685 0.108623 -0.009504
v -1.403685 0.132929 -0.045963
v -1.476601 0.169387 -0.021657
v -1.476601 0.169387 -0.009504
v -1.440143 0.169387 -0.033810
v -1.452296 0.169387 -0.021657
v -1.452296 0.169387 -0.009504
v -1.440143 0.169387 -0.021657
v -1.452296 0.181540 -0.021657
v -1.452296 0.181540 -0.009504
v -1.440143 0.181540 -0.021657
v -1.440143 0.181540 -0.009504
v -1.440143 0.193692 -0.021657
v -1.440143 0.193692 -0.009504
v -1.476601 0.217998 -0.021657
v -1.476601 0.230151 -0.021657
v -1.476601 0.230151 -0.009504
v -1.403685 0.169387 -0.058115
v -1.403685 0.169387 -0.045963
v -1.403685 0.169387 -0.033810
v -1.403685 0.169387 -0.021657
v -1.403685 0.193692 -0.045963
v -1.403685 0.193692 -0.033810
v -1.403685 0.193692 -0.021657
v -1.427990 0.217998 -0.021657
v -1.415838 0.205845 -0.009504
v -1.415838 0.217998 -0.009504
v -1.427990 0.230151 -0.021657
v -1.427990 0.230151 -0.009504
v -1.403685 0.205845 -0.045963
v -1.403685 0.205845 -0.033810
v -1.403685 0.205845 -0.021657
v -1.403685 0.205845 -0.009504
v -1.403685 0.217998 -0.021657
v -1.403685 0.217998 -0.009504
v -1.476601 0.290915 -0.009504
v -1.464449 0.290915 -0.009504
v -1.440143 0.290915 -0.009504
v -1.464449 0.303067 -0.009504
v -1.440143 0.303067 -0.009504
v -1.427990 0.290915 -0.009504
v -1.342921 0.096470 -0.009504
v -1.355074 0.120776 -0.033810
v -1.342921 0.108623 -0.033810
v -1.342921 0.120776 -0.045963
v -1.342921 0.120776 -0.033810
v -1.355074 0.108623 -0.009504
v -1.355074 0.120776 -0.009504
v -1.342921 0.108623 -0.009504
v -1.342921 0.120776 -0.009504
v -1.294310 0.108623 -0.021657
v -1.294310 0.108623 -0.009504
v -1.294310 0.120776 -0.021657
v -1.294310 0.120776 -0.009504
v -1.355074 0.181540 -0.033810
v -1.342921 0.181540 -0.033810
v -1.342921 0.193692 -0.045963
v -1.342921 0.193692 -0.033810
v -1.355074 0.181540 -0.021657
v -1.355074 0.193692 -0.021657
v -1.355074 0.193692 -0.009504
v -1.342921 0.181540 -0.021657
v -1.342921 0.193692 -0.021657
v -1.342921 0.193692 -0.009504
v -1.342921 0.205845 -0.033810
v -1.355074 0.205845 -0.009504
v -1.342921 0.205845 -0.009504
v -1.342921 0.217998 -0.009504
v -1.233546 0.145081 -0.045963
v -1.233546 0.145081 -0.033810
v -1.233546 0.157234 -0.045963
v -1.233546 0.157234 -0.033810
v -1.197088 0.181540 -0.033810
v -1.197088 0.193692 -0.033810
v -1.197088 0.181540 -0.021657
v -1.197088 0.193692 -0.021657
v -1.051254 0.157234 -0.045963
v -1.051254 0.157234 -0.033810
v -1.051254 0.169387 -0.045963
v -1.051254 0.169387 -0.033810
v -0.917574 0.096470 -0.009504
v -0.917574 0.108623 -0.009504
v -0.905421 0.132929 -0.045963
v -0.905421 0.132929 -0.033810
v -0.905421 0.145081 -0.045963
v -0.905421 0.145081 -0.033810
v -0.954032 0.193692 -0.021657
v -0.954032 0.193692 -0.009504
v -0.954032 0.205845 -0.021657
v -0.954032 0.205845 -0.009504
v -0.881115 0.108623 -0.033810
v -0.881115 0.120776 -0.033810
v -0.881115 0.108623 -0.021657
v -0.881115 0.120776 -0.021657
v -0.723129 0.169387 -0.045963
v -0.723129 0.169387 -0.033810
v -0.723129 0.181540 -0.045963
v -0.723129 0.181540 -0.033810
v -0.710976 0.205845 -0.009504
v -0.710976 0.217998 -0.009504
v -0.577296 0.120776 -0.045963
v -0.577296 0.120776 -0.033810
v -0.577296 0.132929 -0.045963
v -0.577296 0.132929 -0.033810
v -0.552990 0.193692 -0.033810
v -0.552990 0.193692 -0.021657
v -0.552990 0.205845 -0.033810
v -0.552990 0.205845 -0.021657
v -0.443615 0.096470 -0.021657
v -0.443615 0.096470 -0.009504
v -0.419310 0.145081 -0.058115
v -0.443615 0.108623 -0.021657
v -0.443615 0.108623 -0.009504
v -0.419310 0.145081 -0.045963
v -0.419310 0.157234 -0.058115
v -0.419310 0.157234 -0.045963
v -0.395004 0.181540 -0.045963
v -0.395004 0.181540 -0.033810
v -0.395004 0.193692 -0.045963
v -0.395004 0.193692 -0.033810
v -0.249171 0.108623 -0.045963
v -0.249171 0.108623 -0.033810
v -0.249171 0.120776 -0.045963
v -0.249171 0.120776 -0.033810
v -0.309935 0.205845 -0.021657
v -0.309935 0.205845 -0.009504
v -0.309935 0.217998 -0.021657
v -0.309935 0.217998 -0.009504
v -0.249171 0.157234 -0.058115
v -0.249171 0.169387 -0.058115
v -0.249171 0.157234 -0.045963
v -0.249171 0.169387 -0.045963
v -1.622435 0.096470 0.014801
v -1.622435 0.108623 0.014801
v -1.622435 0.108623 0.026954
v -1.622435 0.120776 0.026954
v -1.622435 0.120776 0.039107
v -1.622435 0.181540 0.014801
v -1.622435 0.193692 0.014801
v -1.622435 0.181540 0.026954
v -1.622435 0.193692 0.026954
v -1.622435 0.193692 0.039107
v -1.622435 0.205845 0.002648
v -1.622435 0.217998 0.002648
v -1.622435 0.205845 0.026954
v -1.573824 0.120776 0.026954
v -1.500907 0.096470 0.014801
v -1.500907 0.096470 0.026954
v -1.500907 0.108623 0.014801
v -1.488754 0.108623 0.002648
v -1.488754 0.108623 0.014801
v -1.488754 0.120776 0.002648
v -1.488754 0.120776 0.014801
v -1.500907 0.108623 0.026954
v -1.500907 0.108623 0.039107
v -1.500907 0.120776 0.026954
v -1.500907 0.120776 0.039107
v -1.500907 0.132929 0.026954
v -1.500907 0.132929 0.039107
v -1.500907 0.145081 0.026954
v -1.500907 0.145081 0.039107
v -1.500907 0.132929 0.051260
v -1.573824 0.181540 0.014801
v -1.573824 0.193692 0.014801
v -1.573824 0.181540 0.026954
v -1.488754 0.193692 0.002648
v -1.488754 0.193692 0.014801
v -1.500907 0.181540 0.039107
v -1.500907 0.193692 0.026954
v -1.500907 0.193692 0.039107
v -1.500907 0.181540 0.051260
v -1.500907 0.205845 0.002648
v -1.500907 0.217998 0.002648
v -1.488754 0.205845 0.002648
v -1.488754 0.205845 0.014801
v -1.488754 0.217998 0.002648
v -1.488754 0.217998 0.014801
v -1.500907 0.205845 0.026954
v -1.500907 0.205845 0.039107
v -1.500907 0.217998 0.026954
v -1.476601 0.108623 0.002648
v -1.476601 0.108623 0.014801
v -1.476601 0.120776 0.002648
v -1.476601 0.120776 0.014801
v -1.464449 0.108623 0.002648
v -1.464449 0.108623 0.014801
v -1.464449 0.120776 0.002648
v -1.464449 0.120776 0.014801
v -1.452296 0.108623 0.002648
v -1.452296 0.108623 0.014801
v -1.452296 0.120776 0.002648
v -1.452296 0.120776 0.014801
v -1.440143 0.108623 0.002648
v -1.440143 0.108623 0.014801
v -1.440143 0.120776 0.002648
v -1.440143 0.120776 0.014801
v -1.403685 0.096470 0.014801
v -1.403685 0.096470 0.026954
v -1.427990 0.108623 0.002648
v -1.427990 0.108623 0.014801
v -1.427990 0.120776 0.002648
v -1.427990 0.120776 0.014801
v -1.415838 0.108623 0.002648
v -1.415838 0.108623 0.014801
v -1.415838 0.120776 0.002648
v -1.415838 0.120776 0.014801
v -1.403685 0.108623 0.002648
v -1.403685 0.108623 0.014801
v -1.403685 0.120776 0.002648
v -1.403685 0.120776 0.014801
v -1.403685 0.108623 0.026954
v -1.403685 0.108623 0.039107
v -1.403685 0.120776 0.026954
v -1.403685 0.120776 0.039107
v -1.403685 0.132929 0.026954
v -1.403685 0.132929 0.039107
v -1.403685 0.145081 0.026954
v -1.403685 0.145081 0.039107
v -1.403685 0.132929 0.051260
v -1.464449 0.181540 0.014801
v -1.464449 0.193692 0.014801
v -1.464449 0.181540 0.026954
v -1.464449 0.193692 0.026954
v -1.452296 0.181540 0.014801
v -1.452296 0.193692 0.014801
v -1.452296 0.181540 0.026954
v -1.452296 0.193692 0.026954
v -1.476601 0.217998 0.002648
v -1.476601 0.217998 0.014801
v -1.476601 0.230151 0.002648
v -1.476601 0.230151 0.014801
v -1.427990 0.181540 0.014801
v -1.427990 0.193692 0.002648
v -1.427990 0.193692 0.014801
v -1.427990 0.181540 0.026954
v -1.427990 0.193692 0.026954
v -1.403685 0.181540 0.014801
v -1.403685 0.193692 0.002648
v -1.403685 0.193692 0.014801
v -1.403685 0.181540 0.026954
v -1.403685 0.181540 0.039107
v -1.403685 0.193692 0.026954
v -1.403685 0.193692 0.039107
v -1.403685 0.181540 0.051260
v -1.427990 0.205845 0.002648
v -1.427990 0.205845 0.014801
v -1.427990 0.217998 0.002648
v -1.427990 0.217998 0.014801
v -1.415838 0.205845 0.002648
v -1.415838 0.205845 0.014801
v -1.415838 0.217998 0.002648
v -1.415838 0.217998 0.014801
v -1.427990 0.230151 0.002648
v -1.427990 0.230151 0.014801
v -1.403685 0.205845 0.002648
v -1.403685 0.217998 0.002648
v -1.403685 0.205845 0.026954
v -1.403685 0.205845 0.039107
v -1.403685 0.217998 0.026954
v -1.476601 0.290915 0.002648
v -1.464449 0.290915 0.002648
v -1.440143 0.290915 0.002648
v -1.464449 0.303067 0.002648
v -1.440143 0.303067 0.002648
v -1.427990 0.290915 0.002648
v -1.342921 0.096470 0.014801
v -1.355074 0.108623 0.014801
v -1.355074 0.120776 0.014801
v -1.342921 0.108623 0.014801
v -1.342921 0.120776 0.014801
v -1.355074 0.120776 0.026954
v -1.342921 0.108623 0.026954
v -1.342921 0.120776 0.026954
v -1.342921 0.120776 0.039107
v -1.355074 0.193692 0.002648
v -1.342921 0.193692 0.002648
v -1.355074 0.193692 0.026954
v -1.342921 0.193692 0.026954
v -1.342921 0.193692 0.039107
v -1.355074 0.205845 0.002648
v -1.342921 0.205845 0.002648
v -1.342921 0.217998 0.002648
v -1.342921 0.205845 0.026954
v -1.270004 0.145081 0.026954
v -1.270004 0.145081 0.039107
v -1.270004 0.157234 0.026954
v -1.270004 0.157234 0.039107
v -1.112018 0.132929 0.026954
v -1.112018 0.132929 0.039107
v -1.112018 0.145081 0.026954
v -1.112018 0.145081 0.039107
v -1.184935 0.157234 0.026954
v -1.184935 0.157234 0.039107
v -1.184935 0.169387 0.026954
v -1.184935 0.169387 0.039107
v -1.184935 0.193692 0.002648
v -1.184935 0.193692 0.014801
v -1.184935 0.205845 0.002648
v -1.184935 0.205845 0.014801
v -1.039101 0.108623 0.014801
v -1.039101 0.120776 0.014801
v -1.039101 0.108623 0.026954
v -1.039101 0.120776 0.026954
v -1.026949 0.169387 0.026954
v -1.026949 0.169387 0.039107
v -1.026949 0.181540 0.026954
v -1.026949 0.181540 0.039107
v -0.917574 0.096470 0.002648
v -0.929726 0.120776 0.026954
v -0.929726 0.120776 0.039107
v -0.929726 0.132929 0.026954
v -0.929726 0.132929 0.039107
v -0.917574 0.108623 0.002648
v -0.783893 0.193692 0.014801
v -0.796046 0.181540 0.026954
v -0.796046 0.181540 0.039107
v -0.796046 0.193692 0.026954
v -0.796046 0.193692 0.039107
v -0.783893 0.193692 0.026954
v -0.783893 0.205845 0.014801
v -0.783893 0.205845 0.026954
v -0.710976 0.205845 0.002648
v -0.710976 0.217998 0.002648
v -0.686671 0.108623 0.026954
v -0.686671 0.108623 0.039107
v -0.686671 0.120776 0.026954
v -0.686671 0.120776 0.039107
v -0.650213 0.096470 0.002648
v -0.650213 0.096470 0.014801
v -0.650213 0.108623 0.002648
v -0.650213 0.108623 0.014801
v -0.528685 0.205845 0.002648
v -0.528685 0.205845 0.014801
v -0.528685 0.217998 0.002648
v -0.528685 0.217998 0.014801
v -0.467921 0.145081 0.039107
v -0.467921 0.145081 0.051260
v -0.467921 0.157234 0.039107
v -0.467921 0.157234 0.051260
v -0.382851 0.157234 0.039107
v -0.382851 0.169387 0.039107
v -0.382851 0.193692 0.026954
v -0.382851 0.193692 0.039107
v -0.382851 0.157234 0.051260
v -0.382851 0.169387 0.051260
v -0.382851 0.205845 0.026954
v -0.382851 0.205845 0.039107
v -0.309935 0.096470 0.014801
v -0.309935 0.096470 0.026954
v -0.309935 0.108623 0.014801
v -0.309935 0.108623 0.026954
v -0.273476 0.132929 0.039107
v -0.273476 0.145081 0.039107
v -0.273476 0.132929 0.051260
v -0.273476 0.145081 0.051260
v -0.079032 0.047859 -0.106727
v -0.079032 0.035706 -0.094574
v -0.079032 0.047859 -0.094574
v 0.018190 0.023554 -0.106727
v 0.006037 0.035706 -0.106727
v 0.006037 0.047859 -0.106727
v 0.018190 0.035706 -0.106727
v 0.006037 0.035706 -0.094574
v 0.006037 0.047859 -0.094574
v 0.091107 0.023554 -0.106727
v 0.249093 -0.097974 -0.045963
v 0.249093 -0.073669 -0.058115
v 0.261246 -0.061516 -0.070268
v 0.261246 -0.061516 -0.058115
v 0.249093 -0.073669 -0.045963
v 0.261246 -0.025058 -0.070268
v 0.261246 -0.025058 -0.058115
v 0.249093 -0.000752 -0.070268
v 0.249093 -0.000752 -0.058115
v 0.249093 0.011401 -0.082421
v 0.249093 0.011401 -0.070268
v 0.249093 0.035706 -0.094574
v 0.249093 0.035706 -0.082421
v 0.285551 -0.073669 -0.070268
v 0.285551 -0.073669 -0.058115
v 0.285551 -0.061516 -0.070268
v 0.285551 -0.061516 -0.058115
v 0.297704 -0.073669 -0.070268
v 0.297704 -0.073669 -0.058115
v 0.297704 -0.061516 -0.070268
v 0.297704 -0.061516 -0.058115
v 0.285551 -0.073669 -0.045963
v 0.297704 -0.073669 -0.045963
v 0.322010 -0.061516 -0.070268
v 0.322010 -0.061516 -0.058115
v 0.273399 -0.025058 -0.070268
v 0.273399 -0.025058 -0.058115
v 0.273399 -0.012905 -0.070268
v 0.273399 -0.012905 -0.058115
v 0.285551 -0.012905 -0.070268
v 0.285551 -0.012905 -0.058115
v 0.285551 -0.000752 -0.070268
v 0.285551 -0.000752 -0.058115
v 0.297704 -0.012905 -0.070268
v 0.297704 -0.012905 -0.058115
v 0.297704 -0.000752 -0.070268
v 0.297704 -0.000752 -0.058115
v 0.322010 -0.012905 -0.070268
v 0.322010 -0.012905 -0.058115
v 0.479996 -0.195196 -0.033810
v 0.492149 -0.195196 -0.033810
v 0.467843 -0.158738 -0.033810
v 0.479996 -0.158738 -0.033810
v 0.492149 -0.170891 -0.033810
v 0.504301 -0.170891 -0.033810
v 0.431385 -0.110127 -0.033810
v 0.431385 -0.097974 -0.033810
v 0.455690 -0.134433 -0.033810
v 0.455690 -0.110127 -0.033810
v 0.467843 -0.134433 -0.033810
v 0.504301 -0.134433 -0.033810
v 0.516454 -0.134433 -0.033810
v 0.516454 -0.110127 -0.033810
v 0.528607 -0.110127 -0.033810
v 0.528607 -0.097974 -0.033810
v 0.625829 -0.085821 -0.058115
v 0.625829 -0.073669 -0.058115
v 0.625829 -0.085821 -0.045963
v 0.625829 -0.073669 -0.045963
v 0.698746 -0.097974 -0.045963
v 0.698746 -0.085821 -0.058115
v 0.698746 -0.061516 -0.058115
v 0.698746 -0.085821 -0.045963
v 0.723051 -0.061516 -0.058115
v 0.723051 -0.049363 -0.058115
v 0.747357 -0.049363 -0.058115
v 0.747357 -0.037210 -0.058115
v 0.832426 -0.049363 -0.058115
v 0.832426 -0.037210 -0.058115
v 0.856732 -0.049363 -0.058115
v 0.881037 -0.073669 -0.082421
v 0.929649 -0.073669 -0.082421
v 0.856732 -0.000752 -0.058115
v 0.881037 -0.025058 -0.082421
v 0.929649 -0.025058 -0.082421
v 1.184857 -0.000752 -0.070268
v 1.184857 0.011401 -0.082421
v 1.184857 0.011401 -0.070268
v 1.184857 0.035706 -0.094574
v 1.184857 0.035706 -0.082421
v -0.079032 0.035706 0.087718
v -0.079032 0.047859 0.087718
v -0.079032 0.047859 0.099871
v 0.006037 0.035706 0.087718
v 0.006037 0.047859 0.087718
v 0.018190 0.023554 0.099871
v 0.006037 0.035706 0.099871
v 0.006037 0.047859 0.099871
v 0.018190 0.035706 0.099871
v 0.042496 0.035706 0.099871
v 0.042496 0.035706 0.112023
v 0.091107 0.023554 0.099871
v 0.091107 0.035706 0.099871
v 0.091107 0.035706 0.112023
v 0.249093 -0.097974 0.039107
v 0.249093 -0.085821 0.039107
v 0.249093 -0.085821 0.051260
v 0.249093 -0.073669 0.051260
v 0.249093 -0.073669 0.063412
v 0.261246 -0.061516 0.063412
v 0.261246 -0.025058 0.063412
v 0.249093 0.011401 0.063412
v 0.249093 0.011401 0.075565
v 0.249093 0.035706 0.075565
v 0.249093 0.035706 0.087718
v 0.249093 0.047859 0.087718
v 0.249093 0.047859 0.099871
v 0.285551 -0.073669 0.051260
v 0.285551 -0.061516 0.051260
v 0.285551 -0.061516 0.063412
v 0.285551 -0.049363 0.051260
v 0.285551 -0.049363 0.063412
v 0.297704 -0.073669 0.051260
v 0.297704 -0.061516 0.051260
v 0.297704 -0.061516 0.063412
v 0.297704 -0.049363 0.051260
v 0.297704 -0.049363 0.063412
v 0.322010 -0.061516 0.063412
v 0.273399 -0.025058 0.051260
v 0.285551 -0.037210 0.051260
v 0.285551 -0.037210 0.063412
v 0.285551 -0.025058 0.051260
v 0.285551 -0.025058 0.063412
v 0.273399 -0.012905 0.051260
v 0.285551 -0.012905 0.051260
v 0.285551 -0.000752 0.051260
v 0.297704 -0.037210 0.051260
v 0.297704 -0.037210 0.063412
v 0.297704 -0.025058 0.051260
v 0.297704 -0.025058 0.063412
v 0.309857 -0.025058 0.051260
v 0.309857 -0.025058 0.063412
v 0.297704 -0.012905 0.051260
v 0.297704 -0.000752 0.051260
v 0.309857 -0.012905 0.051260
v 0.309857 -0.012905 0.063412
v 0.322010 -0.012905 0.063412
v 0.479996 -0.195196 0.026954
v 0.492149 -0.195196 0.026954
v 0.467843 -0.158738 0.026954
v 0.479996 -0.158738 0.026954
v 0.492149 -0.170891 0.026954
v 0.504301 -0.170891 0.026954
v 0.431385 -0.110127 0.026954
v 0.431385 -0.097974 0.026954
v 0.455690 -0.134433 0.026954
v 0.455690 -0.110127 0.026954
v 0.467843 -0.134433 0.026954
v 0.467843 -0.097974 0.026954
v 0.467843 -0.097974 0.039107
v 0.504301 -0.134433 0.026954
v 0.516454 -0.134433 0.026954
v 0.516454 -0.110127 0.026954
v 0.528607 -0.110127 0.026954
v 0.528607 -0.097974 0.026954
v 0.698746 -0.097974 0.039107
v 0.698746 -0.085821 0.039107
v 0.698746 -0.085821 0.051260
v 0.698746 -0.073669 0.051260
v 0.698746 -0.073669 0.063412
v 0.698746 -0.061516 0.063412
v 0.723051 -0.061516 0.063412
v 0.723051 -0.049363 0.063412
v 0.747357 -0.049363 0.063412
v 0.747357 -0.037210 0.063412
v 0.832426 -0.049363 0.063412
v 0.832426 -0.037210 0.063412
v 0.856732 -0.049363 0.063412
v 0.881037 -0.073669 0.075565
v 0.929649 -0.073669 0.075565
v 0.856732 -0.000752 0.063412
v 0.881037 -0.025058 0.075565
v 0.929649 -0.025058 0.075565
v 1.184857 -0.000752 0.063412
v 1.184857 0.011401 0.063412
v 1.184857 0.011401 0.075565
v 1.184857 0.035706 0.075565
v 1.184857 0.035706 0.087718
v 1.184857 0.047859 0.087718
v 1.184857 0.047859 0.099871
v -0.139796 0.096470 -0.033810
v -0.139796 0.096470 -0.021657
v -0.139796 0.108623 -0.033810
v -0.139796 0.108623 -0.021657
v -0.079032 0.096470 -0.106727
v -0.079032 0.096470 -0.094574
v -0.079032 0.096470 -0.033810
v -0.091185 0.132929 -0.058115
v -0.091185 0.145081 -0.058115
v -0.079032 0.132929 -0.058115
v -0.079032 0.108623 -0.045963
v -0.079032 0.108623 -0.033810
v -0.091185 0.132929 -0.045963
v -0.091185 0.145081 -0.045963
v -0.079032 0.132929 -0.045963
v -0.066879 0.096470 -0.033810
v -0.066879 0.132929 -0.058115
v -0.066879 0.108623 -0.045963
v -0.066879 0.108623 -0.033810
v -0.066879 0.132929 -0.045963
v -0.079032 0.169387 -0.058115
v -0.079032 0.193692 -0.094574
v -0.079032 0.193692 -0.082421
v -0.079032 0.169387 -0.045963
v -0.079032 0.193692 -0.045963
v -0.079032 0.193692 -0.033810
v -0.079032 0.230151 -0.082421
v -0.079032 0.205845 -0.045963
v -0.079032 0.205845 -0.033810
v -0.079032 0.205845 -0.021657
v -0.079032 0.217998 -0.021657
v -0.066879 0.169387 -0.058115
v -0.066879 0.169387 -0.045963
v -0.066879 0.205845 -0.045963
v -0.066879 0.205845 -0.021657
v -0.066879 0.217998 -0.021657
v -0.006115 0.096470 -0.106727
v -0.006115 0.108623 -0.106727
v 0.006037 0.108623 -0.106727
v 0.006037 0.120776 -0.106727
v 0.018190 0.120776 -0.106727
v 0.018190 0.132929 -0.106727
v 0.030343 0.132929 -0.106727
v 0.030343 0.145081 -0.106727
v 0.042496 0.145081 -0.106727
v -0.006115 0.096470 -0.094574
v -0.006115 0.108623 -0.094574
v 0.006037 0.108623 -0.094574
v 0.006037 0.120776 -0.094574
v 0.018190 0.120776 -0.094574
v 0.018190 0.132929 -0.094574
v 0.030343 0.132929 -0.094574
v 0.030343 0.145081 -0.094574
v 0.042496 0.145081 -0.094574
v 0.042496 0.157234 -0.106727
v 0.066801 0.157234 -0.106727
v 0.066801 0.169387 -0.106727
v 0.006037 0.193692 -0.094574
v 0.006037 0.193692 -0.082421
v 0.006037 0.217998 -0.094574
v 0.006037 0.217998 -0.082421
v 0.018190 0.217998 -0.094574
v 0.018190 0.217998 -0.082421
v 0.018190 0.230151 -0.094574
v 0.018190 0.230151 -0.082421
v 0.042496 0.157234 -0.094574
v 0.066801 0.157234 -0.094574
v 0.066801 0.169387 -0.094574
v 0.091107 0.084317 -0.106727
v 0.139718 0.205845 -0.021657
v 0.139718 0.230151 -0.021657
v 0.151871 0.205845 -0.033810
v 0.151871 0.205845 -0.021657
v 0.151871 0.230151 -0.033810
v 0.151871 0.230151 -0.021657
v 0.249093 0.060012 -0.106727
v 0.249093 0.084317 -0.106727
v 0.249093 0.060012 -0.094574
v 0.188329 0.205845 -0.033810
v 0.188329 0.205845 -0.021657
v 0.188329 0.230151 -0.033810
v 0.188329 0.230151 -0.021657
v 0.552912 0.157234 -0.106727
v 0.552912 0.169387 -0.106727
v 0.552912 0.181540 -0.106727
v 0.552912 0.169387 -0.094574
v 0.552912 0.181540 -0.094574
v 0.565065 0.145081 -0.118879
v 0.565065 0.145081 -0.106727
v 0.565065 0.157234 -0.118879
v 0.565065 0.157234 -0.106727
v 0.565065 0.181540 -0.106727
v 0.565065 0.193692 -0.106727
v 0.565065 0.181540 -0.094574
v 0.565065 0.193692 -0.094574
v 0.577218 0.193692 -0.094574
v 0.577218 0.205845 -0.094574
v 0.577218 0.205845 -0.021657
v 0.735204 0.157234 -0.106727
v 0.735204 0.169387 -0.106727
v 0.735204 0.157234 -0.094574
v 0.735204 0.169387 -0.094574
v 0.856732 0.205845 -0.033810
v 0.856732 0.205845 -0.021657
v 0.856732 0.230151 -0.033810
v 0.856732 0.230151 -0.021657
v 0.893190 0.205845 -0.033810
v 0.893190 0.205845 -0.021657
v 0.893190 0.230151 -0.033810
v 0.893190 0.230151 -0.021657
v 0.905343 0.205845 -0.021657
v 0.905343 0.205845 -0.009504
v 0.917496 0.205845 -0.009504
v 0.905343 0.230151 -0.021657
v 0.905343 0.230151 -0.009504
v 0.917496 0.230151 -0.009504
v 0.953954 0.217998 -0.070268
v 0.953954 0.230151 -0.070268
v 1.014718 0.230151 -0.094574
v 1.087635 0.145081 -0.118879
v 1.087635 0.145081 -0.106727
v 1.087635 0.157234 -0.118879
v 1.087635 0.157234 -0.106727
v 1.087635 0.181540 -0.106727
v 1.087635 0.193692 -0.106727
v 1.099787 0.157234 -0.106727
v 1.099787 0.181540 -0.106727
v 1.087635 0.157234 -0.094574
v 1.075482 0.193692 -0.094574
v 1.087635 0.181540 -0.094574
v 1.087635 0.193692 -0.094574
v 1.075482 0.205845 -0.094574
v 1.099787 0.157234 -0.094574
v 1.099787 0.181540 -0.094574
v 0.953954 0.266609 -0.070268
v 0.978260 0.266609 -0.070268
v 0.978260 0.278762 -0.070268
v 0.953954 0.254456 -0.045963
v 0.953954 0.266609 -0.045963
v 0.978260 0.266609 -0.045963
v 0.978260 0.278762 -0.045963
v 1.014718 0.278762 -0.070268
v 1.014718 0.290915 -0.070268
v 1.039024 0.290915 -0.070268
v 1.014718 0.278762 -0.045963
v 1.014718 0.290915 -0.045963
v 1.039024 0.254456 -0.045963
v 1.039024 0.290915 -0.045963
v 1.039024 0.303067 -0.070268
v 1.039024 0.303067 -0.045963
v 1.075482 0.254456 -0.021657
v 1.075482 0.254456 -0.009504
v 1.087635 0.254456 -0.021657
v 1.063329 0.303067 -0.070268
v 1.063329 0.315220 -0.070268
v 1.087635 0.315220 -0.070268
v 1.087635 0.327373 -0.070268
v 1.063329 0.303067 -0.045963
v 1.063329 0.315220 -0.045963
v 1.087635 0.315220 -0.045963
v 1.075482 0.303067 -0.021657
v 1.087635 0.303067 -0.021657
v 1.087635 0.327373 -0.045963
v 1.124093 0.290915 -0.070268
v 1.136246 0.278762 -0.070268
v 1.136246 0.290915 -0.070268
v 1.124093 0.290915 -0.045963
v 1.136246 0.278762 -0.045963
v 1.136246 0.290915 -0.045963
v 1.099787 0.315220 -0.070268
v 1.111940 0.303067 -0.070268
v 1.111940 0.315220 -0.070268
v 1.099787 0.327373 -0.070268
v 1.124093 0.303067 -0.070268
v 1.099787 0.315220 -0.045963
v 1.111940 0.303067 -0.045963
v 1.111940 0.315220 -0.045963
v 1.099787 0.327373 -0.045963
v 1.124093 0.303067 -0.045963
v 1.184857 0.060012 -0.106727
v 1.184857 0.060012 -0.094574
v 1.184857 0.157234 -0.106727
v 1.184857 0.157234 -0.094574
v 1.160551 0.217998 -0.070268
v 1.160551 0.230151 -0.070268
v 1.184857 0.230151 -0.094574
v 1.148399 0.266609 -0.070268
v 1.160551 0.266609 -0.070268
v 1.148399 0.278762 -0.070268
v 1.148399 0.266609 -0.045963
v 1.160551 0.254456 -0.045963
v 1.160551 0.266609 -0.045963
v 1.148399 0.278762 -0.045963
v -0.139796 0.169387 0.039107
v -0.139796 0.181540 0.039107
v -0.139796 0.169387 0.051260
v -0.139796 0.181540 0.051260
v -0.127643 0.205845 0.014801
v -0.127643 0.217998 0.014801
v -0.127643 0.205845 0.026954
v -0.127643 0.217998 0.026954
v -0.079032 0.096470 0.026954
v -0.079032 0.096470 0.087718
v -0.079032 0.108623 0.026954
v -0.079032 0.108623 0.039107
v -0.079032 0.132929 0.039107
v -0.079032 0.132929 0.051260
v -0.066879 0.096470 0.026954
v -0.066879 0.108623 0.026954
v -0.066879 0.108623 0.039107
v -0.066879 0.132929 0.039107
v -0.066879 0.132929 0.051260
v -0.079032 0.096470 0.099871
v -0.079032 0.181540 0.039107
v -0.079032 0.181540 0.051260
v -0.079032 0.193692 0.075565
v -0.079032 0.193692 0.087718
v -0.079032 0.205845 0.026954
v -0.079032 0.205845 0.039107
v -0.079032 0.217998 0.026954
v -0.079032 0.230151 0.075565
v -0.066879 0.181540 0.039107
v -0.066879 0.181540 0.051260
v -0.066879 0.205845 0.026954
v -0.066879 0.205845 0.039107
v -0.066879 0.217998 0.026954
v -0.006115 0.096470 0.087718
v -0.006115 0.108623 0.087718
v 0.006037 0.108623 0.087718
v 0.006037 0.132929 0.087718
v 0.018190 0.132929 0.087718
v -0.006115 0.096470 0.099871
v -0.006115 0.108623 0.099871
v 0.006037 0.108623 0.099871
v 0.006037 0.132929 0.099871
v 0.018190 0.132929 0.099871
v 0.030343 0.060012 0.099871
v 0.030343 0.060012 0.112023
v 0.042496 0.060012 0.099871
v 0.042496 0.060012 0.112023
v 0.030343 0.084317 0.099871
v 0.030343 0.084317 0.112023
v 0.042496 0.084317 0.099871
v 0.042496 0.084317 0.112023
v 0.042496 0.096470 0.099871
v 0.042496 0.096470 0.112023
v 0.066801 0.084317 0.099871
v 0.066801 0.084317 0.112023
v 0.066801 0.096470 0.099871
v 0.066801 0.096470 0.112023
v -0.006115 0.193692 0.075565
v -0.006115 0.193692 0.087718
v 0.018190 0.157234 0.087718
v -0.006115 0.205845 0.075565
v -0.006115 0.205845 0.087718
v 0.006037 0.205845 0.075565
v 0.006037 0.205845 0.087718
v 0.006037 0.217998 0.075565
v 0.006037 0.217998 0.087718
v 0.018190 0.217998 0.075565
v 0.018190 0.217998 0.087718
v 0.018190 0.230151 0.075565
v 0.018190 0.230151 0.087718
v 0.030343 0.157234 0.087718
v 0.030343 0.169387 0.087718
v 0.018190 0.157234 0.099871
v 0.030343 0.157234 0.099871
v 0.030343 0.169387 0.099871
v 0.091107 0.084317 0.099871
v 0.091107 0.084317 0.112023
v 0.139718 0.205845 0.026954
v 0.139718 0.230151 0.026954
v 0.249093 0.072165 0.099871
v 0.249093 0.072165 0.112023
v 0.249093 0.084317 0.099871
v 0.249093 0.084317 0.112023
v 0.188329 0.205845 0.014801
v 0.188329 0.205845 0.026954
v 0.188329 0.230151 0.014801
v 0.188329 0.230151 0.026954
v 0.552912 0.169387 0.087718
v 0.552912 0.181540 0.087718
v 0.552912 0.157234 0.099871
v 0.552912 0.169387 0.099871
v 0.552912 0.181540 0.099871
v 0.565065 0.145081 0.099871
v 0.565065 0.145081 0.112023
v 0.565065 0.181540 0.087718
v 0.565065 0.193692 0.087718
v 0.577218 0.193692 0.087718
v 0.577218 0.205845 0.014801
v 0.577218 0.205845 0.087718
v 0.565065 0.157234 0.099871
v 0.565065 0.169387 0.099871
v 0.565065 0.169387 0.112023
v 0.565065 0.181540 0.099871
v 0.565065 0.193692 0.099871
v 0.577218 0.193692 0.099871
v 0.577218 0.205845 0.099871
v 0.759510 0.084317 0.099871
v 0.759510 0.084317 0.112023
v 0.759510 0.096470 0.099871
v 0.759510 0.096470 0.112023
v 0.844579 0.205845 0.014801
v 0.844579 0.205845 0.026954
v 0.844579 0.230151 0.014801
v 0.844579 0.230151 0.026954
v 0.893190 0.205845 0.014801
v 0.893190 0.205845 0.026954
v 0.893190 0.230151 0.014801
v 0.893190 0.230151 0.026954
v 0.905343 0.205845 0.002648
v 0.905343 0.205845 0.014801
v 0.917496 0.205845 0.002648
v 0.905343 0.230151 0.002648
v 0.905343 0.230151 0.014801
v 0.917496 0.230151 0.002648
v 0.953954 0.217998 0.063412
v 0.953954 0.230151 0.063412
v 1.087635 0.145081 0.099871
v 1.087635 0.145081 0.112023
v 1.075482 0.193692 0.087718
v 1.087635 0.181540 0.087718
v 1.087635 0.193692 0.087718
v 1.075482 0.205845 0.087718
v 1.099787 0.169387 0.087718
v 1.099787 0.181540 0.087718
v 1.087635 0.157234 0.099871
v 1.087635 0.169387 0.099871
v 1.087635 0.169387 0.112023
v 1.075482 0.193692 0.099871
v 1.087635 0.181540 0.099871
v 1.087635 0.193692 0.099871
v 1.075482 0.205845 0.099871
v 1.099787 0.157234 0.099871
v 1.099787 0.169387 0.099871
v 1.099787 0.181540 0.099871
v 0.953954 0.254456 0.039107
v 0.953954 0.266609 0.039107
v 0.978260 0.266609 0.039107
v 0.978260 0.278762 0.039107
v 0.953954 0.266609 0.063412
v 0.978260 0.266609 0.063412
v 0.978260 0.278762 0.063412
v 1.014718 0.278762 0.039107
v 1.014718 0.290915 0.039107
v 1.039024 0.290915 0.039107
v 1.014718 0.278762 0.063412
v 1.014718 0.290915 0.063412
v 1.039024 0.290915 0.063412
v 1.039024 0.303067 0.039107
v 1.039024 0.303067 0.063412
v 1.075482 0.254456 0.014801
v 1.087635 0.254456 0.014801
v 1.063329 0.303067 0.039107
v 1.063329 0.315220 0.039107
v 1.075482 0.303067 0.014801
v 1.087635 0.303067 0.014801
v 1.087635 0.315220 0.039107
v 1.087635 0.327373 0.039107
v 1.063329 0.303067 0.063412
v 1.063329 0.315220 0.063412
v 1.087635 0.315220 0.063412
v 1.087635 0.327373 0.063412
v 1.124093 0.290915 0.039107
v 1.136246 0.278762 0.039107
v 1.136246 0.290915 0.039107
v 1.124093 0.290915 0.063412
v 1.136246 0.278762 0.063412
v 1.136246 0.290915 0.063412
v 1.099787 0.315220 0.039107
v 1.111940 0.303067 0.039107
v 1.111940 0.315220 0.039107
v 1.099787 0.327373 0.039107
v 1.124093 0.303067 0.039107
v 1.099787 0.315220 0.063412
v 1.111940 0.303067 0.063412
v 1.111940 0.315220 0.063412
v 1.099787 0.327373 0.063412
v 1.124093 0.303067 0.063412
v 1.184857 0.072165 0.099871
v 1.184857 0.072165 0.112023
v 1.184857 0.096470 0.099871
v 1.184857 0.096470 0.112023
v 1.172704 0.169387 0.087718
v 1.172704 0.181540 0.087718
v 1.184857 0.181540 0.087718
v 1.160551 0.217998 0.063412
v 1.160551 0.230151 0.063412
v 1.184857 0.230151 0.087718
v 1.172704 0.169387 0.099871
v 1.172704 0.181540 0.099871
v 1.184857 0.181540 0.099871
v 1.148399 0.266609 0.039107
v 1.160551 0.254456 0.039107
v 1.160551 0.266609 0.039107
v 1.148399 0.278762 0.039107
v 1.148399 0.266609 0.063412
v 1.160551 0.266609 0.063412
v 1.148399 0.278762 0.063412
vn -0.0000 -0.0000 1.0000
vn 1.0000 -0.0000 -0.0000
vn -0.0000 1.0000 -0.0000
vn -0.0000 -1.0000 -0.0000
vn -1.0000 -0.0000 -0.0000
vn -0.0000 -0.0000 -1.0000
s 0
usemtl Meshpart1Mtl.019
f 957//1 953//1 952//1
f 333//2 337//2 336//2
f 826//3 860//3 825//3
f 430//4 476//4 524//4
f 831//5 642//5 820//5
f 197//1 213//1 198//1
f 23//3 65//3 62//3
f 824//4 823//4 831//4
f 975//3 978//3 1009//3
f 831//5 834//5 833//5
f 333//4 111//4 113//4
f 187//4 166//4 165//4
f 386//1 396//1 398//1
f 429//2 678//2 522//2
f 683//3 690//3 673//3
f 815//2 621//2 624//2
f 101//6 103//6 104//6
f 703//1 696//1 695//1
f 845//1 844//1 843//1
f 285//3 291//3 289//3
f 649//5 657//5 658//5
f 993//2 991//2 990//2
f 461//6 437//6 440//6
f 652//6 654//6 678//6
f 933//1 932//1 936//1
f 239//1 231//1 285//1
f 608//2 606//2 992//2
f 4//3 210//3 14//3
f 730//3 698//3 895//3
f 723//3 724//3 725//3
f 824//5 816//5 825//5
f 789//6 730//6 735//6
f 122//2 129//2 127//2
f 268//1 274//1 270//1
f 96//4 97//4 90//4
f 602//2 599//2 501//2
f 748//5 744//5 747//5
f 692//6 700//6 698//6
f 795//2 999//2 996//2
f 337//2 343//2 338//2
f 242//1 321//1 323//1
f 440//5 438//5 442//5
f 905//1 893//1 903//1
f 210//5 229//5 227//5
f 781//2 786//2 785//2
f 550//4 549//4 556//4
f 733//3 739//3 743//3
f 551//6 554//6 562//6
f 704//6 703//6 696//6
f 926//3 925//3 928//3
f 555//6 563//6 562//6
f 943//1 908//1 907//1
f 959//5 960//5 956//5
f 3//4 20//4 14//4
f 269//3 274//3 273//3
f 949//6 954//6 1004//6
f 770//5 760//5 761//5
f 425//5 427//5 428//5
f 61//2 63//2 64//2
f 434//5 527//5 438//5
f 630//5 634//5 632//5
f 846//1 517//1 518//1
f 160//3 159//3 143//3
f 457//3 460//3 459//3
f 397//3 396//3 386//3
f 579//4 524//4 574//4
f 629//5 628//5 818//5
f 642//5 629//5 820//5
f 478//6 475//6 476//6
f 616//1 625//1 628//1
f 360//1 362//1 345//1
f 644//5 643//5 642//5
f 727//3 794//3 728//3
f 269//3 270//3 274//3
f 20//3 22//3 52//3
f 294//1 317//1 326//1
f 480//2 572//2 474//2
f 149//5 148//5 150//5
f 696//4 703//4 897//4
f 899//2 705//2 900//2
f 409//3 805//3 803//3
f 634//1 633//1 642//1
f 972//3 968//3 965//3
f 171//3 172//3 189//3
f 293//1 318//1 295//1
f 446//1 450//1 456//1
f 808//5 807//5 809//5
f 68//4 67//4 70//4
f 924//5 921//5 922//5
f 319//5 320//5 99//5
f 302//5 319//5 97//5
f 804//5 805//5 806//5
f 60//2 82//2 83//2
f 928//5 727//5 726//5
f 292//5 293//5 294//5
f 570//1 567//1 571//1
f 892//3 700//3 692//3
f 333//4 113//4 116//4
f 451//3 537//3 542//3
f 846//1 850//1 517//1
f 888//6 915//6 900//6
f 50//1 24//1 56//1
f 709//4 695//4 693//4
f 590//1 591//1 592//1
f 178//6 167//6 180//6
f 364//1 365//1 334//1
f 29//1 10//1 9//1
f 10//5 203//5 12//5
f 211//2 16//2 23//2
f 358//1 368//1 370//1
f 213//5 212//5 218//5
f 702//5 701//5 703//5
f 651//5 659//5 660//5
f 666//6 693//6 686//6
f 952//3 949//3 948//3
f 261//6 211//6 254//6
f 437//4 462//4 438//4
f 732//4 737//4 710//4
f 625//3 616//3 811//3
f 298//5 299//5 300//5
f 444//4 447//4 448//4
f 321//6 306//6 300//6
f 468//6 496//6 486//6
f 175//4 618//4 623//4
f 606//2 509//2 790//2
f 949//6 950//6 954//6
f 280//4 226//4 223//4
f 706//6 705//6 704//6
f 497//5 595//5 596//5
f 460//1 458//1 456//1
f 83//1 25//1 66//1
f 224//2 37//2 233//2
f 230//4 297//4 289//4
f 167//6 147//6 159//6
f 261//4 262//4 212//4
f 294//5 100//5 81//5
f 674//6 672//6 670//6
f 492//2 490//2 491//2
f 933//1 936//1 999//1
f 862//1 873//1 874//1
f 592//1 566//1 590//1
f 336//1 337//1 335//1
f 372//1 392//1 394//1
f 274//5 277//5 279//5
f 820//5 821//5 832//5
f 310//6 239//6 293//6
f 928//3 872//3 999//3
f 237//5 242//5 244//5
f 45//6 12//6 13//6
f 551//6 553//6 554//6
f 276//1 278//1 221//1
f 733//2 734//2 740//2
f 168//6 166//6 156//6
f 934//4 901//4 914//4
f 207//5 208//5 13//5
f 741//4 923//4 722//4
f 108//6 62//6 107//6
f 694//3 696//3 703//3
f 301//4 299//4 296//4
f 198//5 200//5 5//5
f 908//3 943//3 934//3
f 497//5 596//5 498//5
f 213//5 211//5 212//5
f 182//3 181//3 161//3
f 969//3 988//3 983//3
f 235//5 232//5 225//5
f 316//6 314//6 310//6
f 148//6 156//6 134//6
f 321//4 242//4 310//4
f 326//1 325//1 294//1
f 306//2 321//2 322//2
f 275//3 272//3 268//3
f 740//5 739//5 932//5
f 384//5 383//5 385//5
f 86//6 42//6 94//6
f 350//1 356//1 358//1
f 269//5 268//5 270//5
f 238//5 230//5 231//5
f 319//5 99//5 97//5
f 577//1 580//1 578//1
f 319//3 321//3 344//3
f 513//4 421//4 427//4
f 608//4 536//4 535//4
f 947//6 948//6 949//6
f 828//5 823//5 824//5
f 980//6 982//6 981//6
f 448//4 486//4 488//4
f 959//1 957//1 998//1
f 727//6 744//6 745//6
f 738//1 705//1 711//1
f 923//6 924//6 926//6
f 293//5 295//5 294//5
f 854//1 858//1 876//1
f 918//6 914//6 916//6
f 480//2 580//2 572//2
f 754//3 746//3 750//3
f 305//5 306//5 304//5
f 259//5 257//5 258//5
f 745//6 746//6 751//6
f 913//2 916//2 914//2
f 830//5 636//5 640//5
f 555//2 554//2 460//2
f 829//5 828//5 830//5
f 386//3 163//3 384//3
f 812//5 814//5 811//5
f 602//2 501//2 504//2
f 704//4 705//4 899//4
f 981//3 986//3 989//3
f 186//4 185//4 612//4
f 823//2 815//2 633//2
f 138//6 169//6 162//6
f 929//4 930//4 896//4
f 11//5 8//5 10//5
f 381//5 380//5 382//5
f 458//2 553//2 548//2
f 824//5 825//5 828//5
f 218//3 275//3 254//3
f 41//5 40//5 39//5
f 400//4 417//4 419//4
f 417//5 416//5 418//5
f 223//2 221//2 220//2
f 469//5 570//5 472//5
f 79//3 46//3 49//3
f 935//4 945//4 938//4
f 473//6 469//6 472//6
f 874//1 890//1 891//1
f 513//4 427//4 518//4
f 337//4 335//4 332//4
f 271//6 267//6 269//6
f 88//3 87//3 77//3
f 275//4 272//4 331//4
f 307//3 343//3 341//3
f 377//4 394//4 388//4
f 177//4 146//4 157//4
f 909//1 911//1 895//1
f 622//4 617//4 619//4
f 607//1 608//1 535//1
f 853//1 851//1 849//1
f 753//6 763//6 773//6
f 87//6 69//6 36//6
f 975//3 1009//3 1006//3
f 928//5 951//5 947//5
f 863//3 864//3 866//3
f 394//4 395//4 388//4
f 950//3 957//3 954//3
f 3//5 4//5 6//5
f 825//5 830//5 828//5
f 145//4 174//4 392//4
f 526//1 587//1 542//1
f 89//6 98//6 96//6
f 58//2 62//2 65//2
f 620//4 621//4 612//4
f 444//4 443//4 447//4
f 851//1 847//1 849//1
f 415//4 813//4 814//4
f 56//4 55//4 57//4
f 38//2 43//2 44//2
f 774//6 794//6 753//6
f 216//3 217//3 248//3
f 340//5 126//5 334//5
f 930//2 929//2 937//2
f 403//3 408//3 404//3
f 331//1 272//1 261//1
f 389//4 388//4 395//4
f 692//2 693//2 695//2
f 523//1 879//1 857//1
f 640//5 829//5 830//5
f 856//2 859//2 857//2
f 115//4 146//4 364//4
f 190//3 189//3 172//3
f 179//5 178//5 180//5
f 348//4 354//4 355//4
f 830//1 825//1 863//1
f 211//6 215//6 246//6
f 310//6 293//6 312//6
f 543//6 537//6 538//6
f 727//6 745//6 751//6
f 766//3 772//3 787//3
f 891//3 905//3 897//3
f 709//5 708//5 710//5
f 16//5 23//5 19//5
f 763//6 764//6 765//6
f 862//5 845//5 875//5
f 275//1 336//1 335//1
f 751//6 752//6 753//6
f 493//4 591//4 590//4
f 467//6 453//6 449//6
f 305//5 304//5 281//5
f 632//5 631//5 630//5
f 65//5 59//5 271//5
f 66//5 63//5 64//5
f 743//5 742//5 935//5
f 839//5 838//5 843//5
f 310//3 309//3 238//3
f 682//3 679//3 880//3
f 85//5 66//5 64//5
f 901//1 934//1 999//1
f 642//1 643//1 634//1
f 320//3 315//3 316//3
f 420//6 614//6 646//6
f 669//3 672//3 671//3
f 893//1 877//1 884//1
f 558//6 556//6 549//6
f 22//4 52//4 53//4
f 618//6 175//6 193//6
f 796//3 801//3 797//3
f 604//2 505//2 507//2
f 32//2 33//2 37//2
f 203//5 202//5 204//5
f 751//6 753//6 794//6
f 895//5 896//5 902//5
f 647//5 646//5 655//5
f 725//5 923//5 926//5
f 932//6 890//6 897//6
f 762//2 771//2 967//2
f 618//5 622//5 623//5
f 24//1 53//1 56//1
f 35//6 11//6 43//6
f 699//5 697//5 698//5
f 84//5 83//5 66//5
f 323//3 316//3 312//3
f 610//6 621//6 616//6
f 458//6 456//6 436//6
f 36//5 22//5 26//5
f 319//6 313//6 315//6
f 261//4 212//4 211//4
f 899//6 901//6 934//6
f 106//4 330//4 261//4
f 21//2 37//2 224//2
f 215//4 245//4 246//4
f 703//1 695//1 711//1
f 809//1 829//1 810//1
f 863//5 860//5 861//5
f 184//6 182//6 169//6
f 480//4 581//4 580//4
f 29//1 30//1 10//1
f 510//1 513//1 514//1
f 723//5 721//5 724//5
f 531//5 533//5 438//5
f 812//5 826//5 816//5
f 509//6 439//6 442//6
f 433//4 432//4 445//4
f 927//1 998//1 928//1
f 935//6 890//6 932//6
f 815//2 624//2 633//2
f 154//3 131//3 362//3
f 332//5 335//5 341//5
f 38//2 44//2 45//2
f 89//6 96//6 79//6
f 339//5 125//5 123//5
f 378//1 363//1 361//1
f 594//2 495//2 496//2
f 434//5 430//5 525//5
f 656//6 631//6 658//6
f 712//4 713//4 707//4
f 839//3 845//3 840//3
f 742//5 944//5 935//5
f 667//6 662//6 660//6
f 770//3 967//3 771//3
f 294//5 324//5 100//5
f 560//2 564//2 565//2
f 119//5 107//5 123//5
f 227//5 30//5 29//5
f 639//1 645//1 640//1
f 275//3 264//3 258//3
f 402//5 401//5 403//5
f 289//1 298//1 310//1
f 146//5 372//5 377//5
f 333//4 331//4 111//4
f 656//6 655//6 615//6
f 890//4 935//4 938//4
f 795//6 740//6 741//6
f 793//4 997//4 927//4
f 3//6 7//6 32//6
f 987//2 986//2 981//2
f 35//6 8//6 11//6
f 208//3 237//3 47//3
f 297//6 238//6 309//6
f 4//3 200//3 210//3
f 764//3 769//3 765//3
f 273//5 281//5 85//5
f 263//2 266//2 264//2
f 884//4 678//4 686//4
f 496//6 494//6 486//6
f 615//5 420//5 422//5
f 253//2 255//2 256//2
f 489//6 430//6 487//6
f 936//1 935//1 994//1
f 514//5 513//5 516//5
f 430//6 452//6 487//6
f 23//2 224//2 222//2
f 276//1 221//1 219//1
f 903//1 938//1 940//1
f 528//4 527//4 537//4
f 491//2 590//2 588//2
f 633//4 630//4 641//4
f 907//1 906//1 905//1
f 829//3 640//3 808//3
f 410//5 407//5 411//5
f 990//1 536//1 609//1
f 107//6 110//6 108//6
f 817//6 811//6 813//6
f 941//1 942//1 940//1
f 969//5 968//5 972//5
f 263//2 265//2 266//2
f 87//6 84//6 69//6
f 173//4 611//4 412//4
f 146//5 145//5 372//5
f 343//1 307//1 305//1
f 871//1 830//1 867//1
f 960//3 970//3 964//3
f 867//1 869//1 871//1
f 817//6 813//6 818//6
f 872//3 928//3 889//3
f 992//1 1000//1 944//1
f 567//1 568//1 571//1
f 505//4 603//4 502//4
f 692//6 685//6 686//6
f 667//6 669//6 671//6
f 332//5 339//5 123//5
f 711//1 710//1 738//1
f 68//4 70//4 71//4
f 901//5 907//5 908//5
f 227//6 202//6 203//6
f 279//5 281//5 273//5
f 881//3 680//3 871//3
f 510//5 511//5 811//5
f 824//6 832//6 821//6
f 59//6 65//6 111//6
f 131//3 345//3 362//3
f 814//5 813//5 811//5
f 138//3 140//3 151//3
f 359//1 357//1 355//1
f 636//5 632//5 637//5
f 20//5 19//5 21//5
f 960//3 961//3 970//3
f 673//5 671//5 672//5
f 137//6 138//6 144//6
f 653//3 662//3 663//3
f 35//6 87//6 36//6
f 886//3 900//3 689//3
f 745//5 750//5 746//5
f 227//5 29//5 14//5
f 216//3 248//3 247//3
f 531//1 565//1 566//1
f 756//3 761//3 760//3
f 64//3 63//3 52//3
f 547//1 544//1 528//1
f 630//5 633//5 634//5
f 908//3 934//3 901//3
f 353//1 376//1 369//1
f 616//1 628//1 621//1
f 995//5 1000//5 1001//5
f 277//5 272//5 275//5
f 753//5 759//5 758//5
f 391//1 400//1 402//1
f 111//6 113//6 106//6
f 44//6 46//6 79//6
f 878//1 884//1 877//1
f 174//4 173//4 412//4
f 669//5 668//5 670//5
f 187//5 186//5 188//5
f 357//1 349//1 355//1
f 694//5 693//5 695//5
f 763//5 767//5 768//5
f 393//4 392//4 174//4
f 437//4 461//4 462//4
f 678//6 426//6 425//6
f 242//4 236//4 239//4
f 43//3 11//3 44//3
f 874//5 876//5 877//5
f 321//3 347//3 344//3
f 509//6 506//6 439//6
f 125//5 124//5 123//5
f 928//5 726//5 927//5
f 446//2 538//2 451//2
f 685//6 692//6 698//6
f 40//3 78//3 77//3
f 299//1 304//1 306//1
f 131//6 128//6 125//6
f 856//3 879//3 878//3
f 881//6 889//6 887//6
f 730//4 697//4 729//4
f 194//5 195//5 196//5
f 813//3 819//3 818//3
f 90//4 309//4 48//4
f 847//4 848//4 849//4
f 980//3 987//3 982//3
f 435//3 456//3 455//3
f 173//6 176//6 613//6
f 34//2 33//2 32//2
f 292//1 238//1 309//1
f 203//4 10//4 30//4
f 841//1 512//1 517//1
f 74//1 76//1 78//1
f 400//1 389//1 416//1
f 234//1 322//1 243//1
f 327//3 328//3 104//3
f 718//5 717//5 719//5
f 466//6 502//6 496//6
f 416//4 815//4 816//4
f 727//3 690//3 714//3
f 777//3 798//3 774//3
f 251//3 256//3 255//3
f 81//5 80//5 79//5
f 438//5 431//5 434//5
f 537//1 526//1 542//1
f 282//1 280//1 338//1
f 89//3 311//3 91//3
f 601//3 504//3 503//3
f 348//4 355//4 349//4
f 458//4 460//4 554//4
f 242//5 233//5 234//5
f 37//4 33//4 36//4
f 730//1 732//1 708//1
f 950//5 949//5 952//5
f 673//6 728//6 706//6
f 968//6 983//6 980//6
f 896//5 904//5 902//5
f 575//4 479//4 577//4
f 652//6 678//6 650//6
f 342//5 340//5 334//5
f 301//6 296//6 298//6
f 950//3 953//3 957//3
f 446//6 444//6 433//6
f 765//5 769//5 772//5
f 227//4 229//4 204//4
f 792//6 742//6 743//6
f 634//5 637//5 632//5
f 810//3 829//3 808//3
f 275//2 278//2 276//2
f 877//3 890//3 874//3
f 518//4 516//4 513//4
f 445//6 432//6 455//6
f 405//5 404//5 408//5
f 739//4 743//4 936//4
f 570//1 571//1 580//1
f 586//1 525//1 579//1
f 243//3 322//3 321//3
f 350//1 358//1 342//1
f 997//2 794//2 998//2
f 465//6 463//6 459//6
f 101//6 104//6 102//6
f 375//4 376//4 353//4
f 702//3 704//3 705//3
f 814//5 812//5 816//5
f 781//2 785//2 780//2
f 705//2 707//2 900//2
f 649//3 658//3 659//3
f 311//3 315//3 91//3
f 279//6 222//6 224//6
f 35//3 40//3 77//3
f 196//6 195//6 181//6
f 261//2 275//2 262//2
f 332//5 341//5 339//5
f 464//4 468//4 564//4
f 693//6 692//6 686//6
f 938//1 941//1 940//1
f 271//6 269//6 273//6
f 680//2 881//2 880//2
f 293//1 312//1 318//1
f 114//6 113//6 111//6
f 326//1 327//1 325//1
f 629//5 818//5 820//5
f 795//6 792//6 743//6
f 564//6 560//6 558//6
f 902//6 903//6 937//6
f 417//5 418//5 419//5
f 533//5 534//5 535//5
f 744//3 748//3 749//3
f 17//5 32//5 31//5
f 950//5 952//5 953//5
f 964//6 981//6 974//6
f 457//5 456//5 458//5
f 978//1 977//1 959//1
f 321//5 319//5 303//5
f 283//2 280//2 282//2
f 180//6 167//6 181//6
f 36//6 33//6 35//6
f 241//3 237//3 244//3
f 110//4 156//4 117//4
f 35//3 34//3 7//3
f 517//1 516//1 518//1
f 91//3 99//3 98//3
f 867//3 868//3 870//3
f 823//2 824//2 815//2
f 409//1 408//1 419//1
f 484//2 583//2 483//2
f 69//6 55//6 54//6
f 393//1 412//1 414//1
f 540//6 545//6 543//6
f 819//6 814//6 815//6
f 8//5 6//5 10//5
f 25//6 20//6 3//6
f 970//5 971//5 965//5
f 514//4 517//4 512//4
f 114//2 108//2 110//2
f 261//5 272//5 271//5
f 211//6 246//6 250//6
f 382//3 407//3 383//3
f 733//2 740//2 739//2
f 427//4 424//4 426//4
f 187//4 188//4 166//4
f 779//3 784//3 786//3
f 62//1 64//1 52//1
f 74//1 41//1 68//1
f 458//2 548//2 456//2
f 253//6 249//6 251//6
f 149//6 133//6 141//6
f 369//3 368//3 358//3
f 122//2 127//2 120//2
f 486//5 485//5 487//5
f 927//1 997//1 998//1
f 162//6 160//6 144//6
f 327//3 104//3 103//3
f 606//2 605//2 604//2
f 263//6 257//6 259//6
f 164//5 163//5 386//5
f 268//6 272//6 261//6
f 169//6 171//6 184//6
f 142//3 135//3 136//3
f 70//2 74//2 71//2
f 597//2 502//2 600//2
f 390//4 374//4 373//4
f 779//2 782//2 787//2
f 728//6 795//6 741//6
f 435//5 433//5 436//5
f 862//3 876//3 873//3
f 646//6 647//6 648//6
f 730//5 929//5 737//5
f 332//1 331//1 333//1
f 450//1 454//1 468//1
f 699//3 700//3 708//3
f 254//6 258//6 261//6
f 414//5 413//5 415//5
f 110//6 107//6 119//6
f 310//1 239//1 285//1
f 275//6 218//6 220//6
f 566//5 454//5 547//5
f 27//4 26//4 50//4
f 615//3 646//3 614//3
f 110//6 119//6 120//6
f 667//6 675//6 662//6
f 52//2 54//2 56//2
f 970//1 986//1 972//1
f 83//3 31//3 32//3
f 754//3 751//3 746//3
f 288//2 291//2 290//2
f 399//3 808//3 192//3
f 904//3 938//3 903//3
f 947//3 1004//3 962//3
f 114//5 113//5 333//5
f 106//6 59//6 111//6
f 582//4 482//4 483//4
f 2//6 4//6 14//6
f 102//3 326//3 329//3
f 116//4 115//4 364//4
f 569//4 471//4 472//4
f 826//1 812//1 837//1
f 611//4 610//4 616//4
f 515//4 429//4 521//4
f 762//2 967//2 963//2
f 497//4 597//4 595//4
f 90//1 99//1 91//1
f 833//6 829//6 835//6
f 589//1 547//1 528//1
f 37//2 45//2 236//2
f 589//4 528//4 542//4
f 654//6 664//6 665//6
f 298//3 306//3 303//3
f 937//3 944//3 742//3
f 518//1 515//1 519//1
f 813//2 616//2 621//2
f 508//6 441//6 687//6
f 44//4 96//4 90//4
f 263//6 259//6 265//6
f 459//6 463//6 455//6
f 287//6 233//6 242//6
f 945//3 994//3 935//3
f 533//5 884//5 687//5
f 935//2 946//2 945//2
f 373//1 375//1 367//1
f 794//2 797//2 800//2
f 264//6 268//6 261//6
f 904//5 903//5 902//5
f 253//6 251//6 255//6
f 371//1 369//1 376//1
f 176//5 173//5 174//5
f 664//3 675//3 676//3
f 171//5 169//5 170//5
f 576//1 577//1 578//1
f 196//3 630//3 194//3
f 871//5 869//5 870//5
f 45//1 49//1 47//1
f 986//1 985//1 972//1
f 862//5 840//5 845//5
f 70//2 73//2 74//2
f 279//6 224//6 281//6
f 648//6 649//6 650//6
f 37//1 40//1 38//1
f 390//4 391//4 374//4
f 308//3 305//3 232//3
f 588//2 587//2 586//2
f 636//5 637//5 640//5
f 779//2 787//2 784//2
f 340//5 345//5 128//5
f 559//1 565//1 552//1
f 733//3 743//3 736//3
f 473//4 474//4 572//4
f 784//1 787//1 772//1
f 435//5 432//5 433//5
f 623//6 622//6 187//6
f 182//6 162//6 169//6
f 955//5 957//5 958//5
f 995//3 1001//3 1002//3
f 757//3 753//3 752//3
f 286//1 291//1 287//1
f 633//2 635//2 823//2
f 744//3 749//3 745//3
f 297//2 310//2 298//2
f 50//1 56//1 70//1
f 707//1 713//1 715//1
f 498//4 596//4 594//4
f 1009//2 1003//2 1006//2
f 936//1 995//1 999//1
f 891//5 893//5 894//5
f 259//3 266//3 265//3
f 737//1 742//1 739//1
f 155//6 156//6 166//6
f 295//3 317//3 294//3
f 350//1 342//1 337//1
f 262//1 275//1 218//1
f 668//6 632//6 670//6
f 102//6 105//6 93//6
f 96//6 44//6 79//6
f 361//3 340//3 342//3
f 22//1 21//1 19//1
f 16//1 59//1 65//1
f 184//3 634//3 183//3
f 337//2 342//2 343//2
f 74//4 73//4 75//4
f 1//6 5//6 23//6
f 862//3 875//3 876//3
f 558//6 549//6 551//6
f 540//3 546//3 545//3
f 178//6 623//6 187//6
f 85//5 84//5 66//5
f 239//6 241//6 293//6
f 824//3 804//3 806//3
f 464//1 462//1 460//1
f 612//4 613//4 186//4
f 236//1 237//1 208//1
f 142//3 141//3 135//3
f 616//4 811//4 611//4
f 837//3 843//3 838//3
f 688//5 689//5 691//5
f 742//1 743//1 739//1
f 797//6 794//6 796//6
f 527//5 531//5 438//5
f 668//3 631//3 632//3
f 378//1 384//1 363//1
f 446//1 448//1 450//1
f 573//4 478//4 576//4
f 423//5 515//5 518//5
f 954//6 1003//6 1004//6
f 445//5 443//5 444//5
f 926//3 924//3 925//3
f 196//3 633//3 630//3
f 735//2 736//2 743//2
f 156//6 110//6 134//6
f 194//6 630//6 618//6
f 66//6 83//6 109//6
f 462//6 460//6 458//6
f 850//1 852//1 854//1
f 209//5 207//5 203//5
f 871//5 870//5 872//5
f 409//3 803//3 405//3
f 6//5 9//5 10//5
f 995//1 996//1 999//1
f 382//1 380//1 391//1
f 742//3 792//3 791//3
f 850//1 854//1 843//1
f 130//3 131//3 129//3
f 96//3 97//3 130//3
f 822//3 841//3 836//3
f 905//1 894//1 893//1
f 343//3 342//3 341//3
f 671//6 673//6 677//6
f 60//2 83//2 66//2
f 637//5 638//5 640//5
f 308//1 226//1 283//1
f 258//6 264//6 261//6
f 770//3 966//3 967//3
f 705//2 706//2 707//2
f 610//6 612//6 621//6
f 502//6 498//6 496//6
f 407//3 406//3 383//3
f 793//6 727//6 794//6
f 176//5 174//5 177//5
f 160//3 143//3 144//3
f 918//4 917//4 922//4
f 677//6 673//6 696//6
f 712//2 714//2 715//2
f 582//1 584//1 578//1
f 468//6 466//6 496//6
f 773//6 774//6 753//6
f 61//2 64//2 62//2
f 198//4 213//4 218//4
f 259//3 260//3 266//3
f 68//1 71//1 74//1
f 700//1 698//1 708//1
f 275//2 277//2 278//2
f 86//4 35//4 34//4
f 425//5 424//5 427//5
f 338//1 343//1 282//1
f 388//4 366//4 377//4
f 792//2 996//2 992//2
f 195//3 193//3 179//3
f 313//1 311//1 309//1
f 131//2 346//2 345//2
f 881//3 872//3 889//3
f 900//4 913//4 914//4
f 419//1 418//1 805//1
f 268//4 271//4 272//4
f 544//1 541//1 539//1
f 891//3 894//3 905//3
f 992//1 944//1 929//1
f 431//6 438//6 436//6
f 346//1 320//1 344//1
f 575//5 478//5 477//5
f 537//4 542//4 528//4
f 907//1 905//1 903//1
f 96//5 95//5 87//5
f 975//2 976//2 979//2
f 881//6 887//6 880//6
f 702//6 734//6 709//6
f 427//6 421//6 422//6
f 725//1 724//1 721//1
f 288//6 285//6 289//6
f 206//1 201//1 225//1
f 762//3 963//3 1004//3
f 317//1 329//1 326//1
f 233//2 232//2 224//2
f 822//3 836//3 812//3
f 962//5 966//5 761//5
f 385//3 397//3 386//3
f 793//6 726//6 727//6
f 824//4 831//4 832//4
f 242//1 323//1 244//1
f 374//1 391//1 380//1
f 19//6 2//6 14//6
f 138//5 137//5 139//5
f 649//3 659//3 650//3
f 619//3 624//3 629//3
f 490//4 487//4 485//4
f 394//5 392//5 393//5
f 706//6 728//6 741//6
f 519//1 846//1 518//1
f 476//6 484//6 478//6
f 389//1 814//1 416//1
f 38//2 35//2 43//2
f 804//1 407//1 405//1
f 97//6 99//6 130//6
f 911//5 909//5 910//5
f 307//4 234//4 291//4
f 191//3 192//3 808//3
f 380//1 371//1 376//1
f 302//5 85//5 301//5
f 183//5 181//5 182//5
f 898//5 897//5 905//5
f 369//3 358//3 359//3
f 181//6 183//6 196//6
f 963//1 966//1 962//1
f 863//1 865//1 867//1
f 660//6 658//6 667//6
f 753//5 757//5 759//5
f 756//3 760//3 762//3
f 559//1 561//1 565//1
f 795//3 794//3 998//3
f 498//4 594//4 496//4
f 163//6 192//6 190//6
f 280//4 283//4 226//4
f 49//5 238//5 240//5
f 878//2 879//2 523//2
f 577//5 471//5 569//5
f 732//3 731//3 708//3
f 867//5 866//5 868//5
f 251//3 252//3 256//3
f 653//5 661//5 662//5
f 222//2 223//2 220//2
f 799//1 802//1 777//1
f 855//3 858//3 854//3
f 295//3 318//3 317//3
f 379//1 381//1 370//1
f 74//4 75//4 76//4
f 208//3 47//3 13//3
f 679//1 682//1 684//1
f 457//3 458//3 460//3
f 139//6 127//6 140//6
f 311//2 89//2 93//2
f 457//5 455//5 456//5
f 114//2 113//2 108//2
f 299//1 306//1 300//1
f 689//3 681//3 682//3
f 606//1 532//1 605//1
f 342//1 347//1 341//1
f 93//3 80//3 81//3
f 427//4 426//4 518//4
f 841//1 822//1 512//1
f 337//4 338//4 335//4
f 727//3 714//3 718//3
f 986//1 987//1 985//1
f 425//4 428//4 422//4
f 226//5 235//5 225//5
f 510//1 514//1 511//1
f 794//6 727//6 751//6
f 109//6 63//6 66//6
f 79//6 80//6 89//6
f 305//5 307//5 306//5
f 664//3 676//3 665//3
f 14//6 21//6 19//6
f 767//1 759//1 757//1
f 589//1 590//1 547//1
f 112//5 111//5 332//5
f 122//6 87//6 95//6
f 839//3 844//3 845//3
f 681//2 684//2 682//2
f 301//5 303//5 302//5
f 8//5 7//5 6//5
f 313//1 315//1 311//1
f 867//1 830//1 863//1
f 757//3 752//3 755//3
f 258//4 263//4 264//4
f 42//5 35//5 43//5
f 854//5 852//5 853//5
f 547//3 454//3 543//3
f 90//4 313//4 309//4
f 366//4 364//4 377//4
f 698//1 730//1 708//1
f 811//1 415//1 413//1
f 37//4 36//4 39//4
f 522//4 520//4 519//4
f 133//6 135//6 141//6
f 688//5 691//5 690//5
f 170//6 151//6 153//6
f 358//5 357//5 359//5
f 678//6 425//6 648//6
f 773//3 776//3 778//3
f 7//6 34//6 32//6
f 929//1 895//1 911//1
f 143//5 142//5 144//5
f 167//5 165//5 166//5
f 744//5 727//5 747//5
f 46//5 45//5 47//5
f 839//5 843//5 844//5
f 630//5 631//5 619//5
f 667//6 677//6 675//6
f 738//4 740//4 933//4
f 95//3 94//3 42//3
f 131//3 344//3 345//3
f 729//2 731//2 732//2
f 12//3 45//3 44//3
f 664//5 654//5 663//5
f 5//5 1//5 197//5
f 453//2 468//2 454//2
f 998//3 928//3 999//3
f 319//6 315//6 320//6
f 441//4 509//4 442//4
f 464//3 467//3 463//3
f 816//1 824//1 805//1
f 250//1 254//1 256//1
f 293//3 241//3 244//3
f 619//6 617//6 618//6
f 241//3 240//3 237//3
f 1005//2 1008//2 1004//2
f 938//4 903//4 890//4
f 974//3 979//3 976//3
f 710//1 737//1 738//1
f 587//1 588//1 542//1
f 183//6 634//6 196//6
f 883//1 991//1 910//1
f 65//5 271//5 273//5
f 213//2 211//2 23//2
f 99//6 132//6 130//6
f 491//6 490//6 486//6
f 301//5 85//5 281//5
f 752//5 751//5 754//5
f 449//4 454//4 450//4
f 64//5 62//5 65//5
f 383//3 378//3 381//3
f 857//1 859//1 855//1
f 23//2 19//2 21//2
f 244//3 323//3 312//3
f 620//3 621//3 628//3
f 436//4 456//4 548//4
f 430//6 434//6 451//6
f 85//1 88//1 75//1
f 128//6 154//6 152//6
f 969//5 972//5 973//5
f 23//2 21//2 224//2
f 128//5 127//5 126//5
f 700//2 895//2 698//2
f 75//1 73//1 70//1
f 544//1 539//1 528//1
f 186//6 155//6 166//6
f 918//6 916//6 920//6
f 84//5 86//5 83//5
f 464//6 466//6 468//6
f 205//5 209//5 203//5
f 221//4 201//4 210//4
f 165//6 167//6 178//6
f 56//1 57//1 72//1
f 86//6 34//6 42//6
f 515//1 521//1 519//1
f 425//6 646//6 648//6
f 81//5 79//5 292//5
f 829//5 827//5 828//5
f 637//4 643//4 638//4
f 250//3 246//3 218//3
f 689//3 682//3 886//3
f 201//5 206//5 204//5
f 594//1 566//1 592//1
f 134//6 150//6 148//6
f 45//1 48//1 49//1
f 709//6 693//6 701//6
f 861//1 862//1 874//1
f 506//4 440//4 439//4
f 70//1 67//1 50//1
f 666//5 665//5 676//5
f 340//3 341//3 342//3
f 395//4 414//4 415//4
f 465//4 505//4 502//4
f 365//5 364//5 366//5
f 565//1 531//1 552//1
f 901//1 872//1 898//1
f 56//4 54//4 55//4
f 185//4 620//4 612//4
f 200//6 204//6 229//6
f 739//4 936//4 932//4
f 756//1 800//1 799//1
f 689//3 688//3 681//3
f 311//2 93//2 317//2
f 157//4 155//4 176//4
f 281//5 282//5 305//5
f 164//3 387//3 398//3
f 344//1 339//1 340//1
f 116//6 114//6 118//6
f 586//2 489//2 492//2
f 173//6 613//6 611//6
f 796//6 794//6 774//6
f 804//1 823//1 828//1
f 135//5 133//5 134//5
f 22//6 36//6 54//6
f 19//1 62//1 52//1
f 929//5 937//5 737//5
f 531//1 530//1 552//1
f 120//6 137//6 136//6
f 21//2 25//2 37//2
f 633//2 634//2 635//2
f 458//4 554//4 553//4
f 628//5 817//5 818//5
f 702//5 703//5 704//5
f 370//5 368//5 369//5
f 347//3 345//3 344//3
f 232//1 234//1 206//1
f 511//5 512//5 822//5
f 81//6 100//6 101//6
f 200//5 4//5 5//5
f 774//2 775//2 778//2
f 405//1 803//1 804//1
f 695//2 891//2 890//2
f 61//6 18//6 20//6
f 466//4 465//4 502//4
f 357//3 356//3 350//3
f 884//1 895//1 892//1
f 884//4 878//4 678//4
f 618//5 617//5 622//5
f 919//5 917//5 918//5
f 704//2 897//2 703//2
f 544//1 546//1 541//1
f 275//3 268//3 264//3
f 225//1 232//1 206//1
f 638//5 639//5 640//5
f 705//1 703//1 711//1
f 828//4 833//4 834//4
f 773//3 778//3 775//3
f 804//5 803//5 805//5
f 592//4 494//4 495//4
f 622//6 624//6 620//6
f 972//1 971//1 970//1
f 947//3 962//3 756//3
f 850//3 851//3 853//3
f 463//2 465//2 466//2
f 843//1 842//1 841//1
f 423//5 518//5 426//5
f 773//6 775//6 774//6
f 615//5 614//5 420//5
f 925//3 919//3 920//3
f 687//4 685//4 789//4
f 594//1 600//1 566//1
f 920//3 916//3 928//3
f 297//6 230//6 238//6
f 990//4 991//4 883//4
f 337//4 332//4 334//4
f 638//3 171//3 189//3
f 638//6 635//6 184//6
f 735//6 791//6 789//6
f 433//4 445//4 446//4
f 285//1 289//1 310//1
f 818//5 819//5 820//5
f 931//3 940//3 942//3
f 395//4 415//4 389//4
f 691//1 689//1 707//1
f 732//6 709//6 733//6
f 900//3 707//3 689//3
f 599//1 602//1 601//1
f 198//5 199//5 200//5
f 667//6 671//6 677//6
f 285//4 231//4 230//4
f 514//4 512//4 511//4
f 326//1 328//1 327//1
f 339//5 130//5 125//5
f 729//6 697//6 699//6
f 992//1 1002//1 1000//1
f 318//2 312//2 311//2
f 444//6 431//6 433//6
f 625//3 811//3 817//3
f 277//5 278//5 279//5
f 899//6 934//6 931//6
f 480//6 474//6 472//6
f 849//1 520//1 523//1
f 653//5 652//5 661//5
f 606//4 607//4 534//4
f 75//2 78//2 76//2
f 60//4 66//4 25//4
f 233//2 37//2 236//2
f 60//4 25//4 17//4
f 394//5 393//5 395//5
f 1000//1 945//1 944//1
f 218//1 220//1 210//1
f 56//1 72//1 70//1
f 701//6 702//6 709//6
f 469//4 568//4 567//4
f 631//6 667//6 658//6
f 454//3 450//3 543//3
f 174//6 145//6 146//6
f 273//5 64//5 65//5
f 827//2 823//2 639//2
f 499//6 497//6 498//6
f 934//1 933//1 999//1
f 579//4 578//4 584//4
f 673//3 674//3 683//3
f 974//6 976//6 975//6
f 109//4 110//4 107//4
f 430//6 451//6 452//6
f 507//6 505//6 465//6
f 802//2 799//2 796//2
f 195//3 179//3 180//3
f 833//5 835//5 644//5
f 86//4 87//4 35//4
f 377//4 364//4 146//4
f 877//3 893//3 890//3
f 32//6 25//6 3//6
f 199//1 218//1 210//1
f 425//4 422//4 420//4
f 542//4 588//4 589//4
f 934//1 931//1 933//1
f 332//1 333//1 334//1
f 951//5 948//5 947//5
f 112//5 332//5 123//5
f 871//3 680//3 674//3
f 128//5 126//5 340//5
f 391//1 389//1 400//1
f 793//4 927//4 726//4
f 641//5 626//5 629//5
f 215//3 213//3 218//3
f 598//4 500//4 501//4
f 901//5 899//5 907//5
f 321//1 306//1 341//1
f 707//4 706//4 712//4
f 126//5 114//5 334//5
f 550//4 556//4 557//4
f 275//3 258//3 254//3
f 694//5 695//5 696//5
f 544//3 547//3 543//3
f 998//1 978//1 959//1
f 42//5 34//5 35//5
f 473//6 470//6 469//6
f 872//1 891//1 898//1
f 211//6 213//6 215//6
f 928//5 747//5 727//5
f 511//5 822//5 812//5
f 35//1 95//1 43//1
f 951//1 928//1 952//1
f 345//5 131//5 128//5
f 531//4 605//4 532//4
f 201//4 200//4 210//4
f 811//1 813//1 415//1
f 50//2 67//2 68//2
f 675//6 663//6 662//6
f 867//5 865//5 866//5
f 651//3 661//3 652//3
f 156//5 155//5 157//5
f 619//3 629//3 626//3
f 991//1 993//1 910//1
f 673//5 672//5 674//5
f 682//3 880//3 886//3
f 215//1 246//1 248//1
f 339//5 344//5 130//5
f 312//6 316//6 310//6
f 366//1 388//1 373//1
f 863//3 866//3 865//3
f 988//2 980//2 983//2
f 615//6 631//6 656//6
f 106//4 261//4 59//4
f 624//2 630//2 633//2
f 824//1 806//1 805//1
f 121//6 109//6 83//6
f 969//3 973//3 988//3
f 998//1 1007//1 978//1
f 50//2 68//2 51//2
f 490//6 485//6 486//6
f 706//4 741//4 712//4
f 577//1 569//1 570//1
f 334//4 365//4 367//4
f 473//2 571//2 568//2
f 795//6 743//6 740//6
f 1004//3 800//3 762//3
f 14//4 4//4 3//4
f 388//1 390//1 373//1
f 86//2 94//2 95//2
f 223//4 222//4 280//4
f 337//1 352//1 348//1
f 725//1 721//1 722//1
f 709//4 711//4 695//4
f 974//2 989//2 977//2
f 103//5 325//5 327//5
f 103//5 101//5 325//5
f 723//3 725//3 727//3
f 959//1 958//1 957//1
f 913//2 915//2 916//2
f 715//1 691//1 707//1
f 508//6 687//6 790//6
f 540//3 541//3 546//3
f 685//6 698//6 789//6
f 344//1 345//1 346//1
f 433//1 446//1 456//1
f 159//6 161//6 167//6
f 760//6 771//6 762//6
f 922//4 921//4 923//4
f 693//6 694//6 701//6
f 896//1 930//1 939//1
f 603//4 600//4 502//4
f 211//4 197//4 1//4
f 111//5 331//5 332//5
f 141//6 143//6 149//6
f 310//4 314//4 321//4
f 816//5 826//5 825//5
f 118//4 114//4 117//4
f 473//4 572//4 571//4
f 773//2 788//2 776//2
f 431//4 451//4 434//4
f 830//3 871//3 674//3
f 413//4 412//4 611//4
f 972//3 965//3 971//3
f 438//5 533//5 442//5
f 820//5 832//5 831//5
f 938//1 945//1 946//1
f 183//5 182//5 184//5
f 735//2 743//2 742//2
f 665//6 666//6 686//6
f 723//1 717//1 720//1
f 959//5 961//5 960//5
f 681//2 683//2 684//2
f 120//3 123//3 126//3
f 824//6 821//6 816//6
f 867//3 870//3 869//3
f 828//4 827//4 833//4
f 938//2 939//2 937//2
f 203//4 30//4 228//4
f 6//4 29//4 9//4
f 58//6 19//6 62//6
f 450//1 468//1 464//1
f 320//1 319//1 344//1
f 45//2 47//2 237//2
f 779//6 781//6 780//6
f 39//5 36//5 26//5
f 460//1 456//1 464//1
f 574//1 573//1 576//1
f 650//6 678//6 648//6
f 730//4 698//4 697//4
f 452//6 488//6 487//6
f 85//5 64//5 273//5
f 114//5 333//5 334//5
f 341//3 306//3 307//3
f 455//6 457//6 459//6
f 569//4 472//4 570//4
f 929//4 896//4 895//4
f 854//1 876//1 845//1
f 826//3 861//3 860//3
f 896//1 939//1 904//1
f 355//1 353//1 369//1
f 597//2 499//2 502//2
f 939//2 930//2 937//2
f 945//3 1000//3 994//3
f 934//4 918//4 922//4
f 756//1 799//1 777//1
f 461//6 440//6 465//6
f 823//6 828//6 834//6
f 604//2 603//2 505//2
f 629//5 627//5 628//5
f 858//1 877//1 876//1
f 407//1 382//1 402//1
f 7//5 3//5 6//5
f 167//4 168//4 148//4
f 824//3 823//3 804//3
f 14//5 210//5 227//5
f 639//1 644//1 645//1
f 193//6 194//6 618//6
f 297//4 298//4 289//4
f 594//2 593//2 495//2
f 543//2 545//2 546//2
f 179//5 175//5 178//5
f 978//1 979//1 977//1
f 441//4 508//4 509//4
f 406//1 410//1 385//1
f 800//1 801//1 799//1
f 215//4 214//4 245//4
f 538//2 537//2 451//2
f 814//1 815//1 416//1
f 963//3 962//3 1004//3
f 411//1 407//1 804//1
f 995//3 1002//3 996//3
f 925//3 920//3 928//3
f 620//1 627//1 629//1
f 579//4 584//4 585//4
f 156//5 157//5 158//5
f 277//5 274//5 272//5
f 800//2 1004//2 998//2
f 186//4 176//4 155//4
f 55//2 72//2 57//2
f 931//2 943//2 940//2
f 680//2 880//2 679//2
f 403//1 401//1 408//1
f 436//2 529//2 433//2
f 511//5 812//5 811//5
f 161//6 181//6 167//6
f 559//4 560//4 561//4
f 225//3 282//3 281//3
f 600//1 604//1 531//1
f 211//4 1//4 16//4
f 780//3 788//3 783//3
f 723//1 719//1 717//1
f 898//3 906//3 907//3
f 16//1 65//1 23//1
f 607//1 535//1 534//1
f 213//2 23//2 222//2
f 129//3 95//3 130//3
f 308//1 235//1 226//1
f 705//3 738//3 734//3
f 779//3 786//3 781//3
f 690//3 715//3 714//3
f 522//2 521//2 429//2
f 381//5 379//5 380//5
f 153//5 152//5 154//5
f 881//3 871//3 872//3
f 620//1 629//1 624//1
f 95//3 42//3 43//3
f 114//6 111//6 112//6
f 486//5 487//5 488//5
f 580//1 581//1 582//1
f 730//3 895//3 929//3
f 566//1 547//1 590//1
f 700//2 902//2 895//2
f 540//5 539//5 541//5
f 764//3 768//3 769//3
f 718//3 719//3 723//3
f 175//6 179//6 193//6
f 635//2 638//2 639//2
f 475//5 573//5 574//5
f 882//5 883//5 885//5
f 575//4 477//4 479//4
f 850//1 841//1 517//1
f 935//5 936//5 743//5
f 808//5 809//5 810//5
f 738//5 934//5 741//5
f 153//5 151//5 152//5
f 473//2 568//2 470//2
f 236//1 208//1 207//1
f 238//6 236//6 237//6
f 506//4 507//4 440//4
f 850//5 847//5 851//5
f 375//4 353//4 352//4
f 310//3 238//3 239//3
f 288//6 284//6 285//6
f 116//6 113//6 114//6
f 234//4 233//4 287//4
f 82//6 60//6 17//6
f 35//3 7//3 8//3
f 55//2 69//2 72//2
f 543//6 542//6 537//6
f 35//3 38//3 40//3
f 210//1 200//1 199//1
f 582//4 483//4 583//4
f 411//3 828//3 809//3
f 292//3 79//3 49//3
f 319//2 320//2 323//2
f 143//6 159//6 149//6
f 513//4 510//4 421//4
f 543//2 546//2 544//2
f 93//2 329//2 317//2
f 319//2 323//2 321//2
f 384//3 385//3 386//3
f 780//3 785//3 788//3
f 84//5 87//5 86//5
f 866//1 864//1 861//1
f 932//3 946//3 936//3
f 261//1 330//1 331//1
f 559//4 558//4 560//4
f 148//6 168//6 156//6
f 459//6 461//6 465//6
f 990//4 883//4 882//4
f 727//3 673//3 690//3
f 861//1 826//1 839//1
f 931//2 934//2 943//2
f 616//5 620//5 615//5
f 999//1 872//1 901//1
f 381//3 382//3 383//3
f 807//3 397//3 410//3
f 669//3 670//3 672//3
f 86//2 95//2 87//2
f 833//6 827//6 829//6
f 390//5 389//5 391//5
f 112//4 110//4 114//4
f 187//5 185//5 186//5
f 995//5 994//5 1000//5
f 535//5 536//5 882//5
f 286//4 288//4 290//4
f 414//5 412//5 413//5
f 232//2 225//2 224//2
f 835//5 645//5 644//5
f 936//1 994//1 995//1
f 823//6 834//6 831//6
f 677//3 693//3 666//3
f 83//6 86//6 121//6
f 311//1 292//1 309//1
f 765//5 772//5 766//5
f 831//5 833//5 644//5
f 722//4 720//4 741//4
f 334//4 367//4 337//4
f 856//3 857//3 879//3
f 171//5 170//5 172//5
f 128//3 152//3 140//3
f 120//3 119//3 123//3
f 83//3 82//3 31//3
f 606//4 534//4 533//4
f 990//2 608//2 992//2
f 140//3 127//3 128//3
f 35//1 87//1 95//1
f 653//3 663//3 654//3
f 580//1 582//1 578//1
f 686//5 685//5 687//5
f 236//2 242//2 233//2
f 58//2 65//2 59//2
f 44//4 90//4 48//4
f 790//2 791//2 792//2
f 122//3 86//3 87//3
f 102//2 328//2 326//2
f 220//5 219//5 221//5
f 956//6 960//6 964//6
f 1002//1 1001//1 1000//1
f 932//2 933//2 942//2
f 642//5 641//5 629//5
f 917//6 919//6 925//6
f 904//3 939//3 938//3
f 448//6 450//6 454//6
f 285//3 287//3 291//3
f 937//6 929//6 895//6
f 727//3 926//3 928//3
f 709//5 710//5 711//5
f 582//1 583//1 584//1
f 151//3 170//3 169//3
f 620//6 185//6 622//6
f 461//5 460//5 462//5
f 932//3 941//3 946//3
f 890//6 891//6 897//6
f 533//5 687//5 442//5
f 149//5 147//5 148//5
f 216//5 215//5 217//5
f 728//3 673//3 727//3
f 238//6 237//6 240//6
f 507//2 506//2 509//2
f 612//5 611//5 613//5
f 598//4 501//4 599//4
f 901//4 900//4 914//4
f 829//4 645//4 835//4
f 107//4 64//4 63//4
f 207//5 13//5 12//5
f 275//4 276//4 219//4
f 82//6 17//6 31//6
f 807//1 399//1 397//1
f 596//1 595//1 597//1
f 62//6 64//6 107//6
f 25//2 32//2 37//2
f 109//2 121//2 120//2
f 606//2 507//2 509//2
f 555//4 466//4 563//4
f 303//5 306//5 321//5
f 102//2 104//2 328//2
f 1//6 23//6 16//6
f 608//2 607//2 606//2
f 910//3 909//3 884//3
f 341//1 335//1 337//1
f 157//6 117//6 158//6
f 551//5 550//5 552//5
f 96//2 99//2 97//2
f 450//1 464//1 456//1
f 809//3 807//3 410//3
f 858//1 856//1 878//1
f 269//5 267//5 268//5
f 447//2 450//2 448//2
f 767//1 757//1 756//1
f 360//1 345//1 340//1
f 251//5 250//5 252//5
f 440//6 507//6 465//6
f 678//6 429//6 426//6
f 127//3 124//3 125//3
f 192//3 164//3 398//3
f 643//1 637//1 634//1
f 412//4 393//4 174//4
f 117//5 116//5 118//5
f 601//3 602//3 504//3
f 596//1 597//1 600//1
f 509//2 508//2 790//2
f 848//5 520//5 849//5
f 204//5 200//5 201//5
f 745//5 749//5 750//5
f 113//2 333//2 330//2
f 41//1 27//1 68//1
f 72//1 85//1 75//1
f 566//4 565//4 564//4
f 636//6 674//6 670//6
f 704//6 696//6 673//6
f 144//6 138//6 162//6
f 120//3 139//3 137//3
f 756//3 747//3 947//3
f 990//2 609//2 608//2
f 812//1 836//1 837//1
f 964//6 968//6 981//6
f 985//1 973//1 972//1
f 540//5 538//5 539//5
f 935//2 936//2 946//2
f 959//1 977//1 970//1
f 285//5 286//5 287//5
f 427//6 422//6 428//6
f 757//1 755//1 754//1
f 674//3 636//3 830//3
f 854//1 845//1 843//1
f 161//5 160//5 162//5
f 494//2 591//2 493//2
f 850//5 846//5 847//5
f 813//3 814//3 819//3
f 220//5 218//5 219//5
f 529//3 539//3 538//3
f 484//6 482//6 478//6
f 375//5 373//5 374//5
f 313//4 319//4 314//4
f 451//3 542//3 452//3
f 169//3 138//3 151//3
f 27//1 51//1 68//1
f 302//5 88//5 85//5
f 93//6 81//6 101//6
f 594//1 596//1 600//1
f 644//4 639//4 638//4
f 20//5 18//5 19//5
f 88//5 97//5 96//5
f 680//3 683//3 674//3
f 680//3 684//3 683//3
f 22//5 24//5 26//5
f 718//5 716//5 717//5
f 954//6 956//6 1003//6
f 6//1 4//1 14//1
f 185//6 187//6 622//6
f 61//4 19//4 18//4
f 562//6 564//6 558//6
f 127//2 126//2 120//2
f 543//5 450//5 452//5
f 747//1 756//1 749//1
f 578//1 574//1 576//1
f 225//3 281//3 224//3
f 29//5 28//5 14//5
f 87//3 35//3 77//3
f 486//6 448//6 454//6
f 405//1 407//1 402//1
f 238//2 241//2 239//2
f 450//5 448//5 452//5
f 790//2 792//2 992//2
f 258//1 264//1 266//1
f 742//3 791//3 735//3
f 944//5 945//5 935//5
f 837//5 836//5 841//5
f 416//1 417//1 400//1
f 452//5 542//5 543//5
f 998//1 1008//1 1007//1
f 858//1 878//1 877//1
f 107//5 112//5 123//5
f 917//6 925//6 922//6
f 664//5 663//5 675//5
f 974//2 984//2 989//2
f 934//4 922//4 923//4
f 305//6 225//6 232//6
f 480//4 481//4 581//4
f 131//2 132//2 346//2
f 442//5 439//5 440//5
f 538//6 540//6 543//6
f 364//1 334//1 333//1
f 531//5 532//5 533//5
f 924//5 922//5 925//5
f 993//3 992//3 911//3
f 20//4 21//4 14//4
f 63//3 20//3 52//3
f 731//3 699//3 708//3
f 677//3 695//3 693//3
f 200//6 229//6 210//6
f 981//6 984//6 974//6
f 40//3 41//3 78//3
f 936//6 935//6 932//6
f 824//2 816//2 815//2
f 753//6 758//6 763//6
f 931//3 942//3 933//3
f 278//4 277//4 335//4
f 438//6 462//6 458//6
f 992//2 993//2 990//2
f 74//1 78//1 41//1
f 882//5 885//5 884//5
f 245//2 248//2 246//2
f 436//6 433//6 431//6
f 654//6 665//6 678//6
f 376//1 374//1 380//1
f 398//5 396//5 397//5
f 740//6 738//6 741//6
f 884//5 686//5 687//5
f 449//6 445//6 455//6
f 403//3 404//3 402//3
f 59//5 261//5 271//5
f 849//1 857//1 853//1
f 915//6 913//6 900//6
f 696//4 897//4 891//4
f 234//3 205//3 206//3
f 340//2 345//2 347//2
f 634//6 633//6 196//6
f 61//6 20//6 63//6
f 464//5 563//5 466//5
f 138//5 139//5 140//5
f 519//1 848//1 846//1
f 280//1 278//1 338//1
f 850//1 843//1 841//1
f 729//6 699//6 731//6
f 156//4 158//4 117//4
f 127//6 126//6 123//6
f 718//3 723//3 727//3
f 482//6 480//6 478//6
f 578//4 579//4 574//4
f 207//5 12//5 203//5
f 461//5 459//5 460//5
f 291//6 287//6 242//6
f 669//5 667//5 668//5
f 311//4 293//4 292//4
f 34//2 35//2 33//2
f 758//3 767//3 763//3
f 375//5 374//5 376//5
f 938//1 946//1 941//1
f 919//5 918//5 920//5
f 891//1 897//1 898//1
f 301//6 298//6 303//6
f 644//5 642//5 831//5
f 176//4 177//4 157//4
f 438//6 458//6 436//6
f 480//6 479//6 478//6
f 61//4 62//4 19//4
f 223//5 226//5 225//5
f 716//4 712//4 741//4
f 575//5 576//5 478//5
f 242//4 239//4 310//4
f 839//1 840//1 862//1
f 402//5 400//5 401//5
f 915//3 888//3 889//3
f 932//2 942//2 941//2
f 484//2 584//2 583//2
f 525//5 526//5 527//5
f 952//1 928//1 957//1
f 358//1 370//1 342//1
f 139//6 126//6 127//6
f 612//5 610//5 611//5
f 126//5 120//5 110//5
f 205//1 242//1 209//1
f 720//4 716//4 741//4
f 897//6 898//6 899//6
f 321//6 300//6 291//6
f 393//1 414//1 395//1
f 163//3 153//3 384//3
f 687//5 441//5 442//5
f 362//3 363//3 154//3
f 527//5 528//5 531//5
f 892//1 893//1 884//1
f 679//1 684//1 680//1
f 616//5 621//5 620//5
f 705//1 704//1 703//1
f 527//1 526//1 537//1
f 898//5 905//5 906//5
f 489//4 584//4 484//4
f 489//4 484//4 476//4
f 390//5 388//5 389//5
f 406//1 385//1 383//1
f 189//3 639//3 638//3
f 533//5 535//5 884//5
f 430//5 524//5 525//5
f 624//2 619//2 630//2
f 4//5 2//5 5//5
f 734//3 702//3 705//3
f 52//6 22//6 54//6
f 515//4 423//4 429//4
f 111//4 65//4 62//4
f 163//6 164//6 192//6
f 490//4 492//4 487//4
f 440//5 437//5 438//5
f 970//1 961//1 959//1
f 343//1 305//1 282//1
f 62//4 108//4 111//4
f 993//3 911//3 912//3
f 113//2 330//2 106//2
f 785//1 786//1 784//1
f 796//3 799//3 801//3
f 372//1 394//1 377//1
f 110//6 120//6 136//6
f 305//2 308//2 282//2
f 577//5 479//5 471//5
f 955//5 954//5 957//5
f 49//5 48//5 238//5
f 872//1 870//1 874//1
f 216//5 214//5 215//5
f 245//2 247//2 248//2
f 238//5 231//5 239//5
f 599//1 601//1 598//1
f 651//5 650//5 659//5
f 585//1 586//1 579//1
f 481//2 482//2 582//2
f 1004//6 947//6 949//6
f 149//4 134//4 133//4
f 298//3 300//3 306//3
f 975//6 1006//6 1003//6
f 619//1 626//1 641//1
f 268//1 272//1 274//1
f 870//1 866//1 874//1
f 63//4 109//4 107//4
f 916//3 889//3 928//3
f 923//6 921//6 924//6
f 996//2 1002//2 992//2
f 780//6 783//6 773//6
f 474//6 473//6 472//6
f 792//2 795//2 996//2
f 354//5 353//5 355//5
f 184//3 635//3 634//3
f 850//3 853//3 852//3
f 931//6 932//6 897//6
f 358//5 356//5 357//5
f 886//5 887//5 889//5
f 530//4 436//4 548//4
f 50//1 26//1 24//1
f 131//3 130//3 344//3
f 856//2 858//2 859//2
f 658//6 657//6 656//6
f 385//3 410//3 397//3
f 621//2 620//2 624//2
f 714//1 716//1 718//1
f 1009//2 1007//2 1003//2
f 475//5 574//5 476//5
f 447//2 449//2 450//2
f 305//6 282//6 225//6
f 37//1 39//1 40//1
f 528//1 539//1 529//1
f 727//3 725//3 926//3
f 777//1 778//1 776//1
f 754//1 750//1 749//1
f 695//2 890//2 692//2
f 429//6 423//6 426//6
f 430//4 489//4 476//4
f 275//6 220//6 277//6
f 464//5 562//5 563//5
f 142//6 136//6 137//6
f 2//4 19//4 23//4
f 620//3 628//3 627//3
f 497//4 499//4 597//4
f 347//1 321//1 341//1
f 174//6 146//6 177//6
f 884//1 909//1 895//1
f 528//1 529//1 530//1
f 46//3 47//3 49//3
f 748//1 747//1 749//1
f 899//6 931//6 897//6
f 147//6 149//6 159//6
f 740//5 932//5 933//5
f 592//4 495//4 593//4
f 640//3 191//3 808//3
f 815//2 814//2 813//2
f 453//2 467//2 468//2
f 952//3 948//3 951//3
f 58//4 16//4 15//4
f 27//5 41//5 39//5
f 503//6 504//6 501//6
f 320//3 132//3 99//3
f 187//6 165//6 178//6
f 910//3 884//3 885//3
f 974//3 977//3 979//3
f 320//3 346//3 132//3
f 425//6 420//6 646//6
f 673//6 706//6 704//6
f 128//6 131//6 154//6
f 122//3 121//3 86//3
f 725//5 722//5 923//5
f 576//1 575//1 577//1
f 807//1 808//1 399//1
f 426//6 424//6 425//6
f 354//5 352//5 353//5
f 937//3 742//3 737//3
f 503//6 501//6 500//6
f 398//5 397//5 399//5
f 975//2 979//2 978//2
f 369//1 359//1 355//1
f 421//5 510//5 811//5
f 738//3 740//3 734//3
f 234//1 307//1 322//1
f 22//4 53//4 24//4
f 482//6 481//6 480//6
f 827//2 828//2 823//2
f 58//6 15//6 19//6
f 776//1 788//1 785//1
f 794//3 928//3 998//3
f 698//6 730//6 789//6
f 421//5 811//5 616//5
f 234//4 287//4 291//4
f 129//2 131//2 127//2
f 250//4 249//4 253//4
f 175//4 623//4 178//4
f 968//6 980//6 981//6
f 732//4 710//4 708//4
f 127//6 123//6 124//6
f 236//4 238//4 239//4
f 956//6 964//6 974//6
f 937//6 895//6 902//6
f 52//1 22//1 19//1
f 647//3 657//3 648//3
f 521//1 522//1 519//1
f 243//3 321//3 242//3
f 227//5 228//5 30//5
f 837//3 842//3 843//3
f 121//2 122//2 120//2
f 911//5 910//5 912//5
f 464//1 466//1 462//1
f 677//6 676//6 675//6
f 774//2 778//2 777//2
f 372//4 145//4 392//4
f 20//3 21//3 22//3
f 6//1 14//1 28//1
f 333//2 334//2 337//2
f 757//1 754//1 756//1
f 977//1 989//1 986//1
f 364//4 333//4 116//4
f 901//2 899//2 900//2
f 401//1 419//1 408//1
f 1008//2 998//2 1004//2
f 69//4 85//4 72//4
f 259//5 258//5 260//5
f 340//2 347//2 342//2
f 1003//6 1005//6 1004//6
f 337//5 342//5 334//5
f 874//1 891//1 872//1
f 940//1 943//1 907//1
f 75//1 70//1 72//1
f 592//1 593//1 594//1
f 985//1 988//1 973//1
f 752//5 754//5 755//5
f 16//5 19//5 15//5
f 619//1 641//1 630//1
f 815//3 821//3 820//3
f 981//3 989//3 984//3
f 828//3 827//3 809//3
f 301//4 304//4 299//4
f 449//6 447//6 443//6
f 203//5 204//5 205//5
f 446//1 444//1 448//1
f 514//5 516//5 517//5
f 548//4 552//4 530//4
f 350//5 349//5 351//5
f 21//2 20//2 25//2
f 993//1 912//1 910//1
f 275//4 219//4 218//4
f 794//2 800//2 998//2
f 350//5 348//5 349//5
f 862//1 861//1 839//1
f 246//3 215//3 218//3
f 628//5 625//5 817//5
f 662//6 661//6 660//6
f 777//3 802//3 798//3
f 886//5 889//5 888//5
f 242//3 207//3 209//3
f 122//6 95//6 129//6
f 992//1 929//1 911//1
f 756//1 776//1 767//1
f 90//1 97//1 99//1
f 48//4 45//4 44//4
f 797//2 801//2 800//2
f 714//1 712//1 716//1
f 722//4 721//4 720//4
f 847//4 846//4 848//4
f 639//2 823//2 635//2
f 468//4 566//4 564//4
f 829//4 640//4 645//4
f 400//4 419//4 401//4
f 448//4 488//4 452//4
f 402//1 382//1 391//1
f 194//5 193//5 195//5
f 966//5 770//5 761//5
f 469//5 567//5 570//5
f 784//1 772//1 769//1
f 251//5 249//5 250//5
f 117//5 115//5 116//5
f 167//5 166//5 168//5
f 245//6 214//6 216//6
f 96//2 98//2 99//2
f 220//4 221//4 210//4
f 633//4 641//4 642//4
f 127//3 125//3 128//3
f 562//4 464//4 564//4
f 997//2 793//2 794//2
f 732//6 708//6 709//6
f 903//6 938//6 937//6
f 37//2 38//2 45//2
f 606//1 533//1 532//1
f 370//5 369//5 371//5
f 416//4 816//4 418//4
f 149//4 150//4 134//4
f 551//6 548//6 553//6
f 189//6 640//6 639//6
f 767//1 785//1 769//1
f 556//2 559//2 557//2
f 849//1 523//1 857//1
f 776//1 785//1 767//1
f 135//5 134//5 136//5
f 916//3 915//3 889//3
f 319//4 321//4 314//4
f 242//6 321//6 291//6
f 227//6 203//6 228//6
f 80//6 92//6 89//6
f 733//6 736//6 735//6
f 309//4 238//4 48//4
f 435//3 436//3 456//3
f 522//2 878//2 523//2
f 311//4 312//4 293//4
f 100//3 325//3 101//3
f 907//1 903//1 940//1
f 694//3 703//3 701//3
f 754//1 749//1 756//1
f 344//1 340//1 345//1
f 166//6 188//6 186//6
f 651//3 660//3 661//3
f 756//1 777//1 776//1
f 987//2 981//2 982//2
f 363//3 384//3 154//3
f 120//3 126//3 139//3
f 600//1 603//1 604//1
f 371//3 380//3 379//3
f 410//3 411//3 809//3
f 630//6 619//6 618//6
f 431//4 444//4 451//4
f 285//5 284//5 286//5
f 825//1 860//1 863//1
f 739//1 740//1 738//1
f 45//6 13//6 47//6
f 608//4 609//4 536//4
f 197//1 211//1 213//1
f 120//2 110//2 109//2
f 649//5 648//5 657//5
f 588//2 586//2 491//2
f 990//1 882//1 536//1
f 12//5 11//5 10//5
f 386//1 398//1 387//1
f 970//5 965//5 964//5
f 278//5 280//5 279//5
f 802//2 796//2 798//2
f 164//5 386//5 387//5
f 848//5 519//5 520//5
f 566//5 468//5 454//5
f 352//1 354//1 348//1
f 220//2 218//2 213//2
f 23//3 62//3 19//3
f 551//5 549//5 550//5
f 668//3 667//3 631//3
f 375//1 352//1 367//1
f 643//4 644//4 638//4
f 114//4 110//4 117//4
f 95//3 96//3 130//3
f 93//3 92//3 80//3
f 577//1 570//1 580//1
f 89//2 92//2 93//2
f 606//2 604//2 507//2
f 90//2 315//2 313//2
f 211//6 250//6 254//6
f 286//4 284//4 288//4
f 502//6 499//6 498//6
f 472//6 471//6 479//6
f 198//4 218//4 199//4
f 712//2 715//2 713//2
f 743//6 739//6 740//6
f 315//5 314//5 316//5
f 556//2 558//2 559//2
f 730//6 732//6 735//6
f 765//6 766//6 782//6
f 268//4 267//4 271//4
f 206//5 205//5 204//5
f 631//5 615//5 619//5
f 87//5 88//5 96//5
f 361//3 342//3 381//3
f 964//6 965//6 968//6
f 371//3 379//3 370//3
f 132//6 131//6 130//6
f 233//2 234//2 232//2
f 479//6 477//6 478//6
f 222//4 279//4 280//4
f 93//2 105//2 329//2
f 729//2 732//2 730//2
f 895//1 902//1 892//1
f 308//3 232//3 235//3
f 289//4 285//4 230//4
f 445//5 444//5 446//5
f 5//5 197//5 198//5
f 600//1 531//1 566//1
f 191//5 190//5 192//5
f 362//5 360//5 361//5
f 769//1 768//1 767//1
f 317//2 318//2 311//2
f 288//2 289//2 291//2
f 340//3 339//3 341//3
f 451//2 444//2 446//2
f 484//6 483//6 482//6
f 36//6 69//6 54//6
f 131//6 125//6 130//6
f 254//3 250//3 218//3
f 100//3 324//3 325//3
f 337//1 348//1 350//1
f 773//2 783//2 788//2
f 738//1 737//1 739//1
f 892//3 902//3 700//3
f 977//1 986//1 970//1
f 785//1 784//1 769//1
f 954//6 955//6 956//6
f 928//5 947//5 747//5
f 152//3 151//3 140//3
f 227//4 204//4 202//4
f 815//3 816//3 821//3
f 855//3 859//3 858//3
f 962//3 761//3 756//3
f 814//4 389//4 415//4
f 809//1 827//1 829//1
f 956//6 974//6 975//6
f 27//4 50//4 51//4
f 291//4 300//4 307//4
f 531//4 604//4 605//4
f 699//5 698//5 700//5
f 758//3 759//3 767//3
f 306//2 322//2 307//2
f 763//5 768//5 764//5
f 286//1 290//1 291//1
f 237//5 236//5 242//5
f 381//1 342//1 370//1
f 837//5 841//5 842//5
f 262//1 218//1 212//1
f 378//3 361//3 381//3
f 891//5 890//5 893//5
f 538//3 446//3 433//3
f 91//3 98//3 89//3
f 418//1 816//1 805//1
f 620//5 624//5 619//5
f 221//3 277//3 220//3
f 153//3 154//3 384//3
f 88//1 77//1 75//1
f 959//3 955//3 958//3
f 988//2 985//2 980//2
f 436//1 433//1 456//1
f 294//5 81//5 292//5
f 201//1 223//1 225//1
f 944//1 937//1 929//1
f 469//4 470//4 568//4
f 240//3 292//3 49//3
f 144//6 142//6 137//6
f 866//1 861//1 874//1
f 554//6 555//6 562//6
f 480//6 472//6 479//6
f 704//2 898//2 897//2
f 52//2 56//2 53//2
f 632//6 636//6 670//6
f 931//6 933//6 932//6
f 115//4 157//4 146//4
f 548//4 551//4 552//4
f 647//3 656//3 657//3
f 880//3 887//3 886//3
f 586//2 585//2 489//2
f 463//2 466//2 464//2
f 11//3 12//3 44//3
f 90//2 91//2 315//2
f 405//5 408//5 409//5
f 560//2 565//2 561//2
f 341//1 337//1 342//1
f 531//1 528//1 530//1
f 863//5 861//5 864//5
f 571//1 572//1 580//1
f 195//6 180//6 181//6
f 242//5 234//5 243//5
f 963//1 967//1 966//1
f 476//4 574//4 524//4
f 250//1 256//1 252//1
f 760//6 770//6 771//6
f 586//4 526//4 525//4
f 126//5 110//5 114//5
f 805//1 409//1 419//1
f 298//5 296//5 299//5
f 525//5 527//5 434//5
f 928//1 998//1 957//1
f 870//1 868//1 866//1
f 1007//1 1009//1 978//1
f 308//2 283//2 282//2
f 666//5 676//5 677//5
f 436//2 530//2 529//2
f 433//3 529//3 538//3
f 800//3 756//3 762//3
f 17//5 25//5 32//5
f 432//6 435//6 455//6
f 980//3 985//3 987//3
f 720//4 717//4 716//4
f 874//5 873//5 876//5
f 170//6 153//6 172//6
f 367//1 366//1 373//1
f 136//6 134//6 110//6
f 738//5 931//5 934//5
f 102//3 329//3 105//3
f 620//5 619//5 615//5
f 1007//3 1005//3 1003//3
f 463//6 467//6 449//6
f 221//3 278//3 277//3
f 573//4 475//4 478//4
f 171//6 638//6 184//6
f 813//2 811//2 616//2
f 481//2 582//2 581//2
f 828//1 411//1 804//1
f 304//5 301//5 281//5
f 357//1 351//1 349//1
f 959//3 956//3 955//3
f 6//4 28//4 29//4
f 795//3 728//3 794//3
f 330//1 333//1 331//1
f 83//1 32//1 25//1
f 639//2 640//2 827//2
f 613//4 176//4 186//4
f 496//6 495//6 494//6
f 167//4 148//4 147//4
f 336//4 275//4 331//4
f 890//2 893//2 892//2
f 242//3 236//3 207//3
f 652//6 653//6 654//6
f 1007//3 1008//3 1005//3
f 357//3 350//3 351//3
f 454//6 468//6 486//6
f 384//5 378//5 383//5
f 886//6 888//6 900//6
f 258//4 257//4 263//4
f 315//5 313//5 314//5
f 245//6 216//6 247//6
f 182//3 161//3 162//3
f 2//4 23//4 5//4
f 839//1 826//1 837//1
f 449//4 453//4 454//4
f 695//2 696//2 891//2
f 26//5 27//5 39//5
f 464//3 468//3 467//3
f 738//4 933//4 931//4
f 687//4 789//4 790//4
f 234//3 233//3 205//3
f 422//5 421//5 616//5
f 335//1 277//1 275//1
f 763//6 765//6 780//6
f 75//2 77//2 78//2
f 765//6 779//6 780//6
f 615//5 422//5 616//5
f 704//4 899//4 898//4
f 934//4 914//4 918//4
f 696//6 695//6 677//6
f 898//3 907//3 899//3
f 253//2 256//2 254//2
f 733//6 735//6 732//6
f 734//6 733//6 709//6
f 503//5 598//5 601//5
f 903//4 893//4 890//4
f 220//2 213//2 222//2
f 890//2 892//2 692//2
f 857//1 855//1 853//1
f 250//4 253//4 254//4
f 297//2 309//2 310//2
f 811//4 413//4 611//4
f 58//4 59//4 16//4
f 333//4 336//4 331//4
f 261//2 272//2 275//2
f 361//3 360//3 340//3
f 763//6 780//6 773//6
f 766//3 787//3 782//3
f 640//2 829//2 827//2
f 816//5 815//5 814//5
f 323//3 320//3 316//3
f 157//6 115//6 117//6
f 535//5 882//5 884//5
f 365//5 366//5 367//5
f 615//3 655//3 646//3
f 815//2 813//2 621//2
f 737//5 732//5 730//5
f 108//4 113//4 111//4
f 238//2 240//2 241//2
f 493//4 590//4 491//4
f 678//2 878//2 522//2
f 449//6 443//6 445//6
f 45//2 237//2 236//2
f 362//5 361//5 363//5
f 552//1 550//1 559//1
f 765//6 782//6 779//6
f 191//5 189//5 190//5
f 131//2 128//2 127//2
f 647//5 655//5 656//5
f 555//2 460//2 462//2
f 681//1 688//1 690//1
f 550//1 557//1 559//1
f 46//5 44//5 45//5
f 463//6 449//6 455//6
f 774//6 798//6 796//6
f 161//5 159//5 160//5
f 402//1 404//1 405//1
f 489//4 585//4 584//4
f 956//6 975//6 1003//6
f 622//4 619//4 624//4
f 586//4 587//4 526//4
f 205//1 233//1 242//1
f 300//4 306//4 307//4
f 319//5 302//5 303//5
f 337//1 367//1 352//1
f 201//1 221//1 223//1
f 172//3 153//3 163//3
f 494//6 491//6 486//6
f 522//4 523//4 520//4
f 681//1 690//1 683//1
f 650//6 651//6 652//6
f 819//6 815//6 820//6
f 690//3 691//3 715//3
f 503//5 500//5 598//5
f 338//4 278//4 335//4
f 741//4 934//4 923//4
f 723//5 720//5 721//5
f 494//2 592//2 591//2
f 794//3 727//3 928//3
f 876//1 875//1 845//1
f 102//6 93//6 101//6
f 325//1 324//1 294//1
f 492//6 489//6 487//6
f 525//1 524//1 579//1
f 398//3 399//3 192//3
f 885//1 883//1 910//1
f 590//2 589//2 588//2
f 163//3 190//3 172//3
f 189//6 191//6 640//6
f 790//2 789//2 791//2
f 292//1 240//1 238//1
f 215//1 248//1 217//1
f 258//1 266//1 260//1
f 494//6 493//6 491//6
f 273//5 274//5 279//5
f 562//6 558//6 551//6
f 492//2 491//2 586//2
f 555//4 462//4 466//4
f 998//3 999//3 795//3
f 69//4 84//4 85//4
f 854//5 853//5 855//5
f 143//5 141//5 142//5
f 312//3 293//3 244//3
f 837//1 838//1 839//1
f 968//6 969//6 983//6
f 606//2 790//2 992//2
f 665//6 686//6 678//6
f 410//5 406//5 407//5
f 88//5 302//5 97//5
f 660//6 659//6 658//6
f 898//1 899//1 901//1
f 112//4 107//4 110//4
