# Blender 5.2.1 LTS
# www.blender.org
mtllib pixel tg bolt.mtl
o RenderMesh_117424252321566.001
v -0.014628 -0.017714 -0.019238
v -0.014628 -0.010018 -0.019238
v -0.022323 -0.017714 -0.003848
v -0.022323 -0.010018 -0.003848
v -0.014628 -0.017714 -0.003848
v -0.014628 -0.010018 -0.011543
v -0.014628 -0.010018 -0.003848
v -0.014628 -0.002323 -0.011543
v -0.014628 0.013067 -0.003848
v -0.014628 0.020762 -0.011543
v -0.014628 0.020762 -0.003848
v -0.014628 0.028457 -0.019238
v -0.014628 0.036152 -0.026933
v -0.014628 0.036152 -0.019238
v -0.022323 0.028457 -0.003848
v -0.022323 0.036152 -0.011543
v -0.022323 0.036152 -0.003848
v -0.014628 0.028457 -0.011543
v -0.014628 0.028457 -0.003848
v -0.014628 0.036152 -0.011543
v -0.014628 0.036152 -0.003848
v 0.016152 -0.017714 -0.034628
v 0.016152 -0.010018 -0.034628
v -0.006933 -0.017714 -0.026933
v -0.006933 -0.017714 -0.019238
v -0.006933 -0.010018 -0.026933
v -0.006933 -0.010018 -0.019238
v 0.000762 -0.010018 -0.026933
v 0.000762 -0.010018 -0.019238
v -0.006933 -0.010018 -0.011543
v -0.006933 -0.002323 -0.019238
v 0.000762 -0.002323 -0.026933
v 0.000762 -0.002323 -0.019238
v -0.006933 -0.002323 -0.011543
v 0.000762 -0.002323 -0.011543
v 0.016152 -0.017714 -0.026933
v 0.016152 -0.010018 -0.026933
v 0.016152 -0.002323 -0.026933
v 0.016152 -0.002323 -0.019238
v 0.008457 0.036152 -0.034628
v 0.016152 0.028457 -0.034628
v 0.016152 0.036152 -0.034628
v -0.006933 0.013067 -0.019238
v 0.000762 0.013067 -0.019238
v 0.000762 0.020762 -0.026933
v 0.000762 0.020762 -0.019238
v -0.006933 0.013067 -0.011543
v -0.006933 0.013067 -0.003848
v -0.006933 0.020762 -0.011543
v -0.006933 0.020762 -0.003848
v 0.000762 0.013067 -0.011543
v -0.006933 0.028457 -0.026933
v -0.006933 0.028457 -0.019238
v -0.006933 0.036152 -0.026933
v -0.006933 0.036152 -0.019238
v 0.000762 0.028457 -0.026933
v 0.000762 0.028457 -0.019238
v -0.006933 0.028457 -0.011543
v 0.008457 0.013067 -0.026933
v 0.008457 0.013067 -0.019238
v 0.008457 0.020762 -0.026933
v 0.008457 0.020762 -0.019238
v 0.016152 0.013067 -0.026933
v 0.016152 0.013067 -0.019238
v 0.008457 0.036152 -0.026933
v 0.016152 0.028457 -0.026933
v 0.016152 0.036152 -0.026933
v -0.022323 -0.017714 0.003848
v -0.022323 -0.010018 0.003848
v -0.014628 -0.017714 0.003848
v -0.014628 -0.010018 0.003848
v -0.014628 -0.010018 0.011543
v -0.014628 -0.017714 0.019238
v -0.014628 -0.010018 0.019238
v -0.014628 -0.002323 0.011543
v -0.014628 0.013067 0.003848
v -0.014628 0.020762 0.003848
v -0.014628 0.020762 0.011543
v -0.022323 0.028457 0.003848
v -0.022323 0.036152 0.003848
v -0.022323 0.036152 0.011543
v -0.014628 0.028457 0.003848
v -0.014628 0.028457 0.011543
v -0.014628 0.036152 0.003848
v -0.014628 0.036152 0.011543
v -0.014628 0.028457 0.019238
v -0.014628 0.036152 0.019238
v -0.014628 0.036152 0.026933
v -0.006933 -0.010018 0.011543
v -0.006933 -0.017714 0.019238
v -0.006933 -0.017714 0.026933
v -0.006933 -0.010018 0.019238
v -0.006933 -0.010018 0.026933
v 0.000762 -0.010018 0.019238
v 0.000762 -0.010018 0.026933
v -0.006933 -0.002323 0.011543
v 0.000762 -0.002323 0.011543
v -0.006933 -0.002323 0.019238
v 0.000762 -0.002323 0.019238
v 0.000762 -0.002323 0.026933
v 0.016152 -0.017714 0.026933
v 0.016152 -0.010018 0.026933
v 0.016152 -0.002323 0.019238
v 0.016152 -0.002323 0.026933
v 0.016152 -0.017714 0.034628
v 0.016152 -0.010018 0.034628
v -0.006933 0.013067 0.003848
v -0.006933 0.013067 0.011543
v -0.006933 0.020762 0.003848
v -0.006933 0.020762 0.011543
v 0.000762 0.013067 0.011543
v -0.006933 0.013067 0.019238
v 0.000762 0.013067 0.019238
v 0.000762 0.020762 0.019238
v 0.000762 0.020762 0.026933
v -0.006933 0.028457 0.011543
v -0.006933 0.028457 0.019238
v -0.006933 0.028457 0.026933
v -0.006933 0.036152 0.019238
v -0.006933 0.036152 0.026933
v 0.000762 0.028457 0.019238
v 0.000762 0.028457 0.026933
v 0.008457 0.013067 0.019238
v 0.008457 0.013067 0.026933
v 0.008457 0.020762 0.019238
v 0.008457 0.020762 0.026933
v 0.016152 0.013067 0.019238
v 0.016152 0.013067 0.026933
v 0.008457 0.036152 0.026933
v 0.016152 0.028457 0.026933
v 0.016152 0.036152 0.026933
v 0.008457 0.036152 0.034628
v 0.016152 0.028457 0.034628
v 0.016152 0.036152 0.034628
v -0.022323 0.043848 -0.011543
v -0.022323 0.043848 -0.003848
v -0.014628 0.043848 -0.011543
v -0.014628 0.066933 -0.026933
v -0.014628 0.066933 -0.019238
v -0.014628 0.074628 -0.019238
v -0.014628 0.074628 -0.011543
v 0.000762 0.043848 -0.034628
v 0.000762 0.059238 -0.034628
v 0.008457 0.043848 -0.034628
v 0.008457 0.059238 -0.034628
v 0.000762 0.043848 -0.026933
v -0.006933 0.066933 -0.026933
v -0.006933 0.066933 -0.019238
v 0.000762 0.059238 -0.026933
v 0.008457 0.043848 -0.026933
v 0.008457 0.059238 -0.026933
v 0.008457 0.074628 -0.034628
v -0.006933 0.074628 -0.026933
v -0.006933 0.074628 -0.019238
v 0.000762 0.074628 -0.026933
v 0.000762 0.074628 -0.019238
v 0.000762 0.082323 -0.026933
v 0.000762 0.082323 -0.019238
v -0.006933 0.074628 -0.011543
v -0.006933 0.090018 -0.019238
v -0.006933 0.090018 -0.011543
v 0.008457 0.074628 -0.026933
v 0.016152 0.082323 -0.026933
v 0.016152 0.082323 -0.019238
v 0.016152 0.090018 -0.026933
v 0.016152 0.090018 -0.019238
v 0.016152 0.097714 -0.019238
v 0.016152 0.090018 -0.011543
v 0.016152 0.097714 -0.011543
v -0.022323 0.043848 0.003848
v -0.022323 0.043848 0.011543
v -0.014628 0.043848 0.011543
v -0.014628 0.066933 0.019238
v -0.014628 0.066933 0.026933
v -0.014628 0.074628 0.011543
v -0.014628 0.074628 0.019238
v 0.000762 0.043848 0.026933
v -0.006933 0.066933 0.019238
v -0.006933 0.066933 0.026933
v 0.000762 0.059238 0.026933
v 0.008457 0.043848 0.026933
v 0.008457 0.059238 0.026933
v 0.000762 0.043848 0.034628
v 0.000762 0.059238 0.034628
v 0.008457 0.043848 0.034628
v 0.008457 0.059238 0.034628
v -0.006933 0.074628 0.011543
v -0.006933 0.074628 0.019238
v -0.006933 0.074628 0.026933
v 0.000762 0.074628 0.019238
v 0.000762 0.074628 0.026933
v 0.000762 0.082323 0.019238
v 0.000762 0.082323 0.026933
v -0.006933 0.090018 0.011543
v -0.006933 0.090018 0.019238
v 0.008457 0.074628 0.026933
v 0.016152 0.082323 0.019238
v 0.016152 0.082323 0.026933
v 0.016152 0.090018 0.011543
v 0.016152 0.097714 0.011543
v 0.016152 0.090018 0.019238
v 0.016152 0.090018 0.026933
v 0.016152 0.097714 0.019238
v 0.008457 0.074628 0.034628
v 0.023848 -0.017714 -0.034628
v 0.023848 -0.010018 -0.034628
v 0.023848 -0.017714 -0.026933
v 0.023848 -0.010018 -0.026933
v 0.023848 -0.002323 -0.026933
v 0.023848 -0.002323 -0.019238
v 0.039238 -0.010018 -0.026933
v 0.039238 -0.010018 -0.019238
v 0.046933 -0.017714 -0.026933
v 0.046933 -0.017714 -0.019238
v 0.046933 -0.010018 -0.026933
v 0.046933 -0.010018 -0.019238
v 0.046933 -0.010018 -0.011543
v 0.039238 -0.002323 -0.026933
v 0.039238 -0.002323 -0.019238
v 0.046933 -0.002323 -0.019238
v 0.039238 -0.002323 -0.011543
v 0.046933 -0.002323 -0.011543
v 0.023848 0.028457 -0.034628
v 0.023848 0.036152 -0.034628
v 0.031543 0.036152 -0.034628
v 0.023848 0.013067 -0.026933
v 0.023848 0.013067 -0.019238
v 0.031543 0.013067 -0.026933
v 0.031543 0.013067 -0.019238
v 0.031543 0.020762 -0.026933
v 0.031543 0.020762 -0.019238
v 0.023848 0.028457 -0.026933
v 0.023848 0.036152 -0.026933
v 0.031543 0.036152 -0.026933
v 0.039238 0.013067 -0.019238
v 0.039238 0.020762 -0.026933
v 0.039238 0.020762 -0.019238
v 0.046933 0.013067 -0.019238
v 0.039238 0.013067 -0.011543
v 0.046933 0.013067 -0.011543
v 0.046933 0.013067 -0.003848
v 0.046933 0.020762 -0.011543
v 0.046933 0.020762 -0.003848
v 0.039238 0.028457 -0.026933
v 0.039238 0.028457 -0.019238
v 0.046933 0.028457 -0.026933
v 0.046933 0.028457 -0.019238
v 0.046933 0.036152 -0.026933
v 0.046933 0.036152 -0.019238
v 0.046933 0.028457 -0.011543
v 0.054628 -0.017714 -0.019238
v 0.054628 -0.010018 -0.019238
v 0.054628 -0.017714 -0.003848
v 0.054628 -0.010018 -0.011543
v 0.054628 -0.010018 -0.003848
v 0.062323 -0.017714 -0.003848
v 0.062323 -0.010018 -0.003848
v 0.054628 -0.002323 -0.011543
v 0.054628 0.013067 -0.003848
v 0.054628 0.020762 -0.011543
v 0.054628 0.020762 -0.003848
v 0.054628 0.028457 -0.019238
v 0.054628 0.036152 -0.026933
v 0.054628 0.036152 -0.019238
v 0.054628 0.028457 -0.011543
v 0.054628 0.028457 -0.003848
v 0.054628 0.036152 -0.011543
v 0.054628 0.036152 -0.003848
v 0.062323 0.028457 -0.003848
v 0.062323 0.036152 -0.011543
v 0.062323 0.036152 -0.003848
v 0.023848 -0.017714 0.026933
v 0.023848 -0.010018 0.026933
v 0.023848 -0.002323 0.019238
v 0.023848 -0.002323 0.026933
v 0.046933 -0.010018 0.011543
v 0.039238 -0.010018 0.019238
v 0.039238 -0.010018 0.026933
v 0.046933 -0.017714 0.019238
v 0.046933 -0.017714 0.026933
v 0.046933 -0.010018 0.019238
v 0.046933 -0.010018 0.026933
v 0.039238 -0.002323 0.011543
v 0.046933 -0.002323 0.011543
v 0.039238 -0.002323 0.019238
v 0.039238 -0.002323 0.026933
v 0.046933 -0.002323 0.019238
v 0.023848 -0.017714 0.034628
v 0.023848 -0.010018 0.034628
v 0.023848 0.013067 0.019238
v 0.023848 0.013067 0.026933
v 0.031543 0.013067 0.019238
v 0.031543 0.013067 0.026933
v 0.031543 0.020762 0.019238
v 0.031543 0.020762 0.026933
v 0.023848 0.028457 0.026933
v 0.023848 0.036152 0.026933
v 0.031543 0.036152 0.026933
v 0.039238 0.013067 0.011543
v 0.046933 0.013067 0.003848
v 0.046933 0.013067 0.011543
v 0.046933 0.020762 0.003848
v 0.046933 0.020762 0.011543
v 0.039238 0.013067 0.019238
v 0.039238 0.020762 0.019238
v 0.039238 0.020762 0.026933
v 0.046933 0.013067 0.019238
v 0.046933 0.028457 0.011543
v 0.039238 0.028457 0.019238
v 0.039238 0.028457 0.026933
v 0.046933 0.028457 0.019238
v 0.046933 0.028457 0.026933
v 0.046933 0.036152 0.019238
v 0.046933 0.036152 0.026933
v 0.023848 0.028457 0.034628
v 0.023848 0.036152 0.034628
v 0.031543 0.036152 0.034628
v 0.054628 -0.017714 0.003848
v 0.054628 -0.010018 0.003848
v 0.054628 -0.010018 0.011543
v 0.062323 -0.017714 0.003848
v 0.062323 -0.010018 0.003848
v 0.054628 -0.017714 0.019238
v 0.054628 -0.010018 0.019238
v 0.054628 -0.002323 0.011543
v 0.054628 0.013067 0.003848
v 0.054628 0.020762 0.003848
v 0.054628 0.020762 0.011543
v 0.054628 0.028457 0.003848
v 0.054628 0.028457 0.011543
v 0.054628 0.036152 0.003848
v 0.054628 0.036152 0.011543
v 0.062323 0.028457 0.003848
v 0.062323 0.036152 0.003848
v 0.062323 0.036152 0.011543
v 0.054628 0.028457 0.019238
v 0.054628 0.036152 0.019238
v 0.054628 0.036152 0.026933
v 0.031543 0.043848 -0.034628
v 0.031543 0.059238 -0.034628
v 0.039238 0.043848 -0.034628
v 0.039238 0.059238 -0.034628
v 0.031543 0.043848 -0.026933
v 0.031543 0.059238 -0.026933
v 0.039238 0.043848 -0.026933
v 0.039238 0.059238 -0.026933
v 0.046933 0.066933 -0.026933
v 0.046933 0.066933 -0.019238
v 0.031543 0.074628 -0.034628
v 0.023848 0.082323 -0.026933
v 0.023848 0.082323 -0.019238
v 0.031543 0.074628 -0.026933
v 0.023848 0.090018 -0.026933
v 0.023848 0.090018 -0.019238
v 0.023848 0.097714 -0.019238
v 0.023848 0.090018 -0.011543
v 0.023848 0.097714 -0.011543
v 0.039238 0.074628 -0.026933
v 0.039238 0.074628 -0.019238
v 0.039238 0.082323 -0.026933
v 0.039238 0.082323 -0.019238
v 0.046933 0.074628 -0.026933
v 0.046933 0.074628 -0.019238
v 0.046933 0.074628 -0.011543
v 0.046933 0.090018 -0.019238
v 0.046933 0.090018 -0.011543
v 0.054628 0.043848 -0.011543
v 0.062323 0.043848 -0.011543
v 0.062323 0.043848 -0.003848
v 0.054628 0.066933 -0.026933
v 0.054628 0.066933 -0.019238
v 0.054628 0.074628 -0.019238
v 0.054628 0.074628 -0.011543
v 0.031543 0.043848 0.026933
v 0.031543 0.059238 0.026933
v 0.039238 0.043848 0.026933
v 0.039238 0.059238 0.026933
v 0.046933 0.066933 0.019238
v 0.046933 0.066933 0.026933
v 0.031543 0.043848 0.034628
v 0.031543 0.059238 0.034628
v 0.039238 0.043848 0.034628
v 0.039238 0.059238 0.034628
v 0.023848 0.082323 0.019238
v 0.023848 0.082323 0.026933
v 0.031543 0.074628 0.026933
v 0.023848 0.090018 0.011543
v 0.023848 0.097714 0.011543
v 0.023848 0.090018 0.019238
v 0.023848 0.090018 0.026933
v 0.023848 0.097714 0.019238
v 0.046933 0.074628 0.011543
v 0.039238 0.074628 0.019238
v 0.039238 0.074628 0.026933
v 0.039238 0.082323 0.019238
v 0.039238 0.082323 0.026933
v 0.046933 0.074628 0.019238
v 0.046933 0.074628 0.026933
v 0.046933 0.090018 0.011543
v 0.046933 0.090018 0.019238
v 0.031543 0.074628 0.034628
v 0.054628 0.043848 0.011543
v 0.062323 0.043848 0.003848
v 0.062323 0.043848 0.011543
v 0.054628 0.066933 0.019238
v 0.054628 0.066933 0.026933
v 0.054628 0.074628 0.011543
v 0.054628 0.074628 0.019238
vn -0.0000 -0.0000 1.0000
vn -0.0000 -1.0000 -0.0000
vn 1.0000 -0.0000 -0.0000
vn -0.0000 -0.0000 -1.0000
vn -0.0000 1.0000 -0.0000
vn -1.0000 -0.0000 -0.0000
s 0
f 396//1 385//1 386//1
f 120//2 88//2 87//2
f 377//3 383//3 382//3
f 43//4 53//4 46//4
f 126//2 114//2 125//2
f 302//2 328//2 303//2
f 137//1 367//1 364//1
f 258//4 217//4 222//4
f 247//3 248//3 249//3
f 206//3 208//3 207//3
f 70//2 68//2 5//2
f 35//4 47//4 51//4
f 138//4 147//4 149//4
f 176//1 178//1 188//1
f 379//5 405//5 378//5
f 62//6 59//6 60//6
f 126//1 124//1 128//1
f 68//2 3//2 5//2
f 85//2 80//2 84//2
f 275//3 290//3 291//3
f 362//5 359//5 363//5
f 142//2 150//2 146//2
f 392//4 407//4 402//4
f 235//3 221//3 219//3
f 354//5 356//5 366//5
f 129//6 132//6 185//6
f 56//4 54//4 146//4
f 87//1 117//1 119//1
f 206//3 207//3 205//3
f 85//1 171//1 81//1
f 326//1 302//1 300//1
f 285//1 281//1 287//1
f 337//3 336//3 330//3
f 7//4 3//4 4//4
f 67//2 40//2 42//2
f 16//4 137//4 20//4
f 229//2 226//2 228//2
f 381//5 383//5 377//5
f 285//3 299//3 304//3
f 83//6 85//6 82//6
f 110//1 83//1 78//1
f 307//2 299//2 301//2
f 284//5 325//5 258//5
f 152//4 349//4 340//4
f 147//4 153//4 155//4
f 331//5 271//5 268//5
f 307//1 311//1 305//1
f 98//6 89//6 92//6
f 170//5 171//5 172//5
f 113//6 97//6 99//6
f 149//6 142//6 146//6
f 397//5 408//5 407//5
f 275//3 274//3 290//3
f 177//6 184//6 180//6
f 229//2 227//2 226//2
f 389//3 385//3 384//3
f 41//2 223//2 232//2
f 87//1 86//1 117//1
f 263//3 370//3 367//3
f 85//1 172//1 171//1
f 75//1 89//1 96//1
f 77//6 78//6 83//6
f 261//2 242//2 260//2
f 328//1 308//1 303//1
f 224//4 41//4 42//4
f 126//6 123//6 124//6
f 7//5 4//5 69//5
f 351//3 350//3 353//3
f 257//4 253//4 255//4
f 57//6 45//6 46//6
f 94//1 99//1 98//1
f 217//3 216//3 220//3
f 27//4 25//4 1//4
f 27//6 24//6 25//6
f 122//1 126//1 129//1
f 284//5 258//5 222//5
f 281//5 278//5 282//5
f 139//4 140//4 154//4
f 199//6 203//6 200//6
f 392//4 199//4 387//4
f 284//1 320//1 325//1
f 273//1 272//1 278//1
f 335//2 331//2 334//2
f 306//3 309//3 310//3
f 199//6 201//6 203//6
f 284//5 285//5 287//5
f 94//5 92//5 93//5
f 377//3 382//3 376//3
f 339//2 345//2 343//2
f 101//1 102//1 95//1
f 362//3 363//3 348//3
f 126//2 115//2 114//2
f 208//4 211//4 207//4
f 64//2 59//2 63//2
f 291//1 293//1 295//1
f 186//1 184//1 183//1
f 13//2 54//2 55//2
f 403//3 335//3 334//3
f 53//4 57//4 46//4
f 285//1 277//1 281//1
f 51//2 47//2 43//2
f 25//2 36//2 5//2
f 60//4 44//4 46//4
f 93//6 90//6 91//6
f 126//6 125//6 123//6
f 106//1 105//1 288//1
f 381//5 377//5 375//5
f 202//5 390//5 389//5
f 248//4 246//4 244//4
f 179//1 174//1 180//1
f 273//3 288//3 272//3
f 300//3 302//3 303//3
f 162//4 151//4 149//4
f 285//3 286//3 278//3
f 193//6 190//6 191//6
f 113//6 111//6 97//6
f 248//4 244//4 345//4
f 88//1 120//1 177//1
f 36//4 24//4 28//4
f 309//2 312//2 310//2
f 392//4 187//4 199//4
f 321//1 319//1 318//1
f 128//2 123//2 127//2
f 16//6 136//6 135//6
f 53//6 43//6 49//6
f 113//2 108//2 111//2
f 136//5 369//5 137//5
f 93//6 92//6 90//6
f 220//4 212//4 219//4
f 144//4 143//4 145//4
f 268//5 21//5 84//5
f 336//2 311//2 308//2
f 33//6 28//6 29//6
f 182//5 184//5 186//5
f 340//4 342//4 339//4
f 104//1 102//1 273//1
f 241//4 261//4 259//4
f 266//4 271//4 269//4
f 248//2 264//2 249//2
f 50//2 10//2 49//2
f 33//5 39//5 38//5
f 16//4 135//4 137//4
f 265//2 250//2 247//2
f 195//1 188//1 192//1
f 120//1 118//1 122//1
f 55//4 12//4 14//4
f 193//1 191//1 196//1
f 129//6 185//6 181//6
f 237//3 236//3 244//3
f 50//4 48//4 9//4
f 394//5 397//5 393//5
f 257//5 255//5 319//5
f 285//3 278//3 277//3
f 210//4 227//4 229//4
f 397//3 399//3 400//3
f 34//6 27//6 30//6
f 238//3 247//3 242//3
f 160//5 168//5 166//5
f 189//6 188//6 178//6
f 297//2 298//2 317//2
f 284//5 283//5 285//5
f 264//4 247//4 249//4
f 120//1 122//1 177//1
f 37//6 22//6 36//6
f 128//2 124//2 123//2
f 389//3 390//3 385//3
f 356//3 355//3 357//3
f 285//3 283//3 299//3
f 196//5 401//5 386//5
f 112//1 113//1 114//1
f 47//6 34//6 48//6
f 104//1 95//1 102//1
f 51//6 33//6 35//6
f 354//5 366//5 365//5
f 272//1 280//1 278//1
f 7//6 8//6 6//6
f 286//5 274//5 275//5
f 318//2 323//2 279//2
f 117//2 122//2 118//2
f 139//4 154//4 148//4
f 103//5 100//5 104//5
f 240//3 238//3 242//3
f 49//6 58//6 53//6
f 176//5 187//5 175//5
f 158//6 157//6 155//6
f 82//6 19//6 77//6
f 19//6 20//6 18//6
f 55//6 52//6 53//6
f 329//3 331//3 332//3
f 110//2 78//2 77//2
f 374//2 382//2 380//2
f 369//5 368//5 367//5
f 80//1 79//1 82//1
f 22//4 23//4 206//4
f 17//5 80//5 84//5
f 278//1 286//1 275//1
f 278//1 275//1 273//1
f 155//5 154//5 156//5
f 158//5 163//5 157//5
f 108//6 112//6 110//6
f 385//1 202//1 198//1
f 85//2 81//2 80//2
f 291//1 295//1 296//1
f 192//1 201//1 195//1
f 130//1 129//1 126//1
f 387//5 389//5 400//5
f 34//5 33//5 31//5
f 22//4 206//4 205//4
f 48//6 49//6 47//6
f 344//3 349//3 352//3
f 303//3 308//3 311//3
f 128//1 296//1 130//1
f 379//5 406//5 405//5
f 196//1 191//1 180//1
f 367//1 373//1 364//1
f 21//4 15//4 17//4
f 12//2 58//2 18//2
f 97//5 96//5 98//5
f 237//4 238//4 235//4
f 103//1 127//1 123//1
f 281//1 279//1 323//1
f 107//6 96//6 108//6
f 158//6 155//6 156//6
f 370//5 348//5 371//5
f 325//3 320//3 319//3
f 403//5 170//5 402//5
f 94//1 98//1 92//1
f 347//4 370//4 346//4
f 70//6 73//6 72//6
f 34//5 35//5 33//5
f 389//3 388//3 391//3
f 58//4 10//4 18//4
f 163//4 165//4 353//4
f 107//2 9//2 48//2
f 73//6 74//6 72//6
f 128//6 103//6 104//6
f 209//4 208//4 37//4
f 265//3 262//3 264//3
f 235//3 239//3 221//3
f 232//4 233//4 234//4
f 203//5 388//5 200//5
f 397//3 379//3 378//3
f 28//4 32//4 38//4
f 385//1 390//1 202//1
f 50//2 11//2 10//2
f 333//1 334//1 331//1
f 230//4 226//4 232//4
f 117//2 121//2 122//2
f 240//3 242//3 241//3
f 258//4 254//4 217//4
f 348//4 372//4 371//4
f 120//6 117//6 118//6
f 14//6 137//6 13//6
f 133//1 315//1 316//1
f 193//5 198//5 197//5
f 321//3 257//3 322//3
f 176//1 173//1 178//1
f 234//4 343//4 345//4
f 172//4 175//4 187//4
f 129//2 134//2 132//2
f 190//5 188//5 189//5
f 229//4 231//4 237//4
f 356//3 354//3 355//3
f 387//5 400//5 399//5
f 160//4 166//4 158//4
f 207//2 214//2 253//2
f 100//6 94//6 95//6
f 27//4 1//4 2//4
f 331//5 334//5 271//5
f 402//4 172//4 187//4
f 110//2 77//2 109//2
f 185//1 132//1 134//1
f 281//5 320//5 276//5
f 315//3 296//3 297//3
f 302//2 327//2 328//2
f 321//1 322//1 319//1
f 84//4 80//4 170//4
f 290//2 293//2 291//2
f 202//6 197//6 198//6
f 311//3 307//3 303//3
f 294//3 293//3 292//3
f 339//3 343//3 234//3
f 48//6 50//6 49//6
f 178//5 174//5 179//5
f 297//2 317//2 316//2
f 5//6 7//6 6//6
f 339//3 234//3 225//3
f 364//3 365//3 366//3
f 315//3 297//3 316//3
f 162//6 145//6 151//6
f 310//1 312//1 314//1
f 122//6 114//6 115//6
f 331//4 84//4 170//4
f 313//1 311//1 336//1
f 267//4 368//4 270//4
f 50//4 9//4 11//4
f 46//4 62//4 60//4
f 44//4 43//4 46//4
f 74//1 90//1 92//1
f 166//5 353//5 165//5
f 13//2 55//2 14//2
f 64//6 38//6 39//6
f 212//5 215//5 211//5
f 185//2 177//2 181//2
f 90//2 73//2 70//2
f 387//4 399//4 392//4
f 345//3 342//3 346//3
f 33//4 27//4 31//4
f 113//1 123//1 114//1
f 339//4 42//4 144//4
f 235//4 219//4 229//4
f 310//1 314//1 298//1
f 120//2 87//2 119//2
f 400//1 389//1 395//1
f 27//5 6//5 30//5
f 245//4 247//4 237//4
f 21//2 17//2 16//2
f 224//2 234//2 233//2
f 89//5 74//5 92//5
f 362//3 348//3 347//3
f 273//3 289//3 288//3
f 173//6 175//6 172//6
f 306//3 305//3 309//3
f 33//4 44//4 60//4
f 166//4 355//4 354//4
f 67//6 41//6 66//6
f 214//3 215//3 216//3
f 224//2 225//2 234//2
f 210//3 226//3 227//3
f 384//5 385//5 396//5
f 309//2 311//2 312//2
f 1//6 5//6 6//6
f 107//1 77//1 76//1
f 247//2 244//2 246//2
f 220//5 221//5 222//5
f 166//5 354//5 353//5
f 38//4 63//4 209//4
f 202//6 201//6 197//6
f 98//6 96//6 89//6
f 217//3 220//3 222//3
f 34//4 6//4 8//4
f 27//6 26//6 24//6
f 267//4 367//4 368//4
f 283//1 301//1 299//1
f 364//5 373//5 372//5
f 345//3 341//3 342//3
f 154//5 140//5 141//5
f 159//1 141//1 137//1
f 218//3 212//3 211//3
f 395//3 394//3 393//3
f 314//1 376//1 298//1
f 189//6 178//6 179//6
f 134//6 130//6 133//6
f 58//4 49//4 10//4
f 316//1 380//1 185//1
f 28//5 27//5 29//5
f 240//2 235//2 238//2
f 177//1 180//1 174//1
f 237//3 244//3 245//3
f 333//3 269//3 271//3
f 33//5 38//5 32//5
f 69//1 68//1 70//1
f 34//6 31//6 27//6
f 237//2 230//2 236//2
f 397//3 398//3 379//3
f 376//1 374//1 298//1
f 247//3 250//3 242//3
f 203//5 391//5 388//5
f 222//3 241//3 300//3
f 252//5 217//5 254//5
f 271//2 267//2 270//2
f 222//3 240//3 241//3
f 146//4 150//4 65//4
f 69//1 70//1 71//1
f 290//2 292//2 293//2
f 338//1 406//1 376//1
f 265//4 242//4 250//4
f 155//4 162//4 149//4
f 155//4 157//4 162//4
f 128//6 127//6 103//6
f 265//2 247//2 262//2
f 21//2 16//2 20//2
f 56//4 52//4 54//4
f 178//5 173//5 174//5
f 271//2 268//2 267//2
f 146//4 65//4 56//4
f 154//6 161//6 160//6
f 101//2 90//2 70//2
f 381//1 204//1 186//1
f 129//2 131//2 134//2
f 284//3 222//3 300//3
f 25//2 24//2 36//2
f 214//4 252//4 251//4
f 27//5 2//5 6//5
f 110//6 109//6 107//6
f 280//3 281//3 282//3
f 333//2 329//2 266//2
f 18//6 10//6 11//6
f 210//3 209//3 226//3
f 386//3 381//3 375//3
f 144//4 145//4 339//4
f 339//4 224//4 42//4
f 265//4 260//4 242//4
f 152//4 340//4 145//4
f 99//1 103//1 123//1
f 257//4 256//4 253//4
f 120//6 119//6 117//6
f 389//1 391//1 203//1
f 265//3 264//3 267//3
f 166//6 169//6 167//6
f 139//5 147//5 138//5
f 365//4 363//4 361//4
f 37//4 36//4 28//4
f 186//1 183//1 185//1
f 386//1 375//1 377//1
f 21//5 17//5 84//5
f 83//2 116//2 117//2
f 306//2 295//2 294//2
f 134//6 131//6 130//6
f 304//1 307//1 305//1
f 198//1 193//1 196//1
f 182//5 180//5 184//5
f 336//2 308//2 330//2
f 36//2 207//2 101//2
f 311//1 309//1 305//1
f 162//4 163//4 350//4
f 313//1 336//1 337//1
f 281//3 276//3 284//3
f 362//5 358//5 359//5
f 80//1 82//1 84//1
f 5//2 1//2 25//2
f 244//4 236//4 230//4
f 292//1 290//1 274//1
f 386//1 377//1 394//1
f 62//6 61//6 59//6
f 113//2 112//2 108//2
f 170//4 403//4 331//4
f 369//5 367//5 137//5
f 226//4 209//4 63//4
f 212//5 216//5 215//5
f 307//3 301//3 303//3
f 71//6 70//6 72//6
f 174//1 88//1 177//1
f 295//1 310//1 296//1
f 359//3 360//3 361//3
f 180//1 182//1 196//1
f 128//1 291//1 296//1
f 101//2 91//2 90//2
f 332//3 402//3 337//3
f 41//2 232//2 66//2
f 281//1 323//1 324//1
f 163//6 166//6 165//6
f 339//4 225//4 224//4
f 281//3 284//3 287//3
f 363//4 359//4 361//4
f 147//4 155//4 149//4
f 94//5 93//5 95//5
f 405//1 408//1 397//1
f 389//1 203//1 201//1
f 194//5 195//5 201//5
f 280//1 282//1 278//1
f 380//1 382//1 383//1
f 75//5 96//5 34//5
f 70//2 36//2 101//2
f 185//1 134//1 316//1
f 40//6 150//6 144//6
f 191//1 179//1 180//1
f 365//4 361//4 354//4
f 305//1 294//1 292//1
f 75//1 72//1 89//1
f 65//4 61//4 56//4
f 402//3 407//3 405//3
f 166//6 168//6 169//6
f 202//5 389//5 201//5
f 190//5 189//5 191//5
f 193//6 192//6 190//6
f 342//4 341//4 339//4
f 35//4 34//4 47//4
f 220//4 216//4 212//4
f 83//2 117//2 86//2
f 67//2 65//2 40//2
f 403//3 404//3 335//3
f 204//6 182//6 186//6
f 154//5 141//5 159//5
f 106//5 273//5 102//5
f 75//5 34//5 8//5
f 397//5 407//5 392//5
f 209//5 219//5 218//5
f 359//3 358//3 360//3
f 101//2 207//2 272//2
f 18//6 11//6 19//6
f 235//4 229//4 237//4
f 279//2 280//2 272//2
f 364//5 372//5 363//5
f 191//1 189//1 179//1
f 344//5 342//5 340//5
f 327//3 329//3 330//3
f 222//4 221//4 239//4
f 296//1 310//1 298//1
f 207//2 253//2 272//2
f 321//3 256//3 257//3
f 209//5 210//5 219//5
f 128//1 275//1 291//1
f 251//3 252//3 254//3
f 37//5 206//5 23//5
f 327//3 266//3 329//3
f 224//3 232//3 223//3
f 14//6 12//6 18//6
f 130//2 315//2 133//2
f 187//6 188//6 195//6
f 379//1 398//1 394//1
f 168//1 161//1 159//1
f 51//2 43//2 44//2
f 11//6 9//6 76//6
f 337//3 330//3 332//3
f 194//5 201//5 199//5
f 139//5 148//5 147//5
f 196//1 385//1 198//1
f 106//5 289//5 273//5
f 286//5 285//5 274//5
f 38//4 209//4 37//4
f 11//6 76//6 77//6
f 24//4 26//4 28//4
f 300//3 303//3 301//3
f 392//4 402//4 187//4
f 374//2 376//2 382//2
f 405//3 406//3 402//3
f 349//5 162//5 352//5
f 110//6 107//6 108//6
f 349//5 152//5 162//5
f 130//1 131//1 129//1
f 350//5 361//5 360//5
f 176//5 188//5 187//5
f 158//5 164//5 163//5
f 77//6 83//6 82//6
f 54//4 13//4 146//4
f 91//1 101//1 95//1
f 66//4 232//4 226//4
f 149//6 143//6 142//6
f 253//2 321//2 318//2
f 83//6 86//6 87//6
f 407//3 408//3 405//3
f 280//3 279//3 281//3
f 154//6 147//6 148//6
f 21//4 19//4 15//4
f 177//1 122//1 129//1
f 281//5 277//5 278//5
f 192//1 197//1 201//1
f 51//6 44//6 33//6
f 80//6 15//6 79//6
f 367//3 267//3 264//3
f 138//6 13//6 137//6
f 344//3 340//3 349//3
f 129//1 181//1 177//1
f 330//3 328//3 327//3
f 145//5 149//5 151//5
f 281//5 324//5 320//5
f 380//1 186//1 185//1
f 379//1 394//1 377//1
f 80//6 17//6 15//6
f 43//6 47//6 49//6
f 253//3 251//3 254//3
f 14//6 18//6 20//6
f 60//4 64//4 39//4
f 67//6 42//6 41//6
f 113//1 99//1 123//1
f 57//2 53//2 52//2
f 72//6 75//6 71//6
f 264//4 262//4 247//4
f 199//4 388//4 387//4
f 285//1 304//1 292//1
f 5//2 36//2 70//2
f 381//1 401//1 204//1
f 265//3 267//3 266//3
f 384//5 396//5 395//5
f 135//5 136//5 137//5
f 327//3 261//3 266//3
f 348//4 363//4 372//4
f 364//1 366//1 356//1
f 117//6 116//6 110//6
f 84//5 331//5 268//5
f 69//6 4//6 3//6
f 112//6 117//6 110//6
f 267//3 268//3 266//3
f 110//1 116//1 83//1
f 158//4 156//4 154//4
f 298//1 297//1 296//1
f 368//3 271//3 270//3
f 389//3 387//3 388//3
f 168//1 159//1 356//1
f 160//5 161//5 168//5
f 258//3 319//3 255//3
f 402//1 332//1 335//1
f 338//2 313//2 337//2
f 371//3 367//3 370//3
f 166//4 164//4 158//4
f 404//5 403//5 402//5
f 196//5 204//5 401//5
f 188//1 190//1 192//1
f 62//2 45//2 61//2
f 274//1 285//1 292//1
f 211//4 215//4 213//4
f 7//6 71//6 8//6
f 389//1 384//1 395//1
f 101//6 106//6 102//6
f 16//6 17//6 136//6
f 207//2 213//2 214//2
f 64//6 63//6 38//6
f 284//1 276//1 320//1
f 126//1 128//1 130//1
f 350//5 351//5 361//5
f 155//5 153//5 154//5
f 313//3 312//3 311//3
f 61//4 45//4 56//4
f 361//4 351//4 354//4
f 36//2 22//2 207//2
f 104//1 100//1 95//1
f 224//3 233//3 232//3
f 80//6 81//6 171//6
f 107//6 48//6 96//6
f 199//4 200//4 388//4
f 145//5 143//5 149//5
f 75//6 8//6 71//6
f 28//4 38//4 37//4
f 352//4 162//4 350//4
f 314//1 338//1 376//1
f 406//1 379//1 377//1
f 11//6 77//6 19//6
f 88//6 174//6 172//6
f 185//2 183//2 177//2
f 13//4 149//4 146//4
f 339//2 341//2 345//2
f 307//2 304//2 299//2
f 193//5 197//5 192//5
f 83//6 87//6 85//6
f 37//6 23//6 22//6
f 313//3 314//3 312//3
f 317//3 298//3 374//3
f 55//6 54//6 52//6
f 338//3 337//3 402//3
f 7//4 5//4 3//4
f 107//2 76//2 9//2
f 173//6 176//6 175//6
f 326//1 327//1 302//1
f 344//5 346//5 342//5
f 357//1 169//1 168//1
f 28//5 26//5 27//5
f 370//5 347//5 348//5
f 95//1 93//1 91//1
f 257//5 319//5 322//5
f 386//3 401//3 381//3
f 252//5 216//5 217//5
f 130//2 296//2 315//2
f 230//3 229//3 228//3
f 100//6 99//6 94//6
f 74//1 73//1 90//1
f 6//6 2//6 1//6
f 136//1 17//1 21//1
f 142//2 144//2 150//2
f 380//1 383//1 381//1
f 295//1 306//1 310//1
f 253//2 318//2 272//2
f 253//2 256//2 321//2
f 264//3 263//3 367//3
f 187//4 194//4 199//4
f 111//1 108//1 96//1
f 376//1 406//1 377//1
f 234//4 230//4 232//4
f 255//3 253//3 254//3
f 128//1 104//1 275//1
f 104//1 273//1 275//1
f 154//6 153//6 147//6
f 406//3 338//3 402//3
f 103//5 99//5 100//5
f 351//3 353//3 354//3
f 305//1 292//1 304//1
f 255//3 254//3 258//3
f 247//4 238//4 237//4
f 397//3 392//3 399//3
f 163//6 164//6 166//6
f 89//5 72//5 74//5
f 328//1 330//1 308//1
f 335//2 332//2 331//2
f 373//3 367//3 371//3
f 69//6 3//6 68//6
f 123//1 125//1 114//1
f 394//1 396//1 386//1
f 162//6 152//6 145//6
f 114//1 121//1 117//1
f 166//4 167//4 355//4
f 294//3 295//3 293//3
f 355//5 169//5 357//5
f 356//1 159//1 364//1
f 40//6 65//6 150//6
f 369//1 136//1 21//1
f 117//1 112//1 114//1
f 177//6 183//6 184//6
f 122//6 121//6 114//6
f 395//3 396//3 394//3
f 204//6 196//6 182//6
f 242//3 243//3 241//3
f 22//2 205//2 207//2
f 122//1 115//1 126//1
f 372//3 373//3 371//3
f 211//4 213//4 207//4
f 368//3 369//3 271//3
f 34//4 30//4 6//4
f 42//4 40//4 144//4
f 261//3 265//3 266//3
f 395//1 393//1 397//1
f 196//1 386//1 385//1
f 209//4 211//4 208//4
f 159//1 137//1 364//1
f 247//2 245//2 244//2
f 160//4 158//4 154//4
f 66//4 226//4 63//4
f 327//3 326//3 261//3
f 214//3 213//3 215//3
f 301//3 284//3 300//3
f 144//4 142//4 143//4
f 237//2 231//2 230//2
f 358//4 362//4 347//4
f 157//4 163//4 162//4
f 82//2 79//2 15//2
f 323//3 318//3 320//3
f 320//3 318//3 319//3
f 405//1 397//1 378//1
f 356//1 357//1 168//1
f 402//1 335//1 404//1
f 230//3 231//3 229//3
f 333//1 331//1 329//1
f 218//3 219//3 212//3
f 240//2 239//2 235//2
f 106//1 288//1 289//1
f 247//3 246//3 248//3
f 364//3 363//3 365//3
f 64//2 60//2 59//2
f 258//3 325//3 319//3
f 39//4 33//4 60//4
f 333//3 271//3 334//3
f 220//5 219//5 221//5
f 268//1 271//1 369//1
f 80//6 171//6 170//6
f 261//3 260//3 265//3
f 97//5 98//5 99//5
f 326//2 300//2 241//2
f 326//2 241//2 259//2
f 12//2 53//2 58//2
f 345//4 244//4 234//4
f 338//2 314//2 313//2
f 33//4 29//4 27//4
f 283//1 284//1 301//1
f 82//2 15//2 19//2
f 261//2 243//2 242//2
f 7//5 69//5 71//5
f 355//5 167//5 169//5
f 403//4 334//4 331//4
f 400//1 395//1 397//1
f 57//2 52//2 56//2
f 107//1 109//1 77//1
f 222//4 239//4 240//4
f 170//5 172//5 402//5
f 224//4 223//4 41//4
f 163//4 353//4 350//4
f 34//6 96//6 48//6
f 306//2 294//2 305//2
f 111//1 96//1 97//1
f 141//6 140//6 139//6
f 272//2 105//2 101//2
f 13//4 138//4 149//4
f 340//4 339//4 145//4
f 214//4 216//4 252//4
f 57//6 56//6 45//6
f 317//3 374//3 380//3
f 19//6 21//6 20//6
f 187//6 195//6 194//6
f 316//1 317//1 380//1
f 214//2 251//2 253//2
f 63//4 61//4 66//4
f 324//3 323//3 320//3
f 154//6 159//6 161//6
f 380//1 381//1 186//1
f 219//4 210//4 229//4
f 87//6 88//6 172//6
f 37//5 208//5 206//5
f 241//4 243//4 261//4
f 137//6 141//6 139//6
f 62//2 46//2 45//2
f 85//6 84//6 82//6
f 350//4 360//4 352//4
f 329//3 332//3 330//3
f 139//6 138//6 137//6
f 346//4 344//4 352//4
f 360//4 358//4 352//4
f 134//1 133//1 316//1
f 172//6 85//6 87//6
f 174//6 173//6 172//6
f 33//6 32//6 28//6
f 266//4 268//4 271//4
f 248//2 263//2 264//2
f 55//4 53//4 12//4
f 65//4 67//4 66//4
f 333//2 266//2 269//2
f 394//5 398//5 397//5
f 101//6 105//6 106//6
f 61//4 65//4 66//4
f 318//2 279//2 272//2
f 230//4 228//4 226//4
f 326//3 259//3 261//3
f 345//4 346//4 370//4
f 263//4 248//4 345//4
f 209//4 218//4 211//4
f 21//1 268//1 369//1
f 20//6 137//6 14//6
f 370//4 263//4 345//4
f 272//2 288//2 105//2
f 346//4 352//4 358//4
f 346//4 358//4 347//4
f 244//4 230//4 234//4
f 63//4 59//4 61//4
