# Blender 5.1.2
# www.blender.org
mtllib rage dose.mtl
o rage_dose
v 0.518226 0.568965 0.115167
v 0.521398 0.571598 0.110391
v 0.479546 0.581196 0.071275
v 0.474862 0.578915 0.074664
v 0.572422 0.554701 0.134876
v 0.573729 0.557828 0.129486
v 0.629133 0.538293 0.130873
v 0.628443 0.541996 0.125638
v 0.679725 0.522239 0.103694
v 0.677331 0.526490 0.099382
v 0.716539 0.508991 0.057569
v 0.712805 0.513710 0.054799
v 0.733939 0.500548 -0.000643
v 0.729660 0.505552 -0.001336
v 0.729245 0.498221 -0.061936
v 0.725131 0.503303 -0.060549
v 0.703276 0.502330 -0.117066
v 0.700042 0.507275 -0.113756
v 0.725131 0.503303 -0.060549
v 0.729245 0.498221 -0.061936
v 0.659911 0.512279 -0.157569
v 0.658119 0.516887 -0.152796
v 0.605715 0.526543 -0.177281
v 0.605860 0.530651 -0.171891
v 0.549004 0.542951 -0.173278
v 0.551150 0.546483 -0.168040
v 0.498415 0.559005 -0.146096
v 0.502259 0.561989 -0.141784
v 0.461598 0.572254 -0.099971
v 0.466713 0.574783 -0.097201
v 0.444198 0.580696 -0.041759
v 0.449930 0.582927 -0.041066
v 0.448821 0.583038 0.019531
v 0.454458 0.585176 0.018144
v 0.530830 0.564072 0.028234
v 0.553269 0.558929 0.049177
v 0.589814 0.544327 -0.021201
v 0.581227 0.551565 0.059340
v 0.610475 0.543106 0.057340
v 0.636586 0.534815 0.043247
v 0.655592 0.527976 0.019454
v 0.664604 0.523620 -0.010577
v 0.662174 0.522414 -0.042223
v 0.648786 0.524537 -0.070712
v 0.626347 0.529680 -0.091579
v 0.598387 0.537037 -0.101822
v 0.569141 0.545503 -0.099742
v 0.543028 0.553786 -0.085728
v 0.524024 0.560633 -0.061856
v 0.515013 0.564996 -0.031828
v 0.517445 0.566195 -0.000182
v 0.500043 0.370924 0.022151
v 0.519707 0.366975 0.040245
v 0.487768 0.373317 0.099382
v 0.449243 0.381053 0.063808
v 0.544372 0.362022 0.049101
v 0.536232 0.363585 0.116630
v 0.570346 0.356806 0.047174
v 0.587165 0.353357 0.112932
v 0.593708 0.352115 0.034855
v 0.632944 0.344164 0.088754
v 0.610759 0.348691 0.013988
v 0.666463 0.337433 0.047867
v 0.619101 0.347016 -0.012192
v 0.682714 0.334170 -0.003568
v 0.617288 0.347380 -0.039759
v 0.679233 0.334869 -0.057624
v 0.605680 0.349711 -0.064553
v 0.656452 0.339444 -0.106210
v 0.586019 0.353659 -0.082723
v 0.617927 0.347180 -0.141784
v 0.561351 0.358612 -0.091503
v 0.569463 0.356912 -0.159032
v 0.535377 0.363828 -0.089576
v 0.518459 0.367154 -0.155337
v 0.512016 0.368519 -0.077257
v 0.472751 0.376333 -0.131157
v 0.494892 0.371958 -0.056390
v 0.439232 0.383063 -0.090269
v 0.486623 0.373619 -0.030210
v 0.422981 0.386327 -0.038834
v 0.488435 0.373255 -0.002643
v 0.426463 0.385628 0.015219
v 0.552866 0.360332 -0.021201
v 0.487768 0.373317 0.099382
v 0.507446 0.490849 0.106464
v 0.466697 0.499541 0.068657
v 0.449243 0.381053 0.063808
v 0.536232 0.363585 0.116630
v 0.558472 0.479210 0.124789
v 0.587165 0.353357 0.112932
v 0.612051 0.466391 0.120942
v 0.632944 0.344164 0.088754
v 0.659976 0.454348 0.095455
v 0.666463 0.337433 0.047867
v 0.695061 0.444892 0.052179
v 0.682714 0.334170 -0.003568
v 0.711865 0.439489 -0.002258
v 0.679233 0.334869 -0.057624
v 0.707833 0.438954 -0.059624
v 0.656452 0.339444 -0.106210
v 0.683659 0.443355 -0.111059
v 0.707833 0.438954 -0.059624
v 0.679233 0.334869 -0.057624
v 0.617927 0.347180 -0.141784
v 0.642910 0.452047 -0.148869
v 0.569463 0.356912 -0.159032
v 0.591883 0.463686 -0.167194
v 0.518459 0.367154 -0.155337
v 0.538304 0.476506 -0.163344
v 0.472751 0.376333 -0.131157
v 0.490379 0.488548 -0.137857
v 0.439232 0.383063 -0.090269
v 0.455294 0.498004 -0.094581
v 0.422981 0.386327 -0.038834
v 0.438491 0.503407 -0.040144
v 0.426463 0.385628 0.015219
v 0.442522 0.503942 0.017222
v 0.502259 0.561989 -0.141784
v 0.551150 0.546483 -0.168040
v 0.605860 0.530651 -0.171891
v 0.658119 0.516887 -0.152796
v 0.700042 0.507275 -0.113756
v 0.725131 0.503303 -0.060549
v 0.729660 0.505552 -0.001336
v 0.712805 0.513710 0.054799
v 0.677331 0.526490 0.099382
v 0.628443 0.541996 0.125638
v 0.573729 0.557828 0.129486
v 0.325404 -0.597982 0.041246
v 0.292975 -0.591462 0.101306
v 0.253796 -0.583595 0.065115
v 0.305380 -0.593961 0.022844
v 0.350435 -0.603009 0.050179
v 0.342166 -0.601341 0.118786
v 0.376843 -0.608312 0.048252
v 0.393968 -0.611743 0.115011
v 0.400567 -0.613076 0.035701
v 0.440401 -0.621067 0.090449
v 0.417907 -0.616558 0.014526
v 0.474501 -0.627914 0.048945
v 0.426323 -0.618248 -0.012039
v 0.490968 -0.631221 -0.003260
v 0.424510 -0.617884 -0.040067
v 0.487414 -0.630508 -0.058238
v 0.490968 -0.631221 -0.003260
v 0.426323 -0.618248 -0.012039
v 0.412684 -0.615509 -0.065246
v 0.464269 -0.625860 -0.107517
v 0.392732 -0.611503 -0.083648
v 0.425165 -0.618007 -0.143708
v 0.367702 -0.606476 -0.092581
v 0.375976 -0.608130 -0.161264
v 0.341293 -0.601173 -0.090654
v 0.324171 -0.597727 -0.157413
v 0.317569 -0.596409 -0.078106
v 0.277739 -0.588403 -0.132851
v 0.300230 -0.592927 -0.056930
v 0.243639 -0.581555 -0.091347
v 0.291813 -0.591237 -0.030365
v 0.227100 -0.578234 -0.039142
v 0.293626 -0.591601 -0.002338
v 0.230725 -0.578962 0.015836
v 0.227100 -0.578234 -0.039142
v 0.291813 -0.591237 -0.030365
v 0.269883 -0.551605 0.156668
v 0.213074 -0.540198 0.104155
v 0.341346 -0.565956 0.182079
v 0.416509 -0.581049 0.176533
v 0.483983 -0.594599 0.140960
v 0.533463 -0.604535 0.080592
v 0.557406 -0.609343 0.004824
v 0.552181 -0.608293 -0.074948
v 0.557406 -0.609343 0.004824
v 0.518662 -0.601562 -0.146557
v 0.461782 -0.590140 -0.199070
v 0.390391 -0.575804 -0.224481
v 0.315227 -0.560711 -0.218938
v 0.247755 -0.547162 -0.183364
v 0.198273 -0.537225 -0.123073
v 0.174333 -0.532418 -0.047229
v 0.179484 -0.533452 0.032546
v 0.174333 -0.532418 -0.047229
v 0.252914 -0.500798 0.205178
v 0.180579 -0.486272 0.138342
v 0.343819 -0.519052 0.237518
v 0.439444 -0.538255 0.230512
v 0.525345 -0.555505 0.185157
v 0.588320 -0.568150 0.108391
v 0.618791 -0.574269 0.011908
v 0.612188 -0.572943 -0.089655
v 0.618791 -0.574269 0.011908
v 0.569456 -0.564362 -0.180744
v 0.497121 -0.549837 -0.247580
v 0.406216 -0.531582 -0.279920
v 0.310519 -0.512365 -0.272914
v 0.224690 -0.495130 -0.227562
v 0.161715 -0.482484 -0.150792
v 0.131244 -0.476365 -0.054310
v 0.137847 -0.477691 0.047174
v 0.131244 -0.476365 -0.054310
v 0.242585 -0.440969 0.244987
v 0.157484 -0.423880 0.166370
v 0.349455 -0.462429 0.283026
v 0.461983 -0.485026 0.274787
v 0.562902 -0.505292 0.221424
v 0.636978 -0.520167 0.131181
v 0.672818 -0.527364 0.017760
v 0.665055 -0.525805 -0.101666
v 0.672818 -0.527364 0.017760
v 0.614776 -0.515708 -0.208772
v 0.529746 -0.498633 -0.287389
v 0.422877 -0.477173 -0.325428
v 0.310351 -0.454577 -0.317189
v 0.209429 -0.434311 -0.263906
v 0.135354 -0.419436 -0.173583
v 0.099513 -0.412239 -0.060164
v 0.107276 -0.413797 0.059264
v 0.099513 -0.412239 -0.060164
v 0.239344 -0.374421 0.274555
v 0.144811 -0.355438 0.187237
v 0.358112 -0.398270 0.316828
v 0.483117 -0.423373 0.307667
v 0.595283 -0.445897 0.248454
v 0.677556 -0.462418 0.148121
v 0.717388 -0.470417 0.022072
v 0.708753 -0.468683 -0.110598
v 0.717388 -0.470417 0.022072
v 0.652961 -0.457479 -0.229639
v 0.558427 -0.438496 -0.316959
v 0.439660 -0.414646 -0.359230
v 0.314654 -0.389544 -0.350069
v 0.202488 -0.367020 -0.290855
v 0.120215 -0.350498 -0.190526
v 0.080383 -0.342500 -0.064476
v 0.089018 -0.344234 0.068196
v 0.080383 -0.342500 -0.064476
v 0.243279 -0.303713 0.292804
v 0.142939 -0.283564 0.200096
v 0.369375 -0.329034 0.337695
v 0.502071 -0.355681 0.327917
v 0.621201 -0.379603 0.265008
v 0.708553 -0.397144 0.158595
v 0.750850 -0.405638 0.024768
v 0.741637 -0.403788 -0.116065
v 0.750850 -0.405638 0.024768
v 0.682360 -0.391885 -0.242498
v 0.582094 -0.371750 -0.335206
v 0.455927 -0.346415 -0.380097
v 0.323230 -0.319768 -0.370319
v 0.204172 -0.295860 -0.307410
v 0.116820 -0.278319 -0.200997
v 0.074523 -0.269825 -0.067170
v 0.083736 -0.271675 0.073663
v 0.074523 -0.269825 -0.067170
v 0.254294 -0.231568 0.298887
v 0.152069 -0.211040 0.204408
v 0.382928 -0.257399 0.344704
v 0.518165 -0.284555 0.334770
v 0.639617 -0.308944 0.270627
v 0.728637 -0.326820 0.162058
v 0.771804 -0.335489 0.025614
v 0.762447 -0.333610 -0.117991
v 0.771804 -0.335489 0.025614
v 0.702010 -0.321473 -0.246810
v 0.599713 -0.300931 -0.341368
v 0.471151 -0.275115 -0.387105
v 0.335842 -0.247943 -0.377171
v 0.214462 -0.223569 -0.313032
v 0.125370 -0.205678 -0.204539
v 0.082275 -0.197025 -0.068016
v 0.091632 -0.198904 0.075587
v 0.082275 -0.197025 -0.068016
v 0.271984 -0.160764 0.292804
v 0.171644 -0.140614 0.200096
v 0.398080 -0.186085 0.337695
v 0.530777 -0.212732 0.327917
v 0.649907 -0.236654 0.265008
v 0.737258 -0.254195 0.158595
v 0.779556 -0.262689 0.024768
v 0.770342 -0.260839 -0.116065
v 0.779556 -0.262689 0.024768
v 0.711066 -0.248935 -0.242498
v 0.610800 -0.228801 -0.335206
v 0.484632 -0.203465 -0.380097
v 0.351936 -0.176819 -0.370319
v 0.232878 -0.152911 -0.307410
v 0.145526 -0.135370 -0.200997
v 0.103228 -0.126876 -0.067170
v 0.112442 -0.128726 0.073663
v 0.103228 -0.126876 -0.067170
v 0.295652 -0.094017 0.274555
v 0.201118 -0.075033 0.187237
v 0.414419 -0.117866 0.316828
v 0.539425 -0.142969 0.307667
v 0.651591 -0.165493 0.248454
v 0.733864 -0.182014 0.148121
v 0.773696 -0.190013 0.022072
v 0.765061 -0.188279 -0.110598
v 0.773696 -0.190013 0.022072
v 0.709268 -0.177075 -0.229639
v 0.614735 -0.158092 -0.316959
v 0.495967 -0.134242 -0.359230
v 0.370962 -0.109140 -0.350069
v 0.258796 -0.086616 -0.290855
v 0.176523 -0.070094 -0.190526
v 0.136691 -0.062096 -0.064476
v 0.145326 -0.063830 0.068196
v 0.136691 -0.062096 -0.064476
v 0.324333 -0.033881 0.244987
v 0.239231 -0.016792 0.166370
v 0.431202 -0.055342 0.283026
v 0.543731 -0.077939 0.274787
v 0.644649 -0.098204 0.221424
v 0.718725 -0.113079 0.131181
v 0.754566 -0.120276 0.017760
v 0.746802 -0.118717 -0.101666
v 0.754566 -0.120276 0.017760
v 0.696523 -0.108621 -0.208772
v 0.611493 -0.091546 -0.287389
v 0.504624 -0.070086 -0.325428
v 0.392098 -0.047489 -0.317189
v 0.291176 -0.027223 -0.263906
v 0.217101 -0.012348 -0.173583
v 0.181260 -0.005151 -0.060164
v 0.189023 -0.006710 0.059264
v 0.181260 -0.005151 -0.060164
v 0.356958 0.017323 0.205178
v 0.284623 0.031849 0.138342
v 0.447863 -0.000931 0.237518
v 0.543487 -0.020134 0.230512
v 0.629389 -0.037383 0.185157
v 0.692364 -0.050029 0.108390
v 0.722835 -0.056148 0.011908
v 0.716232 -0.054822 -0.089655
v 0.722835 -0.056148 0.011908
v 0.673499 -0.046241 -0.180744
v 0.601165 -0.031716 -0.247580
v 0.510259 -0.013461 -0.279920
v 0.414563 0.005756 -0.272914
v 0.328734 0.022991 -0.227562
v 0.265759 0.035637 -0.150792
v 0.235287 0.041756 -0.054310
v 0.241891 0.040430 0.047174
v 0.235287 0.041756 -0.054310
v 0.392225 0.057638 0.156668
v 0.335416 0.069046 0.104155
v 0.463688 0.043288 0.182079
v 0.538851 0.028194 0.176533
v 0.606325 0.014645 0.140959
v 0.655805 0.004709 0.080592
v 0.679748 -0.000099 0.004824
v 0.674523 0.000950 -0.074948
v 0.679748 -0.000099 0.004824
v 0.641004 0.007681 -0.146557
v 0.584124 0.019103 -0.199070
v 0.512733 0.033439 -0.224481
v 0.437569 0.048533 -0.218938
v 0.370098 0.062082 -0.183364
v 0.320615 0.072018 -0.123073
v 0.296675 0.076826 -0.047229
v 0.301826 0.075791 0.032546
v 0.296675 0.076826 -0.047229
v 0.428914 0.085495 0.101306
v 0.389736 0.093363 0.065115
v 0.478106 0.075617 0.118786
v 0.529908 0.065215 0.115011
v 0.576340 0.055891 0.090449
v 0.610440 0.049043 0.048945
v 0.626908 0.045736 -0.003260
v 0.623354 0.046450 -0.058238
v 0.626908 0.045736 -0.003260
v 0.600208 0.051098 -0.107517
v 0.561104 0.058950 -0.143708
v 0.511915 0.068828 -0.161264
v 0.460111 0.079231 -0.157413
v 0.413679 0.088555 -0.132851
v 0.379579 0.095402 -0.091347
v 0.363039 0.098724 -0.039142
v 0.366665 0.097996 0.015836
v 0.363039 0.098724 -0.039142
v 0.485032 0.423582 0.122328
v 0.522992 0.416039 0.051950
v 0.499630 0.420730 0.030390
v 0.439106 0.432804 0.079978
v 0.542638 0.412014 0.142886
v 0.552376 0.410138 0.062421
v 0.603290 0.399834 0.138419
v 0.583282 0.403932 0.060189
v 0.657776 0.388893 0.109621
v 0.611069 0.398352 0.045482
v 0.697680 0.380880 0.060959
v 0.631383 0.394273 0.020688
v 0.717051 0.376990 -0.000182
v 0.641250 0.392291 -0.010497
v 0.712844 0.377835 -0.064553
v 0.639146 0.392714 -0.043301
v 0.685710 0.383284 -0.122380
v 0.625289 0.395496 -0.072792
v 0.639856 0.392491 -0.164730
v 0.601927 0.400188 -0.094352
v 0.582251 0.404059 -0.185288
v 0.572543 0.406088 -0.104823
v 0.521598 0.416239 -0.180824
v 0.541637 0.412294 -0.102591
v 0.467112 0.427180 -0.152103
v 0.513850 0.417874 -0.087884
v 0.427208 0.435193 -0.103361
v 0.493536 0.421954 -0.063090
v 0.407838 0.439083 -0.042223
v 0.483669 0.423935 -0.031905
v 0.412044 0.438238 0.022151
v 0.485773 0.423512 0.000896
v 0.359073 -0.604727 -0.021201
v 0.359073 -0.604727 -0.021201
v 0.562465 0.408136 -0.021201
v 0.435032 0.096415 0.094377
v 0.398103 0.103831 0.060265
v 0.481392 0.087106 0.110855
v 0.530221 0.077300 0.107312
v 0.574113 0.068486 0.084134
v 0.606254 0.062032 0.044941
v 0.621780 0.058914 -0.004261
v 0.618442 0.059585 -0.056158
v 0.621780 0.058914 -0.004261
v 0.596606 0.063970 -0.102667
v 0.559677 0.071385 -0.136779
v 0.513245 0.080709 -0.153257
v 0.464415 0.090515 -0.149714
v 0.420596 0.099314 -0.126536
v 0.388455 0.105768 -0.087343
v 0.372929 0.108886 -0.038141
v 0.376267 0.108216 0.013756
v 0.372929 0.108886 -0.038141
v 0.574082 0.368268 -0.177510
v 0.577210 0.374068 -0.193604
v 0.637790 0.361903 -0.172044
v 0.629005 0.357239 -0.157954
v 0.686036 0.352215 -0.127461
v 0.672681 0.348468 -0.117607
v 0.714479 0.346503 -0.066785
v 0.698508 0.343282 -0.062550
v 0.718904 0.345614 0.000896
v 0.702499 0.342480 -0.001180
v 0.702499 0.342480 -0.001180
v 0.718904 0.345614 0.000896
v 0.698590 0.349694 0.065115
v 0.684070 0.346181 0.057108
v 0.656580 0.358130 0.116321
v 0.645982 0.353830 0.103462
v 0.599409 0.369610 0.146505
v 0.594180 0.364232 0.130873
v 0.535637 0.382416 0.151202
v 0.536356 0.375844 0.135108
v 0.475057 0.394581 0.129642
v 0.481435 0.386872 0.115552
v 0.426883 0.404255 0.085059
v 0.437757 0.395643 0.075202
v 0.398443 0.409966 0.024383
v 0.411929 0.400830 0.020148
v 0.394018 0.410855 -0.043301
v 0.407938 0.401631 -0.041222
v 0.407938 0.401631 -0.041222
v 0.394018 0.410855 -0.043301
v 0.414332 0.406775 -0.107596
v 0.426368 0.397930 -0.099510
v 0.456265 0.398355 -0.158723
v 0.464384 0.390296 -0.145864
v 0.513510 0.386860 -0.188907
v 0.516258 0.379880 -0.173278
v 0.642274 0.373334 -0.175971
v 0.691754 0.363398 -0.130234
v 0.720922 0.357541 -0.067940
v 0.725491 0.356623 0.001437
v 0.725491 0.356623 0.001437
v 0.704595 0.360819 0.067427
v 0.661573 0.369458 0.119864
v 0.602880 0.381245 0.150817
v 0.537511 0.394371 0.155667
v 0.475334 0.406857 0.133493
v 0.425926 0.416779 0.087829
v 0.396686 0.422650 0.025538
v 0.392189 0.423553 -0.043839
v 0.392189 0.423553 -0.043839
v 0.413012 0.419372 -0.109829
v 0.456107 0.410718 -0.162266
v 0.514800 0.398932 -0.193219
v 0.580171 0.385805 -0.198072
v 0.642625 0.384473 -0.172429
v 0.639856 0.392491 -0.164730
v 0.685710 0.383284 -0.122380
v 0.690945 0.374770 -0.127770
v 0.712844 0.377835 -0.064553
v 0.719457 0.369044 -0.066938
v 0.717051 0.376990 -0.000182
v 0.723883 0.368156 0.000896
v 0.723883 0.368156 0.000896
v 0.717051 0.376990 -0.000182
v 0.697680 0.380880 0.060959
v 0.703496 0.372249 0.065423
v 0.657776 0.388893 0.109621
v 0.661414 0.380700 0.116706
v 0.603290 0.399834 0.138419
v 0.604100 0.392209 0.146966
v 0.542638 0.412014 0.142886
v 0.540181 0.405045 0.151663
v 0.485032 0.423582 0.122328
v 0.479382 0.417254 0.130027
v 0.439106 0.432804 0.079978
v 0.431065 0.426956 0.085368
v 0.412044 0.438238 0.022151
v 0.402550 0.432682 0.024536
v 0.407838 0.439083 -0.042223
v 0.398125 0.433571 -0.043301
v 0.398125 0.433571 -0.043301
v 0.407838 0.439083 -0.042223
v 0.427208 0.435193 -0.103361
v 0.418511 0.429477 -0.107825
v 0.467112 0.427180 -0.152103
v 0.460593 0.421027 -0.159108
v 0.521598 0.416239 -0.180824
v 0.517908 0.409517 -0.189368
v 0.582251 0.404059 -0.185288
v 0.581826 0.396682 -0.194065
v 0.615033 0.315477 -0.148020
v 0.655590 0.307332 -0.110598
v 0.679530 0.302525 -0.059548
v 0.683230 0.301782 -0.002643
v 0.683230 0.301782 -0.002643
v 0.666110 0.305220 0.051409
v 0.630847 0.312301 0.094453
v 0.582746 0.321960 0.119864
v 0.529132 0.332726 0.123791
v 0.478199 0.342954 0.105618
v 0.437645 0.351098 0.068196
v 0.413702 0.355906 0.017146
v 0.410002 0.356649 -0.039759
v 0.410002 0.356649 -0.039759
v 0.427050 0.353225 -0.093811
v 0.462385 0.346130 -0.136855
v 0.510486 0.336471 -0.162266
v 0.564101 0.325704 -0.166193
v 0.515465 0.093270 -0.150560
v 0.547658 0.251335 -0.154259
v 0.594453 0.241938 -0.137625
v 0.560881 0.084149 -0.134391
v 0.631600 0.234478 -0.103284
v 0.597085 0.076880 -0.100973
v 0.653583 0.230064 -0.056390
v 0.618415 0.072596 -0.055388
v 0.656993 0.229379 -0.004185
v 0.621753 0.071926 -0.004646
v 0.621753 0.071926 -0.004646
v 0.656993 0.229379 -0.004185
v 0.641322 0.232526 0.045482
v 0.606517 0.074985 0.043555
v 0.608963 0.239024 0.084983
v 0.575029 0.081308 0.081978
v 0.564781 0.247896 0.108235
v 0.532079 0.089933 0.104616
v 0.515589 0.257774 0.111854
v 0.484265 0.099535 0.108158
v 0.468794 0.267171 0.095222
v 0.438776 0.108669 0.091989
v 0.431575 0.274645 0.060879
v 0.402645 0.115925 0.058571
v 0.409592 0.279060 0.013988
v 0.381315 0.120208 0.012986
v 0.406254 0.279730 -0.038217
v 0.377977 0.120878 -0.037756
v 0.377977 0.120878 -0.037756
v 0.406254 0.279730 -0.038217
v 0.421924 0.276583 -0.087884
v 0.393213 0.117819 -0.085957
v 0.454283 0.270085 -0.127385
v 0.424700 0.111496 -0.124380
v 0.498469 0.261212 -0.150640
v 0.467651 0.102871 -0.147018
vn -0.3638 0.4971 0.7877
vn 0.0927 0.9667 0.2386
vn -0.0127 0.9884 0.1512
vn -0.6370 0.5486 0.5415
vn -0.0169 0.4171 0.9087
vn 0.2134 0.9363 0.2790
vn 0.3514 0.3340 0.8746
vn 0.3495 0.8994 0.2627
vn 0.6692 0.2493 0.7000
vn 0.4592 0.8642 0.2058
vn 0.8838 0.1855 0.4295
vn 0.5366 0.8376 0.1026
vn 0.9848 0.1478 0.0915
vn 0.5673 0.8235 -0.0079
vn 0.9589 0.1450 -0.2437
vn 0.5585 0.8185 -0.1343
vn 0.8063 0.1801 -0.5635
vn 0.5028 0.8312 -0.2374
vn 0.9589 0.1449 -0.2438
vn 0.5541 0.2355 -0.7984
vn 0.4073 0.8533 -0.3255
vn 0.2143 0.3150 -0.9246
vn 0.2952 0.8830 -0.3649
vn -0.1448 0.4013 -0.9044
vn 0.1671 0.9161 -0.3646
vn -0.4678 0.4795 -0.7425
vn 0.0556 0.9491 -0.3100
vn -0.7013 0.5362 -0.4697
vn -0.0321 0.9761 -0.2149
vn -0.8137 0.5646 -0.1379
vn -0.0790 0.9923 -0.0954
vn -0.7897 0.5724 0.2207
vn -0.0694 0.9971 0.0317
vn 0.2775 0.9591 -0.0560
vn 0.2774 0.9591 -0.0560
vn -0.1969 -0.9804 -0.0000
vn -0.1968 -0.9804 -0.0001
vn -0.5025 -0.5944 0.6278
vn -0.7140 -0.5474 0.4366
vn -0.2321 -0.6542 0.7198
vn -0.1969 -0.9804 -0.0001
vn 0.0585 -0.7141 0.6976
vn 0.3152 -0.7610 0.5670
vn 0.4969 -0.7931 0.3522
vn 0.5868 -0.8044 0.0930
vn -0.1970 -0.9804 -0.0000
vn 0.5657 -0.8032 -0.1868
vn 0.4415 -0.7827 -0.4387
vn 0.2279 -0.7467 -0.6250
vn -0.0384 -0.6931 -0.7198
vn -0.3297 -0.6361 -0.6976
vn -0.5846 -0.5803 -0.5670
vn -0.7664 -0.5340 -0.3571
vn -0.8518 -0.5155 -0.0930
vn -0.1968 -0.9804 -0.0000
vn -0.8350 -0.5180 0.1857
vn -0.5025 -0.5945 0.6278
vn -0.5225 0.0025 0.8526
vn -0.8028 0.0683 0.5924
vn -0.7139 -0.5475 0.4366
vn -0.2321 -0.6543 0.7198
vn -0.1566 -0.0717 0.9851
vn 0.0585 -0.7142 0.6975
vn 0.2352 -0.1580 0.9590
vn 0.3152 -0.7611 0.5670
vn 0.5884 -0.2275 0.7759
vn 0.4968 -0.7932 0.3521
vn 0.8292 -0.2821 0.4825
vn 0.9448 -0.3043 0.1213
vn 0.5656 -0.8033 -0.1868
vn 0.9208 -0.2993 -0.2500
vn 0.4414 -0.7828 -0.4387
vn 0.7606 -0.2687 -0.5910
vn 0.9208 -0.2993 -0.2501
vn 0.2279 -0.7467 -0.6249
vn 0.4791 -0.2142 -0.8512
vn -0.0384 -0.6932 -0.7198
vn 0.1056 -0.1402 -0.9845
vn -0.3296 -0.6362 -0.6976
vn -0.2940 -0.0591 -0.9540
vn -0.5846 -0.5804 -0.5670
vn -0.6353 0.0187 -0.7720
vn -0.7663 -0.5340 -0.3571
vn -0.8780 0.0686 -0.4736
vn -0.9877 0.0989 -0.1215
vn -0.9635 0.0942 0.2504
vn 0.0557 0.9491 -0.3099
vn 0.1671 0.9161 -0.3645
vn 0.2952 0.8831 -0.3648
vn 0.4072 0.8534 -0.3254
vn 0.5584 0.8186 -0.1343
vn 0.5366 0.8376 0.1025
vn 0.4591 0.8642 0.2058
vn 0.3495 0.8994 0.2626
vn 0.2134 0.9363 0.2789
vn -0.3275 -0.9141 0.2392
vn -0.4086 -0.8972 0.1674
vn -0.2220 -0.9365 0.2715
vn -0.1160 -0.9576 0.2636
vn -0.0183 -0.9763 0.2154
vn 0.0548 -0.9893 0.1354
vn 0.0874 -0.9957 0.0319
vn 0.0794 -0.9943 -0.0717
vn 0.0874 -0.9957 0.0318
vn 0.0306 -0.9854 -0.1674
vn -0.0508 -0.9696 -0.2392
vn -0.1567 -0.9496 -0.2715
vn -0.2627 -0.9282 -0.2636
vn -0.3601 -0.9077 -0.2155
vn -0.4325 -0.8914 -0.1354
vn -0.4650 -0.8847 -0.0319
vn -0.4571 -0.8865 0.0717
vn -0.4650 -0.8847 -0.0318
vn -0.4518 -0.7453 0.4903
vn -0.6173 -0.7067 0.3457
vn -0.2349 -0.7919 0.5636
vn -0.0081 -0.8369 0.5473
vn 0.1930 -0.8722 0.4494
vn 0.3366 -0.8982 0.2828
vn 0.4077 -0.9104 0.0706
vn 0.3920 -0.9078 -0.1490
vn 0.4077 -0.9104 0.0705
vn 0.2966 -0.8902 -0.3457
vn 0.1290 -0.8620 -0.4903
vn -0.0890 -0.8212 -0.5636
vn -0.3155 -0.7752 -0.5473
vn -0.5148 -0.7301 -0.4494
vn -0.6572 -0.6986 -0.2828
vn -0.7276 -0.6824 -0.0706
vn -0.7121 -0.6861 0.1489
vn -0.7276 -0.6824 -0.0705
vn -0.4973 -0.6052 0.6216
vn -0.7096 -0.5582 0.4301
vn -0.2258 -0.6642 0.7126
vn 0.0569 -0.7218 0.6897
vn 0.3052 -0.7658 0.5660
vn 0.4927 -0.7966 0.3503
vn 0.5782 -0.8114 0.0854
vn 0.5565 -0.8096 -0.1869
vn 0.5782 -0.8114 0.0853
vn 0.4390 -0.7888 -0.4301
vn 0.2251 -0.7503 -0.6215
vn -0.0400 -0.7010 -0.7121
vn -0.3312 -0.6439 -0.6897
vn -0.5771 -0.5886 -0.5660
vn -0.7620 -0.5446 -0.3503
vn -0.8460 -0.5249 -0.0931
vn -0.8259 -0.5320 0.1869
vn -0.8460 -0.5249 -0.0930
vn -0.5304 -0.4459 0.7210
vn -0.7701 -0.3915 0.5036
vn -0.2125 -0.5148 0.8305
vn 0.1182 -0.5804 0.8057
vn 0.4113 -0.6327 0.6562
vn 0.6201 -0.6691 0.4095
vn 0.7197 -0.6870 0.1001
vn 0.6974 -0.6834 -0.2159
vn 0.7197 -0.6870 0.1000
vn 0.5592 -0.6585 -0.5037
vn 0.3171 -0.6160 -0.7211
vn 0.0054 -0.5581 -0.8298
vn -0.3331 -0.4898 -0.8057
vn -0.6236 -0.4248 -0.6562
vn -0.8304 -0.3779 -0.4095
vn -0.9292 -0.3559 -0.1001
vn -0.9071 -0.3612 0.2159
vn -0.9292 -0.3559 -0.1000
vn -0.5367 -0.2709 0.7991
vn -0.8041 -0.2115 0.5555
vn -0.1937 -0.3411 0.9199
vn 0.1759 -0.4167 0.8918
vn 0.4990 -0.4765 0.7239
vn 0.7292 -0.5185 0.4465
vn 0.8368 -0.5356 0.1141
vn 0.8119 -0.5334 -0.2375
vn 0.8368 -0.5356 0.1140
vn 0.6601 -0.5056 -0.5555
vn 0.3905 -0.4571 -0.7991
vn 0.0470 -0.3894 -0.9199
vn -0.3232 -0.3165 -0.8918
vn -0.6441 -0.2470 -0.7239
vn -0.8729 -0.1968 -0.4465
vn -0.9786 -0.1710 -0.1141
vn -0.9548 -0.1786 0.2375
vn -0.9786 -0.1710 -0.1140
vn -0.5313 -0.0896 0.8425
vn -0.8119 -0.0300 0.5830
vn -0.1661 -0.1640 0.9724
vn 0.2264 -0.2433 0.9432
vn 0.5630 -0.3080 0.7669
vn 0.8084 -0.3475 0.4750
vn 0.9192 -0.3748 0.1209
vn 0.8941 -0.3710 -0.2510
vn 0.7374 -0.3411 -0.5830
vn 0.4555 -0.2878 -0.8425
vn 0.0899 -0.2155 -0.9724
vn -0.3028 -0.1370 -0.9432
vn -0.6383 -0.0668 -0.7669
vn -0.8802 -0.0158 -0.4744
vn -0.9926 0.0091 -0.1209
vn -0.9680 0.0030 0.2510
vn -0.5019 0.1008 0.8590
vn -0.7845 0.1575 0.5998
vn -0.1286 0.0258 0.9914
vn 0.2636 -0.0530 0.9632
vn 0.6141 -0.1233 0.7795
vn 0.8590 -0.1725 0.4821
vn 0.9732 -0.1954 0.1212
vn 0.9494 -0.1906 -0.2497
vn 0.9732 -0.1954 0.1211
vn 0.7845 -0.1575 -0.5998
vn 0.5017 -0.1007 -0.8591
vn 0.1284 -0.0258 -0.9914
vn -0.2637 0.0529 -0.9632
vn -0.6179 0.1241 -0.7764
vn -0.8589 0.1725 -0.4822
vn -0.9732 0.1954 -0.1212
vn -0.9494 0.1906 0.2497
vn -0.9732 0.1954 -0.1211
vn -0.4555 0.2878 0.8425
vn -0.7374 0.3411 0.5830
vn -0.0899 0.2155 0.9724
vn 0.3028 0.1370 0.9432
vn 0.6383 0.0668 0.7669
vn 0.8799 0.0084 0.4750
vn 0.9926 -0.0091 0.1209
vn 0.9680 -0.0030 -0.2510
vn 0.9926 -0.0091 0.1208
vn 0.8119 0.0300 -0.5830
vn 0.5313 0.0897 -0.8424
vn 0.1661 0.1640 -0.9724
vn -0.2264 0.2433 -0.9432
vn -0.5630 0.3080 -0.7669
vn -0.8058 0.3544 -0.4744
vn -0.9192 0.3748 -0.1210
vn -0.8941 0.3710 0.2510
vn -0.9192 0.3748 -0.1209
vn -0.3905 0.4571 0.7991
vn -0.6601 0.5056 0.5555
vn -0.0470 0.3894 0.9199
vn 0.3232 0.3165 0.8918
vn 0.6442 0.2469 0.7239
vn 0.8729 0.1968 0.4465
vn 0.9786 0.1710 0.1141
vn 0.9548 0.1786 -0.2375
vn 0.9786 0.1710 0.1140
vn 0.8041 0.2115 -0.5556
vn 0.5366 0.2709 -0.7991
vn 0.1937 0.3411 -0.9199
vn -0.1759 0.4167 -0.8918
vn -0.4990 0.4764 -0.7239
vn -0.7292 0.5185 -0.4465
vn -0.8367 0.5356 -0.1141
vn -0.8119 0.5333 0.2375
vn -0.8368 0.5356 -0.1140
vn -0.3171 0.6161 0.7211
vn -0.5590 0.6586 0.5038
vn 0.0027 0.5570 0.8305
vn 0.3331 0.4898 0.8057
vn 0.6238 0.4249 0.6561
vn 0.8304 0.3778 0.4095
vn 0.9291 0.3559 0.1001
vn 0.9071 0.3612 -0.2159
vn 0.9292 0.3559 0.1000
vn 0.7700 0.3916 -0.5038
vn 0.5304 0.4459 -0.7210
vn 0.2204 0.5127 -0.8298
vn -0.1182 0.5805 -0.8057
vn -0.4113 0.6326 -0.6562
vn -0.6201 0.6691 -0.4095
vn -0.7197 0.6870 -0.1001
vn -0.6973 0.6834 0.2159
vn -0.7197 0.6870 -0.1000
vn -0.2251 0.7503 0.6215
vn -0.4391 0.7888 0.4300
vn 0.0481 0.6999 0.7126
vn 0.3312 0.6439 0.6897
vn 0.5772 0.5886 0.5660
vn 0.7620 0.5446 0.3503
vn 0.8466 0.5253 0.0854
vn 0.8259 0.5320 -0.1868
vn 0.8466 0.5253 0.0853
vn 0.7095 0.5582 -0.4301
vn 0.4973 0.6052 -0.6216
vn 0.2337 0.6621 -0.7121
vn -0.0569 0.7218 -0.6897
vn -0.3052 0.7658 -0.5661
vn -0.4927 0.7966 -0.3503
vn -0.5778 0.8109 -0.0931
vn -0.5564 0.8096 0.1869
vn -0.5778 0.8109 -0.0930
vn -0.1290 0.8619 0.4903
vn -0.2965 0.8902 0.3457
vn 0.0890 0.8212 0.5636
vn 0.3155 0.7752 0.5473
vn 0.5148 0.7301 0.4494
vn 0.6572 0.6986 0.2828
vn 0.7276 0.6824 0.0706
vn 0.7121 0.6861 -0.1489
vn 0.7276 0.6824 0.0705
vn 0.6172 0.7068 -0.3457
vn 0.4517 0.7453 -0.4903
vn 0.2349 0.7919 -0.5636
vn 0.0082 0.8369 -0.5473
vn -0.1930 0.8723 -0.4493
vn -0.3366 0.8982 -0.2828
vn -0.4077 0.9104 -0.0706
vn -0.3920 0.9078 0.1490
vn -0.4077 0.9104 -0.0705
vn -0.1833 0.8013 0.5695
vn -0.3749 0.8357 0.4012
vn 0.0672 0.7552 0.6521
vn 0.3259 0.7010 0.6343
vn 0.5585 0.6515 0.5135
vn 0.7220 0.6127 0.3214
vn 0.7999 0.5951 0.0782
vn 0.7831 0.5977 -0.1718
vn 0.7999 0.5951 0.0781
vn 0.6685 0.6262 -0.4012
vn 0.4784 0.6685 -0.5695
vn 0.2374 0.7204 -0.6516
vn -0.0300 0.7725 -0.6343
vn -0.2636 0.8166 -0.5135
vn -0.4295 0.8439 -0.3214
vn -0.5078 0.8572 -0.0860
vn -0.4917 0.8537 0.1718
vn -0.5078 0.8572 -0.0859
vn -0.0042 0.9454 0.3259
vn 0.1969 0.9804 -0.0000
vn -0.1175 0.9661 0.2300
vn 0.1337 0.9179 0.3737
vn 0.2803 0.8904 0.3586
vn 0.4171 0.8600 0.2939
vn 0.5132 0.8387 0.1823
vn 0.5604 0.8269 0.0474
vn 0.5458 0.8325 -0.0952
vn 0.4813 0.8458 -0.2300
vn 0.3688 0.8705 -0.3259
vn 0.2310 0.8983 -0.3737
vn 0.1969 0.9804 -0.0001
vn 0.0852 0.9296 -0.3586
vn -0.0528 0.9544 -0.2939
vn -0.1497 0.9718 -0.1823
vn -0.1977 0.9791 -0.0474
vn -0.1822 0.9787 0.0951
vn -0.1969 -0.9804 0.0001
vn -0.3849 0.4785 0.7892
vn -0.6488 0.5272 0.5488
vn -0.0426 0.4145 0.9091
vn 0.3198 0.3411 0.8840
vn 0.6419 0.2714 0.7172
vn 0.8677 0.2203 0.4456
vn 0.9736 0.1974 0.1148
vn 0.9502 0.2021 -0.2372
vn 0.9736 0.1974 0.1147
vn 0.8020 0.2359 -0.5488
vn 0.5398 0.2929 -0.7892
vn 0.1993 0.3659 -0.9091
vn -0.1633 0.4381 -0.8840
vn -0.4874 0.4981 -0.7172
vn -0.7154 0.5382 -0.4456
vn -0.8219 0.5580 -0.1148
vn -0.7999 0.5543 0.2300
vn -0.8219 0.5580 -0.1147
vn -0.0355 -0.6812 -0.7313
vn 0.2384 -0.7312 -0.6392
vn 0.2252 -0.7503 -0.6216
vn 0.4592 -0.7687 -0.4453
vn 0.4376 -0.7862 -0.4364
vn 0.5837 -0.7902 -0.1865
vn 0.5612 -0.8065 -0.1858
vn 0.6003 -0.7943 0.0934
vn 0.5778 -0.8109 0.0930
vn 0.5778 -0.8109 0.0931
vn 0.5143 -0.7789 0.3589
vn 0.4927 -0.7965 0.3503
vn 0.3255 -0.7457 0.5814
vn 0.3120 -0.7646 0.5640
vn 0.0616 -0.6984 0.7130
vn 0.0567 -0.7179 0.6939
vn -0.2302 -0.6421 0.7313
vn -0.2337 -0.6621 0.7121
vn -0.5022 -0.5825 0.6392
vn -0.4974 -0.6052 0.6216
vn -0.7203 -0.5318 0.4453
vn -0.7072 -0.5563 0.4364
vn -0.8435 -0.5036 0.1865
vn -0.8291 -0.5273 0.1858
vn -0.8604 -0.5010 -0.0934
vn -0.7751 -0.5200 -0.3589
vn -0.7621 -0.5445 -0.3503
vn -0.5882 -0.5622 -0.5813
vn -0.5830 -0.5849 -0.5640
vn -0.3264 -0.6205 -0.7130
vn -0.3294 -0.6403 -0.6939
vn 0.5019 -0.1008 -0.8590
vn 0.9494 -0.1907 -0.2497
vn 0.8589 -0.1725 0.4822
vn 0.2636 -0.0529 0.9632
vn -0.1284 0.0258 0.9914
vn -0.5019 0.1007 0.8590
vn -0.8589 0.1724 -0.4822
vn -0.6178 0.1241 -0.7765
vn -0.2636 0.0529 -0.9632
vn 0.5258 0.4630 -0.7136
vn 0.3689 0.8704 -0.3260
vn 0.4814 0.8458 -0.2301
vn 0.7656 0.4089 -0.4967
vn 0.5459 0.8324 -0.0952
vn 0.9022 0.3777 -0.2082
vn 0.5605 0.8268 0.0474
vn 0.9229 0.3718 0.0999
vn 0.5605 0.8268 0.0475
vn 0.5133 0.8386 0.1823
vn 0.8261 0.3948 0.4022
vn 0.4172 0.8600 0.2939
vn 0.6196 0.4422 0.6485
vn 0.3280 0.5065 0.7974
vn 0.1337 0.9178 0.3738
vn 0.0057 0.5711 0.8209
vn -0.0042 0.9454 0.3260
vn -0.3063 0.6300 0.7136
vn -0.1175 0.9661 0.2301
vn -0.5485 0.6727 0.4966
vn -0.1822 0.9786 0.0952
vn -0.6865 0.6967 0.2082
vn -0.1978 0.9791 -0.0474
vn -0.7078 0.6993 -0.0999
vn -0.7078 0.6993 -0.1000
vn -0.1978 0.9791 -0.0475
vn -0.1498 0.9718 -0.1823
vn -0.6097 0.6831 -0.4021
vn -0.0529 0.9544 -0.2939
vn -0.4010 0.6470 -0.6486
vn -0.1070 0.5939 -0.7974
vn 0.2151 0.5290 -0.8209
vn 0.4533 -0.2949 -0.8412
vn 0.7316 -0.3487 -0.5858
vn 0.8913 -0.3778 -0.2506
vn 0.9157 -0.3830 0.1216
vn 0.9157 -0.3830 0.1217
vn 0.8032 -0.3613 0.4737
vn 0.5639 -0.3170 0.7625
vn 0.2245 -0.2505 0.9417
vn -0.1686 -0.1727 0.9704
vn -0.5320 -0.0971 0.8412
vn -0.8095 -0.0392 0.5858
vn -0.9681 -0.0044 0.2506
vn -0.9926 0.0002 -0.1216
vn -0.9926 0.0002 -0.1217
vn -0.8804 -0.0233 -0.4737
vn -0.6426 -0.0747 -0.7626
vn -0.3038 -0.1444 -0.9417
vn 0.0889 -0.2244 -0.9704
vn 0.1473 0.0659 -0.9869
vn 0.1105 -0.1176 -0.9869
vn 0.4817 -0.1906 -0.8554
vn 0.5179 -0.0100 -0.8554
vn 0.7669 -0.2469 -0.5924
vn 0.8028 -0.0683 -0.5924
vn 0.9273 -0.2779 -0.2506
vn 0.9628 -0.1016 -0.2506
vn 0.9514 -0.2829 0.1216
vn 0.9869 -0.1063 0.1216
vn 0.9869 -0.1064 0.1216
vn 0.8376 -0.2603 0.4802
vn 0.8732 -0.0832 0.4802
vn 0.5923 -0.2128 0.7771
vn 0.6286 -0.0323 0.7771
vn 0.2462 -0.1443 0.9584
vn 0.2828 0.0382 0.9584
vn -0.1473 -0.0658 0.9869
vn -0.1104 0.1176 0.9869
vn -0.5179 0.0101 0.8554
vn -0.4816 0.1908 0.8554
vn -0.8028 0.0682 0.5924
vn -0.7669 0.2469 0.5924
vn -0.9628 0.1016 0.2506
vn -0.9273 0.2780 0.2506
vn -0.9869 0.1063 -0.1216
vn -0.9514 0.2829 -0.1216
vn -0.9869 0.1064 -0.1216
vn -0.8732 0.0833 -0.4802
vn -0.8376 0.2603 -0.4802
vn -0.6286 0.0324 -0.7771
vn -0.5923 0.2128 -0.7771
vn -0.2828 -0.0381 -0.9584
vn -0.2462 0.1444 -0.9584
vt 0.884608 0.830983
vt 0.881782 0.830275
vt 0.890359 0.805537
vt 0.892868 0.806316
vt 0.880431 0.854875
vt 0.877501 0.854158
vt 0.877945 0.878372
vt 0.874912 0.877564
vt 0.876315 0.904828
vt 0.873215 0.904150
vt 0.874666 0.933162
vt 0.871549 0.932533
vt 0.872484 0.961906
vt 0.869273 0.961085
vt 0.868589 0.989600
vt 0.865336 0.988409
vt 0.893269 0.598205
vt 0.889915 0.598805
vt 0.886391 0.571452
vt 0.889602 0.570456
vt 0.893903 0.625888
vt 0.890637 0.626306
vt 0.893550 0.653198
vt 0.890350 0.653563
vt 0.892623 0.679654
vt 0.889507 0.679939
vt 0.892216 0.705113
vt 0.889152 0.705252
vt 0.893118 0.729887
vt 0.890040 0.730306
vt 0.897539 0.754624
vt 0.894604 0.754845
vt 0.897820 0.780863
vt 0.895037 0.780572
vt 0.863628 0.792754
vt 0.857219 0.805052
vt 0.834077 0.775072
vt 0.846339 0.813038
vt 0.832553 0.814158
vt 0.818556 0.810044
vt 0.807062 0.800322
vt 0.799843 0.786954
vt 0.798307 0.771711
vt 0.802610 0.756997
vt 0.812060 0.745176
vt 0.825028 0.737860
vt 0.839383 0.736187
vt 0.852488 0.739981
vt 0.861572 0.749047
vt 0.865900 0.762416
vt 0.866409 0.778000
vt 0.151054 0.050961
vt 0.151055 0.043375
vt 0.169383 0.039734
vt 0.169378 0.054598
vt 0.148152 0.036376
vt 0.163692 0.025992
vt 0.142792 0.031013
vt 0.153185 0.015476
vt 0.135792 0.028103
vt 0.139448 0.009780
vt 0.128214 0.028099
vt 0.124578 0.009780
vt 0.121217 0.031000
vt 0.110836 0.015471
vt 0.115846 0.036367
vt 0.100316 0.025973
vt 0.112941 0.043363
vt 0.094627 0.039709
vt 0.112942 0.050944
vt 0.094616 0.054581
vt 0.115844 0.057947
vt 0.100303 0.068323
vt 0.121203 0.063306
vt 0.110820 0.078837
vt 0.128205 0.066219
vt 0.124552 0.084528
vt 0.135784 0.066225
vt 0.139421 0.084533
vt 0.142787 0.063326
vt 0.153165 0.078853
vt 0.148156 0.057958
vt 0.163674 0.068346
vt 0.132000 0.047152
vt 0.976794 0.839426
vt 0.922852 0.836089
vt 0.928168 0.810548
vt 0.980907 0.812994
vt 0.971963 0.865805
vt 0.918090 0.861366
vt 0.967145 0.893142
vt 0.913994 0.886879
vt 0.962535 0.919635
vt 0.910259 0.912894
vt 0.958182 0.945779
vt 0.906640 0.939594
vt 0.954046 0.971693
vt 0.902847 0.966827
vt 0.950743 0.998064
vt 0.898994 0.993286
vt 0.973515 0.597247
vt 0.922706 0.596989
vt 0.920984 0.570074
vt 0.973254 0.571302
vt 0.974675 0.623406
vt 0.924259 0.624062
vt 0.976149 0.650025
vt 0.925485 0.651139
vt 0.977860 0.676610
vt 0.926491 0.677622
vt 0.979721 0.703244
vt 0.927598 0.703316
vt 0.981467 0.730051
vt 0.929076 0.728672
vt 0.982821 0.757293
vt 0.931157 0.754906
vt 0.982821 0.785083
vt 0.931631 0.782882
vt 0.869608 0.711388
vt 0.845119 0.703792
vt 0.817234 0.706436
vt 0.792001 0.719597
vt 0.774020 0.741471
vt 0.765902 0.768581
vt 0.768956 0.796857
vt 0.782717 0.821686
vt 0.805154 0.839325
vt 0.832385 0.847006
vt 0.859975 0.843935
vt 0.697776 0.026915
vt 0.684740 0.059117
vt 0.655911 0.050447
vt 0.681735 0.021273
vt 0.714801 0.028375
vt 0.715721 0.061616
vt 0.732132 0.026370
vt 0.746170 0.058796
vt 0.747649 0.021224
vt 0.774812 0.051497
vt 0.759653 0.015306
vt 0.801606 0.037867
vt 0.766672 0.007630
vt 0.813658 0.020886
vt 0.219736 0.304505
vt 0.180710 0.324155
vt 0.167584 0.307352
vt 0.215498 0.296138
vt 0.231356 0.311101
vt 0.205715 0.340795
vt 0.247751 0.317533
vt 0.233910 0.349178
vt 0.265770 0.320758
vt 0.265595 0.353639
vt 0.284869 0.319261
vt 0.296695 0.351330
vt 0.301489 0.314074
vt 0.326872 0.341129
vt 0.313031 0.307509
vt 0.350694 0.329505
vt 0.318186 0.297968
vt 0.364433 0.312861
vt 0.669564 0.011987
vt 0.634212 0.036028
vt 0.620863 0.016529
vt 0.664638 0.003900
vt 0.674264 0.092862
vt 0.634574 0.078293
vt 0.715993 0.097152
vt 0.757237 0.092758
vt 0.796620 0.082926
vt 0.834405 0.065308
vt 0.857622 0.042801
vt 0.150653 0.355629
vt 0.124620 0.329372
vt 0.184289 0.371927
vt 0.223970 0.381947
vt 0.266121 0.388640
vt 0.307793 0.388029
vt 0.346123 0.370388
vt 0.383834 0.354668
vt 0.406951 0.337615
vt 0.598945 0.061163
vt 0.576137 0.040385
vt 0.663842 0.132646
vt 0.616344 0.120565
vt 0.714885 0.137534
vt 0.765951 0.132776
vt 0.812894 0.120124
vt 0.861121 0.095616
vt 0.893829 0.077362
vt 0.117082 0.383721
vt 0.087390 0.364459
vt 0.166679 0.406982
vt 0.216267 0.423007
vt 0.265794 0.427833
vt 0.316758 0.425752
vt 0.364046 0.411763
vt 0.411081 0.392029
vt 0.446479 0.371065
vt 0.568478 0.097188
vt 0.532544 0.077357
vt 0.656762 0.172067
vt 0.601291 0.158989
vt 0.713695 0.176091
vt 0.771528 0.171424
vt 0.825682 0.161188
vt 0.882869 0.135752
vt 0.925329 0.116942
vt 0.097441 0.426243
vt 0.051330 0.403278
vt 0.153730 0.449790
vt 0.208483 0.461029
vt 0.265745 0.466071
vt 0.323553 0.462636
vt 0.377931 0.451402
vt 0.432932 0.430798
vt 0.477919 0.411992
vt 0.545976 0.138243
vt 0.501251 0.115287
vt 0.652013 0.211978
vt 0.591264 0.199367
vt 0.713660 0.216524
vt 0.775512 0.212849
vt 0.835084 0.201782
vt 0.898677 0.178931
vt 0.949530 0.162986
vt 0.081652 0.467790
vt 0.032390 0.451239
vt 0.144678 0.489155
vt 0.204805 0.501264
vt 0.266639 0.506284
vt 0.328020 0.503797
vt 0.388094 0.492621
vt 0.449145 0.472835
vt 0.501475 0.454906
vt 0.529561 0.179501
vt 0.478180 0.160996
vt 0.648175 0.253339
vt 0.584141 0.242481
vt 0.713163 0.257558
vt 0.778345 0.253616
vt 0.841871 0.242550
vt 0.907855 0.224311
vt 0.963975 0.208713
vt 0.071559 0.511676
vt 0.013913 0.495837
vt 0.138745 0.530569
vt 0.202247 0.541983
vt 0.267265 0.547015
vt 0.331806 0.544770
vt 0.394854 0.533637
vt 0.460750 0.518441
vt 0.516943 0.503411
vt 0.518879 0.224263
vt 0.460967 0.210161
vt 0.646254 0.295797
vt 0.580853 0.285580
vt 0.713047 0.299655
vt 0.779121 0.295972
vt 0.844390 0.285204
vt 0.911788 0.270383
vt 0.970907 0.258618
vt 0.068320 0.558252
vt 0.009478 0.546904
vt 0.136088 0.573304
vt 0.201513 0.584570
vt 0.267758 0.588893
vt 0.333746 0.586441
vt 0.398656 0.577102
vt 0.466010 0.564174
vt 0.524121 0.549135
vt 0.513119 0.271666
vt 0.453275 0.257835
vt 0.646016 0.337683
vt 0.581292 0.329080
vt 0.712698 0.340399
vt 0.778713 0.337095
vt 0.843867 0.328723
vt 0.910645 0.316051
vt 0.969102 0.305395
vt 0.069921 0.604015
vt 0.009478 0.596039
vt 0.136688 0.616762
vt 0.202226 0.625879
vt 0.268131 0.629825
vt 0.334002 0.628209
vt 0.398853 0.620446
vt 0.465169 0.610471
vt 0.523899 0.596966
vt 0.513598 0.318011
vt 0.452677 0.306447
vt 0.647393 0.379963
vt 0.584883 0.372574
vt 0.712198 0.382287
vt 0.776205 0.378545
vt 0.839541 0.371329
vt 0.902895 0.361533
vt 0.960762 0.353474
vt 0.077351 0.651379
vt 0.019149 0.643954
vt 0.140887 0.660026
vt 0.204452 0.667919
vt 0.268667 0.671816
vt 0.332665 0.670001
vt 0.395575 0.663433
vt 0.460386 0.654806
vt 0.517564 0.648403
vt 0.519047 0.363355
vt 0.461736 0.354915
vt 0.650419 0.420358
vt 0.591082 0.414987
vt 0.711597 0.421754
vt 0.773028 0.419747
vt 0.833246 0.412548
vt 0.891279 0.405020
vt 0.943937 0.400131
vt 0.088484 0.695733
vt 0.036414 0.688397
vt 0.148210 0.701551
vt 0.207913 0.707920
vt 0.269116 0.711394
vt 0.330094 0.711046
vt 0.389481 0.705642
vt 0.449918 0.697949
vt 0.500522 0.692367
vt 0.530259 0.407650
vt 0.476449 0.400988
vt 0.655125 0.460388
vt 0.600236 0.454962
vt 0.711811 0.461553
vt 0.768216 0.460438
vt 0.823343 0.455329
vt 0.874760 0.444591
vt 0.920602 0.442156
vt 0.105625 0.737967
vt 0.058713 0.730408
vt 0.157147 0.743533
vt 0.212352 0.748463
vt 0.269151 0.750827
vt 0.325878 0.750245
vt 0.379684 0.744551
vt 0.431364 0.739128
vt 0.478162 0.736182
vt 0.547233 0.447787
vt 0.501836 0.445974
vt 0.662189 0.493592
vt 0.613236 0.489560
vt 0.713725 0.494212
vt 0.762808 0.492006
vt 0.808439 0.487978
vt 0.855010 0.483016
vt 0.893132 0.480228
vt 0.126491 0.774256
vt 0.087270 0.769431
vt 0.169240 0.779112
vt 0.217763 0.783496
vt 0.268169 0.785645
vt 0.318632 0.784358
vt 0.367134 0.780612
vt 0.409654 0.775871
vt 0.447370 0.775298
vt 0.569872 0.485732
vt 0.532130 0.485672
vt 0.670043 0.526896
vt 0.628913 0.523236
vt 0.712967 0.527465
vt 0.756313 0.524594
vt 0.795074 0.521378
vt 0.829496 0.515575
vt 0.863163 0.512861
vt 0.150207 0.808470
vt 0.117556 0.804474
vt 0.184598 0.812163
vt 0.225552 0.815699
vt 0.267225 0.817909
vt 0.310964 0.817039
vt 0.350331 0.814295
vt 0.386887 0.810204
vt 0.418903 0.809047
vt 0.594750 0.521582
vt 0.561667 0.519647
vt 0.443692 0.817106
vt 0.467507 0.852740
vt 0.455208 0.865036
vt 0.419577 0.841228
vt 0.475212 0.804051
vt 0.483574 0.846085
vt 0.509325 0.804051
vt 0.500965 0.846085
vt 0.540838 0.817099
vt 0.517028 0.852737
vt 0.564960 0.841220
vt 0.529330 0.865032
vt 0.578018 0.872736
vt 0.535986 0.881100
vt 0.578020 0.906848
vt 0.535985 0.898487
vt 0.564965 0.938364
vt 0.529331 0.914553
vt 0.540845 0.962485
vt 0.517036 0.926853
vt 0.509334 0.975542
vt 0.500971 0.933511
vt 0.475220 0.975544
vt 0.483576 0.933510
vt 0.443705 0.962493
vt 0.467513 0.926857
vt 0.419577 0.938370
vt 0.455217 0.914562
vt 0.406525 0.906861
vt 0.448557 0.898495
vt 0.406526 0.872746
vt 0.448556 0.881101
vt 0.716171 0.001145
vt 0.267970 0.292168
vt 0.492271 0.889799
vt 0.671384 0.532860
vt 0.631786 0.529677
vt 0.712934 0.533448
vt 0.754880 0.530593
vt 0.793016 0.527663
vt 0.826244 0.522587
vt 0.858083 0.519099
vt 0.153854 0.814945
vt 0.122428 0.811199
vt 0.187305 0.818555
vt 0.226864 0.821795
vt 0.267245 0.823710
vt 0.309721 0.823244
vt 0.347369 0.820446
vt 0.383357 0.816905
vt 0.414136 0.814843
vt 0.598736 0.528277
vt 0.566548 0.526094
vt 0.264080 0.962099
vt 0.264054 0.971809
vt 0.228020 0.971833
vt 0.228462 0.962053
vt 0.193436 0.971655
vt 0.194392 0.961853
vt 0.157219 0.971777
vt 0.158777 0.962280
vt 0.121091 0.971714
vt 0.124768 0.961561
vt 0.855121 0.665784
vt 0.858897 0.675655
vt 0.822372 0.677667
vt 0.820610 0.668287
vt 0.788306 0.677205
vt 0.787072 0.668273
vt 0.753044 0.677454
vt 0.752437 0.668968
vt 0.717551 0.678357
vt 0.717399 0.669701
vt 0.681728 0.678551
vt 0.682204 0.669818
vt 0.644841 0.679855
vt 0.645751 0.670584
vt 0.609002 0.681299
vt 0.610169 0.672511
vt 0.571473 0.682306
vt 0.574314 0.672396
vt 0.408889 0.961827
vt 0.412419 0.971326
vt 0.374966 0.971026
vt 0.373337 0.961424
vt 0.337973 0.971194
vt 0.337168 0.961466
vt 0.300899 0.971510
vt 0.300878 0.962213
vt 0.227573 0.978559
vt 0.192788 0.978684
vt 0.156632 0.978727
vt 0.119771 0.979367
vt 0.860714 0.683053
vt 0.823593 0.684226
vt 0.789076 0.683633
vt 0.753463 0.683851
vt 0.717586 0.684549
vt 0.681308 0.685019
vt 0.644369 0.686704
vt 0.608649 0.688366
vt 0.570468 0.690010
vt 0.413494 0.979042
vt 0.375470 0.977853
vt 0.338260 0.977936
vt 0.300676 0.978277
vt 0.263857 0.978512
vt 0.227199 0.984692
vt 0.226909 0.990976
vt 0.191679 0.991263
vt 0.192237 0.985001
vt 0.155642 0.991263
vt 0.156136 0.984893
vt 0.119957 0.992883
vt 0.119567 0.986279
vt 0.861385 0.689726
vt 0.861265 0.696283
vt 0.825193 0.696369
vt 0.824578 0.690221
vt 0.790097 0.695875
vt 0.789738 0.689473
vt 0.753873 0.695964
vt 0.753734 0.689781
vt 0.717850 0.697088
vt 0.717720 0.690672
vt 0.681221 0.698413
vt 0.681264 0.691579
vt 0.644092 0.700073
vt 0.644186 0.693163
vt 0.608264 0.702485
vt 0.608476 0.695440
vt 0.571332 0.703808
vt 0.570598 0.696964
vt 0.413441 0.985841
vt 0.412755 0.992384
vt 0.375685 0.991718
vt 0.375591 0.984649
vt 0.338367 0.991171
vt 0.338374 0.984169
vt 0.300329 0.990685
vt 0.300425 0.984314
vt 0.263338 0.990937
vt 0.263570 0.984561
vt 0.229875 0.935011
vt 0.196246 0.935492
vt 0.162851 0.935789
vt 0.129609 0.936800
vt 0.850653 0.640787
vt 0.816988 0.642250
vt 0.783890 0.642686
vt 0.751174 0.643855
vt 0.717307 0.644995
vt 0.682944 0.645403
vt 0.648323 0.645814
vt 0.613772 0.647425
vt 0.578951 0.647351
vt 0.403104 0.936708
vt 0.369003 0.935987
vt 0.334805 0.934136
vt 0.299454 0.934532
vt 0.264137 0.934440
vt 0.267351 0.829145
vt 0.265667 0.895451
vt 0.231297 0.893555
vt 0.227899 0.827304
vt 0.198219 0.893700
vt 0.189587 0.824335
vt 0.166744 0.893700
vt 0.157190 0.820991
vt 0.135174 0.894017
vt 0.126098 0.817406
vt 0.854318 0.524819
vt 0.847444 0.601225
vt 0.814819 0.602416
vt 0.823644 0.528764
vt 0.781726 0.603536
vt 0.791055 0.533492
vt 0.748536 0.605249
vt 0.753554 0.535918
vt 0.714946 0.607119
vt 0.712820 0.538898
vt 0.680975 0.606676
vt 0.672440 0.538342
vt 0.648568 0.606663
vt 0.634271 0.535596
vt 0.616463 0.606856
vt 0.601991 0.534228
vt 0.584358 0.606250
vt 0.570052 0.531727
vt 0.410684 0.820437
vt 0.398311 0.896378
vt 0.365328 0.896062
vt 0.380526 0.822786
vt 0.333246 0.895601
vt 0.344992 0.826033
vt 0.299787 0.894934
vt 0.308595 0.828783
s 1
usemtl Handle1Mtl
f 1/1/1 2/2/2 3/3/3
f 3/3/3 4/4/4 1/1/1
f 1/1/1 5/5/5 6/6/6
f 6/6/6 2/2/2 1/1/1
f 5/5/5 7/7/7 8/8/8
f 8/8/8 6/6/6 5/5/5
f 7/7/7 9/9/9 10/10/10
f 10/10/10 8/8/8 7/7/7
f 9/9/9 11/11/11 12/12/12
f 12/12/12 10/10/10 9/9/9
f 11/11/11 13/13/13 14/14/14
f 14/14/14 12/12/12 11/11/11
f 13/13/13 15/15/15 16/16/16
f 16/16/16 14/14/14 13/13/13
f 17/17/17 18/18/18 19/19/16
f 19/19/16 20/20/19 17/17/17
f 21/21/20 22/22/21 18/18/18
f 18/18/18 17/17/17 21/21/20
f 23/23/22 24/24/23 22/22/21
f 22/22/21 21/21/20 23/23/22
f 25/25/24 26/26/25 24/24/23
f 24/24/23 23/23/22 25/25/24
f 27/27/26 28/28/27 26/26/25
f 26/26/25 25/25/24 27/27/26
f 29/29/28 30/30/29 28/28/27
f 28/28/27 27/27/26 29/29/28
f 31/31/30 32/32/31 30/30/29
f 30/30/29 29/29/28 31/31/30
f 33/33/32 34/34/33 32/32/31
f 32/32/31 31/31/30 33/33/32
f 4/4/4 3/3/3 34/34/33
f 34/34/33 33/33/32 4/4/4
f 35/35/34 36/36/34 37/37/35
f 36/36/34 38/38/34 37/37/35
f 38/38/34 39/39/34 37/37/35
f 39/39/34 40/40/34 37/37/35
f 40/40/34 41/41/34 37/37/35
f 41/41/34 42/42/34 37/37/35
f 42/42/34 43/43/34 37/37/35
f 43/43/34 44/44/34 37/37/35
f 44/44/34 45/45/34 37/37/35
f 45/45/34 46/46/34 37/37/35
f 46/46/34 47/47/34 37/37/35
f 47/47/34 48/48/34 37/37/35
f 48/48/34 49/49/34 37/37/35
f 49/49/34 50/50/34 37/37/35
f 50/50/34 51/51/34 37/37/35
f 51/51/34 35/35/34 37/37/35
f 52/52/36 53/53/37 54/54/38
f 54/54/38 55/55/39 52/52/36
f 53/53/37 56/56/36 57/57/40
f 57/57/40 54/54/38 53/53/37
f 56/56/36 58/58/41 59/59/42
f 59/59/42 57/57/40 56/56/36
f 58/58/41 60/60/36 61/61/43
f 61/61/43 59/59/42 58/58/41
f 60/60/36 62/62/36 63/63/44
f 63/63/44 61/61/43 60/60/36
f 62/62/36 64/64/36 65/65/45
f 65/65/45 63/63/44 62/62/36
f 64/64/36 66/66/46 67/67/47
f 67/67/47 65/65/45 64/64/36
f 66/66/46 68/68/36 69/69/48
f 69/69/48 67/67/47 66/66/46
f 68/68/36 70/70/36 71/71/49
f 71/71/49 69/69/48 68/68/36
f 70/70/36 72/72/36 73/73/50
f 73/73/50 71/71/49 70/70/36
f 72/72/36 74/74/36 75/75/51
f 75/75/51 73/73/50 72/72/36
f 74/74/36 76/76/36 77/77/52
f 77/77/52 75/75/51 74/74/36
f 76/76/36 78/78/36 79/79/53
f 79/79/53 77/77/52 76/76/36
f 78/78/36 80/80/36 81/81/54
f 81/81/54 79/79/53 78/78/36
f 80/80/36 82/82/55 83/83/56
f 83/83/56 81/81/54 80/80/36
f 82/82/55 52/52/36 55/55/39
f 55/55/39 83/83/56 82/82/55
f 52/52/36 84/84/36 53/53/37
f 53/53/37 84/84/36 56/56/36
f 56/56/36 84/84/36 58/58/41
f 58/58/41 84/84/36 60/60/36
f 60/60/36 84/84/36 62/62/36
f 62/62/36 84/84/36 64/64/36
f 64/64/36 84/84/36 66/66/46
f 66/66/46 84/84/36 68/68/36
f 68/68/36 84/84/36 70/70/36
f 70/70/36 84/84/36 72/72/36
f 72/72/36 84/84/36 74/74/36
f 74/74/36 84/84/36 76/76/36
f 76/76/36 84/84/36 78/78/36
f 78/78/36 84/84/36 80/80/36
f 80/80/36 84/84/36 82/82/55
f 82/82/55 84/84/36 52/52/36
f 85/85/57 86/86/58 87/87/59
f 87/87/59 88/88/60 85/85/57
f 85/85/57 89/89/61 90/90/62
f 90/90/62 86/86/58 85/85/57
f 89/89/61 91/91/63 92/92/64
f 92/92/64 90/90/62 89/89/61
f 91/91/63 93/93/65 94/94/66
f 94/94/66 92/92/64 91/91/63
f 93/93/65 95/95/67 96/96/68
f 96/96/68 94/94/66 93/93/65
f 95/95/67 97/97/45 98/98/69
f 98/98/69 96/96/68 95/95/67
f 97/97/45 99/99/70 100/100/71
f 100/100/71 98/98/69 97/97/45
f 101/101/72 102/102/73 103/103/74
f 103/103/74 104/104/70 101/101/72
f 105/105/75 106/106/76 102/102/73
f 102/102/73 101/101/72 105/105/75
f 107/107/77 108/108/78 106/106/76
f 106/106/76 105/105/75 107/107/77
f 109/109/79 110/110/80 108/108/78
f 108/108/78 107/107/77 109/109/79
f 111/111/81 112/112/82 110/110/80
f 110/110/80 109/109/79 111/111/81
f 113/113/83 114/114/84 112/112/82
f 112/112/82 111/111/81 113/113/83
f 115/115/54 116/116/85 114/114/84
f 114/114/84 113/113/83 115/115/54
f 117/117/56 118/118/86 116/116/85
f 116/116/85 115/115/54 117/117/56
f 88/88/60 87/87/59 118/118/86
f 118/118/86 117/117/56 88/88/60
f 110/110/80 25/25/24 23/23/22
f 23/23/22 108/108/78 110/110/80
f 108/108/78 23/23/22 21/21/20
f 21/21/20 106/106/76 108/108/78
f 106/106/76 21/21/20 17/17/17
f 17/17/17 102/102/73 106/106/76
f 103/103/74 102/102/73 17/17/17
f 17/17/17 20/20/19 103/103/74
f 98/98/69 100/100/71 15/15/15
f 15/15/15 13/13/13 98/98/69
f 96/96/68 98/98/69 13/13/13
f 13/13/13 11/11/11 96/96/68
f 94/94/66 96/96/68 11/11/11
f 11/11/11 9/9/9 94/94/66
f 92/92/64 94/94/66 9/9/9
f 9/9/9 7/7/7 92/92/64
f 90/90/62 92/92/64 7/7/7
f 7/7/7 5/5/5 90/90/62
f 86/86/58 90/90/62 5/5/5
f 5/5/5 1/1/1 86/86/58
f 87/87/59 86/86/58 1/1/1
f 1/1/1 4/4/4 87/87/59
f 87/87/59 4/4/4 33/33/32
f 33/33/32 118/118/86 87/87/59
f 118/118/86 33/33/32 31/31/30
f 31/31/30 116/116/85 118/118/86
f 116/116/85 31/31/30 29/29/28
f 29/29/28 114/114/84 116/116/85
f 114/114/84 29/29/28 27/27/26
f 27/27/26 112/112/82 114/114/84
f 112/112/82 27/27/26 25/25/24
f 25/25/24 110/110/80 112/112/82
f 119/119/87 48/48/34 47/47/34
f 47/47/34 120/120/88 119/119/87
f 120/120/88 47/47/34 46/46/34
f 46/46/34 121/121/89 120/120/88
f 121/121/89 46/46/34 45/45/34
f 45/45/34 122/122/90 121/121/89
f 122/122/90 45/45/34 44/44/34
f 44/44/34 123/123/18 122/122/90
f 123/123/18 44/44/34 43/43/34
f 43/43/34 124/124/91 123/123/18
f 124/124/91 43/43/34 42/42/34
f 42/42/34 125/125/14 124/124/91
f 125/125/14 42/42/34 41/41/34
f 41/41/34 126/126/92 125/125/14
f 126/126/92 41/41/34 40/40/34
f 40/40/34 127/127/93 126/126/92
f 127/127/93 40/40/34 39/39/34
f 39/39/34 128/128/94 127/127/93
f 128/128/94 39/39/34 38/38/34
f 38/38/34 129/129/95 128/128/94
f 129/129/95 38/38/34 36/36/34
f 36/36/34 2/2/2 129/129/95
f 2/2/2 36/36/34 35/35/34
f 35/35/34 3/3/3 2/2/2
f 3/3/3 35/35/34 51/51/34
f 51/51/34 34/34/33 3/3/3
f 34/34/33 51/51/34 50/50/34
f 50/50/34 32/32/31 34/34/33
f 32/32/31 50/50/34 49/49/34
f 49/49/34 30/30/29 32/32/31
f 30/30/29 49/49/34 48/48/34
f 48/48/34 119/119/87 30/30/29
f 130/130/36 131/131/96 132/132/97
f 132/132/97 133/133/36 130/130/36
f 134/134/36 135/135/98 131/131/96
f 131/131/96 130/130/36 134/134/36
f 136/136/36 137/137/99 135/135/98
f 135/135/98 134/134/36 136/136/36
f 138/138/36 139/139/100 137/137/99
f 137/137/99 136/136/36 138/138/36
f 140/140/36 141/141/101 139/139/100
f 139/139/100 138/138/36 140/140/36
f 142/142/36 143/143/102 141/141/101
f 141/141/101 140/140/36 142/142/36
f 144/144/36 145/145/103 146/146/104
f 146/146/104 147/147/36 144/144/36
f 148/148/36 149/149/105 145/145/103
f 145/145/103 144/144/36 148/148/36
f 150/150/36 151/151/106 149/149/105
f 149/149/105 148/148/36 150/150/36
f 152/152/36 153/153/107 151/151/106
f 151/151/106 150/150/36 152/152/36
f 154/154/36 155/155/108 153/153/107
f 153/153/107 152/152/36 154/154/36
f 156/156/36 157/157/109 155/155/108
f 155/155/108 154/154/36 156/156/36
f 158/158/36 159/159/110 157/157/109
f 157/157/109 156/156/36 158/158/36
f 160/160/55 161/161/111 159/159/110
f 159/159/110 158/158/36 160/160/55
f 162/162/55 163/163/112 164/164/113
f 164/164/113 165/165/55 162/162/55
f 133/133/36 132/132/97 163/163/112
f 163/163/112 162/162/55 133/133/36
f 131/131/96 166/166/114 167/167/115
f 167/167/115 132/132/97 131/131/96
f 135/135/98 168/168/116 166/166/114
f 166/166/114 131/131/96 135/135/98
f 137/137/99 169/169/117 168/168/116
f 168/168/116 135/135/98 137/137/99
f 139/139/100 170/170/118 169/169/117
f 169/169/117 137/137/99 139/139/100
f 141/141/101 171/171/119 170/170/118
f 170/170/118 139/139/100 141/141/101
f 143/143/102 172/172/120 171/171/119
f 171/171/119 141/141/101 143/143/102
f 145/145/103 173/173/121 174/174/122
f 174/174/122 146/146/104 145/145/103
f 149/149/105 175/175/123 173/173/121
f 173/173/121 145/145/103 149/149/105
f 151/151/106 176/176/124 175/175/123
f 175/175/123 149/149/105 151/151/106
f 153/153/107 177/177/125 176/176/124
f 176/176/124 151/151/106 153/153/107
f 155/155/108 178/178/126 177/177/125
f 177/177/125 153/153/107 155/155/108
f 157/157/109 179/179/127 178/178/126
f 178/178/126 155/155/108 157/157/109
f 159/159/110 180/180/128 179/179/127
f 179/179/127 157/157/109 159/159/110
f 161/161/111 181/181/129 180/180/128
f 180/180/128 159/159/110 161/161/111
f 163/163/112 182/182/130 183/183/131
f 183/183/131 164/164/113 163/163/112
f 132/132/97 167/167/115 182/182/130
f 182/182/130 163/163/112 132/132/97
f 166/166/114 184/184/132 185/185/133
f 185/185/133 167/167/115 166/166/114
f 168/168/116 186/186/134 184/184/132
f 184/184/132 166/166/114 168/168/116
f 169/169/117 187/187/135 186/186/134
f 186/186/134 168/168/116 169/169/117
f 170/170/118 188/188/136 187/187/135
f 187/187/135 169/169/117 170/170/118
f 171/171/119 189/189/137 188/188/136
f 188/188/136 170/170/118 171/171/119
f 172/172/120 190/190/138 189/189/137
f 189/189/137 171/171/119 172/172/120
f 173/173/121 191/191/139 192/192/140
f 192/192/140 174/174/122 173/173/121
f 175/175/123 193/193/141 191/191/139
f 191/191/139 173/173/121 175/175/123
f 176/176/124 194/194/142 193/193/141
f 193/193/141 175/175/123 176/176/124
f 177/177/125 195/195/143 194/194/142
f 194/194/142 176/176/124 177/177/125
f 178/178/126 196/196/144 195/195/143
f 195/195/143 177/177/125 178/178/126
f 179/179/127 197/197/145 196/196/144
f 196/196/144 178/178/126 179/179/127
f 180/180/128 198/198/146 197/197/145
f 197/197/145 179/179/127 180/180/128
f 181/181/129 199/199/147 198/198/146
f 198/198/146 180/180/128 181/181/129
f 182/182/130 200/200/148 201/201/149
f 201/201/149 183/183/131 182/182/130
f 167/167/115 185/185/133 200/200/148
f 200/200/148 182/182/130 167/167/115
f 184/184/132 202/202/150 203/203/151
f 203/203/151 185/185/133 184/184/132
f 186/186/134 204/204/152 202/202/150
f 202/202/150 184/184/132 186/186/134
f 187/187/135 205/205/153 204/204/152
f 204/204/152 186/186/134 187/187/135
f 188/188/136 206/206/154 205/205/153
f 205/205/153 187/187/135 188/188/136
f 189/189/137 207/207/155 206/206/154
f 206/206/154 188/188/136 189/189/137
f 190/190/138 208/208/156 207/207/155
f 207/207/155 189/189/137 190/190/138
f 191/191/139 209/209/157 210/210/158
f 210/210/158 192/192/140 191/191/139
f 193/193/141 211/211/159 209/209/157
f 209/209/157 191/191/139 193/193/141
f 194/194/142 212/212/160 211/211/159
f 211/211/159 193/193/141 194/194/142
f 195/195/143 213/213/161 212/212/160
f 212/212/160 194/194/142 195/195/143
f 196/196/144 214/214/162 213/213/161
f 213/213/161 195/195/143 196/196/144
f 197/197/145 215/215/163 214/214/162
f 214/214/162 196/196/144 197/197/145
f 198/198/146 216/216/164 215/215/163
f 215/215/163 197/197/145 198/198/146
f 199/199/147 217/217/165 216/216/164
f 216/216/164 198/198/146 199/199/147
f 200/200/148 218/218/166 219/219/167
f 219/219/167 201/201/149 200/200/148
f 185/185/133 203/203/151 218/218/166
f 218/218/166 200/200/148 185/185/133
f 202/202/150 220/220/168 221/221/169
f 221/221/169 203/203/151 202/202/150
f 204/204/152 222/222/170 220/220/168
f 220/220/168 202/202/150 204/204/152
f 205/205/153 223/223/171 222/222/170
f 222/222/170 204/204/152 205/205/153
f 206/206/154 224/224/172 223/223/171
f 223/223/171 205/205/153 206/206/154
f 207/207/155 225/225/173 224/224/172
f 224/224/172 206/206/154 207/207/155
f 208/208/156 226/226/174 225/225/173
f 225/225/173 207/207/155 208/208/156
f 209/209/157 227/227/175 228/228/176
f 228/228/176 210/210/158 209/209/157
f 211/211/159 229/229/177 227/227/175
f 227/227/175 209/209/157 211/211/159
f 212/212/160 230/230/178 229/229/177
f 229/229/177 211/211/159 212/212/160
f 213/213/161 231/231/179 230/230/178
f 230/230/178 212/212/160 213/213/161
f 214/214/162 232/232/180 231/231/179
f 231/231/179 213/213/161 214/214/162
f 215/215/163 233/233/181 232/232/180
f 232/232/180 214/214/162 215/215/163
f 216/216/164 234/234/182 233/233/181
f 233/233/181 215/215/163 216/216/164
f 217/217/165 235/235/183 234/234/182
f 234/234/182 216/216/164 217/217/165
f 218/218/166 236/236/184 237/237/185
f 237/237/185 219/219/167 218/218/166
f 203/203/151 221/221/169 236/236/184
f 236/236/184 218/218/166 203/203/151
f 220/220/168 238/238/186 239/239/187
f 239/239/187 221/221/169 220/220/168
f 222/222/170 240/240/188 238/238/186
f 238/238/186 220/220/168 222/222/170
f 223/223/171 241/241/189 240/240/188
f 240/240/188 222/222/170 223/223/171
f 224/224/172 242/242/190 241/241/189
f 241/241/189 223/223/171 224/224/172
f 225/225/173 243/243/191 242/242/190
f 242/242/190 224/224/172 225/225/173
f 226/226/174 244/244/192 243/243/191
f 243/243/191 225/225/173 226/226/174
f 227/227/175 245/245/193 246/246/192
f 246/246/192 228/228/176 227/227/175
f 229/229/177 247/247/194 245/245/193
f 245/245/193 227/227/175 229/229/177
f 230/230/178 248/248/195 247/247/194
f 247/247/194 229/229/177 230/230/178
f 231/231/179 249/249/196 248/248/195
f 248/248/195 230/230/178 231/231/179
f 232/232/180 250/250/197 249/249/196
f 249/249/196 231/231/179 232/232/180
f 233/233/181 251/251/198 250/250/197
f 250/250/197 232/232/180 233/233/181
f 234/234/182 252/252/199 251/251/198
f 251/251/198 233/233/181 234/234/182
f 235/235/183 253/253/200 252/252/199
f 252/252/199 234/234/182 235/235/183
f 236/236/184 254/254/201 255/255/200
f 255/255/200 237/237/185 236/236/184
f 221/221/169 239/239/187 254/254/201
f 254/254/201 236/236/184 221/221/169
f 238/238/186 256/256/202 257/257/203
f 257/257/203 239/239/187 238/238/186
f 240/240/188 258/258/204 256/256/202
f 256/256/202 238/238/186 240/240/188
f 241/241/189 259/259/205 258/258/204
f 258/258/204 240/240/188 241/241/189
f 242/242/190 260/260/206 259/259/205
f 259/259/205 241/241/189 242/242/190
f 243/243/191 261/261/207 260/260/206
f 260/260/206 242/242/190 243/243/191
f 244/244/192 262/262/208 261/261/207
f 261/261/207 243/243/191 244/244/192
f 245/245/193 263/263/209 264/264/210
f 264/264/210 246/246/192 245/245/193
f 247/247/194 265/265/211 263/263/209
f 263/263/209 245/245/193 247/247/194
f 248/248/195 266/266/212 265/265/211
f 265/265/211 247/247/194 248/248/195
f 249/249/196 267/267/213 266/266/212
f 266/266/212 248/248/195 249/249/196
f 250/250/197 268/268/214 267/267/213
f 267/267/213 249/249/196 250/250/197
f 251/251/198 269/269/215 268/268/214
f 268/268/214 250/250/197 251/251/198
f 252/252/199 270/270/216 269/269/215
f 269/269/215 251/251/198 252/252/199
f 253/253/200 271/271/217 270/270/216
f 270/270/216 252/252/199 253/253/200
f 254/254/201 272/272/218 273/273/219
f 273/273/219 255/255/200 254/254/201
f 239/239/187 257/257/203 272/272/218
f 272/272/218 254/254/201 239/239/187
f 256/256/202 274/274/220 275/275/221
f 275/275/221 257/257/203 256/256/202
f 258/258/204 276/276/222 274/274/220
f 274/274/220 256/256/202 258/258/204
f 259/259/205 277/277/223 276/276/222
f 276/276/222 258/258/204 259/259/205
f 260/260/206 278/278/224 277/277/223
f 277/277/223 259/259/205 260/260/206
f 261/261/207 279/279/225 278/278/224
f 278/278/224 260/260/206 261/261/207
f 262/262/208 280/280/226 279/279/225
f 279/279/225 261/261/207 262/262/208
f 263/263/209 281/281/227 282/282/228
f 282/282/228 264/264/210 263/263/209
f 265/265/211 283/283/229 281/281/227
f 281/281/227 263/263/209 265/265/211
f 266/266/212 284/284/230 283/283/229
f 283/283/229 265/265/211 266/266/212
f 267/267/213 285/285/231 284/284/230
f 284/284/230 266/266/212 267/267/213
f 268/268/214 286/286/232 285/285/231
f 285/285/231 267/267/213 268/268/214
f 269/269/215 287/287/233 286/286/232
f 286/286/232 268/268/214 269/269/215
f 270/270/216 288/288/234 287/287/233
f 287/287/233 269/269/215 270/270/216
f 271/271/217 289/289/235 288/288/234
f 288/288/234 270/270/216 271/271/217
f 272/272/218 290/290/236 291/291/237
f 291/291/237 273/273/219 272/272/218
f 257/257/203 275/275/221 290/290/236
f 290/290/236 272/272/218 257/257/203
f 274/274/220 292/292/238 293/293/239
f 293/293/239 275/275/221 274/274/220
f 276/276/222 294/294/240 292/292/238
f 292/292/238 274/274/220 276/276/222
f 277/277/223 295/295/241 294/294/240
f 294/294/240 276/276/222 277/277/223
f 278/278/224 296/296/242 295/295/241
f 295/295/241 277/277/223 278/278/224
f 279/279/225 297/297/243 296/296/242
f 296/296/242 278/278/224 279/279/225
f 280/280/226 298/298/244 297/297/243
f 297/297/243 279/279/225 280/280/226
f 281/281/227 299/299/245 300/300/246
f 300/300/246 282/282/228 281/281/227
f 283/283/229 301/301/247 299/299/245
f 299/299/245 281/281/227 283/283/229
f 284/284/230 302/302/248 301/301/247
f 301/301/247 283/283/229 284/284/230
f 285/285/231 303/303/249 302/302/248
f 302/302/248 284/284/230 285/285/231
f 286/286/232 304/304/250 303/303/249
f 303/303/249 285/285/231 286/286/232
f 287/287/233 305/305/251 304/304/250
f 304/304/250 286/286/232 287/287/233
f 288/288/234 306/306/252 305/305/251
f 305/305/251 287/287/233 288/288/234
f 289/289/235 307/307/253 306/306/252
f 306/306/252 288/288/234 289/289/235
f 290/290/236 308/308/254 309/309/255
f 309/309/255 291/291/237 290/290/236
f 275/275/221 293/293/239 308/308/254
f 308/308/254 290/290/236 275/275/221
f 292/292/238 310/310/256 311/311/257
f 311/311/257 293/293/239 292/292/238
f 294/294/240 312/312/258 310/310/256
f 310/310/256 292/292/238 294/294/240
f 295/295/241 313/313/259 312/312/258
f 312/312/258 294/294/240 295/295/241
f 296/296/242 314/314/260 313/313/259
f 313/313/259 295/295/241 296/296/242
f 297/297/243 315/315/261 314/314/260
f 314/314/260 296/296/242 297/297/243
f 298/298/244 316/316/262 315/315/261
f 315/315/261 297/297/243 298/298/244
f 299/299/245 317/317/263 318/318/264
f 318/318/264 300/300/246 299/299/245
f 301/301/247 319/319/265 317/317/263
f 317/317/263 299/299/245 301/301/247
f 302/302/248 320/320/266 319/319/265
f 319/319/265 301/301/247 302/302/248
f 303/303/249 321/321/267 320/320/266
f 320/320/266 302/302/248 303/303/249
f 304/304/250 322/322/268 321/321/267
f 321/321/267 303/303/249 304/304/250
f 305/305/251 323/323/269 322/322/268
f 322/322/268 304/304/250 305/305/251
f 306/306/252 324/324/270 323/323/269
f 323/323/269 305/305/251 306/306/252
f 307/307/253 325/325/271 324/324/270
f 324/324/270 306/306/252 307/307/253
f 308/308/254 326/326/272 327/327/273
f 327/327/273 309/309/255 308/308/254
f 293/293/239 311/311/257 326/326/272
f 326/326/272 308/308/254 293/293/239
f 310/310/256 328/328/274 329/329/275
f 329/329/275 311/311/257 310/310/256
f 312/312/258 330/330/276 328/328/274
f 328/328/274 310/310/256 312/312/258
f 313/313/259 331/331/277 330/330/276
f 330/330/276 312/312/258 313/313/259
f 314/314/260 332/332/278 331/331/277
f 331/331/277 313/313/259 314/314/260
f 315/315/261 333/333/279 332/332/278
f 332/332/278 314/314/260 315/315/261
f 316/316/262 334/334/280 333/333/279
f 333/333/279 315/315/261 316/316/262
f 317/317/263 335/335/281 336/336/282
f 336/336/282 318/318/264 317/317/263
f 319/319/265 337/337/283 335/335/281
f 335/335/281 317/317/263 319/319/265
f 320/320/266 338/338/284 337/337/283
f 337/337/283 319/319/265 320/320/266
f 321/321/267 339/339/285 338/338/284
f 338/338/284 320/320/266 321/321/267
f 322/322/268 340/340/286 339/339/285
f 339/339/285 321/321/267 322/322/268
f 323/323/269 341/341/287 340/340/286
f 340/340/286 322/322/268 323/323/269
f 324/324/270 342/342/288 341/341/287
f 341/341/287 323/323/269 324/324/270
f 325/325/271 343/343/289 342/342/288
f 342/342/288 324/324/270 325/325/271
f 326/326/272 344/344/290 345/345/291
f 345/345/291 327/327/273 326/326/272
f 311/311/257 329/329/275 344/344/290
f 344/344/290 326/326/272 311/311/257
f 328/328/274 346/346/292 347/347/293
f 347/347/293 329/329/275 328/328/274
f 330/330/276 348/348/294 346/346/292
f 346/346/292 328/328/274 330/330/276
f 331/331/277 349/349/295 348/348/294
f 348/348/294 330/330/276 331/331/277
f 332/332/278 350/350/296 349/349/295
f 349/349/295 331/331/277 332/332/278
f 333/333/279 351/351/297 350/350/296
f 350/350/296 332/332/278 333/333/279
f 334/334/280 352/352/298 351/351/297
f 351/351/297 333/333/279 334/334/280
f 335/335/281 353/353/299 354/354/300
f 354/354/300 336/336/282 335/335/281
f 337/337/283 355/355/301 353/353/299
f 353/353/299 335/335/281 337/337/283
f 338/338/284 356/356/302 355/355/301
f 355/355/301 337/337/283 338/338/284
f 339/339/285 357/357/303 356/356/302
f 356/356/302 338/338/284 339/339/285
f 340/340/286 358/358/304 357/357/303
f 357/357/303 339/339/285 340/340/286
f 341/341/287 359/359/305 358/358/304
f 358/358/304 340/340/286 341/341/287
f 342/342/288 360/360/306 359/359/305
f 359/359/305 341/341/287 342/342/288
f 343/343/289 361/361/307 360/360/306
f 360/360/306 342/342/288 343/343/289
f 344/344/290 362/362/308 363/363/309
f 363/363/309 345/345/291 344/344/290
f 329/329/275 347/347/293 362/362/308
f 362/362/308 344/344/290 329/329/275
f 346/346/292 364/364/310 365/365/311
f 365/365/311 347/347/293 346/346/292
f 348/348/294 366/366/312 364/364/310
f 364/364/310 346/346/292 348/348/294
f 349/349/295 367/367/313 366/366/312
f 366/366/312 348/348/294 349/349/295
f 350/350/296 368/368/314 367/367/313
f 367/367/313 349/349/295 350/350/296
f 351/351/297 369/369/315 368/368/314
f 368/368/314 350/350/296 351/351/297
f 352/352/298 370/370/316 369/369/315
f 369/369/315 351/351/297 352/352/298
f 353/353/299 371/371/317 372/372/318
f 372/372/318 354/354/300 353/353/299
f 355/355/301 373/373/319 371/371/317
f 371/371/317 353/353/299 355/355/301
f 356/356/302 374/374/320 373/373/319
f 373/373/319 355/355/301 356/356/302
f 357/357/303 375/375/321 374/374/320
f 374/374/320 356/356/302 357/357/303
f 358/358/304 376/376/322 375/375/321
f 375/375/321 357/357/303 358/358/304
f 359/359/305 377/377/323 376/376/322
f 376/376/322 358/358/304 359/359/305
f 360/360/306 378/378/324 377/377/323
f 377/377/323 359/359/305 360/360/306
f 361/361/307 379/379/325 378/378/324
f 378/378/324 360/360/306 361/361/307
f 362/362/308 380/380/326 381/381/327
f 381/381/327 363/363/309 362/362/308
f 347/347/293 365/365/311 380/380/326
f 380/380/326 362/362/308 347/347/293
f 382/382/328 383/383/329 384/384/329
f 384/384/329 385/385/330 382/382/328
f 386/386/331 387/387/329 383/383/329
f 383/383/329 382/382/328 386/386/331
f 388/388/332 389/389/329 387/387/329
f 387/387/329 386/386/331 388/388/332
f 390/390/333 391/391/329 389/389/329
f 389/389/329 388/388/332 390/390/333
f 392/392/334 393/393/329 391/391/329
f 391/391/329 390/390/333 392/392/334
f 394/394/335 395/395/329 393/393/329
f 393/393/329 392/392/334 394/394/335
f 396/396/336 397/397/329 395/395/329
f 395/395/329 394/394/335 396/396/336
f 398/398/337 399/399/329 397/397/329
f 397/397/329 396/396/336 398/398/337
f 400/400/338 401/401/329 399/399/329
f 399/399/329 398/398/337 400/400/338
f 402/402/339 403/403/340 401/401/329
f 401/401/329 400/400/338 402/402/339
f 404/404/341 405/405/329 403/403/340
f 403/403/340 402/402/339 404/404/341
f 406/406/342 407/407/329 405/405/329
f 405/405/329 404/404/341 406/406/342
f 408/408/343 409/409/329 407/407/329
f 407/407/329 406/406/342 408/408/343
f 410/410/344 411/411/329 409/409/329
f 409/409/329 408/408/343 410/410/344
f 412/412/345 413/413/329 411/411/329
f 411/411/329 410/410/344 412/412/345
f 385/385/330 384/384/329 413/413/329
f 413/413/329 412/412/345 385/385/330
f 130/130/36 133/133/36 414/414/41
f 134/134/36 130/130/36 414/414/41
f 136/136/36 134/134/36 414/414/41
f 138/138/36 136/136/36 414/414/41
f 140/140/36 138/138/36 414/414/41
f 142/142/36 140/140/36 414/414/41
f 144/144/36 147/147/36 415/415/346
f 148/148/36 144/144/36 415/415/346
f 150/150/36 148/148/36 415/415/346
f 152/152/36 150/150/36 415/415/346
f 154/154/36 152/152/36 415/415/346
f 156/156/36 154/154/36 415/415/346
f 158/158/36 156/156/36 415/415/346
f 160/160/55 158/158/36 415/415/346
f 162/162/55 165/165/55 414/414/41
f 133/133/36 162/162/55 414/414/41
f 384/384/329 383/383/329 416/416/329
f 383/383/329 387/387/329 416/416/329
f 387/387/329 389/389/329 416/416/329
f 389/389/329 391/391/329 416/416/329
f 391/391/329 393/393/329 416/416/329
f 393/393/329 395/395/329 416/416/329
f 395/395/329 397/397/329 416/416/329
f 397/397/329 399/399/329 416/416/329
f 399/399/329 401/401/329 416/416/329
f 401/401/329 403/403/340 416/416/329
f 403/403/340 405/405/329 416/416/329
f 405/405/329 407/407/329 416/416/329
f 407/407/329 409/409/329 416/416/329
f 409/409/329 411/411/329 416/416/329
f 411/411/329 413/413/329 416/416/329
f 413/413/329 384/384/329 416/416/329
f 364/364/310 417/417/347 418/418/348
f 418/418/348 365/365/311 364/364/310
f 366/366/312 419/419/349 417/417/347
f 417/417/347 364/364/310 366/366/312
f 367/367/313 420/420/350 419/419/349
f 419/419/349 366/366/312 367/367/313
f 368/368/314 421/421/351 420/420/350
f 420/420/350 367/367/313 368/368/314
f 369/369/315 422/422/352 421/421/351
f 421/421/351 368/368/314 369/369/315
f 370/370/316 423/423/353 422/422/352
f 422/422/352 369/369/315 370/370/316
f 371/371/317 424/424/354 425/425/355
f 425/425/355 372/372/318 371/371/317
f 373/373/319 426/426/356 424/424/354
f 424/424/354 371/371/317 373/373/319
f 374/374/320 427/427/357 426/426/356
f 426/426/356 373/373/319 374/374/320
f 375/375/321 428/428/358 427/427/357
f 427/427/357 374/374/320 375/375/321
f 376/376/322 429/429/359 428/428/358
f 428/428/358 375/375/321 376/376/322
f 377/377/323 430/430/360 429/429/359
f 429/429/359 376/376/322 377/377/323
f 378/378/324 431/431/361 430/430/360
f 430/430/360 377/377/323 378/378/324
f 379/379/325 432/432/362 431/431/361
f 431/431/361 378/378/324 379/379/325
f 380/380/326 433/433/363 434/434/364
f 434/434/364 381/381/327 380/380/326
f 365/365/311 418/418/348 433/433/363
f 433/433/363 380/380/326 365/365/311
f 435/435/143 436/436/365 437/437/366
f 437/437/366 438/438/367 435/435/143
f 438/438/367 437/437/366 439/439/368
f 439/439/368 440/440/369 438/438/367
f 440/440/369 439/439/368 441/441/370
f 441/441/370 442/442/371 440/440/369
f 442/442/371 441/441/370 443/443/372
f 443/443/372 444/444/373 442/442/371
f 445/445/374 446/446/372 447/447/375
f 447/447/375 448/448/376 445/445/374
f 448/448/376 447/447/375 449/449/377
f 449/449/377 450/450/378 448/448/376
f 450/450/378 449/449/377 451/451/379
f 451/451/379 452/452/380 450/450/378
f 452/452/380 451/451/379 453/453/381
f 453/453/381 454/454/382 452/452/380
f 454/454/382 453/453/381 455/455/383
f 455/455/383 456/456/384 454/454/382
f 456/456/384 455/455/383 457/457/385
f 457/457/385 458/458/386 456/456/384
f 458/458/386 457/457/385 459/459/387
f 459/459/387 460/460/388 458/458/386
f 460/460/388 459/459/387 461/461/389
f 461/461/389 462/462/149 460/460/388
f 463/463/147 464/464/389 465/465/390
f 465/465/390 466/466/391 463/463/147
f 466/466/391 465/465/390 467/467/392
f 467/467/392 468/468/393 466/466/391
f 468/468/393 467/467/392 469/469/394
f 469/469/394 470/470/395 468/468/393
f 470/470/395 469/469/394 436/436/365
f 436/436/365 435/435/143 470/470/395
f 437/437/366 471/471/396 472/472/211
f 472/472/211 439/439/368 437/437/366
f 439/439/368 472/472/211 473/473/397
f 473/473/397 441/441/370 439/439/368
f 441/441/370 473/473/397 474/474/210
f 474/474/210 443/443/372 441/441/370
f 446/446/372 475/475/208 476/476/398
f 476/476/398 447/447/375 446/446/372
f 447/447/375 476/476/398 477/477/206
f 477/477/206 449/449/377 447/447/375
f 449/449/377 477/477/206 478/478/399
f 478/478/399 451/451/379 449/449/377
f 451/451/379 478/478/399 479/479/400
f 479/479/400 453/453/381 451/451/379
f 453/453/381 479/479/400 480/480/401
f 480/480/401 455/455/383 453/453/381
f 455/455/383 480/480/401 481/481/203
f 481/481/203 457/457/385 455/455/383
f 457/457/385 481/481/203 482/482/218
f 482/482/218 459/459/387 457/457/385
f 459/459/387 482/482/218 483/483/219
f 483/483/219 461/461/389 459/459/387
f 464/464/389 484/484/217 485/485/402
f 485/485/402 465/465/390 464/464/389
f 465/465/390 485/485/402 486/486/403
f 486/486/403 467/467/392 465/465/390
f 467/467/392 486/486/403 487/487/404
f 487/487/404 469/469/394 467/467/392
f 469/469/394 487/487/404 488/488/213
f 488/488/213 436/436/365 469/469/394
f 436/436/365 488/488/213 471/471/396
f 471/471/396 437/437/366 436/436/365
f 489/489/405 490/490/406 491/491/407
f 491/491/407 492/492/408 489/489/405
f 492/492/408 491/491/407 493/493/409
f 493/493/409 494/494/410 492/492/408
f 494/494/410 493/493/409 495/495/411
f 495/495/411 496/496/412 494/494/410
f 497/497/412 498/498/413 499/499/414
f 499/499/414 500/500/415 497/497/412
f 500/500/415 499/499/414 501/501/416
f 501/501/416 502/502/417 500/500/415
f 502/502/417 501/501/416 503/503/332
f 503/503/332 504/504/418 502/502/417
f 504/504/418 503/503/332 505/505/419
f 505/505/419 506/506/420 504/504/418
f 506/506/420 505/505/419 507/507/421
f 507/507/421 508/508/422 506/506/420
f 508/508/422 507/507/421 509/509/423
f 509/509/423 510/510/424 508/508/422
f 510/510/424 509/509/423 511/511/425
f 511/511/425 512/512/426 510/510/424
f 512/512/426 511/511/425 513/513/427
f 513/513/427 514/514/428 512/512/426
f 515/515/429 516/516/430 517/517/431
f 517/517/431 518/518/432 515/515/429
f 518/518/432 517/517/431 519/519/433
f 519/519/433 520/520/434 518/518/432
f 520/520/434 519/519/433 521/521/341
f 521/521/341 522/522/435 520/520/434
f 522/522/435 521/521/341 523/523/339
f 523/523/339 524/524/436 522/522/435
f 524/524/436 523/523/339 490/490/406
f 490/490/406 489/489/405 524/524/436
f 472/472/211 492/492/408 494/494/410
f 494/494/410 473/473/397 472/472/211
f 473/473/397 494/494/410 496/496/412
f 496/496/412 474/474/210 473/473/397
f 475/475/208 497/497/412 500/500/415
f 500/500/415 476/476/398 475/475/208
f 476/476/398 500/500/415 502/502/417
f 502/502/417 477/477/206 476/476/398
f 477/477/206 502/502/417 504/504/418
f 504/504/418 478/478/399 477/477/206
f 478/478/399 504/504/418 506/506/420
f 506/506/420 479/479/400 478/478/399
f 479/479/400 506/506/420 508/508/422
f 508/508/422 480/480/401 479/479/400
f 480/480/401 508/508/422 510/510/424
f 510/510/424 481/481/203 480/480/401
f 481/481/203 510/510/424 512/512/426
f 512/512/426 482/482/218 481/481/203
f 482/482/218 512/512/426 514/514/428
f 514/514/428 483/483/219 482/482/218
f 484/484/217 515/515/429 518/518/432
f 518/518/432 485/485/402 484/484/217
f 485/485/402 518/518/432 520/520/434
f 520/520/434 486/486/403 485/485/402
f 486/486/403 520/520/434 522/522/435
f 522/522/435 487/487/404 486/486/403
f 487/487/404 522/522/435 524/524/436
f 524/524/436 488/488/213 487/487/404
f 488/488/213 524/524/436 489/489/405
f 489/489/405 471/471/396 488/488/213
f 471/471/396 489/489/405 492/492/408
f 492/492/408 472/472/211 471/471/396
f 525/525/437 438/438/367 440/440/369
f 440/440/369 526/526/438 525/525/437
f 526/526/438 440/440/369 442/442/371
f 442/442/371 527/527/439 526/526/438
f 527/527/439 442/442/371 444/444/373
f 444/444/373 528/528/440 527/527/439
f 529/529/441 445/445/374 448/448/376
f 448/448/376 530/530/442 529/529/441
f 530/530/442 448/448/376 450/450/378
f 450/450/378 531/531/443 530/530/442
f 531/531/443 450/450/378 452/452/380
f 452/452/380 532/532/444 531/531/443
f 532/532/444 452/452/380 454/454/382
f 454/454/382 533/533/445 532/532/444
f 533/533/445 454/454/382 456/456/384
f 456/456/384 534/534/446 533/533/445
f 534/534/446 456/456/384 458/458/386
f 458/458/386 535/535/447 534/534/446
f 535/535/447 458/458/386 460/460/388
f 460/460/388 536/536/448 535/535/447
f 536/536/448 460/460/388 462/462/149
f 462/462/149 537/537/449 536/536/448
f 538/538/450 463/463/147 466/466/391
f 466/466/391 539/539/451 538/538/450
f 539/539/451 466/466/391 468/468/393
f 468/468/393 540/540/452 539/539/451
f 540/540/452 468/468/393 470/470/395
f 470/470/395 541/541/453 540/540/452
f 541/541/453 470/470/395 435/435/143
f 435/435/143 542/542/454 541/541/453
f 542/542/454 435/435/143 438/438/367
f 438/438/367 525/525/437 542/542/454
f 543/543/455 544/544/456 545/545/457
f 545/545/457 546/546/458 543/543/455
f 546/546/458 545/545/457 547/547/459
f 547/547/459 548/548/460 546/546/458
f 548/548/460 547/547/459 549/549/461
f 549/549/461 550/550/462 548/548/460
f 550/550/462 549/549/461 551/551/463
f 551/551/463 552/552/464 550/550/462
f 553/553/465 554/554/463 555/555/466
f 555/555/466 556/556/467 553/553/465
f 556/556/467 555/555/466 557/557/468
f 557/557/468 558/558/469 556/556/467
f 558/558/469 557/557/468 559/559/470
f 559/559/470 560/560/471 558/558/469
f 560/560/471 559/559/470 561/561/472
f 561/561/472 562/562/473 560/560/471
f 562/562/473 561/561/472 563/563/474
f 563/563/474 564/564/475 562/562/473
f 564/564/475 563/563/474 565/565/476
f 565/565/476 566/566/477 564/564/475
f 566/566/477 565/565/476 567/567/478
f 567/567/478 568/568/479 566/566/477
f 568/568/479 567/567/478 569/569/480
f 569/569/480 570/570/481 568/568/479
f 571/571/481 572/572/482 573/573/483
f 573/573/483 574/574/484 571/571/481
f 574/574/484 573/573/483 575/575/485
f 575/575/485 576/576/486 574/574/484
f 576/576/486 575/575/485 577/577/487
f 577/577/487 578/578/488 576/576/486
f 578/578/488 577/577/487 544/544/456
f 544/544/456 543/543/455 578/578/488
f 544/544/456 542/542/454 525/525/437
f 525/525/437 545/545/457 544/544/456
f 545/545/457 525/525/437 526/526/438
f 526/526/438 547/547/459 545/545/457
f 547/547/459 526/526/438 527/527/439
f 527/527/439 549/549/461 547/547/459
f 549/549/461 527/527/439 528/528/440
f 528/528/440 551/551/463 549/549/461
f 554/554/463 529/529/441 530/530/442
f 530/530/442 555/555/466 554/554/463
f 555/555/466 530/530/442 531/531/443
f 531/531/443 557/557/468 555/555/466
f 557/557/468 531/531/443 532/532/444
f 532/532/444 559/559/470 557/557/468
f 559/559/470 532/532/444 533/533/445
f 533/533/445 561/561/472 559/559/470
f 561/561/472 533/533/445 534/534/446
f 534/534/446 563/563/474 561/561/472
f 563/563/474 534/534/446 535/535/447
f 535/535/447 565/565/476 563/563/474
f 565/565/476 535/535/447 536/536/448
f 536/536/448 567/567/478 565/565/476
f 567/567/478 536/536/448 537/537/449
f 537/537/449 569/569/480 567/567/478
f 572/572/482 538/538/450 539/539/451
f 539/539/451 573/573/483 572/572/482
f 573/573/483 539/539/451 540/540/452
f 540/540/452 575/575/485 573/573/483
f 575/575/485 540/540/452 541/541/453
f 541/541/453 577/577/487 575/575/485
f 577/577/487 541/541/453 542/542/454
f 542/542/454 544/544/456 577/577/487
f 429/429/359 578/578/488 543/543/455
f 543/543/455 428/428/358 429/429/359
f 428/428/358 543/543/455 546/546/458
f 546/546/458 427/427/357 428/428/358
f 427/427/357 546/546/458 548/548/460
f 548/548/460 426/426/356 427/427/357
f 426/426/356 548/548/460 550/550/462
f 550/550/462 424/424/354 426/426/356
f 424/424/354 550/550/462 552/552/464
f 552/552/464 425/425/355 424/424/354
f 423/423/353 553/553/465 556/556/467
f 556/556/467 422/422/352 423/423/353
f 422/422/352 556/556/467 558/558/469
f 558/558/469 421/421/351 422/422/352
f 421/421/351 558/558/469 560/560/471
f 560/560/471 420/420/350 421/421/351
f 420/420/350 560/560/471 562/562/473
f 562/562/473 419/419/349 420/420/350
f 419/419/349 562/562/473 564/564/475
f 564/564/475 417/417/347 419/419/349
f 417/417/347 564/564/475 566/566/477
f 566/566/477 418/418/348 417/417/347
f 418/418/348 566/566/477 568/568/479
f 568/568/479 433/433/363 418/418/348
f 433/433/363 568/568/479 570/570/481
f 570/570/481 434/434/364 433/433/363
f 432/432/362 571/571/481 574/574/484
f 574/574/484 431/431/361 432/432/362
f 431/431/361 574/574/484 576/576/486
f 576/576/486 430/430/360 431/431/361
f 430/430/360 576/576/486 578/578/488
f 578/578/488 429/429/359 430/430/360
