# Blender 5.1.2
# www.blender.org
mtllib scarh mag.mtl
o scarh_mag
v 0.352828 -0.180637 -0.047349
v 0.261658 -0.200504 -0.047349
v 0.352828 -0.180637 0.057457
v 0.261658 -0.200504 0.055842
v 0.254021 -0.201948 -0.040803
v 0.255769 -0.201948 0.049297
v 0.244637 -0.204425 -0.040803
v 0.244637 -0.204425 0.049297
v 0.237004 -0.206348 -0.047349
v 0.237004 -0.206348 0.056352
v 0.181711 -0.217482 -0.047349
v 0.181711 -0.217482 0.056352
v 0.175271 -0.218994 -0.041399
v 0.174075 -0.219473 0.048191
v 0.167635 -0.220438 -0.047858
v 0.167635 -0.220438 0.055842
v 0.091825 -0.236452 -0.047858
v 0.091825 -0.236452 0.055842
v 0.083546 -0.238382 -0.040803
v 0.083546 -0.238382 0.049297
v 0.077657 -0.239826 -0.047349
v 0.077657 -0.239826 0.055842
v 0.010131 -0.254395 -0.047349
v 0.010131 -0.254395 0.055842
v 0.370401 -0.693421 0.057457
v 0.278771 -0.698302 0.055842
v 0.278771 -0.698302 -0.047349
v 0.271134 -0.699264 -0.040803
v 0.271685 -0.699264 0.049297
v 0.260553 -0.699745 -0.040803
v 0.260553 -0.699745 0.049297
v 0.252274 -0.700227 -0.047349
v 0.252274 -0.700227 0.056352
v 0.196981 -0.703595 -0.047349
v 0.196981 -0.703595 0.056352
v 0.189348 -0.704076 -0.041399
v 0.188793 -0.704076 0.048191
v 0.182353 -0.704076 -0.047858
v 0.182353 -0.704076 0.055842
v 0.105902 -0.709438 -0.047858
v 0.105902 -0.709438 0.055842
v 0.098265 -0.709919 -0.040803
v 0.097714 -0.709438 0.049297
v 0.091183 -0.710400 -0.047349
v 0.090629 -0.710400 0.055842
v 0.021814 -0.713837 -0.047349
v 0.022460 -0.713837 0.055842
v 0.352186 -0.095608 -0.049473
v 0.269295 -0.097052 -0.050070
v 0.352186 -0.095608 0.058560
v 0.269295 -0.097052 0.059666
v 0.256415 -0.097052 -0.050070
v 0.256415 -0.097052 0.059666
v 0.244086 -0.097052 -0.050070
v 0.244086 -0.097052 0.059666
v 0.053003 -0.098565 -0.049473
v 0.053003 -0.098565 0.058560
v -0.000542 -0.099530 -0.049473
v -0.000542 -0.099530 0.058560
v 0.356879 -0.208750 0.058560
v 0.260553 -0.229650 0.059666
v 0.260553 -0.229650 -0.050070
v 0.249329 -0.232059 -0.041993
v 0.249329 -0.232059 0.052101
v 0.238197 -0.235008 -0.050070
v 0.238197 -0.235008 0.059666
v 0.060085 -0.272886 -0.049473
v 0.060085 -0.272886 0.058560
v 0.003600 -0.274330 -0.049473
v 0.003600 -0.274330 0.058560
v 0.250526 -0.200982 0.059666
v 0.244086 -0.097052 0.059666
v 0.238197 -0.235008 0.059666
v 0.256415 -0.097052 0.059666
v 0.269295 -0.097052 0.059666
v 0.260553 -0.229650 0.059666
v 0.249329 -0.232059 0.052101
v 0.249329 -0.232059 -0.041993
v 0.250526 -0.200982 -0.050070
v 0.260553 -0.229650 -0.050070
v 0.256415 -0.097052 -0.050070
v 0.238197 -0.235008 -0.050070
v 0.244086 -0.097052 -0.050070
v 0.053003 -0.098565 -0.049473
v 0.060085 -0.272886 0.058560
v -0.000542 -0.099530 0.058560
v 0.003600 -0.274330 0.058560
v 0.053003 -0.098565 0.058560
v 0.007186 -0.103376 0.056352
v 0.007186 -0.078630 0.047172
v 0.007186 -0.103376 0.049805
v 0.007186 -0.079595 0.041647
v 0.007186 -0.064061 0.029235
v 0.007186 -0.063096 0.024307
v 0.185849 -0.100495 0.049805
v 0.184656 -0.076707 0.039520
v 0.184656 -0.060694 0.022182
v 0.184656 -0.076228 0.044961
v 0.185849 -0.100495 0.056352
v 0.184656 -0.061173 0.028132
v 0.185849 -0.100495 -0.047349
v 0.184656 -0.076228 -0.035449
v 0.185849 -0.100495 -0.040803
v 0.184656 -0.076707 -0.030518
v 0.184656 -0.061173 -0.018618
v 0.184656 -0.060139 -0.013689
v 0.007186 -0.079595 -0.031623
v 0.007186 -0.063096 -0.014708
v 0.007186 -0.103376 -0.040803
v 0.007186 -0.064061 -0.020745
v 0.007186 -0.079116 -0.037064
v 0.007186 -0.103376 -0.047349
v -0.000542 -0.099530 -0.049473
v 0.003600 -0.274330 -0.049473
v 0.060085 -0.272886 -0.049473
v 0.356879 -0.208750 -0.049473
v 0.352186 -0.095608 -0.049473
v 0.269295 -0.097052 -0.050070
v 0.352828 -0.180637 0.057457
v 0.261658 -0.200504 0.055842
v 0.370401 -0.693421 0.057457
v 0.278771 -0.698302 0.055842
v 0.271685 -0.699264 0.049297
v 0.255769 -0.201948 0.049297
v 0.244637 -0.204425 0.049297
v 0.260553 -0.699745 0.049297
v 0.252274 -0.700227 0.056352
v 0.237004 -0.206348 0.056352
v 0.181711 -0.217482 0.056352
v 0.196981 -0.703595 0.056352
v 0.188793 -0.704076 0.048191
v 0.174075 -0.219473 0.048191
v 0.167635 -0.220438 0.055842
v 0.182353 -0.704076 0.055842
v 0.105902 -0.709438 0.055842
v 0.091825 -0.236452 0.055842
v 0.083546 -0.238382 0.049297
v 0.097714 -0.709438 0.049297
v 0.090629 -0.710400 0.055842
v 0.077657 -0.239826 0.055842
v 0.010131 -0.254395 -0.047349
v 0.077657 -0.239826 -0.047349
v 0.021814 -0.713837 -0.047349
v 0.091183 -0.710400 -0.047349
v 0.098265 -0.709919 -0.040803
v 0.083546 -0.238382 -0.040803
v 0.091825 -0.236452 -0.047858
v 0.105902 -0.709438 -0.047858
v 0.182353 -0.704076 -0.047858
v 0.167635 -0.220438 -0.047858
v 0.175271 -0.218994 -0.041399
v 0.189348 -0.704076 -0.041399
v 0.196981 -0.703595 -0.047349
v 0.181711 -0.217482 -0.047349
v 0.237004 -0.206348 -0.047349
v 0.252274 -0.700227 -0.047349
v 0.260553 -0.699745 -0.040803
v 0.244637 -0.204425 -0.040803
v 0.254021 -0.201948 -0.040803
v 0.271134 -0.699264 -0.040803
v 0.278771 -0.698302 -0.047349
v 0.261658 -0.200504 -0.047349
v 0.010131 -0.254395 0.055842
v 0.022460 -0.713837 0.055842
v 0.352828 -0.180637 -0.047349
v 0.370401 -0.693421 -0.047349
v 0.352186 -0.095608 0.058560
v 0.356879 -0.208750 0.058560
v 0.025401 -0.264640 0.057457
v 0.026506 -0.229650 0.050995
v 0.089986 -0.250542 0.057457
v 0.089986 -0.214594 0.050995
v 0.074713 -0.235973 0.067827
v 0.089986 -0.214115 0.057457
v 0.041225 -0.243261 0.067827
v 0.026506 -0.229171 0.057457
v 0.147027 -0.236938 0.057457
v 0.147027 -0.201469 0.050995
v 0.209956 -0.222361 0.057457
v 0.211149 -0.186892 0.050995
v 0.195879 -0.207792 0.067827
v 0.211149 -0.186413 0.057457
v 0.162296 -0.216038 0.067827
v 0.147027 -0.200982 0.057457
v 0.266993 -0.208750 0.057457
v 0.268189 -0.173835 0.050995
v 0.329280 -0.194659 0.057457
v 0.330473 -0.159745 0.050995
v 0.315203 -0.180090 0.067827
v 0.329831 -0.158301 0.057457
v 0.282266 -0.188404 0.067827
v 0.266993 -0.173356 0.057457
v 0.370401 -0.693421 -0.047349
v 0.352828 -0.180637 -0.047349
v 0.370401 -0.693421 0.057457
v 0.352828 -0.180637 0.057457
v 0.022460 -0.713837 0.055842
v 0.010131 -0.254395 0.055842
v 0.021814 -0.713837 -0.047349
v 0.010131 -0.254395 -0.047349
v 0.356879 -0.208750 -0.049473
v 0.352186 -0.095608 -0.049473
v 0.356879 -0.208750 0.058560
v 0.352186 -0.095608 0.058560
v 0.003600 -0.274330 0.058560
v -0.000542 -0.099530 0.058560
v 0.003600 -0.274330 -0.049473
v -0.000542 -0.099530 -0.049473
v 0.025401 -0.264640 -0.047349
v 0.089986 -0.250542 -0.047349
v 0.026506 -0.229650 -0.040803
v 0.089986 -0.214594 -0.040803
v 0.074713 -0.235973 -0.058228
v 0.041225 -0.243261 -0.058228
v 0.089986 -0.214115 -0.047349
v 0.026506 -0.229171 -0.047349
v 0.147027 -0.236938 -0.047349
v 0.209956 -0.222361 -0.047349
v 0.147027 -0.201469 -0.040803
v 0.211149 -0.186892 -0.040803
v 0.195879 -0.207792 -0.058228
v 0.162296 -0.216038 -0.058228
v 0.211149 -0.186413 -0.047349
v 0.147027 -0.200982 -0.047349
v 0.266993 -0.208750 -0.047349
v 0.329280 -0.194659 -0.047349
v 0.268189 -0.173835 -0.040803
v 0.330473 -0.159745 -0.040803
v 0.315203 -0.180090 -0.058228
v 0.282266 -0.188404 -0.058228
v 0.329831 -0.158301 -0.047349
v 0.266993 -0.173356 -0.047349
v 0.370401 -0.693421 -0.047349
v 0.356879 -0.208750 -0.049473
vn 0.4412 0.7123 -0.5459
vn -0.3516 0.6299 -0.6926
vn 0.4339 0.7115 0.5527
vn -0.3980 0.6192 0.6769
vn -0.3803 0.7866 -0.4864
vn -0.4149 0.7870 0.4567
vn -0.0405 0.8256 -0.5628
vn -0.0203 0.8354 0.5493
vn 0.1385 0.6958 -0.7047
vn 0.1596 0.6974 0.6987
vn -0.3596 0.6316 -0.6869
vn -0.3819 0.6247 0.6811
vn -0.2287 0.8874 -0.4003
vn -0.2131 0.9110 0.3531
vn 0.1453 0.7031 -0.6961
vn 0.2083 0.7062 0.6766
vn -0.3533 0.6331 -0.6887
vn -0.3436 0.6365 0.6905
vn -0.2346 0.8928 -0.3845
vn -0.2287 0.8874 0.4003
vn 0.1875 0.6977 -0.6914
vn 0.1875 0.6976 0.6915
vn -0.5958 0.5452 -0.5898
vn -0.5957 0.5452 0.5898
vn 0.5460 -0.6088 0.5755
vn -0.2297 -0.6828 0.6935
vn -0.2088 -0.6824 -0.7006
vn -0.1007 -0.8459 -0.5237
vn -0.1009 -0.8546 0.5094
vn 0.2315 -0.8155 -0.5304
vn 0.2371 -0.8202 0.5207
vn 0.2717 -0.6666 -0.6942
vn 0.2878 -0.6627 0.6914
vn -0.2021 -0.6914 -0.6936
vn -0.2427 -0.6886 0.6833
vn 0.0464 -0.9146 -0.4017
vn 0.0397 -0.9358 0.3503
vn 0.2942 -0.6531 -0.6978
vn 0.3374 -0.6463 0.6844
vn -0.2231 -0.6919 -0.6866
vn -0.2085 -0.6983 0.6847
vn 0.0661 -0.9200 -0.3862
vn 0.0865 -0.9013 0.4245
vn 0.2925 -0.6661 -0.6861
vn 0.3005 -0.6681 0.6807
vn -0.5052 -0.6547 -0.5623
vn -0.5000 -0.6570 0.5642
vn 0.5081 0.6496 -0.5655
vn -0.0069 0.7417 -0.6707
vn 0.5134 0.6473 0.5634
vn -0.0000 0.7417 0.6708
vn -0.0000 0.7455 -0.6666
vn -0.0000 0.7455 0.6666
vn -0.0069 0.7454 0.6666
vn -0.0068 0.7454 -0.6666
vn -0.0137 0.7453 0.6665
vn -0.5376 0.6247 -0.5663
vn -0.5375 0.6247 0.5664
vn 0.6060 -0.5391 0.5849
vn -0.0479 -0.7220 0.6902
vn -0.0620 -0.7252 -0.6857
vn 0.2486 -0.8948 -0.3709
vn 0.2491 -0.8882 0.3861
vn 0.2938 -0.6776 -0.6742
vn 0.2860 -0.6755 0.6796
vn 0.0888 -0.7606 -0.6431
vn 0.0888 -0.7606 0.6431
vn -0.5081 -0.6497 -0.5654
vn -0.5081 -0.6497 0.5654
vn -0.0000 -0.0264 0.9997
vn -0.0068 0.7455 0.6665
vn 0.2860 -0.6756 0.6795
vn -0.0000 0.7455 0.6665
vn -0.0000 0.7418 0.6706
vn -0.0480 -0.7221 0.6901
vn 0.2485 -0.8948 -0.3709
vn -0.0000 -0.0265 -0.9997
vn -0.0620 -0.7253 -0.6856
vn -0.0000 0.7455 -0.6665
vn 0.2940 -0.6777 -0.6740
vn -0.0069 0.7455 -0.6665
vn -0.5376 0.6247 0.5663
vn -0.5080 -0.6499 0.5654
vn -0.0137 0.7455 0.6664
vn -0.5053 -0.5417 0.6718
vn -0.6096 0.4623 0.6440
vn -0.5293 -0.7091 -0.4659
vn -0.7274 -0.3724 -0.5763
vn -0.5908 0.7322 0.3389
vn -0.5108 0.4593 -0.7267
vn 0.5566 -0.6997 -0.4478
vn 0.7163 -0.3975 -0.5735
vn 0.4978 0.4165 -0.7607
vn 0.6081 0.4878 0.6264
vn 0.5325 -0.4945 0.6870
vn 0.5660 0.7622 0.3141
vn 0.5296 -0.4917 -0.6911
vn 0.6110 0.4903 -0.6215
vn 0.5615 -0.6968 0.4462
vn 0.7119 -0.3901 0.5840
vn 0.5829 0.7314 -0.3539
vn 0.4958 0.4766 0.7260
vn -0.7156 -0.3878 0.5810
vn -0.5099 0.4497 0.7333
vn -0.7437 -0.2390 0.6243
vn -0.5829 0.7314 -0.3539
vn -0.6199 0.4556 -0.6389
vn -0.5793 0.3056 -0.7556
vn -0.5375 0.6249 -0.5663
vn 0.0887 -0.7607 -0.6431
vn 0.6033 -0.5367 -0.5900
vn 0.5082 0.6497 -0.5654
vn -0.0069 0.7418 -0.6706
vn 0.4338 0.7115 0.5528
vn -0.3979 0.6194 0.6768
vn -0.2299 -0.6829 0.6934
vn -0.1008 -0.8546 0.5094
vn -0.4150 0.7870 0.4566
vn -0.0202 0.8354 0.5492
vn 0.2371 -0.8202 0.5206
vn 0.2878 -0.6628 0.6913
vn -0.3818 0.6249 0.6810
vn -0.2428 -0.6887 0.6832
vn 0.0397 -0.9357 0.3505
vn 0.2083 0.7064 0.6765
vn 0.3372 -0.6465 0.6844
vn -0.2085 -0.6985 0.6846
vn -0.3435 0.6365 0.6905
vn -0.2287 0.8873 0.4004
vn 0.0864 -0.9013 0.4246
vn 0.3005 -0.6682 0.6806
vn 0.1874 0.6977 0.6915
vn -0.5957 0.5452 -0.5897
vn 0.1875 0.6978 -0.6914
vn -0.5053 -0.6547 -0.5622
vn 0.2925 -0.6662 -0.6860
vn 0.0661 -0.9200 -0.3863
vn -0.2346 0.8928 -0.3846
vn -0.3535 0.6333 -0.6885
vn -0.2231 -0.6920 -0.6865
vn 0.2943 -0.6532 -0.6977
vn 0.1452 0.7032 -0.6960
vn -0.2287 0.8874 -0.4004
vn 0.0463 -0.9146 -0.4017
vn -0.2019 -0.6915 -0.6936
vn -0.3596 0.6316 -0.6868
vn 0.1385 0.6960 -0.7046
vn 0.2719 -0.6667 -0.6940
vn 0.2314 -0.8156 -0.5303
vn -0.0406 0.8256 -0.5628
vn -0.3802 0.7867 -0.4863
vn -0.1009 -0.8460 -0.5236
vn -0.2087 -0.6825 -0.7005
vn -0.3516 0.6299 -0.6925
vn -0.5958 0.5452 0.5898
vn -0.4998 -0.6571 0.5642
vn 0.4414 0.7123 -0.5458
vn 0.5534 -0.6092 -0.5680
vn 0.5134 0.6474 0.5633
vn 0.6061 -0.5392 0.5848
vn -0.4780 -0.8764 -0.0591
vn -0.5783 0.4606 -0.6733
vn 0.6926 -0.7162 -0.0859
vn 0.5766 0.5933 -0.5617
vn 0.2196 0.0442 0.9746
vn 0.6194 0.6627 0.4210
vn -0.1746 -0.0265 0.9843
vn -0.6411 0.6365 0.4288
vn -0.4640 -0.8839 -0.0591
vn -0.5813 0.4632 -0.6690
vn 0.6840 -0.7234 -0.0935
vn 0.5796 0.5876 -0.5646
vn 0.2263 0.0619 0.9721
vn 0.6253 0.6526 0.4278
vn -0.1674 -0.0441 0.9849
vn -0.6446 0.6313 0.4312
vn -0.4728 -0.8792 -0.0593
vn -0.5296 0.4568 -0.7148
vn 0.6209 0.5217 -0.5850
vn 0.2265 0.0530 0.9726
vn 0.5603 0.7298 0.3916
vn -0.1673 -0.0529 0.9845
vn -0.6834 0.6248 0.3777
vn 0.5535 -0.6090 -0.5681
vn 0.4413 0.7123 -0.5458
vn 0.4338 0.7114 0.5529
vn -0.4999 -0.6569 0.5644
vn -0.5957 0.5453 0.5898
vn -0.5052 -0.6547 -0.5622
vn -0.5957 0.5452 -0.5898
vn 0.6032 -0.5367 -0.5900
vn 0.5081 0.6497 -0.5654
vn 0.6060 -0.5392 0.5849
vn 0.5133 0.6473 0.5634
vn -0.5081 -0.6497 0.5655
vn -0.5376 0.6248 0.5662
vn -0.4781 -0.8763 0.0591
vn 0.6922 -0.7156 0.0936
vn -0.5783 0.4606 0.6733
vn 0.5688 0.6013 0.5611
vn 0.2266 0.0443 -0.9730
vn -0.1746 -0.0265 -0.9843
vn 0.6194 0.6627 -0.4210
vn -0.6432 0.6387 -0.4224
vn -0.4642 -0.8832 0.0666
vn 0.6835 -0.7229 0.1012
vn -0.5813 0.4631 0.6691
vn 0.5796 0.5877 0.5646
vn 0.2264 0.0619 -0.9721
vn -0.1744 -0.0528 -0.9833
vn 0.6274 0.6547 -0.4215
vn -0.6468 0.6334 -0.4248
vn -0.4725 -0.8788 0.0667
vn -0.5297 0.4567 0.7147
vn 0.6181 0.5280 0.5824
vn 0.2334 0.0529 -0.9709
vn 0.5585 0.7360 -0.3826
vn -0.6853 0.6267 -0.3710
vn 0.5535 -0.6091 -0.5680
vn 0.6033 -0.5366 -0.5900
vt 0.648903 0.058708
vt 0.733542 0.058708
vt 0.648903 0.131115
vt 0.733542 0.131115
vt 0.739812 0.062622
vt 0.739812 0.125245
vt 0.749216 0.062622
vt 0.749216 0.125245
vt 0.755486 0.058708
vt 0.755486 0.131115
vt 0.805643 0.058708
vt 0.805643 0.131115
vt 0.811912 0.062622
vt 0.811912 0.125245
vt 0.818182 0.058708
vt 0.818182 0.131115
vt 0.884013 0.058708
vt 0.884013 0.129159
vt 0.890282 0.062622
vt 0.893417 0.125245
vt 0.899687 0.058708
vt 0.899687 0.129159
vt 0.959248 0.058708
vt 0.959248 0.129159
vt 0.645768 0.056751
vt 0.733542 0.056751
vt 0.645768 0.131115
vt 0.733542 0.133072
vt 0.746082 0.056751
vt 0.746082 0.133072
vt 0.755486 0.056751
vt 0.755486 0.133072
vt 0.912226 0.056751
vt 0.912226 0.131115
vt 0.962382 0.056751
vt 0.962382 0.131115
vt 0.746082 0.060665
vt 0.746082 0.127202
vt 0.432602 0.759295
vt 0.413793 0.847358
vt 0.413793 0.745597
vt 0.432602 0.847358
vt 0.451411 0.847358
vt 0.451411 0.745597
vt 0.432602 0.745597
vt 0.106583 0.847358
vt 0.106583 0.745597
vt 0.009404 0.847358
vt 0.009404 0.745597
vt 0.009404 0.857143
vt 0.009404 0.890411
vt 0.009404 0.921722
vt 0.009404 0.923679
vt 0.398119 0.857143
vt 0.398119 0.890411
vt 0.398119 0.923679
vt 0.398119 0.921722
vt 0.623824 0.745597
vt 0.623824 0.847358
vt 0.623824 0.729941
vt 0.460815 0.731898
vt 0.623824 0.152642
vt 0.460815 0.152642
vt 0.448276 0.152642
vt 0.448276 0.731898
vt 0.429467 0.731898
vt 0.429467 0.152642
vt 0.413793 0.152642
vt 0.413793 0.731898
vt 0.319749 0.731898
vt 0.319749 0.152642
vt 0.304075 0.152642
vt 0.304075 0.731898
vt 0.294671 0.731898
vt 0.294671 0.152642
vt 0.159875 0.152642
vt 0.159875 0.731898
vt 0.147335 0.731898
vt 0.147335 0.152642
vt 0.134796 0.152642
vt 0.134796 0.731898
vt 0.015674 0.729941
vt 0.015674 0.152642
vt 0.307210 0.731898
vt 0.307210 0.152642
vt 0.316614 0.152642
vt 0.316614 0.731898
vt 0.620690 0.729941
vt 0.620690 0.152642
vt 0.009404 0.088063
vt 0.009404 0.121331
vt 0.134796 0.088063
vt 0.134796 0.121331
vt 0.103448 0.105675
vt 0.037618 0.105675
vt 0.247649 0.088063
vt 0.247649 0.121331
vt 0.369906 0.088063
vt 0.369906 0.121331
vt 0.341693 0.105675
vt 0.275862 0.105675
vt 0.482759 0.088063
vt 0.482759 0.121331
vt 0.608150 0.088063
vt 0.608150 0.121331
vt 0.576803 0.105675
vt 0.510972 0.105675
vt 0.896552 0.152642
vt 0.896552 0.731898
vt 0.645768 0.152642
vt 0.645768 0.731898
vt 0.648903 0.152642
vt 0.648903 0.731898
vt 0.899687 0.743640
vt 0.899687 0.847358
vt 0.645768 0.743640
vt 0.645768 0.847358
s 1
usemtl Mag1Mtl
f 1/1/1 2/2/2 3/3/3
f 3/3/3 2/2/2 4/4/4
f 2/2/2 5/5/5 4/4/4
f 4/4/4 5/5/5 6/6/6
f 5/5/5 7/7/7 6/6/6
f 6/6/6 7/7/7 8/8/8
f 7/7/7 9/9/9 8/8/8
f 8/8/8 9/9/9 10/10/10
f 9/9/9 11/11/11 10/10/10
f 10/10/10 11/11/11 12/12/12
f 11/11/11 13/13/13 12/12/12
f 12/12/12 13/13/13 14/14/14
f 13/13/13 15/15/15 14/14/14
f 14/14/14 15/15/15 16/16/16
f 15/15/15 17/17/17 16/16/16
f 16/16/16 17/17/17 18/18/18
f 17/17/17 19/19/19 18/18/18
f 18/18/18 19/19/19 20/20/20
f 19/19/19 21/21/21 20/20/20
f 20/20/20 21/21/21 22/22/22
f 21/21/21 23/23/23 22/22/22
f 22/22/22 23/23/23 24/24/24
f 25/3/25 26/4/26 27/2/27
f 27/2/27 26/4/26 28/5/28
f 26/4/26 29/6/29 28/5/28
f 28/5/28 29/6/29 30/7/30
f 29/6/29 31/8/31 30/7/30
f 30/7/30 31/8/31 32/9/32
f 31/8/31 33/10/33 32/9/32
f 32/9/32 33/10/33 34/11/34
f 33/10/33 35/12/35 34/11/34
f 34/11/34 35/12/35 36/13/36
f 35/12/35 37/14/37 36/13/36
f 36/13/36 37/14/37 38/15/38
f 37/14/37 39/16/39 38/15/38
f 38/15/38 39/16/39 40/17/40
f 39/16/39 41/18/41 40/17/40
f 40/17/40 41/18/41 42/19/42
f 41/18/41 43/20/43 42/19/42
f 42/19/42 43/20/43 44/21/44
f 43/20/43 45/22/45 44/21/44
f 44/21/44 45/22/45 46/23/46
f 45/22/45 47/24/47 46/23/46
f 48/25/48 49/26/49 50/27/50
f 50/27/50 49/26/49 51/28/51
f 49/26/49 52/29/52 51/28/51
f 51/28/51 52/29/52 53/30/53
f 52/29/52 54/31/52 53/30/53
f 53/30/53 54/31/52 55/32/54
f 54/31/52 56/33/55 55/32/54
f 55/32/54 56/33/55 57/34/56
f 56/33/55 58/35/57 57/34/56
f 57/34/56 58/35/57 59/36/58
f 60/27/59 61/28/60 62/26/61
f 62/26/61 61/28/60 63/37/62
f 61/28/60 64/38/63 63/37/62
f 63/37/62 64/38/63 65/31/64
f 64/38/63 66/32/65 65/31/64
f 65/31/64 66/32/65 67/33/66
f 66/32/65 68/34/67 67/33/66
f 67/33/66 68/34/67 69/35/68
f 68/34/67 70/36/69 69/35/68
f 71/39/70 72/40/71 73/41/72
f 71/39/70 74/42/73 72/40/71
f 71/39/70 75/43/74 74/42/73
f 71/39/70 76/44/75 75/43/74
f 71/39/70 77/45/63 76/44/75
f 78/45/76 79/39/77 80/44/78
f 80/44/78 79/39/77 81/42/79
f 79/39/77 82/41/80 81/42/79
f 81/42/79 82/41/80 83/40/79
f 82/41/80 84/46/81 83/40/79
f 85/47/67 86/48/82 87/49/83
f 85/47/67 88/46/84 86/48/82
f 85/47/67 72/40/71 88/46/84
f 85/47/67 73/41/72 72/40/71
f 89/50/85 90/51/86 91/50/87
f 91/50/87 90/51/86 92/51/88
f 90/51/86 93/52/89 92/51/88
f 92/51/88 93/52/89 94/53/90
f 92/51/88 95/54/91 91/50/87
f 92/51/88 96/55/92 95/54/91
f 92/51/88 97/56/93 96/55/92
f 92/51/88 94/53/90 97/56/93
f 98/55/94 89/50/85 99/54/95
f 98/55/94 90/51/86 89/50/85
f 98/55/94 93/52/89 90/51/86
f 98/55/94 100/57/96 93/52/89
f 101/54/97 102/55/98 103/54/99
f 103/54/99 102/55/98 104/55/100
f 102/55/98 105/57/101 104/55/100
f 104/55/100 105/57/101 106/56/102
f 107/51/103 106/56/102 108/53/104
f 107/51/103 104/55/100 106/56/102
f 107/51/103 103/54/99 104/55/100
f 107/51/103 109/50/105 103/54/99
f 102/55/98 110/52/106 105/57/101
f 102/55/98 111/51/107 110/52/106
f 102/55/98 112/50/108 111/51/107
f 102/55/98 101/54/97 112/50/108
f 113/48/109 84/46/81 114/49/68
f 114/49/68 84/46/81 115/47/110
f 84/46/81 82/41/80 115/47/110
f 95/54/91 96/55/92 98/55/94
f 98/55/94 96/55/92 100/57/96
f 96/55/92 97/56/93 100/57/96
f 109/50/105 107/51/103 111/51/107
f 111/51/107 107/51/103 110/52/106
f 107/51/103 108/53/104 110/52/106
f 116/58/111 80/44/78 117/59/112
f 117/59/112 80/44/78 118/43/113
f 80/44/78 81/42/79 118/43/113
f 119/60/114 120/61/115 121/62/25
f 121/62/25 120/61/115 122/63/116
f 122/63/116 120/61/115 123/64/117
f 123/64/117 120/61/115 124/65/118
f 124/65/118 125/66/119 123/64/117
f 123/64/117 125/66/119 126/67/120
f 126/67/120 125/66/119 127/68/121
f 127/68/121 125/66/119 128/69/10
f 128/69/10 129/70/122 127/68/121
f 127/68/121 129/70/122 130/71/123
f 130/71/123 129/70/122 131/72/124
f 131/72/124 129/70/122 132/73/14
f 132/73/14 133/74/125 131/72/124
f 131/72/124 133/74/125 134/75/126
f 134/75/126 133/74/125 135/76/127
f 135/76/127 133/74/125 136/77/128
f 136/77/128 137/78/129 135/76/127
f 135/76/127 137/78/129 138/79/130
f 138/79/130 137/78/129 139/80/131
f 139/80/131 137/78/129 140/81/132
f 141/82/133 142/81/134 143/83/135
f 143/83/135 142/81/134 144/80/136
f 144/80/136 142/81/134 145/79/137
f 145/79/137 142/81/134 146/78/138
f 146/78/138 147/77/139 145/79/137
f 145/79/137 147/77/139 148/76/140
f 148/76/140 147/77/139 149/75/141
f 149/75/141 147/77/139 150/74/142
f 150/74/142 151/84/143 149/75/141
f 149/75/141 151/84/143 152/85/144
f 152/85/144 151/84/143 153/86/145
f 153/86/145 151/84/143 154/87/146
f 154/87/146 155/69/147 153/86/145
f 153/86/145 155/69/147 156/68/148
f 156/68/148 155/69/147 157/67/149
f 157/67/149 155/69/147 158/66/150
f 158/66/150 159/65/151 157/67/149
f 157/67/149 159/65/151 160/64/152
f 160/64/152 159/65/151 161/63/153
f 161/63/153 159/65/151 162/61/154
f 91/50/87 95/54/91 89/50/85
f 89/50/85 95/54/91 99/54/95
f 94/53/90 93/52/89 97/56/93
f 97/56/93 93/52/89 100/57/96
f 140/81/132 163/82/155 139/80/131
f 139/80/131 163/82/155 164/83/156
f 162/61/154 165/88/157 161/63/153
f 161/63/153 165/88/157 166/89/158
f 167/59/159 75/43/74 168/58/160
f 168/58/160 75/43/74 76/44/75
f 169/90/161 170/91/162 171/92/163
f 171/92/163 170/91/162 172/93/164
f 173/94/165 174/93/166 175/95/167
f 175/95/167 174/93/166 176/91/168
f 173/94/165 175/95/167 171/92/163
f 171/92/163 175/95/167 169/90/161
f 176/91/168 174/93/166 170/91/162
f 170/91/162 174/93/166 172/93/164
f 177/96/169 178/97/170 179/98/171
f 179/98/171 178/97/170 180/99/172
f 181/100/173 182/99/174 183/101/175
f 183/101/175 182/99/174 184/97/176
f 181/100/173 183/101/175 179/98/171
f 179/98/171 183/101/175 177/96/169
f 184/97/176 182/99/174 178/97/170
f 178/97/170 182/99/174 180/99/172
f 185/102/177 186/103/178 187/104/171
f 187/104/171 186/103/178 188/105/179
f 189/106/180 190/105/181 191/107/182
f 191/107/182 190/105/181 192/103/183
f 189/106/180 191/107/182 187/104/171
f 187/104/171 191/107/182 185/102/177
f 192/103/183 190/105/181 186/103/178
f 186/103/178 190/105/181 188/105/179
f 193/108/184 194/109/185 195/110/25
f 195/110/25 194/109/185 196/111/186
f 197/112/187 198/113/188 199/108/189
f 199/108/189 198/113/188 200/109/190
f 201/114/191 202/115/192 203/116/193
f 203/116/193 202/115/192 204/117/194
f 205/116/195 206/117/196 207/114/68
f 207/114/68 206/117/196 208/115/57
f 209/90/197 210/92/198 211/91/199
f 211/91/199 210/92/198 212/93/200
f 213/94/201 214/95/202 215/93/203
f 215/93/203 214/95/202 216/91/204
f 213/94/201 210/92/198 214/95/202
f 214/95/202 210/92/198 209/90/197
f 216/91/204 211/91/199 215/93/203
f 215/93/203 211/91/199 212/93/200
f 217/96/205 218/98/206 219/97/207
f 219/97/207 218/98/206 220/99/208
f 221/100/209 222/101/210 223/99/211
f 223/99/211 222/101/210 224/97/212
f 221/100/209 218/98/206 222/101/210
f 222/101/210 218/98/206 217/96/205
f 224/97/212 219/97/207 223/99/211
f 223/99/211 219/97/207 220/99/208
f 225/102/213 226/104/206 227/103/214
f 227/103/214 226/104/206 228/105/215
f 229/106/216 230/107/210 231/105/217
f 231/105/217 230/107/210 232/103/218
f 229/106/216 226/104/206 230/107/210
f 230/107/210 226/104/206 225/102/213
f 232/103/218 227/103/214 231/105/217
f 231/105/217 227/103/214 228/105/215
f 108/53/104 106/56/102 110/52/106
f 110/52/106 106/56/102 105/57/101
f 73/41/72 77/45/63 71/39/70
f 82/41/80 79/39/77 78/45/76
f 176/91/168 169/90/161 175/95/167
f 176/91/168 170/91/162 169/90/161
f 172/93/164 173/94/165 171/92/163
f 172/93/164 174/93/166 173/94/165
f 184/97/176 177/96/169 183/101/175
f 184/97/176 178/97/170 177/96/169
f 180/99/172 181/100/173 179/98/171
f 180/99/172 182/99/174 181/100/173
f 192/103/183 185/102/177 191/107/182
f 192/103/183 186/103/178 185/102/177
f 188/105/179 189/106/180 187/104/171
f 188/105/179 190/105/181 189/106/180
f 209/90/197 216/91/204 214/95/202
f 209/90/197 211/91/199 216/91/204
f 213/94/201 212/93/200 210/92/198
f 213/94/201 215/93/203 212/93/200
f 217/96/205 224/97/212 222/101/210
f 217/96/205 219/97/207 224/97/212
f 221/100/209 220/99/208 218/98/206
f 221/100/209 223/99/211 220/99/208
f 225/102/213 232/103/218 230/107/210
f 225/102/213 227/103/214 232/103/218
f 229/106/216 228/105/215 226/104/206
f 229/106/216 231/105/217 228/105/215
f 99/54/95 95/54/91 98/55/94
f 233/1/219 25/3/25 27/2/27
f 234/25/220 60/27/59 62/26/61
f 109/50/105 111/51/107 112/50/108
f 103/54/99 112/50/108 101/54/97
