# Blender 5.1.2
# www.blender.org
mtllib scout mag.mtl
o scout_mag
v -0.420407 -0.007537 0.050990
v -0.420407 -0.007537 -0.024709
v -0.420407 -0.016952 0.050990
v -0.420407 -0.016952 -0.024709
v -0.420407 -0.016952 0.050990
v -0.415005 -0.016952 0.064494
v -0.420407 -0.007537 0.050990
v -0.415005 -0.007537 0.064494
v -0.415005 -0.016952 -0.038305
v -0.420407 -0.016952 -0.024709
v -0.415005 -0.007537 -0.038305
v -0.420407 -0.007537 -0.024709
v -0.006207 -0.007537 0.050990
v -0.006207 -0.016952 -0.024709
v -0.006207 -0.007537 -0.024709
v -0.006207 -0.016952 0.050990
v -0.006207 -0.007537 -0.024709
v -0.011509 -0.016952 -0.038305
v -0.011509 -0.007537 -0.038305
v -0.006207 -0.016952 -0.024709
v -0.011509 -0.007537 0.064494
v -0.006207 -0.016952 0.050990
v -0.006207 -0.007537 0.050990
v -0.011509 -0.016952 0.064494
v -0.407208 0.189537 -0.015905
v -0.407208 -0.007537 -0.015905
v -0.407208 0.181874 -0.013204
v -0.407208 0.189537 -0.013204
v -0.407208 0.172555 -0.010808
v -0.407208 0.161652 -0.003705
v -0.407208 -0.007537 0.042193
v -0.407208 0.154896 0.005793
v -0.407208 0.154896 0.020495
v -0.407208 0.161652 0.029994
v -0.407208 0.172555 0.037097
v -0.407208 0.181874 0.039492
v -0.407208 0.189537 0.042193
v -0.407208 0.189537 0.039492
v -0.019406 0.181874 -0.013204
v -0.019406 0.189537 -0.015905
v -0.019406 0.189537 -0.013204
v -0.019406 -0.007537 -0.015905
v -0.019406 0.172555 -0.010808
v -0.019406 0.161652 -0.003705
v -0.019406 -0.007537 0.042193
v -0.019406 0.154896 0.005793
v -0.019406 0.154896 0.020495
v -0.019406 0.161652 0.029994
v -0.019406 0.172555 0.037097
v -0.019406 0.181874 0.039492
v -0.019406 0.189537 0.042193
v -0.019406 0.189537 0.039492
v -0.403004 -0.016952 -0.038305
v -0.022305 -0.016952 -0.038305
v -0.022305 -0.016952 0.064494
v -0.011509 -0.016952 0.064494
v -0.403004 -0.016952 0.064494
v -0.011509 -0.016952 -0.038305
v -0.006207 -0.016952 0.050990
v -0.006207 -0.016952 -0.024709
v -0.415005 -0.016952 -0.038305
v -0.415005 -0.016952 0.064494
v -0.420407 -0.016952 0.050990
v -0.420407 -0.016952 -0.024709
v -0.161206 -0.004100 -0.058004
v -0.261105 -0.004100 -0.058004
v -0.161206 0.021986 -0.068906
v -0.261105 0.021986 -0.068906
v -0.262608 -0.004100 0.084193
v -0.162709 -0.004100 0.084193
v -0.162709 0.021986 0.095194
v -0.262608 0.021986 0.095194
v -0.161206 -0.004100 -0.023107
v -0.261105 -0.004100 -0.023107
v -0.161206 -0.004100 -0.058004
v -0.261105 -0.004100 -0.058004
v -0.162709 -0.004100 0.084193
v -0.262608 -0.004100 0.049296
v -0.162709 -0.004100 0.049296
v -0.262608 -0.004100 0.084193
v -0.390904 0.189537 0.052592
v -0.394306 0.189537 0.044795
v -0.402211 0.189537 0.052592
v -0.383503 0.189537 0.044795
v -0.041905 0.189537 0.044795
v -0.402211 0.189537 0.039492
v -0.394306 0.189537 0.039492
v -0.407208 0.189537 0.042193
v -0.407208 0.189537 0.039492
v -0.034504 0.189537 0.052592
v -0.032208 0.189537 0.044795
v -0.024411 0.189537 0.052592
v -0.024411 0.189537 0.039492
v -0.032208 0.189537 0.039492
v -0.019406 0.189537 0.042193
v -0.019406 0.189537 0.039492
v -0.394306 0.189537 -0.018506
v -0.402211 0.189537 -0.013204
v -0.394306 0.189537 -0.013204
v -0.407208 0.189537 -0.015905
v -0.407208 0.189537 -0.013204
v -0.402211 0.189537 -0.026304
v -0.390904 0.189537 -0.026304
v -0.383503 0.189537 -0.018506
v -0.041905 0.189537 -0.018506
v -0.034504 0.189537 -0.026304
v -0.032208 0.189537 -0.018506
v -0.024411 0.189537 -0.026304
v -0.024411 0.189537 -0.013204
v -0.032208 0.189537 -0.013204
v -0.019406 0.189537 -0.015905
v -0.019406 0.189537 -0.013204
v -0.394306 0.161652 -0.003705
v -0.394306 0.172555 -0.010808
v -0.407208 0.161652 -0.003705
v -0.407208 0.172555 -0.010808
v -0.407208 0.154896 0.005793
v -0.394306 0.154896 0.005793
v -0.407208 0.154896 0.020495
v -0.394306 0.154896 0.020495
v -0.407208 0.161652 0.029994
v -0.394306 0.161652 0.029994
v -0.407208 0.172555 0.037097
v -0.394306 0.172555 0.037097
v -0.019406 0.161652 0.029994
v -0.032208 0.172555 0.037097
v -0.019406 0.172555 0.037097
v -0.032208 0.161652 0.029994
v -0.019406 0.154896 0.020495
v -0.032208 0.154896 0.020495
v -0.019406 0.154896 0.005793
v -0.032208 0.154896 0.005793
v -0.019406 0.161652 -0.003705
v -0.032208 0.161652 -0.003705
v -0.019406 0.172555 -0.010808
v -0.032208 0.172555 -0.010808
v -0.022305 -0.016952 -0.038305
v -0.403004 -0.016952 -0.038305
v -0.022305 -0.007537 -0.038305
v -0.011509 -0.007537 -0.038305
v -0.011509 -0.016952 -0.038305
v -0.403004 -0.007537 -0.038305
v -0.415005 -0.016952 -0.038305
v -0.415005 -0.007537 -0.038305
v -0.022305 -0.007537 0.064494
v -0.403004 -0.007537 0.064494
v -0.022305 -0.016952 0.064494
v -0.011509 -0.016952 0.064494
v -0.011509 -0.007537 0.064494
v -0.403004 -0.016952 0.064494
v -0.415005 -0.007537 0.064494
v -0.415005 -0.016952 0.064494
v -0.394306 0.144786 -0.018506
v -0.394306 0.144786 0.044795
v -0.383503 0.144786 -0.018506
v -0.383503 0.144786 0.044795
v -0.041905 0.144786 -0.018506
v -0.041905 0.144786 0.044795
v -0.032208 0.144786 -0.018506
v -0.032208 0.144786 0.044795
v -0.402211 -0.007537 -0.026304
v -0.402211 0.189537 -0.026304
v -0.390904 -0.007537 -0.026304
v -0.407208 0.189537 -0.015905
v -0.407208 -0.007537 -0.015905
v -0.390904 0.189537 -0.026304
v -0.034504 -0.007537 -0.026304
v -0.034504 0.189537 -0.026304
v -0.024411 -0.007537 -0.026304
v -0.024411 0.189537 -0.026304
v -0.019406 -0.007537 -0.015905
v -0.019406 0.189537 -0.015905
v -0.390904 -0.007537 0.052592
v -0.390904 0.189537 0.052592
v -0.402211 0.189537 0.052592
v -0.034504 0.189537 0.052592
v -0.402211 -0.007537 0.052592
v -0.407208 -0.007537 0.042193
v -0.407208 0.189537 0.042193
v -0.034504 -0.007537 0.052592
v -0.024411 0.189537 0.052592
v -0.024411 -0.007537 0.052592
v -0.019406 0.189537 0.042193
v -0.019406 -0.007537 0.042193
v -0.161206 0.021986 -0.023107
v -0.161206 -0.004100 -0.058004
v -0.161206 0.021986 -0.068906
v -0.161206 -0.004100 -0.023107
v -0.165409 0.033213 -0.047307
v -0.165409 0.033213 -0.023107
v -0.173306 0.043745 -0.023107
v -0.173306 0.043745 -0.047307
v -0.162709 0.021986 0.049296
v -0.162709 -0.004100 0.084193
v -0.162709 -0.004100 0.049296
v -0.162709 0.021986 0.095194
v -0.166905 0.033213 0.073496
v -0.166905 0.033213 0.049296
v -0.174809 0.043745 0.049296
v -0.174809 0.043745 0.073496
v -0.262608 -0.004100 0.084193
v -0.262608 0.021986 0.049296
v -0.262608 -0.004100 0.049296
v -0.262608 0.021986 0.095194
v -0.258404 0.033213 0.073496
v -0.258404 0.033213 0.049296
v -0.250508 0.043745 0.073496
v -0.250508 0.043745 0.049296
v -0.261105 -0.004100 -0.023107
v -0.261105 0.021986 -0.023107
v -0.261105 -0.004100 -0.058004
v -0.261105 0.021986 -0.068906
v -0.256909 0.033213 -0.047307
v -0.256909 0.033213 -0.023107
v -0.249005 0.043745 -0.047307
v -0.249005 0.043745 -0.023107
v -0.161206 0.021986 -0.068906
v -0.256909 0.033213 -0.047307
v -0.165409 0.033213 -0.047307
v -0.261105 0.021986 -0.068906
v -0.173306 0.043745 -0.047307
v -0.249005 0.043745 -0.047307
v -0.166905 0.033213 0.073496
v -0.262608 0.021986 0.095194
v -0.162709 0.021986 0.095194
v -0.258404 0.033213 0.073496
v -0.250508 0.043745 0.073496
v -0.174809 0.043745 0.073496
v -0.394306 0.172555 0.037097
v -0.407208 0.181874 0.039492
v -0.394306 0.181874 0.039492
v -0.407208 0.172555 0.037097
v -0.402211 0.189537 0.039492
v -0.394306 0.189537 0.039492
v -0.407208 0.189537 0.039492
v -0.024411 0.189537 0.039492
v -0.032208 0.181874 0.039492
v -0.032208 0.189537 0.039492
v -0.019406 0.181874 0.039492
v -0.019406 0.189537 0.039492
v -0.019406 0.172555 0.037097
v -0.032208 0.172555 0.037097
v -0.019406 0.172555 -0.010808
v -0.019406 0.181874 -0.013204
v -0.032208 0.172555 -0.010808
v -0.032208 0.181874 -0.013204
v -0.024411 0.189537 -0.013204
v -0.032208 0.189537 -0.013204
v -0.019406 0.189537 -0.013204
v -0.394306 0.172555 -0.010808
v -0.394306 0.181874 -0.013204
v -0.407208 0.172555 -0.010808
v -0.407208 0.181874 -0.013204
v -0.402211 0.189537 -0.013204
v -0.407208 0.189537 -0.013204
v -0.394306 0.189537 -0.013204
v -0.394306 0.144786 0.044795
v -0.394306 0.189537 0.044795
v -0.383503 0.144786 0.044795
v -0.383503 0.189537 0.044795
v -0.041905 0.144786 0.044795
v -0.041905 0.189537 0.044795
v -0.032208 0.144786 0.044795
v -0.032208 0.189537 0.044795
v -0.383503 0.144786 -0.018506
v -0.383503 0.189537 -0.018506
v -0.394306 0.189537 -0.018506
v -0.394306 0.144786 -0.018506
v -0.041905 0.189537 -0.018506
v -0.041905 0.144786 -0.018506
v -0.032208 0.189537 -0.018506
v -0.032208 0.144786 -0.018506
v -0.173306 0.043745 -0.047307
v -0.249005 0.043745 -0.047307
v -0.173306 0.043745 -0.023107
v -0.249005 0.043745 -0.023107
v -0.250508 0.043745 0.073496
v -0.174809 0.043745 0.073496
v -0.174809 0.043745 0.049296
v -0.250508 0.043745 0.049296
v -0.403004 -0.007537 -0.038305
v -0.415005 -0.007537 -0.038305
v -0.420407 -0.007537 -0.024709
v -0.420407 -0.007537 0.050990
v -0.403004 -0.007537 0.064494
v -0.415005 -0.007537 0.064494
v -0.022305 -0.007537 -0.038305
v -0.022305 -0.007537 0.064494
v -0.006207 -0.007537 -0.024709
v -0.011509 -0.007537 -0.038305
v -0.006207 -0.007537 0.050990
v -0.011509 -0.007537 0.064494
v -0.032208 0.144786 0.044795
v -0.032208 0.189537 0.044795
v -0.032208 0.181874 0.039492
v -0.032208 0.189537 0.039492
v -0.032208 0.172555 0.037097
v -0.032208 0.161652 0.029994
v -0.032208 0.154896 0.020495
v -0.032208 0.154896 0.005793
v -0.032208 0.144786 -0.018506
v -0.032208 0.161652 -0.003705
v -0.032208 0.172555 -0.010808
v -0.032208 0.181874 -0.013204
v -0.032208 0.189537 -0.018506
v -0.032208 0.189537 -0.013204
v -0.394306 0.189537 -0.018506
v -0.394306 0.181874 -0.013204
v -0.394306 0.144786 -0.018506
v -0.394306 0.189537 -0.013204
v -0.394306 0.172555 -0.010808
v -0.394306 0.161652 -0.003705
v -0.394306 0.154896 0.005793
v -0.394306 0.154896 0.020495
v -0.394306 0.144786 0.044795
v -0.394306 0.161652 0.029994
v -0.394306 0.172555 0.037097
v -0.394306 0.181874 0.039492
v -0.394306 0.189537 0.044795
v -0.394306 0.189537 0.039492
v -0.312603 0.193942 0.005992
v -0.312603 0.183930 0.002291
v -0.312603 0.183930 0.017893
v -0.312603 0.173918 0.005992
v -0.312603 0.199269 0.015193
v -0.312603 0.197419 0.025691
v -0.312603 0.168590 0.015193
v -0.312603 0.189257 0.032496
v -0.312603 0.170441 0.025691
v -0.312603 0.178602 0.032496
v -0.062908 0.198771 0.000392
v -0.062908 0.183930 0.018092
v -0.062908 0.183930 -0.005010
v -0.062908 0.169088 0.000392
v -0.062908 0.206668 0.014094
v -0.062908 0.203925 0.029597
v -0.062908 0.161192 0.014094
v -0.062908 0.191826 0.039790
v -0.062908 0.163934 0.029597
v -0.062908 0.176033 0.039790
v -0.070805 0.169088 0.000392
v -0.070805 0.183930 -0.005010
v -0.068905 0.169088 0.000392
v -0.072308 0.171277 0.002894
v -0.072308 0.183930 -0.001706
v -0.075711 0.183930 -0.001706
v -0.075711 0.171277 0.002894
v -0.077610 0.183930 -0.005605
v -0.077610 0.168668 -0.000104
v -0.068905 0.183930 -0.005010
v -0.082310 0.183930 -0.005605
v -0.062908 0.169088 0.000392
v -0.062908 0.183930 -0.005010
v -0.082310 0.168668 -0.000104
v -0.068905 0.198771 0.000392
v -0.062908 0.198771 0.000392
v -0.070805 0.198771 0.000392
v -0.070805 0.183930 -0.005010
v -0.072308 0.196582 0.002894
v -0.072308 0.183930 -0.001706
v -0.075711 0.196582 0.002894
v -0.075711 0.183930 -0.001706
v -0.077610 0.183930 -0.005605
v -0.077610 0.199192 -0.000104
v -0.082310 0.199192 -0.000104
v -0.070805 0.206668 0.014094
v -0.070805 0.203925 0.029597
v -0.068905 0.206668 0.014094
v -0.072308 0.200976 0.027796
v -0.070805 0.203925 0.029597
v -0.072308 0.203314 0.014590
v -0.068905 0.203925 0.029597
v -0.062908 0.206668 0.014094
v -0.062908 0.203925 0.029597
v -0.062908 0.198771 0.000392
v -0.068905 0.198771 0.000392
v -0.070805 0.206668 0.014094
v -0.070805 0.198771 0.000392
v -0.072308 0.203314 0.014590
v -0.072308 0.196582 0.002894
v -0.075711 0.203314 0.014590
v -0.075711 0.196582 0.002894
v -0.077610 0.199192 -0.000104
v -0.077610 0.207313 0.013995
v -0.082310 0.207313 0.013995
v -0.082310 0.199192 -0.000104
v -0.264210 0.207313 0.013995
v -0.264210 0.199192 -0.000104
v -0.266804 0.207313 0.013995
v -0.266804 0.199192 -0.000104
v -0.294110 0.194139 0.005694
v -0.294110 0.199572 0.015093
v -0.295506 0.193942 0.005992
v -0.295506 0.199269 0.015193
v -0.312603 0.199269 0.015193
v -0.312603 0.193942 0.005992
v -0.312603 0.197419 0.025691
v -0.295506 0.199269 0.015193
v -0.295506 0.197419 0.025691
v -0.294110 0.199572 0.015093
v -0.294110 0.197685 0.025790
v -0.266804 0.207313 0.013995
v -0.266804 0.204492 0.029994
v -0.264210 0.204492 0.029994
v -0.082310 0.204492 0.029994
v -0.077610 0.207313 0.013995
v -0.077610 0.204492 0.029994
v -0.075711 0.200976 0.027796
v -0.075711 0.203314 0.014590
v -0.072308 0.200976 0.027796
v -0.264210 0.199192 -0.000104
v -0.264210 0.183930 -0.005605
v -0.266804 0.199192 -0.000104
v -0.264210 0.168668 -0.000104
v -0.266804 0.183930 -0.005605
v -0.266804 0.183930 -0.005605
v -0.294110 0.194139 0.005694
v -0.266804 0.168668 -0.000104
v -0.294110 0.183930 0.001994
v -0.294110 0.173720 0.005694
v -0.295506 0.193942 0.005992
v -0.294110 0.183930 0.001994
v -0.295506 0.183930 0.002291
v -0.312603 0.193942 0.005992
v -0.312603 0.183930 0.002291
v -0.295506 0.173918 0.005992
v -0.295506 0.183930 0.002291
v -0.312603 0.173918 0.005992
v -0.070805 0.163934 0.029597
v -0.070805 0.161192 0.014094
v -0.068905 0.163934 0.029597
v -0.072308 0.166883 0.027796
v -0.070805 0.163934 0.029597
v -0.072308 0.164545 0.014590
v -0.068905 0.161192 0.014094
v -0.062908 0.163934 0.029597
v -0.062908 0.161192 0.014094
v -0.068905 0.169088 0.000392
v -0.062908 0.169088 0.000392
v -0.070805 0.169088 0.000392
v -0.070805 0.161192 0.014094
v -0.072308 0.164545 0.014590
v -0.072308 0.171277 0.002894
v -0.075711 0.171277 0.002894
v -0.075711 0.164545 0.014590
v -0.077610 0.168668 -0.000104
v -0.077610 0.160547 0.013995
v -0.082310 0.168668 -0.000104
v -0.082310 0.160547 0.013995
v -0.264210 0.168668 -0.000104
v -0.264210 0.160547 0.013995
v -0.266804 0.168668 -0.000104
v -0.266804 0.160547 0.013995
v -0.294110 0.173720 0.005694
v -0.294110 0.168288 0.015093
v -0.295506 0.173918 0.005992
v -0.295506 0.168590 0.015193
v -0.312603 0.173918 0.005992
v -0.312603 0.168590 0.015193
v -0.082310 0.163367 0.029994
v -0.077610 0.163367 0.029994
v -0.264210 0.163367 0.029994
v -0.077610 0.160547 0.013995
v -0.266804 0.160547 0.013995
v -0.075711 0.166883 0.027796
v -0.266804 0.163367 0.029994
v -0.075711 0.164545 0.014590
v -0.072308 0.166883 0.027796
v -0.294110 0.170174 0.025790
v -0.294110 0.168288 0.015093
v -0.295506 0.170441 0.025691
v -0.295506 0.168590 0.015193
v -0.312603 0.170441 0.025691
v -0.295506 0.197419 0.025691
v -0.294110 0.189362 0.032794
v -0.294110 0.197685 0.025790
v -0.295506 0.189257 0.032496
v -0.266804 0.192050 0.040393
v -0.312603 0.189257 0.032496
v -0.312603 0.197419 0.025691
v -0.266804 0.204492 0.029994
v -0.264210 0.204492 0.029994
v -0.264210 0.192050 0.040393
v -0.082310 0.204492 0.029994
v -0.312603 0.178602 0.032496
v -0.295506 0.189257 0.032496
v -0.295506 0.178602 0.032496
v -0.294110 0.178497 0.032794
v -0.294110 0.189362 0.032794
v -0.266804 0.192050 0.040393
v -0.266804 0.175809 0.040393
v -0.312603 0.170441 0.025691
v -0.295506 0.178602 0.032496
v -0.295506 0.170441 0.025691
v -0.294110 0.178497 0.032794
v -0.294110 0.170174 0.025790
v -0.266804 0.175809 0.040393
v -0.266804 0.163367 0.029994
v -0.264210 0.175809 0.040393
v -0.264210 0.163367 0.029994
v -0.082310 0.192050 0.040393
v -0.082310 0.175809 0.040393
v -0.082310 0.163367 0.029994
v -0.077610 0.204492 0.029994
v -0.077610 0.192050 0.040393
v -0.075711 0.190662 0.036494
v -0.077610 0.192050 0.040393
v -0.075711 0.200976 0.027796
v -0.072308 0.200976 0.027796
v -0.072308 0.190662 0.036494
v -0.077610 0.175809 0.040393
v -0.075711 0.190662 0.036494
v -0.077610 0.175809 0.040393
v -0.075711 0.177197 0.036494
v -0.072308 0.177197 0.036494
v -0.077610 0.163367 0.029994
v -0.075711 0.177197 0.036494
v -0.075711 0.166883 0.027796
v -0.072308 0.166883 0.027796
v -0.070805 0.203925 0.029597
v -0.070805 0.191826 0.039790
v -0.068905 0.203925 0.029597
v -0.068905 0.191826 0.039790
v -0.062908 0.203925 0.029597
v -0.070805 0.176033 0.039790
v -0.062908 0.191826 0.039790
v -0.068905 0.176033 0.039790
v -0.070805 0.163934 0.029597
v -0.062908 0.176033 0.039790
v -0.068905 0.163934 0.029597
v -0.062908 0.163934 0.029597
v -0.072308 0.177197 0.036494
v -0.070805 0.163934 0.029597
v -0.070805 0.176033 0.039790
v -0.072308 0.166883 0.027796
v -0.072308 0.190662 0.036494
v -0.070805 0.203925 0.029597
v -0.072308 0.200976 0.027796
v -0.070805 0.191826 0.039790
v -0.070805 0.176033 0.039790
v -0.070805 0.191826 0.039790
v -0.072308 0.177197 0.036494
v -0.072308 0.190662 0.036494
v -0.378804 0.183930 0.012095
v -0.378804 0.180416 0.013392
v -0.378804 0.183930 0.017596
v -0.378804 0.178546 0.016596
v -0.378804 0.187444 0.013392
v -0.378804 0.189314 0.016596
v -0.378804 0.179195 0.020297
v -0.378804 0.188664 0.020297
v -0.378804 0.182060 0.022692
v -0.378804 0.185800 0.022692
v -0.313504 0.168591 0.015193
v -0.313504 0.173918 0.005992
v -0.313504 0.183930 0.002291
v -0.313504 0.197419 0.025691
v -0.313504 0.170441 0.025691
v -0.313504 0.199269 0.015193
v -0.313504 0.193942 0.005992
v -0.313504 0.189257 0.032496
v -0.313504 0.178603 0.032496
v -0.313504 0.168591 0.015193
v -0.337605 0.174939 0.007090
v -0.313504 0.173918 0.005992
v -0.337605 0.170155 0.015391
v -0.378804 0.180416 0.013392
v -0.378804 0.178546 0.016596
v -0.313504 0.168591 0.015193
v -0.337605 0.171817 0.024790
v -0.337605 0.170155 0.015391
v -0.313504 0.170441 0.025691
v -0.378804 0.179195 0.020297
v -0.378804 0.178546 0.016596
v -0.313504 0.178603 0.032496
v -0.337605 0.171817 0.024790
v -0.313504 0.170441 0.025691
v -0.337605 0.179146 0.030993
v -0.378804 0.179195 0.020297
v -0.378804 0.182060 0.022692
v -0.313504 0.183930 0.002291
v -0.337605 0.174939 0.007090
v -0.337605 0.183930 0.003794
v -0.313504 0.173918 0.005992
v -0.378804 0.180416 0.013392
v -0.378804 0.183930 0.012095
v -0.313504 0.189257 0.032496
v -0.337605 0.179146 0.030993
v -0.313504 0.178603 0.032496
v -0.337605 0.188714 0.030993
v -0.378804 0.182060 0.022692
v -0.378804 0.185800 0.022692
v -0.313504 0.189257 0.032496
v -0.337605 0.196043 0.024790
v -0.337605 0.188714 0.030993
v -0.313504 0.197419 0.025691
v -0.378804 0.188664 0.020297
v -0.378804 0.185800 0.022692
v -0.313504 0.183930 0.002291
v -0.337605 0.192921 0.007090
v -0.313504 0.193942 0.005992
v -0.337605 0.183930 0.003794
v -0.378804 0.187444 0.013392
v -0.378804 0.183930 0.012095
v -0.313504 0.199269 0.015193
v -0.337605 0.196043 0.024790
v -0.313504 0.197419 0.025691
v -0.337605 0.197704 0.015391
v -0.378804 0.188664 0.020297
v -0.378804 0.189314 0.016596
v -0.313504 0.199269 0.015193
v -0.337605 0.192921 0.007090
v -0.337605 0.197704 0.015391
v -0.313504 0.193942 0.005992
v -0.378804 0.187444 0.013392
v -0.378804 0.189314 0.016596
vn -0.9821 -0.0000 0.1885
vn -0.9821 -0.0000 -0.1885
vn -0.9821 -0.0000 0.1886
vn -0.9290 -0.0000 0.3701
vn -0.9290 -0.0000 0.3700
vn -0.9290 -0.0000 -0.3700
vn -0.9821 -0.0000 -0.1886
vn 0.9821 -0.0000 0.1885
vn 0.9821 -0.0000 -0.1885
vn 0.9821 -0.0000 -0.1886
vn 0.9290 -0.0000 -0.3700
vn 0.9290 -0.0000 0.3700
vn 0.9821 -0.0000 0.1886
vn -0.9754 -0.0000 -0.2202
vn -0.9939 -0.0000 -0.1104
vn -1.0000 -0.0000 -0.0000
vn -0.9985 -0.0000 0.0550
vn -1.0000 -0.0001 -0.0000
vn -0.9754 -0.0000 0.2202
vn 1.0000 -0.0000 -0.0000
vn 0.9754 -0.0000 -0.2202
vn 0.9939 -0.0000 -0.1104
vn 0.9985 -0.0000 0.0550
vn 1.0000 0.0001 -0.0000
vn 0.9754 -0.0000 0.2202
vn -0.0000 -1.0000 -0.0000
vn -0.0000 -0.3862 -0.9224
vn -0.0000 -0.3864 -0.9223
vn -0.0000 -0.3863 0.9224
vn -0.0000 1.0000 -0.0000
vn -0.0000 0.6912 0.7226
vn -0.0000 0.4025 0.9154
vn -0.0000 0.9518 0.3068
vn -0.0000 0.9518 -0.3068
vn -0.0000 0.9518 -0.3067
vn -0.0000 0.6912 -0.7226
vn -0.0000 0.6912 -0.7227
vn -0.0000 0.4025 -0.9154
vn -0.0000 -0.0000 -1.0000
vn -0.0000 -0.0000 1.0000
vn -0.5328 -0.0000 -0.8463
vn -0.5329 -0.0000 -0.8462
vn -0.9754 -0.0000 -0.2203
vn -0.9939 -0.0000 -0.1105
vn 0.5328 -0.0000 -0.8462
vn 0.9939 -0.0000 -0.1105
vn 0.9754 -0.0000 -0.2203
vn -0.5327 -0.0000 0.8463
vn -0.5328 -0.0000 0.8462
vn -0.9985 0.0001 0.0551
vn -0.9754 -0.0000 0.2203
vn 0.5329 -0.0000 0.8462
vn 0.5326 -0.0000 0.8463
vn 0.9754 -0.0000 0.2203
vn 0.9985 -0.0000 0.0551
vn 0.9849 0.1733 -0.0000
vn 1.0000 -0.0001 -0.0000
vn 0.8782 0.4783 -0.0000
vn 0.4472 0.8944 -0.0000
vn -0.9849 0.1733 -0.0000
vn -0.8782 0.4783 -0.0000
vn -0.4472 0.8944 -0.0000
vn -0.9849 0.1734 -0.0000
vn -1.0000 0.0001 -0.0000
vn -0.8782 0.4784 -0.0000
vn -0.0000 0.8865 -0.4628
vn -0.0000 0.5180 -0.8554
vn -0.0000 0.5180 0.8554
vn -0.0000 0.8864 0.4628
vn -0.0000 0.8864 0.4629
vn -0.0000 0.4024 -0.9155
vn -0.0000 0.1259 -0.9920
vn -0.0000 0.0863 -0.9963
vn -0.0000 0.1260 -0.9920
vn -0.0000 0.1259 0.9920
vn -0.0000 0.0863 0.9963
vn -0.0000 0.4024 0.9155
vn -1.0000 0.0002 -0.0000
vn 1.0000 -0.0002 -0.0000
vn -1.0000 -0.0003 -0.0000
vn -0.5519 -0.5361 -0.6387
vn -0.5511 -0.0000 -0.8345
vn -0.0000 -0.6456 -0.7637
vn 0.5364 -0.0001 -0.8440
vn 0.5413 -0.5413 -0.6434
vn 0.5364 -0.0000 -0.8440
vn 0.5414 -0.5413 -0.6434
vn -0.0000 0.0002 -1.0000
vn -0.0000 -0.6455 -0.7637
vn -0.0000 0.6456 -0.7637
vn -0.0000 0.6455 -0.7637
vn -0.5519 0.5362 -0.6387
vn -0.5510 0.0001 -0.8345
vn -0.5519 0.5361 -0.6387
vn 0.5414 0.5413 -0.6433
vn 0.5413 0.5413 -0.6434
vn -0.5527 0.8212 -0.1421
vn -0.0000 0.8678 0.4970
vn -0.0000 0.9849 -0.1733
vn -0.9126 0.3540 0.2045
vn -0.5527 0.8212 -0.1422
vn -0.5519 0.5362 -0.6386
vn 0.5430 0.8263 -0.1496
vn 0.5413 0.5414 -0.6433
vn 0.5414 0.5414 -0.6433
vn -0.0000 0.9849 -0.1731
vn -0.1415 0.9747 -0.1730
vn -0.1341 0.6391 -0.7574
vn -0.2448 0.6238 -0.7422
vn -0.2448 0.9553 -0.1658
vn -0.1101 0.6371 -0.7629
vn -0.1105 0.9786 -0.1737
vn -0.0000 0.9849 -0.1734
vn -0.1105 0.9786 -0.1736
vn -0.1105 0.8605 0.4973
vn -0.2448 0.9553 -0.1657
vn -0.2531 0.8385 0.4825
vn -0.1415 0.9747 -0.1729
vn -0.1415 0.8571 0.4953
vn -0.0000 0.8678 0.4969
vn 0.5430 0.8263 -0.1495
vn 0.5449 0.7266 0.4185
vn -0.0000 0.0001 -1.0000
vn -0.1341 0.6390 -0.7574
vn -0.1337 0.0001 -0.9910
vn -0.1337 -0.0000 -0.9910
vn -0.2448 0.6238 -0.7423
vn -0.1341 -0.6390 -0.7574
vn -0.2370 0.0001 -0.9715
vn -0.2448 -0.6238 -0.7423
vn -0.1101 0.6370 -0.7629
vn -0.2370 -0.0000 -0.9715
vn -0.1026 -0.0000 -0.9947
vn 0.0001 -0.0000 -1.0000
vn -0.1101 -0.6370 -0.7629
vn -0.0000 -0.8678 0.4970
vn -0.5527 -0.8212 -0.1421
vn -0.9126 -0.3540 0.2045
vn -0.0000 -0.9849 -0.1732
vn -0.5519 -0.5362 -0.6386
vn -0.5527 -0.8212 -0.1422
vn -0.5527 -0.8211 -0.1422
vn 0.5414 -0.5414 -0.6433
vn 0.5430 -0.8263 -0.1496
vn 0.5413 -0.5414 -0.6433
vn -0.0000 -0.9848 -0.1735
vn -0.0000 -0.6456 -0.7636
vn -0.0000 -0.9849 -0.1734
vn -0.1341 -0.6391 -0.7574
vn -0.1415 -0.9747 -0.1730
vn -0.2448 -0.6238 -0.7422
vn -0.2447 -0.9553 -0.1658
vn -0.1101 -0.6371 -0.7629
vn -0.1105 -0.9786 -0.1737
vn -0.0000 -0.8678 0.4969
vn 0.5449 -0.7266 0.4185
vn 0.5430 -0.8263 -0.1495
vn -0.1415 -0.9747 -0.1729
vn -0.1415 -0.8571 0.4953
vn -0.2531 -0.8385 0.4825
vn -0.2448 -0.9553 -0.1658
vn -0.1105 -0.8605 0.4973
vn -0.1105 -0.9786 -0.1736
vn -0.0000 -0.9849 -0.1733
vn -0.1105 0.8605 0.4974
vn -0.2529 0.3319 0.9088
vn -0.2531 0.8385 0.4826
vn -0.1100 0.3378 0.9348
vn -0.1419 0.3390 0.9300
vn -0.0000 0.3399 0.9405
vn -0.0000 0.8677 0.4970
vn -0.1416 0.8571 0.4954
vn -0.0000 0.3398 0.9405
vn -0.0000 -0.3398 0.9405
vn -0.1100 0.3377 0.9348
vn -0.1100 -0.3377 0.9348
vn -0.2529 -0.3319 0.9088
vn -0.2529 0.3318 0.9088
vn -0.1419 0.3389 0.9301
vn -0.1418 -0.3389 0.9301
vn -0.0000 -0.8677 0.4970
vn -0.1100 -0.3378 0.9348
vn -0.0000 -0.3399 0.9405
vn -0.1105 -0.8605 0.4974
vn -0.2531 -0.8385 0.4826
vn -0.1419 -0.3390 0.9300
vn -0.1415 -0.8570 0.4954
vn 0.5449 0.7265 0.4186
vn 0.5500 0.2829 0.7858
vn 0.5500 0.2828 0.7858
vn 0.5500 -0.2829 0.7858
vn 0.5500 -0.2829 0.7857
vn 0.5501 -0.2828 0.7858
vn 0.5449 -0.7265 0.4186
vn -0.9147 -0.1420 0.3785
vn -0.9126 -0.3540 0.2046
vn -0.9147 0.1419 0.3785
vn -0.9126 0.3540 0.2046
vn -0.9147 0.1420 0.3785
vn -0.9147 -0.1419 0.3785
vn 1.0000 0.0002 -0.0000
vn -0.0629 -0.9829 -0.1730
vn -0.0632 -0.6397 -0.7660
vn -0.1338 -0.9758 -0.1732
vn -0.1973 -0.6315 -0.7498
vn -0.1962 -0.9652 -0.1727
vn -0.1338 -0.8580 0.4959
vn -0.1338 -0.9758 -0.1731
vn -0.0630 -0.8661 0.4960
vn -0.2044 -0.8490 0.4873
vn -0.1962 -0.9653 -0.1726
vn -0.0709 -0.3390 0.9381
vn -0.0630 -0.8660 0.4961
vn -0.2044 -0.8489 0.4874
vn -0.2042 -0.3377 0.9188
vn -0.0629 -0.0001 -0.9980
vn -0.0632 -0.6397 -0.7661
vn -0.1973 -0.6314 -0.7499
vn -0.1961 -0.0000 -0.9806
vn -0.0709 0.3390 0.9381
vn -0.1419 -0.3389 0.9301
vn -0.0710 -0.3390 0.9381
vn -0.2047 0.3307 0.9213
vn -0.0710 0.3390 0.9381
vn -0.1338 0.8580 0.4960
vn -0.0708 0.8656 0.4958
vn -0.2044 0.8489 0.4874
vn -0.2047 0.3308 0.9212
vn -0.0629 -0.0000 -0.9980
vn -0.0632 0.6397 -0.7661
vn -0.1973 0.6314 -0.7499
vn -0.0629 0.9829 -0.1729
vn -0.1338 0.8580 0.4959
vn -0.0708 0.8656 0.4957
vn -0.1338 0.9758 -0.1731
vn -0.2044 0.8490 0.4873
vn -0.2037 0.9637 -0.1724
vn -0.0629 0.9829 -0.1730
vn -0.0632 0.6397 -0.7660
vn -0.1973 0.6315 -0.7498
vt 0.123540 0.116308
vt 0.106952 0.116308
vt 0.123540 0.114243
vt 0.106952 0.114243
vt 0.123707 0.114232
vt 0.124883 0.114232
vt 0.123707 0.116298
vt 0.124883 0.116298
vt 0.105697 0.114243
vt 0.106873 0.114243
vt 0.105697 0.116308
vt 0.106873 0.116308
vt 0.111962 0.076646
vt 0.109727 0.058698
vt 0.111962 0.058698
vt 0.109727 0.076646
vt 0.016010 0.116308
vt 0.017186 0.114243
vt 0.017186 0.116308
vt 0.016010 0.114243
vt 0.213394 0.116298
vt 0.214569 0.114232
vt 0.214569 0.116298
vt 0.213394 0.114232
vt 0.097634 0.048641
vt 0.097634 0.001396
vt 0.098265 0.046804
vt 0.098265 0.048641
vt 0.098841 0.044570
vt 0.100559 0.041956
vt 0.111548 0.001396
vt 0.102821 0.040337
vt 0.106360 0.040337
vt 0.108623 0.041956
vt 0.110340 0.044570
vt 0.110916 0.046804
vt 0.111548 0.048641
vt 0.110916 0.048641
vt 0.218396 0.046723
vt 0.219027 0.048561
vt 0.218396 0.048561
vt 0.219027 0.001315
vt 0.217820 0.044489
vt 0.216102 0.041876
vt 0.205113 0.001315
vt 0.213840 0.040256
vt 0.210301 0.040256
vt 0.208038 0.041876
vt 0.206321 0.044489
vt 0.205745 0.046723
vt 0.205113 0.048561
vt 0.205745 0.048561
vt 0.015547 0.055474
vt 0.105907 0.055474
vt 0.105907 0.079870
vt 0.108455 0.079870
vt 0.015547 0.079870
vt 0.108455 0.055474
vt 0.012686 0.055474
vt 0.012686 0.079870
vt 0.011414 0.076646
vt 0.011414 0.058698
vt 0.310125 0.084059
vt 0.310125 0.024309
vt 0.325734 0.084059
vt 0.325733 0.024309
vt 0.266751 0.024387
vt 0.266751 0.084059
vt 0.251163 0.084059
vt 0.251163 0.024387
vt 0.289063 0.084054
vt 0.289063 0.024343
vt 0.309933 0.084054
vt 0.309933 0.024343
vt 0.267050 0.084056
vt 0.287845 0.024561
vt 0.287845 0.084056
vt 0.267050 0.024561
vt 0.211723 0.112108
vt 0.213682 0.107707
vt 0.218083 0.112108
vt 0.207584 0.107707
vt 0.014967 0.107707
vt 0.218083 0.104744
vt 0.213682 0.104744
vt 0.220912 0.106230
vt 0.220912 0.104744
vt 0.010800 0.112108
vt 0.009535 0.107707
vt 0.005134 0.112108
vt 0.005134 0.104744
vt 0.009535 0.104744
vt 0.002305 0.106230
vt 0.002305 0.104744
vt 0.213713 0.054606
vt 0.218105 0.057563
vt 0.213713 0.057563
vt 0.220929 0.056080
vt 0.220929 0.057563
vt 0.218105 0.050214
vt 0.211758 0.050214
vt 0.207628 0.054606
vt 0.015399 0.054606
vt 0.011240 0.050214
vt 0.009979 0.054606
vt 0.005586 0.050214
vt 0.005586 0.057563
vt 0.009979 0.057563
vt 0.002763 0.056080
vt 0.002763 0.057563
vt 0.213672 0.071722
vt 0.213672 0.067649
vt 0.220964 0.071722
vt 0.220964 0.067649
vt 0.220964 0.077088
vt 0.213672 0.077088
vt 0.220964 0.085481
vt 0.213672 0.085481
vt 0.220964 0.090847
vt 0.213672 0.090847
vt 0.220964 0.094920
vt 0.213672 0.094920
vt 0.002356 0.091066
vt 0.009522 0.095069
vt 0.002356 0.095069
vt 0.009522 0.091066
vt 0.002356 0.085792
vt 0.009522 0.085792
vt 0.002356 0.077543
vt 0.009522 0.077543
vt 0.002356 0.072270
vt 0.009522 0.072270
vt 0.002356 0.068267
vt 0.009522 0.068267
vt 0.019541 0.114243
vt 0.103053 0.114243
vt 0.019541 0.116308
vt 0.103053 0.116308
vt 0.211039 0.116298
vt 0.127526 0.116298
vt 0.211039 0.114232
vt 0.127526 0.114232
vt 0.112068 0.095196
vt 0.112068 0.080489
vt 0.114581 0.095196
vt 0.114581 0.080489
vt 0.193985 0.095196
vt 0.193985 0.080489
vt 0.196224 0.095196
vt 0.196224 0.080489
vt 0.096337 0.001405
vt 0.096337 0.048650
vt 0.093632 0.001405
vt 0.097540 0.048650
vt 0.097540 0.001405
vt 0.093632 0.048650
vt 0.008195 0.001405
vt 0.008195 0.048650
vt 0.005786 0.001405
vt 0.005786 0.048650
vt 0.004583 0.001405
vt 0.004583 0.048650
vt 0.115747 0.001306
vt 0.115747 0.048551
vt 0.113043 0.048551
vt 0.201184 0.048551
vt 0.113043 0.001306
vt 0.111840 0.001306
vt 0.111840 0.048551
vt 0.201184 0.001306
vt 0.203593 0.048551
vt 0.203593 0.001306
vt 0.204796 0.048551
vt 0.204796 0.001306
vt 0.353624 0.090343
vt 0.332576 0.106074
vt 0.325988 0.090343
vt 0.353624 0.106074
vt 0.339032 0.083572
vt 0.353624 0.083572
vt 0.353624 0.077221
vt 0.339032 0.077221
vt 0.223051 0.090361
vt 0.243978 0.106002
vt 0.223051 0.106002
vt 0.250529 0.090361
vt 0.237560 0.083629
vt 0.223051 0.083629
vt 0.223051 0.077314
vt 0.237560 0.077314
vt 0.243895 0.002714
vt 0.222967 0.018355
vt 0.222968 0.002714
vt 0.250446 0.018355
vt 0.237477 0.025087
vt 0.222967 0.025087
vt 0.237477 0.031402
vt 0.222968 0.031402
vt 0.353782 0.002356
vt 0.353782 0.018087
vt 0.332734 0.002356
vt 0.326146 0.018087
vt 0.339190 0.024858
vt 0.353782 0.024858
vt 0.339190 0.031209
vt 0.353782 0.031209
vt 0.332452 0.026788
vt 0.332452 0.081580
vt 0.338754 0.076849
vt 0.338754 0.031519
vt 0.244453 0.081583
vt 0.244453 0.026863
vt 0.238159 0.031588
vt 0.238159 0.076858
vt 0.213651 0.095001
vt 0.220942 0.100299
vt 0.213651 0.100299
vt 0.220942 0.095001
vt 0.218089 0.104656
vt 0.213651 0.104656
vt 0.220942 0.104656
vt 0.005126 0.104697
vt 0.009488 0.100415
vt 0.009488 0.104697
vt 0.002322 0.100415
vt 0.002322 0.104697
vt 0.002322 0.095208
vt 0.009488 0.095208
vt 0.002329 0.068139
vt 0.002329 0.062931
vt 0.009495 0.068139
vt 0.009495 0.062931
vt 0.005133 0.058649
vt 0.009495 0.058649
vt 0.002329 0.058649
vt 0.213607 0.067451
vt 0.213607 0.062153
vt 0.220898 0.067451
vt 0.220898 0.062153
vt 0.218045 0.057796
vt 0.220898 0.057796
vt 0.213607 0.057796
vt 0.096585 0.095772
vt 0.096585 0.106151
vt 0.094077 0.095772
vt 0.094077 0.106151
vt 0.014839 0.095772
vt 0.014839 0.106151
vt 0.012605 0.095772
vt 0.012605 0.106151
vt 0.114200 0.095770
vt 0.114200 0.106202
vt 0.111679 0.106202
vt 0.111679 0.095770
vt 0.193844 0.106202
vt 0.193844 0.095770
vt 0.196090 0.106202
vt 0.196090 0.095770
vt 0.339160 0.076939
vt 0.339160 0.031509
vt 0.353671 0.076939
vt 0.353671 0.031509
vt 0.237468 0.031492
vt 0.237468 0.076983
vt 0.222937 0.076983
vt 0.222937 0.031492
vt 0.206142 0.055474
vt 0.209003 0.055474
vt 0.210275 0.058698
vt 0.210275 0.076646
vt 0.206142 0.079870
vt 0.209003 0.079870
vt 0.115782 0.055474
vt 0.115782 0.079870
vt 0.113234 0.055474
vt 0.113234 0.079870
vt 0.210947 0.095797
vt 0.210947 0.106187
vt 0.209727 0.104407
vt 0.209727 0.106187
vt 0.209169 0.102244
vt 0.207506 0.099712
vt 0.205315 0.098144
vt 0.201887 0.098144
vt 0.196255 0.095797
vt 0.199696 0.099712
vt 0.198033 0.102244
vt 0.197475 0.104407
vt 0.196255 0.106187
vt 0.197475 0.106187
vt 0.111457 0.106199
vt 0.110232 0.104414
vt 0.111457 0.095774
vt 0.110232 0.106199
vt 0.109673 0.102243
vt 0.108004 0.099703
vt 0.105805 0.098129
vt 0.102366 0.098129
vt 0.096715 0.095774
vt 0.100168 0.099703
vt 0.098499 0.102243
vt 0.097939 0.104414
vt 0.096715 0.106199
vt 0.097939 0.106199
vt 0.680852 0.007045
vt 0.683623 0.006036
vt 0.683623 0.010346
vt 0.686394 0.007045
vt 0.679378 0.009598
vt 0.679890 0.012502
vt 0.687868 0.009598
vt 0.682149 0.014397
vt 0.687356 0.012502
vt 0.685097 0.014397
vt 0.698822 0.004443
vt 0.694715 0.009337
vt 0.694715 0.002948
vt 0.690608 0.004443
vt 0.701007 0.008228
vt 0.700248 0.012532
vt 0.688423 0.008228
vt 0.696900 0.015341
vt 0.689182 0.012532
vt 0.692530 0.015341
vt 0.692163 0.018317
vt 0.688056 0.018317
vt 0.692163 0.017794
vt 0.691558 0.018744
vt 0.688056 0.018744
vt 0.688056 0.019672
vt 0.691558 0.019672
vt 0.688056 0.020218
vt 0.692280 0.020218
vt 0.688056 0.017794
vt 0.688056 0.021507
vt 0.692163 0.016137
vt 0.688056 0.016137
vt 0.692280 0.021507
vt 0.683950 0.017794
vt 0.683950 0.016137
vt 0.683950 0.018317
vt 0.684555 0.018744
vt 0.684555 0.019672
vt 0.683833 0.020218
vt 0.683833 0.021507
vt 0.679846 0.018315
vt 0.675542 0.018315
vt 0.679846 0.017792
vt 0.676042 0.018742
vt 0.679711 0.018742
vt 0.675542 0.017792
vt 0.679846 0.016135
vt 0.675542 0.016135
vt 0.683631 0.016135
vt 0.683631 0.017792
vt 0.683631 0.018315
vt 0.682938 0.018742
vt 0.679711 0.019671
vt 0.682938 0.019671
vt 0.683765 0.020216
vt 0.679872 0.020216
vt 0.679872 0.021505
vt 0.683765 0.021505
vt 0.679872 0.071125
vt 0.683765 0.071125
vt 0.679872 0.071840
vt 0.683765 0.071840
vt 0.682164 0.081589
vt 0.679560 0.081589
vt 0.682101 0.081971
vt 0.679548 0.081971
vt 0.679548 0.093725
vt 0.682101 0.093725
vt 0.676645 0.093725
vt 0.676645 0.081971
vt 0.676599 0.081589
vt 0.675446 0.071840
vt 0.675446 0.071125
vt 0.675446 0.021505
vt 0.675446 0.020216
vt 0.676042 0.019671
vt 0.683833 0.071127
vt 0.688056 0.071127
vt 0.683833 0.071841
vt 0.692280 0.071127
vt 0.688056 0.071841
vt 0.685231 0.081591
vt 0.692280 0.071841
vt 0.688056 0.081591
vt 0.690881 0.081591
vt 0.685286 0.081972
vt 0.688056 0.081972
vt 0.685286 0.093727
vt 0.688056 0.093727
vt 0.690827 0.081972
vt 0.690827 0.093727
vt 0.700583 0.018305
vt 0.696279 0.018305
vt 0.700583 0.017782
vt 0.700083 0.018733
vt 0.696414 0.018732
vt 0.696279 0.017782
vt 0.700583 0.016125
vt 0.696279 0.016125
vt 0.692494 0.017782
vt 0.692494 0.016125
vt 0.692494 0.018305
vt 0.693187 0.018733
vt 0.693187 0.019661
vt 0.696414 0.019661
vt 0.692361 0.020207
vt 0.696253 0.020207
vt 0.692361 0.021495
vt 0.696253 0.021495
vt 0.692361 0.071116
vt 0.696253 0.071116
vt 0.692361 0.071830
vt 0.696253 0.071830
vt 0.693961 0.081580
vt 0.696565 0.081580
vt 0.694024 0.081961
vt 0.696577 0.081961
vt 0.694024 0.093715
vt 0.696577 0.093715
vt 0.700679 0.021495
vt 0.700679 0.020207
vt 0.700679 0.071116
vt 0.700083 0.019661
vt 0.700679 0.071830
vt 0.699526 0.081580
vt 0.699481 0.081961
vt 0.699481 0.093715
vt 0.673406 0.081994
vt 0.671177 0.081612
vt 0.673480 0.081612
vt 0.671147 0.081994
vt 0.671920 0.071863
vt 0.671148 0.093748
vt 0.673406 0.093748
vt 0.675363 0.071863
vt 0.675363 0.071149
vt 0.671920 0.071149
vt 0.675363 0.021528
vt 0.668199 0.093748
vt 0.668199 0.081994
vt 0.668170 0.081612
vt 0.667426 0.071863
vt 0.665940 0.093748
vt 0.665940 0.081994
vt 0.665867 0.081612
vt 0.663983 0.071863
vt 0.667426 0.071149
vt 0.663983 0.071149
vt 0.671920 0.021528
vt 0.667426 0.021528
vt 0.663983 0.021528
vt 0.675363 0.020239
vt 0.671920 0.020239
vt 0.671536 0.019694
vt 0.674390 0.019694
vt 0.674390 0.018765
vt 0.671536 0.018765
vt 0.667426 0.020239
vt 0.667810 0.019694
vt 0.667810 0.018765
vt 0.663983 0.020239
vt 0.664956 0.019694
vt 0.664956 0.018765
vt 0.675206 0.018338
vt 0.671858 0.018338
vt 0.675206 0.017815
vt 0.671858 0.017815
vt 0.675206 0.016158
vt 0.667488 0.018338
vt 0.671858 0.016158
vt 0.667488 0.017815
vt 0.664140 0.018338
vt 0.667488 0.016158
vt 0.664140 0.017815
vt 0.664140 0.016158
vt 0.697664 0.095380
vt 0.700517 0.096418
vt 0.697664 0.099818
vt 0.702035 0.099048
vt 0.694810 0.096418
vt 0.693292 0.099048
vt 0.701508 0.102038
vt 0.693819 0.102038
vt 0.699182 0.103990
vt 0.696145 0.103990
vt 0.677134 0.011271
vt 0.675567 0.013986
vt 0.672621 0.015058
vt 0.668652 0.008183
vt 0.676590 0.008183
vt 0.668108 0.011271
vt 0.669675 0.013986
vt 0.671053 0.006169
vt 0.674188 0.006169
vt 0.688777 0.094679
vt 0.686197 0.102399
vt 0.685822 0.094679
vt 0.688850 0.102399
vt 0.688205 0.115613
vt 0.689242 0.115613
vt 0.691868 0.102399
vt 0.692138 0.094679
vt 0.690421 0.115613
vt 0.666754 0.094632
vt 0.664580 0.102352
vt 0.664140 0.094632
vt 0.666928 0.102352
vt 0.666944 0.115566
vt 0.667861 0.115566
vt 0.682517 0.094632
vt 0.685396 0.102352
vt 0.682516 0.102352
vt 0.685723 0.094632
vt 0.683642 0.115566
vt 0.682517 0.115566
vt 0.670166 0.094632
vt 0.669992 0.102352
vt 0.669059 0.115566
vt 0.672340 0.102352
vt 0.672780 0.094632
vt 0.669976 0.115566
vt 0.679637 0.102352
vt 0.679310 0.094632
vt 0.681391 0.115566
vt 0.676253 0.094633
vt 0.673162 0.102353
vt 0.672892 0.094633
vt 0.676180 0.102353
vt 0.674609 0.115567
vt 0.675788 0.115567
vt 0.678834 0.102353
vt 0.679208 0.094633
vt 0.676826 0.115567
s 1
usemtl Magpart1Mtl.001
f 1/1/1 2/2/2 3/3/1
f 4/4/2 3/3/1 2/2/2
f 5/5/3 6/6/4 7/7/3
f 6/6/4 8/8/5 7/7/3
f 9/9/6 10/10/7 11/11/6
f 10/10/7 12/12/7 11/11/6
f 13/13/8 14/14/9 15/15/9
f 14/14/9 13/13/8 16/16/8
f 17/17/10 18/18/11 19/19/11
f 18/18/11 17/17/10 20/20/10
f 21/21/12 22/22/13 23/23/13
f 22/22/13 21/21/12 24/24/12
f 25/25/14 26/26/15 27/27/16
f 27/27/16 28/28/16 25/25/14
f 29/29/16 27/27/16 26/26/15
f 29/29/16 26/26/15 30/30/16
f 31/31/17 30/30/16 26/26/15
f 32/32/16 30/30/16 31/31/17
f 33/33/16 32/32/16 31/31/17
f 31/31/17 34/34/18 33/33/16
f 31/31/17 35/35/16 34/34/18
f 31/31/17 36/36/16 35/35/16
f 31/31/17 37/37/19 36/36/16
f 36/36/16 37/37/19 38/38/16
f 39/39/20 40/40/21 41/41/20
f 42/42/22 40/40/21 39/39/20
f 42/42/22 39/39/20 43/43/20
f 42/42/22 43/43/20 44/44/20
f 44/44/20 45/45/23 42/42/22
f 45/45/23 44/44/20 46/46/24
f 45/45/23 46/46/24 47/47/20
f 47/47/20 48/48/20 45/45/23
f 48/48/20 49/49/20 45/45/23
f 49/49/20 50/50/20 45/45/23
f 51/51/25 45/45/23 50/50/20
f 51/51/25 50/50/20 52/52/20
f 53/53/26 54/54/26 55/55/26
f 54/54/26 56/56/26 55/55/26
f 55/55/26 57/57/26 53/53/26
f 56/56/26 54/54/26 58/58/26
f 56/56/26 58/58/26 59/16/26
f 59/16/26 58/58/26 60/14/26
f 57/57/26 61/59/26 53/53/26
f 61/59/26 57/57/26 62/60/26
f 63/61/26 61/59/26 62/60/26
f 61/59/26 63/61/26 64/62/26
f 65/63/27 66/64/28 67/65/28
f 67/65/28 66/64/28 68/66/27
f 69/67/29 70/68/29 71/69/29
f 71/69/29 72/70/29 69/67/29
f 73/71/26 74/72/26 75/73/26
f 75/73/26 74/72/26 76/74/26
f 77/75/26 78/76/26 79/77/26
f 78/76/26 77/75/26 80/78/26
f 81/79/30 82/80/30 83/81/30
f 82/80/30 81/79/30 84/82/30
f 81/79/30 85/83/30 84/82/30
f 82/80/30 86/84/30 83/81/30
f 87/85/30 86/84/30 82/80/30
f 86/84/30 88/86/30 83/81/30
f 88/86/30 86/84/30 89/87/30
f 81/79/30 90/88/30 85/83/30
f 91/89/30 85/83/30 90/88/30
f 90/88/30 92/90/30 91/89/30
f 93/91/30 91/89/30 92/90/30
f 91/89/30 93/91/30 94/92/30
f 93/91/30 92/90/30 95/93/30
f 96/94/30 93/91/30 95/93/30
f 97/95/30 98/96/30 99/97/30
f 98/96/30 100/98/30 101/99/30
f 98/96/30 102/100/30 100/98/30
f 98/96/30 97/95/30 102/100/30
f 97/95/30 103/101/30 102/100/30
f 103/101/30 97/95/30 104/102/30
f 105/103/30 103/101/30 104/102/30
f 103/101/30 105/103/30 106/104/30
f 107/105/30 106/104/30 105/103/30
f 106/104/30 107/105/30 108/106/30
f 109/107/30 108/106/30 107/105/30
f 109/107/30 107/105/30 110/108/30
f 109/107/30 111/109/30 108/106/30
f 111/109/30 109/107/30 112/110/30
f 113/111/31 114/112/32 115/113/31
f 114/112/32 116/114/32 115/113/31
f 117/115/33 113/111/31 115/113/31
f 113/111/31 117/115/33 118/116/33
f 119/117/34 118/116/33 117/115/33
f 118/116/33 119/117/34 120/118/35
f 121/119/36 120/118/35 119/117/34
f 120/118/35 121/119/36 122/120/37
f 123/121/38 122/120/37 121/119/36
f 122/120/37 123/121/38 124/122/38
f 125/123/37 126/124/38 127/125/38
f 126/124/38 125/123/37 128/126/36
f 129/127/34 128/126/36 125/123/37
f 128/126/36 129/127/34 130/128/35
f 131/129/33 130/128/35 129/127/34
f 130/128/35 131/129/33 132/130/33
f 133/131/31 132/130/33 131/129/33
f 132/130/33 133/131/31 134/132/31
f 133/131/31 135/133/32 134/132/31
f 135/133/32 136/134/32 134/132/31
f 137/135/39 138/136/39 139/137/39
f 140/19/39 137/135/39 139/137/39
f 140/19/39 141/18/39 137/135/39
f 139/137/39 138/136/39 142/138/39
f 142/138/39 138/136/39 143/9/39
f 142/138/39 143/9/39 144/11/39
f 145/139/40 146/140/40 147/141/40
f 148/24/40 145/139/40 147/141/40
f 145/139/40 148/24/40 149/21/40
f 147/141/40 146/140/40 150/142/40
f 146/140/40 151/8/40 150/142/40
f 150/142/40 151/8/40 152/6/40
f 153/143/30 154/144/30 155/145/30
f 156/146/30 155/145/30 154/144/30
f 157/147/30 155/145/30 156/146/30
f 156/146/30 158/148/30 157/147/30
f 158/148/30 159/149/30 157/147/30
f 159/149/30 158/148/30 160/150/30
f 161/151/41 162/152/42 163/153/39
f 161/151/41 164/154/43 162/152/42
f 165/155/44 164/154/43 161/151/41
f 166/156/39 163/153/39 162/152/42
f 167/157/39 163/153/39 166/156/39
f 166/156/39 168/158/39 167/157/39
f 168/158/39 169/159/45 167/157/39
f 169/159/45 168/158/39 170/160/45
f 170/160/45 171/161/46 169/159/45
f 172/162/47 171/161/46 170/160/45
f 173/163/40 174/164/40 175/165/48
f 176/166/40 174/164/40 173/163/40
f 173/163/40 175/165/48 177/167/49
f 175/165/48 178/168/50 177/167/49
f 178/168/50 175/165/48 179/169/51
f 173/163/40 180/170/40 176/166/40
f 180/170/40 181/171/52 176/166/40
f 181/171/52 180/170/40 182/172/53
f 182/172/53 183/173/54 181/171/52
f 183/173/54 182/172/53 184/174/55
f 185/175/56 186/176/57 187/177/56
f 186/176/57 185/175/56 188/178/20
f 189/179/58 185/175/56 187/177/56
f 185/175/56 189/179/58 190/180/58
f 190/180/58 189/179/58 191/181/59
f 192/182/59 191/181/59 189/179/58
f 193/183/56 194/184/20 195/185/20
f 194/184/20 193/183/56 196/186/56
f 193/183/56 197/187/58 196/186/56
f 197/187/58 193/183/56 198/188/58
f 199/189/59 197/187/58 198/188/58
f 199/189/59 200/190/59 197/187/58
f 201/191/18 202/192/60 203/193/16
f 202/192/60 201/191/18 204/194/60
f 202/192/60 204/194/60 205/195/61
f 202/192/60 205/195/61 206/196/61
f 206/196/61 205/195/61 207/197/62
f 206/196/61 207/197/62 208/198/62
f 209/199/16 210/200/63 211/201/64
f 211/201/64 210/200/63 212/202/60
f 212/202/60 210/200/63 213/203/61
f 213/203/61 210/200/63 214/204/65
f 214/204/65 215/205/62 213/203/61
f 215/205/62 214/204/65 216/206/62
f 217/65/66 218/207/67 219/208/67
f 218/207/67 217/65/66 220/66/66
f 219/208/67 218/207/67 221/209/39
f 221/209/39 218/207/67 222/210/39
f 223/211/68 224/70/69 225/69/70
f 224/70/69 223/211/68 226/212/68
f 223/211/68 227/213/40 226/212/68
f 227/213/40 223/211/68 228/214/40
f 229/215/71 230/216/72 231/217/73
f 230/216/72 229/215/71 232/218/38
f 230/216/72 233/219/39 231/217/73
f 231/217/73 233/219/39 234/220/39
f 233/219/39 230/216/72 235/221/39
f 236/222/39 237/223/74 238/224/39
f 237/223/74 236/222/39 239/225/73
f 239/225/73 236/222/39 240/226/39
f 241/227/38 237/223/74 239/225/73
f 237/223/74 241/227/38 242/228/71
f 243/229/32 244/230/75 245/231/32
f 244/230/75 246/232/76 245/231/32
f 244/230/75 247/233/40 246/232/76
f 246/232/76 247/233/40 248/234/40
f 247/233/40 244/230/75 249/235/40
f 250/236/77 251/237/76 252/238/32
f 251/237/76 253/239/75 252/238/32
f 251/237/76 254/240/40 253/239/75
f 254/240/40 255/241/40 253/239/75
f 254/240/40 251/237/76 256/242/40
f 257/243/39 258/244/39 259/245/39
f 260/246/39 259/245/39 258/244/39
f 261/247/39 259/245/39 260/246/39
f 260/246/39 262/248/39 261/247/39
f 262/248/39 263/249/39 261/247/39
f 263/249/39 262/248/39 264/250/39
f 265/251/40 266/252/40 267/253/40
f 265/251/40 267/253/40 268/254/40
f 269/255/40 266/252/40 265/251/40
f 265/251/40 270/256/40 269/255/40
f 270/256/40 271/257/40 269/255/40
f 271/257/40 270/256/40 272/258/40
f 273/259/59 274/260/62 275/261/59
f 275/261/59 274/260/62 276/262/62
f 277/263/62 278/264/59 279/265/59
f 279/265/59 280/266/62 277/263/62
f 281/267/30 282/268/30 283/269/30
f 284/270/30 281/267/30 283/269/30
f 285/271/30 281/267/30 284/270/30
f 284/270/30 286/272/30 285/271/30
f 285/271/30 287/273/30 281/267/30
f 287/273/30 285/271/30 288/274/30
f 288/274/30 289/15/30 287/273/30
f 289/15/30 290/275/30 287/273/30
f 289/15/30 288/274/30 291/13/30
f 288/274/30 292/276/30 291/13/30
f 293/277/64 294/278/16 295/279/16
f 295/279/16 294/278/16 296/280/16
f 293/277/64 295/279/16 297/281/64
f 293/277/64 297/281/64 298/282/78
f 293/277/64 298/282/78 299/283/16
f 300/284/16 293/277/64 299/283/16
f 293/277/64 300/284/16 301/285/64
f 300/284/16 302/286/78 301/285/64
f 302/286/78 303/287/64 301/285/64
f 303/287/64 304/288/18 301/285/64
f 305/289/16 301/285/64 304/288/18
f 304/288/18 306/290/16 305/289/16
f 307/291/20 308/292/20 309/293/24
f 308/292/20 307/291/20 310/294/20
f 309/293/24 308/292/20 311/295/79
f 309/293/24 311/295/79 312/296/20
f 309/293/24 312/296/20 313/297/20
f 314/298/24 309/293/24 313/297/20
f 309/293/24 314/298/24 315/299/20
f 314/298/24 316/300/20 315/299/20
f 316/300/20 317/301/20 315/299/20
f 317/301/20 318/302/20 315/299/20
f 319/303/20 315/299/20 318/302/20
f 319/303/20 318/302/20 320/304/20
f 321/305/16 322/306/16 323/307/16
f 322/306/16 324/308/64 323/307/16
f 325/309/80 321/305/16 323/307/16
f 326/310/80 325/309/80 323/307/16
f 324/308/64 327/311/16 323/307/16
f 328/312/16 326/310/80 323/307/16
f 327/311/16 329/313/18 323/307/16
f 330/314/16 328/312/16 323/307/16
f 329/313/18 330/314/16 323/307/16
f 331/315/20 332/316/20 333/317/20
f 333/317/20 332/316/20 334/318/79
f 335/319/20 332/316/20 331/315/20
f 336/320/20 332/316/20 335/319/20
f 334/318/79 332/316/20 337/321/79
f 338/322/20 332/316/20 336/320/20
f 337/321/79 332/316/20 339/323/20
f 340/324/20 332/316/20 338/322/20
f 339/323/20 332/316/20 340/324/20
f 341/325/81 342/326/82 343/327/83
f 344/328/81 342/326/82 341/325/81
f 342/326/82 344/328/81 345/329/82
f 345/329/82 344/328/81 346/330/84
f 347/331/85 346/330/84 344/328/81
f 347/331/85 348/332/86 346/330/84
f 348/332/86 347/331/85 349/333/87
f 350/334/39 343/327/83 342/326/82
f 349/333/87 351/335/39 348/332/86
f 343/327/83 350/334/39 352/336/83
f 353/337/88 352/336/83 350/334/39
f 351/335/39 349/333/87 354/338/89
f 350/334/39 355/339/90 353/337/88
f 356/340/91 353/337/88 355/339/90
f 355/339/90 350/334/39 357/341/92
f 358/326/93 357/341/92 350/334/39
f 357/341/92 358/326/93 359/342/94
f 359/342/94 358/326/93 360/329/82
f 359/342/94 360/329/82 361/343/95
f 362/330/86 361/343/95 360/329/82
f 363/332/86 361/343/95 362/330/86
f 361/343/95 363/332/86 364/344/96
f 363/332/86 365/345/91 364/344/96
f 365/345/91 363/332/86 351/335/39
f 366/346/97 367/347/98 368/348/99
f 366/346/97 369/349/100 370/347/100
f 369/349/100 366/346/97 371/350/101
f 372/351/98 368/348/99 367/347/98
f 368/348/99 372/351/98 373/352/99
f 374/353/98 373/352/99 372/351/98
f 373/352/99 375/354/90 368/348/99
f 376/355/90 368/348/99 375/354/90
f 368/348/99 376/355/90 377/346/97
f 378/356/102 377/346/97 376/355/90
f 377/346/97 378/356/102 379/350/101
f 379/350/101 378/356/102 380/357/102
f 379/350/101 380/357/102 381/358/103
f 382/359/104 381/358/103 380/357/102
f 383/360/105 381/358/103 382/359/104
f 381/358/103 383/360/105 384/361/103
f 383/360/105 385/362/106 384/361/103
f 385/362/106 383/360/105 386/363/90
f 387/364/106 385/362/106 386/363/90
f 386/363/90 388/365/90 387/364/106
f 387/364/106 388/365/90 389/366/107
f 390/367/108 389/366/107 388/365/90
f 391/368/109 389/366/107 390/367/108
f 389/366/107 391/368/109 392/369/110
f 393/370/111 392/369/110 391/368/109
f 392/369/110 393/370/111 394/371/112
f 393/370/111 395/372/113 394/371/112
f 395/372/113 393/370/111 396/373/90
f 397/374/98 398/371/114 395/372/99
f 398/371/114 397/374/98 399/375/115
f 398/371/114 399/375/115 400/369/116
f 401/376/117 400/369/116 399/375/115
f 401/376/117 402/366/118 400/369/116
f 402/366/118 401/376/117 403/377/119
f 402/366/118 403/377/119 387/364/106
f 404/378/120 387/364/106 403/377/119
f 385/362/106 387/364/106 404/378/120
f 404/378/120 405/379/98 385/362/106
f 405/379/98 406/361/121 385/362/106
f 406/361/121 405/379/98 407/380/122
f 408/381/122 406/361/121 407/380/122
f 406/361/121 408/381/122 409/358/121
f 409/358/121 408/381/122 371/350/97
f 410/349/98 371/350/97 408/381/122
f 411/382/90 365/345/91 351/335/39
f 351/335/39 412/383/123 411/382/90
f 412/383/123 351/335/39 354/338/89
f 411/382/90 412/383/123 413/384/124
f 354/338/89 414/385/83 412/383/123
f 415/386/125 413/384/124 412/383/123
f 412/383/123 414/385/83 416/386/126
f 415/386/125 417/387/127 413/384/124
f 418/388/128 416/386/126 414/385/83
f 417/387/127 415/386/125 419/389/129
f 420/390/130 416/386/126 418/388/128
f 417/387/127 419/389/129 421/391/131
f 416/386/126 420/390/130 422/389/132
f 423/392/133 421/391/131 419/389/129
f 423/392/133 424/393/91 421/391/131
f 424/393/91 423/392/133 425/394/134
f 426/395/135 422/389/132 420/390/130
f 422/389/132 426/395/135 427/392/133
f 426/395/135 425/394/39 427/392/133
f 425/394/39 426/395/135 428/396/83
f 429/397/136 430/398/137 431/399/136
f 432/400/138 430/398/137 433/397/138
f 430/398/137 432/400/138 434/401/137
f 435/402/139 431/399/136 430/398/137
f 431/399/136 435/402/139 436/403/136
f 437/404/139 436/403/136 435/402/139
f 435/402/139 438/405/83 437/404/139
f 439/406/83 437/404/139 438/405/83
f 438/405/83 435/402/139 440/407/140
f 441/398/141 440/407/140 435/402/139
f 442/401/142 440/407/140 441/398/141
f 440/407/140 442/401/142 443/408/140
f 443/408/140 442/401/142 444/409/143
f 445/410/144 444/409/143 442/401/142
f 445/410/144 446/411/145 444/409/143
f 447/412/144 446/411/145 445/410/144
f 447/412/144 448/413/83 446/411/145
f 448/413/83 447/412/144 449/414/146
f 450/415/147 448/413/83 449/414/146
f 449/414/146 451/416/148 450/415/147
f 450/415/147 451/416/148 452/417/149
f 453/418/150 452/417/149 451/416/148
f 453/418/150 454/419/151 452/417/149
f 454/419/151 453/418/150 455/420/152
f 454/419/151 455/420/152 456/421/153
f 457/422/154 456/421/153 455/420/152
f 457/422/154 458/423/147 456/421/153
f 458/423/147 457/422/154 459/424/148
f 451/416/148 449/414/146 460/425/155
f 449/414/146 461/426/156 460/425/155
f 460/425/155 462/427/136 451/416/148
f 461/426/156 449/414/146 463/412/157
f 451/416/148 462/427/136 464/418/158
f 461/426/156 463/412/157 465/428/156
f 466/429/159 464/418/158 462/427/136
f 467/410/157 465/428/156 463/412/157
f 465/428/156 467/410/157 468/400/136
f 434/401/137 468/400/136 467/410/157
f 469/430/160 464/418/158 466/429/159
f 464/418/158 469/430/160 470/420/161
f 471/431/162 470/420/161 469/430/160
f 470/420/161 471/431/162 472/422/163
f 471/431/162 459/424/164 472/422/163
f 459/424/164 471/431/162 473/432/136
f 474/433/165 475/434/166 476/435/167
f 475/434/166 474/433/165 477/436/168
f 478/437/169 476/435/167 475/434/166
f 474/433/165 479/438/170 477/436/168
f 479/438/170 474/433/165 480/439/171
f 476/435/167 478/437/169 481/440/172
f 481/440/172 478/437/169 482/441/98
f 483/442/173 482/441/98 478/437/169
f 484/443/171 482/441/98 483/442/173
f 485/444/174 486/436/175 479/438/173
f 486/436/175 485/444/174 487/445/176
f 488/446/177 486/436/175 487/445/176
f 486/436/175 488/446/177 489/434/178
f 488/446/177 490/437/179 489/434/178
f 490/437/179 488/446/177 491/447/180
f 490/437/179 491/447/180 483/442/173
f 492/448/181 493/445/182 485/444/183
f 493/445/182 492/448/181 494/449/184
f 493/445/182 494/449/184 495/446/177
f 496/450/185 495/446/177 494/449/184
f 496/450/185 497/447/186 495/446/177
f 497/447/186 496/450/185 498/451/187
f 497/447/186 498/451/187 499/452/174
f 499/452/174 483/442/173 491/447/180
f 500/453/181 499/452/174 498/451/187
f 501/454/173 483/442/173 499/452/174
f 483/442/173 501/454/173 484/443/171
f 502/455/183 499/452/174 500/453/181
f 499/452/174 502/455/183 501/454/173
f 500/453/181 503/456/181 502/455/183
f 501/454/173 504/457/188 484/443/171
f 504/457/188 501/454/173 505/458/189
f 506/459/189 504/457/188 505/458/189
f 502/455/183 507/458/190 501/454/173
f 504/457/188 506/459/189 508/460/188
f 508/460/188 506/459/189 509/461/171
f 510/462/170 509/461/171 506/459/189
f 507/458/190 502/455/183 511/463/191
f 507/458/190 511/463/191 512/459/190
f 503/456/181 513/463/192 502/455/183
f 512/459/190 511/463/191 514/464/193
f 512/459/190 514/464/193 510/462/173
f 515/465/174 510/462/173 514/464/193
f 513/463/192 503/456/181 516/466/194
f 516/466/194 517/464/191 513/463/192
f 517/464/191 516/466/194 518/467/194
f 517/464/191 518/467/194 515/465/183
f 519/468/181 515/465/183 518/467/194
f 520/469/171 521/470/170 522/471/171
f 523/472/173 522/471/171 521/470/170
f 522/471/171 523/472/173 524/473/171
f 521/470/170 525/474/183 523/472/173
f 526/475/173 524/473/171 523/472/173
f 527/476/174 523/472/173 525/474/183
f 523/472/173 527/476/174 526/475/173
f 525/474/183 528/477/181 527/476/174
f 529/478/183 526/475/173 527/476/174
f 530/479/181 527/476/174 528/477/181
f 527/476/174 530/479/181 529/478/183
f 531/480/181 529/478/183 530/479/181
f 532/465/195 533/477/196 534/474/195
f 533/477/196 532/465/195 535/468/196
f 536/462/197 537/469/198 538/461/198
f 539/470/199 537/469/198 536/462/197
f 540/474/200 541/470/197 542/465/200
f 542/465/200 541/470/197 543/462/197
f 544/481/16 545/482/16 546/483/78
f 545/482/16 547/484/16 546/483/78
f 548/485/16 544/481/16 546/483/78
f 549/486/16 548/485/16 546/483/78
f 547/484/16 550/487/16 546/483/78
f 551/488/16 549/486/16 546/483/78
f 550/487/16 552/489/16 546/483/78
f 553/490/16 551/488/16 546/483/78
f 552/489/16 553/490/16 546/483/78
f 554/491/201 555/492/20 556/493/201
f 557/494/57 554/491/201 556/493/201
f 554/491/201 557/494/57 558/495/20
f 556/493/201 559/496/20 557/494/57
f 559/496/20 556/493/201 560/497/20
f 561/498/20 558/495/20 557/494/57
f 558/495/20 561/498/20 562/499/20
f 563/500/202 564/501/149 565/502/203
f 564/501/149 563/500/202 566/503/204
f 566/503/204 567/504/205 564/501/149
f 567/504/205 566/503/204 568/505/206
f 569/500/202 570/506/207 571/503/208
f 570/506/207 569/500/202 572/507/209
f 573/508/210 571/503/208 570/506/207
f 571/503/208 573/508/210 574/505/211
f 575/509/212 576/510/207 577/511/213
f 576/510/207 575/509/212 578/512/186
f 578/512/186 579/513/214 576/510/207
f 579/513/214 578/512/186 580/514/215
f 581/515/216 582/516/128 583/517/126
f 582/516/128 581/515/216 584/518/217
f 585/519/218 583/517/126 582/516/128
f 583/517/126 585/519/218 586/520/219
f 587/521/220 588/512/221 589/509/222
f 588/512/221 587/521/220 590/522/179
f 590/522/179 591/514/215 588/512/221
f 591/514/215 590/522/179 592/523/223
f 593/521/224 594/524/225 595/522/179
f 594/524/225 593/521/224 596/525/226
f 597/526/227 595/522/179 594/524/225
f 595/522/179 597/526/227 598/523/228
f 599/515/229 600/527/124 601/528/230
f 600/527/124 599/515/229 602/517/126
f 602/517/126 603/529/231 600/527/124
f 603/529/231 602/517/126 604/520/219
f 605/530/232 606/531/233 607/532/234
f 606/531/233 605/530/232 608/533/235
f 608/533/235 609/534/236 606/531/233
f 609/534/236 608/533/235 610/535/237
f 611/530/238 612/536/108 613/533/235
f 612/536/108 611/530/238 614/537/239
f 615/538/240 613/533/235 612/536/108
f 613/533/235 615/538/240 616/535/237
