# Blender 5.1.1
# www.blender.org
mtllib shotkey.mtl
o 138770962384219
v -0.603178 -0.363580 -0.043189
v -0.645833 -0.223775 -0.043136
v -0.603178 -0.363580 0.043189
v -0.413975 -0.362180 -0.043106
v -0.645833 -0.223775 0.043136
v -0.413975 -0.362180 0.043106
v -0.577207 -0.157073 -0.043049
v -0.303924 -0.187356 0.043085
v -0.577207 -0.157073 0.043049
v -0.303924 -0.187356 -0.043085
v -0.315476 -0.155132 -0.043189
v -0.315476 -0.155132 0.043189
v -0.584625 -0.139145 -0.055887
v -0.236475 -0.109145 -0.055887
v -0.304625 -0.139145 -0.055887
v -0.284625 -0.189144 -0.055887
v -0.737374 -0.109145 -0.055887
v -0.202385 -0.171396 -0.055887
v -0.664625 -0.219145 -0.055887
v -0.368059 -0.429110 -0.055887
v -0.404625 -0.379145 -0.055887
v -0.747409 -0.176772 -0.055887
v -0.614625 -0.379145 -0.055887
v -0.758369 -0.293842 -0.055887
v -0.800228 -0.293705 -0.055887
v -0.688921 -0.363866 -0.055887
v -1.257105 -0.729046 -0.055887
v -1.207110 -0.738842 -0.055887
v -1.249330 -0.791242 -0.055887
v -1.200352 -0.769888 -0.055887
v -1.159963 -0.856393 -0.055887
v -1.143509 -0.808308 -0.055887
v -1.050287 -0.849600 -0.055887
v -1.068867 -0.803932 -0.055887
v -0.672333 -0.416484 -0.055887
v -0.609773 -0.429110 -0.055887
v -0.236475 -0.109145 0.055887
v -0.737374 -0.109145 0.055887
v -0.584625 -0.139145 0.055887
v -0.304625 -0.139145 0.055887
v -0.284625 -0.189144 0.055887
v -0.664625 -0.219145 0.055887
v -0.202385 -0.171396 0.055887
v -0.747409 -0.176772 0.055887
v -0.368059 -0.429110 0.055887
v -0.404625 -0.379145 0.055887
v -0.614625 -0.379145 0.055887
v -0.688921 -0.363866 0.055887
v -0.758369 -0.293842 0.055887
v -0.672333 -0.416484 0.055887
v -0.800228 -0.293705 0.055887
v -0.609773 -0.429110 0.055887
v -1.257105 -0.729046 0.055887
v -1.050287 -0.849600 0.055887
v -1.207110 -0.738842 0.055887
v -1.068867 -0.803932 0.055887
v -1.249330 -0.791242 0.055887
v -1.143509 -0.808308 0.055887
v -1.200352 -0.769888 0.055887
v -1.159963 -0.856393 0.055887
v -1.068867 -0.803932 -0.055887
v -0.687409 -0.412736 -0.046341
v -0.672333 -0.416484 -0.055887
v -0.688921 -0.363866 -0.055887
v -1.075183 -0.789647 -0.046187
v -0.702305 -0.371981 -0.046116
v -1.143509 -0.808308 -0.055887
v -0.764399 -0.308227 -0.046226
v -1.139376 -0.793244 -0.046184
v -0.758369 -0.293842 -0.055887
v -1.187442 -0.761111 -0.046202
v -0.793961 -0.307990 -0.046223
v -1.200352 -0.769888 -0.055887
v -0.800228 -0.293705 -0.055887
v -1.192066 -0.742866 -0.046273
v -1.207110 -0.738842 -0.055887
v -0.688921 -0.363866 0.055887
v -0.758369 -0.293842 0.055887
v -0.764399 -0.308227 0.046226
v -0.793961 -0.307990 0.046223
v -0.702305 -0.371981 0.046116
v -0.800228 -0.293705 0.055887
v -0.687409 -0.412736 0.046341
v -1.192066 -0.742866 0.046273
v -0.672333 -0.416484 0.055887
v -1.207110 -0.738842 0.055887
v -1.068867 -0.803932 0.055887
v -1.200352 -0.769888 0.055887
v -1.075183 -0.789647 0.046188
v -1.187443 -0.761111 0.046202
v -1.143509 -0.808308 0.055887
v -1.139376 -0.793244 0.046184
v -0.404625 -0.379145 0.055887
v -0.284625 -0.189144 0.055887
v -0.413975 -0.362180 0.043106
v -0.303924 -0.187356 0.043085
v -0.603178 -0.363580 0.043189
v -0.315476 -0.155132 0.043189
v -0.614625 -0.379145 0.055887
v -0.304625 -0.139145 0.055887
v -0.664625 -0.219145 0.055887
v -0.584625 -0.139145 0.055887
v -0.645833 -0.223775 0.043136
v -0.577207 -0.157073 0.043049
v -0.603178 -0.363580 -0.043189
v -0.664625 -0.219145 -0.055887
v -0.645833 -0.223775 -0.043136
v -0.614625 -0.379145 -0.055887
v -0.584625 -0.139145 -0.055887
v -0.404625 -0.379145 -0.055887
v -0.577207 -0.157073 -0.043049
v -0.413975 -0.362180 -0.043106
v -0.315476 -0.155132 -0.043189
v -0.284625 -0.189144 -0.055887
v -0.304625 -0.139145 -0.055887
v -0.303924 -0.187356 -0.043085
v -0.224625 -0.089146 -0.041887
v -0.737374 -0.109145 -0.055887
v -0.754625 -0.089146 -0.041887
v -0.766287 -0.167740 -0.041887
v -0.236475 -0.109145 -0.055887
v -0.747409 -0.176772 -0.055887
v -0.202385 -0.171396 -0.055887
v -1.257105 -0.729046 -0.055887
v -0.179135 -0.172213 -0.041887
v -1.278103 -0.722308 -0.041887
v -0.357140 -0.449110 -0.041887
v -1.268103 -0.802307 -0.041887
v -0.368059 -0.429110 -0.055887
v -1.249330 -0.791242 -0.055887
v -0.601760 -0.449110 -0.041887
v -1.165920 -0.876799 -0.041887
v -0.609773 -0.429110 -0.055887
v -1.159963 -0.856393 -0.055887
v -1.050287 -0.849600 -0.055887
v -1.041760 -0.869110 -0.041887
v -0.737374 -0.109145 0.055887
v -0.236475 -0.109145 0.055887
v -0.224625 -0.089146 0.041887
v -0.202385 -0.171396 0.055887
v -0.754625 -0.089146 0.041887
v -0.179135 -0.172213 0.041887
v -0.766287 -0.167740 0.041887
v -0.357140 -0.449110 0.041887
v -0.747409 -0.176772 0.055887
v -0.368059 -0.429110 0.055887
v -1.257105 -0.729046 0.055887
v -0.601760 -0.449110 0.041887
v -1.278103 -0.722308 0.041887
v -0.609773 -0.429110 0.055887
v -1.268103 -0.802307 0.041887
v -1.050287 -0.849600 0.055887
v -1.249330 -0.791242 0.055887
v -1.041760 -0.869110 0.041887
v -1.165920 -0.876799 0.041887
v -1.159963 -0.856393 0.055887
v -0.224625 -0.089146 -0.041887
v -0.754625 -0.089146 -0.041887
v -0.754625 -0.089146 0.041887
v -0.224625 -0.089146 0.041887
v -0.766287 -0.167740 0.041887
v -0.179135 -0.172213 0.041887
v -0.766287 -0.167740 -0.041887
v -0.179135 -0.172213 -0.041887
v -1.278103 -0.722308 -0.041887
v -0.357140 -0.449110 0.041887
v -1.278103 -0.722308 0.041887
v -0.357140 -0.449110 -0.041887
v -1.268103 -0.802307 -0.041887
v -0.601760 -0.449110 0.041887
v -1.268103 -0.802307 0.041887
v -0.601760 -0.449110 -0.041887
v -1.165920 -0.876799 -0.041887
v -1.041760 -0.869110 0.041887
v -1.165920 -0.876799 0.041887
v -1.041760 -0.869110 -0.041887
v -0.793961 -0.307990 -0.046223
v -1.192066 -0.742866 0.046273
v -1.192066 -0.742866 -0.046273
v -1.187442 -0.761111 -0.046202
v -0.793961 -0.307990 0.046223
v -1.187443 -0.761111 0.046202
v -0.764399 -0.308227 0.046226
v -1.139376 -0.793244 0.046184
v -0.764399 -0.308227 -0.046226
v -1.139376 -0.793244 -0.046184
v -0.702305 -0.371981 0.046116
v -1.075183 -0.789647 -0.046187
v -0.702305 -0.371981 -0.046116
v -1.075183 -0.789647 0.046188
v -0.687409 -0.412736 0.046341
v -0.687409 -0.412736 -0.046341
vn 0.1719 0.9851 0.0002
vn 0.9422 -0.3351 -0.0000
vn 0.1719 0.9851 -0.0001
vn -0.1740 0.9847 -0.0000
vn -0.1741 0.9847 -0.0000
vn 0.1619 -0.9868 -0.0000
vn -0.9912 0.1326 0.0001
vn 0.1618 -0.9868 0.0002
vn -0.9912 0.1326 -0.0000
vn -0.1699 -0.9855 0.0016
vn -0.1699 -0.9855 -0.0000
vn -0.0000 -0.0000 -1.0000
vn -0.0000 -0.0000 1.0000
vn -0.0846 0.5343 -0.8411
vn -0.4940 0.0929 -0.8645
vn -0.4612 0.2217 -0.8591
vn -0.4279 -0.3367 -0.8388
vn -0.1970 0.4960 -0.8457
vn -0.4862 -0.2539 -0.8362
vn 0.0424 0.5354 -0.8435
vn -0.1662 -0.4983 -0.8509
vn 0.1135 0.5188 -0.8473
vn -0.0654 -0.5378 -0.8405
vn 0.4621 0.2639 -0.8466
vn 0.1643 -0.5028 -0.8486
vn 0.3605 0.3977 -0.8437
vn 0.0629 -0.5389 -0.8400
vn 0.5082 -0.1034 -0.8550
vn 0.4756 -0.2216 -0.8513
vn -0.4279 -0.3367 0.8388
vn -0.0654 -0.5378 0.8406
vn -0.1662 -0.4983 0.8509
vn 0.1643 -0.5028 0.8486
vn -0.4862 -0.2539 0.8362
vn 0.0629 -0.5389 0.8400
vn -0.4940 0.0929 0.8645
vn 0.5082 -0.1034 0.8550
vn -0.4612 0.2217 0.8591
vn 0.4756 -0.2216 0.8513
vn -0.0846 0.5343 0.8411
vn 0.3605 0.3977 0.8437
vn -0.1970 0.4960 0.8457
vn 0.4621 0.2639 0.8466
vn 0.0424 0.5354 0.8435
vn 0.1135 0.5188 0.8473
vn -0.0747 0.5871 0.8061
vn -0.5534 0.0890 0.8282
vn -0.1880 0.5328 0.8251
vn -0.5588 0.0445 0.8281
vn 0.1932 0.5136 0.8360
vn -0.1899 -0.5061 0.8413
vn 0.0785 0.5780 0.8123
vn -0.0761 -0.5663 0.8207
vn 0.4986 -0.2354 0.8342
vn 0.0688 -0.5816 0.8106
vn 0.5378 -0.1117 0.8357
vn 0.1708 -0.5451 0.8208
vn 0.1932 0.5136 -0.8360
vn 0.4986 -0.2354 -0.8342
vn 0.5378 -0.1117 -0.8357
vn 0.0785 0.5780 -0.8122
vn 0.0689 -0.5816 -0.8106
vn -0.0748 0.5871 -0.8061
vn 0.1708 -0.5451 -0.8208
vn -0.1880 0.5328 -0.8251
vn -0.1899 -0.5061 -0.8413
vn -0.5534 0.0890 -0.8282
vn -0.0761 -0.5663 -0.8207
vn -0.5588 0.0445 -0.8281
vn 0.0698 0.5440 -0.8362
vn -0.1965 0.4429 -0.8748
vn -0.0733 0.5287 -0.8456
vn -0.5170 0.2069 -0.8306
vn 0.1848 0.4878 -0.8532
vn -0.4669 0.3085 -0.8287
vn 0.5154 -0.0136 -0.8568
vn -0.5200 0.1326 -0.8438
vn 0.5147 -0.0341 -0.8567
vn -0.4792 0.2530 -0.8405
vn 0.0690 -0.5465 -0.8346
vn -0.3955 -0.3844 -0.8342
vn 0.1809 -0.4958 -0.8494
vn -0.4864 -0.2384 -0.8406
vn 0.1628 -0.5212 -0.8378
vn -0.0440 -0.5564 -0.8298
vn 0.0652 -0.5546 -0.8296
vn -0.1168 -0.5384 -0.8345
vn 0.1997 -0.5121 -0.8354
vn 0.0895 -0.5546 -0.8273
vn -0.1965 0.4429 0.8748
vn 0.1848 0.4878 0.8532
vn 0.0698 0.5440 0.8362
vn 0.5154 -0.0136 0.8568
vn -0.0735 0.5287 0.8456
vn 0.5147 -0.0341 0.8567
vn -0.5170 0.2069 0.8306
vn 0.0690 -0.5466 0.8346
vn -0.4669 0.3085 0.8287
vn 0.1809 -0.4958 0.8494
vn -0.5200 0.1326 0.8438
vn 0.1628 -0.5212 0.8378
vn -0.4792 0.2530 0.8405
vn 0.0653 -0.5546 0.8296
vn -0.3955 -0.3844 0.8342
vn 0.1997 -0.5121 0.8354
vn -0.4864 -0.2384 0.8406
vn 0.0894 -0.5546 0.8273
vn -0.0440 -0.5564 0.8298
vn -0.1168 -0.5384 0.8345
vn 0.1704 0.9854 -0.0000
vn -0.1835 0.9830 -0.0000
vn 0.1704 0.9854 -0.0002
vn -0.8826 0.4702 -0.0000
vn 0.9989 -0.0470 -0.0000
vn -0.9301 0.3674 -0.0000
vn 0.1674 -0.9859 -0.0000
vn -0.8046 -0.5938 -0.0000
vn 0.1553 -0.9879 -0.0000
vn 0.1553 -0.9879 0.0001
vn -0.1046 -0.9945 -0.0000
vn 0.2104 -0.9776 -0.0000
vn -0.1045 -0.9945 -0.0001
vn 0.2103 -0.9776 -0.0000
vn 0.1526 -0.9883 -0.0001
vn 0.9503 -0.3113 -0.0003
vn 0.9503 -0.3113 -0.0000
vn 0.7575 0.6528 -0.0004
vn 0.1526 -0.9883 -0.0000
vn 0.7575 0.6528 -0.0000
vn -0.1640 -0.9865 -0.0001
vn 0.1052 0.9944 -0.0000
vn -0.1640 -0.9865 0.0003
vn 0.1053 0.9944 -0.0001
vn -0.8319 -0.5550 -0.0000
vn -0.2055 0.9786 0.0001
vn -0.8319 -0.5550 -0.0001
vn -0.9505 0.3108 -0.0006
vn -0.9505 0.3108 -0.0000
vt 0.000000 0.000000
s 1
f 1/1/1 2/1/2 3/1/3
f 3/1/3 4/1/4 1/1/1
f 2/1/2 5/1/2 3/1/3
f 4/1/4 3/1/3 6/1/5
f 2/1/2 7/1/6 5/1/2
f 6/1/5 8/1/7 4/1/4
f 7/1/6 9/1/8 5/1/2
f 10/1/9 4/1/4 8/1/7
f 7/1/6 11/1/10 9/1/8
f 10/1/9 8/1/7 12/1/11
f 12/1/11 9/1/8 11/1/10
f 12/1/11 11/1/10 10/1/9
f 13/1/12 14/1/12 15/1/12
f 14/1/12 16/1/12 15/1/12
f 17/1/12 14/1/12 13/1/12
f 16/1/12 14/1/12 18/1/12
f 19/1/12 17/1/12 13/1/12
f 20/1/12 16/1/12 18/1/12
f 16/1/12 20/1/12 21/1/12
f 17/1/12 19/1/12 22/1/12
f 23/1/12 21/1/12 20/1/12
f 24/1/12 22/1/12 19/1/12
f 22/1/12 24/1/12 25/1/12
f 19/1/12 26/1/12 24/1/12
f 23/1/12 26/1/12 19/1/12
f 25/1/12 27/1/12 22/1/12
f 27/1/12 25/1/12 28/1/12
f 29/1/12 27/1/12 28/1/12
f 28/1/12 30/1/12 29/1/12
f 30/1/12 31/1/12 29/1/12
f 31/1/12 30/1/12 32/1/12
f 31/1/12 32/1/12 33/1/12
f 33/1/12 32/1/12 34/1/12
f 35/1/12 33/1/12 34/1/12
f 26/1/12 23/1/12 35/1/12
f 33/1/12 35/1/12 36/1/12
f 23/1/12 20/1/12 35/1/12
f 35/1/12 20/1/12 36/1/12
f 37/1/13 38/1/13 39/1/13
f 37/1/13 39/1/13 40/1/13
f 41/1/13 37/1/13 40/1/13
f 38/1/13 42/1/13 39/1/13
f 37/1/13 41/1/13 43/1/13
f 42/1/13 38/1/13 44/1/13
f 41/1/13 45/1/13 43/1/13
f 45/1/13 41/1/13 46/1/13
f 47/1/13 45/1/13 46/1/13
f 42/1/13 48/1/13 47/1/13
f 48/1/13 42/1/13 49/1/13
f 44/1/13 49/1/13 42/1/13
f 48/1/13 50/1/13 47/1/13
f 45/1/13 47/1/13 50/1/13
f 49/1/13 44/1/13 51/1/13
f 45/1/13 50/1/13 52/1/13
f 53/1/13 51/1/13 44/1/13
f 50/1/13 54/1/13 52/1/13
f 51/1/13 53/1/13 55/1/13
f 54/1/13 50/1/13 56/1/13
f 57/1/13 55/1/13 53/1/13
f 58/1/13 54/1/13 56/1/13
f 55/1/13 57/1/13 59/1/13
f 54/1/13 58/1/13 60/1/13
f 60/1/13 59/1/13 57/1/13
f 59/1/13 60/1/13 58/1/13
f 61/1/14 62/1/15 63/1/16
f 64/1/17 63/1/16 62/1/15
f 62/1/15 61/1/14 65/1/18
f 62/1/15 66/1/19 64/1/17
f 67/1/20 65/1/18 61/1/14
f 68/1/21 64/1/17 66/1/19
f 65/1/18 67/1/20 69/1/22
f 64/1/17 68/1/21 70/1/23
f 67/1/20 71/1/24 69/1/22
f 72/1/25 70/1/23 68/1/21
f 67/1/20 73/1/26 71/1/24
f 70/1/23 72/1/25 74/1/27
f 73/1/26 75/1/28 71/1/24
f 75/1/28 74/1/27 72/1/25
f 73/1/26 76/1/29 75/1/28
f 74/1/27 75/1/28 76/1/29
f 77/1/30 78/1/31 79/1/32
f 78/1/31 80/1/33 79/1/32
f 77/1/30 79/1/32 81/1/34
f 78/1/31 82/1/35 80/1/33
f 83/1/36 77/1/30 81/1/34
f 84/1/37 80/1/33 82/1/35
f 77/1/30 83/1/36 85/1/38
f 82/1/35 86/1/39 84/1/37
f 87/1/40 85/1/38 83/1/36
f 88/1/41 84/1/37 86/1/39
f 87/1/40 83/1/36 89/1/42
f 84/1/37 88/1/41 90/1/43
f 89/1/42 91/1/44 87/1/40
f 91/1/44 90/1/43 88/1/41
f 91/1/44 89/1/42 92/1/45
f 90/1/43 91/1/44 92/1/45
f 93/1/46 94/1/47 95/1/48
f 95/1/48 94/1/47 96/1/49
f 97/1/50 93/1/46 95/1/48
f 94/1/47 98/1/51 96/1/49
f 99/1/52 93/1/46 97/1/50
f 98/1/51 94/1/47 100/1/53
f 97/1/50 101/1/54 99/1/52
f 100/1/53 102/1/55 98/1/51
f 101/1/54 97/1/50 103/1/56
f 103/1/56 102/1/55 101/1/54
f 102/1/55 103/1/56 104/1/57
f 98/1/51 102/1/55 104/1/57
f 105/1/58 106/1/59 107/1/60
f 108/1/61 106/1/59 105/1/58
f 106/1/59 109/1/62 107/1/60
f 105/1/58 110/1/63 108/1/61
f 107/1/60 109/1/62 111/1/64
f 110/1/63 105/1/58 112/1/65
f 109/1/62 113/1/66 111/1/64
f 112/1/65 114/1/67 110/1/63
f 113/1/66 109/1/62 115/1/68
f 114/1/67 113/1/66 115/1/68
f 114/1/67 112/1/65 116/1/69
f 113/1/66 114/1/67 116/1/69
f 117/1/70 118/1/71 119/1/72
f 120/1/73 119/1/72 118/1/71
f 118/1/71 117/1/70 121/1/74
f 118/1/71 122/1/75 120/1/73
f 117/1/70 123/1/76 121/1/74
f 124/1/77 120/1/73 122/1/75
f 123/1/76 117/1/70 125/1/78
f 120/1/73 124/1/77 126/1/79
f 127/1/80 123/1/76 125/1/78
f 128/1/81 126/1/79 124/1/77
f 123/1/76 127/1/80 129/1/82
f 128/1/81 124/1/77 130/1/83
f 131/1/84 129/1/82 127/1/80
f 132/1/85 128/1/81 130/1/83
f 129/1/82 131/1/84 133/1/86
f 132/1/85 130/1/83 134/1/87
f 135/1/88 133/1/86 131/1/84
f 135/1/88 132/1/85 134/1/87
f 131/1/84 136/1/89 135/1/88
f 132/1/85 135/1/88 136/1/89
f 137/1/90 138/1/91 139/1/92
f 140/1/93 139/1/92 138/1/91
f 137/1/90 139/1/92 141/1/94
f 139/1/92 140/1/93 142/1/95
f 143/1/96 137/1/90 141/1/94
f 140/1/93 144/1/97 142/1/95
f 137/1/90 143/1/96 145/1/98
f 140/1/93 146/1/99 144/1/97
f 143/1/96 147/1/100 145/1/98
f 148/1/101 144/1/97 146/1/99
f 143/1/96 149/1/102 147/1/100
f 146/1/99 150/1/103 148/1/101
f 151/1/104 147/1/100 149/1/102
f 152/1/105 148/1/101 150/1/103
f 147/1/100 151/1/104 153/1/106
f 148/1/101 152/1/105 154/1/107
f 155/1/108 153/1/106 151/1/104
f 155/1/108 154/1/107 152/1/105
f 153/1/106 155/1/108 156/1/109
f 155/1/108 152/1/105 156/1/109
f 157/1/110 158/1/111 159/1/111
f 157/1/110 159/1/111 160/1/112
f 158/1/111 161/1/113 159/1/111
f 157/1/110 160/1/112 162/1/114
f 163/1/113 161/1/113 158/1/111
f 164/1/114 157/1/110 162/1/114
f 163/1/113 165/1/115 161/1/113
f 162/1/114 166/1/116 164/1/114
f 167/1/115 161/1/113 165/1/115
f 168/1/116 164/1/114 166/1/116
f 165/1/115 169/1/117 167/1/115
f 166/1/116 170/1/118 168/1/116
f 169/1/117 171/1/117 167/1/115
f 172/1/119 168/1/116 170/1/118
f 169/1/117 173/1/120 171/1/117
f 170/1/118 174/1/121 172/1/119
f 173/1/120 175/1/122 171/1/117
f 176/1/123 172/1/119 174/1/121
f 173/1/120 176/1/123 175/1/122
f 176/1/123 174/1/121 175/1/122
f 177/1/124 178/1/125 179/1/126
f 179/1/126 178/1/125 180/1/127
f 178/1/125 177/1/124 181/1/128
f 180/1/127 178/1/125 182/1/129
f 177/1/124 183/1/130 181/1/128
f 184/1/131 180/1/127 182/1/129
f 185/1/132 183/1/130 177/1/124
f 180/1/127 184/1/131 186/1/133
f 185/1/132 187/1/134 183/1/130
f 188/1/135 186/1/133 184/1/131
f 187/1/134 185/1/132 189/1/136
f 188/1/135 184/1/131 190/1/135
f 189/1/136 191/1/137 187/1/134
f 191/1/137 188/1/135 190/1/135
f 192/1/138 191/1/137 189/1/136
f 188/1/135 191/1/137 192/1/138
o 140322352811826
v 1.861895 0.186747 -0.000004
v 1.861895 0.179092 0.050528
v 1.861895 0.158160 -0.000004
v 1.861895 0.179092 -0.050536
v 1.861895 0.199306 0.030315
v 1.861895 0.199306 -0.030323
v 1.861895 0.229623 0.042874
v 1.861895 0.229623 -0.071467
v 1.861895 0.229623 0.071459
v 1.861895 0.229623 -0.042881
v 1.861895 0.280156 0.050528
v 1.861895 0.259943 -0.030323
v 1.861895 0.259943 0.030315
v 1.861895 0.280156 -0.050536
v 1.861895 0.272502 -0.000004
v 1.861895 0.301086 -0.000004
v 1.861895 0.280156 -0.050536
v 1.833132 0.229623 -0.089332
v 1.833132 0.292789 -0.063169
v 1.833132 0.318952 -0.000004
v 1.861895 0.229623 -0.071467
v 1.861895 0.301086 -0.000004
v 1.861895 0.179092 -0.050536
v 1.861895 0.280156 0.050528
v 1.833132 0.166459 -0.063169
v 1.833132 0.292789 0.063161
v 1.833132 0.140294 -0.000004
v 1.833132 0.229623 0.089325
v 1.861895 0.158160 -0.000004
v 1.861895 0.229623 0.071459
v 1.861895 0.179092 0.050528
v 1.833132 0.166460 0.063161
v 1.744097 0.335657 -0.014700
v 1.744097 0.305656 0.021000
v 1.744097 0.305656 -0.021000
v 1.744097 0.335657 0.014700
v 1.704098 0.385675 -0.005670
v 1.704098 0.385675 0.005670
v 1.743931 -0.213028 -0.043096
v 1.743932 0.166785 -0.043096
v 1.743932 0.166785 0.043096
v 1.743931 -0.213028 0.043096
v 1.861895 0.272502 -0.000004
v 1.436459 0.272502 -0.000005
v 1.861895 0.259943 -0.030323
v 1.436459 0.259943 0.030314
v 1.436459 0.259943 -0.030324
v 1.861895 0.229623 -0.042881
v 1.861895 0.259943 0.030315
v 1.436459 0.229623 -0.042883
v 1.861895 0.199306 -0.030323
v 1.436459 0.229623 0.042873
v 1.861895 0.229623 0.042874
v 1.436459 0.199306 0.030314
v 1.861895 0.199306 0.030315
v 1.861895 0.186747 -0.000004
v 1.436459 0.186747 -0.000005
v 1.436459 0.199306 -0.030324
v -0.943125 -0.136443 -0.087523
v -1.366332 -0.609266 0.087523
v -0.943125 -0.136443 0.087524
v -0.943314 -0.075137 0.087524
v -1.366332 -0.609266 -0.087523
v -0.943314 -0.075137 -0.087523
v -1.445102 -0.609603 -0.087523
v -0.967643 -0.042163 0.087524
v -1.445102 -0.609603 0.087523
v -0.967643 -0.042164 -0.087523
v -1.508752 -0.517172 -0.087523
v -1.027384 -0.033429 0.087524
v -1.508752 -0.517172 0.087523
v -1.027384 -0.033430 -0.087523
v -1.509305 -0.456381 -0.087523
v -1.509305 -0.456381 0.087523
v 1.094397 0.034232 -0.000003
v 1.094397 0.029079 0.034001
v 1.094397 0.014996 -0.000003
v 1.094397 0.042683 0.020399
v 1.094397 0.042683 -0.020406
v 1.094397 0.063085 0.048086
v 1.094397 0.029079 -0.034008
v 1.094397 0.063085 -0.048093
v 1.094397 0.063085 0.028850
v 1.094397 0.083488 0.020399
v 1.094397 0.097090 0.034001
v 1.094397 0.091938 -0.000003
v 1.094397 0.111175 -0.000003
v 1.094397 0.083488 -0.020406
v 1.094397 0.097090 -0.034008
v 1.094397 0.063085 -0.028857
v 1.094397 0.097090 -0.034008
v 1.075042 0.063085 -0.060115
v 1.075042 0.105591 -0.042509
v 1.075042 0.123197 -0.000003
v 1.094397 0.063085 -0.048093
v 1.094397 0.111175 -0.000003
v 1.094397 0.029079 -0.034008
v 1.094397 0.097090 0.034001
v 1.075042 0.020580 -0.042509
v 1.075042 0.105591 0.042502
v 1.075042 0.002973 -0.000003
v 1.075042 0.063085 0.060109
v 1.094397 0.014996 -0.000003
v 1.094397 0.063085 0.048086
v 1.094397 0.029079 0.034001
v 1.075042 0.020580 0.042502
v -0.703438 0.380657 -0.070000
v -0.703438 0.395657 -0.032667
v -0.703438 0.395657 -0.055001
v -0.703438 0.371257 -0.011978
v -0.703438 0.305656 -0.070000
v -0.703438 0.371257 0.011978
v -0.703438 0.305656 0.070000
v -0.703438 0.380657 0.070000
v -0.703438 0.395657 0.032667
v -0.703438 0.395657 0.055001
v -0.677981 -0.006049 0.083746
v -0.370597 -0.005521 0.083777
v -0.677981 -0.006049 -0.083746
v -0.788078 0.117682 0.083160
v -0.370597 -0.005522 -0.083777
v -0.788078 0.117681 -0.083160
v -0.319986 0.035967 -0.083645
v -0.660093 0.223496 -0.083821
v -0.319985 0.035967 0.083645
v -0.660093 0.223496 0.083821
v -0.320246 0.162616 0.083719
v -0.381287 0.223644 0.083709
v -0.320246 0.162615 -0.083719
v -0.381287 0.223644 -0.083710
v 1.704098 0.385675 -0.005670
v 1.634098 0.385675 -0.005670
v 1.634098 0.385675 0.005670
v 1.704098 0.385675 0.005670
v -0.703438 0.371257 -0.011978
v -0.511903 0.371257 -0.011978
v -0.535903 0.395657 -0.032667
v -0.703438 0.395657 -0.032667
v -0.703438 0.371257 0.011978
v -0.535903 0.395657 -0.055001
v -0.511903 0.371257 0.011978
v -0.703438 0.395657 -0.055001
v -0.535903 0.395657 0.032667
v -0.703438 0.380657 -0.070000
v -0.703438 0.395657 0.032667
v -0.520903 0.380657 -0.070000
v -0.703438 0.395657 0.055001
v -0.703438 0.305656 -0.070000
v -0.475903 0.305656 -0.070000
v -0.475903 0.335657 -0.070000
v -0.535903 0.395657 0.055001
v -0.703438 0.380657 0.070000
v -0.520903 0.380657 0.070000
v -0.703438 0.305656 0.070000
v -0.475903 0.305656 0.070000
v -0.475903 0.335657 0.070000
v 1.408901 0.011082 -0.043095
v 1.408901 0.011082 0.043096
v 1.353064 0.039116 -0.043095
v 1.408901 -0.119594 0.043096
v 1.408901 -0.119594 -0.043096
v 1.353064 0.039116 0.043096
v 1.297225 0.011082 -0.043095
v 1.297225 0.011082 0.043096
v 1.297225 -0.143230 0.043096
v 1.297225 -0.143230 -0.043095
v 1.085296 0.176987 0.052634
v 0.576261 0.176987 0.052634
v 1.085296 0.155183 -0.000003
v 0.576261 0.155183 -0.000003
v 0.576261 0.229623 0.074437
v 1.085296 0.176987 -0.052641
v 1.085296 0.229623 0.074437
v 0.576261 0.176987 -0.052641
v 0.576261 0.282261 0.052634
v 1.085296 0.229623 -0.074444
v 1.085296 0.282261 0.052634
v 0.576261 0.229623 -0.074444
v 0.576261 0.304063 -0.000003
v 1.085296 0.282261 -0.052641
v 1.085296 0.304063 -0.000003
v 0.576261 0.282261 -0.052641
v 1.743931 -0.213028 -0.043096
v 1.743931 -0.213028 0.043096
v 1.632253 -0.213028 -0.043096
v 1.632253 -0.213028 0.043096
v 1.297225 -0.143230 -0.043095
v 1.297225 -0.143230 0.043096
v 1.185546 -0.143229 -0.043095
v 1.185546 -0.143229 0.043096
v -1.019302 0.179798 -0.088312
v -1.019302 0.179798 0.088312
v -0.961296 0.179798 -0.088312
v -0.961296 0.179798 0.088312
v -1.836183 -0.526415 0.088312
v -0.739245 -0.096561 0.088312
v -1.836183 -0.526415 -0.088312
v -0.739245 -0.096561 -0.088312
v -1.861895 -0.623329 -0.088312
v -0.749245 -0.156559 0.088312
v -1.861895 -0.623329 0.088312
v -0.749245 -0.156559 -0.088312
v -1.618621 -0.987251 -0.088312
v -1.518620 -0.987251 0.088312
v -1.618621 -0.987251 0.088312
v -1.518620 -0.987251 -0.088312
v -0.760445 -0.102106 -0.108312
v -0.931065 -0.141054 -0.108312
v -0.931065 -0.071054 -0.108312
v -0.961066 -0.031055 -0.108312
v -0.767987 -0.147365 -0.108312
v -0.970882 0.159798 -0.108312
v -1.031065 -0.021054 -0.108312
v -1.011855 0.159798 -0.108312
v -1.361066 -0.621054 -0.108312
v -1.521065 -0.451055 -0.108312
v -1.818434 -0.537507 -0.108312
v -1.521065 -0.751054 -0.108312
v -1.527358 -0.967251 -0.108312
v -1.451066 -0.621054 -0.108312
v -1.571065 -0.811054 -0.108312
v -1.531065 -0.701055 -0.108312
v -1.607934 -0.967251 -0.108312
v -1.621066 -0.591054 -0.108312
v -1.631066 -0.811054 -0.108312
v -1.521065 -0.521055 -0.108312
v -1.711066 -0.711055 -0.108312
v -1.701066 -0.591054 -0.108312
v -1.840246 -0.619725 -0.108312
v -0.970882 0.159799 0.108312
v -0.961066 -0.031054 0.108312
v -0.760445 -0.102105 0.108312
v -0.931065 -0.071053 0.108312
v -1.031065 -0.021054 0.108312
v -0.931065 -0.141053 0.108312
v -1.011855 0.159799 0.108312
v -0.767987 -0.147364 0.108312
v -1.521065 -0.451055 0.108312
v -1.361066 -0.621054 0.108312
v -1.818434 -0.537507 0.108312
v -1.521065 -0.521055 0.108312
v -1.521065 -0.751054 0.108312
v -1.527358 -0.967251 0.108312
v -1.451066 -0.621054 0.108312
v -1.571065 -0.811054 0.108312
v -1.531065 -0.701055 0.108312
v -1.607934 -0.967251 0.108312
v -1.621066 -0.591054 0.108312
v -1.631066 -0.811054 0.108312
v -1.701066 -0.591054 0.108312
v -1.711066 -0.711055 0.108312
v -1.840246 -0.619725 0.108312
v 1.520577 -0.119594 0.043096
v 1.408901 -0.119594 -0.043096
v 1.520577 -0.119594 -0.043096
v 1.408901 -0.119594 0.043096
v -1.531065 -0.701055 -0.108312
v -1.626786 -0.603126 -0.093669
v -1.621066 -0.591054 -0.108312
v -1.543142 -0.706762 -0.093669
v -1.692022 -0.600884 -0.093669
v -1.521065 -0.751054 -0.108312
v -1.701066 -0.591054 -0.108312
v -1.534012 -0.747768 -0.093669
v -1.711066 -0.711055 -0.108312
v -1.571065 -0.811054 -0.108312
v -1.698288 -0.707160 -0.093669
v -1.576730 -0.798957 -0.093669
v -1.625279 -0.799015 -0.093669
v -1.631066 -0.811054 -0.108312
v -1.692022 -0.600884 0.093669
v -1.626786 -0.603126 0.093669
v -1.621066 -0.591054 0.108312
v -1.531065 -0.701055 0.108312
v -1.701066 -0.591054 0.108312
v -1.543142 -0.706762 0.093669
v -1.711066 -0.711055 0.108312
v -1.521065 -0.751054 0.108312
v -1.698288 -0.707160 0.093669
v -1.534012 -0.747768 0.093669
v -1.625279 -0.799015 0.093669
v -1.571065 -0.811054 0.108312
v -1.631066 -0.811054 0.108312
v -1.576730 -0.798957 0.093669
v 0.475055 0.158946 0.100000
v 0.644098 0.205876 0.100000
v 0.615813 0.298692 0.100000
v 0.644098 0.270407 0.100000
v 0.460060 -0.017242 0.100000
v 0.415055 0.238946 0.100000
v 0.385054 0.018947 0.100000
v -0.077619 0.298692 0.100000
v -0.036921 -0.017242 0.100000
v -0.064946 0.238946 0.100000
v -0.064945 0.018947 0.100000
v -0.107619 0.268692 0.100000
v -0.144946 0.148946 0.100000
v -0.106921 -0.067241 0.100000
v -0.107243 0.087678 0.100000
v -0.304945 0.028946 0.100000
v -0.304945 0.168945 0.100000
v -0.342570 0.268692 0.100000
v -0.364945 -0.021054 0.100000
v -0.374945 0.238946 0.100000
v -0.740956 -0.067241 0.100000
v -0.382570 0.298692 0.100000
v -0.684945 -0.021054 0.100000
v -0.665902 0.238946 0.100000
v -0.804945 0.118946 0.100000
v -0.739747 0.298692 0.100000
v -0.931307 0.168431 0.100000
v -0.304945 0.168945 -0.100000
v -0.107619 0.268692 -0.100000
v -0.144946 0.148946 -0.100000
v -0.064946 0.238945 -0.100000
v -0.077619 0.298692 -0.100000
v 0.415055 0.238945 -0.100000
v -0.342570 0.268692 -0.100000
v 0.615813 0.298692 -0.100000
v -0.304945 0.028945 -0.100000
v -0.374945 0.238945 -0.100000
v -0.382570 0.298692 -0.100000
v -0.665902 0.238945 -0.100000
v -0.739747 0.298692 -0.100000
v -0.804945 0.118945 -0.100000
v -0.931307 0.168430 -0.100000
v -0.740956 -0.067242 -0.100000
v -0.684945 -0.021054 -0.100000
v -0.364945 -0.021054 -0.100000
v -0.106921 -0.067242 -0.100000
v -0.064945 0.018946 -0.100000
v -0.036921 -0.017243 -0.100000
v 0.385054 0.018946 -0.100000
v 0.460060 -0.017243 -0.100000
v 0.475055 0.158945 -0.100000
v 0.644098 0.205876 -0.100000
v 0.644098 0.270407 -0.100000
v -0.970882 0.159798 -0.108312
v -1.011855 0.159798 -0.108312
v -1.019302 0.179798 -0.088312
v -0.961296 0.179798 -0.088312
v -1.836183 -0.526415 -0.088312
v -0.739245 -0.096561 -0.088312
v -1.818434 -0.537507 -0.108312
v -0.760445 -0.102106 -0.108312
v -1.840246 -0.619725 -0.108312
v -0.749245 -0.156559 -0.088312
v -1.861895 -0.623329 -0.088312
v -0.767987 -0.147365 -0.108312
v -1.607934 -0.967251 -0.108312
v -1.527358 -0.967251 -0.108312
v -1.618621 -0.987251 -0.088312
v -1.518620 -0.987251 -0.088312
v -1.019302 0.179798 0.088312
v -0.970882 0.159799 0.108312
v -0.961296 0.179798 0.088312
v -0.739245 -0.096561 0.088312
v -1.011855 0.159799 0.108312
v -0.760445 -0.102105 0.108312
v -1.836183 -0.526415 0.088312
v -0.749245 -0.156559 0.088312
v -1.818434 -0.537507 0.108312
v -0.767987 -0.147364 0.108312
v -1.840246 -0.619725 0.108312
v -1.527358 -0.967251 0.108312
v -1.861895 -0.623329 0.088312
v -1.518620 -0.987251 0.088312
v -1.607934 -0.967251 0.108312
v -1.618621 -0.987251 0.088312
v -0.961066 -0.031054 0.108312
v -1.031065 -0.021054 0.108312
v -0.967643 -0.042163 0.087524
v -0.931065 -0.071053 0.108312
v -1.027384 -0.033429 0.087524
v -0.943314 -0.075137 0.087524
v -1.509305 -0.456381 0.087523
v -0.943125 -0.136443 0.087524
v -1.521065 -0.451055 0.108312
v -0.931065 -0.141053 0.108312
v -1.521065 -0.521055 0.108312
v -1.366332 -0.609266 0.087523
v -1.508752 -0.517172 0.087523
v -1.361066 -0.621054 0.108312
v -1.445102 -0.609603 0.087523
v -1.451066 -0.621054 0.108312
v -0.931065 -0.071054 -0.108312
v -0.943125 -0.136443 -0.087523
v -0.943314 -0.075137 -0.087523
v -0.967643 -0.042164 -0.087523
v -0.931065 -0.141054 -0.108312
v -0.961066 -0.031055 -0.108312
v -1.366332 -0.609266 -0.087523
v -1.031065 -0.021054 -0.108312
v -1.361066 -0.621054 -0.108312
v -1.027384 -0.033430 -0.087523
v -1.445102 -0.609603 -0.087523
v -1.509305 -0.456381 -0.087523
v -1.451066 -0.621054 -0.108312
v -1.521065 -0.451055 -0.108312
v -1.521065 -0.521055 -0.108312
v -1.508752 -0.517172 -0.087523
v -0.127232 0.147512 -0.080812
v -0.064946 0.238945 -0.100000
v -0.057788 0.223671 -0.082683
v 0.407234 0.223862 -0.082404
v -0.144946 0.148946 -0.100000
v 0.415055 0.238945 -0.100000
v -0.056498 0.033809 -0.082162
v 0.457441 0.158449 -0.081096
v -0.064945 0.018946 -0.100000
v 0.475055 0.158945 -0.100000
v 0.385054 0.018946 -0.100000
v 0.376789 0.033905 -0.082172
v -0.127232 0.147512 0.080812
v -0.107243 0.087678 0.100000
v -0.056498 0.033809 0.082163
v -0.064945 0.018947 0.100000
v -0.144946 0.148946 0.100000
v 0.385054 0.018947 0.100000
v -0.064946 0.238946 0.100000
v 0.376789 0.033905 0.082172
v -0.057788 0.223671 0.082682
v 0.475055 0.158946 0.100000
v 0.407234 0.223862 0.082404
v 0.457441 0.158450 0.081096
v 0.415055 0.238946 0.100000
v 0.624097 0.318691 0.080000
v -0.077619 0.298692 0.100000
v 0.615813 0.298692 0.100000
v -0.085903 0.318691 0.080000
v 0.664097 0.278692 0.080000
v -0.115903 0.288693 0.080000
v 0.644098 0.270407 0.100000
v -0.107619 0.268692 0.100000
v 0.664097 0.198691 0.080000
v -0.342570 0.268692 0.100000
v 0.644098 0.205876 0.100000
v -0.335903 0.288693 0.080000
v 0.460060 -0.017242 0.100000
v -0.382570 0.298692 0.100000
v 0.469489 -0.037241 0.080000
v -0.375903 0.318691 0.080000
v -0.030512 -0.037241 0.080000
v -0.745903 0.318691 0.080000
v -0.036921 -0.017242 0.100000
v -0.739747 0.298692 0.100000
v -0.106921 -0.067241 0.100000
v -0.931307 0.168431 0.100000
v -0.100512 -0.087242 0.080000
v -0.960510 0.172758 0.080000
v -0.740956 -0.067241 0.100000
v -0.750511 -0.087242 0.080000
v -0.085903 0.318691 -0.080000
v 0.624097 0.318691 -0.080000
v -0.077619 0.298692 -0.100000
v -0.115903 0.288693 -0.080000
v 0.615813 0.298692 -0.100000
v -0.107619 0.268692 -0.100000
v 0.664097 0.278692 -0.080000
v -0.342570 0.268692 -0.100000
v 0.644098 0.270407 -0.100000
v -0.335903 0.288693 -0.080000
v 0.664097 0.198691 -0.080000
v -0.382570 0.298692 -0.100000
v 0.644098 0.205876 -0.100000
v -0.375903 0.318691 -0.080000
v 0.460060 -0.017243 -0.100000
v -0.745903 0.318691 -0.080000
v 0.469489 -0.037242 -0.080000
v -0.739747 0.298692 -0.100000
v -0.030512 -0.037242 -0.080000
v -0.931307 0.168430 -0.100000
v -0.036921 -0.017243 -0.100000
v -0.960510 0.172757 -0.080000
v -0.106921 -0.067242 -0.100000
v -0.750511 -0.087242 -0.080000
v -0.100512 -0.087242 -0.080000
v -0.740956 -0.067242 -0.100000
v -0.665902 0.238946 0.100000
v -0.788078 0.117682 0.083160
v -0.660093 0.223496 0.083821
v -0.381287 0.223644 0.083709
v -0.804945 0.118946 0.100000
v -0.374945 0.238946 0.100000
v -0.684945 -0.021054 0.100000
v -0.320246 0.162616 0.083719
v -0.677981 -0.006049 0.083746
v -0.304945 0.168945 0.100000
v -0.364945 -0.021054 0.100000
v -0.319985 0.035967 0.083645
v -0.370597 -0.005521 0.083777
v -0.304945 0.028946 0.100000
v -0.677981 -0.006049 -0.083746
v -0.364945 -0.021054 -0.100000
v -0.684945 -0.021054 -0.100000
v -0.370597 -0.005522 -0.083777
v -0.788078 0.117681 -0.083160
v -0.319986 0.035967 -0.083645
v -0.804945 0.118945 -0.100000
v -0.304945 0.028945 -0.100000
v -0.665902 0.238945 -0.100000
v -0.304945 0.168945 -0.100000
v -0.660093 0.223496 -0.083821
v -0.320246 0.162615 -0.083719
v -0.381287 0.223644 -0.083710
v -0.374945 0.238945 -0.100000
v 1.744097 0.335657 -0.014700
v 1.574097 0.305656 -0.021000
v 1.574097 0.335657 -0.014700
v 1.744097 0.305656 -0.021000
v 1.634098 0.385675 -0.005670
v 1.704098 0.385675 -0.005670
v 1.744097 0.335657 0.014700
v 1.574097 0.335657 0.014700
v 1.744097 0.305656 0.021000
v 1.574097 0.305656 0.021000
v 1.634098 0.385675 0.005670
v 1.704098 0.385675 0.005670
v 1.576416 0.039116 0.043096
v 1.353064 0.039116 0.043096
v 1.408901 0.011082 0.043096
v 1.520577 0.011082 0.043096
v 1.520577 -0.119594 0.043096
v 1.408901 -0.119594 0.043096
v 1.185548 0.166785 0.043096
v 1.297225 0.011082 0.043096
v 1.185546 -0.143229 0.043096
v 1.297225 -0.143230 0.043096
v 1.743932 0.166785 0.043096
v 1.632253 0.011082 0.043096
v 1.743931 -0.213028 0.043096
v 1.632253 -0.213028 0.043096
v 1.185548 0.166785 -0.043095
v 1.743932 0.166785 -0.043096
v 1.576416 0.039116 -0.043096
v 1.632253 0.011082 -0.043096
v 1.743931 -0.213028 -0.043096
v 1.632253 -0.213028 -0.043096
v 1.353064 0.039116 -0.043095
v 1.520577 0.011082 -0.043096
v 1.297225 0.011082 -0.043095
v 1.185546 -0.143229 -0.043095
v 1.297225 -0.143230 -0.043095
v 1.408901 0.011082 -0.043095
v 1.408901 -0.119594 -0.043096
v 1.520577 -0.119594 -0.043096
v 1.075042 0.020580 -0.042509
v 0.464336 0.002973 -0.000003
v 0.464336 0.020580 -0.042509
v 1.075042 0.002973 -0.000003
v 1.075042 0.063085 -0.060115
v 0.464336 0.020580 0.042502
v 0.464336 0.063085 -0.060115
v 1.075042 0.020580 0.042502
v 1.075042 0.105591 -0.042509
v 0.464336 0.063085 0.060109
v 0.464336 0.105591 -0.042509
v 1.075042 0.063085 0.060109
v 1.075042 0.123197 -0.000003
v 0.464336 0.105591 0.042502
v 0.464336 0.123197 -0.000003
v 1.075042 0.105591 0.042502
v -0.375903 0.318691 0.080000
v -0.335903 0.288693 -0.080000
v -0.375903 0.318691 -0.080000
v -0.335903 0.288693 0.080000
v -0.745903 0.318691 0.080000
v -0.115903 0.288693 -0.080000
v -0.745903 0.318691 -0.080000
v -0.115903 0.288693 0.080000
v -0.960510 0.172758 0.080000
v -0.085903 0.318691 -0.080000
v -0.960510 0.172757 -0.080000
v -0.085903 0.318691 0.080000
v -0.750511 -0.087242 0.080000
v 0.624097 0.318691 0.080000
v -0.750511 -0.087242 -0.080000
v 0.624097 0.318691 -0.080000
v -0.100512 -0.087242 0.080000
v 0.664097 0.278692 -0.080000
v -0.100512 -0.087242 -0.080000
v 0.664097 0.278692 0.080000
v -0.030512 -0.037241 0.080000
v 0.664097 0.198691 -0.080000
v -0.030512 -0.037242 -0.080000
v 0.664097 0.198691 0.080000
v 0.469489 -0.037241 0.080000
v 0.469489 -0.037242 -0.080000
v -0.127232 0.147512 0.080812
v -0.056498 0.033809 -0.082162
v -0.127232 0.147512 -0.080812
v -0.056498 0.033809 0.082163
v -0.057788 0.223671 0.082682
v 0.376789 0.033905 0.082172
v -0.057788 0.223671 -0.082683
v 0.376789 0.033905 -0.082172
v 0.407234 0.223862 -0.082404
v 0.457441 0.158449 -0.081096
v 0.407234 0.223862 0.082404
v 0.457441 0.158450 0.081096
v -0.520903 0.380657 -0.070000
v -0.511903 0.371257 -0.011978
v -0.475903 0.335657 -0.070000
v -0.535903 0.395657 -0.032667
v -0.535903 0.395657 -0.055001
v -0.511903 0.371257 0.011978
v -0.475903 0.305656 0.070000
v -0.475903 0.305656 -0.070000
v -0.475903 0.335657 0.070000
v -0.520903 0.380657 0.070000
v -0.535903 0.395657 0.032667
v -0.535903 0.395657 0.055001
v 1.632253 -0.213028 -0.043096
v 1.632253 0.011082 0.043096
v 1.632253 0.011082 -0.043096
v 1.632253 -0.213028 0.043096
v 1.576416 0.039116 -0.043096
v 1.576416 0.039116 0.043096
v 1.520577 0.011082 -0.043096
v 1.520577 0.011082 0.043096
v 1.520577 -0.119594 0.043096
v 1.520577 -0.119594 -0.043096
v 1.114059 0.318952 -0.000003
v 1.114059 0.292789 -0.063168
v 1.085296 0.282261 -0.052641
v 1.114059 0.229623 -0.089332
v 1.085296 0.304063 -0.000003
v 1.085296 0.229623 -0.074444
v 1.085296 0.282261 0.052634
v 1.085296 0.176987 -0.052641
v 1.114059 0.292789 0.063161
v 1.114059 0.166459 -0.063168
v 1.114059 0.229623 0.089325
v 1.114059 0.140294 -0.000003
v 1.085296 0.229623 0.074437
v 1.085296 0.155183 -0.000003
v 1.085296 0.176987 0.052634
v 1.114059 0.166460 0.063161
v 1.185548 0.166785 -0.043095
v 1.185546 -0.143229 -0.043095
v 1.185546 -0.143229 0.043096
v 1.185548 0.166785 0.043096
v 1.574097 0.305656 -0.021000
v 1.574097 0.335657 0.014700
v 1.574097 0.335657 -0.014700
v 1.574097 0.305656 0.021000
v 1.634098 0.385675 0.005670
v 1.634098 0.385675 -0.005670
v 1.114059 0.166459 -0.063168
v 1.833132 0.140294 -0.000004
v 1.114059 0.140294 -0.000003
v 1.833132 0.166459 -0.063169
v 1.833132 0.166460 0.063161
v 1.833132 0.229623 -0.089332
v 1.114059 0.166460 0.063161
v 1.114059 0.229623 -0.089332
v 1.114059 0.229623 0.089325
v 1.833132 0.292789 -0.063169
v 1.833132 0.229623 0.089325
v 1.114059 0.292789 -0.063168
v 1.114059 0.292789 0.063161
v 1.833132 0.318952 -0.000004
v 1.833132 0.292789 0.063161
v 1.114059 0.318952 -0.000003
v -1.692022 -0.600884 -0.093669
v -1.692022 -0.600884 0.093669
v -1.698288 -0.707160 -0.093669
v -1.698288 -0.707160 0.093669
v -1.626786 -0.603126 0.093669
v -1.625279 -0.799015 -0.093669
v -1.626786 -0.603126 -0.093669
v -1.625279 -0.799015 0.093669
v -1.543142 -0.706762 0.093669
v -1.576730 -0.798957 -0.093669
v -1.543142 -0.706762 -0.093669
v -1.576730 -0.798957 0.093669
v -1.534012 -0.747768 0.093669
v -1.534012 -0.747768 -0.093669
vn 1.0000 -0.0000 -0.0000
vn 0.5276 0.6007 -0.6007
vn 0.5276 -0.0000 -0.8495
vn 0.5276 0.8495 -0.0000
vn 0.5276 -0.6007 -0.6007
vn 0.5276 0.6007 0.6007
vn 0.5276 -0.8495 -0.0000
vn 0.5276 -0.0000 0.8495
vn 0.5276 -0.6007 0.6007
vn 0.9441 0.3297 -0.0000
vn 0.7810 0.6245 -0.0000
vn -0.0000 -1.0000 -0.0000
vn 0.1540 -0.9881 0.0001
vn -0.0000 -0.7071 0.7071
vn 0.1540 -0.6987 -0.6987
vn 0.1540 -0.6987 0.6986
vn -0.0000 -0.0000 1.0000
vn -0.0000 -0.7071 -0.7071
vn 0.1540 -0.0000 0.9881
vn -0.0000 0.7071 0.7071
vn 0.1540 -0.0000 -0.9881
vn -0.0000 -0.0000 -1.0000
vn 0.1540 0.6987 -0.6987
vn -0.0000 0.7071 -0.7071
vn -0.0000 1.0000 -0.0000
vn 0.1540 0.9881 0.0001
vn 0.1540 0.6987 0.6987
vn -0.9144 0.4048 -0.0000
vn -0.1634 0.9866 -0.0000
vn -0.9383 -0.3459 -0.0000
vn -0.1633 0.9866 -0.0000
vn 0.1625 0.9867 -0.0000
vn -0.3113 -0.9503 -0.0001
vn 0.1624 0.9867 -0.0000
vn -0.3113 -0.9503 -0.0000
vn 0.9446 0.3281 -0.0000
vn 0.0705 -0.9975 -0.0000
vn 0.0704 -0.9975 0.0001
vn 0.8731 -0.4876 -0.0000
vn 0.8731 -0.4875 -0.0000
vn 0.5277 -0.0000 0.8495
vn 0.5277 -0.8495 -0.0000
vn -1.0000 -0.0000 -0.0000
vn 0.1581 0.9874 0.0001
vn -0.1518 0.9884 -0.0004
vn 0.1581 0.9874 0.0010
vn 0.9883 -0.1523 0.0004
vn -0.1517 0.9884 -0.0000
vn 0.9883 -0.1523 -0.0000
vn -0.8570 0.5153 -0.0000
vn 0.1510 -0.9885 -0.0000
vn -0.8570 0.5153 0.0001
vn 0.1509 -0.9885 -0.0008
vn -0.8956 -0.4448 -0.0000
vn -0.1562 -0.9877 -0.0000
vn -0.0000 0.9074 0.4203
vn -0.0000 0.9165 0.4001
vn -0.0000 0.8987 0.4385
vn -0.0000 0.9074 -0.4203
vn -0.0000 0.9172 -0.3984
vn -0.0000 0.9165 -0.4001
vn -0.0000 0.9239 -0.3827
vn -0.0000 0.8987 -0.4385
vn -0.0000 0.3827 -0.9239
vn -0.0000 0.3435 -0.9392
vn -0.0000 0.9239 0.3827
vn -0.0000 0.9172 0.3984
vn -0.0000 0.3827 0.9239
vn -0.0000 0.3435 0.9392
vn -0.7209 -0.6931 -0.0000
vn -0.7209 -0.6931 -0.0001
vn 0.7208 -0.6931 0.0001
vn 0.7208 -0.6931 -0.0000
vn -0.1522 0.9883 -0.0000
vn 0.1626 0.9867 -0.0000
vn 0.1626 0.9867 -0.0001
vn -0.8169 0.5767 -0.0000
vn 0.9536 0.3010 -0.0000
vn -0.9806 -0.1961 -0.0000
vn 0.8786 -0.4776 -0.0000
vn -0.1667 -0.9860 -0.0000
vn 0.1588 -0.9873 -0.0000
vn 0.1590 -0.9873 -0.0000
vn -0.6517 -0.3756 -0.6589
vn -0.2059 -0.7351 -0.6459
vn -0.1072 -0.7735 -0.6247
vn -0.6873 -0.3039 -0.6598
vn 0.1918 -0.7127 -0.6747
vn -0.6881 0.2591 -0.6778
vn 0.1070 -0.7550 -0.6470
vn -0.7114 0.1702 -0.6819
vn 0.6970 0.2972 -0.6526
vn -0.0966 0.7495 -0.6549
vn 0.7304 0.2130 -0.6490
vn -0.1877 0.7212 -0.6668
vn 0.1875 0.7188 -0.6695
vn 0.0964 0.7483 -0.6564
vn 0.1918 -0.7127 0.6747
vn -0.2059 -0.7351 0.6459
vn -0.1072 -0.7735 0.6247
vn -0.6517 -0.3756 0.6589
vn 0.1070 -0.7550 0.6470
vn -0.6873 -0.3039 0.6598
vn 0.6970 0.2972 0.6526
vn -0.6881 0.2591 0.6778
vn 0.7304 0.2130 0.6489
vn -0.7114 0.1702 0.6819
vn 0.1875 0.7188 0.6695
vn -0.0965 0.7495 0.6549
vn 0.0964 0.7482 0.6564
vn -0.1877 0.7212 0.6668
vn 0.1856 0.6489 -0.7379
vn -0.1702 0.6644 -0.7278
vn -0.0822 0.6892 -0.7199
vn 0.0865 0.6834 -0.7249
vn -0.5323 0.4458 -0.7197
vn 0.6300 0.2470 -0.7363
vn -0.6004 0.3424 -0.7227
vn 0.6561 0.1552 -0.7385
vn -0.6662 -0.0998 -0.7391
vn 0.5846 -0.3741 -0.7199
vn -0.6548 -0.1627 -0.7381
vn 0.6323 -0.2813 -0.7219
vn -0.1913 -0.6410 -0.7433
vn 0.1802 -0.6550 -0.7338
vn -0.0881 -0.6804 -0.7275
vn 0.0850 -0.6857 -0.7229
vn -0.0822 0.6892 0.7199
vn 0.1856 0.6489 0.7379
vn 0.0865 0.6834 0.7249
vn 0.6300 0.2470 0.7363
vn -0.1702 0.6644 0.7278
vn 0.6561 0.1552 0.7385
vn -0.5322 0.4459 0.7197
vn 0.5846 -0.3741 0.7199
vn -0.6004 0.3424 0.7227
vn 0.6323 -0.2813 0.7219
vn -0.6662 -0.0998 0.7391
vn 0.1802 -0.6550 0.7338
vn -0.6548 -0.1627 0.7381
vn 0.0850 -0.6858 0.7228
vn -0.1913 -0.6411 0.7433
vn -0.0881 -0.6804 0.7275
vn -0.2237 -0.8296 0.5115
vn 0.0501 -0.8526 0.5201
vn -0.3297 -0.7856 0.5236
vn -0.7880 -0.3264 0.5221
vn 0.0863 -0.8477 0.5234
vn -0.8099 -0.2651 0.5233
vn 0.7651 -0.3630 0.5318
vn -0.7933 0.3049 0.5270
vn 0.7144 -0.4612 0.5263
vn -0.7611 0.3821 0.5241
vn 0.7998 0.3088 0.5147
vn -0.1869 0.8354 0.5169
vn 0.8184 0.2530 0.5160
vn -0.1147 0.8538 0.5077
vn 0.1896 0.8309 0.5231
vn 0.1164 0.8511 0.5120
vn -0.7880 -0.3264 -0.5221
vn -0.7933 0.3049 -0.5270
vn -0.8099 -0.2651 -0.5233
vn -0.3297 -0.7856 -0.5236
vn -0.7611 0.3821 -0.5241
vn -0.2237 -0.8296 -0.5115
vn -0.1869 0.8354 -0.5169
vn 0.0501 -0.8526 -0.5201
vn -0.1147 0.8538 -0.5077
vn 0.0863 -0.8477 -0.5234
vn 0.1896 0.8309 -0.5231
vn 0.7651 -0.3630 -0.5318
vn 0.1164 0.8511 -0.5120
vn 0.7144 -0.4612 -0.5263
vn 0.7996 0.3088 -0.5151
vn 0.8184 0.2530 -0.5160
vn 0.7013 -0.0722 -0.7092
vn 0.0930 -0.7371 -0.6693
vn 0.1869 -0.7123 -0.6765
vn -0.1918 -0.7056 -0.6822
vn 0.6954 -0.1201 -0.7085
vn -0.0955 -0.7340 -0.6724
vn 0.1976 0.7105 -0.6754
vn -0.7098 -0.0314 -0.7037
vn 0.0993 0.7429 -0.6620
vn -0.7089 -0.0483 -0.7037
vn -0.0985 0.7428 -0.6622
vn -0.1964 0.7103 -0.6759
vn 0.7013 -0.0722 0.7092
vn 0.6653 0.4150 0.6206
vn 0.1976 0.7105 0.6754
vn 0.0992 0.7429 0.6620
vn 0.6954 -0.1201 0.7085
vn -0.0985 0.7428 0.6622
vn 0.0930 -0.7371 0.6693
vn -0.1964 0.7103 0.6759
vn 0.1869 -0.7123 0.6765
vn -0.7089 -0.0483 0.7036
vn -0.1919 -0.7056 0.6821
vn -0.7098 -0.0314 0.7037
vn -0.0955 -0.7340 0.6724
vn 0.0841 0.6870 0.7218
vn -0.1770 0.6583 0.7316
vn 0.1770 0.6583 0.7316
vn -0.0840 0.6870 0.7218
vn 0.5832 0.3555 0.7304
vn 0.6351 0.2396 0.7343
vn 0.6167 -0.3042 0.7260
vn 0.0801 0.6913 0.7181
vn 0.6521 -0.2113 0.7280
vn 0.1627 0.6700 0.7243
vn 0.1846 -0.6501 0.7371
vn 0.0863 -0.6839 0.7245
vn 0.1599 -0.6719 0.7232
vn -0.0786 0.6927 0.7169
vn 0.0794 -0.6920 0.7175
vn -0.1570 0.6738 0.7221
vn -0.5526 0.0967 0.8278
vn -0.5258 0.2330 0.8181
vn -0.1854 -0.6492 0.7377
vn -0.0864 -0.6835 0.7248
vn -0.0840 0.6870 -0.7218
vn 0.0841 0.6870 -0.7218
vn -0.1770 0.6583 -0.7316
vn 0.1770 0.6583 -0.7316
vn 0.5832 0.3555 -0.7304
vn 0.0801 0.6913 -0.7181
vn 0.6351 0.2396 -0.7343
vn 0.1627 0.6700 -0.7243
vn 0.6167 -0.3042 -0.7260
vn 0.6521 -0.2113 -0.7281
vn 0.0801 0.6914 -0.7181
vn 0.1846 -0.6501 -0.7371
vn -0.0786 0.6927 -0.7169
vn 0.0863 -0.6839 -0.7245
vn -0.1570 0.6738 -0.7221
vn 0.1599 -0.6719 -0.7232
vn -0.5526 0.0968 -0.8278
vn 0.0794 -0.6920 -0.7175
vn -0.5258 0.2330 -0.8181
vn -0.0864 -0.6835 -0.7248
vn -0.1854 -0.6492 -0.7377
vn 0.0860 -0.7163 0.6924
vn 0.6451 -0.0662 0.7612
vn 0.1754 -0.7003 0.6919
vn -0.1780 -0.6796 0.7116
vn 0.6389 -0.1220 0.7595
vn -0.0870 -0.7065 0.7024
vn 0.0906 0.7136 0.6947
vn -0.6565 -0.2524 0.7108
vn 0.1873 0.6907 0.6984
vn -0.6047 -0.3653 0.7078
vn -0.0846 0.7117 0.6973
vn -0.6348 0.2847 0.7183
vn -0.1705 0.6888 0.7046
vn -0.5646 0.4170 0.7123
vn 0.1873 0.6907 -0.6984
vn -0.0846 0.7117 -0.6974
vn 0.0906 0.7136 -0.6947
vn -0.1705 0.6888 -0.7046
vn 0.6451 -0.0662 -0.7612
vn -0.6348 0.2847 -0.7183
vn 0.6389 -0.1220 -0.7595
vn -0.5646 0.4170 -0.7123
vn 0.0861 -0.7163 -0.6925
vn -0.6047 -0.3653 -0.7078
vn 0.1754 -0.7003 -0.6919
vn -0.6565 -0.2524 -0.7108
vn -0.1780 -0.6796 -0.7116
vn -0.0870 -0.7065 -0.7024
vn -0.0000 0.1923 -0.9813
vn -0.0000 0.2055 -0.9787
vn -0.0000 0.1927 -0.9813
vn -0.0000 0.1777 -0.9841
vn -0.0000 0.1923 0.9813
vn -0.0000 0.1927 0.9813
vn -0.0000 0.2055 0.9787
vn -0.0000 0.1777 0.9841
vn 0.1474 0.9891 -0.0001
vn 0.1474 0.9891 -0.0000
vn 0.1475 0.9891 -0.0000
vn -0.1438 0.9896 -0.0000
vn -0.1567 0.9876 0.0001
vn -0.1568 0.9876 -0.0000
vn -0.9534 0.3016 -0.0000
vn -0.1567 0.9876 -0.0000
vn -0.9535 0.3016 -0.0000
vn -0.1623 -0.9867 -0.0000
vn 0.1567 0.9876 -0.0000
vn 0.1570 0.9876 -0.0000
vn 0.1456 -0.9893 -0.0000
vn 0.8960 0.4440 -0.0000
vn 0.1456 -0.9893 0.0001
vn 0.9253 -0.3792 -0.0000
vn 0.1618 -0.9868 -0.0000
vn 0.1619 -0.9868 -0.0000
vn 0.9897 -0.1433 0.0006
vn 0.1667 0.9860 0.0038
vn 0.9897 -0.1433 -0.0000
vn 0.1667 0.9860 0.0002
vn 0.1579 -0.9875 -0.0000
vn -0.1666 0.9860 -0.0027
vn 0.1578 -0.9875 -0.0000
vn -0.1667 0.9860 0.0002
vn -0.1613 -0.9869 -0.0000
vn -0.9981 -0.0613 -0.0002
vn -0.9981 -0.0613 -0.0000
vn 0.7062 0.7080 -0.0000
vn 0.8956 0.4449 -0.0000
vn -0.7208 -0.6932 -0.0001
vn -0.7208 -0.6932 -0.0000
vn 0.7209 -0.6931 -0.0000
vn -0.4597 0.8881 -0.0000
vn -0.4597 0.6280 -0.6280
vn -0.4597 -0.0000 -0.8881
vn -0.4597 0.6280 0.6280
vn -0.4597 -0.6280 -0.6280
vn -0.4597 -0.0000 0.8881
vn -0.4597 -0.8881 -0.0000
vn -0.4597 -0.6280 0.6280
vn -0.8872 0.4615 -0.0000
vn -0.6403 0.7681 -0.0000
vn 0.1569 -0.9876 -0.0000
vn 0.9392 0.3433 -0.0000
vn -0.1930 -0.9812 -0.0000
vn 0.1618 0.9868 -0.0000
vn 0.1618 0.9868 -0.0002
vn -0.8897 -0.4566 -0.0000
vn -0.1625 0.9867 0.0001
vn -0.1625 0.9867 -0.0000
vn -0.9571 0.2898 -0.0000
vt 0.000000 0.000000
s 1
f 193/2/139 194/2/139 195/2/139
f 196/2/139 193/2/139 195/2/139
f 194/2/139 193/2/139 197/2/139
f 193/2/139 196/2/139 198/2/139
f 199/2/139 194/2/139 197/2/139
f 200/2/139 198/2/139 196/2/139
f 194/2/139 199/2/139 201/2/139
f 198/2/139 200/2/139 202/2/139
f 199/2/139 203/2/139 201/2/139
f 200/2/139 204/2/139 202/2/139
f 203/2/139 199/2/139 205/2/139
f 204/2/139 200/2/139 206/2/139
f 207/2/139 203/2/139 205/2/139
f 206/2/139 207/2/139 204/2/139
f 203/2/139 207/2/139 208/2/139
f 206/2/139 208/2/139 207/2/139
f 209/2/140 210/2/141 211/2/140
f 212/2/142 209/2/140 211/2/140
f 210/2/141 209/2/140 213/2/141
f 209/2/140 212/2/142 214/2/142
f 215/2/143 210/2/141 213/2/141
f 214/2/142 212/2/142 216/2/144
f 210/2/141 215/2/143 217/2/143
f 212/2/142 218/2/144 216/2/144
f 215/2/143 219/2/145 217/2/143
f 220/2/146 216/2/144 218/2/144
f 219/2/145 215/2/143 221/2/145
f 216/2/144 220/2/146 222/2/146
f 223/2/147 219/2/145 221/2/145
f 220/2/146 223/2/147 222/2/146
f 219/2/145 223/2/147 224/2/147
f 223/2/147 220/2/146 224/2/147
f 225/2/148 226/2/139 227/2/139
f 226/2/139 225/2/148 228/2/148
f 229/2/149 228/2/148 225/2/148
f 228/2/148 229/2/149 230/2/149
f 231/2/139 232/2/139 233/2/139
f 231/2/139 233/2/139 234/2/139
f 235/2/150 236/2/151 237/2/152
f 236/2/151 235/2/150 238/2/153
f 239/2/154 237/2/152 236/2/151
f 238/2/153 239/2/154 236/2/151
f 237/2/152 239/2/154 240/2/155
f 241/2/156 238/2/153 235/2/150
f 242/2/157 240/2/155 239/2/154
f 240/2/155 242/2/157 243/2/158
f 238/2/153 241/2/156 244/2/159
f 245/2/160 244/2/159 241/2/156
f 244/2/159 245/2/160 246/2/161
f 246/2/161 238/2/153 244/2/159
f 247/2/162 246/2/161 245/2/160
f 248/2/163 246/2/161 247/2/162
f 243/2/158 249/2/164 248/2/163
f 246/2/161 248/2/163 249/2/164
f 249/2/164 243/2/158 250/2/165
f 250/2/165 246/2/161 249/2/164
f 238/2/153 246/2/161 250/2/165
f 250/2/165 243/2/158 242/2/157
f 238/2/153 250/2/165 239/2/154
f 239/2/154 250/2/165 242/2/157
f 251/2/166 252/2/167 253/2/166
f 254/2/168 251/2/166 253/2/166
f 252/2/167 251/2/166 255/2/169
f 251/2/166 254/2/168 256/2/168
f 257/2/170 252/2/167 255/2/169
f 256/2/168 254/2/168 258/2/171
f 252/2/167 257/2/170 259/2/172
f 258/2/171 260/2/173 256/2/168
f 261/2/174 259/2/172 257/2/170
f 260/2/173 258/2/171 262/2/175
f 259/2/172 261/2/174 263/2/174
f 262/2/175 264/2/176 260/2/173
f 265/2/177 263/2/174 261/2/174
f 266/2/178 264/2/176 262/2/175
f 263/2/174 265/2/177 266/2/178
f 264/2/176 266/2/178 265/2/177
f 267/2/139 268/2/139 269/2/139
f 268/2/139 267/2/139 270/2/139
f 269/2/139 271/2/139 267/2/139
f 271/2/139 270/2/139 267/2/139
f 272/2/139 268/2/139 270/2/139
f 269/2/139 273/2/139 271/2/139
f 274/2/139 271/2/139 273/2/139
f 270/2/139 275/2/139 272/2/139
f 276/2/139 272/2/139 275/2/139
f 270/2/139 276/2/139 275/2/139
f 276/2/139 270/2/139 271/2/139
f 272/2/139 276/2/139 277/2/139
f 278/2/139 277/2/139 276/2/139
f 277/2/139 278/2/139 279/2/139
f 276/2/139 280/2/139 278/2/139
f 280/2/139 279/2/139 278/2/139
f 276/2/139 271/2/139 280/2/139
f 279/2/139 280/2/139 281/2/139
f 280/2/139 274/2/139 281/2/139
f 271/2/139 274/2/139 282/2/139
f 274/2/139 280/2/139 282/2/139
f 280/2/139 271/2/139 282/2/139
f 283/2/140 284/2/141 285/2/140
f 286/2/142 283/2/140 285/2/140
f 284/2/141 283/2/140 287/2/141
f 283/2/140 286/2/142 288/2/142
f 289/2/143 284/2/141 287/2/141
f 288/2/142 286/2/142 290/2/144
f 284/2/141 289/2/143 291/2/143
f 286/2/142 292/2/144 290/2/144
f 289/2/143 293/2/145 291/2/143
f 294/2/179 290/2/144 292/2/144
f 293/2/145 289/2/143 295/2/180
f 290/2/144 294/2/179 296/2/179
f 297/2/147 293/2/145 295/2/180
f 294/2/179 297/2/147 296/2/179
f 293/2/145 297/2/147 298/2/147
f 297/2/147 294/2/179 298/2/147
f 299/2/181 300/2/181 301/2/181
f 300/2/181 299/2/181 302/2/181
f 302/2/181 299/2/181 303/2/181
f 302/2/181 303/2/181 304/2/181
f 303/2/181 305/2/181 304/2/181
f 304/2/181 305/2/181 306/2/181
f 306/2/181 307/2/181 304/2/181
f 307/2/181 306/2/181 308/2/181
f 309/2/182 310/2/183 311/2/184
f 311/2/184 312/2/185 309/2/182
f 313/2/186 311/2/184 310/2/183
f 312/2/185 311/2/184 314/2/187
f 310/2/183 315/2/188 313/2/186
f 314/2/187 316/2/189 312/2/185
f 315/2/188 310/2/183 317/2/190
f 316/2/189 318/2/191 312/2/185
f 315/2/188 317/2/190 319/2/192
f 316/2/189 320/2/193 318/2/191
f 321/2/192 315/2/188 319/2/192
f 321/2/192 319/2/192 320/2/193
f 320/2/193 316/2/189 322/2/193
f 320/2/193 322/2/193 321/2/192
f 323/2/163 324/2/163 325/2/163
f 323/2/163 325/2/163 326/2/163
f 327/2/194 328/2/195 329/2/196
f 327/2/194 329/2/196 330/2/194
f 328/2/195 327/2/194 331/2/197
f 332/2/198 330/2/194 329/2/196
f 328/2/195 331/2/197 333/2/199
f 332/2/198 334/2/200 330/2/194
f 331/2/197 335/2/201 333/2/199
f 332/2/198 336/2/202 334/2/200
f 335/2/201 331/2/197 337/2/197
f 336/2/202 332/2/198 338/2/203
f 335/2/201 337/2/197 339/2/204
f 338/2/203 340/2/160 336/2/202
f 338/2/203 341/2/160 340/2/160
f 341/2/160 338/2/203 342/2/160
f 335/2/201 339/2/204 343/2/205
f 343/2/205 339/2/204 344/2/206
f 343/2/205 344/2/206 345/2/207
f 346/2/155 345/2/207 344/2/206
f 347/2/155 345/2/207 346/2/155
f 345/2/207 347/2/155 348/2/155
f 349/2/208 350/2/209 351/2/150
f 349/2/208 352/2/181 350/2/209
f 352/2/181 349/2/208 353/2/181
f 351/2/150 350/2/209 354/2/150
f 354/2/150 355/2/210 351/2/150
f 355/2/210 354/2/150 356/2/211
f 356/2/211 357/2/139 355/2/210
f 358/2/139 355/2/210 357/2/139
f 359/2/152 360/2/152 361/2/150
f 362/2/150 361/2/150 360/2/152
f 360/2/152 359/2/152 363/2/155
f 361/2/150 362/2/150 364/2/156
f 365/2/155 363/2/155 359/2/152
f 366/2/156 364/2/156 362/2/150
f 363/2/155 365/2/155 367/2/158
f 364/2/156 366/2/156 368/2/160
f 369/2/158 367/2/158 365/2/155
f 370/2/160 368/2/160 366/2/156
f 369/2/158 371/2/163 367/2/158
f 368/2/160 370/2/160 372/2/162
f 371/2/163 369/2/158 373/2/163
f 374/2/162 372/2/162 370/2/160
f 373/2/163 374/2/162 371/2/163
f 374/2/162 373/2/163 372/2/162
f 375/2/150 376/2/150 377/2/150
f 377/2/150 376/2/150 378/2/150
f 379/2/150 380/2/150 381/2/150
f 381/2/150 380/2/150 382/2/150
f 383/2/212 384/2/212 385/2/213
f 385/2/213 384/2/212 386/2/214
f 383/2/212 387/2/215 384/2/212
f 385/2/213 386/2/214 388/2/216
f 387/2/215 383/2/212 389/2/215
f 390/2/216 385/2/213 388/2/216
f 387/2/215 389/2/215 391/2/217
f 390/2/216 388/2/216 392/2/218
f 391/2/217 393/2/217 387/2/215
f 392/2/218 394/2/218 390/2/216
f 391/2/217 395/2/219 393/2/217
f 392/2/218 396/2/220 394/2/218
f 397/2/219 393/2/217 395/2/219
f 398/2/221 394/2/218 396/2/220
f 397/2/219 395/2/219 398/2/221
f 398/2/221 396/2/220 397/2/219
f 399/2/160 400/2/160 401/2/160
f 402/2/160 399/2/160 401/2/160
f 400/2/160 399/2/160 403/2/160
f 402/2/160 404/2/160 399/2/160
f 404/2/160 402/2/160 405/2/160
f 405/2/160 406/2/160 404/2/160
f 403/2/160 407/2/160 400/2/160
f 406/2/160 405/2/160 408/2/160
f 406/2/160 408/2/160 409/2/160
f 403/2/160 410/2/160 407/2/160
f 403/2/160 411/2/160 410/2/160
f 410/2/160 412/2/160 407/2/160
f 410/2/160 411/2/160 413/2/160
f 414/2/160 412/2/160 410/2/160
f 415/2/160 413/2/160 411/2/160
f 416/2/160 412/2/160 414/2/160
f 413/2/160 415/2/160 417/2/160
f 412/2/160 416/2/160 418/2/160
f 416/2/160 408/2/160 418/2/160
f 415/2/160 419/2/160 417/2/160
f 408/2/160 416/2/160 420/2/160
f 420/2/160 409/2/160 408/2/160
f 419/2/160 415/2/160 421/2/160
f 420/2/160 421/2/160 409/2/160
f 421/2/160 420/2/160 419/2/160
f 422/2/155 423/2/155 424/2/155
f 424/2/155 423/2/155 425/2/155
f 422/2/155 426/2/155 423/2/155
f 424/2/155 425/2/155 427/2/155
f 426/2/155 422/2/155 428/2/155
f 427/2/155 429/2/155 424/2/155
f 428/2/155 430/2/155 426/2/155
f 429/2/155 427/2/155 431/2/155
f 428/2/155 432/2/155 430/2/155
f 432/2/155 433/2/155 430/2/155
f 434/2/155 429/2/155 431/2/155
f 434/2/155 435/2/155 429/2/155
f 436/2/155 434/2/155 431/2/155
f 437/2/155 435/2/155 434/2/155
f 434/2/155 436/2/155 438/2/155
f 435/2/155 437/2/155 439/2/155
f 440/2/155 438/2/155 436/2/155
f 436/2/155 433/2/155 440/2/155
f 437/2/155 441/2/155 439/2/155
f 433/2/155 442/2/155 440/2/155
f 442/2/155 433/2/155 432/2/155
f 443/2/155 439/2/155 441/2/155
f 444/2/155 442/2/155 432/2/155
f 439/2/155 443/2/155 444/2/155
f 442/2/155 444/2/155 443/2/155
f 445/2/150 446/2/150 447/2/150
f 446/2/150 445/2/150 448/2/150
f 449/2/222 450/2/223 451/2/224
f 450/2/223 449/2/222 452/2/225
f 453/2/226 451/2/224 450/2/223
f 454/2/227 452/2/225 449/2/222
f 451/2/224 453/2/226 455/2/228
f 452/2/225 454/2/227 456/2/229
f 457/2/230 455/2/228 453/2/226
f 458/2/231 456/2/229 454/2/227
f 457/2/230 453/2/226 459/2/232
f 456/2/229 458/2/231 460/2/233
f 461/2/234 457/2/230 459/2/232
f 458/2/231 461/2/234 460/2/233
f 457/2/230 461/2/234 462/2/235
f 458/2/231 462/2/235 461/2/234
f 463/2/236 464/2/237 465/2/238
f 464/2/237 466/2/239 465/2/238
f 463/2/236 465/2/238 467/2/240
f 466/2/239 464/2/237 468/2/241
f 469/2/242 463/2/236 467/2/240
f 470/2/243 466/2/239 468/2/241
f 463/2/236 469/2/242 471/2/244
f 470/2/243 468/2/241 472/2/245
f 469/2/242 473/2/246 471/2/244
f 474/2/247 470/2/243 472/2/245
f 469/2/242 475/2/248 473/2/246
f 474/2/247 473/2/246 475/2/248
f 473/2/246 474/2/247 476/2/249
f 474/2/247 472/2/245 476/2/249
f 477/2/155 478/2/155 479/2/155
f 479/2/155 478/2/155 480/2/155
f 477/2/155 481/2/155 478/2/155
f 479/2/155 482/2/155 477/2/155
f 481/2/155 477/2/155 483/2/155
f 482/2/155 479/2/155 484/2/155
f 485/2/155 481/2/155 483/2/155
f 482/2/155 484/2/155 486/2/155
f 483/2/155 487/2/155 485/2/155
f 488/2/155 486/2/155 484/2/155
f 489/2/155 486/2/155 488/2/155
f 487/2/155 490/2/155 485/2/155
f 491/2/155 490/2/155 487/2/155
f 489/2/155 492/2/155 491/2/155
f 490/2/155 491/2/155 492/2/155
f 488/2/155 493/2/155 489/2/155
f 492/2/155 489/2/155 493/2/155
f 488/2/155 494/2/155 493/2/155
f 490/2/155 492/2/155 495/2/155
f 494/2/155 496/2/155 493/2/155
f 497/2/155 490/2/155 495/2/155
f 496/2/155 494/2/155 498/2/155
f 497/2/155 495/2/155 499/2/155
f 498/2/155 500/2/155 496/2/155
f 501/2/155 497/2/155 499/2/155
f 498/2/155 502/2/155 500/2/155
f 502/2/155 501/2/155 500/2/155
f 497/2/155 501/2/155 503/2/155
f 501/2/155 502/2/155 503/2/155
f 504/2/160 505/2/160 506/2/160
f 505/2/160 507/2/160 506/2/160
f 507/2/160 505/2/160 508/2/160
f 509/2/160 507/2/160 508/2/160
f 505/2/160 504/2/160 510/2/160
f 508/2/160 511/2/160 509/2/160
f 506/2/160 512/2/160 504/2/160
f 510/2/160 504/2/160 513/2/160
f 513/2/160 514/2/160 510/2/160
f 514/2/160 513/2/160 515/2/160
f 514/2/160 515/2/160 516/2/160
f 517/2/160 516/2/160 515/2/160
f 516/2/160 517/2/160 518/2/160
f 519/2/160 518/2/160 517/2/160
f 519/2/160 517/2/160 520/2/160
f 521/2/160 519/2/160 520/2/160
f 519/2/160 521/2/160 522/2/160
f 522/2/160 521/2/160 512/2/160
f 523/2/160 512/2/160 506/2/160
f 512/2/160 523/2/160 522/2/160
f 524/2/160 522/2/160 523/2/160
f 525/2/160 524/2/160 523/2/160
f 524/2/160 525/2/160 526/2/160
f 527/2/160 526/2/160 525/2/160
f 526/2/160 527/2/160 528/2/160
f 527/2/160 511/2/160 528/2/160
f 528/2/160 511/2/160 529/2/160
f 511/2/160 527/2/160 509/2/160
f 530/2/250 531/2/251 532/2/252
f 530/2/250 532/2/252 533/2/253
f 531/2/251 534/2/254 532/2/252
f 535/2/255 530/2/250 533/2/253
f 534/2/254 531/2/251 536/2/256
f 530/2/250 535/2/255 537/2/257
f 538/2/258 534/2/254 536/2/256
f 539/2/259 537/2/257 535/2/255
f 534/2/254 538/2/258 540/2/260
f 537/2/257 539/2/259 541/2/261
f 542/2/262 540/2/260 538/2/258
f 539/2/259 543/2/263 541/2/261
f 540/2/260 542/2/262 544/2/264
f 539/2/259 545/2/265 543/2/263
f 542/2/262 543/2/263 545/2/265
f 542/2/262 545/2/265 544/2/264
f 546/2/266 547/2/267 548/2/268
f 549/2/269 548/2/268 547/2/267
f 547/2/267 546/2/266 550/2/270
f 549/2/269 547/2/267 551/2/271
f 552/2/272 550/2/270 546/2/266
f 551/2/271 553/2/273 549/2/269
f 550/2/270 552/2/272 554/2/274
f 553/2/273 551/2/271 555/2/275
f 552/2/272 556/2/276 554/2/274
f 557/2/277 553/2/273 555/2/275
f 552/2/272 558/2/278 556/2/276
f 553/2/273 557/2/277 559/2/279
f 558/2/278 560/2/280 556/2/276
f 560/2/280 559/2/279 557/2/277
f 560/2/280 558/2/278 561/2/281
f 559/2/279 560/2/280 561/2/281
f 562/2/282 563/2/283 564/2/284
f 564/2/284 565/2/285 562/2/282
f 566/2/286 564/2/284 563/2/283
f 565/2/285 564/2/284 567/2/287
f 563/2/283 568/2/288 566/2/286
f 569/2/289 565/2/285 567/2/287
f 568/2/288 563/2/283 570/2/290
f 565/2/285 569/2/289 571/2/291
f 572/2/292 568/2/288 570/2/290
f 573/2/293 571/2/291 569/2/289
f 568/2/288 572/2/292 574/2/294
f 571/2/291 573/2/293 575/2/295
f 572/2/292 576/2/296 574/2/294
f 576/2/296 575/2/295 573/2/293
f 576/2/296 572/2/292 577/2/297
f 575/2/295 576/2/296 577/2/297
f 578/2/298 579/2/299 580/2/300
f 578/2/298 580/2/300 581/2/301
f 579/2/299 578/2/298 582/2/302
f 583/2/303 578/2/298 581/2/301
f 582/2/302 584/2/304 579/2/299
f 581/2/301 585/2/305 583/2/303
f 584/2/304 582/2/302 586/2/306
f 585/2/305 581/2/301 587/2/307
f 586/2/306 588/2/308 584/2/304
f 589/2/309 585/2/305 587/2/307
f 588/2/308 586/2/306 590/2/310
f 591/2/311 585/2/305 589/2/309
f 590/2/310 592/2/312 588/2/308
f 589/2/309 592/2/312 591/2/311
f 588/2/308 592/2/312 593/2/313
f 592/2/312 589/2/309 593/2/313
f 594/2/314 595/2/315 596/2/316
f 595/2/315 597/2/317 596/2/316
f 595/2/315 594/2/314 598/2/318
f 595/2/315 599/2/319 597/2/317
f 600/2/320 598/2/318 594/2/314
f 601/2/321 597/2/317 599/2/319
f 598/2/318 600/2/320 602/2/322
f 601/2/321 599/2/319 603/2/323
f 604/2/324 602/2/322 600/2/320
f 603/2/323 605/2/325 601/2/321
f 604/2/324 600/2/320 605/2/325
f 603/2/323 604/2/324 605/2/325
f 606/2/326 607/2/327 608/2/328
f 608/2/328 607/2/327 609/2/329
f 607/2/327 606/2/326 610/2/330
f 611/2/331 608/2/328 609/2/329
f 612/2/332 610/2/330 606/2/326
f 608/2/328 611/2/331 613/2/333
f 606/2/326 614/2/334 612/2/332
f 615/2/335 613/2/333 611/2/331
f 616/2/336 612/2/332 614/2/334
f 613/2/333 615/2/335 617/2/337
f 612/2/332 616/2/336 618/2/338
f 618/2/338 617/2/337 615/2/335
f 617/2/337 618/2/338 616/2/336
f 619/2/339 620/2/340 621/2/341
f 620/2/340 619/2/339 622/2/342
f 621/2/341 623/2/343 619/2/339
f 622/2/342 624/2/340 620/2/340
f 623/2/343 621/2/341 625/2/344
f 620/2/340 624/2/340 626/2/342
f 625/2/344 627/2/345 623/2/343
f 624/2/340 628/2/346 626/2/342
f 627/2/345 625/2/344 629/2/347
f 628/2/346 624/2/340 630/2/348
f 629/2/347 631/2/349 627/2/345
f 630/2/348 632/2/348 628/2/346
f 633/2/350 627/2/345 631/2/349
f 632/2/348 630/2/348 634/2/346
f 631/2/349 635/2/351 633/2/350
f 634/2/346 636/2/352 632/2/348
f 635/2/351 631/2/349 637/2/353
f 632/2/348 636/2/352 638/2/354
f 637/2/353 639/2/351 635/2/351
f 636/2/352 640/2/355 638/2/354
f 639/2/351 641/2/353 635/2/351
f 640/2/355 636/2/352 642/2/356
f 643/2/357 641/2/353 639/2/351
f 642/2/356 644/2/358 640/2/355
f 644/2/358 641/2/353 643/2/357
f 640/2/355 644/2/358 643/2/357
f 645/2/359 646/2/360 647/2/361
f 647/2/361 648/2/361 645/2/359
f 647/2/361 646/2/360 649/2/362
f 648/2/361 647/2/361 650/2/359
f 649/2/362 646/2/360 651/2/363
f 652/2/364 648/2/361 650/2/359
f 653/2/365 649/2/362 651/2/363
f 648/2/361 652/2/364 654/2/366
f 651/2/363 655/2/367 653/2/365
f 652/2/364 656/2/366 654/2/366
f 653/2/365 655/2/367 657/2/368
f 656/2/366 658/2/369 654/2/366
f 655/2/367 659/2/370 657/2/368
f 656/2/366 660/2/371 658/2/369
f 659/2/370 655/2/367 661/2/372
f 660/2/371 656/2/366 662/2/373
f 661/2/372 663/2/374 659/2/370
f 664/2/375 660/2/371 662/2/373
f 665/2/376 659/2/370 663/2/374
f 666/2/377 660/2/371 664/2/375
f 663/2/374 667/2/374 665/2/376
f 664/2/375 668/2/378 666/2/377
f 667/2/374 663/2/374 669/2/376
f 668/2/378 664/2/375 670/2/379
f 669/2/376 670/2/379 667/2/374
f 670/2/379 669/2/376 668/2/378
f 671/2/380 672/2/381 673/2/382
f 674/2/383 671/2/380 673/2/382
f 672/2/381 671/2/380 675/2/384
f 676/2/385 671/2/380 674/2/383
f 675/2/384 677/2/386 672/2/381
f 674/2/383 678/2/387 676/2/385
f 672/2/381 677/2/386 679/2/388
f 676/2/385 678/2/387 680/2/389
f 677/2/386 681/2/390 679/2/388
f 682/2/391 680/2/389 678/2/387
f 679/2/388 681/2/390 683/2/392
f 681/2/390 682/2/391 683/2/392
f 684/2/393 680/2/389 682/2/391
f 682/2/391 681/2/390 684/2/393
f 685/2/394 686/2/395 687/2/396
f 686/2/395 685/2/394 688/2/397
f 687/2/396 689/2/398 685/2/394
f 690/2/399 686/2/395 688/2/397
f 689/2/398 687/2/396 691/2/400
f 692/2/401 686/2/395 690/2/399
f 691/2/400 693/2/402 689/2/398
f 690/2/399 694/2/403 692/2/401
f 689/2/398 693/2/402 695/2/404
f 694/2/403 690/2/399 696/2/405
f 693/2/402 697/2/406 695/2/404
f 696/2/405 698/2/407 694/2/403
f 697/2/406 693/2/402 698/2/407
f 698/2/407 696/2/405 697/2/406
f 699/2/408 700/2/409 701/2/410
f 700/2/409 699/2/408 702/2/409
f 699/2/408 701/2/410 703/2/411
f 699/2/408 703/2/411 704/2/411
f 705/2/412 706/2/413 707/2/414
f 708/2/414 707/2/414 706/2/413
f 705/2/412 709/2/415 706/2/413
f 709/2/415 705/2/412 710/2/415
f 711/2/155 712/2/155 713/2/155
f 711/2/155 713/2/155 714/2/155
f 713/2/155 715/2/155 714/2/155
f 715/2/155 713/2/155 716/2/155
f 712/2/155 711/2/155 717/2/155
f 717/2/155 718/2/155 712/2/155
f 719/2/155 718/2/155 717/2/155
f 718/2/155 719/2/155 720/2/155
f 717/2/155 711/2/155 721/2/155
f 722/2/155 721/2/155 711/2/155
f 723/2/155 721/2/155 722/2/155
f 723/2/155 722/2/155 724/2/155
f 725/2/160 726/2/160 727/2/160
f 727/2/160 726/2/160 728/2/160
f 726/2/160 729/2/160 728/2/160
f 730/2/160 728/2/160 729/2/160
f 725/2/160 727/2/160 731/2/160
f 731/2/160 727/2/160 732/2/160
f 731/2/160 733/2/160 725/2/160
f 733/2/160 734/2/160 725/2/160
f 734/2/160 733/2/160 735/2/160
f 731/2/160 732/2/160 736/2/160
f 732/2/160 737/2/160 736/2/160
f 737/2/160 732/2/160 738/2/160
f 739/2/156 740/2/150 741/2/156
f 740/2/150 739/2/156 742/2/150
f 741/2/156 743/2/160 739/2/156
f 742/2/150 744/2/152 740/2/150
f 743/2/160 741/2/156 745/2/160
f 744/2/152 742/2/150 746/2/152
f 745/2/160 747/2/162 743/2/160
f 746/2/152 748/2/155 744/2/152
f 747/2/162 745/2/160 749/2/162
f 748/2/155 746/2/152 750/2/155
f 747/2/162 749/2/162 751/2/163
f 750/2/155 752/2/158 748/2/155
f 753/2/163 751/2/163 749/2/162
f 752/2/158 750/2/155 754/2/158
f 751/2/163 753/2/163 754/2/158
f 752/2/158 754/2/158 753/2/163
f 755/2/416 756/2/417 757/2/417
f 756/2/417 755/2/416 758/2/418
f 757/2/417 759/2/419 755/2/416
f 756/2/417 758/2/418 760/2/420
f 757/2/417 761/2/419 759/2/419
f 760/2/420 758/2/418 762/2/421
f 761/2/419 763/2/422 759/2/419
f 762/2/421 764/2/423 760/2/420
f 763/2/422 761/2/419 765/2/424
f 764/2/423 762/2/421 766/2/423
f 765/2/424 767/2/425 763/2/422
f 768/2/426 764/2/423 766/2/423
f 769/2/425 767/2/425 765/2/424
f 764/2/423 768/2/426 770/2/427
f 769/2/425 771/2/428 767/2/425
f 770/2/427 768/2/426 772/2/429
f 769/2/425 773/2/430 771/2/428
f 772/2/429 768/2/426 774/2/429
f 773/2/430 775/2/428 771/2/428
f 772/2/429 774/2/429 776/2/431
f 775/2/428 773/2/430 777/2/428
f 776/2/431 774/2/429 778/2/431
f 777/2/428 779/2/432 775/2/428
f 779/2/432 776/2/431 778/2/431
f 777/2/428 780/2/433 779/2/432
f 776/2/431 779/2/432 780/2/433
f 781/2/434 782/2/435 783/2/436
f 782/2/435 781/2/434 784/2/437
f 783/2/436 785/2/438 781/2/434
f 786/2/439 782/2/435 784/2/437
f 787/2/440 785/2/438 783/2/436
f 782/2/435 786/2/439 788/2/441
f 789/2/442 785/2/438 787/2/440
f 790/2/443 788/2/441 786/2/439
f 785/2/438 789/2/442 791/2/442
f 790/2/443 786/2/439 792/2/444
f 789/2/442 792/2/444 791/2/442
f 790/2/443 792/2/444 789/2/442
f 793/2/445 794/2/445 795/2/446
f 794/2/445 793/2/445 796/2/445
f 796/2/445 793/2/445 797/2/445
f 798/2/445 795/2/446 794/2/445
f 799/2/139 800/2/139 795/2/446
f 795/2/446 801/2/446 799/2/139
f 801/2/446 795/2/446 798/2/445
f 798/2/445 802/2/445 801/2/446
f 803/2/445 802/2/445 798/2/445
f 802/2/445 803/2/445 804/2/445
f 805/2/181 806/2/447 807/2/448
f 806/2/447 805/2/181 808/2/181
f 807/2/448 806/2/447 809/2/150
f 809/2/150 806/2/447 810/2/150
f 809/2/150 810/2/150 811/2/449
f 811/2/449 810/2/150 812/2/449
f 811/2/449 812/2/449 813/2/139
f 814/2/139 811/2/449 813/2/139
f 815/2/450 816/2/451 817/2/451
f 818/2/452 817/2/451 816/2/451
f 817/2/451 819/2/450 815/2/450
f 817/2/451 818/2/452 820/2/452
f 821/2/453 815/2/450 819/2/450
f 818/2/452 822/2/454 820/2/452
f 815/2/450 821/2/453 823/2/453
f 818/2/452 824/2/454 822/2/454
f 825/2/455 823/2/453 821/2/453
f 826/2/456 822/2/454 824/2/454
f 825/2/455 821/2/453 827/2/455
f 822/2/454 826/2/456 828/2/456
f 829/2/457 825/2/455 827/2/455
f 826/2/456 829/2/457 828/2/456
f 825/2/455 829/2/457 830/2/457
f 826/2/456 830/2/457 829/2/457
f 831/2/181 832/2/181 833/2/181
f 831/2/181 833/2/181 834/2/181
f 835/2/181 836/2/458 837/2/458
f 836/2/458 835/2/181 838/2/181
f 836/2/458 839/2/459 837/2/458
f 840/2/459 837/2/458 839/2/459
f 841/2/156 842/2/150 843/2/150
f 842/2/150 841/2/156 844/2/156
f 845/2/152 843/2/150 842/2/150
f 841/2/156 846/2/160 844/2/156
f 843/2/150 845/2/152 847/2/152
f 846/2/160 841/2/156 848/2/160
f 845/2/152 849/2/155 847/2/152
f 848/2/160 850/2/162 846/2/160
f 849/2/155 845/2/152 851/2/155
f 850/2/162 848/2/160 852/2/162
f 851/2/155 853/2/158 849/2/155
f 850/2/162 852/2/162 854/2/163
f 853/2/158 851/2/155 855/2/158
f 856/2/163 854/2/163 852/2/162
f 853/2/158 855/2/158 856/2/163
f 854/2/163 856/2/163 855/2/158
f 857/2/460 858/2/460 859/2/461
f 859/2/461 858/2/460 860/2/461
f 857/2/460 861/2/462 858/2/460
f 859/2/461 860/2/461 862/2/463
f 861/2/462 857/2/460 863/2/462
f 862/2/463 860/2/461 864/2/464
f 863/2/462 865/2/465 861/2/462
f 862/2/463 864/2/464 866/2/466
f 867/2/465 865/2/465 863/2/462
f 866/2/466 864/2/464 868/2/467
f 867/2/465 869/2/468 865/2/465
f 866/2/466 868/2/467 870/2/468
f 870/2/468 869/2/468 867/2/465
f 870/2/468 868/2/467 869/2/468
