# Blender 5.2.0 LTS
# www.blender.org
mtllib tec9 mag.mtl
o tec9_mag
v -0.787363 -0.990839 -0.070499
v -0.779863 -0.991259 -0.072999
v -0.560061 -1.003619 -0.072999
v -0.560061 -1.003619 -0.072999
v -0.552561 -1.004039 -0.070499
v -0.787363 -0.990839 -0.070499
v -0.789865 -0.990699 -0.063100
v -0.787363 -0.990839 -0.070499
v -0.552561 -1.004039 -0.070499
v -0.552561 -1.004039 -0.070499
v -0.550066 -1.004179 -0.063100
v -0.789865 -0.990699 -0.063100
v -0.789865 -0.990699 0.000001
v -0.789865 -0.990699 -0.063100
v -0.550066 -1.004179 -0.063100
v -0.550066 -1.004179 -0.063100
v -0.550066 -1.004179 0.000001
v -0.789865 -0.990699 0.000001
v -0.789865 -0.990699 0.000001
v -0.550066 -1.004179 0.000001
v -0.550066 -1.004179 0.063001
v -0.550066 -1.004179 0.063001
v -0.789865 -0.990699 0.063001
v -0.789865 -0.990699 0.000001
v -0.789865 -0.990699 0.063001
v -0.550066 -1.004179 0.063001
v -0.552561 -1.004039 0.070500
v -0.552561 -1.004039 0.070500
v -0.787363 -0.990839 0.070500
v -0.789865 -0.990699 0.063001
v -0.787363 -0.990839 0.070500
v -0.552561 -1.004039 0.070500
v -0.560061 -1.003619 0.073001
v -0.560061 -1.003619 0.073001
v -0.779863 -0.991259 0.073001
v -0.787363 -0.990839 0.070500
v -0.638063 0.264961 -0.057099
v -0.638063 0.264961 -0.047099
v -0.579462 0.259291 -0.047099
v -0.579462 0.259291 -0.047099
v -0.579462 0.259291 -0.057099
v -0.638063 0.264961 -0.057099
v -0.638063 0.264961 0.057100
v -0.579462 0.259291 0.057100
v -0.579462 0.259291 0.047101
v -0.579462 0.259291 0.047101
v -0.638063 0.264961 0.047101
v -0.638063 0.264961 0.057100
v -0.572062 0.258831 -0.054600
v -0.579462 0.259291 -0.057099
v -0.579462 0.259291 -0.047099
v -0.569567 0.258671 -0.047099
v -0.569567 0.258671 0.000001
v -0.569567 0.258671 -0.047099
v -0.579462 0.259291 -0.047099
v -0.579462 0.259291 -0.047099
v -0.579462 0.259291 0.000001
v -0.569567 0.258671 0.000001
v -0.760462 0.270621 -0.047099
v -0.770464 0.271251 0.000001
v -0.760462 0.270621 0.000001
v -0.760462 0.270621 -0.047099
v -0.770464 0.271251 -0.047099
v -0.770464 0.271251 0.000001
v -0.767962 0.271091 -0.054600
v -0.770464 0.271251 -0.047099
v -0.760462 0.270621 -0.047099
v -0.760462 0.270621 -0.047099
v -0.760462 0.270621 -0.057099
v -0.767962 0.271091 -0.054600
v -0.569567 0.258671 0.000001
v -0.579462 0.259291 0.000001
v -0.579462 0.259291 0.047101
v -0.579462 0.259291 0.047101
v -0.569567 0.258671 0.047101
v -0.569567 0.258671 0.000001
v -0.572062 0.258831 0.054601
v -0.569567 0.258671 0.047101
v -0.579462 0.259291 0.047101
v -0.579462 0.259291 0.057100
v -0.767962 0.271091 0.054601
v -0.760462 0.270621 0.057100
v -0.760462 0.270621 0.047101
v -0.760462 0.270621 0.047101
v -0.770464 0.271251 0.047101
v -0.767962 0.271091 0.054601
v -0.760462 0.270621 0.047101
v -0.770464 0.271251 0.000001
v -0.770464 0.271251 0.047101
v -0.760462 0.270621 0.047101
v -0.760462 0.270621 0.000001
v -0.770464 0.271251 0.000001
v -0.760462 0.242471 0.000001
v -0.579462 0.242471 0.000001
v -0.579462 0.242471 -0.047099
v -0.760462 0.242471 -0.047099
v -0.760462 0.242471 0.000001
v -0.760462 0.242471 0.047101
v -0.579462 0.242471 0.047101
v -0.579462 0.242471 0.000001
v -0.659662 0.295951 -0.042999
v -0.654764 0.288901 -0.051100
v -0.760462 0.288901 -0.051100
v -0.760462 0.288901 -0.051100
v -0.760462 0.295951 -0.042999
v -0.659662 0.295951 -0.042999
v -0.659662 0.295951 0.043000
v -0.760462 0.295951 0.043000
v -0.760462 0.288901 0.051101
v -0.760462 0.288901 0.051101
v -0.654764 0.288901 0.051101
v -0.659662 0.295951 0.043000
v -0.638063 0.264961 -0.057099
v -0.642160 0.270621 -0.057099
v -0.642160 0.270621 -0.047099
v -0.642160 0.270621 -0.047099
v -0.638063 0.264961 -0.047099
v -0.638063 0.264961 -0.057099
v -0.638063 0.264961 0.057100
v -0.638063 0.264961 0.047101
v -0.642160 0.270621 0.047101
v -0.642160 0.270621 0.047101
v -0.642160 0.270621 0.057100
v -0.638063 0.264961 0.057100
v -0.654764 0.288901 -0.051100
v -0.659662 0.295951 -0.042999
v -0.654062 0.287811 -0.037000
v -0.654062 0.287811 -0.037000
v -0.649965 0.281981 -0.043599
v -0.654764 0.288901 -0.051100
v -0.654764 0.288901 -0.051100
v -0.649965 0.281981 -0.043599
v -0.645662 0.275681 -0.046299
v -0.645662 0.275681 -0.046299
v -0.648661 0.280001 -0.056000
v -0.654764 0.288901 -0.051100
v -0.642160 0.270621 -0.057099
v -0.648661 0.280001 -0.056000
v -0.645662 0.275681 -0.046299
v -0.645662 0.275681 -0.046299
v -0.642160 0.270621 -0.047099
v -0.642160 0.270621 -0.057099
v -0.642160 0.270621 0.057100
v -0.642160 0.270621 0.047101
v -0.645662 0.275681 0.046301
v -0.645662 0.275681 0.046301
v -0.648661 0.280001 0.056001
v -0.642160 0.270621 0.057100
v -0.654764 0.288901 0.051101
v -0.648661 0.280001 0.056001
v -0.645662 0.275681 0.046301
v -0.645662 0.275681 0.046301
v -0.649965 0.281981 0.043601
v -0.654764 0.288901 0.051101
v -0.654764 0.288901 0.051101
v -0.649965 0.281981 0.043601
v -0.654062 0.287811 0.037001
v -0.654062 0.287811 0.037001
v -0.659662 0.295951 0.043000
v -0.654764 0.288901 0.051101
v -0.654764 0.288901 -0.051100
v -0.648661 0.280001 -0.056000
v -0.760462 0.280001 -0.056000
v -0.760462 0.280001 -0.056000
v -0.760462 0.288901 -0.051100
v -0.654764 0.288901 -0.051100
v -0.654764 0.288901 0.051101
v -0.760462 0.288901 0.051101
v -0.760462 0.280001 0.056001
v -0.760462 0.280001 0.056001
v -0.648661 0.280001 0.056001
v -0.654764 0.288901 0.051101
v -0.659662 0.295951 -0.042999
v -0.760462 0.295951 -0.042999
v -0.760462 0.287811 -0.037000
v -0.760462 0.287811 -0.037000
v -0.654062 0.287811 -0.037000
v -0.659662 0.295951 -0.042999
v -0.659662 0.295951 0.043000
v -0.654062 0.287811 0.037001
v -0.760462 0.287811 0.037001
v -0.760462 0.287811 0.037001
v -0.760462 0.295951 0.043000
v -0.659662 0.295951 0.043000
v -0.552561 -1.004039 0.070500
v -0.550066 -1.004179 0.063001
v -0.550066 -0.976829 0.063001
v -0.550066 -0.976829 0.063001
v -0.552561 -0.976689 0.070500
v -0.552561 -1.004039 0.070500
v -0.552561 -1.004039 -0.070499
v -0.552561 -0.976689 -0.070499
v -0.550066 -0.976829 -0.063100
v -0.550066 -0.976829 -0.063100
v -0.550066 -1.004179 -0.063100
v -0.552561 -1.004039 -0.070499
v -0.789865 -0.990699 0.063001
v -0.787363 -0.990839 0.070500
v -0.787363 -0.963489 0.070500
v -0.787363 -0.963489 0.070500
v -0.789865 -0.963349 0.063001
v -0.789865 -0.990699 0.063001
v -0.787363 -0.963489 -0.070499
v -0.789865 -0.990699 -0.063100
v -0.789865 -0.963349 -0.063100
v -0.789865 -0.990699 -0.063100
v -0.787363 -0.963489 -0.070499
v -0.787363 -0.990839 -0.070499
v -0.550066 -1.004179 0.063001
v -0.550066 -1.004179 0.000001
v -0.550066 -0.976829 0.000001
v -0.550066 -0.976829 0.000001
v -0.550066 -0.976829 0.063001
v -0.550066 -1.004179 0.063001
v -0.550066 -1.004179 -0.063100
v -0.550066 -0.976829 -0.063100
v -0.550066 -0.976829 0.000001
v -0.550066 -0.976829 0.000001
v -0.550066 -1.004179 0.000001
v -0.550066 -1.004179 -0.063100
v -0.569567 0.258671 -0.047099
v -0.569567 0.241871 -0.047099
v -0.572062 0.242091 -0.054600
v -0.572062 0.242091 -0.054600
v -0.572062 0.258831 -0.054600
v -0.569567 0.258671 -0.047099
v -0.572062 0.242091 0.054601
v -0.569567 0.241871 0.047101
v -0.569567 0.258671 0.047101
v -0.569567 0.258671 0.047101
v -0.572062 0.258831 0.054601
v -0.572062 0.242091 0.054601
v -0.789865 -0.963349 0.063001
v -0.789865 -0.990699 0.000001
v -0.789865 -0.990699 0.063001
v -0.789865 -0.963349 0.063001
v -0.789865 -0.963349 0.000001
v -0.789865 -0.990699 0.000001
v -0.789865 -0.963349 -0.063100
v -0.789865 -0.990699 0.000001
v -0.789865 -0.963349 0.000001
v -0.789865 -0.963349 -0.063100
v -0.789865 -0.990699 -0.063100
v -0.789865 -0.990699 0.000001
v -0.760462 0.270621 -0.057099
v -0.760462 0.280001 -0.056000
v -0.648661 0.280001 -0.056000
v -0.648661 0.280001 0.056001
v -0.760462 0.280001 0.056001
v -0.760462 0.270621 0.057100
v -0.569567 0.258671 0.000001
v -0.569567 0.241871 0.000001
v -0.569567 0.241871 -0.047099
v -0.569567 0.241871 -0.047099
v -0.569567 0.258671 -0.047099
v -0.569567 0.258671 0.000001
v -0.569567 0.241871 0.047101
v -0.569567 0.241871 0.000001
v -0.569567 0.258671 0.000001
v -0.569567 0.258671 0.000001
v -0.569567 0.258671 0.047101
v -0.569567 0.241871 0.047101
v -0.648661 0.280001 -0.056000
v -0.642160 0.270621 -0.057099
v -0.760462 0.270621 -0.057099
v -0.767962 0.242461 -0.054600
v -0.767962 0.271091 -0.054600
v -0.770464 0.242461 -0.047099
v -0.770464 0.242461 -0.047099
v -0.770464 0.271251 -0.047099
v -0.767962 0.271091 -0.054600
v -0.760462 0.270621 0.057100
v -0.767962 0.271091 0.054601
v -0.767962 0.242461 0.054601
v -0.770464 0.242461 0.047101
v -0.642160 0.270621 0.057100
v -0.648661 0.280001 0.056001
v -0.767962 0.271091 0.054601
v -0.770464 0.271251 0.047101
v -0.770464 0.242461 0.047101
v -0.779863 -0.963909 0.073001
v -0.787363 -0.963489 0.070500
v -0.787363 -0.990839 0.070500
v -0.779863 -0.963909 -0.072999
v -0.787363 -0.990839 -0.070499
v -0.787363 -0.963489 -0.070499
v -0.770464 0.271251 -0.047099
v -0.770464 0.242461 -0.047099
v -0.770464 0.242461 0.000001
v -0.770464 0.242461 0.000001
v -0.770464 0.271251 0.000001
v -0.770464 0.271251 -0.047099
v -0.770464 0.242461 0.000001
v -0.770464 0.242461 0.047101
v -0.770464 0.271251 0.047101
v -0.770464 0.271251 0.047101
v -0.770464 0.271251 0.000001
v -0.770464 0.242461 0.000001
v -0.572062 0.258831 -0.054600
v -0.572062 0.242091 -0.054600
v -0.579462 0.242461 -0.057099
v -0.579462 0.242461 -0.057099
v -0.579462 0.259291 -0.057099
v -0.572062 0.258831 -0.054600
v -0.579462 0.242461 0.057100
v -0.572062 0.242091 0.054601
v -0.572062 0.258831 0.054601
v -0.572062 0.258831 0.054601
v -0.579462 0.259291 0.057100
v -0.579462 0.242461 0.057100
v -0.760462 0.280001 -0.056000
v -0.760462 0.270621 -0.057099
v -0.760462 0.270621 -0.047099
v -0.760462 0.270621 -0.047099
v -0.760462 0.275681 -0.046299
v -0.760462 0.280001 -0.056000
v -0.760462 0.280001 -0.056000
v -0.760462 0.275681 -0.046299
v -0.760462 0.281981 -0.043599
v -0.760462 0.281981 -0.043599
v -0.760462 0.288901 -0.051100
v -0.760462 0.280001 -0.056000
v -0.760462 0.295951 -0.042999
v -0.760462 0.288901 -0.051100
v -0.760462 0.281981 -0.043599
v -0.760462 0.281981 -0.043599
v -0.760462 0.287811 -0.037000
v -0.760462 0.295951 -0.042999
v -0.760462 0.295951 0.043000
v -0.760462 0.287811 0.037001
v -0.760462 0.281981 0.043601
v -0.760462 0.281981 0.043601
v -0.760462 0.288901 0.051101
v -0.760462 0.295951 0.043000
v -0.760462 0.280001 0.056001
v -0.760462 0.288901 0.051101
v -0.760462 0.281981 0.043601
v -0.760462 0.281981 0.043601
v -0.760462 0.275681 0.046301
v -0.760462 0.280001 0.056001
v -0.760462 0.280001 0.056001
v -0.760462 0.275681 0.046301
v -0.760462 0.270621 0.047101
v -0.760462 0.270621 0.047101
v -0.760462 0.270621 0.057100
v -0.760462 0.280001 0.056001
v -0.560061 -1.003619 0.073001
v -0.552561 -1.004039 0.070500
v -0.552561 -0.976689 0.070500
v -0.560061 -0.976269 0.073001
v -0.560061 -1.003619 0.073001
v -0.779863 -0.991259 0.073001
v -0.779863 -0.963909 0.073001
v -0.787363 -0.990839 0.070500
v -0.787363 -0.990839 -0.070499
v -0.779863 -0.963909 -0.072999
v -0.779863 -0.991259 -0.072999
v -0.560061 -0.976269 -0.072999
v -0.560061 -1.003619 -0.072999
v -0.552561 -0.976689 -0.070499
v -0.552561 -1.004039 -0.070499
v -0.560061 -1.003619 -0.072999
v -0.760462 0.242461 -0.057099
v -0.760462 0.270621 -0.057099
v -0.638063 0.264961 -0.057099
v -0.767962 0.242461 -0.054600
v -0.638063 0.264961 0.057100
v -0.760462 0.270621 0.057100
v -0.760462 0.242461 0.057100
v -0.767962 0.242461 0.054601
v -0.760462 0.270621 -0.057099
v -0.642160 0.270621 -0.057099
v -0.638063 0.264961 -0.057099
v -0.579462 0.242461 -0.057099
v -0.638063 0.264961 -0.057099
v -0.579462 0.259291 -0.057099
v -0.638063 0.264961 -0.057099
v -0.579462 0.242461 -0.057099
v -0.760462 0.242461 -0.057099
v -0.579462 0.242461 0.057100
v -0.579462 0.259291 0.057100
v -0.638063 0.264961 0.057100
v -0.760462 0.242461 0.057100
v -0.579462 0.242461 0.057100
v -0.638063 0.264961 0.057100
v -0.760462 0.270621 0.057100
v -0.638063 0.264961 0.057100
v -0.642160 0.270621 0.057100
v -0.770464 -0.964739 0.000001
v -0.770464 0.242461 0.000001
v -0.770464 0.242461 -0.047099
v -0.770464 -0.964739 -0.047099
v -0.767962 0.242461 -0.054600
v -0.767962 -0.965019 -0.054600
v -0.760462 0.242461 -0.057099
v -0.760462 -0.965299 -0.057099
v -0.579462 0.242461 -0.057099
v -0.579462 -0.975479 -0.057099
v -0.572062 -0.975759 -0.054600
v -0.572062 0.242091 -0.054600
v -0.569567 -0.976039 -0.047099
v -0.569567 0.241871 -0.047099
v -0.569567 0.241871 0.000001
v -0.569567 -0.976039 0.000001
v -0.569567 -0.976039 0.047101
v -0.569567 -0.976039 0.000001
v -0.569567 0.241871 0.000001
v -0.569567 0.241871 0.047101
v -0.572062 0.242091 0.054601
v -0.572062 -0.975759 0.054601
v -0.579462 0.242461 0.057100
v -0.579462 -0.975479 0.057100
v -0.760462 -0.965299 0.057100
v -0.760462 0.242461 0.057100
v -0.767962 -0.965019 0.054601
v -0.767962 0.242461 0.054601
v -0.770464 -0.964739 0.047101
v -0.770464 0.242461 0.047101
v -0.770464 -0.964739 0.000001
v -0.770464 0.242461 0.000001
v -0.760462 0.270621 0.000001
v -0.760462 0.242471 0.000001
v -0.760462 0.242471 -0.047099
v -0.760462 0.270621 -0.047099
v -0.760462 0.270621 0.000001
v -0.760462 0.270621 0.047101
v -0.760462 0.242471 0.047101
v -0.760462 0.242471 0.000001
v -0.579462 0.259291 -0.047099
v -0.579462 0.242471 -0.047099
v -0.579462 0.242471 0.000001
v -0.579462 0.259291 0.000001
v -0.579462 0.259291 0.047101
v -0.579462 0.259291 0.000001
v -0.579462 0.242471 0.000001
v -0.579462 0.242471 0.047101
v -0.654062 0.287811 -0.037000
v -0.760462 0.287811 -0.037000
v -0.760462 0.281981 -0.043599
v -0.649965 0.281981 -0.043599
v -0.760462 0.275681 -0.046299
v -0.645662 0.275681 -0.046299
v -0.760462 0.270621 -0.047099
v -0.642160 0.270621 -0.047099
v -0.638063 0.264961 -0.047099
v -0.760462 0.242471 -0.047099
v -0.579462 0.259291 -0.047099
v -0.579462 0.242471 -0.047099
v -0.579462 0.259291 0.047101
v -0.579462 0.242471 0.047101
v -0.760462 0.242471 0.047101
v -0.638063 0.264961 0.047101
v -0.760462 0.270621 0.047101
v -0.642160 0.270621 0.047101
v -0.645662 0.275681 0.046301
v -0.760462 0.275681 0.046301
v -0.649965 0.281981 0.043601
v -0.760462 0.281981 0.043601
v -0.654062 0.287811 0.037001
v -0.760462 0.287811 0.037001
v -0.560061 -0.976269 0.073001
v -0.552561 -0.976689 0.070500
v -0.572062 -0.975759 0.054601
v -0.789865 -0.963349 0.063001
v -0.767962 -0.965019 0.054601
v -0.770464 -0.964739 0.047101
v -0.789865 -0.963349 -0.063100
v -0.770464 -0.964739 -0.047099
v -0.767962 -0.965019 -0.054600
v -0.572062 -0.975759 -0.054600
v -0.552561 -0.976689 -0.070499
v -0.560061 -0.976269 -0.072999
v -0.572062 -0.975759 0.054601
v -0.552561 -0.976689 0.070500
v -0.550066 -0.976829 0.063001
v -0.779863 -0.963909 0.073001
v -0.560061 -0.976269 0.073001
v -0.579462 -0.975479 0.057100
v -0.579462 -0.975479 0.057100
v -0.760462 -0.965299 0.057100
v -0.779863 -0.963909 0.073001
v -0.779863 -0.963909 0.073001
v -0.760462 -0.965299 0.057100
v -0.767962 -0.965019 0.054601
v -0.787363 -0.963489 0.070500
v -0.779863 -0.963909 0.073001
v -0.767962 -0.965019 0.054601
v -0.789865 -0.963349 0.063001
v -0.787363 -0.963489 0.070500
v -0.767962 -0.965019 0.054601
v -0.789865 -0.963349 0.000001
v -0.789865 -0.963349 0.063001
v -0.770464 -0.964739 0.047101
v -0.770464 -0.964739 0.000001
v -0.789865 -0.963349 0.000001
v -0.770464 -0.964739 0.000001
v -0.770464 -0.964739 -0.047099
v -0.789865 -0.963349 -0.063100
v -0.789865 -0.963349 -0.063100
v -0.767962 -0.965019 -0.054600
v -0.787363 -0.963489 -0.070499
v -0.787363 -0.963489 -0.070499
v -0.767962 -0.965019 -0.054600
v -0.779863 -0.963909 -0.072999
v -0.779863 -0.963909 -0.072999
v -0.767962 -0.965019 -0.054600
v -0.760462 -0.965299 -0.057099
v -0.779863 -0.963909 -0.072999
v -0.760462 -0.965299 -0.057099
v -0.579462 -0.975479 -0.057099
v -0.579462 -0.975479 -0.057099
v -0.560061 -0.976269 -0.072999
v -0.779863 -0.963909 -0.072999
v -0.550066 -0.976829 -0.063100
v -0.552561 -0.976689 -0.070499
v -0.572062 -0.975759 -0.054600
v -0.550066 -0.976829 0.063001
v -0.550066 -0.976829 0.000001
v -0.569567 -0.976039 0.000001
v -0.569567 -0.976039 0.047101
v -0.550066 -0.976829 0.063001
v -0.569567 -0.976039 0.047101
v -0.572062 -0.975759 0.054601
v -0.579462 -0.975479 0.057100
v -0.560061 -0.976269 0.073001
v -0.560061 -0.976269 -0.072999
v -0.579462 -0.975479 -0.057099
v -0.572062 -0.975759 -0.054600
v -0.569567 -0.976039 -0.047099
v -0.550066 -0.976829 -0.063100
v -0.550066 -0.976829 -0.063100
v -0.569567 -0.976039 -0.047099
v -0.569567 -0.976039 0.000001
v -0.550066 -0.976829 0.000001
vn -0.0550 -0.9985 -0.0000
vn -0.0549 -0.9985 -0.0000
vn -0.0551 -0.9985 -0.0000
vn 0.1809 0.9835 -0.0000
vn 0.0629 0.9980 -0.0000
vn 0.1810 0.9835 -0.0000
vn 0.0628 0.9980 -0.0000
vn 0.0629 0.9980 -0.0001
vn 0.0630 0.9980 -0.0000
vn 0.0629 0.9980 -0.0003
vn 0.0626 0.9980 -0.0000
vn -0.0000 1.0000 -0.0000
vn -0.0000 0.7491 -0.6624
vn -0.0000 0.6286 -0.7778
vn -0.0000 0.6285 -0.7778
vn -0.0000 0.7492 -0.6624
vn -0.0000 0.7492 0.6624
vn -0.0000 0.6285 0.7778
vn -0.0000 0.6286 0.7778
vn -0.0000 0.7491 0.6624
vn 0.8185 0.5745 -0.0000
vn 0.8222 0.5692 -0.0000
vn 0.8225 0.5687 -0.0000
vn 0.8222 0.5691 0.0004
vn -0.0000 0.3068 -0.9518
vn -0.0000 0.3068 0.9518
vn -0.0000 0.5975 0.8019
vn -0.0000 0.5975 -0.8019
vn 0.7071 -0.0000 0.7071
vn 0.9992 -0.0000 0.0394
vn 0.7071 -0.0000 -0.7071
vn 0.9992 -0.0000 -0.0394
vn -0.9980 -0.0000 0.0629
vn -0.5835 -0.0000 0.8121
vn -0.8122 -0.0000 0.5834
vn -0.9999 -0.0000 0.0158
vn -0.8121 -0.0000 -0.5835
vn -0.9980 -0.0000 -0.0629
vn -0.9999 -0.0000 -0.0158
vn -0.5835 -0.0000 -0.8121
vn 0.9992 -0.0000 0.0393
vn 1.0000 -0.0000 -0.0000
vn 0.9992 -0.0000 -0.0393
vn 0.9989 -0.0000 -0.0472
vn 0.9989 -0.0000 0.0472
vn 0.9989 -0.0000 0.0473
vn -0.9999 -0.0000 0.0157
vn -1.0000 -0.0000 -0.0000
vn -0.9999 -0.0000 -0.0157
vn -0.0157 0.0237 -0.9996
vn -0.0000 0.3067 -0.9518
vn -0.0000 0.3067 0.9518
vn -0.0157 0.0237 0.9996
vn -0.0000 0.0948 -0.9955
vn -0.0157 0.0236 -0.9996
vn -0.7072 0.0001 -0.7071
vn -0.7071 -0.0000 -0.7071
vn -0.0158 0.0236 -0.9996
vn -0.9989 -0.0000 -0.0472
vn -0.9989 -0.0000 -0.0473
vn -0.0158 0.0236 0.9996
vn -0.7071 -0.0000 0.7071
vn -0.9989 -0.0000 0.0472
vn -0.0157 0.0236 0.9996
vn -0.0000 0.0948 0.9955
vn -0.9989 -0.0000 0.0473
vn -0.0079 -0.0000 1.0000
vn -0.8121 -0.0000 0.5835
vn -0.5834 -0.0000 0.8122
vn -0.0079 -0.0000 -1.0000
vn -0.5834 -0.0000 -0.8122
vn 0.0158 -0.0000 -0.9999
vn 0.0707 -0.0000 -0.9975
vn 0.0158 -0.0000 0.9999
vn 0.0707 -0.0000 0.9975
vn -1.0000 0.0001 -0.0000
vn 0.0079 -0.0000 1.0000
vn 0.0079 -0.0000 -1.0000
vn -0.0158 -0.0000 -0.9999
vn -0.0000 -0.0000 -1.0000
vn -0.0000 -0.0000 1.0000
vn -0.0158 -0.0000 0.9999
vn 0.0157 -0.0000 -0.9999
vn -0.0157 -0.0000 -0.9999
vn -0.0157 -0.0000 0.9999
vn 0.0157 -0.0000 0.9999
vn -0.7070 -0.0000 -0.7072
vn -0.7069 -0.0000 0.7073
vn -0.0000 -0.7492 0.6624
vn -0.0000 -0.7494 0.6621
vn -0.0000 -0.6063 0.7953
vn -0.0000 -0.2996 0.9541
vn -0.0000 -0.0393 0.9992
vn -0.0000 -0.1104 0.9939
vn -0.0000 -0.0393 -0.9992
vn -0.0000 -0.1104 -0.9939
vn -0.0000 -0.2996 -0.9541
vn -0.0000 -0.6063 -0.7953
vn -0.0000 -0.7491 -0.6624
vn 0.0550 0.9984 -0.0157
vn 0.0472 0.9989 -0.0079
vn 0.0707 0.9975 -0.0000
vn 0.0707 0.9975 -0.0079
vn 0.0707 0.9975 0.0079
vn 0.0472 0.9989 0.0079
vn 0.0550 0.9984 0.0157
vn 0.0393 0.9992 -0.0000
vn 0.0707 0.9974 -0.0157
vn 0.0708 0.9975 -0.0000
vn 0.0706 0.9975 -0.0000
vn 0.0707 0.9974 0.0157
vn 0.0550 0.9984 0.0158
vn 0.0394 0.9992 -0.0000
vn 0.0395 0.9992 -0.0000
vn 0.0472 0.9989 -0.0078
vt 1.962280 0.322947
vt 1.961920 0.326204
vt 1.961860 0.416260
vt 1.962280 0.419474
vt 1.965380 0.322209
vt 1.965370 0.420122
vt 1.991090 0.321939
vt 1.991120 0.420316
vt 0.991091 0.321939
vt 0.991120 0.420316
vt 0.965372 0.420122
vt 0.965376 0.322209
vt 0.962281 0.419474
vt 0.962278 0.322947
vt 0.961859 0.416260
vt 0.961916 0.326204
vt 1.976650 0.079735
vt 1.980510 0.081605
vt 1.977090 0.105968
vt 1.973630 0.103410
vt 0.976653 0.079735
vt 0.973635 0.103410
vt 0.977088 0.105968
vt 0.980506 0.081605
vt 1.973030 0.105834
vt 1.973450 0.108289
vt 1.974670 0.126994
vt 1.978920 0.126219
vt 1.981130 0.024876
vt 1.978700 0.005057
vt 1.982790 0.005611
vt 1.977620 0.023796
vt 1.977690 0.026553
vt 1.978680 0.029274
vt 0.974672 0.126994
vt 0.978922 0.126219
vt 0.973452 0.108289
vt 0.973029 0.105834
vt 0.977695 0.026553
vt 0.978682 0.029274
vt 0.981129 0.024876
vt 0.977618 0.023796
vt 0.978703 0.005057
vt 0.982793 0.005611
vt 1.686070 0.168409
vt 1.686070 0.242440
vt 1.705360 0.242440
vt 1.705360 0.168409
vt 0.686073 0.168409
vt 0.705359 0.168409
vt 0.705358 0.242440
vt 0.686073 0.242440
vt 1.989170 0.070315
vt 1.985760 0.072546
vt 1.985810 0.029858
vt 1.989150 0.030286
vt 0.989174 0.070315
vt 0.989154 0.030286
vt 0.985806 0.029858
vt 0.985759 0.072546
vt 1.978710 0.077573
vt 1.981960 0.080039
vt 0.981962 0.080039
vt 0.978715 0.077573
vt 1.991970 0.073383
vt 1.987650 0.076575
vt 1.984230 0.078771
vt 1.982160 0.074876
vt 0.984225 0.078771
vt 0.982163 0.074876
vt 0.987653 0.076575
vt 0.991968 0.073383
vt 1.982290 0.029620
vt 0.982291 0.029620
vt 1.991640 0.028581
vt 0.991637 0.028581
vt 0.965071 0.431130
vt 0.961756 0.430971
vt 1.961760 0.430971
vt 1.965070 0.431130
vt 0.961568 0.311420
vt 0.965030 0.311121
vt 1.961570 0.311420
vt 1.965030 0.311121
vt 0.990953 0.431543
vt 1.990950 0.431543
vt 1.966700 0.108936
vt 1.966610 0.105997
vt 0.966608 0.105997
vt 0.966697 0.108936
vt 0.990867 0.310727
vt 1.990870 0.310727
vt 1.967290 0.127913
vt 0.967291 0.127913
vt 1.966450 0.026676
vt 1.966300 0.023499
vt 0.966448 0.026676
vt 0.966295 0.023499
vt 0.951029 0.325589
vt 0.950604 0.322551
vt 1.951030 0.325589
vt 1.950600 0.322551
vt 1.966660 0.004365
vt 0.966662 0.004365
vt 1.966910 0.103059
vt 0.966909 0.103059
vt 1.983220 0.025473
vt 1.986890 0.026130
vt 0.986888 0.026130
vt 0.983220 0.025473
vt 0.950536 0.418731
vt 0.950961 0.415619
vt 1.950960 0.415619
vt 1.950540 0.418731
vt 1.966770 0.029759
vt 0.966765 0.029759
vt 1.597000 0.004348
vt 1.596980 0.023476
vt 1.596940 0.026590
vt 1.597020 0.029648
vt 1.592990 0.102973
vt 1.592930 0.105973
vt 1.592980 0.108986
vt 1.593110 0.128043
vt 0.592979 0.108986
vt 0.593113 0.128043
vt 0.592928 0.105973
vt 0.592989 0.102973
vt 0.597016 0.029648
vt 0.596941 0.026590
vt 0.596984 0.023476
vt 0.597004 0.004348
vt 1.716870 0.149124
vt 1.705360 0.149124
vt 1.716870 0.168409
vt 0.716875 0.149124
vt 0.716875 0.168409
vt 0.705358 0.149124
vt 1.712240 0.242440
vt 1.705360 0.261725
vt 1.712240 0.261725
vt 0.712239 0.242440
vt 0.712239 0.261725
vt 0.705357 0.261725
vt 1.725370 0.211945
vt 1.725370 0.168410
vt 1.721780 0.168410
vt 1.721770 0.213596
vt 1.718970 0.168410
vt 1.718970 0.215376
vt 1.716870 0.216805
vt 1.714560 0.218488
vt 0.714556 0.218488
vt 0.716873 0.216805
vt 0.718971 0.215376
vt 0.718973 0.168410
vt 0.721774 0.213596
vt 0.721775 0.168410
vt 0.725370 0.211945
vt 0.725370 0.168410
vt 0.943584 0.410993
vt 0.947543 0.321466
vt 0.943560 0.330287
vt 0.940553 0.329037
vt 1.947540 0.321466
vt 1.940550 0.329037
vt 1.943560 0.330287
vt 1.943580 0.410993
vt 0.947482 0.419853
vt 0.944461 0.407775
vt 0.944532 0.333511
vt 0.921802 0.319856
vt 0.921300 0.327814
vt 1.921800 0.319856
vt 1.921300 0.327814
vt 1.944530 0.333511
vt 1.944460 0.407775
vt 1.947480 0.419853
vt 0.921708 0.421024
vt 0.921348 0.413072
vt 0.940611 0.412201
vt 1.940610 0.412201
vt 1.921350 0.413072
vt 1.921710 0.421024
s 1
usemtl Magazine1Mtl
f 1/1/1 2/2/1 3/3/1
f 4/3/1 5/4/1 6/1/1
f 7/5/2 8/1/2 9/4/2
f 10/4/1 11/6/1 12/5/1
f 13/7/1 14/5/1 15/6/1
f 16/6/3 17/8/3 18/7/3
f 19/9/3 20/10/3 21/11/3
f 22/11/3 23/12/3 24/9/3
f 25/12/1 26/11/1 27/13/1
f 28/13/1 29/14/1 30/12/1
f 31/14/1 32/13/1 33/15/1
f 34/15/1 35/16/1 36/14/1
f 37/17/4 38/18/4 39/19/5
f 40/19/5 41/20/5 42/17/6
f 43/21/4 44/22/5 45/23/5
f 46/23/5 47/24/4 48/21/4
f 49/25/7 50/20/7 51/19/5
f 51/19/5 52/26/8 49/25/7
f 53/27/5 54/26/5 55/19/5
f 56/19/9 57/28/9 58/27/9
f 59/29/5 60/30/5 61/31/5
f 62/29/7 63/32/7 64/30/7
f 65/33/10 66/32/10 67/29/10
f 68/29/5 69/34/5 70/33/5
f 71/35/9 72/36/9 73/23/9
f 74/23/5 75/37/5 76/35/5
f 77/38/7 78/37/7 79/23/7
f 79/23/7 80/22/7 77/38/7
f 81/39/11 82/40/11 83/41/11
f 84/41/5 85/42/5 86/39/5
f 87/41/7 88/43/7 89/42/7
f 90/41/5 91/44/5 92/43/5
f 93/45/12 94/46/12 95/47/12
f 95/47/12 96/48/12 93/45/12
f 97/49/12 98/50/12 99/51/12
f 99/51/12 100/52/12 97/49/12
f 101/53/13 102/54/14 103/55/14
f 104/55/15 105/56/16 106/53/16
f 107/57/17 108/58/17 109/59/18
f 110/59/19 111/60/19 112/57/20
f 113/17/4 114/61/21 115/62/21
f 116/62/21 117/18/4 118/17/4
f 119/21/4 120/24/4 121/63/21
f 122/63/21 123/64/21 124/21/4
f 125/54/22 126/53/22 127/65/22
f 128/65/22 129/66/22 130/54/22
f 131/54/22 132/66/22 133/67/22
f 134/67/22 135/68/22 136/54/22
f 137/61/21 138/68/22 139/67/22
f 140/67/22 141/62/21 142/61/21
f 143/64/21 144/63/21 145/69/23
f 146/69/24 147/70/24 148/64/21
f 149/60/22 150/70/22 151/69/22
f 152/69/22 153/71/22 154/60/22
f 155/60/22 156/71/22 157/72/22
f 158/72/22 159/57/22 160/60/22
f 161/54/15 162/68/25 163/73/25
f 164/73/25 165/55/15 166/54/15
f 167/60/18 168/59/18 169/74/26
f 170/74/26 171/70/26 172/60/18
f 173/53/27 174/56/27 175/75/27
f 176/75/27 177/65/27 178/53/27
f 179/57/28 180/72/28 181/76/28
f 182/76/28 183/58/28 184/57/28
f 185/13/29 186/11/30 187/77/30
f 188/77/30 189/78/29 190/13/29
f 191/4/31 192/79/31 193/80/32
f 194/80/32 195/6/32 196/4/31
f 197/12/33 198/14/34 199/81/35
f 200/81/35 201/82/36 202/12/33
f 203/83/37 204/5/38 205/84/39
f 206/5/38 207/83/37 208/1/40
f 209/11/41 210/10/42 211/85/42
f 212/85/42 213/77/41 214/11/41
f 215/6/43 216/80/43 217/86/42
f 218/86/42 219/8/42 220/6/43
f 221/26/44 222/87/44 223/88/31
f 224/88/31 225/25/31 226/26/44
f 227/89/29 228/90/45 229/37/45
f 230/37/46 231/38/29 232/89/29
f 233/82/47 234/9/48 235/12/33
f 236/82/47 237/91/48 238/9/48
f 239/84/49 240/7/48 241/92/48
f 242/84/49 243/5/38 244/7/48
f 245/34/50 246/73/51 247/68/51
f 248/70/52 249/74/52 250/40/53
f 251/27/42 252/93/42 253/87/44
f 254/87/44 255/26/44 256/27/42
f 257/90/45 258/94/42 259/35/42
f 260/35/42 261/37/45 262/90/45
f 263/68/51 264/61/54 265/34/55
f 266/95/56 267/33/57 265/34/58
f 267/33/57 266/95/56 268/96/59
f 269/96/60 270/32/59 271/33/57
f 272/40/61 273/39/62 274/97/62
f 275/98/63 274/97/62 273/39/62
f 272/40/64 276/64/65 277/70/52
f 278/39/62 279/42/66 280/98/66
f 281/99/67 282/100/68 283/14/69
f 284/101/70 285/1/71 286/102/37
f 287/32/59 288/96/59 289/103/48
f 290/103/48 291/30/48 292/32/59
f 293/104/48 294/98/63 295/42/63
f 296/42/63 297/43/48 298/104/48
f 299/25/31 300/88/31 301/105/72
f 302/105/72 303/20/73 304/25/31
f 305/106/74 306/89/29 307/38/29
f 308/38/29 309/22/75 310/106/74
f 311/73/48 312/34/48 313/29/48
f 314/29/48 315/107/48 316/73/48
f 317/73/48 318/107/48 319/108/48
f 320/108/48 321/55/48 322/73/48
f 323/56/48 324/55/48 325/108/48
f 326/108/48 327/75/48 328/56/48
f 329/58/48 330/76/48 331/109/48
f 332/109/48 333/59/48 334/58/48
f 335/74/48 336/59/48 337/109/48
f 338/109/48 339/110/48 340/74/48
f 341/74/76 342/110/76 343/41/76
f 344/41/48 345/40/48 346/74/48
f 347/15/77 348/13/29 349/111/29
f 349/111/29 350/112/77 351/15/77
f 352/16/67 351/15/77 350/112/77
f 350/112/77 353/99/67 352/16/67
f 354/14/69 352/16/67 353/99/67
f 355/1/40 356/101/70 357/2/70
f 357/2/70 356/101/70 358/113/78
f 358/113/78 359/3/78 357/2/70
f 359/3/78 358/113/78 360/114/31
f 360/114/31 361/4/31 362/3/78
f 363/115/79 364/34/58 365/17/80
f 364/34/58 363/115/79 366/95/57
f 367/21/81 368/40/64 369/116/82
f 370/97/62 369/116/82 368/40/64
f 371/34/55 372/61/54 373/17/80
f 374/105/83 375/17/80 376/20/73
f 377/17/80 378/105/83 379/115/84
f 380/106/74 381/22/75 382/21/81
f 383/116/85 384/106/86 385/21/81
f 386/40/64 387/21/81 388/64/65
f 389/117/48 390/103/48 391/96/59
f 391/96/59 392/118/59 389/117/48
f 392/118/59 391/96/59 393/95/87
f 393/95/87 394/119/57 392/118/59
f 394/119/57 393/95/87 395/115/79
f 395/115/79 396/120/79 394/119/57
f 396/120/79 395/115/79 397/105/72
f 397/105/72 398/121/72 396/120/79
f 399/122/31 398/121/72 397/105/72
f 397/105/72 400/88/31 399/122/31
f 401/123/44 399/122/31 400/88/31
f 400/88/31 402/87/44 401/123/44
f 401/123/44 402/87/44 403/93/42
f 403/93/42 404/124/42 401/123/44
f 405/125/45 406/126/42 407/94/42
f 407/94/42 408/90/45 405/125/45
f 405/125/45 408/90/45 409/89/29
f 409/89/29 410/127/29 405/125/45
f 410/127/29 409/89/29 411/106/74
f 411/106/74 412/128/74 410/127/29
f 413/129/82 412/128/74 411/106/74
f 411/106/74 414/116/82 413/129/82
f 415/130/62 413/129/82 414/116/82
f 414/116/82 416/97/88 415/130/62
f 417/131/63 415/130/62 416/97/88
f 416/97/88 418/98/63 417/131/63
f 419/132/48 417/131/63 418/98/63
f 418/98/63 420/104/48 419/132/48
f 421/133/42 422/134/42 423/48/42
f 423/48/42 424/135/42 421/133/42
f 425/136/42 426/137/42 427/50/42
f 427/50/42 428/138/42 425/136/42
f 429/139/48 430/47/48 431/140/48
f 431/140/48 432/141/48 429/139/48
f 433/142/48 434/143/48 435/144/48
f 435/144/48 436/51/48 433/142/48
f 437/145/89 438/146/90 439/147/91
f 439/147/91 440/148/91 437/145/89
f 440/148/91 439/147/91 441/149/92
f 441/149/92 442/150/92 440/148/91
f 442/150/92 441/149/92 443/135/93
f 443/135/93 444/151/94 442/150/92
f 445/152/81 444/151/94 443/135/93
f 446/48/81 445/152/81 443/135/93
f 447/139/81 445/152/81 446/48/81
f 447/139/81 446/48/81 448/47/81
f 449/142/80 450/51/80 451/50/80
f 449/142/80 451/50/80 452/153/80
f 451/50/80 453/137/95 452/153/80
f 452/153/80 453/137/95 454/154/96
f 455/155/97 454/154/96 453/137/95
f 453/137/95 456/156/97 455/155/97
f 457/157/98 455/155/97 456/156/97
f 456/156/97 458/158/98 457/157/98
f 459/159/99 457/157/98 458/158/98
f 458/158/98 460/160/99 459/159/99
f 461/112/100 462/111/101 463/161/101
f 464/162/102 465/163/103 466/164/102
f 467/165/102 468/166/102 469/167/104
f 470/168/105 471/114/105 472/113/106
f 473/161/101 474/111/101 475/169/107
f 476/99/100 477/112/100 478/170/100
f 479/170/100 480/171/100 481/99/100
f 482/99/100 483/171/100 484/163/103
f 485/100/108 486/99/100 487/163/103
f 488/162/102 489/100/108 490/163/103
f 491/172/109 492/162/102 493/164/110
f 493/164/110 494/173/110 491/172/109
f 495/174/102 496/175/110 497/166/109
f 497/166/109 498/165/110 495/174/102
f 499/165/102 500/167/104 501/102/111
f 502/102/111 503/167/104 504/101/106
f 505/101/106 506/167/104 507/176/106
f 508/101/106 509/176/106 510/177/106
f 511/177/112 512/113/112 513/101/112
f 514/178/107 515/114/105 516/168/105
f 517/169/113 518/179/114 519/180/113
f 519/180/113 520/181/107 517/169/113
f 521/169/107 522/181/113 523/161/101
f 523/161/115 524/170/100 525/112/100
f 526/113/106 527/177/106 528/168/105
f 528/168/105 529/182/107 530/178/107
f 531/178/113 532/182/114 533/183/113
f 533/183/113 534/184/114 531/178/113
