# Blender 5.2.0 LTS
# www.blender.org
mtllib tommy gun bolt.mtl
o tommy_gun_bolt
v -0.653220 -0.037165 0.043013
v -0.653220 -0.037165 -0.042987
v -0.653220 -0.088355 0.043013
v -0.653220 -0.088355 -0.042987
v -0.653220 -0.088355 0.043013
v -0.653220 -0.037165 -0.042987
v -0.098020 0.059945 0.011882
v -0.102719 0.063535 0.011892
v -0.090421 0.050825 0.016273
v -0.102321 0.050825 -0.027917
v -0.108420 0.063535 -0.017347
v -0.098121 0.060115 -0.011618
v -0.077321 -0.037175 -0.042997
v -0.077321 -0.088365 -0.042977
v -0.653220 -0.037165 -0.042987
v -0.653220 -0.088355 -0.042987
v -0.653220 -0.088355 0.043013
v -0.077321 -0.088365 0.043023
v -0.653220 -0.037165 0.043013
v -0.077321 -0.037175 0.043003
v -0.138721 0.060105 -0.011608
v -0.134221 0.063535 -0.011618
v -0.146420 0.050825 -0.016068
v -0.090421 0.050825 0.016273
v -0.089221 0.050825 0.011882
v -0.098020 0.059945 0.011882
v -0.086120 0.031385 0.018773
v -0.084220 0.031385 0.011862
v -0.087020 0.020655 0.011862
v -0.090421 0.050825 0.016273
v -0.102321 0.050825 0.028112
v -0.102719 0.063535 0.011892
v -0.108420 0.063525 0.017542
v -0.107520 0.064365 0.011882
v -0.110120 0.064375 0.014513
v -0.099820 0.031385 0.032453
v -0.102321 0.050825 0.028112
v -0.090421 0.011945 0.016273
v -0.102321 0.011945 0.028112
v -0.094920 0.005305 0.013612
v -0.086120 0.031385 0.018773
v -0.090421 0.011945 0.016273
v -0.087020 0.020655 0.011862
v -0.094920 0.005305 -0.013587
v -0.104819 0.005315 -0.023538
v -0.090421 0.011945 -0.016078
v -0.102321 0.011945 -0.027907
v -0.086120 0.031385 -0.018568
v -0.099820 0.031385 -0.032258
v -0.087020 0.020735 -0.011638
v -0.090421 0.011945 -0.016078
v -0.084220 0.031385 -0.011638
v -0.089221 0.050825 -0.011618
v -0.090421 0.050825 -0.016078
v -0.098121 0.060115 -0.011618
v -0.090421 0.050825 -0.016078
v -0.102321 0.050825 -0.027917
v -0.094920 0.005305 0.013612
v -0.091220 0.005305 0.000022
v -0.090421 0.011945 0.016273
v -0.086120 0.011975 0.000103
v -0.090421 0.011945 0.016273
v -0.087420 0.014495 0.007362
v -0.087020 0.020655 0.011862
v -0.087420 0.014545 -0.007167
v -0.086120 0.011975 0.000103
v -0.090421 0.011945 -0.016078
v -0.091220 0.005305 0.000022
v -0.094920 0.005305 -0.013587
v -0.087020 0.020735 -0.011638
v -0.090421 0.011945 -0.016078
v -0.086120 0.011975 0.000103
v -0.094920 0.005305 -0.013587
v -0.098121 0.060115 -0.011618
v -0.108420 0.063535 -0.017347
v -0.102620 0.063535 -0.011618
v -0.107421 0.064375 -0.011618
v -0.110120 0.064375 -0.014318
v -0.102321 0.011945 -0.027907
v -0.118421 0.011955 -0.032248
v -0.118421 0.005315 -0.027177
v -0.104819 0.005315 -0.023538
v -0.118421 0.005315 -0.027177
v -0.118421 0.031385 -0.037258
v -0.102321 0.050825 -0.027917
v -0.118421 0.050835 -0.032248
v -0.108420 0.063535 -0.017347
v -0.118421 0.063545 -0.020038
v -0.118421 0.064365 -0.016548
v -0.110120 0.064375 -0.014318
v -0.118421 0.011955 -0.032248
v -0.134620 0.011955 -0.027917
v -0.132020 0.005315 -0.023538
v -0.118421 0.005315 -0.027177
v -0.137120 0.031395 -0.032248
v -0.118421 0.050835 -0.032248
v -0.134620 0.050825 -0.027917
v -0.118421 0.063545 -0.020038
v -0.128520 0.063545 -0.017337
v -0.126719 0.064365 -0.014318
v -0.118421 0.064365 -0.016548
v -0.104819 0.005315 0.023542
v -0.094920 0.005305 0.013612
v -0.102321 0.050825 0.028112
v -0.118421 0.050835 0.032453
v -0.118421 0.063545 0.020243
v -0.108420 0.063525 0.017542
v -0.110120 0.064375 0.014513
v -0.118421 0.064365 0.016752
v -0.118421 0.031385 0.037443
v -0.102321 0.011945 0.028112
v -0.118421 0.011955 0.032453
v -0.104819 0.005315 0.023542
v -0.118421 0.005315 0.027193
v -0.118421 0.050835 0.032453
v -0.134620 0.050825 0.028102
v -0.128520 0.063535 0.017532
v -0.126719 0.064365 0.014503
v -0.118421 0.064365 0.016752
v -0.118421 0.063545 0.020243
v -0.118421 0.050835 0.032453
v -0.137120 0.031395 0.032443
v -0.134620 0.050825 0.028102
v -0.118421 0.011955 0.032453
v -0.134620 0.011955 0.028102
v -0.118421 0.005315 0.027193
v -0.132020 0.005315 0.023552
v -0.134620 0.050825 0.028102
v -0.146420 0.050825 0.016283
v -0.138820 0.059945 0.011882
v -0.150821 0.031395 0.018773
v -0.134620 0.011955 0.028102
v -0.146420 0.011955 0.016283
v -0.132020 0.005315 0.023552
v -0.141921 0.005315 0.013602
v -0.152619 0.031395 0.011862
v -0.149920 0.020665 0.011862
v -0.147620 0.050825 0.011882
v -0.146420 0.050825 0.016283
v -0.138820 0.059945 0.011882
v -0.128520 0.063535 0.017532
v -0.134120 0.063535 0.011892
v -0.129420 0.064365 0.011892
v -0.126719 0.064365 0.014503
v -0.134620 0.050825 0.028102
v -0.138820 0.059945 0.011882
v -0.134620 0.011955 -0.027917
v -0.146420 0.011955 -0.016068
v -0.142020 0.005315 -0.013587
v -0.132020 0.005315 -0.023538
v -0.150821 0.031395 -0.018578
v -0.134620 0.050825 -0.027917
v -0.146420 0.050825 -0.016068
v -0.134221 0.063535 -0.011618
v -0.128520 0.063545 -0.017337
v -0.129420 0.064365 -0.011618
v -0.126719 0.064365 -0.014318
v -0.152619 0.031395 -0.011628
v -0.149920 0.020745 -0.011638
v -0.147620 0.050825 -0.011638
v -0.146420 0.050825 -0.016068
v -0.138721 0.060105 -0.011608
v -0.150821 0.031395 -0.018578
v -0.146420 0.011955 -0.016068
v -0.142020 0.005315 -0.013587
v -0.145619 0.005315 0.000002
v -0.139920 -0.007915 0.037212
v -0.135221 -0.007925 0.029023
v -0.118421 -0.007925 0.042983
v -0.118421 -0.007925 0.033513
v -0.096820 -0.007915 0.037222
v -0.101621 -0.007925 0.029023
v -0.081120 -0.007915 0.021442
v -0.089320 -0.007915 0.016713
v -0.075320 -0.007925 -0.000078
v -0.084821 -0.007925 -0.000068
v -0.081120 -0.007915 -0.021597
v -0.155721 -0.007925 0.021452
v -0.147521 -0.007925 0.016713
v -0.152020 -0.007925 -0.000068
v -0.161420 -0.007915 -0.000078
v -0.147521 -0.007925 -0.016868
v -0.118421 -0.007925 0.033513
v -0.118421 -0.007925 0.042983
v -0.135221 -0.007925 0.029023
v -0.089320 -0.007915 -0.016868
v -0.081120 -0.007915 -0.021597
v -0.084821 -0.007925 -0.000068
v -0.096820 -0.007915 -0.037367
v -0.135221 -0.007925 0.029023
v -0.139920 -0.007915 0.037212
v -0.147521 -0.007925 0.016713
v -0.139920 -0.007915 -0.037377
v -0.135221 -0.007925 -0.029178
v -0.155721 -0.007925 -0.021597
v -0.147521 -0.007925 -0.016868
v -0.155721 -0.007925 -0.021597
v -0.135221 -0.007925 -0.029178
v -0.161420 -0.007915 -0.000078
v -0.118421 -0.007925 -0.043128
v -0.118421 -0.007925 -0.033668
v -0.139920 -0.007915 -0.037377
v -0.135221 -0.007925 -0.029178
v -0.096820 -0.007915 -0.037367
v -0.101621 -0.007925 -0.029178
v -0.118421 -0.007925 -0.043128
v -0.118421 -0.007925 -0.033668
v -0.118421 -0.007925 -0.043128
v -0.101621 -0.007925 -0.029178
v -0.101621 -0.007925 -0.029178
v -0.096820 -0.007915 -0.037367
v -0.089320 -0.007915 -0.016868
v -0.146420 0.011955 0.016283
v -0.150821 0.031395 0.018773
v -0.149920 0.020665 0.011862
v -0.149520 0.014495 0.007372
v -0.146420 0.011955 0.016283
v -0.149920 0.020665 0.011862
v -0.150821 0.011975 0.000103
v -0.141921 0.005315 0.013602
v -0.146420 0.011955 0.016283
v -0.149520 0.014495 0.007372
v -0.149920 0.020745 -0.011638
v -0.146420 0.011955 -0.016068
v -0.149520 0.014545 -0.007177
v -0.150821 0.011975 0.000103
v -0.145619 0.005315 0.000002
v -0.145619 0.005315 0.000002
v -0.141921 0.005315 0.013602
v -0.150821 0.011975 0.000103
v -0.081120 -0.003245 -0.021597
v -0.091220 0.000935 -0.015738
v -0.075320 -0.003235 -0.000078
v -0.087020 0.000935 -0.000078
v -0.094920 0.005305 -0.013587
v -0.091220 0.005305 0.000022
v -0.075320 -0.003235 -0.000078
v -0.087020 0.000935 -0.000078
v -0.081120 -0.003245 0.021452
v -0.091220 0.000935 0.015593
v -0.091220 0.005305 0.000022
v -0.094920 0.005305 0.013612
v -0.110120 0.020675 0.014352
v -0.107520 0.020685 0.011902
v -0.118421 0.020665 0.016693
v -0.118421 0.020665 0.016693
v -0.107520 0.020685 0.011902
v -0.126821 0.020675 0.014342
v -0.126821 0.020675 0.014342
v -0.107520 0.020685 0.011902
v -0.129321 0.020685 0.011902
v -0.110120 0.020705 -0.014328
v -0.129420 0.020735 -0.011638
v -0.107520 0.020715 -0.011638
v -0.126821 0.020715 -0.014318
v -0.129420 0.020735 -0.011638
v -0.118421 0.020715 -0.016508
v -0.118421 0.020715 -0.016508
v -0.129420 0.020735 -0.011638
v -0.110120 0.020705 -0.014328
v -0.096820 -0.003235 -0.037357
v -0.102719 0.000945 -0.027227
v -0.081120 -0.003245 -0.021597
v -0.091220 0.000935 -0.015738
v -0.104819 0.005315 -0.023538
v -0.094920 0.005305 -0.013587
v -0.081120 -0.003245 0.021452
v -0.091220 0.000935 0.015593
v -0.096921 -0.003235 0.037212
v -0.102719 0.000945 0.027062
v -0.094920 0.005305 0.013612
v -0.104819 0.005315 0.023542
v -0.104819 0.005315 -0.023538
v -0.102719 0.000945 -0.027227
v -0.118421 0.005315 -0.027177
v -0.118421 0.000935 -0.031417
v -0.096820 -0.003235 -0.037357
v -0.118421 -0.003235 -0.043128
v -0.118421 0.000935 0.031272
v -0.118421 -0.003235 0.042983
v -0.102719 0.000945 0.027062
v -0.096921 -0.003235 0.037212
v -0.104819 0.005315 0.023542
v -0.118421 0.005315 0.027193
v -0.139920 -0.003235 -0.037367
v -0.134021 0.000945 -0.027207
v -0.118421 -0.003235 -0.043128
v -0.118421 0.000935 -0.031417
v -0.118421 -0.003235 -0.043128
v -0.132020 0.005315 -0.023538
v -0.118421 0.005315 -0.027177
v -0.118421 -0.003235 0.042983
v -0.118421 0.000935 0.031272
v -0.139920 -0.003235 0.037212
v -0.134021 0.000945 0.027062
v -0.118421 0.005315 0.027193
v -0.132020 0.005315 0.023552
v -0.155721 -0.003235 -0.021607
v -0.145520 0.000945 -0.015738
v -0.139920 -0.003235 -0.037367
v -0.134021 0.000945 -0.027207
v -0.142020 0.005315 -0.013587
v -0.132020 0.005315 -0.023538
v -0.139920 -0.003235 0.037212
v -0.134021 0.000945 0.027062
v -0.155721 -0.003235 0.021452
v -0.132020 0.005315 0.023552
v -0.145520 0.000945 0.015603
v -0.155721 -0.003235 0.021452
v -0.141921 0.005315 0.013602
v -0.132020 0.005315 0.023552
v -0.129321 0.020685 0.011902
v -0.107520 0.020685 0.011902
v -0.149920 0.020665 0.011862
v -0.145619 0.005315 0.000002
v -0.149720 0.000935 -0.000078
v -0.141921 0.005315 0.013602
v -0.145520 0.000945 0.015603
v -0.161420 -0.003245 -0.000078
v -0.155721 -0.003235 0.021452
v -0.142020 0.005315 -0.013587
v -0.145520 0.000945 -0.015738
v -0.145619 0.005315 0.000002
v -0.149720 0.000935 -0.000078
v -0.155721 -0.003235 -0.021607
v -0.161420 -0.003245 -0.000078
v -0.134120 0.063535 0.011892
v -0.129420 0.064365 0.011892
v -0.138820 0.059945 0.011882
v -0.129321 0.020685 0.011902
v -0.138820 0.059945 0.011882
v -0.152619 0.031395 0.011862
v -0.149920 0.020665 0.011862
v -0.087420 0.014495 0.007362
v -0.149520 0.014495 0.007372
v -0.086120 0.011975 0.000103
v -0.150821 0.011975 0.000103
v -0.107520 0.020685 0.011902
v -0.087020 0.020655 0.011862
v -0.089221 0.050825 0.011882
v -0.102719 0.063535 0.011892
v -0.086120 0.011975 0.000103
v -0.087420 0.014545 -0.007167
v -0.150821 0.011975 0.000103
v -0.149520 0.014545 -0.007177
v -0.149920 0.020745 -0.011638
v -0.129420 0.020735 -0.011638
v -0.147620 0.050825 -0.011638
v -0.152619 0.031395 -0.011628
v -0.134221 0.063535 -0.011618
v -0.107520 0.020715 -0.011638
v -0.087020 0.020735 -0.011638
v -0.089221 0.050825 -0.011618
v -0.084220 0.031385 -0.011638
v -0.102620 0.063535 -0.011618
v -0.089221 0.050825 -0.011618
v -0.129420 0.020735 -0.011638
v -0.126821 0.020715 -0.014318
v -0.129420 0.064365 -0.011618
v -0.126821 0.020675 0.014342
v -0.129321 0.020685 0.011902
v -0.126719 0.064365 0.014503
v -0.098121 0.060115 -0.011618
v -0.102620 0.063535 -0.011618
v -0.089221 0.050825 -0.011618
v -0.147620 0.050825 0.011882
v -0.138820 0.059945 0.011882
v -0.152619 0.031395 0.011862
v -0.107421 0.064375 -0.011618
v -0.107520 0.020715 -0.011638
v -0.102620 0.063535 -0.011618
v -0.134221 0.063535 -0.011618
v -0.129420 0.020735 -0.011638
v -0.129420 0.064365 -0.011618
v -0.098020 0.059945 0.011882
v -0.089221 0.050825 0.011882
v -0.102719 0.063535 0.011892
v -0.102719 0.063535 0.011892
v -0.107520 0.020685 0.011902
v -0.107520 0.064365 0.011882
v -0.138721 0.060105 -0.011608
v -0.147620 0.050825 -0.011638
v -0.134221 0.063535 -0.011618
v -0.084220 0.031385 0.011862
v -0.087020 0.020655 0.011862
v -0.089221 0.050825 0.011882
v -0.118421 0.020665 0.016693
v -0.126821 0.020675 0.014342
v -0.118421 0.064365 0.016752
v -0.126821 0.020715 -0.014318
v -0.118421 0.020715 -0.016508
v -0.126719 0.064365 -0.014318
v -0.110120 0.064375 0.014513
v -0.107520 0.064365 0.011882
v -0.110120 0.020675 0.014352
v -0.118421 0.064365 0.016752
v -0.118421 0.020665 0.016693
v -0.126719 0.064365 0.014503
v -0.126821 0.020675 0.014342
v -0.129420 0.064365 0.011892
v -0.129321 0.020685 0.011902
v -0.107421 0.064375 -0.011618
v -0.110120 0.064375 -0.014318
v -0.107520 0.020715 -0.011638
v -0.118421 0.064365 -0.016548
v -0.110120 0.020705 -0.014328
v -0.126719 0.064365 -0.014318
v -0.118421 0.020715 -0.016508
v -0.129420 0.064365 -0.011618
v -0.126821 0.020715 -0.014318
v -0.110120 0.020675 0.014352
v -0.118421 0.020665 0.016693
v -0.110120 0.064375 0.014513
v -0.118421 0.020715 -0.016508
v -0.110120 0.020705 -0.014328
v -0.118421 0.064365 -0.016548
v -0.107520 0.020685 0.011902
v -0.110120 0.020675 0.014352
v -0.107520 0.064365 0.011882
v -0.110120 0.020705 -0.014328
v -0.107520 0.020715 -0.011638
v -0.110120 0.064375 -0.014318
v -0.139920 -0.003235 0.037212
v -0.139920 -0.007915 0.037212
v -0.118421 -0.003235 0.042983
v -0.118421 -0.007925 0.042983
v -0.155721 -0.007925 0.021452
v -0.096921 -0.003235 0.037212
v -0.155721 -0.003235 0.021452
v -0.161420 -0.007915 -0.000078
v -0.161420 -0.003245 -0.000078
v -0.096820 -0.007915 0.037222
v -0.081120 -0.003245 0.021452
v -0.081120 -0.007915 0.021442
v -0.075320 -0.003235 -0.000078
v -0.075320 -0.007925 -0.000078
v -0.081120 -0.003245 -0.021597
v -0.081120 -0.007915 -0.021597
v -0.096820 -0.003235 -0.037357
v -0.096820 -0.007915 -0.037367
v -0.118421 -0.003235 -0.043128
v -0.118421 -0.007925 -0.043128
v -0.139920 -0.003235 -0.037367
v -0.139920 -0.007915 -0.037377
v -0.155721 -0.003235 -0.021607
v -0.155721 -0.007925 -0.021597
v -0.161420 -0.003245 -0.000078
v -0.161420 -0.007915 -0.000078
v -0.084821 -0.007925 -0.000068
v -0.084821 -0.028815 -0.000078
v -0.089320 -0.007915 -0.016868
v -0.089320 -0.028805 -0.016878
v -0.089320 -0.028805 0.016713
v -0.101621 -0.007925 -0.029178
v -0.089320 -0.007915 0.016713
v -0.101621 -0.028815 -0.029168
v -0.101621 -0.028815 0.029023
v -0.118421 -0.007925 -0.033668
v -0.101621 -0.007925 0.029023
v -0.118421 -0.028815 -0.033668
v -0.118421 -0.028815 0.033523
v -0.135221 -0.007925 -0.029178
v -0.118421 -0.007925 0.033513
v -0.135221 -0.028815 -0.029168
v -0.135221 -0.028815 0.029023
v -0.147521 -0.007925 -0.016868
v -0.135221 -0.007925 0.029023
v -0.147521 -0.028815 -0.016878
v -0.152020 -0.007925 -0.000068
v -0.152020 -0.028815 -0.000068
v -0.147521 -0.028815 0.016723
v -0.147521 -0.007925 0.016713
v -0.152020 -0.028815 -0.000068
v -0.152020 -0.007925 -0.000068
v -0.653220 -0.037165 -0.042987
v -0.653220 -0.037165 0.043013
v -0.077321 -0.037175 -0.042997
v -0.077321 -0.037175 0.043003
vn -1.0000 -0.0000 -0.0000
vn 0.5446 0.6867 0.4815
vn 0.4390 0.7839 0.4390
vn 0.7634 0.4723 0.4407
vn 0.4407 0.4722 -0.7634
vn 0.2663 0.8459 -0.4621
vn 0.5446 0.6867 -0.4815
vn -0.0000 0.0001 -1.0000
vn -0.0000 -0.0004 -1.0000
vn -0.0000 -0.0000 -1.0000
vn -0.0000 -0.0000 1.0000
vn -0.0000 0.0004 1.0000
vn -0.0000 -0.0001 1.0000
vn -0.5426 0.6841 -0.4875
vn -0.4390 0.7839 -0.4390
vn -0.7662 0.4661 -0.4424
vn 0.7634 0.4722 0.4407
vn 0.8594 0.4573 0.2287
vn 0.5447 0.6867 0.4814
vn 0.8678 -0.0000 0.4969
vn 0.9658 -0.0000 0.2591
vn 0.9365 -0.2440 0.2518
vn 0.7634 0.4722 0.4408
vn 0.4408 0.4722 0.7634
vn 0.8678 0.0001 0.4970
vn 0.2673 0.8489 0.4559
vn 0.1736 0.9708 0.1657
vn 0.1178 0.9735 0.1963
vn 0.4970 -0.0000 0.8677
vn 0.8677 -0.0000 0.4970
vn 0.7835 -0.4274 0.4512
vn 0.4496 -0.4338 0.7808
vn 0.6845 -0.6137 0.3934
vn 0.8678 -0.0001 0.4970
vn 0.7835 -0.4274 0.4511
vn 0.9365 -0.2439 0.2518
vn 0.6857 -0.6069 -0.4020
vn 0.3932 -0.6055 -0.6920
vn 0.7865 -0.4247 -0.4484
vn 0.4546 -0.4232 -0.7837
vn 0.8677 -0.0000 -0.4970
vn 0.4970 -0.0000 -0.8677
vn 0.8678 -0.0000 -0.4970
vn 0.9365 -0.2440 -0.2518
vn 0.7865 -0.4247 -0.4483
vn 0.9658 -0.0000 -0.2591
vn 0.8594 0.4573 -0.2286
vn 0.7634 0.4722 -0.4407
vn 0.5446 0.6867 -0.4814
vn 0.7634 0.4722 -0.4408
vn 0.4408 0.4722 -0.7634
vn 0.7885 -0.6150 0.0001
vn 0.8345 -0.5511 0.0001
vn 0.7835 -0.4274 0.4510
vn 0.7885 -0.6150 -0.0000
vn 0.9383 -0.2365 0.2523
vn 0.9383 -0.2365 -0.2523
vn 0.8345 -0.5511 -0.0000
vn 0.7866 -0.4247 -0.4483
vn 0.6857 -0.6069 -0.4019
vn 0.8345 -0.5511 -0.0001
vn 0.9365 -0.2439 -0.2518
vn 0.4390 0.7839 -0.4390
vn 0.1660 0.9721 -0.1660
vn 0.1176 0.9719 -0.2038
vn 0.4545 -0.4232 -0.7838
vn -0.0000 -0.4250 -0.9052
vn 0.4969 -0.0000 -0.8678
vn 0.0001 -0.6063 -0.7952
vn 0.3931 -0.6055 -0.6920
vn -0.0000 -0.6063 -0.7952
vn 0.4545 -0.4233 -0.7837
vn -0.0000 0.4722 -0.8815
vn -0.0000 0.8498 -0.5272
vn -0.0000 0.9737 -0.2277
vn 0.1175 0.9719 -0.2038
vn -0.0000 -0.4251 -0.9052
vn -0.4574 -0.4258 -0.7807
vn -0.3953 -0.6088 -0.6879
vn -0.0001 -0.6063 -0.7953
vn -0.5029 -0.0000 -0.8644
vn -0.0001 0.4722 -0.8815
vn -0.4407 0.4722 -0.7634
vn -0.2672 0.8490 -0.4559
vn -0.1177 0.9735 -0.1963
vn 0.3956 -0.6170 0.6803
vn 0.4407 0.4722 0.7634
vn 0.0001 0.4722 0.8815
vn 0.4969 -0.0000 0.8678
vn -0.0000 0.8498 0.5272
vn 0.2672 0.8489 0.4559
vn 0.1177 0.9735 0.1963
vn -0.0000 0.9737 0.2277
vn 0.0001 -0.0000 1.0000
vn 0.4495 -0.4338 0.7809
vn -0.0000 -0.4315 0.9021
vn 0.3955 -0.6170 0.6803
vn 0.0001 -0.6199 0.7847
vn -0.0000 0.4722 0.8815
vn -0.4407 0.4722 0.7634
vn -0.2673 0.8489 0.4559
vn -0.1176 0.9719 0.2038
vn -0.2672 0.8490 0.4559
vn -0.0000 0.4723 0.8815
vn -0.5028 -0.0000 0.8644
vn -0.0001 -0.0000 1.0000
vn -0.0001 -0.4315 0.9021
vn -0.4495 -0.4338 0.7809
vn -0.0000 -0.6199 0.7847
vn -0.3936 -0.6219 0.6770
vn -0.4408 0.4722 0.7634
vn -0.7634 0.4722 0.4408
vn -0.5029 -0.0000 0.8643
vn -0.5446 0.6867 0.4815
vn -0.8677 -0.0000 0.4970
vn -0.4496 -0.4338 0.7808
vn -0.7808 -0.4338 0.4496
vn -0.3937 -0.6219 0.6770
vn -0.6770 -0.6219 0.3936
vn -0.8678 -0.0000 0.4970
vn -0.9658 -0.0000 0.2591
vn -0.9365 -0.2440 0.2518
vn -0.8594 0.4573 0.2287
vn -0.7634 0.4722 0.4407
vn -0.5446 0.6867 0.4814
vn -0.2673 0.8490 0.4559
vn -0.4390 0.7839 0.4390
vn -0.1657 0.9708 0.1736
vn -0.7835 -0.4274 -0.4511
vn -0.5029 -0.0000 -0.8643
vn -0.6845 -0.6137 -0.3934
vn -0.3953 -0.6088 -0.6878
vn -0.8643 -0.0000 -0.5029
vn -0.4408 0.4722 -0.7634
vn -0.2673 0.8489 -0.4559
vn -0.1734 0.9695 -0.1734
vn -0.1178 0.9735 -0.1963
vn -0.9658 -0.0000 -0.2591
vn -0.8644 -0.0000 -0.5029
vn -0.9365 -0.2440 -0.2518
vn -0.8594 0.4573 -0.2287
vn -0.7662 0.4661 -0.4423
vn -0.6846 -0.6137 -0.3934
vn -0.7885 -0.6150 -0.0000
vn -0.0000 -1.0000 -0.0000
vn -0.0001 -1.0000 -0.0000
vn 0.0001 -1.0000 0.0001
vn 0.0001 -1.0000 0.0002
vn 0.0001 -1.0000 -0.0000
vn -0.0000 -1.0000 0.0001
vn -0.0001 -1.0000 0.0002
vn -0.0001 -1.0000 -0.0002
vn -0.7809 -0.4337 0.4496
vn -0.8678 -0.0000 0.4969
vn -0.9383 -0.2365 0.2523
vn -0.7809 -0.4338 0.4496
vn -0.9365 -0.2440 0.2519
vn -0.7808 -0.4338 0.4495
vn -0.8345 -0.5511 -0.0000
vn -0.8345 -0.5510 -0.0000
vn -0.9383 -0.2366 -0.2523
vn -0.8345 -0.5511 0.0001
vn 0.2906 0.9425 -0.1649
vn 0.4476 0.8559 -0.2591
vn 0.3373 0.9414 -0.0000
vn 0.5122 0.8589 -0.0000
vn 0.6226 0.6935 -0.3625
vn 0.7226 0.6912 -0.0000
vn 0.2906 0.9425 0.1649
vn 0.4476 0.8559 0.2591
vn 0.6308 0.6860 0.3627
vn -0.0000 1.0000 0.0079
vn -0.0000 1.0000 -0.0000
vn -0.0000 1.0000 -0.0078
vn -0.0000 1.0000 -0.0079
vn 0.1650 0.9425 -0.2906
vn 0.2601 0.8589 -0.4412
vn 0.2906 0.9425 -0.1650
vn 0.3626 0.6935 -0.6226
vn 0.2906 0.9425 0.1650
vn 0.4475 0.8559 0.2592
vn 0.1650 0.9425 0.2906
vn 0.2591 0.8559 0.4476
vn 0.6308 0.6860 0.3628
vn 0.3627 0.6860 0.6308
vn 0.3625 0.6935 -0.6226
vn 0.2600 0.8589 -0.4413
vn 0.0001 0.6951 -0.7189
vn -0.0000 0.8589 -0.5122
vn 0.1649 0.9425 -0.2906
vn -0.0000 0.9414 -0.3373
vn -0.0000 0.8533 0.5214
vn -0.0000 0.9414 0.3373
vn 0.1649 0.9425 0.2906
vn -0.0000 0.6832 0.7303
vn -0.1649 0.9425 -0.2906
vn -0.2591 0.8559 -0.4476
vn -0.3625 0.6935 -0.6226
vn -0.0000 0.6952 -0.7189
vn -0.0000 0.8533 0.5215
vn -0.1649 0.9425 0.2906
vn -0.2609 0.8538 0.4506
vn -0.0001 0.6831 0.7303
vn -0.3609 0.6826 0.6355
vn -0.2906 0.9425 -0.1650
vn -0.4476 0.8559 -0.2591
vn -0.1650 0.9425 -0.2906
vn -0.6274 0.6901 -0.3608
vn -0.3626 0.6935 -0.6226
vn -0.2609 0.8538 0.4505
vn -0.2906 0.9425 0.1649
vn -0.2609 0.8537 0.4506
vn -0.4506 0.8538 0.2609
vn -0.2906 0.9425 0.1650
vn -0.6308 0.6860 0.3627
vn -0.3610 0.6826 0.6355
vn -0.0157 0.6667 -0.7451
vn -0.0000 0.4090 -0.9125
vn -0.0000 0.2830 -0.9591
vn -0.7266 0.6871 -0.0000
vn -0.5180 0.8554 -0.0000
vn -0.4506 0.8538 0.2608
vn -0.3373 0.9414 -0.0000
vn -0.6274 0.6901 -0.3607
vn -0.2906 0.9425 -0.1649
vn -0.0157 0.6668 -0.7451
vn -0.0000 0.2831 -0.9591
vn -0.0000 0.8121 -0.5835
vn -0.0000 0.8084 -0.5887
vn -0.0000 0.4091 -0.9125
vn -0.0000 1.0000 0.0001
vn -0.0000 0.8057 0.5924
vn -0.0000 0.2757 0.9612
vn -0.0000 0.4091 0.9125
vn -0.0000 0.2758 0.9612
vn -0.0000 0.4090 0.9125
vn 0.7149 0.0078 0.6992
vn 0.7071 -0.0000 0.7071
vn 0.4970 0.0018 -0.8677
vn 0.6952 -0.0000 -0.7188
vn -0.0000 0.0001 1.0000
vn 0.0001 0.4090 0.9125
vn 0.0018 0.4090 -0.9125
vn -0.0000 0.0016 -1.0000
vn 0.4970 -0.0006 0.8678
vn 0.4970 -0.0000 0.8678
vn -0.5029 0.0018 -0.8643
vn -0.7071 -0.0000 -0.7071
vn -0.4970 -0.0000 -0.8677
vn -0.5028 -0.0000 -0.8644
vn -0.0001 -0.0000 -1.0000
vn 0.4970 0.0028 -0.8678
vn 0.0001 -0.0000 -1.0000
vn 0.7031 -0.0000 -0.7111
vn 0.6952 -0.0000 -0.7189
vn -0.7071 0.0001 0.7071
vn -0.7149 -0.0000 0.6992
vn -0.5029 -0.0005 0.8644
vn -0.5029 -0.0000 0.8644
vn 0.0001 0.0009 1.0000
vn 0.4970 -0.0016 0.8677
vn 0.7071 -0.0001 0.7071
vn -0.4970 0.0031 -0.8678
vn -0.0000 0.0006 1.0000
vn -0.6951 -0.0000 -0.7189
vn -0.5029 0.0006 0.8643
vn -0.4971 -0.0000 0.8677
vn -0.8643 -0.0000 0.5029
vn -0.8644 -0.0000 0.5029
vn -1.0000 -0.0000 0.0001
vn 0.8644 -0.0000 0.5029
vn 1.0000 -0.0000 -0.0000
vn 0.5029 -0.0000 -0.8644
vn -0.8677 -0.0000 -0.4970
vn 1.0000 -0.0000 0.0002
vn 0.8644 -0.0000 -0.5029
vn 0.4970 -0.0000 -0.8678
vn 0.4971 -0.0000 0.8677
vn 0.0001 -0.0001 -1.0000
vn -0.4970 -0.0000 0.8678
vn -0.4970 -0.0000 0.8677
vn -1.0000 0.0001 -0.0001
vt 0.293400 0.539900
vt 0.229800 0.539900
vt 0.293400 0.517400
vt 0.229800 0.517400
vt 0.176700 0.067000
vt 0.180400 0.069600
vt 0.176700 0.060500
vt 0.128300 0.060500
vt 0.128400 0.069600
vt 0.144500 0.067200
vt 0.293900 0.907600
vt 0.316300 0.907600
vt 0.293900 0.540000
vt 0.316300 0.540000
vt 0.079900 0.067200
vt 0.083400 0.069600
vt 0.080000 0.060500
vt 0.172400 0.060500
vt 0.176600 0.046700
vt 0.170800 0.046700
vt 0.171600 0.039100
vt 0.192700 0.060500
vt 0.192800 0.069600
vt 0.186000 0.071200
vt 0.192800 0.071200
vt 0.192700 0.046700
vt 0.176700 0.032800
vt 0.192700 0.032800
vt 0.176600 0.028100
vt 0.144400 0.028100
vt 0.128300 0.028100
vt 0.144500 0.032800
vt 0.128300 0.032800
vt 0.144500 0.046700
vt 0.128300 0.046700
vt 0.149600 0.039100
vt 0.150400 0.046700
vt 0.148900 0.060500
vt 0.144500 0.060500
vt 0.160500 0.028100
vt 0.160600 0.032900
vt 0.167700 0.034700
vt 0.153500 0.034700
vt 0.141000 0.069600
vt 0.135600 0.071200
vt 0.128400 0.071200
vt 0.112200 0.032800
vt 0.112200 0.028100
vt 0.112200 0.046700
vt 0.112200 0.060500
vt 0.112200 0.069600
vt 0.112100 0.071200
vt 0.096100 0.032800
vt 0.096100 0.028100
vt 0.096100 0.046700
vt 0.096100 0.060500
vt 0.096000 0.069600
vt 0.095900 0.071200
vt 0.192600 0.028100
vt 0.208700 0.060500
vt 0.208700 0.069600
vt 0.208700 0.071200
vt 0.208700 0.046700
vt 0.208700 0.032800
vt 0.208600 0.028100
vt 0.224600 0.060500
vt 0.224600 0.069600
vt 0.224600 0.071200
vt 0.224600 0.046700
vt 0.224600 0.032800
vt 0.224700 0.028100
vt 0.240600 0.060500
vt 0.240600 0.067000
vt 0.240600 0.046700
vt 0.240600 0.032800
vt 0.240700 0.028100
vt 0.246500 0.046700
vt 0.245700 0.039100
vt 0.244900 0.060500
vt 0.236900 0.069600
vt 0.231400 0.071200
vt 0.080000 0.032800
vt 0.080000 0.028100
vt 0.080000 0.046700
vt 0.088800 0.071200
vt 0.074000 0.046700
vt 0.074800 0.039100
vt 0.075600 0.060500
vt 0.064000 0.028100
vt 0.146900 0.080700
vt 0.144100 0.085600
vt 0.134100 0.077300
vt 0.134100 0.082900
vt 0.121300 0.080700
vt 0.124100 0.085600
vt 0.111900 0.090100
vt 0.116800 0.092900
vt 0.108500 0.102900
vt 0.114100 0.102900
vt 0.111900 0.115800
vt 0.156300 0.090100
vt 0.151400 0.092900
vt 0.154100 0.102900
vt 0.159700 0.102900
vt 0.151400 0.112900
vt 0.116800 0.112900
vt 0.121300 0.125100
vt 0.146900 0.125100
vt 0.144100 0.120300
vt 0.156300 0.115800
vt 0.134100 0.128600
vt 0.134100 0.122900
vt 0.124100 0.120300
vt 0.249600 0.034700
vt 0.256600 0.032900
vt 0.070900 0.034700
vt 0.063900 0.032900
vt 0.256700 0.028100
vt 0.144400 0.022000
vt 0.144400 0.025000
vt 0.160400 0.022000
vt 0.160400 0.025000
vt 0.176500 0.022000
vt 0.176500 0.025000
vt 0.191200 0.088300
vt 0.189200 0.087100
vt 0.197900 0.089100
vt 0.204700 0.088300
vt 0.206700 0.087100
vt 0.206800 0.087100
vt 0.189100 0.087100
vt 0.128300 0.022000
vt 0.128300 0.025000
vt 0.192600 0.022000
vt 0.192600 0.025000
vt 0.112200 0.025000
vt 0.112200 0.022000
vt 0.208600 0.025000
vt 0.208600 0.022000
vt 0.096200 0.022000
vt 0.096200 0.025000
vt 0.224700 0.022000
vt 0.224700 0.025000
vt 0.080100 0.022000
vt 0.080100 0.025000
vt 0.240700 0.022000
vt 0.240700 0.025000
vt 0.223300 0.087100
vt 0.256800 0.025000
vt 0.256800 0.022000
vt 0.064100 0.025000
vt 0.064100 0.022000
vt 0.210600 0.121600
vt 0.206800 0.122300
vt 0.214400 0.118700
vt 0.225500 0.095700
vt 0.172900 0.082100
vt 0.222900 0.082100
vt 0.171900 0.078000
vt 0.224000 0.078000
vt 0.172600 0.087100
vt 0.174500 0.111400
vt 0.185300 0.121600
vt 0.223000 0.082100
vt 0.221500 0.111400
vt 0.210700 0.121600
vt 0.174400 0.111400
vt 0.170400 0.095700
vt 0.185200 0.121600
vt 0.204600 0.122300
vt 0.181600 0.118800
vt 0.221400 0.111400
vt 0.189100 0.122300
vt 0.181500 0.118700
vt 0.214300 0.118800
vt 0.197900 0.122300
vt 0.191200 0.122300
vt 0.224700 0.018700
vt 0.208600 0.018700
vt 0.240700 0.018700
vt 0.256800 0.018700
vt 0.192600 0.018700
vt 0.176500 0.018700
vt 0.160400 0.018700
vt 0.144400 0.018700
vt 0.128300 0.018700
vt 0.112200 0.018700
vt 0.096200 0.018700
vt 0.080100 0.018700
vt 0.064100 0.018700
vt 0.160400 0.003800
vt 0.144400 0.003800
vt 0.176500 0.003800
vt 0.128300 0.003800
vt 0.192600 0.003800
vt 0.112200 0.003800
vt 0.208600 0.003800
vt 0.096200 0.003800
vt 0.224700 0.003800
vt 0.080100 0.003800
vt 0.064100 0.003800
vt 0.240700 0.003800
vt 0.256800 0.003800
vt 0.229600 0.540100
vt 0.293700 0.540100
vt 0.229600 0.907700
vt 0.293700 0.907700
s 1
usemtl Bolt1Mtl.003
f 1/1/1 2/2/1 3/3/1
f 4/4/1 5/3/1 6/2/1
f 7/5/2 8/6/3 9/7/4
f 10/8/5 11/9/6 12/10/7
f 13/11/8 14/12/9 15/13/10
f 16/14/10 15/13/10 14/12/9
f 17/14/11 18/12/12 19/13/11
f 20/11/13 19/13/11 18/12/12
f 21/15/14 22/16/15 23/17/16
f 24/7/17 25/18/18 26/5/19
f 24/7/17 27/19/20 25/18/18
f 28/20/21 25/18/18 27/19/20
f 28/20/21 27/19/20 29/21/22
f 30/7/23 31/22/24 27/19/25
f 30/7/23 32/6/3 31/22/24
f 31/22/24 32/6/3 33/23/26
f 32/6/3 34/24/27 33/23/26
f 35/25/28 33/23/26 34/24/27
f 36/26/29 27/19/30 37/22/24
f 27/19/30 36/26/29 38/27/31
f 39/28/32 38/27/31 36/26/29
f 38/27/31 39/28/32 40/29/33
f 41/19/34 42/27/35 43/21/36
f 44/30/37 45/31/38 46/32/39
f 47/33/40 46/32/39 45/31/38
f 46/32/39 47/33/40 48/34/41
f 49/35/42 48/34/41 47/33/40
f 48/34/43 50/36/44 51/32/45
f 52/37/46 50/36/44 48/34/43
f 52/37/46 48/34/43 53/38/47
f 54/39/48 53/38/47 48/34/43
f 54/39/48 55/10/49 53/38/47
f 48/34/41 49/35/42 56/39/50
f 57/8/51 56/39/50 49/35/42
f 58/29/33 59/40/52 60/27/35
f 61/41/53 62/27/54 59/40/55
f 62/27/54 61/41/53 63/42/56
f 64/21/22 62/27/54 63/42/56
f 65/43/57 66/41/58 67/32/59
f 68/40/55 69/30/60 66/41/61
f 70/36/62 65/43/57 71/32/45
f 71/32/45 72/41/58 73/30/60
f 56/39/50 57/8/51 74/10/7
f 75/9/6 76/44/63 74/10/7
f 76/44/63 75/9/6 77/45/64
f 78/46/65 77/45/64 75/9/6
f 79/33/66 80/47/67 49/35/68
f 80/47/67 79/33/66 81/48/69
f 82/31/70 83/48/71 79/33/72
f 84/49/10 49/35/68 80/47/67
f 49/35/68 84/49/10 85/8/5
f 86/50/73 85/8/5 84/49/10
f 85/8/5 86/50/73 87/9/6
f 88/51/74 87/9/6 86/50/73
f 88/51/74 89/52/75 87/9/6
f 90/46/76 87/9/6 89/52/75
f 91/47/77 92/53/78 84/49/10
f 92/53/78 91/47/77 93/54/79
f 94/48/80 93/54/79 91/47/77
f 95/55/81 84/49/10 92/53/78
f 84/49/10 95/55/81 96/50/82
f 97/56/83 96/50/82 95/55/81
f 96/50/82 97/56/83 98/51/74
f 99/57/84 98/51/74 97/56/83
f 99/57/84 100/58/85 98/51/74
f 101/52/75 98/51/74 100/58/85
f 102/59/86 103/29/33 39/28/32
f 104/22/87 105/60/88 36/26/89
f 105/60/88 104/22/87 106/61/90
f 107/23/91 106/61/90 104/22/87
f 107/23/91 108/25/92 106/61/90
f 109/62/93 106/61/90 108/25/92
f 110/63/94 36/26/89 105/60/88
f 36/26/89 110/63/94 111/28/95
f 112/64/96 111/28/95 110/63/94
f 111/28/95 112/64/96 113/59/97
f 114/65/98 113/59/97 112/64/96
f 115/60/99 116/66/100 110/63/11
f 116/66/100 115/60/99 117/67/101
f 118/68/102 117/67/103 119/62/93
f 120/61/90 119/62/93 117/67/103
f 120/61/90 117/67/103 121/60/104
f 122/69/105 110/63/106 123/66/100
f 110/63/106 122/69/105 124/64/107
f 125/70/108 124/64/107 122/69/105
f 124/64/107 125/70/108 126/65/109
f 127/71/110 126/65/109 125/70/108
f 128/66/111 129/72/112 122/69/113
f 129/72/112 128/66/111 130/73/114
f 131/74/115 122/69/113 129/72/112
f 122/69/113 131/74/115 132/70/116
f 133/75/117 132/70/116 131/74/115
f 132/70/116 133/75/117 134/71/118
f 135/76/119 134/71/118 133/75/117
f 131/74/120 136/77/121 137/78/122
f 136/77/121 131/74/120 138/79/123
f 139/72/124 138/79/123 131/74/120
f 139/72/124 140/73/125 138/79/123
f 141/67/126 142/80/127 130/73/114
f 142/80/127 141/67/126 143/81/128
f 144/68/102 143/81/128 141/67/126
f 145/66/100 141/67/101 146/73/114
f 147/53/78 148/82/129 95/55/130
f 148/82/129 147/53/78 149/83/131
f 150/54/132 149/83/131 147/53/78
f 151/84/133 95/55/130 148/82/129
f 95/55/130 151/84/133 152/56/134
f 153/17/16 152/56/134 151/84/133
f 153/17/16 154/16/15 152/56/134
f 152/56/134 154/16/15 155/57/135
f 154/16/15 156/85/136 155/57/135
f 157/58/137 155/57/135 156/85/136
f 158/86/138 151/84/139 159/87/140
f 158/86/138 160/88/141 151/84/139
f 161/17/142 151/84/139 160/88/141
f 161/17/142 160/88/141 162/15/14
f 163/84/133 164/82/129 159/87/140
f 165/83/143 166/89/144 164/82/129
f 167/90/145 168/91/145 169/92/145
f 169/92/146 170/93/147 171/94/145
f 172/95/145 171/94/145 170/93/147
f 171/94/145 172/95/145 173/96/148
f 174/97/149 173/96/148 172/95/145
f 173/96/148 174/97/149 175/98/145
f 176/99/150 175/98/145 174/97/149
f 175/98/145 176/99/150 177/100/150
f 178/101/151 179/102/148 167/90/145
f 179/102/148 178/101/151 180/103/145
f 181/104/145 180/103/145 178/101/151
f 180/103/145 181/104/145 182/105/145
f 183/93/145 184/92/145 185/91/145
f 186/106/145 187/100/152 188/99/145
f 187/100/152 186/106/145 189/107/145
f 190/91/145 191/90/145 192/102/145
f 193/108/145 194/109/145 195/110/145
f 196/105/151 197/110/151 198/109/145
f 197/110/151 196/105/151 199/104/145
f 200/111/145 201/112/145 202/108/145
f 203/109/145 202/108/145 201/112/145
f 204/107/145 205/113/145 206/111/145
f 207/112/145 208/111/145 209/113/145
f 210/113/145 211/107/145 212/106/145
f 213/75/153 214/74/154 215/78/122
f 216/114/155 217/75/156 218/78/157
f 217/75/158 219/115/159 220/76/119
f 219/115/160 221/75/156 222/114/155
f 223/87/140 224/82/129 225/116/161
f 224/82/129 226/117/159 225/116/161
f 226/117/159 224/82/129 227/89/144
f 228/118/144 229/76/119 230/115/162
f 231/119/163 232/120/164 233/121/165
f 234/122/166 233/121/165 232/120/164
f 232/120/164 235/30/167 234/122/166
f 236/40/168 234/122/166 235/30/167
f 237/121/165 238/122/166 239/123/169
f 240/124/170 239/123/169 238/122/166
f 238/122/166 241/40/168 240/124/170
f 242/29/171 240/124/170 241/40/168
f 243/125/172 244/126/173 245/127/173
f 246/127/173 247/126/173 248/128/173
f 249/128/173 250/126/173 251/129/173
f 252/125/173 253/130/174 254/131/174
f 255/128/175 256/130/175 257/127/173
f 258/127/173 259/130/175 260/125/173
f 261/132/176 262/133/177 263/119/178
f 264/120/164 263/119/178 262/133/177
f 262/133/177 265/31/179 264/120/164
f 266/30/167 264/120/164 265/31/179
f 267/123/180 268/124/181 269/134/182
f 270/135/183 269/134/182 268/124/181
f 268/124/181 271/29/184 270/135/183
f 272/59/185 270/135/183 271/29/184
f 273/31/186 274/133/187 275/48/188
f 276/136/189 275/48/188 274/133/187
f 274/133/187 277/132/190 276/136/189
f 278/137/191 276/136/189 277/132/190
f 279/138/192 280/139/193 281/135/183
f 282/134/194 281/135/183 280/139/193
f 281/135/183 283/59/185 279/138/192
f 284/65/195 279/138/192 283/59/185
f 285/140/196 286/141/197 287/137/191
f 288/136/189 289/137/191 286/141/197
f 286/141/197 290/54/198 288/136/189
f 291/48/199 288/136/189 290/54/198
f 292/139/193 293/138/200 294/142/201
f 295/143/202 294/142/201 293/138/200
f 293/138/200 296/65/203 295/143/202
f 297/71/204 295/143/202 296/65/203
f 298/144/205 299/145/206 300/140/207
f 301/141/197 300/140/207 299/145/206
f 299/145/206 302/83/208 301/141/197
f 303/54/209 301/141/197 302/83/208
f 304/142/201 305/143/210 306/146/211
f 305/143/212 307/71/204 308/147/213
f 308/147/213 309/146/214 305/143/212
f 310/76/215 308/147/213 311/71/216
f 312/129/217 313/126/218 314/148/219
f 315/118/220 316/149/221 317/76/215
f 318/147/222 317/76/215 316/149/221
f 316/149/221 319/150/223 318/147/222
f 320/146/211 318/147/222 319/150/223
f 321/83/224 322/145/206 323/89/220
f 324/151/221 323/89/220 322/145/206
f 322/145/206 325/144/225 324/151/221
f 326/152/223 324/151/221 325/144/225
f 327/153/10 328/154/10 329/155/10
f 328/154/10 330/129/217 329/155/10
f 331/155/10 330/129/226 332/156/10
f 332/156/10 330/129/226 333/148/219
f 333/148/227 334/157/228 335/158/229
f 334/157/228 336/159/173 335/158/229
f 337/160/173 335/158/229 336/159/173
f 338/126/230 334/157/228 333/148/227
f 339/161/219 334/157/228 338/126/230
f 339/161/219 338/126/230 340/162/10
f 340/162/10 338/126/230 341/163/10
f 342/159/231 343/157/232 344/160/173
f 345/164/232 344/160/173 343/157/232
f 346/148/233 345/164/232 343/157/232
f 347/130/234 346/148/233 343/157/232
f 346/148/233 347/130/234 348/165/11
f 349/156/11 346/148/233 348/165/11
f 348/165/11 347/130/234 350/166/11
f 351/131/234 347/130/234 343/157/232
f 352/161/235 351/131/234 343/157/232
f 351/131/234 352/161/235 353/167/11
f 353/167/11 352/161/235 354/168/11
f 355/169/11 351/131/236 356/167/11
f 357/130/237 358/128/29 359/154/238
f 360/128/239 361/129/240 362/170/42
f 363/171/11 364/169/11 365/167/11
f 366/172/10 367/155/10 368/156/10
f 369/173/241 370/131/236 371/169/241
f 372/166/241 373/130/242 374/154/241
f 375/174/10 376/162/10 377/163/10
f 378/163/10 379/126/243 380/173/10
f 381/175/11 382/165/11 383/166/11
f 384/168/10 385/161/219 386/162/10
f 387/127/244 388/128/68 389/176/10
f 390/128/245 391/127/94 392/170/246
f 393/177/247 394/173/248 395/125/249
f 396/176/244 393/177/250 397/127/251
f 398/170/252 396/176/253 399/128/68
f 400/154/254 398/170/42 401/129/255
f 402/173/256 403/177/113 404/131/257
f 403/177/258 405/176/106 406/125/259
f 405/176/260 407/170/246 408/127/11
f 407/170/261 409/154/262 410/128/29
f 411/125/263 412/127/251 413/177/81
f 414/127/264 415/125/259 416/176/11
f 417/126/265 418/125/249 419/173/248
f 420/125/266 421/131/257 422/177/113
f 423/142/267 424/178/113 425/139/11
f 426/179/13 425/139/11 424/178/113
f 424/178/113 423/142/267 427/180/268
f 425/139/11 426/179/13 428/134/246
f 429/146/269 427/180/268 423/142/267
f 427/180/268 429/146/269 430/181/270
f 431/150/270 430/181/270 429/146/269
f 432/182/246 428/134/246 426/179/13
f 428/134/246 432/182/246 433/123/271
f 434/183/30 433/123/271 432/182/246
f 433/123/271 434/183/30 435/121/272
f 436/184/272 435/121/272 434/183/30
f 435/121/272 436/184/272 437/119/41
f 438/185/41 437/119/41 436/184/272
f 437/119/41 438/185/41 439/132/42
f 440/186/273 439/132/42 438/185/41
f 439/132/42 440/186/273 441/137/10
f 442/187/10 441/137/10 440/186/273
f 441/137/10 442/187/10 443/140/249
f 444/188/249 443/140/249 442/187/10
f 443/140/249 444/188/249 445/144/274
f 446/189/274 445/144/274 444/188/249
f 445/144/274 446/189/274 447/152/1
f 448/190/1 447/152/1 446/189/274
f 449/184/275 450/191/272 451/185/41
f 452/192/276 451/185/41 450/191/272
f 450/191/272 449/184/275 453/193/30
f 451/185/41 452/192/276 454/186/42
f 455/183/30 453/193/30 449/184/275
f 456/194/277 454/186/42 452/192/276
f 453/193/30 455/183/30 457/195/278
f 454/186/42 456/194/277 458/187/279
f 459/182/29 457/195/278 455/183/30
f 460/196/279 458/187/279 456/194/277
f 457/195/278 459/182/29 461/197/11
f 458/187/279 460/196/279 462/188/249
f 463/179/11 461/197/11 459/182/29
f 464/198/249 462/188/249 460/196/279
f 461/197/11 463/179/11 465/199/280
f 462/188/249 464/198/249 466/189/274
f 467/178/281 465/199/280 463/179/11
f 468/200/274 466/189/274 464/198/249
f 466/189/274 468/200/274 469/190/282
f 470/201/1 469/190/282 468/200/274
f 465/199/280 467/178/281 471/202/115
f 472/180/115 471/202/115 467/178/281
f 471/202/115 472/180/115 473/203/1
f 474/181/1 473/203/1 472/180/115
f 475/204/173 476/205/173 477/206/173
f 478/207/173 477/206/173 476/205/173
