# Blender 5.1.2
# www.blender.org
mtllib usp slide.mtl
o usp_slide
v 1.302006 -0.051287 -0.066472
v 1.311008 -0.021659 -0.033532
v 1.311008 -0.030200 -0.029933
v 1.302006 -0.067361 -0.054143
v 1.311008 -0.043160 -0.017062
v 1.302006 -0.079691 -0.038122
v 1.302006 -0.067361 -0.054143
v 1.311008 -0.037535 -0.024353
v 1.311008 -0.037535 0.025687
v 1.311008 -0.043160 -0.017062
v 1.311008 -0.030200 0.031357
v 1.302006 -0.079691 -0.038122
v 1.311008 -0.046688 -0.008513
v 1.302006 -0.090077 0.000668
v 1.302006 -0.087440 -0.019402
v 1.302006 -0.067361 0.055568
v 1.302006 -0.051287 0.067897
v 1.302006 -0.079691 -0.038122
v 1.311008 -0.046688 -0.008513
v 1.311008 -0.037535 -0.024353
v 1.311008 -0.030200 -0.029933
v 1.311008 -0.021659 0.034868
v 1.311008 -0.021659 -0.033532
v 1.311008 -0.047894 0.000668
v 1.311008 -0.046688 0.009847
v 1.302006 -0.090077 0.000668
v 1.302006 -0.087440 0.020738
v 1.311008 -0.043160 0.018398
v 1.311008 -0.043160 -0.017062
v 1.302006 -0.067361 0.055568
v 1.311008 -0.037535 0.025687
v 1.302006 -0.012506 0.078248
v 1.302006 -0.032576 0.075638
v 1.311008 -0.012506 0.036038
v 1.302006 0.007573 0.075638
v 1.302006 -0.032576 0.075638
v 1.311008 -0.030200 0.031357
v 1.302006 -0.051287 0.067897
v 1.302006 -0.067361 0.055568
v 1.311008 -0.037535 0.025687
v 1.311008 -0.003344 0.034868
v 1.302006 0.026284 0.067897
v 1.311008 -0.012506 -0.034702
v 1.311008 -0.003344 -0.033532
v 1.302006 0.042358 -0.054143
v 1.311008 0.018148 -0.017062
v 1.311008 0.012523 -0.024353
v 1.311008 0.012523 -0.024353
v 1.311008 0.018148 0.018398
v 1.311008 0.021685 0.009847
v 1.311008 0.021685 -0.008513
v 1.311008 0.022891 0.000668
v 1.302006 0.062428 -0.019402
v 1.302006 0.065074 0.000668
v 1.302006 -0.012506 -0.076912
v 1.302006 0.007573 -0.074303
v 1.302006 -0.032576 -0.074303
v 1.302006 -0.051287 -0.066472
v 1.311008 -0.021659 -0.033532
v 1.311008 0.005197 0.031357
v 1.311008 0.005197 -0.029933
v 1.311008 0.012523 0.025687
v 1.302006 0.007573 -0.074303
v 1.311008 0.005197 -0.029933
v 1.302006 0.026284 -0.066472
v 1.311008 -0.003344 -0.033532
v 1.311008 -0.012506 -0.034702
v 1.302006 0.026284 -0.066472
v 1.311008 0.012523 -0.024353
v 1.302006 0.042358 -0.054143
v 1.302006 0.054679 -0.038122
v 1.311008 0.018148 -0.017062
v 1.302006 0.062428 -0.019402
v 1.302006 0.054679 -0.038122
v 1.302006 0.062428 -0.019402
v 1.311008 0.021685 -0.008513
v 1.311008 0.012523 0.025687
v 1.311008 0.018148 0.018398
v 1.302006 0.062428 0.020738
v 1.302006 0.054679 0.039457
v 1.311008 0.022891 0.000668
v 1.302006 0.065074 0.000668
v 1.302006 0.062428 -0.019402
v 1.311008 0.021685 -0.008513
v 1.302006 0.042358 0.055568
v 1.311008 0.018148 0.018398
v 1.302006 0.062428 0.020738
v 1.311008 0.021685 0.009847
v 1.302006 0.042358 0.055568
v 1.302006 0.054679 0.039457
v 1.302006 0.026284 0.067897
v 1.311008 0.005197 0.031357
v 1.311008 -0.003344 0.034868
v 1.302006 0.042358 0.055568
v 1.311008 0.005197 0.031357
v 1.311008 0.012523 0.025687
v 1.302006 -0.067361 -0.054143
v 1.311008 -0.030200 -0.029933
v 1.311008 -0.037535 -0.024353
v 1.302006 -0.079691 0.039457
v 1.311008 -0.046688 0.009847
v 1.311008 -0.043160 0.018398
v 1.302006 -0.087440 0.020738
v 1.302006 -0.067361 0.055568
v 1.302006 -0.079691 0.039457
v 1.302006 -0.090077 0.000668
v 1.311008 -0.046688 -0.008513
v 1.311008 -0.047894 0.000668
v 1.302006 0.062428 0.020738
v 1.311008 0.021685 0.009847
v 1.311008 0.022891 0.000668
v 1.302006 -0.090077 0.000668
v 1.311008 -0.047894 0.000668
v 1.311008 -0.046688 0.009847
v 0.413528 -0.012506 0.046838
v 0.413528 -0.000536 -0.043973
v 0.413528 -0.012506 -0.045502
v 0.413528 -0.000536 0.045308
v 0.413528 -0.024467 0.045308
v 0.413528 0.010606 -0.039382
v 0.413528 -0.024467 -0.043973
v 0.413528 0.010605 0.040717
v 0.413528 -0.035609 -0.039382
v 0.413528 0.020173 -0.032003
v 0.413528 -0.035609 0.040717
v 0.413528 0.020173 0.033338
v 0.413528 -0.045176 0.033338
v 0.413528 0.027526 -0.022463
v 0.413528 -0.045176 -0.032003
v 0.413528 0.027526 0.023798
v 0.413528 -0.052520 0.023798
v 0.413528 0.032134 -0.011302
v 0.413528 0.032134 0.012638
v 0.413528 0.033709 0.000668
v 0.413528 -0.052520 -0.022463
v 0.413528 -0.057137 0.012638
v 0.413528 -0.057137 -0.011302
v 0.413528 -0.058712 0.000668
v 0.440081 0.032134 -0.011302
v 0.449075 0.056137 0.000668
v 0.449075 0.053788 -0.017062
v 0.440081 0.032134 -0.011302
v 0.440081 0.033709 0.000668
v 0.440081 -0.057137 -0.011302
v 0.449075 -0.081140 0.000668
v 0.440081 -0.058712 0.000668
v 0.440081 -0.057137 -0.011302
v 0.449075 -0.078791 -0.017062
v 0.440081 -0.024467 0.045308
v 0.449075 -0.012506 0.069338
v 0.440081 -0.012506 0.046838
v 0.440081 -0.000536 0.045308
v 0.440081 -0.012506 -0.045502
v 0.449075 0.005260 -0.065662
v 0.449075 -0.012506 -0.068003
v 0.449075 -0.030263 -0.065662
v 0.440081 0.032134 0.012638
v 0.449075 0.056137 0.000668
v 0.440081 0.033709 0.000668
v 0.440081 0.032134 0.012638
v 0.449075 0.053788 0.018398
v 0.440081 0.027526 0.023798
v 0.440081 -0.057137 -0.011302
v 0.449075 -0.071942 -0.033622
v 0.449075 -0.078791 -0.017062
v 0.440081 -0.045176 -0.032003
v 0.440081 -0.052520 -0.022463
v 0.440081 -0.035609 0.040717
v 0.449075 -0.030263 0.066998
v 0.440081 -0.024467 0.045308
v 0.449075 -0.046814 0.060068
v 0.449075 -0.030263 0.066998
v 0.440081 -0.000536 -0.043973
v 0.449075 0.021811 -0.058732
v 0.449075 0.005260 -0.065662
v 0.440081 -0.012506 -0.045502
v 0.440081 -0.035609 0.040717
v 0.449075 -0.061034 0.049178
v 0.449075 -0.046814 0.060068
v 0.440081 0.027526 0.023798
v 0.449075 0.036031 0.049178
v 0.449075 0.046939 0.034958
v 0.440081 -0.045176 -0.032003
v 0.449075 -0.046814 -0.058732
v 0.449075 -0.061034 -0.047842
v 0.440081 -0.045176 -0.032003
v 0.440081 -0.035609 -0.039382
v 0.440081 0.010606 -0.039382
v 0.449075 0.036031 -0.047842
v 0.449075 0.021811 -0.058732
v 0.440081 -0.000536 -0.043973
v 0.440081 -0.045176 0.033338
v 0.449075 -0.071942 0.034958
v 0.449075 -0.061034 0.049178
v 0.440081 0.010605 0.040717
v 0.449075 0.036031 0.049178
v 0.440081 0.020173 0.033338
v 0.440081 -0.035609 -0.039382
v 0.449075 -0.030263 -0.065662
v 0.449075 -0.046814 -0.058732
v 0.440081 0.027526 -0.022463
v 0.449075 0.036031 -0.047842
v 0.440081 0.020173 -0.032003
v 0.440081 -0.057137 0.012638
v 0.449075 -0.071942 0.034958
v 0.440081 -0.052520 0.023798
v 0.440081 -0.045176 0.033338
v 0.440081 0.010605 0.040717
v 0.449075 0.005260 0.066998
v 0.449075 0.021811 0.060068
v 0.449075 0.036031 0.049178
v 0.440081 -0.012506 -0.045502
v 0.449075 -0.030263 -0.065662
v 0.440081 -0.024467 -0.043973
v 0.440081 0.027526 -0.022463
v 0.449075 0.053788 -0.017062
v 0.449075 0.046930 -0.033622
v 0.440081 -0.057137 0.012638
v 0.449075 -0.081140 0.000668
v 0.449075 -0.078791 0.018398
v 0.440081 -0.057137 0.012638
v 0.440081 -0.058712 0.000668
v 0.440081 -0.000536 0.045308
v 0.449075 -0.012506 0.069338
v 0.449075 0.005260 0.066998
v 0.440081 -0.024467 0.045308
v 0.449075 -0.030263 0.066998
v 0.449075 -0.012506 0.069338
v 0.440081 -0.057137 -0.011302
v 0.440081 -0.052520 -0.022463
v 0.449075 -0.071942 -0.033622
v 0.440081 0.027526 0.023798
v 0.449075 0.046939 0.034958
v 0.449075 0.053788 0.018398
v 0.440081 -0.045176 -0.032003
v 0.449075 -0.061034 -0.047842
v 0.449075 -0.071942 -0.033622
v 0.440081 -0.035609 0.040717
v 0.440081 -0.045176 0.033338
v 0.449075 -0.061034 0.049178
v 0.440081 0.027526 0.023798
v 0.440081 0.020173 0.033338
v 0.449075 0.036031 0.049178
v 0.440081 0.010606 -0.039382
v 0.440081 0.020173 -0.032003
v 0.449075 0.036031 -0.047842
v 0.440081 0.027526 -0.022463
v 0.449075 0.046930 -0.033622
v 0.440081 -0.035609 -0.039382
v 0.440081 -0.024467 -0.043973
v 0.449075 -0.030263 -0.065662
v 0.440081 -0.057137 0.012638
v 0.449075 -0.078791 0.018398
v 0.449075 -0.071942 0.034958
v 0.440081 0.010605 0.040717
v 0.440081 -0.000536 0.045308
v 0.449075 0.005260 0.066998
v 0.440081 0.027526 -0.022463
v 0.440081 0.032134 -0.011302
v 0.449075 0.053788 -0.017062
v 0.493989 0.042358 0.055568
v 0.485255 0.021811 0.060068
v 0.493989 0.026293 0.067897
v 0.493989 -0.067361 0.055568
v 0.485255 -0.046814 0.060068
v 0.485255 -0.061034 0.049178
v 0.493989 -0.032576 -0.074303
v 0.485255 -0.046814 -0.058732
v 0.485255 -0.030263 -0.065662
v 0.493989 0.054679 -0.038122
v 0.485255 0.036031 -0.047842
v 0.485255 0.046930 -0.033622
v 0.493989 0.054679 0.039457
v 0.485255 0.036031 0.049178
v 0.493989 0.042358 0.055568
v 0.485255 0.021811 0.060068
v 0.493989 -0.087431 0.020738
v 0.485255 -0.071942 0.034958
v 0.485255 -0.078791 0.018398
v 0.493989 -0.051287 -0.066472
v 0.485255 -0.061034 -0.047842
v 0.485255 -0.046814 -0.058732
v 0.493989 0.042358 -0.054143
v 0.485255 0.021811 -0.058732
v 0.485255 0.036031 -0.047842
v 0.493989 0.007573 0.075638
v 0.485255 0.021811 0.060068
v 0.485255 0.005260 0.066998
v 0.493989 0.007573 0.075638
v 0.485255 -0.012506 0.069338
v 0.493989 -0.079691 0.039457
v 0.485255 -0.061034 0.049178
v 0.485255 -0.071942 0.034958
v 0.493989 -0.012506 -0.076912
v 0.485255 -0.030263 -0.065662
v 0.485255 -0.012506 -0.068003
v 0.485255 0.005260 -0.065662
v 0.493989 0.062428 -0.019402
v 0.485255 0.046930 -0.033622
v 0.485255 0.053788 -0.017062
v 0.493989 -0.090077 0.000668
v 0.485255 -0.078791 0.018398
v 0.485255 -0.081140 0.000668
v 0.493989 0.007573 0.075638
v 0.485255 -0.012506 0.069338
v 0.493989 -0.012506 0.078248
v 0.485255 -0.030263 0.066998
v 0.493989 0.065074 0.000668
v 0.485255 0.053788 -0.017062
v 0.485255 0.056137 0.000668
v 0.493989 0.062428 -0.019402
v 0.485255 0.053788 -0.017062
v 0.493989 -0.090077 0.000668
v 0.485255 -0.078791 -0.017062
v 0.493989 -0.087431 -0.019402
v 0.493989 -0.012506 0.078248
v 0.485255 -0.030263 0.066998
v 0.493989 -0.032576 0.075638
v 0.493989 -0.012506 -0.076912
v 0.485255 0.005260 -0.065662
v 0.493989 0.007573 -0.074303
v 0.493989 0.062428 0.020738
v 0.485255 0.056137 0.000668
v 0.485255 0.053788 0.018398
v 0.493989 -0.087431 -0.019402
v 0.485255 -0.071942 -0.033622
v 0.493989 -0.079691 -0.038122
v 0.493989 -0.032576 0.075638
v 0.485255 -0.046814 0.060068
v 0.493989 -0.051287 0.067897
v 0.493989 0.054679 0.039457
v 0.485255 0.053788 0.018398
v 0.485255 0.046939 0.034958
v 0.493989 0.062428 0.020738
v 0.493989 -0.067361 -0.054143
v 0.485255 -0.071942 -0.033622
v 0.485255 -0.061034 -0.047842
v 0.493989 -0.067361 -0.054143
v 0.493989 -0.079691 -0.038122
v 0.493989 0.007573 -0.074303
v 0.485255 0.021811 -0.058732
v 0.493989 0.026293 -0.066472
v 0.493989 -0.067361 0.055568
v 0.493989 -0.051287 0.067897
v 0.485255 -0.046814 0.060068
v 0.493989 -0.032576 -0.074303
v 0.493989 -0.051287 -0.066472
v 0.485255 -0.046814 -0.058732
v 0.493989 0.054679 -0.038122
v 0.493989 0.042358 -0.054143
v 0.485255 0.036031 -0.047842
v 0.493989 0.054679 0.039457
v 0.485255 0.046939 0.034958
v 0.485255 0.036031 0.049178
v 0.493989 -0.087431 0.020738
v 0.493989 -0.079691 0.039457
v 0.485255 -0.071942 0.034958
v 0.493989 -0.051287 -0.066472
v 0.493989 -0.067361 -0.054143
v 0.485255 -0.061034 -0.047842
v 0.493989 0.042358 -0.054143
v 0.493989 0.026293 -0.066472
v 0.485255 0.021811 -0.058732
v 0.493989 0.007573 0.075638
v 0.493989 0.026293 0.067897
v 0.485255 0.021811 0.060068
v 0.493989 -0.079691 0.039457
v 0.493989 -0.067361 0.055568
v 0.485255 -0.061034 0.049178
v 0.493989 -0.012506 -0.076912
v 0.493989 -0.032576 -0.074303
v 0.485255 -0.030263 -0.065662
v 0.493989 0.062428 -0.019402
v 0.493989 0.054679 -0.038122
v 0.485255 0.046930 -0.033622
v 0.493989 -0.090077 0.000668
v 0.493989 -0.087431 0.020738
v 0.485255 -0.078791 0.018398
v 0.493989 -0.090077 0.000668
v 0.485255 -0.081140 0.000668
v 0.485255 -0.078791 -0.017062
v 0.493989 0.062428 0.020738
v 0.493989 0.065074 0.000668
v 0.485255 0.056137 0.000668
v 0.493989 -0.087431 -0.019402
v 0.485255 -0.078791 -0.017062
v 0.485255 -0.071942 -0.033622
v 0.493989 -0.032576 0.075638
v 0.485255 -0.030263 0.066998
v 0.485255 -0.046814 0.060068
v 0.493989 0.007573 -0.074303
v 0.485255 0.005260 -0.065662
v 0.485255 0.021811 -0.058732
v 0.449075 -0.061034 -0.047842
v 0.485255 -0.046814 -0.058732
v 0.485255 -0.061034 -0.047842
v 0.449075 -0.046814 -0.058732
v 0.449075 -0.071942 -0.033622
v 0.485255 -0.030263 -0.065662
v 0.485255 -0.071942 -0.033622
v 0.449075 -0.030263 -0.065662
v 0.449075 -0.078791 -0.017062
v 0.485255 -0.012506 -0.068003
v 0.485255 -0.078791 -0.017062
v 0.449075 -0.081140 0.000668
v 0.485255 -0.081140 0.000668
v 0.449075 -0.012506 -0.068003
v 0.485255 0.005260 -0.065662
v 0.449075 0.005260 -0.065662
v 0.485255 0.021811 -0.058732
v 0.449075 0.021811 -0.058732
v 0.485255 0.036031 -0.047842
v 0.449075 0.036031 -0.047842
v 0.485255 0.046930 -0.033622
v 0.440081 -0.012506 0.046838
v 0.413528 -0.000536 0.045308
v 0.413528 -0.012506 0.046838
v 0.440081 -0.024467 0.045308
v 0.413528 0.020173 -0.032003
v 0.440081 0.027526 -0.022463
v 0.440081 0.020173 -0.032003
v 0.413528 0.010606 -0.039382
v 0.413528 0.027526 -0.022463
v 0.440081 0.032134 -0.011302
v 0.440081 0.027526 -0.022463
v 0.413528 0.020173 -0.032003
v 0.440081 -0.035609 -0.039382
v 0.413528 -0.045176 -0.032003
v 0.413528 -0.035609 -0.039382
v 0.440081 -0.024467 -0.043973
v 0.440081 -0.045176 -0.032003
v 0.413528 -0.052520 -0.022463
v 0.413528 -0.045176 -0.032003
v 0.440081 -0.035609 -0.039382
v 0.440081 -0.052520 -0.022463
v 0.413528 -0.057137 -0.011302
v 0.413528 -0.052520 -0.022463
v 0.440081 -0.045176 -0.032003
v 0.440081 -0.057137 -0.011302
v 0.413528 -0.058712 0.000668
v 0.413528 -0.057137 -0.011302
v 0.440081 -0.058712 0.000668
v 0.440081 -0.052520 -0.022463
v 0.440081 0.033709 0.000668
v 0.440081 0.032134 -0.011302
v 0.413528 0.032134 -0.011302
v 0.413528 0.027526 -0.022463
v 0.440081 -0.012506 -0.045502
v 0.413528 -0.024467 -0.043973
v 0.413528 -0.012506 -0.045502
v 0.440081 -0.024467 -0.043973
v 0.413528 -0.035609 -0.039382
v 0.440081 -0.000536 -0.043973
v 0.413528 -0.000536 -0.043973
v 0.440081 0.010606 -0.039382
v 0.413528 0.010606 -0.039382
v 0.440081 0.020173 -0.032003
v 0.413528 -0.024467 0.045308
v 0.440081 -0.035609 0.040717
v 0.440081 -0.024467 0.045308
v 0.413528 -0.012506 0.046838
v 0.413528 -0.035609 0.040717
v 0.440081 -0.045176 0.033338
v 0.413528 -0.045176 0.033338
v 0.440081 -0.052520 0.023798
v 0.413528 -0.052520 0.023798
v 0.440081 -0.057137 0.012638
v 0.413528 -0.057137 0.012638
v 0.440081 -0.058712 0.000668
v 0.413528 -0.058712 0.000668
v 0.440081 -0.000536 0.045308
v 0.413528 0.010605 0.040717
v 0.413528 -0.000536 0.045308
v 0.440081 -0.012506 0.046838
v 0.440081 0.010605 0.040717
v 0.413528 0.020173 0.033338
v 0.440081 0.020173 0.033338
v 0.413528 0.027526 0.023798
v 0.440081 0.027526 0.023798
v 0.413528 0.032134 0.012638
v 0.440081 0.032134 0.012638
v 0.413528 0.033709 0.000668
v 0.440081 0.033709 0.000668
v 0.413528 0.032134 -0.011302
v 0.449075 -0.061034 0.049178
v 0.485255 -0.071942 0.034958
v 0.485255 -0.061034 0.049178
v 0.449075 -0.071942 0.034958
v 0.449075 -0.046814 0.060068
v 0.485255 -0.078791 0.018398
v 0.485255 -0.046814 0.060068
v 0.449075 -0.078791 0.018398
v 0.485255 -0.081140 0.000668
v 0.449075 -0.081140 0.000668
v 0.449075 -0.030263 0.066998
v 0.485255 -0.030263 0.066998
v 0.449075 -0.012506 0.069338
v 0.485255 -0.012506 0.069338
v 0.449075 0.005260 0.066998
v 0.485255 0.005260 0.066998
v 0.449075 0.021811 0.060068
v 0.485255 0.021811 0.060068
v 0.449075 0.036031 0.049178
v 0.485255 0.036031 0.049178
v 0.449075 0.046939 0.034958
v 0.485255 0.046939 0.034958
v 0.449075 0.053788 0.018398
v 0.485255 0.053788 0.018398
v 0.449075 0.056137 0.000668
v 0.485255 0.056137 0.000668
v 0.449075 0.053788 -0.017062
v 0.485255 0.053788 -0.017062
v 0.449075 0.046930 -0.033622
v 0.485255 0.046930 -0.033622
v 0.449075 0.036031 -0.047842
v 1.302006 0.026284 -0.066472
v 0.493989 0.007573 -0.074303
v 0.493989 0.026293 -0.066472
v 1.302006 0.007573 -0.074303
v 1.302006 0.042358 -0.054143
v 0.493989 -0.012506 -0.076912
v 0.493989 0.042358 -0.054143
v 1.302006 -0.012506 -0.076912
v 1.302006 0.054679 -0.038122
v 0.493989 -0.032576 -0.074303
v 0.493989 0.054679 -0.038122
v 1.302006 -0.032576 -0.074303
v 1.302006 0.062428 -0.019402
v 0.493989 -0.051287 -0.066472
v 0.493989 0.062428 -0.019402
v 1.302006 -0.051287 -0.066472
v 1.302006 0.065074 0.000668
v 0.493989 -0.067361 -0.054143
v 0.493989 0.065074 0.000668
v 1.302006 -0.067361 -0.054143
v 1.302006 0.062428 0.020738
v 0.493989 -0.079691 -0.038122
v 0.493989 0.062428 0.020738
v 1.302006 -0.079691 -0.038122
v 1.302006 0.054679 0.039457
v 0.493989 -0.087431 -0.019402
v 0.493989 0.054679 0.039457
v 1.302006 -0.087440 -0.019402
v 0.493989 -0.090077 0.000668
v 1.302006 -0.090077 0.000668
v 1.302006 0.042358 0.055568
v 0.493989 0.042358 0.055568
v 1.302006 0.026284 0.067897
v 0.493989 0.026293 0.067897
v 1.302006 0.007573 0.075638
v 0.493989 0.007573 0.075638
v 1.302006 -0.012506 0.078248
v 0.493989 -0.012506 0.078248
v 1.302006 -0.032576 0.075638
v 0.493989 -0.032576 0.075638
v 1.302006 -0.051287 0.067897
v 0.493989 -0.051287 0.067897
v 1.302006 -0.067361 0.055568
v 0.493989 -0.067361 0.055568
v 1.302006 -0.079691 0.039457
v 0.493989 -0.079691 0.039457
v 1.302006 -0.087440 0.020738
v 0.493989 -0.087431 0.020738
v 1.302006 -0.090077 0.000668
v 0.493989 -0.090077 0.000668
v 0.440527 0.011074 0.035228
v 0.440527 0.061141 0.044948
v 0.440527 0.054049 0.060337
v 0.440527 -0.087440 0.060337
v 0.440527 0.028804 0.020648
v 0.440527 0.061141 -0.043612
v 0.440527 0.035293 0.000668
v 0.440527 0.028804 -0.019222
v 0.440527 0.011074 -0.033803
v 0.440527 0.054049 -0.059002
v 0.440527 -0.013154 -0.039202
v 0.440527 -0.037373 -0.033803
v 0.440527 -0.087440 -0.059002
v 0.440527 -0.087440 -0.040193
v 0.440527 -0.055112 -0.019222
v 0.440527 -0.087440 0.041528
v 0.440527 -0.061602 0.000668
v 0.440527 -0.055112 0.020648
v 0.440527 -0.037373 0.035228
v 0.440527 -0.013154 0.040988
v 0.440527 0.054049 -0.059002
v 0.440527 -0.013154 -0.039202
v 0.440527 -0.037373 -0.033803
v 0.440527 -0.087440 0.060337
v 0.440527 -0.013154 0.040988
v 0.440527 0.011074 0.035228
v 0.419200 0.059332 0.035948
v 0.420999 0.052825 0.035948
v 0.418657 0.061222 0.017947
v 0.420999 0.052825 -0.034612
v 0.418657 0.061222 -0.016612
v 0.419200 0.059332 -0.034612
v 0.420999 0.052825 0.035948
v 0.418657 0.061222 -0.016612
v 0.418657 0.061222 0.017947
v 0.381125 0.054049 -0.059002
v 0.383020 0.061141 0.044948
v 0.381125 0.054049 0.060337
v 0.383020 0.061141 -0.043612
v -0.527602 0.020155 0.070238
v -0.522295 0.042304 0.070238
v -0.523105 0.038452 0.025868
v -0.517701 0.061420 -0.043612
v -0.517701 0.061420 0.045038
v -0.523105 0.038452 -0.024532
v -0.517701 0.061420 -0.043612
v -0.519410 0.054238 -0.059002
v -0.522206 0.042295 -0.068812
v -0.527513 0.020209 -0.068812
v -0.527870 0.018922 -0.024532
v -0.527513 0.020209 -0.068812
v -0.523105 0.038452 -0.024532
v -0.528502 0.016123 -0.073762
v -0.527870 0.018922 -0.024532
v -0.541823 -0.039551 -0.073762
v -0.541823 -0.039551 -0.043612
v -0.553345 -0.087521 -0.073762
v -0.549739 -0.072599 -0.059002
v -0.541912 -0.039713 -0.024532
v -0.528769 0.015097 -0.024532
v -0.528502 0.016123 -0.073762
v -0.541823 -0.039551 -0.043612
v -0.546409 -0.058469 -0.059002
v -0.546409 -0.058478 -0.043612
v -0.541823 -0.039551 -0.073762
v -0.549739 -0.072599 -0.059002
v -0.553345 -0.087521 -0.073762
v -0.549739 -0.072599 -0.052882
v -0.553345 -0.087458 -0.052882
v -0.514549 -0.058424 0.045038
v -0.514824 -0.039722 0.025868
v -0.514824 -0.039722 -0.024532
v -0.514824 -0.039560 0.045038
v -0.514549 -0.058424 -0.043612
v -0.514824 -0.039560 -0.043612
v -0.514824 0.014962 0.025868
v -0.514824 0.014962 -0.024532
v -0.514824 0.038452 0.025868
v -0.514824 0.038452 -0.024532
v -0.541823 -0.039551 0.045038
v -0.541823 -0.039533 0.075188
v -0.528502 0.016132 0.075188
v -0.546409 -0.058451 0.060337
v -0.549739 -0.072599 0.060337
v -0.553345 -0.087513 0.075188
v -0.553345 -0.087440 0.054218
v -0.528769 0.015097 0.025868
v -0.527959 0.018652 0.025868
v -0.541823 -0.039551 0.045038
v -0.546409 -0.058451 0.045038
v -0.546409 -0.058451 0.060337
v -0.541823 -0.039533 0.075188
v -0.528769 0.015097 0.025868
v -0.528502 0.016132 0.075188
v -0.541912 -0.039713 0.025868
v -0.523105 0.038452 0.025868
v -0.519410 0.054256 0.060338
v -0.517701 0.061420 0.045038
v -0.522295 0.042304 0.070238
v -0.527602 0.020155 0.070238
v -0.527959 0.018652 0.025868
v -0.553345 -0.087440 0.054218
v -0.549739 -0.072599 0.060337
v -0.549739 -0.072581 0.054218
v -0.413392 -0.058442 -0.059002
v -0.413392 -0.072545 -0.052882
v -0.413392 -0.072545 0.054218
v -0.413392 -0.072545 -0.059002
v -0.413482 -0.087359 -0.052882
v -0.413482 -0.087360 0.054218
v -0.413392 -0.058443 0.060337
v -0.413392 -0.072545 0.060337
v 0.440527 -0.087440 -0.059002
v 0.408755 0.041782 -0.068812
v 0.440527 0.054049 -0.059002
v 0.408755 -0.021560 -0.068812
v 0.395256 -0.025961 -0.073762
v 0.395256 -0.087440 -0.073762
v 0.440527 -0.087440 0.060337
v 0.408755 0.041782 0.070238
v 0.408755 -0.021560 0.070238
v 0.440527 0.054049 0.060337
v 0.395256 -0.025961 0.075188
v 0.395256 -0.087440 0.075188
v -0.244279 0.000589 0.066908
v -0.233663 -0.029714 0.066908
v -0.223316 -0.024945 0.071408
v -0.308185 -0.087431 -0.073762
v -0.506632 -0.087431 -0.073762
v -0.506632 0.016132 -0.073762
v -0.528502 0.016123 -0.073762
v -0.541823 -0.039551 -0.073762
v -0.553345 -0.087521 -0.073762
v -0.431932 0.016159 -0.073762
v -0.308185 0.016213 -0.073762
v -0.184341 0.016258 -0.073762
v -0.106222 -0.087431 -0.073762
v -0.106222 0.016276 -0.073762
v -0.077870 -0.001436 -0.073762
v -0.060683 -0.011210 -0.073762
v -0.036651 -0.019400 -0.073762
v -0.024593 -0.087431 -0.073762
v -0.012529 -0.025403 -0.073762
v 0.395256 -0.025961 -0.073762
v 0.395256 -0.087440 -0.073762
v -0.308185 0.020452 -0.068812
v -0.308185 0.042016 -0.068812
v -0.184341 0.041854 -0.068812
v -0.184341 0.020596 -0.068812
v -0.431932 0.020299 -0.068812
v -0.144289 0.041854 -0.068812
v -0.431932 0.042178 -0.068812
v -0.106222 0.020677 -0.068812
v -0.506632 0.042241 -0.068812
v -0.506632 0.020209 -0.068812
v -0.522206 0.042295 -0.068812
v -0.527513 0.020209 -0.068812
v 0.029858 0.041827 -0.068812
v -0.077870 0.002263 -0.068812
v -0.060230 -0.007259 -0.068812
v -0.036651 -0.014999 -0.068812
v -0.012625 -0.020993 -0.068812
v 0.394446 -0.021362 -0.068812
v 0.383288 0.041782 -0.068812
v 0.408755 0.041782 -0.068812
v 0.408755 -0.021560 -0.068812
v -0.144289 0.041854 -0.068812
v -0.184341 0.041854 -0.068812
v -0.184341 0.054094 -0.059002
v -0.144289 0.054094 -0.059002
v 0.029858 0.054076 -0.059002
v 0.029858 0.041827 -0.068812
v -0.144289 0.041854 -0.068812
v 0.383288 0.041782 -0.068812
v 0.029858 0.041827 -0.068812
v 0.381125 0.054049 -0.059002
v 0.420909 0.054049 -0.059002
v 0.408755 0.041782 -0.068812
v 0.440527 0.054049 -0.059002
v -0.244279 0.000589 0.066908
v -0.223316 -0.024945 0.071408
v -0.223851 0.000589 0.071408
v -0.233663 0.005305 0.066908
v -0.431932 0.042178 -0.068812
v -0.506632 0.042241 -0.068812
v -0.506632 0.054283 -0.059002
v -0.522206 0.042295 -0.068812
v -0.506632 0.054283 -0.059002
v -0.522206 0.042295 -0.068812
v -0.519410 0.054238 -0.059002
v -0.504112 0.061411 -0.043612
v -0.517701 0.061420 -0.043612
v -0.431932 0.016159 0.075188
v -0.506632 0.016132 0.075188
v -0.506632 -0.087431 0.075188
v -0.528502 0.016132 0.075188
v -0.541823 -0.039533 0.075188
v -0.553345 -0.087513 0.075188
v -0.308185 -0.087431 0.075188
v -0.308185 0.016213 0.075188
v -0.248240 -0.012623 0.075188
v -0.243654 -0.024945 0.075188
v -0.244279 0.000589 0.075188
v -0.233663 -0.029714 0.075188
v -0.233663 0.005305 0.075188
v -0.233663 0.016240 0.075188
v -0.144289 0.016267 0.075188
v -0.223851 0.000589 0.075188
v -0.144289 0.000589 0.075188
v -0.144289 -0.087431 0.075188
v -0.223316 -0.024945 0.075188
v -0.144289 -0.024945 0.075188
v -0.106222 -0.027590 0.075188
v 0.013571 -0.087431 0.075188
v 0.004301 -0.027590 0.075188
v 0.013571 -0.025961 0.075188
v 0.395256 -0.025961 0.075188
v 0.395256 -0.087440 0.075188
v -0.147620 0.000562 0.075008
v -0.162204 0.000562 0.075008
v -0.162204 -0.024962 0.075008
v -0.147620 -0.024962 0.075008
v 0.420909 0.054049 0.060337
v 0.383288 0.041782 0.070238
v 0.408755 0.041782 0.070238
v 0.440527 0.054049 0.060337
v 0.381125 0.054049 0.060337
v 0.029858 0.041782 0.070238
v 0.029858 0.054049 0.060337
v -0.144289 0.041827 0.070238
v -0.144289 0.054076 0.060337
v -0.184341 0.054094 0.060337
v -0.144289 0.041827 0.070238
v -0.184341 0.041854 0.070238
v -0.431932 0.042178 0.070238
v -0.506632 0.054283 0.060338
v -0.506632 0.042241 0.070238
v -0.522295 0.042304 0.070238
v -0.223851 0.000589 0.071408
v -0.223316 -0.024945 0.071408
v -0.165534 -0.024962 0.071408
v -0.165534 0.000562 0.071408
v -0.184341 0.054094 -0.059002
v -0.144289 0.061167 -0.043612
v -0.144289 0.054094 -0.059002
v -0.184341 0.061177 -0.043612
v -0.144289 0.061167 -0.043612
v -0.144289 0.061167 -0.043612
v 0.029858 0.061141 -0.043612
v 0.029858 0.061141 -0.043612
v 0.029858 0.054076 -0.059002
v 0.383020 0.061141 -0.043612
v 0.029858 0.061141 -0.043612
v 0.383020 0.061141 -0.043612
v 0.381125 0.054049 -0.059002
v 0.029858 0.054076 -0.059002
v 0.440527 0.061141 -0.043612
v 0.420909 0.054049 -0.059002
v 0.419021 0.061141 -0.043612
v 0.440527 0.054049 -0.059002
v 0.408755 0.041782 0.070238
v 0.394535 -0.021560 0.070238
v 0.408755 -0.021560 0.070238
v 0.383288 0.041782 0.070238
v 0.029858 0.003810 0.070238
v 0.029858 0.041782 0.070238
v 0.020410 -0.021560 0.070238
v -0.233663 0.020533 0.070238
v -0.144289 0.020641 0.070238
v -0.144289 0.041827 0.070238
v -0.184341 0.041854 0.070238
v -0.308185 0.042016 0.070238
v -0.308185 0.020452 0.070238
v -0.431932 0.020299 0.070238
v -0.431932 0.042178 0.070238
v -0.506632 0.042241 0.070238
v -0.506632 0.020209 0.070238
v -0.522295 0.042304 0.070238
v -0.527602 0.020155 0.070238
v -0.162204 0.000562 0.075008
v -0.165534 0.000562 0.071408
v -0.165534 -0.024962 0.071408
v -0.162204 -0.024962 0.075008
v -0.106222 0.020677 -0.068812
v -0.077870 0.002263 -0.068812
v -0.077870 -0.001436 -0.073762
v -0.060230 -0.007259 -0.068812
v -0.517701 0.061420 0.045038
v -0.506632 0.054283 0.060338
v -0.504112 0.061411 0.045038
v -0.519410 0.054256 0.060338
v -0.522295 0.042304 0.070238
v -0.060230 -0.007259 -0.068812
v -0.060683 -0.011210 -0.073762
v -0.077870 -0.001436 -0.073762
v -0.060230 -0.007259 -0.068812
v -0.036651 -0.014999 -0.068812
v -0.244279 0.000589 0.066908
v -0.243654 -0.024945 0.066908
v -0.233663 -0.029714 0.066908
v -0.248240 -0.012623 0.066908
v -0.144289 0.061167 0.044948
v -0.184341 0.054094 0.060337
v -0.144289 0.054076 0.060337
v -0.184341 0.061177 0.044948
v 0.029858 0.054049 0.060337
v 0.381125 0.054049 0.060337
v 0.383020 0.061141 0.044948
v 0.029858 0.061141 0.044948
v 0.440527 0.061141 0.044948
v 0.420909 0.054049 0.060337
v 0.440527 0.054049 0.060337
v 0.419021 0.061141 0.044948
v -0.528502 0.016123 -0.073762
v -0.527513 0.020209 -0.068812
v -0.506632 0.020209 -0.068812
v -0.413392 -0.058443 0.060337
v -0.546409 -0.058451 0.060337
v -0.546409 -0.058451 0.045038
v -0.413392 -0.058442 -0.059002
v -0.413392 -0.058443 0.060337
v -0.514549 -0.058424 0.045038
v -0.514549 -0.058424 -0.043612
v -0.413392 -0.058442 -0.059002
v -0.546409 -0.058478 -0.043612
v -0.546409 -0.058469 -0.059002
v -0.413392 -0.058443 0.060337
v -0.546409 -0.058451 0.045038
v -0.514549 -0.058424 0.045038
v -0.106222 0.020677 -0.068812
v -0.077870 -0.001436 -0.073762
v -0.106222 0.016276 -0.073762
v -0.106222 0.020677 -0.068812
v -0.184341 0.016258 -0.073762
v -0.184341 0.016258 -0.073762
v -0.184341 0.020596 -0.068812
v -0.308185 0.016213 -0.073762
v -0.308185 0.020452 -0.068812
v -0.431932 0.016159 -0.073762
v -0.431932 0.020299 -0.068812
v -0.506632 0.016132 -0.073762
v -0.506632 0.020209 -0.068812
v -0.528502 0.016123 -0.073762
v -0.413392 -0.058442 -0.059002
v -0.514549 -0.058424 -0.043612
v -0.546409 -0.058478 -0.043612
v 0.419200 0.059332 -0.034612
v 0.383288 0.061222 -0.016612
v 0.418657 0.061222 -0.016612
v 0.382745 0.059332 -0.034612
v 0.382745 0.059332 0.035948
v 0.418657 0.061222 0.017947
v 0.383288 0.061222 0.017947
v 0.382745 0.059332 0.035948
v 0.419200 0.059332 0.035948
v -0.184341 0.061177 -0.043612
v -0.184341 0.061177 0.044948
v -0.160130 0.061195 0.029558
v -0.160130 0.061195 -0.028223
v -0.144289 0.061167 -0.043612
v -0.144289 0.061177 -0.028223
v -0.184341 0.061177 0.044948
v -0.144289 0.061167 0.044948
v -0.144289 0.061177 0.029558
v -0.504112 0.061411 0.045038
v -0.504112 0.061411 -0.043612
v -0.517701 0.061420 -0.043612
v -0.517701 0.061420 0.045038
v 0.383020 0.061141 0.044948
v 0.383020 0.061141 -0.043612
v 0.029858 0.061141 -0.043612
v 0.029858 0.061141 0.044948
v 0.440527 0.061141 -0.043612
v 0.419021 0.061141 0.044948
v 0.440527 0.061141 0.044948
v 0.419021 0.061141 -0.043612
v -0.233663 0.020533 0.070238
v -0.308185 0.020452 0.070238
v -0.308185 0.016213 0.075188
v -0.233663 0.016240 0.075188
v -0.144289 0.016267 0.075188
v -0.144289 0.020641 0.070238
v -0.431932 0.016159 0.075188
v -0.431932 0.020299 0.070238
v -0.506632 0.016132 0.075188
v -0.506632 0.020209 0.070238
v -0.506632 0.016132 0.075188
v -0.528502 0.016132 0.075188
v -0.184341 0.041854 0.070238
v -0.184341 0.054094 -0.059002
v -0.184341 0.041854 -0.068812
v -0.184341 0.054094 0.060337
v -0.184341 0.061177 0.044948
v -0.184341 0.061177 -0.043612
v 0.420999 0.052825 -0.034612
v 0.382745 0.059332 -0.034612
v 0.419200 0.059332 -0.034612
v 0.380946 0.052825 -0.034612
v -0.527602 0.020155 0.070238
v -0.528502 0.016132 0.075188
v -0.506632 0.020209 0.070238
v 0.381125 0.054049 -0.059002
v 0.420909 0.054049 0.060337
v 0.420909 0.054049 -0.059002
v 0.381125 0.054049 0.060337
v -0.514824 -0.039722 0.025868
v -0.514824 -0.039560 0.045038
v -0.541823 -0.039551 0.045038
v -0.514824 -0.039722 -0.024532
v -0.541912 -0.039713 -0.024532
v -0.541823 -0.039551 -0.043612
v -0.514824 -0.039722 0.025868
v -0.541823 -0.039551 0.045038
v -0.541912 -0.039713 0.025868
v -0.514824 -0.039722 -0.024532
v -0.541823 -0.039551 -0.043612
v -0.514824 -0.039560 -0.043612
v -0.060683 -0.011210 -0.073762
v -0.036651 -0.014999 -0.068812
v -0.036651 -0.019400 -0.073762
v -0.012529 -0.025403 -0.073762
v -0.012625 -0.020993 -0.068812
v 0.395256 -0.025961 -0.073762
v -0.012529 -0.025403 -0.073762
v 0.394446 -0.021362 -0.068812
v 0.408755 -0.021560 -0.068812
v -0.308185 0.042016 -0.068812
v -0.431932 0.042178 -0.068812
v -0.431932 0.042178 0.070238
v -0.308185 0.042016 0.070238
v -0.184341 0.041854 -0.068812
v -0.184341 0.041854 0.070238
v 0.380946 0.052825 0.035948
v 0.419200 0.059332 0.035948
v 0.382745 0.059332 0.035948
v 0.420999 0.052825 0.035948
v -0.144289 -0.024962 0.066908
v -0.144289 0.000562 0.066908
v -0.147620 0.000562 0.075008
v -0.147620 -0.024962 0.075008
v 0.013571 -0.025961 0.075188
v 0.395256 -0.025961 0.075188
v 0.394535 -0.021560 0.070238
v 0.013571 -0.025961 0.075188
v 0.394535 -0.021560 0.070238
v 0.020410 -0.021560 0.070238
v 0.394535 -0.021560 0.070238
v 0.395256 -0.025961 0.075188
v 0.408755 -0.021560 0.070238
v -0.431932 0.042178 0.070238
v -0.506632 0.054283 -0.059002
v -0.431932 0.042178 -0.068812
v -0.506632 0.054283 0.060338
v -0.144289 0.000589 0.064298
v -0.144289 0.000589 0.075188
v -0.223851 0.000589 0.075188
v -0.223851 0.000589 0.064298
v -0.233663 0.005305 0.064298
v -0.223851 0.000589 0.064298
v -0.223851 0.000589 0.075188
v -0.233663 0.005305 0.075188
v -0.244279 0.000589 0.064298
v -0.244279 0.000589 0.075188
v -0.144289 -0.024674 0.060068
v -0.144289 0.037021 0.060068
v -0.144289 0.000589 0.064298
v -0.144289 -0.024746 0.064388
v -0.144289 0.020641 0.070238
v -0.144289 0.016267 0.075188
v -0.144289 0.000589 0.075188
v -0.144289 0.041827 0.070238
v -0.144289 0.054076 0.060337
v -0.144289 0.044338 0.053407
v -0.144289 0.061167 0.044948
v -0.144289 0.048208 0.042878
v -0.144289 0.048046 0.029558
v -0.144289 0.061177 0.029558
v -0.144289 0.000562 0.064298
v -0.144289 0.000562 0.066908
v -0.144289 -0.024962 0.066908
v -0.144289 -0.024962 0.064298
v -0.144289 0.061177 -0.028223
v -0.144289 0.048046 -0.028223
v -0.144289 0.048208 -0.041542
v -0.144289 0.061177 -0.028223
v -0.144289 0.048208 -0.041542
v -0.144289 0.061167 -0.043612
v -0.541912 -0.039713 0.025868
v -0.528769 0.015097 0.025868
v -0.514824 0.014962 0.025868
v -0.514824 -0.039722 0.025868
v -0.527959 0.018652 0.025868
v -0.523105 0.038452 0.025868
v -0.514824 0.038452 0.025868
v -0.144289 0.061177 0.029558
v -0.144289 0.048046 0.029558
v -0.160130 0.048208 0.029558
v -0.160130 0.061195 0.029558
v -0.160130 0.048208 -0.028223
v -0.160130 0.061195 -0.028223
v -0.160130 0.061195 0.029558
v -0.160130 0.048208 0.029558
v -0.523105 0.038452 0.025868
v -0.523105 0.038452 -0.024532
v -0.514824 0.038452 -0.024532
v -0.514824 0.038452 0.025868
v -0.106222 -0.027590 0.075188
v -0.144289 -0.024674 0.060068
v -0.144289 -0.024746 0.064388
v -0.106222 -0.027590 0.060518
v -0.144289 -0.024674 0.060068
v -0.144289 -0.024945 0.075188
v -0.223316 -0.024945 0.075188
v -0.223316 -0.024945 0.064298
v -0.233663 -0.029714 0.075188
v -0.233663 -0.029714 0.064298
v -0.243654 -0.024945 0.075188
v -0.243654 -0.024945 0.064298
v 0.004301 -0.027590 0.060518
v -0.106222 -0.027590 0.060518
v 0.004301 -0.027590 0.075188
v 0.013571 -0.025961 0.075188
v 0.013571 -0.025961 0.060518
v 0.018968 -0.021560 0.060518
v -0.181554 0.049072 -0.040732
v -0.144289 0.048046 -0.028223
v -0.160130 0.048208 -0.028223
v -0.144289 0.048208 -0.041542
v -0.181554 0.049072 -0.040732
v -0.181554 0.049072 -0.027412
v -0.181554 0.049072 -0.027412
v -0.160130 0.048208 0.029558
v -0.181554 0.049072 0.030368
v -0.144289 0.048208 0.042878
v -0.144289 0.048046 0.029558
v -0.181554 0.049072 0.043688
v -0.144289 0.044338 0.053407
v -0.181554 0.045210 0.054128
v -0.144289 0.048208 0.042878
v -0.514824 -0.039722 -0.024532
v -0.514824 0.014962 -0.024532
v -0.528769 0.015097 -0.024532
v -0.527870 0.018922 -0.024532
v -0.514824 0.014962 -0.024532
v -0.514824 0.038452 -0.024532
v -0.528769 0.015097 -0.024532
v -0.523105 0.038452 -0.024532
v -0.514824 -0.039722 -0.024532
v -0.528769 0.015097 -0.024532
v -0.541912 -0.039713 -0.024532
v 0.028416 0.037903 -0.057923
v 0.124629 0.048181 -0.041542
v 0.028416 0.048181 -0.041542
v 0.124629 0.037885 -0.057923
v 0.124629 0.048181 -0.041542
v -0.181554 0.037903 -0.057923
v -0.144289 0.048208 -0.041542
v -0.181554 0.049072 -0.040732
v 0.124629 0.048181 0.042878
v 0.028416 0.048181 0.042878
v 0.028416 0.044320 0.053407
v -0.144289 0.048208 -0.041542
v -0.181554 0.037903 -0.057923
v 0.124629 0.048181 0.042878
v 0.124629 0.044311 0.053407
v 0.028416 0.036985 0.060068
v 0.124629 0.036985 0.060068
v 0.028416 0.036985 0.060068
v -0.546409 -0.058451 0.045038
v -0.541823 -0.039551 0.045038
v -0.514824 -0.039560 0.045038
v -0.514549 -0.058424 0.045038
v -0.144289 0.061177 -0.028223
v -0.160130 0.061195 -0.028223
v -0.160130 0.048208 -0.028223
v -0.144289 0.048046 -0.028223
v -0.181554 -0.082661 -0.058372
v -0.181554 0.037903 0.060878
v -0.181554 -0.082661 0.060878
v -0.181554 0.045210 0.054128
v -0.181554 0.049072 -0.027412
v -0.181554 0.049072 -0.040732
v -0.181554 0.037903 -0.057923
v -0.181554 0.049072 0.030368
v -0.181554 0.049072 0.043688
v 0.028416 0.048181 -0.041542
v 0.029858 0.061141 -0.043612
v -0.144289 0.061167 -0.043612
v -0.144289 0.048208 -0.041542
v -0.413392 -0.072545 0.054218
v -0.413482 -0.087360 0.054218
v -0.553345 -0.087440 0.054218
v -0.549739 -0.072581 0.054218
v 0.124629 0.036985 0.060068
v 0.028416 0.003810 0.059348
v 0.028416 0.036985 0.060068
v 0.124629 0.003810 0.059348
v 0.124629 -0.021569 0.060518
v 0.018968 -0.021560 0.060518
v 0.028416 0.003810 0.059348
v 0.124629 -0.082679 0.060518
v 0.018968 -0.021560 0.060518
v 0.013571 -0.025961 0.060518
v 0.004301 -0.027590 0.060518
v -0.106222 -0.027590 0.060518
v -0.144289 -0.024674 0.060068
v -0.181554 -0.082661 0.060878
v -0.144289 0.037021 0.060068
v -0.181554 0.037903 0.060878
v -0.144289 0.037021 0.060068
v -0.413392 -0.072545 0.060337
v -0.549739 -0.072599 0.060337
v -0.546409 -0.058451 0.060337
v -0.413392 -0.058443 0.060337
v -0.144289 0.037021 0.060068
v -0.181554 0.045210 0.054128
v -0.144289 0.044338 0.053407
v -0.181554 0.037903 0.060878
v -0.546409 -0.058478 -0.043612
v -0.514549 -0.058424 -0.043612
v -0.514824 -0.039560 -0.043612
v -0.541823 -0.039551 -0.043612
v -0.413392 -0.072545 -0.052882
v -0.549739 -0.072599 -0.052882
v -0.553345 -0.087458 -0.052882
v -0.413482 -0.087359 -0.052882
v -0.413392 -0.072545 -0.052882
v -0.413392 -0.072545 -0.059002
v -0.549739 -0.072599 -0.059002
v -0.549739 -0.072599 -0.052882
v -0.413392 -0.072545 0.060337
v -0.413392 -0.072545 0.054218
v -0.549739 -0.072581 0.054218
v -0.413392 -0.072545 0.060337
v -0.549739 -0.072581 0.054218
v -0.549739 -0.072599 0.060337
v 0.124629 -0.082679 -0.059183
v 0.028416 0.037903 -0.057923
v 0.028416 -0.082661 -0.059183
v 0.124629 0.037885 -0.057923
v -0.181554 -0.082661 -0.058372
v -0.181554 0.037903 -0.057923
v -0.549739 -0.072599 -0.059002
v -0.413392 -0.072545 -0.059002
v -0.413392 -0.058442 -0.059002
v -0.546409 -0.058469 -0.059002
v 0.013571 -0.025961 0.075188
v 0.020410 -0.021560 0.070238
v 0.018968 -0.021560 0.060518
v -0.244279 0.000589 0.075188
v -0.248240 -0.012623 0.064298
v -0.244279 0.000589 0.064298
v -0.248240 -0.012623 0.075188
v -0.243654 -0.024945 0.075188
v -0.243654 -0.024945 0.064298
v 0.028416 0.003810 0.059348
v 0.018968 -0.021560 0.060518
v 0.020410 -0.021560 0.070238
v 0.020410 -0.021560 0.070238
v 0.029858 0.003810 0.070238
v 0.029858 0.041782 0.070238
v 0.029858 0.003810 0.070238
v 0.028416 0.036985 0.060068
v 0.029858 0.054049 0.060337
v 0.028416 0.044320 0.053407
v 0.029858 0.061141 0.044948
v 0.028416 0.048181 0.042878
v 0.029858 0.061141 -0.043612
v 0.029858 0.061141 -0.043612
v 0.028416 0.048181 -0.041542
v -0.506632 0.054283 -0.059002
v -0.504112 0.061411 -0.043612
v -0.504112 0.061411 0.045038
v -0.506632 0.054283 0.060338
v 0.382745 0.059332 0.035948
v 0.383288 0.061222 0.017947
v 0.380946 0.052825 0.035948
v 0.380946 0.052825 -0.034612
v 0.383288 0.061222 -0.016612
v 0.382745 0.059332 -0.034612
v 0.380946 0.052825 -0.034612
v 0.380946 0.052825 0.035948
v 0.383288 0.061222 0.017947
v 0.420909 0.054049 -0.059002
v 0.419021 0.061141 0.044948
v 0.419021 0.061141 -0.043612
v 0.420909 0.054049 -0.059002
v 0.420909 0.054049 0.060337
v 0.419021 0.061141 0.044948
vn 0.9781 -0.1025 -0.1814
vn 0.9934 -0.0316 -0.1104
vn 0.9940 -0.0552 -0.0947
vn 0.9773 -0.1497 -0.1498
vn 0.9773 -0.1498 -0.1497
vn 0.9940 -0.0947 -0.0552
vn 0.9780 -0.1814 -0.1026
vn 0.9938 -0.0789 -0.0789
vn 0.9938 -0.0789 0.0789
vn 0.9940 -0.0946 -0.0552
vn 0.9940 -0.0552 0.0946
vn 0.9781 -0.1814 -0.1025
vn 0.9934 -0.1104 -0.0316
vn 0.9787 -0.2052 -0.0000
vn 0.9772 -0.2049 -0.0552
vn 0.9934 -0.1104 -0.0315
vn 0.9773 -0.1497 0.1498
vn 0.9940 -0.0552 0.0947
vn 0.9781 -0.1025 0.1814
vn 0.9938 -0.0788 -0.0788
vn 0.9934 -0.0315 0.1104
vn 0.9934 -0.0315 -0.1104
vn 0.9939 -0.1104 -0.0000
vn 0.9934 -0.1103 -0.0315
vn 0.9934 -0.1103 0.0315
vn 0.9934 -0.1104 0.0315
vn 0.9772 -0.2049 0.0552
vn 0.9940 -0.0947 0.0552
vn 0.9938 -0.0789 0.0788
vn 0.9787 -0.0000 0.2053
vn 0.9772 -0.0551 0.2049
vn 0.9939 -0.0000 0.1104
vn 0.9772 0.0552 0.2049
vn 0.9772 -0.0552 0.2049
vn 0.9934 -0.0316 0.1104
vn 0.9934 0.0315 0.1104
vn 0.9781 0.1025 0.1814
vn 0.9939 -0.0000 -0.1104
vn 0.9934 0.0315 -0.1103
vn 0.9773 0.1497 -0.1498
vn 0.9940 0.0947 -0.0552
vn 0.9938 0.0789 -0.0789
vn 0.9938 0.0789 -0.0788
vn 0.9940 0.0946 0.0552
vn 0.9934 0.1104 0.0315
vn 0.9934 0.1103 -0.0315
vn 0.9939 0.1104 -0.0000
vn 0.9772 0.2049 -0.0552
vn 0.9787 0.2052 -0.0000
vn 0.9939 0.1105 -0.0000
vn 0.9787 -0.0000 -0.2053
vn 0.9772 0.0551 -0.2049
vn 0.9772 -0.0551 -0.2049
vn 0.9772 -0.0552 -0.2049
vn 0.9940 0.0552 0.0947
vn 0.9940 0.0552 -0.0946
vn 0.9938 0.0789 0.0789
vn 0.9772 0.0552 -0.2049
vn 0.9940 0.0552 -0.0947
vn 0.9934 0.0315 -0.1104
vn 0.9781 0.1025 -0.1814
vn 0.9939 -0.0000 -0.1105
vn 0.9940 0.0553 -0.0947
vn 0.9781 0.1814 -0.1025
vn 0.9934 0.1104 -0.0315
vn 0.9938 0.0788 -0.0788
vn 0.9772 0.2049 0.0552
vn 0.9781 0.1814 0.1025
vn 0.9940 0.0947 0.0552
vn 0.9772 0.2049 -0.0551
vn 0.9773 0.1498 0.1497
vn 0.9934 0.1104 0.0316
vn 0.9773 0.1497 0.1498
vn 0.9780 0.1026 0.1814
vn 0.9934 0.0316 0.1104
vn 0.9781 -0.1814 0.1025
vn 0.9934 -0.1104 0.0316
vn 0.9773 -0.1498 0.1497
vn 0.9780 -0.1814 0.1026
vn -1.0000 -0.0000 -0.0000
vn -0.9276 0.3616 -0.0943
vn -0.9290 0.3700 -0.0000
vn -0.9276 -0.3616 -0.0943
vn -0.9290 -0.3700 -0.0000
vn -0.9276 -0.0943 0.3616
vn -0.9290 -0.0000 0.3701
vn -0.9290 -0.0000 0.3702
vn -0.9276 0.0943 0.3616
vn -0.9290 -0.0000 -0.3701
vn -0.9276 0.0943 -0.3616
vn -0.9290 -0.0000 -0.3702
vn -0.9276 -0.0943 -0.3616
vn -0.9276 0.3616 0.0943
vn -0.9276 0.3223 0.1887
vn -0.9276 -0.3223 -0.1887
vn -0.9299 -0.2601 -0.2601
vn -0.9276 -0.1887 0.3223
vn -0.9276 -0.0944 0.3616
vn -0.9277 -0.1886 0.3223
vn -0.9276 0.1887 -0.3223
vn -0.9276 0.0944 -0.3616
vn -0.9290 -0.0000 -0.3700
vn -0.9299 -0.2600 0.2601
vn -0.9299 0.2601 0.2601
vn -0.9276 -0.1887 -0.3223
vn -0.9299 0.2600 -0.2601
vn -0.9299 -0.2601 0.2601
vn -0.9276 -0.3223 0.1887
vn -0.9276 0.1887 0.3223
vn -0.9276 0.3223 -0.1887
vn -0.9299 0.2601 -0.2600
vn -0.9299 0.2601 -0.2601
vn -0.9276 -0.3616 0.0943
vn -0.9276 -0.3223 0.1886
vn -0.9299 0.2600 0.2601
vn -0.9290 -0.0000 0.3700
vn -0.9277 -0.3223 -0.1886
vn -0.9275 -0.0944 -0.3616
vn -0.9276 0.0944 0.3616
vn -0.7145 0.4947 0.4947
vn -0.7162 0.3463 0.6060
vn -0.7145 -0.4947 0.4947
vn -0.7162 -0.3463 0.6060
vn -0.7146 -0.4946 0.4947
vn -0.7148 -0.1807 -0.6756
vn -0.7162 -0.3463 -0.6060
vn -0.7148 -0.1807 -0.6755
vn -0.7162 0.6060 -0.3463
vn -0.7145 0.4947 -0.4947
vn -0.7162 0.6059 -0.3463
vn -0.7162 0.6060 0.3463
vn -0.7162 0.3463 0.6059
vn -0.7148 -0.6755 0.1807
vn -0.7162 -0.6060 0.3462
vn -0.7145 -0.4946 -0.4947
vn -0.7162 0.3463 -0.6060
vn -0.7148 0.1807 0.6755
vn -0.7148 0.1807 0.6756
vn -0.7149 -0.0000 0.6992
vn -0.7162 -0.6060 0.3463
vn -0.7149 -0.0000 -0.6993
vn -0.7149 -0.0000 -0.6992
vn -0.7148 0.1806 -0.6756
vn -0.7148 0.6755 -0.1807
vn -0.7162 0.6060 -0.3462
vn -0.7149 -0.6992 -0.0000
vn -0.7148 -0.6756 0.1806
vn -0.7148 0.1806 0.6756
vn -0.7148 -0.1807 0.6756
vn -0.7149 0.6992 -0.0000
vn -0.7148 0.6756 -0.1806
vn -0.7148 0.6756 -0.1807
vn -0.7148 -0.6755 -0.1807
vn -0.7148 -0.6756 -0.1806
vn -0.7148 -0.1806 0.6756
vn -0.7148 0.1807 -0.6756
vn -0.7148 0.6756 0.1806
vn -0.7148 -0.6756 -0.1807
vn -0.7162 -0.6060 -0.3463
vn -0.7148 -0.1807 0.6755
vn -0.7162 -0.3462 0.6060
vn -0.7162 0.6060 0.3462
vn -0.7148 0.6756 0.1807
vn -0.7148 0.6755 0.1807
vn -0.7146 -0.4947 -0.4946
vn -0.7145 -0.4947 -0.4947
vn -0.7162 -0.6059 -0.3463
vn -0.7148 0.1807 -0.6755
vn -0.7162 0.3462 -0.6060
vn -0.7148 -0.6756 0.1807
vn -0.7162 0.3463 -0.6059
vn -0.7162 -0.6060 -0.3462
vn -0.0000 -0.7068 -0.7074
vn -0.0000 -0.4971 -0.8677
vn -0.0000 -0.8678 -0.4970
vn -0.0000 -0.2591 -0.9658
vn -0.0000 -0.8677 -0.4970
vn -0.0000 -0.2592 -0.9658
vn -0.0000 -0.9659 -0.2590
vn -0.0000 -0.0000 -1.0000
vn -0.0000 -1.0000 -0.0001
vn -0.0000 -1.0000 -0.0000
vn -0.0000 0.2592 -0.9658
vn -0.0000 0.4971 -0.8677
vn -0.0000 0.7070 -0.7072
vn -0.0000 0.7071 -0.7071
vn -0.0000 0.8677 -0.4971
vn -0.0000 -0.0000 1.0000
vn -0.0000 0.2590 0.9659
vn -0.0000 -0.2590 0.9659
vn -0.0000 0.8677 -0.4970
vn -0.0000 0.4970 -0.8677
vn -0.0000 0.8678 -0.4970
vn -0.0001 0.9658 -0.2592
vn -0.0000 -0.4969 -0.8678
vn -0.0000 -0.7071 -0.7071
vn -0.0000 -0.4970 -0.8678
vn -0.0000 -0.8677 -0.4971
vn -0.0000 -0.4970 -0.8677
vn -0.0000 -0.9658 -0.2592
vn -0.0000 -0.9658 -0.2591
vn -0.0000 -0.9659 -0.2591
vn -0.0000 1.0000 -0.0001
vn -0.0000 0.9659 -0.2591
vn -0.0000 0.9658 -0.2592
vn -0.0000 0.8678 -0.4969
vn -0.0000 -0.2591 -0.9659
vn -0.0000 -0.0001 -1.0000
vn -0.0000 0.2591 -0.9659
vn -0.0000 0.4969 -0.8678
vn -0.0000 -0.2591 0.9658
vn -0.0000 -0.4970 0.8678
vn -0.0000 -0.2592 0.9658
vn -0.0000 -0.4970 0.8677
vn -0.0000 -0.7074 0.7068
vn -0.0000 -0.8678 0.4970
vn -0.0000 -0.8677 0.4970
vn -0.0000 -0.9659 0.2589
vn -0.0000 -0.9659 0.2591
vn -0.0000 -1.0000 0.0001
vn -0.0000 0.2591 0.9659
vn -0.0000 0.4970 0.8677
vn -0.0000 0.2591 0.9658
vn -0.0000 0.0001 1.0000
vn -0.0000 0.7072 0.7070
vn -0.0000 0.8678 0.4970
vn -0.0000 0.9659 0.2591
vn -0.0000 0.9659 0.2590
vn -0.0000 1.0000 -0.0000
vn -0.0000 0.9659 -0.2590
vn -0.0000 -0.7068 0.7074
vn -0.0000 -0.4971 0.8677
vn -0.0000 -0.9659 0.2590
vn -0.0000 -0.2593 0.9658
vn -0.0000 0.2592 0.9658
vn -0.0000 0.4971 0.8677
vn -0.0000 0.7068 0.7074
vn -0.0000 0.7067 -0.7075
vn -0.0000 -0.2593 -0.9658
vn -0.0000 0.9658 -0.2593
vn -0.0000 0.9659 -0.2588
vn -0.0000 -0.7069 -0.7073
vn -0.0000 0.9659 0.2588
vn -0.0000 0.8677 0.4970
vn -0.0000 -0.9659 -0.2589
vn -0.0000 0.8677 0.4971
vn -0.0000 0.7071 0.7071
vn -0.0000 0.4970 0.8678
vn -0.0000 -0.2591 0.9659
vn -0.0000 -0.7075 0.7067
vn -0.0000 -0.8677 0.4971
vn 1.0000 -0.0000 -0.0000
vn 0.9633 0.2685 -0.0000
vn 0.9632 0.2686 -0.0000
vn 0.9632 0.2688 0.0001
vn 0.9658 -0.2592 -0.0000
vn 0.9659 -0.2590 -0.0000
vn 0.9658 -0.2591 -0.0000
vn -0.9737 0.2277 -0.0000
vn -0.9737 0.2278 -0.0000
vn -0.9737 0.2279 -0.0000
vn -0.9738 0.2276 -0.0000
vn -0.9715 0.2370 -0.0001
vn -0.9715 0.2370 -0.0000
vn -0.9999 -0.0157 -0.0000
vn -0.9999 -0.0156 -0.0000
vn -0.9999 -0.0158 -0.0000
vn -0.9737 0.2277 -0.0001
vn 0.3068 -0.0000 -0.9518
vn 0.2996 -0.0000 -0.9541
vn 0.3139 0.0078 -0.9494
vn 0.3233 0.0158 -0.9462
vn 0.3138 -0.0000 -0.9495
vn 0.3068 -0.0000 0.9518
vn 0.2996 -0.0000 0.9541
vn 0.3138 0.0080 0.9495
vn 0.3233 0.0158 0.9462
vn 0.3139 -0.0000 0.9495
vn -0.1732 0.0551 0.9834
vn -0.2361 -0.0866 0.9679
vn -0.1579 -0.0395 0.9867
vn -0.0000 0.6285 -0.7778
vn -0.0000 0.7816 -0.6238
vn -0.0000 0.7847 -0.6199
vn -0.0000 0.7342 -0.6790
vn -0.0000 0.8589 -0.5122
vn -0.1731 0.0551 0.9834
vn -0.1181 0.0472 0.9919
vn -0.1965 0.4322 0.8801
vn -0.0000 0.6323 -0.7747
vn -0.0000 0.6371 -0.7708
vn -0.0000 0.7417 -0.6708
vn -0.0000 0.7418 -0.6706
vn -0.0000 0.7708 -0.6371
vn -0.0000 0.9082 -0.4186
vn -0.0000 0.9052 -0.4250
vn -0.0000 0.7342 0.6790
vn -0.0000 0.6284 0.7779
vn -0.0000 0.8588 0.5122
vn -0.0000 0.6283 0.7779
vn -0.0000 0.7816 0.6238
vn -0.0001 0.6284 0.7779
vn 0.0001 0.6286 0.7777
vn -0.0000 0.6324 0.7747
vn -0.0000 0.7417 0.6707
vn -0.0000 0.6371 0.7708
vn -0.1578 -0.0394 0.9867
vn -0.0000 0.7817 -0.6237
vn -0.0000 0.9082 -0.4185
vn -0.0000 0.9083 -0.4184
vn -0.0000 0.7848 -0.6198
vn 0.0001 0.9082 -0.4185
vn -0.0000 0.7342 -0.6789
vn -0.0000 0.7847 -0.6198
vn -0.7341 -0.0000 0.6790
vn 0.2042 0.7304 -0.6518
vn 0.4333 0.7248 -0.5357
vn 0.4256 0.7172 -0.5517
vn 0.3234 0.7257 -0.6073
vn -0.0000 0.9082 0.4186
vn -0.0000 0.7418 0.6706
vn -0.0000 0.7708 0.6371
vn -0.0001 0.6371 0.7708
vn 0.3234 0.7256 -0.6073
vn 0.3148 0.7240 -0.6138
vn 0.4256 0.7172 -0.5518
vn 0.3147 0.7240 -0.6138
vn 0.2203 0.7317 -0.6451
vn -0.1730 0.0550 0.9834
vn -0.2359 -0.0865 0.9679
vn 0.0004 0.9083 0.4184
vn -0.0000 0.7817 0.6237
vn -0.0000 0.7817 0.6236
vn 0.0001 0.9082 0.4185
vn -0.0000 0.7342 0.6789
vn -0.0000 0.9082 0.4185
vn -0.0000 0.8589 0.5121
vn -0.0000 0.7709 -0.6370
vn 0.0001 -1.0000 -0.0000
vn -0.0002 -1.0000 -0.0000
vn -0.0000 -1.0000 -0.0079
vn 0.2042 0.7303 -0.6518
vn 0.2366 0.7253 -0.6465
vn 0.2041 0.7304 -0.6518
vn 0.2364 0.7253 -0.6465
vn -0.0000 0.7491 -0.6624
vn -0.0000 0.7492 -0.6624
vn -0.0000 0.7637 -0.6456
vn -0.0000 0.7708 -0.6370
vn -0.0000 -1.0000 0.0079
vn -0.0000 0.5328 -0.8463
vn -0.0000 0.6911 -0.7227
vn -0.0000 0.5271 -0.8498
vn -0.0000 0.5271 0.8498
vn -0.0000 0.6911 0.7227
vn -0.0000 0.5272 0.8498
vn -0.0000 0.5328 0.8462
vn -0.0002 1.0000 -0.0000
vn -0.0000 1.0000 -0.0002
vn -0.0000 0.7565 0.6540
vn -0.0000 0.7637 0.6456
vn -0.0001 0.7492 0.6623
vn -0.0000 0.7491 0.6624
vn -0.0000 0.7709 0.6370
vn -0.0000 0.5272 -0.8498
vn -0.0000 0.5328 -0.8462
vn -0.0000 -1.0000 0.0080
vn -0.0001 -1.0000 -0.0081
vn -0.0001 -1.0000 0.0080
vn -0.0000 -1.0000 -0.0078
vn 0.2203 0.7316 -0.6451
vn 0.2129 0.7255 -0.6545
vn 0.0870 0.7428 -0.6638
vn 0.0948 0.7423 -0.6633
vn 0.0079 0.7342 -0.6789
vn 0.0869 0.7428 -0.6638
vn 0.0947 0.7431 -0.6624
vn 0.9224 -0.0000 0.3863
vn -0.0000 0.7453 0.6668
vn -0.0000 0.7452 0.6668
vn -0.1580 -0.9874 -0.0000
vn -0.2277 -0.9737 -0.0000
vn -0.0158 -0.9999 -0.0000
vn -0.2278 -0.9737 -0.0000
vn -0.2279 -0.9737 -0.0000
vn -0.0155 -0.9999 -0.0000
vn 0.7708 -0.6371 -0.0000
vn 0.0394 0.9992 -0.0000
vn 0.0629 0.9980 0.0079
vn 0.0472 0.9988 0.0158
vn 0.0393 0.9992 -0.0000
vn 0.0393 0.9992 -0.0004
vn 0.0393 0.9991 0.0158
vn -0.2202 0.9755 -0.0000
vn -0.2202 0.9754 -0.0000
vn 0.0078 1.0000 -0.0000
vn 0.7564 0.6541 -0.0000
vn -0.0864 0.9963 -0.0000
vn -0.3373 0.9413 0.0157
vn -0.4250 0.9052 -0.0000
vn -0.7960 0.5990 0.0867
vn -0.0157 -0.9590 0.2829
vn -0.0157 -0.9998 -0.0157
vn -0.0157 -0.9994 -0.0315
vn -0.0079 -0.9290 0.3700
vn -0.0157 -0.9590 0.2828
vn -0.0394 -0.9992 -0.0000
vn -0.0393 -0.9992 -0.0000
vn -0.0393 -0.9987 0.0314
vn -0.0397 -0.9992 -0.0000
vn -0.0393 -0.9992 0.0079
vn -0.0316 -0.9870 -0.1578
vn -0.0079 -0.9999 0.0079
vn -0.0315 -0.9830 -0.1808
vn -0.0237 -0.8282 -0.5599
vn -0.0314 -0.9830 -0.1809
vn -0.0316 -0.9869 -0.1581
vn -0.0000 -0.8498 0.5272
vn -0.0000 -0.9591 0.2830
vn -0.0000 -0.9290 0.3700
vn -0.0000 -0.9591 0.2831
vn -0.0079 -0.8440 0.5363
vn -0.0079 -0.9290 0.3701
vn -0.0157 -0.9590 0.2830
vn -0.0079 -0.8439 0.5364
vn -0.0000 -0.9835 -0.1809
vn -0.0000 -0.8284 -0.5601
vn -0.0000 -0.9290 0.3701
vn -0.0079 -0.9289 0.3701
vn -0.0001 -0.9835 -0.1810
vn -0.0000 -0.8283 -0.5602
vn -0.0001 -0.3304 -0.9438
vn -0.0000 -0.3304 -0.9438
vn -0.0000 0.1657 0.9862
vn -0.0000 -0.3303 -0.9439
vn -0.0000 -0.0157 -0.9999
vn -0.0000 -0.0236 -0.9997
vn -0.0000 -0.0158 -0.9999
vn 0.0157 0.0629 -0.9979
vn -0.0079 -0.0079 -0.9999
vn -0.0204 -0.3397 -0.9403
vn -0.0237 -0.3467 -0.9377
vn -0.0237 -0.3397 -0.9402
vn -0.0237 -0.3398 -0.9402
vn -0.0237 -0.8281 -0.5600
vn -0.0237 -0.8281 -0.5601
vn -0.0236 -0.3467 -0.9377
vn -0.0004 1.0000 -0.0000
vn -0.0003 1.0000 -0.0000
vn -0.0000 -0.0158 0.9999
vn -0.0000 -0.0079 1.0000
vn -0.7484 0.6540 0.1103
vn 0.9995 0.0316 -0.0000
vn 0.9995 0.0315 -0.0000
vn 0.7565 0.6540 -0.0000
vn -0.9758 0.1731 0.1338
vn -0.7961 0.5989 0.0867
vn -0.7485 0.6539 0.1103
vn -0.9758 0.1732 0.1338
vn -0.9768 0.1733 0.1260
vn -0.9922 0.0394 0.1181
vn -0.9924 0.0945 0.0788
vn -0.9935 0.0946 0.0631
vn -0.9936 0.1104 0.0235
vn -0.9938 0.1104 0.0158
vn -0.9939 0.1106 -0.0000
vn 0.9438 -0.3304 -0.0000
vn 0.9439 -0.3303 -0.0000
vn -0.9633 0.2685 -0.0000
vn -0.9633 0.2684 -0.0000
vn -0.9632 0.2686 -0.0000
vn -0.9633 0.2686 -0.0001
vn -0.9659 -0.2591 -0.0000
vn -0.9658 -0.2592 -0.0000
vt 0.533700 0.104400
vt 0.516000 0.120200
vt 0.514100 0.115700
vt 0.527200 0.095900
vt 0.507300 0.108900
vt 0.518700 0.089300
vt 0.511200 0.111900
vt 0.484900 0.111800
vt 0.481900 0.115700
vt 0.502800 0.107000
vt 0.498000 0.083700
vt 0.508700 0.085200
vt 0.468900 0.095800
vt 0.462300 0.104300
vt 0.480100 0.120200
vt 0.498000 0.106400
vt 0.493200 0.107000
vt 0.487400 0.085100
vt 0.488700 0.108900
vt 0.456700 0.125000
vt 0.458200 0.114300
vt 0.479400 0.125000
vt 0.458100 0.135600
vt 0.480000 0.129800
vt 0.462300 0.145600
vt 0.516600 0.125000
vt 0.516000 0.129800
vt 0.527100 0.154200
vt 0.507300 0.141100
vt 0.511100 0.138200
vt 0.488700 0.141100
vt 0.493200 0.143000
vt 0.502800 0.143000
vt 0.498000 0.143600
vt 0.508600 0.164900
vt 0.498000 0.166300
vt 0.539300 0.125000
vt 0.537800 0.135700
vt 0.537900 0.114400
vt 0.481900 0.134300
vt 0.514100 0.134300
vt 0.484800 0.138100
vt 0.533700 0.145700
vt 0.518600 0.160800
vt 0.487300 0.164800
vt 0.477300 0.160700
vt 0.468800 0.154100
vt 0.477400 0.089300
vt 0.730400 0.362000
vt 0.682500 0.368300
vt 0.681700 0.362000
vt 0.729500 0.368300
vt 0.729500 0.355700
vt 0.684900 0.374200
vt 0.682500 0.355700
vt 0.727100 0.374200
vt 0.684900 0.349800
vt 0.688800 0.379200
vt 0.727100 0.349800
vt 0.723200 0.379200
vt 0.723200 0.344800
vt 0.693800 0.383100
vt 0.688800 0.344800
vt 0.718200 0.383100
vt 0.718200 0.340900
vt 0.699700 0.385500
vt 0.712300 0.385500
vt 0.706000 0.386400
vt 0.693800 0.340900
vt 0.712300 0.338500
vt 0.699700 0.338500
vt 0.706000 0.337700
vt 0.632800 0.330700
vt 0.638900 0.343900
vt 0.629600 0.342700
vt 0.638900 0.331500
vt 0.633000 0.285300
vt 0.639100 0.272100
vt 0.639100 0.284500
vt 0.629800 0.273300
vt 0.661700 0.302000
vt 0.674900 0.308100
vt 0.662500 0.308100
vt 0.661700 0.314200
vt 0.615500 0.307900
vt 0.604300 0.317200
vt 0.603100 0.307900
vt 0.604300 0.298600
vt 0.645000 0.330700
vt 0.648200 0.342700
vt 0.650700 0.328400
vt 0.621100 0.276800
vt 0.622400 0.291300
vt 0.627300 0.287600
vt 0.659400 0.296300
vt 0.673700 0.298800
vt 0.670100 0.290100
vt 0.616300 0.314000
vt 0.607800 0.325900
vt 0.664400 0.282700
vt 0.664300 0.333500
vt 0.656900 0.339200
vt 0.607900 0.290000
vt 0.613600 0.282500
vt 0.618700 0.296200
vt 0.618600 0.319700
vt 0.613500 0.333300
vt 0.655700 0.291400
vt 0.657000 0.276900
vt 0.659300 0.319800
vt 0.655500 0.324700
vt 0.627200 0.328300
vt 0.622300 0.324600
vt 0.645100 0.285300
vt 0.650800 0.287700
vt 0.673700 0.317400
vt 0.670100 0.326000
vt 0.616300 0.301800
vt 0.620900 0.339100
vt 0.648400 0.273300
vt 0.735800 0.391700
vt 0.736800 0.379800
vt 0.742500 0.383000
vt 0.735700 0.332400
vt 0.736800 0.344300
vt 0.731000 0.337100
vt 0.665300 0.351100
vt 0.675200 0.344300
vt 0.671700 0.352900
vt 0.685000 0.398300
vt 0.680900 0.387000
vt 0.688300 0.392500
vt 0.727000 0.398400
vt 0.731100 0.387000
vt 0.716900 0.321600
vt 0.723700 0.331500
vt 0.715200 0.327900
vt 0.669600 0.341000
vt 0.680900 0.337100
vt 0.676300 0.391700
vt 0.675200 0.379700
vt 0.746700 0.372900
vt 0.740300 0.371200
vt 0.741400 0.362100
vt 0.727000 0.325800
vt 0.663900 0.362000
vt 0.670600 0.362000
vt 0.671700 0.371200
vt 0.695200 0.402400
vt 0.696900 0.396000
vt 0.706000 0.320100
vt 0.706000 0.326800
vt 0.748100 0.362000
vt 0.740300 0.352900
vt 0.706000 0.403900
vt 0.706000 0.397300
vt 0.696800 0.327900
vt 0.695200 0.321600
vt 0.746700 0.351200
vt 0.665300 0.372900
vt 0.716900 0.402500
vt 0.715200 0.396200
vt 0.688300 0.331500
vt 0.685000 0.325700
vt 0.742400 0.341100
vt 0.723700 0.392600
vt 0.676300 0.332400
vt 0.669600 0.383000
vt 0.959600 0.298700
vt 0.949900 0.278800
vt 0.959800 0.278800
vt 0.949800 0.298700
vt 0.969500 0.298700
vt 0.940100 0.278800
vt 0.969700 0.278800
vt 0.939900 0.298700
vt 0.979300 0.298700
vt 0.930200 0.278800
vt 0.979500 0.278800
vt 0.989200 0.298700
vt 0.989400 0.278800
vt 0.930000 0.298700
vt 0.920300 0.278800
vt 0.920200 0.298700
vt 0.910500 0.278800
vt 0.910300 0.298700
vt 0.900600 0.278800
vt 0.900500 0.298700
vt 0.890700 0.278800
vt 0.560100 0.059900
vt 0.546100 0.066200
vt 0.546100 0.059800
vt 0.560100 0.053500
vt 0.546100 0.117000
vt 0.560000 0.110700
vt 0.560000 0.117100
vt 0.546000 0.123400
vt 0.546100 0.110700
vt 0.560000 0.104400
vt 0.559900 0.148900
vt 0.545900 0.155200
vt 0.546000 0.148800
vt 0.559900 0.142500
vt 0.559900 0.155200
vt 0.545900 0.161500
vt 0.559900 0.161600
vt 0.545900 0.167900
vt 0.559900 0.167900
vt 0.545900 0.174300
vt 0.559900 0.174300
vt 0.560100 0.098000
vt 0.546100 0.104300
vt 0.560000 0.136100
vt 0.546000 0.142500
vt 0.546000 0.136100
vt 0.560000 0.129800
vt 0.546000 0.129800
vt 0.560000 0.123400
vt 0.546100 0.053500
vt 0.560100 0.047100
vt 0.546100 0.047100
vt 0.560100 0.040800
vt 0.546100 0.040800
vt 0.560100 0.034400
vt 0.546100 0.034400
vt 0.560100 0.028100
vt 0.546100 0.028100
vt 0.560100 0.021700
vt 0.546100 0.021700
vt 0.560100 0.066200
vt 0.546100 0.072600
vt 0.560100 0.072600
vt 0.546100 0.078900
vt 0.560100 0.078900
vt 0.546100 0.085300
vt 0.560100 0.085300
vt 0.546100 0.091600
vt 0.560100 0.091600
vt 0.546100 0.098000
vt 0.782100 0.298700
vt 0.772400 0.278800
vt 0.782200 0.278800
vt 0.772300 0.298700
vt 0.792000 0.298700
vt 0.762500 0.278800
vt 0.792100 0.278800
vt 0.762400 0.298700
vt 0.752600 0.278800
vt 0.752500 0.298700
vt 0.801900 0.298700
vt 0.802000 0.278800
vt 0.811700 0.298700
vt 0.811800 0.278800
vt 0.821600 0.298700
vt 0.821700 0.278800
vt 0.831500 0.298700
vt 0.831600 0.278800
vt 0.841300 0.298700
vt 0.841400 0.278800
vt 0.851200 0.298700
vt 0.851300 0.278800
vt 0.861000 0.298700
vt 0.861100 0.278800
vt 0.870900 0.298700
vt 0.871000 0.278800
vt 0.880800 0.298700
vt 0.880900 0.278800
vt 0.890600 0.298700
vt 0.992700 0.183100
vt 0.567100 0.193000
vt 0.567100 0.182300
vt 0.992700 0.193800
vt 0.992700 0.172400
vt 0.567100 0.203700
vt 0.567200 0.171700
vt 0.992700 0.204500
vt 0.992800 0.161700
vt 0.567100 0.214400
vt 0.567200 0.161000
vt 0.992700 0.215100
vt 0.992800 0.151100
vt 0.567100 0.225000
vt 0.567200 0.150300
vt 0.992600 0.225800
vt 0.992800 0.140400
vt 0.567000 0.235700
vt 0.567200 0.139600
vt 0.992600 0.236500
vt 0.992800 0.129700
vt 0.567000 0.246400
vt 0.567200 0.128900
vt 0.992600 0.247200
vt 0.992800 0.119000
vt 0.567000 0.257100
vt 0.567300 0.118300
vt 0.992600 0.257900
vt 0.567000 0.267800
vt 0.992600 0.268500
vt 0.992900 0.108400
vt 0.567300 0.107600
vt 0.992900 0.097700
vt 0.567300 0.096900
vt 0.992900 0.087000
vt 0.567300 0.086200
vt 0.992900 0.076300
vt 0.567300 0.075500
vt 0.992900 0.065600
vt 0.567400 0.064900
vt 0.992900 0.055000
vt 0.567400 0.054200
vt 0.993000 0.044300
vt 0.567400 0.043500
vt 0.993000 0.033600
vt 0.567400 0.032800
vt 0.993000 0.022900
vt 0.567400 0.022100
vt 0.993000 0.012200
vt 0.567500 0.011500
vt 0.213935 0.632833
vt 0.211312 0.643905
vt 0.207176 0.642339
vt 0.207176 0.611048
vt 0.217857 0.636755
vt 0.235115 0.643905
vt 0.223214 0.638190
vt 0.228571 0.636755
vt 0.232492 0.632833
vt 0.239251 0.642339
vt 0.233927 0.627477
vt 0.232492 0.622120
vt 0.239251 0.611048
vt 0.234193 0.611048
vt 0.228571 0.618198
vt 0.212234 0.611048
vt 0.223214 0.616763
vt 0.217857 0.618198
vt 0.213935 0.622120
vt 0.212393 0.627477
vt 0.213735 0.643505
vt 0.213735 0.642067
vt 0.218573 0.643923
vt 0.232692 0.642067
vt 0.227854 0.643923
vt 0.232692 0.643505
vt 0.241899 0.634842
vt 0.241899 0.639739
vt 0.229988 0.638889
vt 0.211309 0.643968
vt 0.235118 0.643968
vt 0.216436 0.638889
vt 0.207176 0.642380
vt 0.204529 0.639739
vt 0.204529 0.634854
vt 0.216439 0.634570
vt 0.203204 0.633950
vt 0.203204 0.621639
vt 0.211300 0.621639
vt 0.203204 0.611030
vt 0.207176 0.614331
vt 0.216442 0.621603
vt 0.216439 0.633723
vt 0.207176 0.617455
vt 0.211303 0.617452
vt 0.208826 0.614331
vt 0.208826 0.611045
vt 0.235127 0.617464
vt 0.229985 0.621600
vt 0.216442 0.621600
vt 0.235127 0.621636
vt 0.211303 0.617464
vt 0.211300 0.621636
vt 0.229985 0.633693
vt 0.216439 0.633693
vt 0.235127 0.621639
vt 0.243224 0.621642
vt 0.243224 0.633953
vt 0.239251 0.617458
vt 0.239251 0.614331
vt 0.243224 0.611033
vt 0.237601 0.611048
vt 0.229985 0.633723
vt 0.229985 0.634511
vt 0.235127 0.617458
vt 0.229985 0.621603
vt 0.239251 0.642383
vt 0.237601 0.614334
vt 0.207176 0.617461
vt 0.208826 0.614343
vt 0.237601 0.614343
vt 0.207176 0.614343
vt 0.208826 0.611066
vt 0.237601 0.611066
vt 0.239251 0.617461
vt 0.239251 0.614343
vt 0.089900 0.611048
vt 0.098408 0.639626
vt 0.089900 0.642339
vt 0.098408 0.625617
vt 0.102028 0.624645
vt 0.102028 0.611048
vt 0.356528 0.611048
vt 0.348020 0.639626
vt 0.348020 0.625617
vt 0.356528 0.642339
vt 0.344400 0.624645
vt 0.344400 0.611048
vt 0.172819 0.630515
vt 0.175669 0.623815
vt 0.178453 0.624868
vt 0.290744 0.611051
vt 0.343988 0.611051
vt 0.343988 0.633953
vt 0.349861 0.633950
vt 0.353436 0.621639
vt 0.356519 0.611030
vt 0.323963 0.633959
vt 0.290744 0.633970
vt 0.257526 0.633979
vt 0.236564 0.611051
vt 0.236564 0.633985
vt 0.228954 0.630067
vt 0.224358 0.627906
vt 0.217897 0.626095
vt 0.214674 0.611051
vt 0.211448 0.624767
vt 0.290744 0.634908
vt 0.290744 0.639677
vt 0.257526 0.639641
vt 0.257526 0.634940
vt 0.323963 0.634875
vt 0.246782 0.639641
vt 0.323963 0.639712
vt 0.236564 0.634958
vt 0.343988 0.639727
vt 0.343988 0.634854
vt 0.348178 0.639739
vt 0.349598 0.634854
vt 0.200069 0.639635
vt 0.228954 0.630885
vt 0.224242 0.628781
vt 0.217897 0.627068
vt 0.211460 0.625743
vt 0.102246 0.625662
vt 0.105242 0.639626
vt 0.257526 0.642348
vt 0.246782 0.642348
vt 0.200069 0.642345
vt 0.105824 0.642339
vt 0.095152 0.642339
vt 0.178295 0.630515
vt 0.175669 0.631559
vt 0.343988 0.642389
vt 0.207176 0.514256
vt 0.204529 0.510066
vt 0.207176 0.510833
vt 0.211309 0.514924
vt 0.211309 0.511292
vt 0.122464 0.633959
vt 0.102440 0.633953
vt 0.102440 0.611051
vt 0.096561 0.633953
vt 0.092982 0.621642
vt 0.089900 0.611033
vt 0.155683 0.611051
vt 0.155683 0.633970
vt 0.171763 0.627593
vt 0.172977 0.624868
vt 0.175669 0.633976
vt 0.199645 0.633982
vt 0.199645 0.630515
vt 0.199645 0.611051
vt 0.199645 0.624868
vt 0.209863 0.624283
vt 0.241999 0.611051
vt 0.239510 0.624283
vt 0.241999 0.624645
vt 0.198747 0.630509
vt 0.194840 0.630509
vt 0.194840 0.624865
vt 0.198747 0.624865
vt 0.351276 0.642339
vt 0.341185 0.639626
vt 0.340604 0.642339
vt 0.246359 0.639626
vt 0.246359 0.642339
vt 0.199645 0.639635
vt 0.199645 0.642345
vt 0.188901 0.642348
vt 0.188901 0.639641
vt 0.122464 0.639712
vt 0.102440 0.642389
vt 0.102440 0.639727
vt 0.098241 0.639739
vt 0.193942 0.624865
vt 0.193942 0.630509
vt 0.207176 0.600718
vt 0.211312 0.611461
vt 0.207176 0.611461
vt 0.211312 0.600718
vt 0.211312 0.658175
vt 0.207176 0.658175
vt 0.211312 0.752930
vt 0.207176 0.752420
vt 0.211312 0.768344
vt 0.207176 0.763092
vt 0.211312 0.762584
vt 0.207176 0.768344
vt 0.344191 0.625617
vt 0.246359 0.631228
vt 0.243831 0.625617
vt 0.175669 0.634925
vt 0.199645 0.634949
vt 0.155683 0.639677
vt 0.155683 0.634908
vt 0.122464 0.634875
vt 0.102440 0.634854
vt 0.096817 0.634842
vt 0.243185 0.630509
vt 0.242212 0.630509
vt 0.242212 0.624865
vt 0.243185 0.624865
vt 0.204529 0.621680
vt 0.204529 0.629290
vt 0.203204 0.629290
vt 0.204529 0.634002
vt 0.235118 0.511286
vt 0.239251 0.514256
vt 0.235118 0.514924
vt 0.239251 0.510827
vt 0.241899 0.510057
vt 0.203204 0.633886
vt 0.204529 0.640347
vt 0.235115 0.611461
vt 0.239251 0.600718
vt 0.239251 0.611461
vt 0.235115 0.600718
vt 0.239251 0.658175
vt 0.239251 0.752420
vt 0.235115 0.752930
vt 0.235115 0.658175
vt 0.235115 0.768344
vt 0.239251 0.763092
vt 0.239251 0.768344
vt 0.235115 0.762584
vt 0.203204 0.508383
vt 0.204529 0.508645
vt 0.204529 0.514256
vt 0.207176 0.539276
vt 0.207176 0.503584
vt 0.211300 0.503587
vt 0.239251 0.539276
vt 0.211300 0.512122
vt 0.235124 0.512122
vt 0.235124 0.503590
vt 0.239251 0.503590
vt 0.203204 0.621680
vt 0.203204 0.600718
vt 0.204529 0.600718
vt 0.203204 0.567499
vt 0.204529 0.567499
vt 0.203204 0.534281
vt 0.204529 0.534281
vt 0.203204 0.514256
vt 0.213735 0.762629
vt 0.218573 0.753005
vt 0.218573 0.762492
vt 0.213735 0.752861
vt 0.232692 0.752861
vt 0.227854 0.762492
vt 0.227854 0.753005
vt 0.232692 0.762629
vt 0.230976 0.607200
vt 0.215451 0.607200
vt 0.215451 0.611461
vt 0.230976 0.611461
vt 0.241899 0.587485
vt 0.241899 0.567499
vt 0.243224 0.567499
vt 0.243224 0.587485
vt 0.243224 0.611461
vt 0.241899 0.611461
vt 0.243224 0.534281
vt 0.241899 0.534281
vt 0.243224 0.514256
vt 0.241899 0.514256
vt 0.243224 0.508377
vt 0.241899 0.639641
vt 0.207176 0.642348
vt 0.204529 0.639641
vt 0.239251 0.642348
vt 0.235115 0.643914
vt 0.211312 0.643914
vt 0.095134 0.642067
vt 0.105382 0.643505
vt 0.095615 0.643505
vt 0.105881 0.642067
vt 0.241899 0.508633
vt 0.216442 0.512047
vt 0.211300 0.512047
vt 0.211300 0.504802
vt 0.229985 0.512047
vt 0.229985 0.504793
vt 0.235127 0.504804
vt 0.216442 0.504793
vt 0.235127 0.512047
vt 0.203204 0.640347
vt 0.203204 0.646796
vt 0.204529 0.646784
vt 0.203204 0.756216
vt 0.204529 0.755998
vt 0.204529 0.759836
vt 0.241899 0.600718
vt 0.340547 0.642067
vt 0.350813 0.643505
vt 0.341045 0.643505
vt 0.351293 0.642067
vt 0.205424 0.624865
vt 0.205424 0.630509
vt 0.203243 0.630509
vt 0.203243 0.624865
vt 0.243224 0.653815
vt 0.243224 0.756216
vt 0.241899 0.756007
vt 0.241899 0.655647
vt 0.241899 0.759836
vt 0.000000 0.000000
vt 0.206122 0.611461
vt 0.203204 0.611461
vt 0.203204 0.590111
vt 0.206111 0.590111
vt 0.206111 0.587485
vt 0.203204 0.587485
vt 0.206111 0.584635
vt 0.203204 0.584635
vt 0.207248 0.624928
vt 0.207248 0.638572
vt 0.206122 0.630515
vt 0.206111 0.624913
vt 0.204529 0.634949
vt 0.203204 0.633982
vt 0.203204 0.630515
vt 0.204529 0.639635
vt 0.207176 0.642345
vt 0.209044 0.640190
vt 0.211312 0.643911
vt 0.211876 0.641046
vt 0.215451 0.641011
vt 0.215451 0.643914
vt 0.206122 0.630509
vt 0.206122 0.624865
vt 0.230976 0.643914
vt 0.230976 0.641011
vt 0.234551 0.641046
vt 0.235115 0.643911
vt 0.353451 0.621603
vt 0.349932 0.633723
vt 0.346196 0.633693
vt 0.346196 0.621600
vt 0.349703 0.634511
vt 0.348419 0.638889
vt 0.346196 0.638889
vt 0.246782 0.643914
vt 0.246785 0.641011
vt 0.251044 0.641046
vt 0.251044 0.643917
vt 0.230976 0.641046
vt 0.230976 0.643917
vt 0.215451 0.643917
vt 0.215451 0.641046
vt 0.216439 0.509824
vt 0.229991 0.509827
vt 0.229991 0.512047
vt 0.216439 0.512047
vt 0.243224 0.621680
vt 0.239180 0.611467
vt 0.240317 0.611464
vt 0.239293 0.621680
vt 0.243224 0.590270
vt 0.240317 0.590270
vt 0.240317 0.587485
vt 0.243224 0.584793
vt 0.240317 0.584793
vt 0.239293 0.651326
vt 0.243224 0.651326
vt 0.239293 0.653815
vt 0.239293 0.655256
vt 0.234336 0.601452
vt 0.230976 0.611458
vt 0.234551 0.611458
vt 0.230761 0.601452
vt 0.215237 0.601452
vt 0.211876 0.611458
vt 0.215451 0.611458
vt 0.211661 0.601452
vt 0.209044 0.611461
vt 0.208847 0.601452
vt 0.100231 0.621600
vt 0.100231 0.633693
vt 0.096498 0.633723
vt 0.096746 0.634570
vt 0.100231 0.638889
vt 0.098011 0.638889
vt 0.092976 0.621603
vt 0.238965 0.657787
vt 0.234551 0.683595
vt 0.234551 0.657787
vt 0.238965 0.683595
vt 0.238965 0.601452
vt 0.211876 0.683595
vt 0.211876 0.657787
vt 0.209047 0.657787
vt 0.209047 0.683595
vt 0.207248 0.657787
vt 0.207248 0.683595
vt 0.354657 0.617458
vt 0.353442 0.621639
vt 0.346196 0.621636
vt 0.346122 0.617464
vt 0.199645 0.643914
vt 0.195383 0.643917
vt 0.195383 0.641046
vt 0.199642 0.641011
vt 0.239081 0.612104
vt 0.207033 0.638766
vt 0.207033 0.612104
vt 0.208847 0.640384
vt 0.230761 0.641237
vt 0.234336 0.641237
vt 0.238965 0.638766
vt 0.215237 0.641237
vt 0.211661 0.641237
vt 0.245971 0.641040
vt 0.246359 0.643905
vt 0.199645 0.643911
vt 0.199642 0.641046
vt 0.318979 0.614343
vt 0.318991 0.611066
vt 0.356522 0.611048
vt 0.355567 0.614334
vt 0.174648 0.638563
vt 0.200457 0.631228
vt 0.200457 0.638563
vt 0.174648 0.631228
vt 0.174648 0.625614
vt 0.202987 0.625617
vt 0.174648 0.612101
vt 0.204429 0.624645
vt 0.206918 0.624283
vt 0.236564 0.624283
vt 0.246776 0.624928
vt 0.256792 0.612104
vt 0.246782 0.638572
vt 0.256792 0.638766
vt 0.355567 0.614331
vt 0.354660 0.617458
vt 0.318967 0.617461
vt 0.207248 0.611461
vt 0.207033 0.601452
vt 0.091774 0.617452
vt 0.100306 0.617464
vt 0.100231 0.621636
vt 0.092988 0.621639
vt 0.127448 0.614343
vt 0.090866 0.614331
vt 0.089911 0.611045
vt 0.127436 0.611066
vt 0.208826 0.539265
vt 0.207176 0.539265
vt 0.207176 0.502683
vt 0.208826 0.502683
vt 0.239251 0.539265
vt 0.237601 0.539265
vt 0.237601 0.502677
vt 0.239251 0.502677
vt 0.271779 0.612101
vt 0.245971 0.638766
vt 0.245971 0.612104
vt 0.271779 0.638763
vt 0.189636 0.612104
vt 0.189636 0.638766
vt 0.127460 0.617461
vt 0.091774 0.617455
vt 0.206111 0.627593
vt 0.206111 0.630515
vt 0.203204 0.627593
vt 0.203204 0.624868
vt 0.206111 0.624868
vt 0.238980 0.631228
vt 0.239293 0.625617
vt 0.241899 0.625617
vt 0.241899 0.631228
vt 0.241899 0.639626
vt 0.239180 0.638563
vt 0.237380 0.640187
vt 0.234551 0.641040
vt 0.211876 0.641040
vt 0.239251 0.642389
vt 0.235118 0.643965
vt 0.211309 0.643965
vt 0.207176 0.642389
s 1
usemtl Silencer1Mtl.001
f 1/1/1 2/2/2 3/3/3
f 4/4/4 1/1/1 3/3/3
f 4/4/5 5/5/6 6/6/7
f 7/4/5 8/7/8 5/5/6
f 9/8/9 10/5/10 8/7/8
f 11/9/11 9/8/9 8/7/8
f 12/6/12 10/5/6 13/10/13
f 14/11/14 15/12/15 13/10/16
f 16/13/17 11/9/18 17/14/19
f 18/6/12 19/10/16 15/12/15
f 11/9/11 20/7/20 21/3/3
f 22/15/21 11/9/11 21/3/3
f 22/15/21 21/3/3 23/2/22
f 24/16/23 19/10/24 25/17/25
f 26/11/14 25/17/26 27/18/27
f 28/19/28 25/17/25 19/10/24
f 28/19/28 19/10/24 29/5/6
f 9/8/29 28/19/28 29/5/6
f 30/13/17 28/19/28 31/8/9
f 32/20/30 33/21/31 22/15/21
f 32/20/30 22/15/21 34/22/32
f 34/22/32 22/15/21 23/2/22
f 35/23/33 32/20/30 34/22/32
f 36/21/34 37/9/18 22/15/35
f 36/21/34 38/14/19 37/9/18
f 39/13/17 40/8/9 37/9/18
f 35/23/33 34/22/32 41/24/36
f 42/25/37 35/23/33 41/24/36
f 43/26/38 41/24/36 34/22/32
f 34/22/32 23/2/22 43/26/38
f 43/26/38 44/27/39 41/24/36
f 45/28/40 46/29/41 47/30/42
f 48/30/43 46/29/41 49/31/44
f 46/29/41 50/32/45 49/31/44
f 46/29/41 51/33/46 50/32/45
f 52/34/47 50/32/45 51/33/46
f 53/35/48 54/36/49 52/34/50
f 55/37/51 43/26/38 23/2/22
f 56/38/52 43/26/38 55/37/51
f 55/37/51 23/2/22 57/39/53
f 58/1/1 57/39/54 59/2/22
f 44/27/39 60/40/55 41/24/36
f 44/27/39 61/41/56 60/40/55
f 61/41/56 62/42/57 60/40/55
f 63/38/58 64/41/59 44/27/60
f 63/38/58 65/43/61 64/41/59
f 63/38/58 66/27/60 67/26/62
f 68/43/61 69/30/42 64/41/63
f 68/43/61 70/28/40 69/30/42
f 70/28/40 71/44/64 72/29/41
f 73/35/48 72/29/41 74/44/64
f 75/35/48 76/33/65 72/29/41
f 61/41/56 48/30/66 77/42/57
f 48/30/66 78/31/44 77/42/57
f 79/45/67 80/46/68 78/31/69
f 79/45/67 81/34/50 82/36/49
f 83/35/70 81/34/47 84/33/65
f 85/47/71 77/42/57 86/31/69
f 87/45/67 86/31/69 88/32/72
f 89/47/73 86/31/69 90/46/68
f 89/47/73 91/25/74 92/40/55
f 91/25/74 93/24/75 92/40/55
f 94/47/71 95/40/55 96/42/57
f 97/4/5 98/3/3 99/7/8
f 100/48/76 101/17/77 102/19/28
f 100/48/76 103/18/27 101/17/77
f 104/13/78 105/48/79 102/19/28
f 106/11/14 107/10/16 108/16/23
f 109/45/67 110/32/45 111/34/50
f 112/11/14 113/16/23 114/17/26
f 115/49/80 116/50/80 117/51/80
f 115/49/80 118/52/80 116/50/80
f 117/51/80 119/53/80 115/49/80
f 118/52/80 120/54/80 116/50/80
f 117/51/80 121/55/80 119/53/80
f 118/52/80 122/56/80 120/54/80
f 119/53/80 121/55/80 123/57/80
f 122/56/80 124/58/80 120/54/80
f 119/53/80 123/57/80 125/59/80
f 122/56/80 126/60/80 124/58/80
f 123/57/80 127/61/80 125/59/80
f 126/60/80 128/62/80 124/58/80
f 123/57/80 129/63/80 127/61/80
f 126/60/80 130/64/80 128/62/80
f 129/63/80 131/65/80 127/61/80
f 130/64/80 132/66/80 128/62/80
f 130/64/80 133/67/80 132/66/80
f 134/68/80 132/66/80 133/67/80
f 129/63/80 135/69/80 131/65/80
f 135/69/80 136/70/80 131/65/80
f 135/69/80 137/71/80 136/70/80
f 138/72/80 136/70/80 137/71/80
f 139/73/81 140/74/82 141/75/81
f 142/73/81 143/76/82 140/74/82
f 144/77/83 145/78/84 146/79/84
f 147/77/83 148/80/83 145/78/84
f 149/81/85 150/82/86 151/83/87
f 152/84/88 151/83/87 150/82/86
f 153/85/89 154/86/90 155/87/91
f 153/85/89 155/87/91 156/88/92
f 157/89/93 158/74/82 159/76/82
f 160/89/93 161/90/93 158/74/82
f 162/91/94 161/90/93 160/89/93
f 163/77/83 164/92/95 165/80/83
f 166/93/96 164/92/95 167/94/95
f 168/95/97 169/96/98 170/81/98
f 168/95/97 171/97/99 172/96/85
f 173/98/90 174/99/100 175/86/101
f 176/85/102 173/98/90 175/86/101
f 177/95/97 178/100/103 179/97/97
f 180/91/94 181/101/104 182/102/94
f 183/93/96 184/103/105 185/104/96
f 186/93/96 187/105/105 184/103/105
f 188/106/100 189/107/106 190/99/100
f 191/98/90 188/106/100 190/99/100
f 192/108/107 193/109/108 194/100/107
f 195/110/109 196/101/104 197/111/104
f 198/105/105 199/88/92 200/103/105
f 201/112/110 202/107/111 203/113/112
f 204/114/113 205/109/108 206/115/114
f 207/108/107 206/115/114 205/109/108
f 208/110/109 209/116/88 210/117/109
f 208/110/109 210/117/109 211/101/115
f 212/85/102 213/88/92 214/118/92
f 215/112/110 216/75/81 217/119/110
f 218/114/113 219/78/84 220/120/113
f 221/114/113 222/79/84 219/78/84
f 223/84/88 224/82/116 225/116/88
f 226/81/85 227/96/85 228/82/116
f 229/77/83 230/94/117 231/92/95
f 232/91/94 233/102/94 234/90/93
f 235/93/96 236/104/96 237/92/95
f 238/95/97 239/108/107 240/100/107
f 241/91/94 242/111/104 243/101/104
f 244/106/100 245/113/112 246/107/112
f 247/112/110 248/119/110 246/107/111
f 249/105/105 250/118/118 251/88/118
f 252/114/113 253/120/113 254/109/108
f 255/110/109 256/84/119 257/116/88
f 258/112/110 259/73/81 260/75/81
f 261/121/120 262/122/121 263/123/121
f 264/124/122 265/125/123 266/126/124
f 267/127/125 268/128/126 269/129/127
f 270/130/128 271/131/129 272/132/130
f 273/133/131 274/134/120 275/121/120
f 275/121/120 274/134/120 276/122/132
f 277/135/133 278/136/134 279/137/133
f 280/138/126 281/139/135 282/128/126
f 283/140/129 284/141/136 285/131/129
f 286/142/137 287/122/121 288/143/138
f 289/142/138 288/143/138 290/144/139
f 291/145/140 292/126/122 293/136/140
f 294/146/141 295/129/125 296/147/142
f 294/146/141 296/147/142 297/148/143
f 298/149/144 299/132/145 300/150/144
f 301/151/146 302/137/147 303/152/146
f 304/142/148 305/144/139 306/153/139
f 306/153/139 305/144/139 307/154/149
f 308/155/150 309/150/151 310/156/150
f 308/155/150 311/149/151 312/150/152
f 313/151/146 314/157/153 315/158/154
f 316/153/139 317/154/155 318/159/155
f 319/146/142 320/148/156 321/160/156
f 322/161/157 323/156/150 324/162/157
f 325/158/158 326/163/159 327/164/159
f 328/159/160 329/125/161 330/165/161
f 331/133/162 332/162/163 333/166/162
f 331/133/162 334/161/164 332/162/163
f 335/167/165 336/163/159 337/139/166
f 338/167/166 339/164/167 336/163/167
f 340/160/168 341/141/136 342/168/169
f 343/124/122 344/165/123 345/125/123
f 346/127/125 347/138/126 348/128/126
f 349/130/128 350/140/129 351/131/129
f 352/133/131 353/166/131 354/134/120
f 355/135/170 356/145/134 357/136/140
f 358/138/126 359/167/166 360/139/166
f 361/140/129 362/168/171 363/141/136
f 364/142/137 365/123/121 366/122/121
f 367/145/140 368/124/122 369/126/122
f 370/146/142 371/127/125 372/129/125
f 373/149/152 374/130/128 375/132/128
f 376/151/146 377/135/147 378/137/170
f 379/151/146 380/152/146 381/157/154
f 382/161/163 383/155/150 384/156/150
f 385/158/153 386/157/158 387/163/172
f 388/159/149 389/154/149 390/125/123
f 391/160/156 392/148/156 393/141/136
f 394/169/173 395/170/174 396/171/173
f 394/169/173 397/172/174 395/170/174
f 398/173/175 394/169/173 396/171/173
f 397/172/174 399/174/176 395/170/174
f 398/173/175 396/171/173 400/175/177
f 397/172/174 401/176/178 399/174/176
f 402/177/179 398/173/175 400/175/177
f 401/176/178 403/178/180 399/174/176
f 402/177/179 400/175/177 404/179/179
f 405/180/181 402/177/179 404/179/179
f 405/180/181 404/179/179 406/181/182
f 401/176/178 407/182/180 403/178/180
f 407/182/180 408/183/183 403/178/180
f 407/182/180 409/184/183 408/183/183
f 409/184/183 410/185/184 408/183/183
f 409/184/183 411/186/184 410/185/184
f 411/186/184 412/187/185 410/185/184
f 411/186/184 413/188/186 412/187/185
f 413/188/186 414/189/187 412/187/185
f 415/190/188 416/191/189 417/192/188
f 418/193/190 415/190/188 417/192/188
f 419/194/186 420/195/191 421/196/186
f 422/197/192 419/194/186 421/196/186
f 423/198/193 424/199/194 425/195/193
f 426/194/186 423/198/193 425/195/193
f 427/200/195 428/201/196 429/202/197
f 430/203/178 427/200/195 429/202/197
f 431/204/196 432/205/198 433/201/196
f 434/200/199 431/204/196 433/201/196
f 435/206/177 436/207/200 437/205/175
f 438/204/196 435/206/177 437/205/175
f 439/208/201 440/209/181 441/207/202
f 439/208/201 442/210/181 440/209/181
f 443/206/175 439/208/201 441/207/202
f 444/211/203 445/199/204 446/212/205
f 447/198/206 446/212/205 445/199/204
f 448/213/180 449/214/207 450/215/208
f 448/213/180 451/203/207 449/214/207
f 451/203/207 452/202/197 449/214/207
f 453/216/209 448/213/180 450/215/208
f 453/216/209 450/215/208 454/217/209
f 455/218/192 453/216/209 454/217/209
f 455/218/192 454/217/209 456/197/210
f 456/197/210 457/196/186 455/218/192
f 458/219/211 459/220/212 460/193/213
f 460/193/213 461/192/188 458/219/211
f 458/219/211 462/221/214 459/220/212
f 463/222/215 459/220/212 462/221/214
f 463/222/215 462/221/214 464/223/215
f 465/224/216 463/222/215 464/223/215
f 465/224/216 464/223/215 466/225/217
f 467/226/218 465/224/216 466/225/217
f 467/226/218 466/225/217 468/227/219
f 469/228/220 467/226/218 468/227/219
f 469/228/220 468/227/219 470/229/220
f 471/230/221 472/231/222 473/191/223
f 474/190/224 471/230/221 473/191/223
f 471/230/221 475/232/222 472/231/222
f 475/232/222 476/233/225 472/231/222
f 475/232/222 477/234/225 476/233/225
f 477/234/225 478/235/226 476/233/225
f 477/234/225 479/236/226 478/235/226
f 479/236/226 480/237/227 478/235/226
f 479/236/226 481/238/228 480/237/227
f 481/238/228 482/239/229 480/237/227
f 481/238/228 483/211/229 482/239/229
f 483/211/229 484/212/230 482/239/229
f 485/240/231 486/241/217 487/242/231
f 485/240/231 488/243/216 486/241/217
f 489/244/232 485/240/231 487/242/231
f 488/243/216 490/245/233 486/241/217
f 489/244/232 487/242/231 491/246/232
f 488/243/216 492/247/233 490/245/233
f 492/247/233 493/248/182 490/245/233
f 492/247/233 494/249/182 493/248/182
f 495/250/234 489/244/232 491/246/232
f 495/250/234 491/246/232 496/251/211
f 497/252/188 495/250/234 496/251/211
f 497/252/188 496/251/211 498/253/188
f 499/254/235 497/252/188 498/253/188
f 499/254/235 498/253/188 500/255/235
f 501/256/236 499/254/235 500/255/235
f 501/256/236 500/255/235 502/257/236
f 503/258/237 501/256/236 502/257/236
f 503/258/237 502/257/236 504/259/237
f 505/260/226 503/258/237 504/259/237
f 505/260/226 504/259/237 506/261/226
f 507/262/228 505/260/226 506/261/226
f 507/262/228 506/261/226 508/263/228
f 509/264/229 507/262/228 508/263/228
f 509/264/229 508/263/228 510/265/229
f 511/266/205 509/264/229 510/265/229
f 511/266/205 510/265/229 512/267/205
f 513/268/187 511/266/205 512/267/205
f 513/268/187 512/267/205 514/189/193
f 515/188/186 513/268/187 514/189/193
f 516/269/192 517/270/183 518/271/192
f 516/269/192 519/272/183 517/270/183
f 518/271/192 520/273/185 516/269/192
f 521/274/180 517/270/183 519/272/183
f 518/271/192 522/275/238 520/273/185
f 521/274/180 519/272/183 523/276/180
f 522/275/238 524/277/191 520/273/185
f 523/276/180 525/278/239 521/274/180
f 522/275/238 526/279/193 524/277/191
f 523/276/180 527/280/239 525/278/239
f 526/279/193 528/281/240 524/277/191
f 529/282/199 525/278/239 527/280/239
f 526/279/193 530/283/241 528/281/240
f 529/282/199 527/280/239 531/284/199
f 532/285/229 528/281/240 530/283/241
f 533/286/242 529/282/199 531/284/199
f 532/285/229 530/283/241 534/287/229
f 533/286/242 531/284/199 535/288/242
f 534/287/229 536/289/243 532/285/229
f 537/290/198 533/286/242 535/288/242
f 534/287/229 538/291/243 536/289/243
f 537/290/198 535/288/242 539/292/198
f 538/291/243 540/293/244 536/289/243
f 539/292/198 541/294/245 537/290/198
f 538/291/243 542/295/246 540/293/244
f 539/292/198 543/296/245 541/294/245
f 544/297/182 541/294/245 543/296/245
f 544/297/182 543/296/245 545/298/182
f 542/295/246 546/299/247 540/293/244
f 542/295/246 547/300/225 546/299/247
f 547/300/225 548/301/248 546/299/247
f 547/300/225 549/302/222 548/301/248
f 550/303/235 548/301/248 549/302/222
f 550/303/235 549/302/222 551/304/221
f 552/305/188 550/303/235 551/304/221
f 552/305/188 551/304/221 553/306/188
f 553/306/188 554/307/249 552/305/188
f 553/306/188 555/308/249 554/307/249
f 555/308/249 556/309/214 554/307/249
f 555/308/249 557/310/212 556/309/214
f 557/310/212 558/311/250 556/309/214
f 557/310/212 559/312/250 558/311/250
f 559/312/250 560/313/251 558/311/250
f 559/312/250 561/314/251 560/313/251
f 561/314/251 562/315/219 560/313/251
f 561/314/251 563/316/219 562/315/219
f 564/317/220 562/315/219 563/316/219
f 564/317/220 563/316/219 565/318/182
f 566/319/252 567/320/252 568/321/252
f 569/322/252 566/319/252 568/321/252
f 566/319/252 570/323/252 567/320/252
f 571/324/252 567/320/252 570/323/252
f 571/324/252 570/323/252 572/325/252
f 571/324/252 572/325/252 573/326/252
f 574/327/252 571/324/252 573/326/252
f 574/327/252 575/328/252 571/324/252
f 575/328/252 574/327/252 576/329/252
f 575/328/252 577/330/252 578/331/252
f 577/330/252 579/332/252 578/331/252
f 577/330/252 580/333/252 579/332/252
f 581/334/252 579/332/252 580/333/252
f 581/334/252 580/333/252 582/335/252
f 581/334/252 582/335/252 583/336/252
f 584/337/252 581/334/252 583/336/252
f 584/337/252 569/322/252 581/334/252
f 569/322/252 584/337/252 585/338/252
f 586/328/252 587/329/252 588/330/252
f 589/322/252 590/338/252 591/319/252
f 592/339/253 593/340/253 594/341/253
f 593/340/254 595/342/253 596/343/255
f 597/344/253 596/343/255 595/342/253
f 598/340/254 599/343/254 600/341/254
f 601/328/256 602/320/257 603/321/258
f 601/328/256 604/324/257 602/320/257
f 605/345/259 606/346/259 607/347/259
f 608/348/260 607/347/260 609/349/259
f 608/348/260 610/350/260 607/347/260
f 610/350/259 611/348/259 612/351/261
f 610/350/259 612/351/261 613/352/262
f 614/353/259 615/354/263 610/350/259
f 616/353/259 617/350/259 613/352/259
f 618/355/259 619/354/264 616/353/259
f 618/355/259 620/356/259 621/357/259
f 620/356/259 622/358/259 623/359/259
f 621/357/260 624/360/260 625/361/260
f 626/355/260 625/361/260 615/354/264
f 625/361/260 626/355/260 627/357/259
f 627/357/259 628/362/259 629/363/259
f 627/357/259 630/356/259 628/362/259
f 630/356/259 631/359/259 628/362/259
f 632/358/259 633/364/259 631/359/259
f 632/358/259 634/365/259 633/364/259
f 635/366/265 636/367/265 637/368/265
f 635/366/265 638/369/266 636/367/265
f 639/370/267 635/366/265 637/368/265
f 637/368/265 640/371/267 639/370/267
f 641/372/80 637/368/265 636/367/265
f 641/372/80 642/373/80 637/368/265
f 643/347/80 642/373/80 641/372/80
f 643/347/80 644/350/80 642/373/80
f 645/374/260 646/375/260 647/376/260
f 646/375/259 648/377/259 649/378/259
f 646/375/259 649/378/259 650/379/259
f 651/380/259 650/379/259 649/378/259
f 652/381/259 647/376/259 605/345/259
f 652/381/259 605/345/259 653/382/264
f 654/374/268 655/383/259 656/377/259
f 657/375/260 654/374/268 656/377/259
f 658/381/259 654/374/259 659/376/260
f 660/384/259 654/374/259 658/381/259
f 661/347/259 662/385/259 663/349/259
f 661/347/259 664/346/259 662/385/259
f 665/345/259 661/347/259 666/382/264
f 667/380/259 668/378/259 669/386/259
f 670/387/80 671/388/80 672/389/80
f 673/390/80 671/388/80 670/387/80
f 674/391/80 672/389/80 671/388/80
f 674/391/80 675/392/80 672/389/80
f 670/387/80 672/389/80 676/393/80
f 677/394/80 676/393/80 672/389/80
f 678/395/269 679/396/270 680/397/270
f 678/395/269 681/398/271 679/396/270
f 678/395/269 682/399/272 681/398/271
f 678/395/269 683/400/273 682/399/272
f 684/401/274 685/402/275 686/403/276
f 684/401/274 687/404/275 685/402/275
f 684/401/274 686/403/276 688/405/277
f 684/401/274 688/405/277 689/406/278
f 690/407/279 691/408/280 692/409/281
f 693/410/180 694/411/180 695/412/180
f 696/413/180 695/412/180 694/411/180
f 697/414/180 696/413/180 694/411/180
f 698/415/180 697/414/180 694/411/180
f 693/410/180 695/412/180 699/416/180
f 699/416/180 700/417/180 693/410/180
f 700/417/180 701/418/180 693/410/180
f 702/419/180 693/410/180 701/418/180
f 702/419/180 701/418/180 703/420/180
f 703/420/180 704/421/180 702/419/180
f 704/421/180 705/422/180 702/419/180
f 705/422/180 706/423/180 702/419/180
f 706/423/180 707/424/180 702/419/180
f 706/423/180 708/425/180 707/424/180
f 707/424/180 708/425/180 709/399/180
f 707/424/180 709/399/180 710/400/180
f 711/426/180 712/427/180 713/428/180
f 711/426/180 713/428/180 714/429/180
f 715/430/180 712/427/180 711/426/180
f 714/429/180 713/428/180 716/431/180
f 715/430/180 717/432/180 712/427/180
f 714/429/180 716/431/180 718/433/180
f 719/434/180 717/432/180 715/430/180
f 719/434/180 715/430/180 720/435/180
f 721/436/180 719/434/180 720/435/180
f 721/436/180 720/435/180 722/437/180
f 718/433/180 716/431/180 723/438/180
f 723/438/180 724/439/180 718/433/180
f 723/438/180 725/440/180 724/439/180
f 723/438/180 726/441/180 725/440/180
f 726/441/180 723/438/180 727/442/180
f 728/443/180 727/442/180 723/438/180
f 728/443/180 723/438/180 729/444/180
f 730/396/180 728/443/180 729/444/180
f 730/396/180 731/398/180 728/443/180
f 732/431/282 733/428/282 734/445/283
f 732/431/282 734/445/283 735/446/284
f 736/447/284 732/431/282 735/446/284
f 736/447/284 737/438/282 738/431/282
f 739/444/282 740/438/282 736/447/284
f 739/444/282 736/447/284 741/448/285
f 742/449/285 739/444/282 741/448/285
f 742/449/285 743/396/282 739/444/282
f 744/397/286 743/396/282 742/449/285
f 745/407/287 746/409/281 747/450/288
f 745/407/287 747/450/288 748/451/289
f 749/432/290 750/434/291 751/452/292
f 751/452/292 750/434/291 752/436/291
f 753/453/293 754/454/291 755/455/294
f 755/455/294 756/456/295 753/453/293
f 755/455/294 757/457/296 756/456/295
f 758/458/188 759/459/188 760/460/188
f 760/460/188 759/459/188 761/461/188
f 760/460/188 761/461/188 762/462/188
f 760/460/188 762/462/188 763/463/188
f 764/464/188 758/458/188 760/460/188
f 758/458/188 764/464/188 765/465/188
f 764/464/188 766/466/188 765/465/188
f 764/464/188 767/467/188 766/466/188
f 765/465/188 766/466/188 768/407/188
f 769/408/188 767/467/188 764/464/188
f 768/407/188 770/451/188 765/465/188
f 770/451/188 771/468/188 765/465/188
f 772/469/188 771/468/188 770/451/188
f 772/469/188 770/451/188 773/450/188
f 772/469/188 773/450/188 774/470/188
f 775/471/188 769/408/188 764/464/188
f 775/471/188 776/409/188 769/408/188
f 775/471/188 777/472/188 776/409/188
f 775/471/188 778/473/188 777/472/188
f 779/474/188 778/473/188 775/471/188
f 779/474/188 780/475/188 778/473/188
f 781/476/188 780/475/188 779/474/188
f 782/405/188 781/476/188 779/474/188
f 782/405/188 779/474/188 783/406/188
f 784/477/188 785/478/188 786/479/188
f 784/477/188 786/479/188 787/480/188
f 788/481/297 789/482/298 790/402/298
f 791/404/299 788/481/297 790/402/298
f 788/481/297 792/483/297 789/482/298
f 793/484/300 789/482/298 792/483/297
f 793/484/300 792/483/297 794/485/301
f 795/486/302 796/487/301 797/488/301
f 798/486/303 797/488/301 799/489/303
f 800/490/304 801/491/305 802/492/306
f 803/493/306 802/492/306 801/491/305
f 804/450/288 805/409/307 806/494/188
f 804/450/288 806/494/188 807/495/188
f 808/496/308 809/497/309 810/498/284
f 808/496/308 811/499/309 812/497/309
f 810/498/284 813/497/310 814/500/310
f 810/498/311 815/500/309 816/501/311
f 817/502/295 816/501/284 818/500/295
f 819/502/312 820/503/313 821/501/314
f 822/504/309 823/505/313 824/506/309
f 822/504/309 825/507/286 823/505/313
f 826/402/188 827/508/188 828/403/188
f 826/402/188 829/482/188 827/508/188
f 829/482/188 830/509/188 827/508/188
f 831/484/188 830/509/188 829/482/188
f 830/509/188 832/510/188 827/508/188
f 833/511/188 834/512/188 835/486/188
f 833/511/188 835/486/188 836/489/188
f 837/513/188 833/511/188 836/489/188
f 837/513/188 838/514/188 833/511/188
f 839/515/188 838/514/188 837/513/188
f 839/515/188 837/513/188 840/490/188
f 841/492/188 839/515/188 840/490/188
f 841/492/188 842/516/188 839/515/188
f 843/493/188 842/516/188 841/492/188
f 843/493/188 844/517/188 842/516/188
f 845/518/315 846/519/315 847/520/315
f 845/518/315 847/520/315 848/521/315
f 849/522/316 850/523/317 851/524/318
f 852/525/319 851/524/318 850/523/317
f 853/526/320 854/527/321 855/528/320
f 853/526/320 856/529/322 854/527/321
f 856/529/322 857/530/323 854/527/321
f 858/525/324 859/531/325 860/524/326
f 859/531/327 861/525/319 862/532/328
f 863/407/329 864/467/188 865/408/330
f 863/407/329 866/466/188 864/467/188
f 867/533/331 868/534/332 869/535/333
f 867/533/331 870/536/334 868/534/332
f 871/537/333 872/538/335 873/539/336
f 871/537/333 873/539/336 874/540/336
f 875/541/336 876/542/335 877/543/337
f 875/541/336 878/544/336 876/542/335
f 879/545/294 880/546/338 881/547/338
f 882/548/339 883/549/339 884/550/339
f 885/551/340 886/548/340 887/552/340
f 885/551/340 887/552/340 888/553/340
f 889/551/182 890/554/182 891/555/182
f 892/548/341 893/550/341 894/552/341
f 895/522/342 896/524/326 897/556/343
f 898/522/344 897/556/345 899/557/346
f 895/522/344 900/557/347 901/558/347
f 901/558/347 900/557/347 902/559/348
f 901/558/347 902/559/348 903/560/348
f 903/560/348 902/559/348 904/561/348
f 903/560/348 904/561/348 905/562/348
f 905/562/348 904/561/348 906/563/349
f 905/562/348 906/563/349 907/547/294
f 908/545/294 907/547/294 906/563/349
f 909/551/350 910/553/350 911/554/350
f 912/564/351 913/565/352 914/566/352
f 912/564/351 915/567/353 913/565/352
f 916/568/354 917/569/355 918/570/355
f 919/568/356 920/571/357 917/569/355
f 921/499/229 922/536/229 923/572/358
f 921/499/229 923/572/358 924/573/359
f 921/499/229 924/573/359 925/497/229
f 924/573/359 926/574/229 925/497/229
f 927/536/229 928/533/229 923/572/229
f 928/533/229 929/575/229 923/572/229
f 930/528/229 931/456/229 932/457/229
f 930/528/229 932/457/229 933/526/229
f 934/539/229 935/502/229 936/500/229
f 934/539/229 936/500/229 937/540/229
f 938/504/229 939/544/229 940/541/229
f 938/504/229 941/506/229 939/544/229
f 942/576/360 943/577/361 944/578/361
f 942/576/360 944/578/361 945/579/360
f 946/580/362 942/576/360 945/579/360
f 946/580/362 947/581/363 942/576/360
f 943/577/361 948/582/361 944/578/361
f 943/577/361 949/583/361 948/582/361
f 949/583/361 950/584/322 948/582/361
f 949/583/361 951/585/322 952/584/322
f 953/586/364 952/584/322 951/585/322
f 954/587/80 955/588/80 956/589/80
f 954/587/80 957/590/80 955/588/80
f 955/588/80 957/590/80 958/591/80
f 955/588/80 958/591/80 959/592/80
f 960/593/180 961/594/365 962/595/366
f 960/593/180 963/596/180 961/594/365
f 964/597/322 965/586/322 966/585/322
f 967/503/229 968/542/229 969/505/229
f 967/503/229 970/538/229 968/542/229
f 971/598/367 972/599/367 973/600/367
f 974/601/368 975/602/368 976/603/368
f 977/598/369 978/600/369 979/604/369
f 980/601/370 981/603/370 982/605/370
f 983/531/327 984/532/371 985/606/372
f 986/607/373 985/606/372 984/532/371
f 986/607/373 984/532/371 987/608/374
f 988/609/375 989/607/376 987/608/377
f 988/609/375 987/608/377 990/610/375
f 991/611/375 988/609/375 990/610/375
f 992/560/229 993/562/229 994/583/229
f 992/560/229 994/583/229 995/577/229
f 995/577/229 996/558/229 992/560/229
f 995/577/229 997/612/229 996/558/229
f 998/613/188 999/614/357 1000/615/356
f 998/613/188 1001/616/188 999/614/357
f 1002/617/378 1003/618/378 1004/619/378
f 1002/617/378 1004/619/378 1005/620/378
f 1006/621/379 1007/622/379 1008/623/379
f 1009/621/380 1010/623/380 1011/624/380
f 1012/623/380 1013/622/380 1014/625/380
f 1015/626/381 1016/626/381 1017/626/381
f 1016/626/381 1015/626/381 1018/626/381
f 1019/627/182 1020/628/182 1021/629/382
f 1019/627/182 1021/629/382 1022/630/382
f 1023/631/383 1024/630/384 1025/629/385
f 1023/631/383 1025/629/385 1026/632/386
f 1027/633/387 1023/631/383 1026/632/386
f 1027/633/387 1026/632/386 1028/634/387
f 1029/635/252 1030/636/252 1031/637/252
f 1029/635/252 1031/637/252 1032/638/252
f 1030/636/252 1033/639/252 1031/637/252
f 1031/637/252 1033/639/252 1034/640/252
f 1031/637/252 1034/640/252 1035/641/252
f 1030/636/252 1036/642/252 1033/639/252
f 1037/643/252 1036/642/252 1030/636/252
f 1037/643/252 1030/636/252 1038/644/252
f 1039/645/252 1037/643/252 1038/644/252
f 1039/645/252 1038/644/252 1040/646/252
f 1039/645/252 1040/646/252 1041/647/252
f 1039/645/252 1041/647/252 1042/648/252
f 1043/649/252 1044/618/252 1045/617/252
f 1043/649/252 1045/617/252 1046/650/252
f 1047/651/252 1048/652/252 1049/653/252
f 1050/651/252 1051/653/252 1052/654/252
f 1053/655/180 1054/656/180 1055/657/180
f 1053/655/180 1055/657/180 1056/658/180
f 1054/656/180 1057/659/180 1055/657/180
f 1055/657/180 1057/659/180 1058/660/180
f 1055/657/180 1058/660/180 1059/661/180
f 1060/662/180 1061/663/180 1062/664/180
f 1060/662/180 1062/664/180 1063/665/180
f 1064/666/252 1065/667/252 1066/668/252
f 1064/666/252 1066/668/252 1067/669/252
f 1068/670/182 1069/671/182 1070/672/182
f 1068/670/182 1070/672/182 1071/673/182
f 1072/674/388 1073/675/389 1074/676/390
f 1072/674/391 1075/677/392 1076/675/389
f 1074/676/390 1077/580/393 1072/674/388
f 1074/676/390 1078/678/394 1077/580/393
f 1074/676/390 1079/679/395 1078/678/394
f 1079/679/395 1080/579/396 1078/678/394
f 1079/679/395 1081/680/396 1080/579/396
f 1082/681/397 1080/579/396 1081/680/396
f 1082/681/397 1081/680/396 1083/682/397
f 1072/674/391 1084/683/398 1085/677/391
f 1072/674/391 1086/684/398 1084/683/398
f 1084/683/398 1086/684/398 1087/621/399
f 1084/683/398 1087/621/399 1088/685/400
f 1087/621/399 1089/686/401 1088/685/400
f 1090/687/402 1091/688/403 1092/572/404
f 1090/687/402 1093/689/405 1091/688/403
f 1094/687/406 1092/572/404 1095/690/407
f 1096/690/408 1092/572/404 1097/573/409
f 1095/690/410 1097/573/409 1098/691/411
f 1099/692/412 1098/691/411 1097/573/409
f 1099/692/412 1097/573/409 1100/693/413
f 1099/692/412 1101/694/414 1098/691/411
f 1102/695/415 1103/696/415 1101/694/416
f 1102/695/415 1101/694/416 1104/692/417
f 1105/697/188 1106/698/188 1107/699/188
f 1108/700/188 1109/698/188 1110/701/188
f 1111/699/188 1109/698/188 1108/700/188
f 1108/700/188 1110/701/188 1112/702/188
f 1113/697/188 1114/699/188 1115/703/188
f 1116/704/418 1117/705/419 1118/706/420
f 1116/704/418 1119/707/418 1120/705/421
f 1118/706/420 1121/708/422 1116/704/418
f 1122/689/423 1123/687/424 1121/708/425
f 1124/709/426 1118/706/420 1117/705/419
f 1124/709/426 1125/710/426 1118/706/420
f 1124/709/426 1126/711/427 1125/710/426
f 1118/706/428 1127/689/429 1128/708/422
f 1129/709/430 1130/712/427 1126/711/431
f 1130/712/427 1131/713/432 1126/711/431
f 1130/712/431 1132/714/433 1133/713/433
f 1134/715/180 1135/716/180 1136/717/180
f 1134/715/180 1136/717/180 1137/718/180
f 1138/719/188 1139/720/188 1140/721/188
f 1138/719/188 1140/721/188 1141/722/188
f 1142/723/252 1143/724/252 1144/725/252
f 1142/723/252 1145/726/252 1143/724/252
f 1142/723/252 1146/727/252 1145/726/252
f 1142/723/252 1147/728/252 1146/727/252
f 1142/723/252 1148/729/252 1147/728/252
f 1146/727/252 1149/730/252 1145/726/252
f 1149/730/252 1150/731/252 1145/726/252
f 1151/732/434 1152/733/434 1153/734/434
f 1151/732/434 1153/734/434 1154/735/434
f 1155/736/180 1156/737/180 1157/738/180
f 1155/736/180 1157/738/180 1158/739/180
f 1159/740/435 1160/741/436 1161/742/435
f 1159/740/435 1162/743/436 1160/741/436
f 1163/744/437 1160/741/436 1162/743/436
f 1163/744/437 1164/745/438 1165/741/438
f 1166/746/180 1167/745/436 1163/744/437
f 1166/746/180 1168/747/180 1164/745/436
f 1166/746/180 1169/748/180 1168/747/180
f 1166/746/180 1170/749/439 1169/748/180
f 1166/746/180 1171/750/440 1170/749/439
f 1166/746/180 1172/751/440 1171/750/440
f 1172/751/440 1173/752/441 1171/750/440
f 1172/751/440 1174/753/442 1175/752/443
f 1176/736/180 1177/754/180 1178/755/180
f 1176/736/180 1178/755/180 1179/756/180
f 1180/757/444 1181/696/445 1182/695/446
f 1180/757/444 1183/758/447 1181/696/445
f 1184/759/188 1185/760/188 1186/761/188
f 1184/759/188 1186/761/188 1187/762/188
f 1188/763/188 1189/764/188 1190/765/188
f 1188/763/188 1190/765/188 1191/766/188
f 1192/767/448 1193/768/448 1194/769/448
f 1192/767/448 1194/769/448 1195/770/448
f 1196/771/449 1197/772/449 1198/773/449
f 1199/771/229 1200/773/229 1201/774/229
f 1202/775/450 1203/776/451 1204/777/450
f 1202/775/450 1205/778/450 1203/776/451
f 1203/776/451 1206/779/451 1204/777/450
f 1203/776/451 1207/780/451 1206/779/451
f 1208/764/188 1209/763/188 1210/781/188
f 1208/764/188 1210/781/188 1211/782/188
f 1212/621/399 1213/624/452 1214/686/401
f 1215/641/387 1216/783/453 1217/784/387
f 1215/641/387 1218/785/454 1216/783/453
f 1216/783/453 1218/785/454 1219/786/455
f 1216/783/453 1219/786/455 1220/787/455
f 1221/788/456 1222/789/457 1223/790/458
f 1221/788/459 1224/790/458 1225/791/460
f 1226/792/461 1221/788/456 1227/791/456
f 1226/792/461 1228/793/461 1221/788/456
f 1229/328/462 1228/793/461 1226/792/461
f 1229/328/462 1230/794/463 1228/793/461
f 1231/324/464 1230/794/463 1229/328/462
f 1231/324/464 1232/795/465 1230/794/463
f 1233/320/466 1232/795/465 1231/324/464
f 1234/320/466 1235/796/466 1232/795/465
f 1236/797/467 1237/798/467 1238/799/467
f 1236/797/467 1238/799/467 1239/800/468
f 1240/344/469 1241/343/469 1242/342/469
f 1243/340/470 1241/343/471 1244/341/472
f 1245/339/469 1243/340/470 1244/341/472
f 1246/340/471 1247/342/471 1248/343/471
f 1249/321/473 1250/324/473 1251/320/473
f 1252/321/474 1253/328/474 1254/324/474
