# Blender 5.1.2
# www.blender.org
mtllib uspmag.mtl
o uspmag
v -0.103473 -0.603390 -0.028438
v -0.098797 -0.604443 0.000002
v -0.103473 -0.603390 0.028442
v -0.340173 -0.535170 0.082712
v -0.356914 -0.530085 0.068942
v -0.356914 -0.530085 -0.068848
v -0.145145 -0.591735 -0.074789
v -0.120488 -0.598719 -0.056609
v -0.145145 -0.591735 0.074791
v -0.120488 -0.598719 -0.056609
v -0.103473 -0.603390 -0.028438
v -0.120488 -0.598719 0.056611
v -0.103473 -0.603390 0.028442
v -0.145145 -0.591735 0.074791
v -0.145145 -0.591735 -0.074789
v -0.177459 -0.582393 0.084511
v -0.340173 -0.535170 -0.082708
v -0.340173 -0.535170 0.082712
v -0.356914 -0.530085 -0.068848
v -0.177459 -0.582393 -0.084509
v -0.177459 -0.582393 0.084511
v -0.177459 -0.582393 -0.084509
v -0.145145 -0.591735 -0.074789
v -0.177459 -0.582393 0.084511
v -0.123818 0.162240 -0.039328
v -0.053794 0.163347 -0.035009
v -0.053437 0.164112 -0.039419
v -0.123818 0.162249 0.039332
v -0.053437 0.164112 0.039511
v -0.053794 0.163347 0.035011
v -0.123818 0.162249 0.039332
v -0.053794 0.163347 0.035011
v -0.123276 0.161169 0.035011
v -0.123818 0.162240 -0.039328
v -0.123276 0.161169 -0.035009
v -0.053794 0.163347 -0.035009
v 0.040523 0.122874 -0.033119
v 0.050693 0.119544 -0.019708
v 0.054290 0.119058 -0.021958
v 0.022884 0.128022 -0.039599
v -0.034898 0.144375 -0.034198
v 0.021895 0.126996 -0.035278
v -0.035708 0.145041 -0.038608
v 0.022884 0.128022 0.039601
v -0.034898 0.144375 0.034202
v -0.035708 0.145041 0.038612
v 0.021895 0.126996 0.035282
v 0.022884 0.128022 -0.039599
v 0.037550 0.122856 -0.029698
v 0.040523 0.122874 -0.033119
v 0.040523 0.122874 -0.033119
v 0.037550 0.122856 -0.029698
v 0.050693 0.119544 -0.019708
v -0.123818 0.162240 -0.039328
v -0.135787 0.160278 -0.032579
v -0.123276 0.161169 -0.035009
v -0.139117 0.161835 -0.035189
v -0.123818 0.162249 0.039332
v -0.135787 0.160278 0.032581
v -0.139117 0.161835 0.035191
v -0.123276 0.161169 0.035011
v 0.022884 0.128022 -0.039599
v 0.021895 0.126996 -0.035278
v 0.037550 0.122856 -0.029698
v -0.139117 0.161835 -0.019889
v -0.135787 0.160278 -0.032579
v -0.139117 0.161835 -0.035189
v -0.135333 0.160359 -0.019889
v -0.139117 0.161835 0.019891
v -0.135787 0.160278 0.032581
v -0.135333 0.160359 0.019891
v -0.139117 0.161835 0.035191
v -0.053794 0.163347 0.035011
v -0.035708 0.145041 0.038612
v -0.034898 0.144375 0.034202
v -0.053794 0.163347 -0.035009
v -0.034898 0.144375 -0.034198
v -0.035708 0.145041 -0.038608
v -0.053794 0.163347 -0.035009
v -0.035708 0.145041 -0.038608
v -0.053437 0.164112 -0.039419
v -0.053794 0.163347 0.035011
v -0.053437 0.164112 0.039511
v -0.035708 0.145041 0.038612
v -0.153248 0.117339 -0.019889
v -0.139117 0.161835 -0.019889
v -0.139117 0.161835 -0.035189
v -0.139117 0.161835 0.035191
v -0.139117 0.161835 0.019891
v -0.153248 0.117339 0.019891
v -0.139117 0.161835 -0.035189
v -0.179979 0.032388 -0.054719
v -0.153248 0.117339 -0.019889
v -0.153248 0.117339 0.019891
v -0.179979 0.032388 0.054721
v -0.139117 0.161835 0.035191
v -0.179979 0.032388 -0.054719
v -0.153248 0.117339 0.019891
v -0.153248 0.117339 -0.019889
v -0.330814 -0.489333 -0.051028
v -0.179979 0.032388 0.054721
v -0.179979 0.032388 -0.054719
v -0.153248 0.117339 0.019891
v -0.330814 -0.489333 -0.051028
v -0.330814 -0.489333 0.051122
v -0.163328 0.032829 0.061382
v -0.139117 0.161835 0.035191
v -0.179979 0.032388 0.054721
v -0.163328 0.032829 -0.061378
v -0.179979 0.032388 -0.054719
v -0.139117 0.161835 -0.035189
v -0.356914 -0.530085 -0.068848
v -0.342158 -0.485976 0.067231
v -0.342158 -0.485976 -0.067229
v -0.356914 -0.530085 0.068942
v -0.003394 0.037068 0.062281
v 0.040523 0.122874 0.033121
v 0.022884 0.128022 0.039601
v -0.003394 0.037068 -0.062279
v 0.022884 0.128022 -0.039599
v 0.040523 0.122874 -0.033119
v -0.163328 0.032829 0.061382
v -0.123818 0.162249 0.039332
v -0.139117 0.161835 0.035191
v -0.163328 0.032829 -0.061378
v -0.139117 0.161835 -0.035189
v -0.123818 0.162240 -0.039328
v -0.317315 -0.493392 -0.079289
v -0.356914 -0.530085 -0.068848
v -0.342158 -0.485976 -0.067229
v -0.317315 -0.493392 0.079291
v -0.342158 -0.485976 0.067231
v -0.356914 -0.530085 0.068942
v -0.315694 -0.493815 0.057781
v -0.163328 0.032829 0.061382
v -0.179979 0.032388 0.054721
v -0.123818 0.162240 -0.039328
v -0.053437 0.164112 -0.039419
v -0.163328 0.032829 -0.061378
v -0.123818 0.162249 0.039332
v -0.163328 0.032829 0.061382
v -0.053437 0.164112 0.039511
v 0.039802 0.035493 0.000002
v 0.059606 0.117762 -0.012239
v 0.062304 0.117276 0.000002
v 0.039802 0.035493 0.000002
v 0.062304 0.117276 0.000002
v 0.059606 0.117762 0.012241
v -0.128769 -0.549012 0.000002
v 0.036115 0.036555 0.019351
v -0.132456 -0.547572 0.018091
v -0.128769 -0.549012 0.000002
v -0.132456 -0.547572 -0.018089
v 0.036115 0.036555 -0.019349
v 0.036115 0.036555 0.019351
v 0.054290 0.119058 0.022052
v 0.031075 0.038517 0.034381
v -0.137675 -0.545781 0.032132
v -0.132456 -0.547572 0.018091
v 0.016677 0.040587 0.051032
v 0.054290 0.119058 0.022052
v 0.040523 0.122874 0.033121
v 0.016677 0.040587 0.051032
v 0.031075 0.038517 0.034381
v -0.137675 -0.545781 0.032132
v 0.016677 0.040587 -0.051028
v 0.054290 0.119058 -0.021958
v 0.031075 0.038517 -0.034379
v -0.137675 -0.545781 -0.032128
v 0.016677 0.040587 -0.051028
v 0.040523 0.122874 -0.033119
v -0.163328 0.032829 -0.061378
v -0.330814 -0.489333 -0.051028
v -0.179979 0.032388 -0.054719
v -0.053437 0.164112 -0.039419
v -0.035708 0.145041 -0.038608
v 0.016677 0.040587 0.051032
v -0.151538 -0.541515 0.047791
v 0.059606 0.117762 0.012241
v 0.054290 0.119058 0.022052
v -0.003394 0.037068 0.062281
v -0.169357 -0.536304 0.058322
v 0.016677 0.040587 0.051032
v 0.016677 0.040587 0.051032
v 0.040523 0.122874 0.033121
v 0.039802 0.035493 0.000002
v 0.059606 0.117762 0.012241
v -0.128769 -0.549012 0.000002
v 0.036115 0.036555 -0.019349
v 0.059606 0.117762 -0.012239
v 0.054290 0.119058 -0.021958
v 0.059606 0.117762 -0.012239
v 0.031075 0.038517 -0.034379
v 0.054290 0.119058 -0.021958
v -0.137675 -0.545781 -0.032128
v -0.132456 -0.547572 -0.018089
v -0.151538 -0.541515 -0.047789
v 0.016677 0.040587 -0.051028
v -0.003394 0.037068 -0.062279
v 0.016677 0.040587 -0.051028
v -0.169357 -0.536304 -0.058319
v 0.040523 0.122874 -0.033119
v 0.016677 0.040587 -0.051028
v -0.035708 0.145041 0.038612
v -0.053437 0.164112 0.039511
v -0.163328 0.032829 0.061382
v -0.163328 0.032829 -0.061378
v -0.169357 -0.536304 -0.058319
v -0.315694 -0.493815 -0.057779
v -0.163328 0.032829 -0.061378
v -0.330814 -0.489333 -0.051028
v -0.315694 -0.493815 0.057781
v -0.179979 0.032388 0.054721
v -0.330814 -0.489333 0.051122
v -0.163328 0.032829 0.061382
v -0.169357 -0.536304 0.058322
v -0.163328 0.032829 0.061382
v -0.169357 -0.536304 0.058322
v -0.003394 0.037068 0.062281
v -0.035708 0.145041 0.038612
v 0.022884 0.128022 0.039601
v 0.022884 0.128022 -0.039599
v -0.003394 0.037068 -0.062279
v -0.035708 0.145041 -0.038608
v -0.163328 0.032829 -0.061378
v -0.169357 -0.536304 -0.058319
v -0.317315 -0.493392 0.079291
v -0.356914 -0.530085 0.068942
v -0.340173 -0.535170 0.082712
v -0.317315 -0.493392 -0.079289
v -0.340173 -0.535170 -0.082708
v -0.356914 -0.530085 -0.068848
v -0.109144 -0.109353 0.056701
v -0.047587 -0.111963 0.056882
v -0.030215 -0.110127 0.047161
v -0.340173 -0.535170 0.082712
v -0.169446 -0.536322 0.080011
v -0.317315 -0.493392 0.079291
v -0.177459 -0.582393 0.084511
v -0.340173 -0.535170 -0.082708
v -0.169446 -0.536322 -0.079919
v -0.177459 -0.582393 -0.084509
v -0.317315 -0.493392 -0.079289
v -0.137407 -0.545565 0.068852
v -0.169446 -0.536322 0.080011
v -0.177459 -0.582393 0.084511
v -0.137407 -0.545565 -0.068848
v -0.177459 -0.582393 -0.084509
v -0.169446 -0.536322 -0.079919
v -0.109144 -0.109353 0.056701
v -0.011764 -0.114438 -0.017818
v -0.016626 -0.112548 -0.031769
v -0.109144 -0.109353 0.056701
v -0.016626 -0.112548 -0.031769
v -0.030215 -0.110127 -0.047069
v -0.109144 -0.109353 -0.056699
v -0.215616 -0.104538 0.051212
v -0.202116 -0.104574 0.055981
v -0.109144 -0.109353 0.056701
v -0.009423 -0.115203 0.000002
v -0.011764 -0.114438 -0.017818
v -0.137407 -0.545565 -0.068848
v -0.120488 -0.598719 -0.056609
v -0.145145 -0.591735 -0.074789
v -0.109144 -0.109353 0.056701
v -0.047587 -0.111963 -0.056878
v -0.109144 -0.109353 -0.056699
v -0.109144 -0.109353 -0.056699
v -0.202116 -0.104574 0.055981
v -0.109144 -0.109353 0.056701
v -0.202116 -0.104574 -0.055979
v -0.215616 -0.104538 -0.051208
v -0.109144 -0.109353 -0.056699
v -0.215616 -0.104538 0.051212
v -0.137407 -0.545565 0.068852
v -0.145145 -0.591735 0.074791
v -0.120488 -0.598719 0.056611
v -0.109144 -0.109353 0.056701
v -0.011764 -0.114438 0.017822
v -0.009423 -0.115203 0.000002
v -0.109144 -0.109353 0.056701
v -0.030215 -0.110127 -0.047069
v -0.047587 -0.111963 -0.056878
v -0.101860 -0.555483 -0.025469
v -0.120488 -0.598719 -0.056609
v -0.115537 -0.551748 -0.051028
v -0.101860 -0.555483 0.025471
v -0.115537 -0.551748 0.051031
v -0.120488 -0.598719 0.056611
v -0.137407 -0.545565 0.068852
v -0.177459 -0.582393 0.084511
v -0.145145 -0.591735 0.074791
v -0.137407 -0.545565 -0.068848
v -0.145145 -0.591735 -0.074789
v -0.177459 -0.582393 -0.084509
v -0.109144 -0.109353 0.056701
v -0.016626 -0.112548 0.031772
v -0.011764 -0.114438 0.017822
v -0.109144 -0.109353 0.056701
v -0.030215 -0.110127 0.047161
v -0.016626 -0.112548 0.031772
v -0.137407 -0.545565 0.068852
v -0.120488 -0.598719 0.056611
v -0.115537 -0.551748 0.051031
v -0.137407 -0.545565 -0.068848
v -0.115537 -0.551748 -0.051028
v -0.120488 -0.598719 -0.056609
v -0.097987 -0.556347 0.000002
v -0.103473 -0.603390 0.028442
v -0.098797 -0.604443 0.000002
v -0.101860 -0.555483 0.025471
v -0.101860 -0.555483 0.025471
v -0.120488 -0.598719 0.056611
v -0.103473 -0.603390 0.028442
v -0.097987 -0.556347 0.000002
v -0.103473 -0.603390 -0.028438
v -0.101860 -0.555483 -0.025469
v -0.098797 -0.604443 0.000002
v -0.101860 -0.555483 -0.025469
v -0.103473 -0.603390 -0.028438
v -0.120488 -0.598719 -0.056609
v -0.153248 0.117339 -0.019889
v -0.135333 0.160359 -0.019889
v -0.139117 0.161835 -0.019889
v -0.153248 0.117339 0.019891
v -0.135333 0.160359 0.019891
v -0.148929 0.117456 0.019891
v -0.153248 0.117339 -0.019889
v -0.148929 0.117456 -0.019889
v -0.135333 0.160359 -0.019889
v -0.153248 0.117339 0.019891
v -0.139117 0.161835 0.019891
v -0.135333 0.160359 0.019891
v -0.202116 -0.104574 0.055981
v -0.067204 0.034881 0.057331
v -0.109144 -0.109353 0.056701
v -0.047587 -0.111963 0.056882
v -0.047587 -0.111963 -0.056878
v -0.067204 0.034881 -0.057329
v -0.109144 -0.109353 -0.056699
v -0.202116 -0.104574 -0.055979
v -0.162518 0.032136 0.056972
v -0.215616 -0.104538 0.051212
v -0.176374 0.031083 0.052201
v -0.202116 -0.104574 0.055981
v -0.067204 0.034881 0.057331
v -0.047587 -0.111963 0.056882
v -0.004383 0.036717 0.057871
v -0.123276 0.161169 0.035011
v -0.162518 0.032136 0.056972
v -0.176374 0.031083 0.052201
v -0.135787 0.160278 0.032581
v -0.162518 0.032136 -0.056968
v -0.135787 0.160278 -0.032579
v -0.176374 0.031083 -0.052199
v -0.202116 -0.104574 -0.055979
v -0.067204 0.034881 -0.057329
v -0.047587 -0.111963 -0.056878
v -0.004383 0.036717 -0.057869
v -0.123276 0.161169 -0.035009
v -0.067204 0.034881 -0.057329
v -0.034898 0.144375 -0.034198
v -0.004383 0.036717 -0.057869
v -0.123276 0.161169 -0.035009
v -0.034898 0.144375 -0.034198
v -0.053794 0.163347 -0.035009
v 0.013525 0.041082 0.047972
v -0.030215 -0.110127 0.047161
v -0.047587 -0.111963 0.056882
v 0.027202 0.039399 -0.032308
v -0.030215 -0.110127 -0.047069
v -0.016626 -0.112548 -0.031769
v 0.032153 0.037563 0.018182
v -0.016626 -0.112548 0.031772
v 0.027202 0.039399 0.032402
v 0.050693 0.119544 0.019712
v -0.016626 -0.112548 0.031772
v -0.030215 -0.110127 0.047161
v 0.013525 0.041082 -0.047968
v -0.047587 -0.111963 -0.056878
v -0.030215 -0.110127 -0.047069
v 0.050693 0.119544 -0.019708
v 0.037550 0.122856 -0.029698
v 0.027202 0.039399 -0.032308
v 0.050693 0.119544 -0.019708
v -0.030215 -0.110127 -0.047069
v 0.034406 0.037041 0.000002
v -0.011764 -0.114438 0.017822
v 0.032153 0.037563 0.018182
v -0.011764 -0.114438 -0.017818
v -0.009423 -0.115203 0.000002
v 0.055643 0.118554 0.010981
v 0.057896 0.118527 0.000002
v 0.050693 0.119544 0.019712
v -0.011764 -0.114438 0.017822
v -0.016626 -0.112548 0.031772
v 0.032153 0.037563 -0.018178
v -0.016626 -0.112548 -0.031769
v -0.011764 -0.114438 -0.017818
v 0.032153 0.037563 -0.018178
v 0.027202 0.039399 -0.032308
v 0.050693 0.119544 -0.019708
v 0.055643 0.118554 -0.010888
v 0.050693 0.119544 -0.019708
v 0.034406 0.037041 0.000002
v 0.057896 0.118527 0.000002
v -0.011764 -0.114438 -0.017818
v -0.009423 -0.115203 0.000002
v -0.011764 -0.114438 0.017822
v 0.027202 0.039399 0.032402
v -0.030215 -0.110127 0.047161
v 0.013525 0.041082 0.047972
v 0.050693 0.119544 0.019712
v 0.037550 0.122856 0.029702
v 0.050693 0.119544 0.019712
v -0.004383 0.036717 -0.057869
v 0.037550 0.122856 -0.029698
v 0.021895 0.126996 -0.035278
v -0.004383 0.036717 -0.057869
v 0.013525 0.041082 -0.047968
v -0.004383 0.036717 -0.057869
v -0.047587 -0.111963 -0.056878
v -0.162518 0.032136 -0.056968
v -0.215616 -0.104538 -0.051208
v -0.202116 -0.104574 -0.055979
v -0.162518 0.032136 -0.056968
v -0.176374 0.031083 -0.052199
v -0.215616 -0.104538 -0.051208
v -0.034898 0.144375 0.034202
v -0.004383 0.036717 0.057871
v -0.067204 0.034881 0.057331
v -0.123276 0.161169 0.035011
v -0.034898 0.144375 0.034202
v -0.053794 0.163347 0.035011
v -0.162518 0.032136 0.056972
v -0.202116 -0.104574 0.055981
v -0.215616 -0.104538 0.051212
v 0.013525 0.041082 0.047972
v -0.047587 -0.111963 0.056882
v -0.004383 0.036717 0.057871
v -0.004383 0.036717 0.057871
v 0.037550 0.122856 0.029702
v -0.004383 0.036717 0.057871
v 0.021895 0.126996 0.035282
v -0.034898 0.144375 0.034202
v 0.021895 0.126996 0.035282
v -0.034898 0.144375 -0.034198
v -0.004383 0.036717 -0.057869
v 0.021895 0.126996 -0.035278
v -0.162518 0.032136 0.056972
v -0.135787 0.160278 0.032581
v -0.123276 0.161169 0.035011
v -0.162518 0.032136 -0.056968
v -0.123276 0.161169 -0.035009
v -0.135787 0.160278 -0.032579
v -0.176374 0.031083 -0.052199
v -0.215616 -0.104538 0.051212
v -0.215616 -0.104538 -0.051208
v -0.176374 0.031083 0.052201
v -0.148929 0.117456 -0.019889
v -0.148929 0.117456 0.019891
v -0.148929 0.117456 0.019891
v -0.135333 0.160359 0.019891
v -0.176374 0.031083 0.052201
v -0.135333 0.160359 0.019891
v -0.135787 0.160278 0.032581
v -0.176374 0.031083 -0.052199
v -0.135787 0.160278 -0.032579
v -0.135333 0.160359 -0.019889
v -0.176374 0.031083 -0.052199
v -0.135333 0.160359 -0.019889
v -0.148929 0.117456 -0.019889
v -0.169446 -0.536322 0.080011
v -0.151538 -0.541515 0.047791
v -0.169357 -0.536304 0.058322
v -0.342158 -0.485976 0.067231
v -0.315694 -0.493815 0.057781
v -0.330814 -0.489333 0.051122
v -0.342158 -0.485976 0.067231
v -0.317315 -0.493392 0.079291
v -0.169446 -0.536322 0.080011
v -0.169357 -0.536304 0.058322
v -0.317315 -0.493392 0.079291
v -0.342158 -0.485976 -0.067229
v -0.315694 -0.493815 -0.057779
v -0.317315 -0.493392 -0.079289
v -0.342158 -0.485976 -0.067229
v -0.330814 -0.489333 -0.051028
v -0.169357 -0.536304 -0.058319
v -0.169446 -0.536322 -0.079919
v -0.317315 -0.493392 -0.079289
v -0.137407 -0.545565 -0.068848
v -0.169446 -0.536322 -0.079919
v -0.115537 -0.551748 -0.051028
v -0.151538 -0.541515 -0.047789
v -0.151538 -0.541515 -0.047789
v -0.137675 -0.545781 -0.032128
v -0.132456 -0.547572 -0.018089
v -0.101860 -0.555483 -0.025469
v -0.097987 -0.556347 0.000002
v -0.128769 -0.549012 0.000002
v -0.132456 -0.547572 0.018091
v -0.101860 -0.555483 0.025471
v -0.115537 -0.551748 0.051031
v -0.137675 -0.545781 0.032132
v -0.137675 -0.545781 0.032132
v -0.151538 -0.541515 0.047791
v -0.137407 -0.545565 0.068852
v -0.169446 -0.536322 0.080011
v -0.137407 -0.545565 -0.068848
v -0.169357 -0.536304 -0.058319
v -0.151538 -0.541515 -0.047789
v -0.342158 -0.485976 -0.067229
v -0.330814 -0.489333 0.051122
v -0.330814 -0.489333 -0.051028
v -0.342158 -0.485976 -0.067229
v -0.342158 -0.485976 0.067231
v -0.330814 -0.489333 0.051122
v -0.115537 -0.551748 -0.051028
v -0.137675 -0.545781 -0.032128
v -0.132456 -0.547572 -0.018089
vn -0.2595 -0.9657 -0.0000
vn -0.2206 -0.9754 -0.0000
vn -0.2832 -0.9591 -0.0000
vn -0.2906 -0.9568 -0.0000
vn -0.2758 -0.9612 -0.0000
vn -0.2686 -0.9633 -0.0000
vn -0.2685 -0.9633 -0.0000
vn -0.2591 -0.9658 -0.0000
vn -0.2684 -0.9633 -0.0000
vn -0.2590 -0.9659 -0.0000
vn -0.2757 -0.9613 -0.0000
vn -0.2830 -0.9591 -0.0000
vn -0.2901 -0.9570 -0.0000
vn -0.0157 0.9657 0.2592
vn -0.0236 0.9846 0.1734
vn -0.0237 0.9859 0.1657
vn -0.0157 0.9658 -0.2590
vn -0.0236 0.9859 -0.1656
vn -0.0236 0.9846 -0.1732
vn -0.0157 0.9657 -0.2592
vn -0.0236 0.9846 -0.1734
vn -0.0236 0.9694 -0.2445
vn -0.0157 0.9657 0.2591
vn -0.0236 0.9694 0.2443
vn -0.0236 0.9846 0.1733
vn 0.1740 0.9720 0.1581
vn 0.1655 0.9837 0.0709
vn 0.1733 0.9833 0.0552
vn 0.2286 0.9381 0.2601
vn 0.2764 0.9555 0.1026
vn 0.2202 0.9358 0.2752
vn 0.2767 0.9563 0.0948
vn 0.2286 0.9381 -0.2601
vn 0.2766 0.9555 -0.1026
vn 0.2768 0.9562 -0.0948
vn 0.2201 0.9358 -0.2752
vn 0.2286 0.9381 0.2602
vn 0.1810 0.9681 0.1732
vn 0.1738 0.9720 0.1581
vn 0.1737 0.9721 0.1579
vn 0.1808 0.9682 0.1730
vn 0.1651 0.9837 0.0707
vn -0.0157 0.9656 0.2594
vn 0.2521 0.9458 0.2047
vn -0.0236 0.9693 0.2447
vn 0.2679 0.9379 0.2204
vn -0.0157 0.9656 -0.2594
vn 0.2521 0.9458 -0.2047
vn 0.2678 0.9379 -0.2203
vn -0.0236 0.9693 -0.2448
vn 0.2288 0.9381 0.2602
vn 0.2204 0.9358 0.2753
vn 0.1812 0.9681 0.1733
vn 0.3772 0.9260 -0.0157
vn 0.2523 0.9457 0.2049
vn 0.2680 0.9378 0.2206
vn 0.3637 0.9314 -0.0158
vn 0.3771 0.9260 0.0157
vn 0.2524 0.9457 -0.2048
vn 0.3636 0.9314 0.0158
vn 0.2681 0.9378 -0.2206
vn 0.7111 0.7027 0.0237
vn 0.7110 0.7028 -0.0237
vn 0.7147 0.6757 0.1806
vn 0.7147 0.6757 -0.1807
vn -0.9540 0.2998 -0.0000
vn -0.9540 0.2997 -0.0000
vn -0.9569 0.2903 -0.0000
vn -0.9569 0.2904 -0.0000
vn -0.9539 0.3002 -0.0000
vn -0.9612 0.2758 -0.0000
vn -0.9570 0.2902 -0.0000
vn -0.9541 0.2995 -0.0000
vn -0.1884 0.1334 0.9730
vn -0.2690 0.2373 0.9334
vn -0.3703 0.1655 0.9140
vn -0.1884 0.1333 -0.9730
vn -0.3704 0.1654 -0.9140
vn -0.2690 0.2372 -0.9335
vn -0.9487 0.3162 -0.0000
vn -0.9487 0.3161 -0.0000
vn -0.9486 0.3164 -0.0000
vn 0.4894 -0.0789 0.8685
vn 0.5208 0.0474 0.8524
vn 0.3701 0.1182 0.9214
vn 0.4895 -0.0787 -0.8685
vn 0.3701 0.1182 -0.9214
vn 0.5208 0.0474 -0.8524
vn -0.1884 0.1333 0.9730
vn -0.1102 0.1963 0.9743
vn -0.2690 0.2372 0.9335
vn -0.1883 0.1334 -0.9730
vn -0.2689 0.2373 -0.9335
vn -0.1100 0.1965 -0.9743
vn -0.1897 0.1421 -0.9715
vn -0.4866 0.2902 -0.8240
vn -0.3933 0.1650 -0.9045
vn -0.1897 0.1421 0.9715
vn -0.3932 0.1651 0.9045
vn -0.4865 0.2902 0.8241
vn -0.1975 0.0474 0.9791
vn -0.3704 0.1654 0.9140
vn -0.1100 0.1964 -0.9743
vn 0.0709 0.1024 -0.9922
vn -0.1882 0.1334 -0.9730
vn -0.1100 0.1964 0.9743
vn -0.1883 0.1334 0.9730
vn 0.0708 0.1024 0.9922
vn 0.9633 -0.2683 -0.0001
vn 0.9075 -0.2366 -0.3471
vn 0.9633 -0.2683 0.0002
vn 0.9633 -0.2683 0.0001
vn 0.9075 -0.2365 0.3472
vn 0.9612 -0.2757 0.0002
vn 0.9279 -0.2516 0.2752
vn 0.9189 -0.2670 0.2906
vn 0.9612 -0.2757 -0.0000
vn 0.9189 -0.2670 -0.2904
vn 0.9279 -0.2516 -0.2752
vn 0.9279 -0.2517 0.2752
vn 0.7756 -0.1254 0.6187
vn 0.8358 -0.1972 0.5124
vn 0.8144 -0.2372 0.5297
vn 0.9188 -0.2670 0.2906
vn 0.6161 -0.0948 0.7819
vn 0.7755 -0.1253 0.6188
vn 0.5209 0.0473 0.8523
vn 0.6161 -0.0947 0.7819
vn 0.8357 -0.1971 0.5126
vn 0.8143 -0.2372 0.5298
vn 0.6161 -0.0948 -0.7819
vn 0.7754 -0.1254 -0.6188
vn 0.8357 -0.1971 -0.5126
vn 0.8143 -0.2372 -0.5298
vn 0.6161 -0.0947 -0.7819
vn 0.5209 0.0474 -0.8523
vn 0.7755 -0.1253 -0.6188
vn -0.1884 0.1334 -0.9730
vn -0.3775 0.1023 -0.9203
vn -0.3703 0.1655 -0.9140
vn -0.1883 0.1333 -0.9730
vn 0.0631 0.1576 -0.9855
vn 0.5998 -0.1736 0.7811
vn 0.9279 -0.2516 0.2753
vn 0.9074 -0.2366 0.3473
vn 0.5997 -0.1736 0.7812
vn 0.4894 -0.0790 0.8685
vn 0.4740 -0.1422 0.8690
vn 0.6160 -0.0948 0.7820
vn 0.4895 -0.0790 0.8684
vn 0.6160 -0.0949 0.7820
vn 0.5208 0.0473 0.8524
vn 0.9633 -0.2685 -0.0000
vn 0.9075 -0.2367 0.3471
vn 0.9612 -0.2758 -0.0000
vn 0.9075 -0.2367 -0.3471
vn 0.9279 -0.2515 -0.2753
vn 0.9074 -0.2366 -0.3473
vn 0.8358 -0.1971 -0.5124
vn 0.7755 -0.1254 -0.6187
vn 0.8143 -0.2372 -0.5297
vn 0.9188 -0.2670 -0.2906
vn 0.5997 -0.1736 -0.7812
vn 0.6162 -0.0948 -0.7819
vn 0.4895 -0.0790 -0.8684
vn 0.6160 -0.0948 -0.7820
vn 0.4739 -0.1422 -0.8690
vn 0.5208 0.0473 -0.8524
vn 0.6160 -0.0949 -0.7820
vn 0.0630 0.1576 0.9855
vn 0.0709 0.1024 0.9922
vn -0.0079 -0.0079 -0.9999
vn -0.1973 0.0474 -0.9792
vn -0.1974 0.0474 -0.9792
vn -0.3776 0.1023 -0.9203
vn -0.1974 0.0474 0.9792
vn -0.3703 0.1655 0.9141
vn -0.3775 0.1023 0.9203
vn -0.1973 0.0474 0.9792
vn -0.0079 -0.0079 0.9999
vn -0.0000 0.1260 0.9920
vn 0.0631 0.1577 0.9855
vn 0.0474 0.2292 0.9722
vn 0.0475 0.2292 -0.9722
vn -0.0000 0.1260 -0.9920
vn 0.0631 0.1577 -0.9855
vn -0.1895 0.1422 0.9715
vn -0.4865 0.2904 0.8240
vn -0.2995 0.2444 0.9222
vn -0.1896 0.1422 -0.9715
vn -0.2996 0.2444 -0.9222
vn -0.4866 0.2904 -0.8239
vn 0.0314 0.7068 -0.7067
vn -0.1415 0.7707 -0.6213
vn -0.4170 0.6846 -0.5979
vn -0.2995 0.2443 0.9223
vn 0.1729 0.0629 0.9829
vn 0.1804 0.0784 0.9805
vn -0.2994 0.2444 -0.9223
vn 0.1729 0.0629 -0.9829
vn 0.1802 0.0784 -0.9805
vn -0.1895 0.1421 -0.9715
vn 0.4719 0.0315 0.8811
vn 0.1730 0.0629 0.9829
vn 0.1804 0.0785 0.9805
vn 0.4720 0.0315 -0.8810
vn 0.1804 0.0784 -0.9805
vn 0.1730 0.0629 -0.9829
vn 0.0314 0.7067 -0.7068
vn -0.5592 0.8033 0.2048
vn -0.5027 0.7618 0.4085
vn -0.4172 0.7165 0.5592
vn 0.0315 0.7067 0.7068
vn 0.2137 0.7992 -0.5618
vn 0.1649 0.6359 -0.7539
vn -0.5976 0.8018 0.0079
vn -0.5592 0.8033 0.2049
vn 0.4721 0.0315 -0.8810
vn 0.7565 -0.0000 -0.6540
vn 0.4564 0.0393 -0.8889
vn 0.0314 0.7067 -0.7069
vn -0.1655 0.7012 0.6935
vn 0.0300 0.7068 0.7068
vn 0.0314 0.7067 0.7068
vn 0.1648 0.6360 -0.7539
vn 0.0363 0.7067 -0.7066
vn 0.1725 0.5959 0.7843
vn 0.2287 0.7964 0.5598
vn 0.0315 0.7067 0.7069
vn 0.2287 0.7964 0.5599
vn 0.4720 0.0314 0.8810
vn 0.4563 0.0393 0.8889
vn 0.7565 -0.0000 0.6540
vn -0.5884 0.7844 -0.1961
vn -0.5975 0.8018 0.0080
vn 0.0315 0.7067 -0.7068
vn -0.4173 0.7164 0.5591
vn 0.9436 -0.0237 -0.3303
vn 0.7565 -0.0001 -0.6540
vn 0.7708 -0.0079 -0.6370
vn 0.9436 -0.0239 0.3303
vn 0.7708 -0.0082 0.6370
vn 0.7565 -0.0003 0.6540
vn 0.4719 0.0314 0.8811
vn 0.4562 0.0393 0.8890
vn 0.4719 0.0314 -0.8811
vn 0.4562 0.0393 -0.8890
vn -0.5431 0.7241 -0.4250
vn 0.0313 0.7067 -0.7068
vn -0.4170 0.6845 -0.5980
vn -0.5431 0.7241 -0.4251
vn 0.4720 0.0315 0.8810
vn 0.7564 0.0001 0.6541
vn 0.7707 -0.0078 0.6371
vn 0.4719 0.0316 -0.8811
vn 0.7707 -0.0078 -0.6372
vn 0.7564 0.0001 -0.6541
vn 0.9997 -0.0236 0.0001
vn 0.9405 -0.0080 0.3397
vn 0.9999 -0.0159 -0.0000
vn 0.9436 -0.0235 0.3301
vn 0.9436 -0.0233 0.3304
vn 0.7565 0.0003 0.6540
vn 0.9404 -0.0076 0.3399
vn 0.9997 -0.0236 -0.0000
vn 0.9405 -0.0080 -0.3397
vn 0.9436 -0.0235 -0.3302
vn 0.9436 -0.0233 -0.3303
vn 0.9404 -0.0076 -0.3400
vn 0.7565 0.0003 -0.6540
vn -0.0000 -0.0000 1.0000
vn -0.0000 -0.0000 -1.0000
vn 0.1649 0.6361 -0.7538
vn -0.0000 -0.0948 -0.9955
vn -0.1416 0.7707 -0.6213
vn -0.1654 0.7013 0.6934
vn -0.0000 -0.0948 0.9955
vn 0.0314 0.7068 0.7067
vn 0.1725 0.5961 0.7842
vn 0.1656 -0.1262 -0.9781
vn 0.3314 -0.1500 -0.9315
vn 0.1650 0.6361 -0.7537
vn -0.1424 0.7675 -0.6250
vn -0.2517 -0.0236 -0.9675
vn 0.0711 -0.1896 -0.9793
vn -0.0000 -0.0949 -0.9955
vn 0.1658 -0.1264 -0.9780
vn 0.3316 -0.1501 -0.9314
vn 0.2121 -0.2279 -0.9503
vn 0.1656 -0.1263 0.9781
vn 0.2120 -0.2279 0.9503
vn 0.3314 -0.1501 0.9315
vn 0.1656 -0.1262 0.9781
vn -0.1655 0.7013 0.6934
vn -0.2517 -0.0236 0.9675
vn 0.0711 -0.1895 0.9793
vn 0.1655 -0.1262 0.9781
vn -0.0000 -0.0949 0.9955
vn -0.0315 -0.1656 0.9857
vn 0.0710 -0.1895 0.9793
vn -0.0000 0.0394 0.9992
vn -0.6077 0.0868 -0.7894
vn -0.1414 0.7707 -0.6213
vn -0.8324 0.1963 0.5183
vn -0.4173 0.7165 0.5590
vn -0.5027 0.7619 0.4084
vn -0.9365 0.2518 -0.2440
vn -0.5431 0.7242 -0.4250
vn -0.8324 0.1963 -0.5182
vn -0.7661 0.1184 -0.6317
vn -0.8323 0.1964 -0.5184
vn -0.4170 0.6845 -0.5979
vn -0.6077 0.0868 0.7894
vn -0.1653 0.7013 0.6934
vn -0.4172 0.7166 0.5590
vn -0.6078 0.0868 0.7894
vn -0.7660 0.1184 0.6318
vn -0.5021 -0.0550 0.8630
vn -0.6078 0.0869 0.7893
vn -0.8323 0.1963 0.5184
vn -0.7660 0.1185 0.6318
vn -0.4172 0.7165 0.5590
vn -0.5883 0.7845 -0.1960
vn -0.9365 0.2518 -0.2439
vn -0.5591 0.8034 0.2048
vn -0.5974 0.8019 0.0079
vn -0.9095 0.2431 -0.3371
vn -0.9612 0.2759 -0.0001
vn -0.9365 0.2519 -0.2440
vn -0.5883 0.7845 -0.1961
vn -0.9365 0.2519 0.2440
vn -0.9365 0.2518 0.2440
vn -0.8324 0.1963 0.5182
vn -0.5026 0.7620 0.4084
vn -0.7661 0.1183 0.6317
vn -0.9095 0.2431 0.3371
vn -0.7661 0.1184 0.6317
vn -0.9612 0.2757 -0.0000
vn -0.8324 0.1963 -0.5183
vn -0.6078 0.0868 -0.7893
vn -0.7660 0.1185 -0.6318
vn -0.5021 -0.0550 -0.8631
vn -0.7659 0.1184 -0.6319
vn -0.2518 -0.0237 0.9675
vn -0.5021 -0.0550 0.8631
vn -0.2126 -0.1811 0.9602
vn -0.2517 -0.0235 0.9675
vn -0.6077 0.0869 0.7894
vn -0.5021 -0.0549 0.8631
vn -0.6078 0.0868 0.7893
vn -0.2518 -0.0236 0.9675
vn -0.1627 0.7001 0.6953
vn 0.1658 -0.1261 0.9781
vn 0.1726 0.5962 0.7841
vn 0.3315 -0.1500 0.9315
vn -0.0315 -0.1656 -0.9857
vn 0.0710 -0.1895 -0.9793
vn -0.0316 -0.1656 -0.9857
vn -0.0000 0.0393 -0.9992
vn 0.1657 -0.1262 -0.9781
vn 0.1649 0.6361 -0.7537
vn 0.2136 0.7992 -0.5618
vn -0.6078 0.0869 -0.7893
vn -0.1416 0.7708 -0.6212
vn -0.2518 -0.0236 -0.9675
vn -0.2519 -0.0237 -0.9675
vn -0.5022 -0.0550 -0.8630
vn -0.6078 0.0867 -0.7893
vn -0.2125 -0.1810 -0.9602
vn -0.5021 -0.0549 -0.8631
vn -0.2124 -0.1810 -0.9603
vn -0.0316 -0.1656 0.9857
vn -0.2517 -0.0237 0.9675
vn -0.2125 -0.1810 0.9603
vn 0.1656 -0.1261 -0.9781
vn 0.2120 -0.2276 -0.9504
vn 0.0711 -0.1894 -0.9793
vn 0.1657 -0.1261 0.9781
vn 0.0713 -0.1894 0.9793
vn 0.2121 -0.2276 0.9504
vn 0.9569 -0.2903 -0.0000
vn 0.9570 -0.2902 -0.0000
vn 0.9540 -0.2997 -0.0000
vn 0.9541 -0.2996 -0.0000
vn 0.9538 -0.2996 0.0236
vn 0.9571 -0.2899 -0.0000
vn 0.9539 -0.2992 0.0236
vn 0.9537 -0.2992 0.0315
vn 0.9537 -0.2992 -0.0315
vn 0.9539 -0.2992 -0.0237
vn 0.9538 -0.2996 -0.0236
vn 0.2828 0.9592 -0.0000
vn 0.2756 0.9612 -0.0079
vn 0.2829 0.9592 -0.0000
vn 0.2830 0.9591 -0.0000
vn 0.2831 0.9591 -0.0000
vn 0.2758 0.9612 -0.0000
vn 0.2757 0.9612 -0.0000
vn 0.2685 0.9633 0.0079
vn 0.2758 0.9612 0.0079
vn 0.2685 0.9632 0.0079
vn 0.2758 0.9611 0.0158
vn 0.2518 0.9677 0.0157
vn 0.2518 0.9678 -0.0000
vn 0.2443 0.9697 -0.0000
vn 0.2352 0.9719 -0.0000
vn 0.2518 0.9677 -0.0157
vn 0.2684 0.9633 -0.0079
vn 0.2757 0.9611 -0.0157
vn 0.2685 0.9633 -0.0079
vn 0.2757 0.9611 -0.0158
vn 0.2758 0.9612 -0.0078
vn 0.2759 0.9612 -0.0000
vn 0.2758 0.9612 0.0078
vn 0.2838 0.9589 -0.0000
vn 0.2832 0.9591 -0.0000
vn 0.2683 0.9633 0.0079
vn 0.2756 0.9611 0.0158
vn 0.2516 0.9677 0.0157
vt 0.279100 0.052600
vt 0.277000 0.040100
vt 0.279100 0.027500
vt 0.388100 0.003300
vt 0.395900 0.009300
vt 0.396000 0.070200
vt 0.298400 0.073100
vt 0.287000 0.065100
vt 0.298200 0.007000
vt 0.286800 0.015000
vt 0.313100 0.002700
vt 0.388300 0.076300
vt 0.313300 0.077300
vt 0.214300 0.331700
vt 0.184000 0.342100
vt 0.184000 0.340000
vt 0.012600 0.331900
vt 0.042900 0.340200
vt 0.042800 0.342300
vt 0.012200 0.333800
vt 0.214700 0.333600
vt 0.133500 0.334200
vt 0.124900 0.336200
vt 0.124900 0.334200
vt 0.142600 0.334200
vt 0.169600 0.336200
vt 0.142600 0.336200
vt 0.169600 0.334200
vt 0.084400 0.334200
vt 0.057600 0.336200
vt 0.057600 0.334200
vt 0.084400 0.336200
vt 0.133500 0.336200
vt 0.220400 0.332100
vt 0.221200 0.330200
vt 0.006400 0.332300
vt 0.005600 0.330400
vt 0.241100 0.329500
vt 0.235600 0.330700
vt 0.234700 0.329000
vt 0.241000 0.331300
vt 0.261200 0.329700
vt 0.266600 0.331000
vt 0.261300 0.331500
vt 0.267600 0.329300
vt 0.044000 0.342500
vt 0.054100 0.334700
vt 0.054900 0.336600
vt 0.183400 0.341900
vt 0.172600 0.336100
vt 0.173300 0.334100
vt 0.183400 0.339800
vt 0.044100 0.340400
vt 0.242000 0.308200
vt 0.241100 0.329200
vt 0.234700 0.328800
vt 0.267600 0.329000
vt 0.261200 0.329500
vt 0.260200 0.308400
vt 0.226900 0.268900
vt 0.275100 0.268700
vt 0.227900 0.028800
vt 0.273000 0.028700
vt 0.010300 0.269700
vt 0.006800 0.329400
vt 0.002700 0.267500
vt 0.217100 0.269700
vt 0.224800 0.267600
vt 0.220600 0.329400
vt 0.398500 0.070200
vt 0.419000 0.010000
vt 0.419100 0.069400
vt 0.398400 0.009300
vt 0.079600 0.290000
vt 0.093200 0.332500
vt 0.083500 0.333000
vt 0.148400 0.290000
vt 0.144500 0.333000
vt 0.134800 0.332500
vt 0.013700 0.330900
vt 0.213700 0.330900
vt 0.260200 0.024200
vt 0.279400 0.002800
vt 0.272300 0.024200
vt 0.023800 0.024200
vt 0.011800 0.024200
vt 0.004600 0.002800
vt 0.011000 0.027000
vt 0.183400 0.339200
vt 0.044100 0.339200
vt 0.114000 0.294800
vt 0.120200 0.332600
vt 0.114000 0.332600
vt 0.107800 0.332600
vt 0.114000 0.026700
vt 0.105400 0.294800
vt 0.105800 0.026900
vt 0.122200 0.026900
vt 0.122600 0.294800
vt 0.102300 0.332500
vt 0.098500 0.295000
vt 0.099200 0.027000
vt 0.088900 0.294000
vt 0.139100 0.294000
vt 0.125700 0.332500
vt 0.129500 0.295000
vt 0.128900 0.027000
vt 0.224100 0.027000
vt 0.173300 0.333500
vt 0.089700 0.027100
vt 0.080200 0.027100
vt 0.138400 0.027100
vt 0.147900 0.027100
vt 0.054100 0.333500
vt 0.149000 0.027100
vt 0.216500 0.027000
vt 0.003400 0.027000
vt 0.078500 0.027100
vt 0.077900 0.290000
vt 0.081800 0.333000
vt 0.145600 0.333000
vt 0.149600 0.290000
vt 0.013800 0.002800
vt 0.270200 0.002800
vt 0.473000 0.019900
vt 0.494800 0.019900
vt 0.501000 0.023400
vt 0.089600 0.024200
vt 0.086200 0.002800
vt 0.194400 0.024200
vt 0.197800 0.002800
vt 0.104800 0.024200
vt 0.179100 0.024200
vt 0.507700 0.046400
vt 0.505800 0.051300
vt 0.500900 0.056700
vt 0.472900 0.060000
vt 0.435200 0.021800
vt 0.440000 0.020100
vt 0.508900 0.040000
vt 0.169200 0.002800
vt 0.182800 0.002800
vt 0.494700 0.060100
vt 0.439900 0.059700
vt 0.435100 0.058000
vt 0.101200 0.002800
vt 0.114800 0.002800
vt 0.507700 0.033700
vt 0.153500 0.024200
vt 0.166400 0.024200
vt 0.130500 0.024200
vt 0.117500 0.024200
vt 0.505800 0.028800
vt 0.142000 0.024200
vt 0.129300 0.002800
vt 0.142000 0.002800
vt 0.154600 0.002800
vt 0.242500 0.308800
vt 0.243300 0.328600
vt 0.241600 0.328600
vt 0.259700 0.309000
vt 0.258900 0.328800
vt 0.258300 0.310600
vt 0.243800 0.310300
vt 0.260600 0.328900
vt 0.486400 0.174800
vt 0.443700 0.248700
vt 0.445700 0.182500
vt 0.418700 0.187900
vt 0.353300 0.187900
vt 0.328400 0.248700
vt 0.326300 0.182500
vt 0.285600 0.174800
vt 0.484100 0.237800
vt 0.492600 0.173300
vt 0.490400 0.236100
vt 0.417300 0.255800
vt 0.479600 0.298800
vt 0.485100 0.297400
vt 0.287900 0.237900
vt 0.287000 0.297500
vt 0.281600 0.236200
vt 0.354700 0.255800
vt 0.292500 0.298900
vt 0.332700 0.300400
vt 0.322600 0.306700
vt 0.409200 0.259700
vt 0.410100 0.190500
vt 0.371700 0.260700
vt 0.362000 0.190600
vt 0.371200 0.191000
vt 0.393900 0.260500
vt 0.400800 0.191000
vt 0.400300 0.260700
vt 0.396000 0.297600
vt 0.362800 0.259700
vt 0.376000 0.297600
vt 0.368000 0.297500
vt 0.386000 0.260600
vt 0.394100 0.190800
vt 0.377900 0.190800
vt 0.386000 0.190700
vt 0.391300 0.297800
vt 0.386000 0.298100
vt 0.378200 0.260500
vt 0.380800 0.297800
vt 0.404000 0.297500
vt 0.360000 0.297700
vt 0.279400 0.173400
vt 0.439300 0.300300
vt 0.449500 0.306700
vt 0.412100 0.297700
vt 0.441500 0.129000
vt 0.405000 0.079000
vt 0.441200 0.079100
vt 0.404500 0.129000
vt 0.430000 0.161000
vt 0.415900 0.161000
vt 0.415900 0.176900
vt 0.411400 0.176900
vt 0.434400 0.176900
vt 0.430000 0.177000
vt 0.500100 0.004400
vt 0.508400 0.018600
vt 0.500200 0.014000
vt 0.420500 0.010000
vt 0.432700 0.014200
vt 0.425700 0.017200
vt 0.431900 0.004700
vt 0.420600 0.069400
vt 0.432800 0.065200
vt 0.432100 0.074800
vt 0.425800 0.062300
vt 0.500300 0.065500
vt 0.500200 0.075100
vt 0.515000 0.070200
vt 0.525000 0.062300
vt 0.508500 0.060900
vt 0.514900 0.053900
vt 0.517300 0.047700
vt 0.531300 0.051000
vt 0.533000 0.039700
vt 0.519000 0.039700
vt 0.517300 0.031700
vt 0.531200 0.028400
vt 0.524900 0.017200
vt 0.514800 0.025500
vt 0.514900 0.009300
s 1
usemtl Magazine1Mtl
f 1/1/1 2/2/2 3/3/1
f 4/4/3 5/5/4 6/6/4
f 7/7/5 8/8/6 9/9/5
f 10/8/7 11/1/8 12/10/9
f 11/1/8 13/3/10 12/10/9
f 10/8/7 12/10/9 14/9/11
f 15/7/5 14/9/5 16/11/5
f 17/12/12 18/4/12 19/6/13
f 17/12/12 20/13/5 18/4/12
f 20/13/5 21/11/5 18/4/12
f 22/13/5 23/7/5 24/11/5
f 25/14/14 26/15/15 27/16/16
f 28/17/17 29/18/18 30/19/19
f 31/17/20 32/19/21 33/20/22
f 34/14/23 35/21/24 36/15/25
f 37/22/26 38/23/27 39/24/28
f 40/25/29 41/26/30 42/27/31
f 40/25/29 43/28/32 41/26/30
f 44/29/33 45/30/34 46/31/35
f 44/29/33 47/32/36 45/30/34
f 48/25/37 49/33/38 50/22/39
f 51/22/40 52/33/41 53/23/42
f 54/14/43 55/34/44 56/21/45
f 54/14/43 57/35/46 55/34/44
f 58/17/47 59/36/48 60/37/49
f 58/17/47 61/20/50 59/36/48
f 62/25/51 63/27/52 64/33/53
f 65/38/54 66/39/55 67/40/56
f 65/38/54 68/41/57 66/39/55
f 69/42/58 70/43/59 71/44/60
f 69/42/58 72/45/61 70/43/59
f 73/46/62 74/47/62 75/48/62
f 76/49/63 77/50/63 78/51/63
f 79/49/64 80/51/64 81/52/64
f 82/46/65 83/53/65 84/47/65
f 85/54/66 86/55/66 87/56/66
f 88/57/66 89/58/66 90/59/66
f 91/56/67 92/60/68 93/54/67
f 94/59/67 95/61/68 96/57/67
f 97/60/69 98/59/70 99/54/70
f 100/62/71 101/61/72 102/60/72
f 102/60/72 101/61/72 103/59/73
f 104/62/71 105/63/71 101/61/72
f 106/64/74 107/65/75 108/66/76
f 109/67/77 110/68/78 111/69/79
f 112/70/80 113/71/81 114/72/82
f 112/70/80 115/73/81 113/71/81
f 116/74/83 117/75/84 118/76/85
f 119/77/86 120/78/87 121/79/88
f 122/64/89 123/80/90 124/65/91
f 125/67/92 126/69/93 127/81/94
f 128/82/95 129/83/96 130/84/97
f 131/85/98 132/86/99 133/87/100
f 134/88/101 135/64/74 136/66/102
f 137/81/103 138/89/104 139/67/105
f 140/80/106 141/64/107 142/90/108
f 143/91/109 144/92/110 145/93/109
f 146/91/111 147/93/112 148/94/113
f 149/95/114 150/96/115 151/97/116
f 152/95/117 153/98/118 154/99/119
f 155/96/120 156/100/121 157/101/122
f 158/102/123 155/96/120 157/101/122
f 158/102/123 159/97/124 155/96/120
f 160/103/125 161/100/126 162/75/127
f 163/103/128 164/101/129 161/100/126
f 165/102/130 164/101/129 163/103/128
f 166/104/131 167/105/132 168/106/133
f 169/107/134 166/104/131 168/106/133
f 170/104/135 171/79/136 167/105/137
f 172/67/138 173/108/139 174/68/140
f 172/67/141 175/89/104 176/109/142
f 158/102/130 177/103/125 178/110/143
f 155/96/144 179/94/145 180/100/126
f 178/110/146 181/74/147 182/111/148
f 178/110/146 183/103/149 181/74/147
f 181/74/150 184/103/151 185/75/152
f 186/91/153 187/94/154 155/96/115
f 188/95/155 186/91/153 155/96/115
f 188/95/155 189/99/119 186/91/153
f 186/91/153 189/99/119 190/92/156
f 189/99/157 191/105/137 192/92/158
f 189/99/119 193/106/159 194/105/160
f 195/107/161 193/106/159 189/99/119
f 195/107/161 189/99/119 196/98/162
f 195/107/134 197/112/163 198/104/164
f 197/112/163 199/77/165 200/104/166
f 197/112/163 201/113/167 199/77/165
f 199/77/165 202/79/168 203/104/169
f 204/114/170 205/90/171 206/64/107
f 207/67/92 208/115/172 209/116/173
f 210/67/138 209/116/174 211/108/175
f 212/88/176 213/66/177 214/117/178
f 215/64/107 212/88/179 216/118/180
f 217/64/107 218/118/180 219/119/181
f 217/64/107 219/119/181 220/114/182
f 219/119/181 221/120/183 220/114/182
f 222/121/184 223/122/185 224/109/186
f 223/122/185 225/67/92 224/109/186
f 225/67/92 223/122/185 226/115/172
f 227/85/187 228/87/188 229/123/189
f 230/82/190 231/124/191 232/83/192
f 233/125/193 234/126/194 235/127/195
f 236/123/196 237/128/197 238/85/187
f 236/123/196 239/129/198 237/128/197
f 240/124/199 241/130/200 242/131/201
f 240/124/199 243/82/202 241/130/200
f 244/132/203 245/128/204 246/129/205
f 247/133/206 248/131/207 249/130/208
f 250/125/209 251/134/210 252/135/211
f 253/125/209 254/135/211 255/136/212
f 256/137/213 257/138/214 258/139/215
f 259/125/209 260/140/216 261/134/217
f 262/133/218 263/141/219 264/142/220
f 265/125/221 266/143/222 267/137/223
f 268/137/224 269/139/225 270/125/226
f 268/137/224 271/144/227 272/145/228
f 273/137/229 272/145/230 274/138/214
f 275/132/231 276/146/232 277/147/233
f 278/125/209 279/148/234 280/140/235
f 281/125/236 282/136/237 283/143/222
f 284/149/238 285/141/239 286/150/240
f 287/151/241 288/152/242 289/147/243
f 290/132/244 291/129/198 292/146/245
f 293/133/246 294/142/247 295/131/207
f 296/125/209 297/153/248 298/148/234
f 299/125/249 300/127/250 301/153/251
f 302/132/252 303/147/253 304/152/254
f 305/133/255 306/150/256 307/141/257
f 308/154/258 309/155/259 310/156/260
f 308/154/258 311/151/261 309/155/259
f 312/151/262 313/147/263 314/155/264
f 315/154/265 316/157/266 317/149/267
f 315/154/265 318/156/260 316/157/266
f 319/149/268 320/157/269 321/141/270
f 322/158/271 323/159/271 324/160/271
f 325/161/272 326/162/272 327/163/272
f 328/158/271 329/164/271 330/159/271
f 331/161/272 332/165/272 333/162/272
f 334/166/273 335/167/274 336/168/193
f 337/169/275 336/168/193 335/167/274
f 338/170/276 339/171/277 340/172/278
f 341/173/279 340/172/278 339/171/277
f 342/174/280 343/175/214 344/176/281
f 345/166/282 342/174/280 346/167/274
f 347/169/283 346/167/274 348/177/284
f 349/178/285 346/167/286 350/174/280
f 350/174/287 351/176/288 352/179/289
f 353/180/290 354/181/291 355/182/292
f 356/173/279 357/171/277 353/180/293
f 358/170/294 359/183/295 357/171/277
f 360/184/296 353/180/297 361/171/298
f 362/185/299 361/171/277 363/183/295
f 364/184/300 361/171/277 365/185/299
f 364/184/300 365/185/299 366/186/301
f 367/187/302 368/188/250 369/169/303
f 370/189/304 371/190/305 372/191/306
f 373/192/307 374/193/308 375/194/309
f 373/192/307 375/194/309 376/195/310
f 375/194/311 377/193/308 378/188/312
f 379/196/313 380/170/314 381/190/315
f 379/196/316 382/197/317 383/198/318
f 379/196/319 384/189/320 385/197/321
f 384/189/320 379/196/319 386/190/322
f 387/199/71 388/200/323 389/192/324
f 387/199/71 390/201/325 391/202/326
f 387/199/71 389/192/324 392/203/327
f 387/199/71 392/203/327 393/204/328
f 389/192/324 394/195/310 392/203/327
f 389/192/329 395/200/330 396/193/308
f 397/205/331 398/191/306 399/201/325
f 400/205/332 401/189/333 398/191/334
f 400/205/332 402/197/335 401/189/333
f 397/205/332 403/206/336 404/197/337
f 405/199/338 403/206/336 397/205/332
f 405/199/338 406/204/71 403/206/336
f 405/199/338 397/205/332 407/201/325
f 405/199/71 408/202/326 409/200/330
f 410/194/339 411/188/250 412/187/340
f 412/187/340 413/195/341 410/194/339
f 412/187/302 414/207/342 415/195/343
f 416/183/344 417/198/345 418/208/346
f 419/183/347 420/196/348 417/198/349
f 420/196/350 421/183/351 422/170/352
f 423/180/353 424/209/230 425/173/354
f 426/180/293 427/182/355 428/209/228
f 429/210/356 430/177/284 431/167/274
f 432/178/357 433/210/358 431/167/274
f 432/178/357 434/211/359 433/210/358
f 435/174/360 436/166/361 437/175/362
f 438/187/363 439/169/364 440/177/365
f 441/177/366 442/207/367 438/187/368
f 443/177/284 444/212/369 442/207/370
f 445/210/356 446/212/371 443/177/284
f 447/185/372 448/183/373 449/208/374
f 450/174/375 451/179/376 452/178/377
f 453/180/378 454/184/379 455/181/380
f 456/213/381 457/214/155 458/215/155
f 456/213/381 459/216/382 457/214/155
f 459/216/382 456/213/381 460/217/383
f 459/216/382 460/217/383 461/218/384
f 459/216/381 462/218/383 463/219/385
f 464/216/386 465/219/387 466/220/388
f 467/213/386 468/221/389 469/222/390
f 470/213/381 471/222/391 472/217/383
f 473/223/392 474/224/393 475/225/394
f 476/226/395 477/227/395 478/228/395
f 479/226/396 480/229/396 477/227/396
f 480/229/396 481/223/397 482/225/396
f 483/229/395 482/225/395 477/227/395
f 484/230/396 485/231/396 486/232/396
f 487/230/394 488/233/394 485/231/394
f 486/232/395 489/234/398 490/235/398
f 491/232/395 485/231/395 489/234/397
f 492/236/397 493/235/397 489/234/397
f 494/237/399 492/236/398 495/238/400
f 494/237/401 496/238/400 497/239/402
f 494/237/401 498/240/403 499/241/404
f 500/242/405 499/241/404 498/240/403
f 500/242/405 498/240/403 501/243/406
f 500/242/405 501/243/406 502/244/407
f 500/242/405 502/244/407 503/245/404
f 504/246/408 503/245/404 502/244/407
f 504/246/408 502/244/407 505/247/409
f 504/246/410 506/247/411 507/224/412
f 504/246/410 507/224/412 508/248/413
f 509/223/395 508/248/413 507/224/412
f 510/236/397 511/234/397 512/238/414
f 513/230/415 514/228/415 515/233/415
f 516/230/416 517/226/416 518/228/416
f 519/237/417 520/239/418 521/240/419
